<svg xmlns="http://www.w3.org/2000/svg" viewBox="0 0 2411.2 2794" enable-background="new 0 0 2411.2 2794"><style type="text/css">.st0{fill:#FFFFFF;} .st1{fill-rule:evenodd;clip-rule:evenodd;} .st2{fill-rule:evenodd;clip-rule:evenodd;fill:#FFFFFF;}</style><g id="Layer_x5F_1_x5F_1"><path d="M1204.6 359.2l-932.8-329.2v2030.1l932.8-301.8z"/><path class="st0" d="M1182.2 358.1l968.4-329.1v2030l-968.4-301.7zm-1152.2 2057.3l1152.2-384v-1673.5l-1152.2 384.1z"/><path d="M1707.2 2440.7l163.3 268.7 86.1-249.6zm-1285.5-1505.9c-6.1-6 8 49.1 27.6 68.9 34.8 35.1 61.9 39.6 76.4 40.2 32 1.3 71.5-8 94.9-17.8 22.7-9.7 62.4-30 77.5-59.6 3.2-6.3 11.9-17 6.4-43.2-4.2-20.2-17-27.3-32.7-26.2-15.7 1.1-63.2 13.7-86.1 20.8-23 7-70.3 21.4-90.9 25.8-20.5 4.5-65.8-2-73.1-8.9zm581.4 658.9c-9.1-3.3-196.9-81.1-223.6-93.9-21.8-10.5-75.2-33.1-100.4-43.3 70.8-109.2 115.5-191.6 121.5-204.1 11-23 86-169.6 87.7-178.7 1.7-9.1 3.8-42.9 2.2-51-1.7-8.2-29.1 7.6-66.4 20.2-37.4 12.6-108.4 58.8-135.8 64.6-27.5 5.7-115.5 39.1-160.5 54-45 14.9-130.2 40.9-165.2 50.4-35.1 9.5-65.7 10.2-85.3 16.2 0 0 2.6 27.5 7.8 35.7 5.2 8.2 23.7 28.4 45.3 34.1 21.6 5.7 57.3 3.4 73.6-.3 16.3-3.8 44.4-17.5 48.2-23.6 3.8-6.1-2-24.9 4.5-30.6 6.5-5.6 92.2-25.7 124.6-35.4 32.4-10 156.3-52.6 173.1-50.5-5.3 17.7-105 215.1-137.1 274-32.1 58.9-218.6 318-258.3 363.6-30.1 34.7-103.2 123.5-128.5 143.6 6.4 1.8 51.6-2.1 59.9-7.2 51.3-31.6 136.9-138.1 164.4-170.5 81.9-96 153.8-196.8 210.8-283.4h.1c11.1 4.6 100.9 77.8 124.4 94 23.4 16.2 115.9 67.8 136 76.4 20 8.7 97.1 44.2 100.3 32.2 3-12.2-14.2-83.1-23.3-86.5z"/><path class="st1" d="M569 2572c18 11 35 20 54 29 38 19 81 39 122 54 56 21 112 38 168 51 31 7 65 13 98 18 3 0 92 11 110 11h90c35-3 68-5 103-10 28-4 59-9 89-16 22-5 45-10 67-17 21-6 45-14 68-22 15-5 31-12 47-18 13-6 29-13 44-19 18-8 39-19 59-29 16-8 34-18 51-28 13-7 43-30 59-30 18 0 30 16 30 30 0 29-39 38-57 51-19 13-42 23-62 34-40 21-81 39-120 54-51 19-107 37-157 49-19 4-38 9-57 12-10 2-114 18-143 18h-132c-35-3-72-7-107-12-31-5-64-11-95-18-24-5-50-12-73-19-40-11-79-25-117-40-69-26-141-60-209-105-12-8-13-16-13-25 0-15 11-29 29-29 16 0 48 23 54 26zm582-563l-1090 363v-1608l1090-363v1608zm61-1655v1680c-1 5-3 10-7 15-2 3-6 7-9 8-25 10-1151 388-1166 388-12 0-23-8-29-21 0-1-1-2-1-4v-1681c2-5 3-12 7-16 8-11 22-13 31-16 17-6 1126-378 1142-378 10 0 32 7 32 25zm908 1663l-907-282v-1355l907-308v1945zm61-1985v2023c-1 23-17 33-32 33-13 0-107-32-123-37-126-39-253-78-378-117-28-9-57-18-84-27-24-7-50-15-74-23-107-33-216-66-323-102-4-1-14-15-14-18v-1413c2-5 4-11 9-15 8-9 351-123 486-168 36-13 487-168 501-168 18 0 32 13 32 32z"/><path d="M2411.2 2440.7l-1211.7-386.2 5.1-1681.3 1206.6 384z"/><path class="st2" d="M1800.3 1124.6l-118.9 287.4 218.6 66.3-99.7-353.7zm-71.3-271.4l156.1 47.3 284.4 1025-160.3-48.7-57.6-210.4-331.4-100.4-71.3 171.4-160.4-48.7 340.5-835.5z"/></g></svg>