<?xml version="1.0" encoding="UTF-8" standalone="no"?>
<!-- Generator: Adobe Illustrator 15.0.0, SVG Export Plug-In . SVG Version: 6.00 Build 0)  -->

<svg
   xmlns:dc="http://purl.org/dc/elements/1.1/"
   xmlns:cc="http://creativecommons.org/ns#"
   xmlns:rdf="http://www.w3.org/1999/02/22-rdf-syntax-ns#"
   xmlns:svg="http://www.w3.org/2000/svg"
   xmlns="http://www.w3.org/2000/svg"
   xmlns:sodipodi="http://sodipodi.sourceforge.net/DTD/sodipodi-0.dtd"
   xmlns:inkscape="http://www.inkscape.org/namespaces/inkscape"
   version="1.1"
   id="Layer_1"
   x="0px"
   y="0px"
   width="149.5"
   height="201"
   viewBox="0 0 149.49999 201"
   enable-background="new 0 0 595.28 841.89"
   xml:space="preserve"
   inkscape:version="0.47 r22583"
   sodipodi:docname="add_book.svg"><metadata
   id="metadata29"><rdf:RDF><cc:Work
       rdf:about=""><dc:format>image/svg+xml</dc:format><dc:type
         rdf:resource="http://purl.org/dc/dcmitype/StillImage" /></cc:Work></rdf:RDF></metadata><defs
   id="defs27"><inkscape:perspective
     sodipodi:type="inkscape:persp3d"
     inkscape:vp_x="0 : 420.94501 : 1"
     inkscape:vp_y="0 : 1000 : 0"
     inkscape:vp_z="595.28003 : 420.94501 : 1"
     inkscape:persp3d-origin="297.64001 : 280.63 : 1"
     id="perspective31" /></defs><sodipodi:namedview
   pagecolor="#ffffff"
   bordercolor="#666666"
   borderopacity="1"
   objecttolerance="10"
   gridtolerance="10"
   guidetolerance="10"
   inkscape:pageopacity="0"
   inkscape:pageshadow="2"
   inkscape:window-width="640"
   inkscape:window-height="489"
   id="namedview25"
   showgrid="false"
   inkscape:zoom="0.28032165"
   inkscape:cx="84.749001"
   inkscape:cy="99.555002"
   inkscape:window-x="0"
   inkscape:window-y="41"
   inkscape:window-maximized="0"
   inkscape:current-layer="Layer_1" />
<path
   d="m 23.608991,37 c -6.627,0 -12,-5.373 -12,-12 v -2 c 0,-6.627 5.373,-12 12,-12 H 149.49999 V 3 H 11.999991 C 5.3729905,3 -9.4696599e-6,8.373 -9.4696599e-6,15 v 174 c 0,6.627 5.3729999696599,12 12.0000004696599,12 H 149.49999 V 37 H 23.608991 z"
   id="path3"
   style="fill:#ffffff" />
<linearGradient
   id="SVGID_1_"
   gradientUnits="userSpaceOnUse"
   x1="287.64011"
   y1="320"
   x2="287.64011"
   y2="516.65198"
   gradientTransform="translate(-212.89101,-319.5)">
	<stop
   offset="0"
   style="stop-color:#CC3333"
   id="stop6" />
	<stop
   offset="1"
   style="stop-color:#650A34"
   id="stop8" />
</linearGradient>
<path
   d="m 23.608991,34 c -6.627,0 -12,-5.373 -12,-12 v -2 c 0,-6.627 5.373,-12 12,-12 H 149.49999 V 0 H 11.999991 C 5.3729905,0 -9.4696599e-6,5.373 -9.4696599e-6,12 v 174 c 0,6.627 5.3729999696599,12 12.0000004696599,12 H 149.49999 V 34 H 23.608991 z"
   id="path10"
   style="fill:url(#SVGID_1_)" />
<path
   d="M 149.35899,26.5 H 26.358991 c -2.347,0 -4.25,-1.903 -4.25,-4.25 l 0,0 c 0,-2.347 1.903,-4.25 4.25,-4.25 H 149.35899"
   id="path12"
   style="fill:#ffffff" />
<path
   d="M 149.35899,24.5 H 26.358991 c -2.347,0 -4.25,-1.903 -4.25,-4.25 l 0,0 c 0,-2.347 1.903,-4.25 4.25,-4.25 H 149.35899"
   id="path14"
   style="fill:#999889" />
<polygon
   points="310.5,376 310.5,398.5 288,398.5 288,416.5 310.5,416.5 310.5,439 328.5,439 328.5,416.5 351,416.5 351,398.5 328.5,398.5 328.5,376 "
   id="polygon16"
   style="fill:#640e0e"
   transform="translate(-212.89101,-319.5)" />
<linearGradient
   id="SVGID_2_"
   gradientUnits="userSpaceOnUse"
   x1="319.5"
   y1="374"
   x2="319.5"
   y2="437.25439">
	<stop
   offset="0"
   style="stop-color:#F0EFEF"
   id="stop19" />
	<stop
   offset="1"
   style="stop-color:#CFD0D0"
   id="stop21" />
</linearGradient>
<polygon
   points="310.5,374 310.5,396.5 288,396.5 288,414.5 310.5,414.5 310.5,437 328.5,437 328.5,414.5 351,414.5 351,396.5 328.5,396.5 328.5,374 "
   id="polygon23"
   style="fill:url(#SVGID_2_)"
   transform="translate(-212.89101,-319.5)" />
</svg>