<?xml version="1.0" encoding="UTF-8" standalone="no"?>
<!-- Generator: Adobe Illustrator 12.0.0, SVG Export Plug-In . SVG Version: 6.00 Build 51448)  --><svg height="253.5" id="Layer_1" inkscape:version="0.40+cvs" sodipodi:docbase="F:\openclip\svg3" sodipodi:docname="Capitello modanatura moulure.svg" sodipodi:version="0.32" style="overflow:visible;enable-background:new 0 0 277.433 253.5;" version="1.0" viewBox="0 0 277.433 253.5" width="277.433" xml:space="preserve" xmlns="http://www.w3.org/2000/svg" xmlns:cc="http://web.resource.org/cc/" xmlns:dc="http://purl.org/dc/elements/1.1/" xmlns:inkscape="http://www.inkscape.org/namespaces/inkscape" xmlns:rdf="http://www.w3.org/1999/02/22-rdf-syntax-ns#" xmlns:sodipodi="http://inkscape.sourceforge.net/DTD/sodipodi-0.dtd" xmlns:svg="http://www.w3.org/2000/svg" xmlns:xml="http://www.w3.org/XML/1998/namespace"><metadata><rdf:RDF xmlns:cc="http://web.resource.org/cc/" xmlns:dc="http://purl.org/dc/elements/1.1/" xmlns:rdf="http://www.w3.org/1999/02/22-rdf-syntax-ns#"><cc:Work rdf:about=""><dc:title>Capitello modanatura modanature moulure moulures</dc:title><dc:description></dc:description><dc:subject><rdf:Bag><rdf:li>building</rdf:li></rdf:Bag></dc:subject><dc:publisher><cc:Agent rdf:about="http://www.openclipart.org"><dc:title>Architetto Francesco Rollandin</dc:title></cc:Agent></dc:publisher><dc:creator><cc:Agent><dc:title>Architetto Francesco Rollandin</dc:title></cc:Agent></dc:creator><dc:rights><cc:Agent><dc:title>Architetto Francesco Rollandin</dc:title></cc:Agent></dc:rights><dc:date></dc:date><dc:format>image/svg+xml</dc:format><dc:type rdf:resource="http://purl.org/dc/dcmitype/StillImage"/><cc:license rdf:resource="http://web.resource.org/cc/PublicDomain"/><dc:language>en</dc:language></cc:Work><cc:License rdf:about="http://web.resource.org/cc/PublicDomain"><cc:permits rdf:resource="http://web.resource.org/cc/Reproduction"/><cc:permits rdf:resource="http://web.resource.org/cc/Distribution"/><cc:permits rdf:resource="http://web.resource.org/cc/DerivativeWorks"/></cc:License></rdf:RDF></metadata>
<defs id="defs56"></defs>
<sodipodi:namedview bordercolor="#666666" borderopacity="1.0" id="base" inkscape:current-layer="Layer_1" inkscape:cx="138.71651" inkscape:cy="126.75000" inkscape:pageopacity="0.0" inkscape:pageshadow="2" inkscape:window-height="540" inkscape:window-width="640" inkscape:window-x="22" inkscape:window-y="22" inkscape:zoom="1.4911243" pagecolor="#ffffff"></sodipodi:namedview>

<g id="g3">
	<path d="M269.987,16.446c11.514,10.547,7.726,33.31,1.663,45.651c-9.559,19.459-32.822,21.546-51.841,19.009   c-2.021,22.636-2.369,45.377-2.399,68.09c-0.015,10.891,0.025,21.781,0.025,32.672c0,5.381,0,10.762,0,16.143   c0,4.35,1.145,5.354,5.544,5.098c2.975-0.172,12.557-3.239,12.893,1.706c0.221,3.245-2.241,9.014-0.016,11.713   c1.997,2.421,5.807,3.181,8.67,3.993c3.729,1.058,7.776,3.027,11.667,3.265c2.984,0.182,1.435,5.441,1.368,7.535   c-0.148,4.68,0.078,9.268,0.319,13.928c0.24,4.638-1.359,4.189-5.543,4.594c-21.966,2.125-44.538,0.341-66.583,0.291   c-22.807-0.052-45.619,0.078-68.409,1.014c-22.082,0.906-44.168,0.835-66.252,1.523c-9,0.28-18.09,0.771-27.071,0.831   c-3.313,0.022-3.382-1.347-2.935-4.079c0.726-4.434,0.467-8.914,0.467-13.398c0-2.373-1.074-7.706,1.34-9.398   c2.938-2.061,7.151-2.742,10.401-4.265c9.135-4.276,6.441-7.791,6.591-16.34c0.073-4.137,5.426-1.096,8.395-1.154   c4.361-0.087,2.593-4.402,2.559-7.859c-0.064-6.333-0.206-12.665-0.382-18.995c-0.639-23.031-1.182-46.073-2.019-69.097   c-0.196-5.4-0.352-10.801-0.472-16.204c-0.058-2.589,1.452-11.419-2.132-11.275c-8.722,0.349-17.113-0.684-25.05-4.56   C-12.651,60.547-3.602,8.372,32.616,2.474c9.309-1.516,19.017-0.612,28.399-0.511c11.773,0.126,23.546,0.163,35.32,0.157   c23.119-0.013,46.238-0.115,69.354-0.556C185.921,1.177,206.175-0.019,226.411,0C242.655,0.015,259.596,3.013,269.987,16.446" id="path5"></path>

	<path d="M263.497,12.805c17.229,17.231,13.408,52.826-9.883,63.111c-11.111,4.906-29.468,6.652-39.829-0.784   c-4.768-3.42-10.636-8.188-13.193-13.588c-2.79-5.893-0.708-14.659,1.955-20.272c5.144-10.839,15.963-19.15,28.248-18.245   c13.067,0.963,21.35,10.229,19.214,23.444c-1.684,10.42-12.965,22.841-24.252,15.978c-4.984-3.032-8.286-9.521-6.396-15.307   c1.08-3.303,8.425-8.779,10.105-2.996c-3.617-0.933-3.468,5.562-2.88,7.464c1.694,5.481,8.471,5.282,12.069,1.689   c10.924-10.907-4.807-28.457-17.827-22.066c-15.255,7.487-15.464,27.982-1.153,36.475c13.494,8.008,31.806,1.371,39.313-11.699   c6.751-11.753,4.543-29.552-5.98-38.545c-6.412-5.48-16.133-5.78-24.13-6.6C217.514,9.7,206.07,9.611,194.659,9.88   c-45.654,1.077-91.252,2.635-136.93,2.865c-10.516,0.053-26.706-3.068-35.7,3.59C13.072,22.966,7.624,34.89,8.907,45.965   c2.465,21.27,26.852,34.439,45.764,23.854C63.05,65.13,69.272,56.151,68.154,46.26c-1.048-9.266-8.71-17.296-18.334-17.278   c-10.437,0.02-18.804,10.469-13.622,20.189c2.062,3.867,8.494,5.687,11.636,1.998c2.241-2.63,1.254-7.959-2.931-7.419   c4.833-5.223,11.914,1.513,11.38,7.142c-0.623,6.566-7.648,11.135-13.593,12.024c-15.159,2.267-23.777-11.625-20.532-25.271   c3.998-16.809,21.359-21.542,36.573-17.014c17.902,5.329,19.484,20.76,13.54,36.295C59.813,89.49,7.194,84.666,2.164,49.499   c-2.4-16.776,6.42-36.324,22.822-42.628c7.058-2.713,14.77-2.768,22.225-2.692C58.154,4.29,69.098,4.427,80.042,4.491   c32.615,0.19,65.303,0.147,97.908-0.728c16.363-0.439,32.709-1.273,49.082-0.806C239.347,3.309,254.146,3.507,263.497,12.805" id="path7" style="fill:#BFBFBF;"></path>

	<path d="M258.749,31.246c3.035,11.892-0.551,27.027-11.674,33.584c-10.348,6.101-28.37,4.505-33.847-7.551   c-4.545-10.002,2.436-25.982,14.791-24.727c6.887,0.7,10.927,5.838,10.588,12.623c-0.167,3.326-0.945,6.588-4.631,7.439   c-3.448,0.796-6.992-1.519-4.906-5.223c4.045,5.535,5.103-6.75-1.358-8.312c-6.246-1.511-10.79,3.854-10.992,9.564   c-0.493,13.941,14.36,23.351,26.353,15.28c11.628-7.826,13.93-28.233,3.285-37.841c-6.293-5.681-15.592-6.508-23.673-6.923   c-11.101-0.57-22.227,0.536-33.31,1.041c-22.333,1.019-44.661,2.149-66.996,3.14c-10.522,0.466-21.048,0.829-31.577,1.124   c-5.074,0.142-10.148,0.27-15.223,0.378c-5.138,0.109-9.622-3.251-14.107-5.271c-13.721-6.181-33.438-2.347-40.341,11.952   c-5.646,11.696-1.719,30.13,12.218,33.742c10.756,2.788,31.213-5.459,25.068-19.708c-2.384-5.527-9.835-7.564-14.897-4.53   c-1.53,0.917-5.698,8.159-1.748,6.881c1.042-0.337,1.828-1.721,3.053-1.544c2.031,0.294,1.867,1.657,0.453,2.672   c-6.196,4.449-9.433-4.01-7.865-8.951c2.52-7.944,13.175-10.17,19.805-6.519c13.573,7.474,8.818,25.74-2.296,32.597   c-14.444,8.912-34.788,3.045-41.537-12.791C7.439,39.422,15.236,19.093,30.86,15.584c9.506-2.136,20.457-0.466,30.129-0.384   c12.077,0.103,24.155,0.117,36.232,0.044c23.102-0.14,46.172-0.626,69.248-1.748c19.153-0.93,38.758-2.352,57.946-1.18   C237.174,13.095,255.954,15.957,258.749,31.246" id="path9" style="fill:#808080;"></path>

	<path d="M216.96,22.065c-4.189,1.457-6.926,5.1-10.035,8.035c-3.926,3.706-7.758,3.477-12.894,3.057   c-13.75-1.124-27.989-0.009-41.786,0.081c-14.754,0.095-29.439,0.667-44.163,1.609c-7.355,0.471-14.71,0.961-22.071,1.337   c-3.388,0.173-7.721,1.855-8.424-1.65c-0.532-2.656-2.151-4.901-3.401-7.245c25.986-0.478,51.909-1.521,77.857-2.958   c12.748-0.706,25.585-1.691,38.35-1.883c5.152-0.078,10.293,0.221,15.423-0.352C209.098,21.729,213.818,20.556,216.96,22.065" id="path11" style="fill:#5E5E5E;"></path>

	<path d="M202.556,35.282c-3.06,6.708-6.111,13.132-5.917,20.674c0.065,2.534,0.354,5.179,1.679,7.404   c1.462,2.459,4.185,3.993,4.92,6.893c1.413,5.582-0.519,12.133-0.678,17.817c-0.233,8.271-0.503,16.542-0.691,24.813   c-0.373,16.291-0.483,32.586-0.646,48.88c-0.081,8.149-0.175,16.3-0.321,24.449c-0.058,3.206,1.931,16.342-2.582,17.381   c-4.207,0.97-9.048,1.308-9.19-3.83c-0.206-7.431,0.059-14.804,0.187-22.237c0.296-17.278,0.149-34.562,0.442-51.841   c0.278-16.383,0.703-32.763,1.037-49.146c0.156-7.656,0.222-15.316,0.411-22.972c0.161-6.488-5.237-11.803-7.485-17.813   C189.794,33.726,196.337,35.792,202.556,35.282" id="path13" style="fill:#E3E3E3;"></path>

	<path d="M149.926,35.678c-1.179,5.098-7.83,6.24-8.979,10.95c-1.648,6.761-0.583,15.063-0.745,22.007   c-0.406,17.411-0.884,34.822-0.57,52.239c0.308,17.057,0.717,34.095,0.717,51.156c0,8.01,0,16.02,0,24.028   c0,7.207,0.133,7.996-7.093,7.5c-6.914-0.475-3.747-15.828-3.729-20.809c0.059-16.925,0.119-33.849,0.178-50.773   c0.061-17.404-0.096-34.828,0.439-52.226c0.247-8.041,0.696-16.035,0.593-24.084c-0.11-8.56-2.827-11.851-8.037-18.326   C131.735,36.181,140.884,36.717,149.926,35.678" id="path15" style="fill:#E3E3E3;"></path>

	<path d="M180.872,35.678c-0.979,4.869-5.544,7.579-8.596,11.063c-4.358,4.976-2.346,12.479-2.414,18.523   c-0.192,17.04-1.516,33.989-1.317,51.069c0.191,16.582,0.597,33.16,0.705,49.742c0.054,8.282,0.034,16.565-0.123,24.847   c-0.069,3.652,0.211,7.544-0.281,11.169c-0.41,3.021-5.537,2.033-7.736,2.147c-1.793,0.094-1.443-80.056-1.404-87.238   c0.085-16.094,0.108-32.21,0.636-48.297c0.19-5.829,0.481-11.56,1.162-17.345c0.758-6.434-3.308-10.796-7.856-15.206   c3.301-1.833,8.131-0.664,11.682-0.447C170.432,36.017,175.776,36.123,180.872,35.678" id="path17" style="fill:#E3E3E3;"></path>

	<path d="M118.269,37.735c-1.283,2.154-2.983,4.106-4.986,5.619c-1.565,1.183-3.853,1.641-4.952,3.395   c-1.47,2.347,0.599,5.242,0.599,7.685c0,4.216-0.604,8.428-0.717,12.647c-0.438,16.338-0.463,32.68-0.272,49.021   c0.194,16.553,0.592,33.098,1.683,49.619c0.389,5.881,5.109,37.916-2.616,38.886c-3.479,0.438-8.817,1.344-9.113-3.157   c-0.499-7.577-0.5-15.216-0.751-22.806c-0.55-16.556-1.148-33.111-1.437-49.675c-0.284-16.31-0.281-32.628,0.23-48.934   c0.255-8.16,0.637-16.315,1.172-24.461c0.475-7.23-3.972-10.534-5.669-17.048C100.385,38.349,109.315,37.358,118.269,37.735" id="path19" style="fill:#E3E3E3;"></path>

	<path d="M158.395,46.125c-0.533,31.886-1.188,63.758-1.188,95.65c0,15.317,0,30.634,0,45.95   c0,4.617,0.757,9.24,0.664,13.833c-0.068,3.371-8.199,3.735-8.344,0.423c-1.413-32.226-1.844-64.548-1.556-96.803   c0.143-15.907,0.771-31.809,1.218-47.709c0.135-4.806-1.466-13.862,1.021-18.2C152.52,35.243,157.134,45.118,158.395,46.125" id="path21" style="fill:#969696;"></path>

	<path d="M86.137,40.11c-1.802,4.444-6.351,6.834-8.785,10.843c0.118-3.233-1.075-7.139,0.521-10.162   C78.82,38.997,86.6,37.518,86.137,40.11" id="path23" style="fill:#E3E3E3;"></path>

	<path d="M127.924,47.708c-0.864,29.137-0.867,58.291-0.963,87.438c-0.048,14.845-0.097,29.689-0.146,44.534   c-0.023,6.938,0.175,13.919-0.089,20.853c-0.133,3.509-2.079,3.183-5.074,3.256c-3.186,0.077-1.998-5.488-2.133-8.231   c-0.182-3.69-0.362-7.381-0.538-11.071c-0.351-7.383-0.684-14.767-0.974-22.152c-0.581-14.771-0.985-29.548-1.057-44.33   c-0.071-14.73,0.919-29.391,1.103-44.1c0.088-7.041-0.18-14.086-0.18-21.128c0-5.268-1.026-9.582,2.85-13.457   C123.231,42.02,125.295,45.115,127.924,47.708" id="path25" style="fill:#969696;"></path>

	<path d="M188.469,83.005c-0.868,27.782-1.484,55.573-1.786,83.367c-0.124,11.389,0.632,23.096-0.191,34.44   c-0.213,2.944-4.001,4.863-6.649,2.729c-2.821-2.274-2.137-11.711-2.193-14.737c-0.244-12.991,0.978-25.921,0.54-38.927   c-0.438-12.993-0.009-25.956,0.292-38.947c0.301-13.003,0.601-26.007,0.907-39.01c0.25-10.571-2.265-22.762,2.749-32.602   C192.517,51.294,189.273,68.576,188.469,83.005" id="path27" style="fill:#969696;"></path>

	<path d="M95.001,51.744c-1.75,28.572-2.194,57.212-1.738,85.831c0.216,13.561,0.746,27.112,1.23,40.665   c0.248,6.934,0.492,13.867,0.735,20.801c0.229,6.533-2.363,4.685-7.43,5.211c-1.578-28.564-2.779-57.147-2.978-85.757   c-0.093-13.326-0.059-26.656,0.183-39.98c0.121-6.69,0.447-13.376,0.565-20.066c0.106-6.027,0.059-12.19,3.418-17.468   C90.991,44.568,92.996,48.156,95.001,51.744" id="path29" style="fill:#969696;"></path>

	<path d="M145.177,87.437c0.988,25.058,1.155,50.139,1.183,75.214c0.013,11.358,0.005,22.718,0.005,34.077   c0,1.782,0.651,4.979-0.428,6.579c-2.152,3.19-2.427-2.293-2.446-2.981c-0.175-6.101-0.312-12.202-0.37-18.306   c-0.233-24.164-0.411-48.273-0.979-72.433c-0.275-11.732,0.069-23.448,0.522-35.172c0.243-6.293,0.513-12.586,0.71-18.882   c0.128-4.116-0.891-8.615,2.99-11.388C146.64,58.581,146.323,73.043,145.177,87.437" id="path31" style="fill:#BFBFBF;"></path>

	<path d="M115.42,50.953c-1.174,28.427-1.397,56.849-0.762,85.292c0.306,13.686,0.66,27.37,1.144,41.051   c0.247,6.976,0.493,13.949,0.709,20.926c0.113,3.651,0.938,5.553-3.386,6.031c-0.947-29.533-2.22-59.063-2.748-88.608   c-0.248-13.869-0.502-27.894,0.314-41.748c0.369-6.252,1.427-12.552,0.738-18.821c-0.473-4.301-1.087-7.463,3.278-9.742   C114.97,47.199,115.34,49.065,115.42,50.953" id="path33" style="fill:#BFBFBF;"></path>

	<path d="M177.626,47.312c-1.061,29.439-2.265,58.83-1.941,88.295c0.16,14.534-0.268,29.064-0.391,43.597   c-0.057,6.632-0.034,13.265,0.191,19.893c0.047,1.372,0.716,3.423-0.136,4.674c-0.996,1.462-2.972,0.332-3.359-0.947   c-1.224-4.041-0.131-9.819-0.212-13.987c-0.144-7.308-0.277-14.616-0.389-21.924c-0.224-14.616-0.359-29.235-0.309-43.853   c0.051-14.634,0.195-29.277,0.585-43.906c0.269-10.124-2.24-25.542,5.248-33.028C177.136,46.464,177.512,46.979,177.626,47.312" id="path35" style="fill:#BFBFBF;"></path>

	<path d="M82.18,85.063c0.151,25.021-0.078,50.047,0.583,75.063c0.338,12.787,1.207,25.561,1.396,38.35   c0.032,2.203,1.505,6.316-2.127,5.501c-1.73-0.388-1.261-14.663-1.35-16.759c-1.034-24.321-2.365-48.646-2.663-72.991   c-0.149-12.221-0.477-24.412,0.259-36.618c0.576-9.556-1.54-21.67,4.694-29.426C82.115,60.46,82.981,72.783,82.18,85.063" id="path37" style="fill:#BFBFBF;"></path>

	<path d="M76.56,148.457c0.157,10.251,0.532,20.496,0.961,30.738c0.296,7.057,2.459,16.297,1.102,23.311   c-0.727,3.755-9.991,3.729-10.081-0.096c-0.255-10.852-0.904-21.675-1.379-32.518c-0.936-21.354-1.054-42.732-1.057-64.104   c-0.001-9.405-0.544-18.909-0.314-28.295c0.123-5.044,2.847-7.453,5.167-11.591c2.299-4.102,3.548-8.677,5.603-12.893   C75.467,84.813,75.458,116.654,76.56,148.457" id="path39" style="fill:#E3E3E3;"></path>

	<path d="M207.781,73.825c0.317,21.825-0.792,43.493-0.792,65.278c0,10.738,0,21.478,0,32.216   c0,5.481,0,10.963,0,16.445c0,2.65,1.686,12.848-0.612,14.655c-4.082,3.21-2.532-8.896-2.516-10.782   c0.052-5.517,0.092-11.034,0.129-16.552c0.074-11.035,0.133-22.071,0.23-33.106c0.202-22.987,0.569-45.978,1.582-68.945   C206.461,73.297,207.122,73.561,207.781,73.825" id="path41" style="fill:#BFBFBF;"></path>

	<path d="M63.66,154.472c0.783,16.721,1.787,33.437,2.058,50.177c-2.401-0.132-4.802-0.265-7.203-0.396   c4.111-2.813,0.355-17.984,0.207-22.342c-0.486-14.264-0.922-28.527-1.294-42.794c-0.371-14.189-1.13-28.355-1.666-42.537   c-0.121-3.195-2.525-15.268-0.633-17.566c1.9-2.309,5.626-3.449,8.214-4.792c0.066,13.375,0.132,26.75,0.198,40.125   C63.607,127.713,64.891,141.124,63.66,154.472" id="path43" style="fill:#BFBFBF;"></path>

	<path d="M216.96,80.235c0.446,21.664-0.711,43.313-1.313,64.962c-0.296,10.651-0.357,21.305-0.45,31.959   c-0.03,3.503,1.627,25.193-1.97,25.515c-5.911,0.527-3.371-20.418-3.351-24.031c0.063-10.85,0.132-21.698,0.181-32.548   c0.104-23.14,0.117-46.282,0.571-69.418C213.076,77.254,214.519,79.697,216.96,80.235" id="path45" style="fill:#E3E3E3;"></path>

	<path d="M52.421,79.84c0.88,22.406,1.916,44.805,2.742,67.213c0.432,11.725,0.802,23.45,1.042,35.18   c0.088,4.317-2.453,18.714,1.124,22.02c-4.652,0-3.771-2.246-3.999-6.369c-0.426-7.703-0.767-15.425-0.831-23.14   c-0.122-14.887-0.063-29.809-0.743-44.682C51.631,127.329,46.842,79.502,52.421,79.84" id="path47" style="fill:#E3E3E3;"></path>

	<path d="M233.027,205.044c2.539,9.07-2.377,10.524-9.861,11.079c-9.534,0.707-19.151,0.729-28.707,0.77   c-20.313,0.088-40.627,0.037-60.94,0.133c-19.374,0.091-38.575,1.29-57.922,1.899c-9.106,0.287-18.38,0.342-27.438-0.75   c-3.971-0.479-5.018,0.146-5.204-3.817c-0.107-2.286-0.019-4.574-0.109-6.859c31.892,0,63.831-1.94,95.708-1.301   c16.213,0.325,32.394,0.372,48.607,0.431C202.487,206.683,217.678,205.044,233.027,205.044" id="path49" style="fill:#BFBFBF;"></path>

	<path d="M249.092,224.275c-37.66,2.193-75.668-0.496-113.257,2.421c-36.526,2.834-73.583,2.146-110.243,1.22   c14.839-9.382,31.379-6.451,47.913-6.075c20.089,0.457,40.228-2.287,60.35-2.391c20.478-0.105,40.953,0.454,61.432,0.33   c10.018-0.061,19.98-0.497,29.972-1.229C234.292,217.891,240.738,221.712,249.092,224.275" id="path51" style="fill:#E3E3E3;"></path>

	<path d="M255.108,245.961c-1.281,0.09-1.54,1.658-2.793,1.662c-2.189,0.008-4.379,0.015-6.568,0.022   c-5.926,0.021-11.852,0.04-17.777,0.061c-11.854,0.041-23.707,0.08-35.561,0.121c-23.952,0.081-47.894,0.144-71.839,0.773   c-23.992,0.63-47.979,1.343-71.98,1.604c-6.661,0.072-13.326,0.174-19.988,0.186c-3.327,0.005-4.571,1.054-4.644-2.605   c-0.115-5.806-0.229-11.61-0.344-17.415c23.308,2.299,47.056,0.97,70.449,1.107c23.82,0.141,47.644-2.438,71.469-3.03   c23.765-0.591,47.532-0.933,71.303-0.928c3.688,0.001,17.249-3.522,18.395,1.103C256.617,234.223,255.108,240.288,255.108,245.961" id="path53" style="fill:#BFBFBF;"></path>

</g>


  
</svg>
