<?xml version="1.0" encoding="UTF-8" standalone="no"?>
<!-- Generator: Adobe Illustrator 15.0.0, SVG Export Plug-In . SVG Version: 6.00 Build 0)  -->

<svg
   xmlns:dc="http://purl.org/dc/elements/1.1/"
   xmlns:cc="http://creativecommons.org/ns#"
   xmlns:rdf="http://www.w3.org/1999/02/22-rdf-syntax-ns#"
   xmlns:svg="http://www.w3.org/2000/svg"
   xmlns="http://www.w3.org/2000/svg"
   xmlns:sodipodi="http://sodipodi.sourceforge.net/DTD/sodipodi-0.dtd"
   xmlns:inkscape="http://www.inkscape.org/namespaces/inkscape"
   version="1.1"
   id="Layer_1"
   x="0px"
   y="0px"
   width="207.38489"
   height="201.668"
   viewBox="0 0 207.38488 201.668"
   enable-background="new 0 0 595.28 841.89"
   xml:space="preserve"
   inkscape:version="0.47 r22583"
   sodipodi:docname="edit_input.svg"><metadata
   id="metadata18"><rdf:RDF><cc:Work
       rdf:about=""><dc:format>image/svg+xml</dc:format><dc:type
         rdf:resource="http://purl.org/dc/dcmitype/StillImage" /></cc:Work></rdf:RDF></metadata><defs
   id="defs16"><inkscape:perspective
     sodipodi:type="inkscape:persp3d"
     inkscape:vp_x="0 : 420.94501 : 1"
     inkscape:vp_y="0 : 1000 : 0"
     inkscape:vp_z="595.28003 : 420.94501 : 1"
     inkscape:persp3d-origin="297.64001 : 280.63 : 1"
     id="perspective20" /></defs><sodipodi:namedview
   pagecolor="#ffffff"
   bordercolor="#666666"
   borderopacity="1"
   objecttolerance="10"
   gridtolerance="10"
   guidetolerance="10"
   inkscape:pageopacity="0"
   inkscape:pageshadow="2"
   inkscape:window-width="640"
   inkscape:window-height="489"
   id="namedview14"
   showgrid="false"
   inkscape:zoom="0.28032165"
   inkscape:cx="98.91389"
   inkscape:cy="100.723"
   inkscape:window-x="0"
   inkscape:window-y="41"
   inkscape:window-maximized="0"
   inkscape:current-layer="Layer_1" />
<g
   id="g3"
   transform="translate(-198.72612,-320)">
	<path
   d="m 385.392,452.52 c -11.442,0 -20.717,9.358 -20.717,20.905 0,0.05 0.003,0.099 0.003,0.148 -1.411,-0.137 -3.033,-0.183 -4.9,-0.122 0,0 -32.167,13.432 -41.902,35.031 h -5.372 V 432.77 h 7.911 v -26.368 h -28.293 v -14.841 c 15.416,-2.758 27.121,-16.224 27.121,-32.434 0,-18.203 -14.757,-32.96 -32.959,-32.96 -18.204,0 -32.961,14.757 -32.961,32.96 0,16.209 11.705,29.676 27.122,32.434 v 14.841 h -29.717 v 26.368 h 7.911 v 75.713 h -4.619 c -9.736,-21.6 -41.903,-35.031 -41.903,-35.031 -22.977,-0.753 -9.417,14.69 -9.417,14.69 5.396,1.5 6.258,14.923 6.386,20.341 h -0.359 v 13.185 h 49.912 53.866 49.91 v -10.89 l 0.378,-0.035 c 0,0 -0.378,-20.717 6.402,-22.601 0,0 0.281,-0.317 0.69,-0.86 3.796,4.322 9.335,7.05 15.508,7.05 11.442,0 20.718,-9.36 20.718,-20.906 -0.002,-11.548 -9.277,-20.906 -20.719,-20.906 z m -99.445,-58.884 c -5.618,0 -10.172,-6.672 -10.172,-14.9 0,-8.229 4.554,-14.899 10.172,-14.899 5.616,0 10.17,6.67 10.17,14.899 0,8.228 -4.554,14.9 -10.17,14.9 z m 99.445,93.472 c -5.403,0 -10.052,-3.194 -12.232,-7.807 -0.046,-0.947 -0.324,-1.859 -0.938,-2.672 -0.245,-1.03 -0.39,-2.1 -0.39,-3.205 0,-7.558 6.07,-13.684 13.561,-13.684 7.491,0 13.561,6.126 13.561,13.684 -0.002,7.559 -6.072,13.684 -13.562,13.684 z"
   id="path5"
   style="fill:#ffffff" />
	<linearGradient
   id="SVGID_1_"
   gradientUnits="userSpaceOnUse"
   x1="302.418"
   y1="320"
   x2="302.418"
   y2="515.50049">
		<stop
   offset="0"
   style="stop-color:#4990CD"
   id="stop8" />
		<stop
   offset="1"
   style="stop-color:#2F67B2"
   id="stop10" />
	</linearGradient>
	<path
   d="m 385.392,446.353 c -11.442,0 -20.717,9.358 -20.717,20.905 0,0.05 0.003,0.099 0.003,0.148 -1.411,-0.137 -3.033,-0.183 -4.9,-0.122 0,0 -32.167,13.432 -41.902,35.031 h -5.372 v -75.713 h 7.911 v -26.368 h -28.293 v -14.84 c 15.416,-2.758 27.121,-16.225 27.121,-32.434 0,-18.203 -14.757,-32.96 -32.959,-32.96 -18.204,0 -32.961,14.757 -32.961,32.96 0,16.209 11.705,29.676 27.122,32.434 v 14.84 h -29.717 v 26.368 h 7.911 v 75.713 h -4.619 c -9.736,-21.6 -41.903,-35.031 -41.903,-35.031 -22.977,-0.753 -9.417,14.69 -9.417,14.69 5.396,1.5 6.258,14.923 6.386,20.341 h -0.359 V 515.5 h 49.912 53.866 49.91 v -10.89 l 0.378,-0.035 c 0,0 -0.378,-20.717 6.402,-22.601 0,0 0.281,-0.317 0.69,-0.86 3.796,4.322 9.335,7.05 15.508,7.05 11.442,0 20.718,-9.36 20.718,-20.906 -0.002,-11.547 -9.277,-20.905 -20.719,-20.905 z m -99.445,-58.884 c -5.618,0 -10.172,-6.672 -10.172,-14.9 0,-8.229 4.554,-14.899 10.172,-14.899 5.616,0 10.17,6.67 10.17,14.899 0,8.228 -4.554,14.9 -10.17,14.9 z m 99.445,93.472 c -5.403,0 -10.052,-3.194 -12.232,-7.807 -0.046,-0.947 -0.324,-1.859 -0.938,-2.672 -0.245,-1.03 -0.39,-2.1 -0.39,-3.205 0,-7.558 6.07,-13.684 13.561,-13.684 7.491,0 13.561,6.126 13.561,13.684 -0.002,7.559 -6.072,13.684 -13.562,13.684 z"
   id="path12"
   style="fill:url(#SVGID_1_)" />
</g>
</svg>