<?xml version="1.0" encoding="UTF-8" standalone="no"?>
<!-- Generator: Adobe Illustrator 15.0.0, SVG Export Plug-In . SVG Version: 6.00 Build 0)  -->

<svg
   xmlns:dc="http://purl.org/dc/elements/1.1/"
   xmlns:cc="http://creativecommons.org/ns#"
   xmlns:rdf="http://www.w3.org/1999/02/22-rdf-syntax-ns#"
   xmlns:svg="http://www.w3.org/2000/svg"
   xmlns="http://www.w3.org/2000/svg"
   xmlns:sodipodi="http://sodipodi.sourceforge.net/DTD/sodipodi-0.dtd"
   xmlns:inkscape="http://www.inkscape.org/namespaces/inkscape"
   version="1.1"
   id="Layer_1"
   x="0px"
   y="0px"
   width="133.38"
   height="201.166"
   viewBox="0 0 133.38 201.166"
   enable-background="new 0 0 595.28 841.89"
   xml:space="preserve"
   inkscape:version="0.47 r22583"
   sodipodi:docname="save.svg"><metadata
   id="metadata31"><rdf:RDF><cc:Work
       rdf:about=""><dc:format>image/svg+xml</dc:format><dc:type
         rdf:resource="http://purl.org/dc/dcmitype/StillImage" /></cc:Work></rdf:RDF></metadata><defs
   id="defs29"><inkscape:perspective
     sodipodi:type="inkscape:persp3d"
     inkscape:vp_x="0 : 420.94501 : 1"
     inkscape:vp_y="0 : 1000 : 0"
     inkscape:vp_z="595.28003 : 420.94501 : 1"
     inkscape:persp3d-origin="297.64001 : 280.63 : 1"
     id="perspective33" /></defs><sodipodi:namedview
   pagecolor="#ffffff"
   bordercolor="#666666"
   borderopacity="1"
   objecttolerance="10"
   gridtolerance="10"
   guidetolerance="10"
   inkscape:pageopacity="0"
   inkscape:pageshadow="2"
   inkscape:window-width="640"
   inkscape:window-height="489"
   id="namedview27"
   showgrid="false"
   inkscape:zoom="0.28032165"
   inkscape:cx="66.812001"
   inkscape:cy="99.721002"
   inkscape:window-x="0"
   inkscape:window-y="41"
   inkscape:window-maximized="0"
   inkscape:current-layer="Layer_1" />
<g
   id="g3"
   transform="translate(-230.82801,-319.5)">
	<g
   id="g5">
		<path
   d="m 355.763,325.697 h -116.49 c -4.664,0 -8.445,3.782 -8.445,8.446 V 512.22 c 0,4.664 3.781,8.446 8.445,8.446 h 116.489 c 4.665,0 8.446,-3.782 8.446,-8.446 V 334.144 c 10e-4,-4.665 -3.78,-8.447 -8.445,-8.447 z m -106.283,19.004 59.827,-2.111 c 0,39.416 -58.068,57.364 -59.827,57.364 -1.759,0 0,-55.253 0,-55.253 z m -7.742,166.112 c -1.945,0 -3.521,-1.576 -3.521,-3.52 0,-1.944 1.575,-3.52 3.521,-3.52 1.942,0 3.519,1.575 3.519,3.52 0,1.944 -1.576,3.52 -3.519,3.52 z m 0,-84.112 c -1.945,0 -3.521,-1.575 -3.521,-3.519 0,-1.944 1.575,-3.52 3.521,-3.52 1.942,0 3.519,1.575 3.519,3.52 0,1.944 -1.576,3.519 -3.519,3.519 z m 0,-84.111 c -1.945,0 -3.521,-1.576 -3.521,-3.519 0,-1.944 1.575,-3.52 3.521,-3.52 1.942,0 3.519,1.576 3.519,3.52 0,1.943 -1.576,3.519 -3.519,3.519 z m 56.23,164.704 c -27.212,0 -49.271,-22.06 -49.271,-49.271 0,-26.822 21.438,-48.623 48.112,-49.241 24.819,-21.405 30.446,-63.729 30.446,-63.729 h 14.43 v 90.254 c 3.54,6.799 5.553,14.521 5.553,22.716 0,27.211 -22.058,49.271 -49.27,49.271 z m 55.332,3.519 c -1.944,0 -3.521,-1.576 -3.521,-3.52 0,-1.944 1.576,-3.52 3.521,-3.52 1.943,0 3.519,1.575 3.519,3.52 -0.001,1.944 -1.576,3.52 -3.519,3.52 z m 0,-84.112 c -1.944,0 -3.521,-1.575 -3.521,-3.519 0,-1.944 1.576,-3.52 3.521,-3.52 1.943,0 3.519,1.575 3.519,3.52 -0.001,1.944 -1.576,3.519 -3.519,3.519 z m 0,-84.111 c -1.944,0 -3.521,-1.576 -3.521,-3.519 0,-1.944 1.576,-3.52 3.521,-3.52 1.943,0 3.519,1.576 3.519,3.52 -0.001,1.943 -1.576,3.519 -3.519,3.519 z"
   id="path7"
   style="fill:#ffffff" />
		<circle
   cx="297.96799"
   cy="458.02301"
   r="19.356001"
   id="circle9"
   sodipodi:cx="297.96799"
   sodipodi:cy="458.02301"
   sodipodi:rx="19.356001"
   sodipodi:ry="19.356001"
   style="fill:#ffffff"
   d="m 317.32399,458.02301 c 0,10.69002 -8.66598,19.356 -19.356,19.356 -10.69003,0 -19.356,-8.66598 -19.356,-19.356 0,-10.69002 8.66597,-19.356 19.356,-19.356 10.69002,0 19.356,8.66598 19.356,19.356 z" />
	</g>
	<g
   id="g11">
		<linearGradient
   id="SVGID_1_"
   gradientUnits="userSpaceOnUse"
   x1="297.5181"
   y1="321.5"
   x2="297.5181"
   y2="514.83972">
			<stop
   offset="0"
   style="stop-color:#7E9FBA"
   id="stop14" />
			<stop
   offset="0.8257"
   style="stop-color:#231F20"
   id="stop16" />
		</linearGradient>
		<path
   d="m 355.763,319.5 h -116.49 c -4.664,0 -8.445,3.782 -8.445,8.446 v 178.077 c 0,4.664 3.781,8.446 8.445,8.446 h 116.489 c 4.665,0 8.446,-3.782 8.446,-8.446 V 327.946 c 10e-4,-4.664 -3.78,-8.446 -8.445,-8.446 z m -106.283,19.004 59.827,-2.111 c 0,39.416 -58.068,57.364 -59.827,57.364 -1.759,0 0,-55.253 0,-55.253 z m -7.742,166.112 c -1.945,0 -3.521,-1.576 -3.521,-3.52 0,-1.944 1.575,-3.52 3.521,-3.52 1.942,0 3.519,1.575 3.519,3.52 0,1.944 -1.576,3.52 -3.519,3.52 z m 0,-84.112 c -1.945,0 -3.521,-1.575 -3.521,-3.519 0,-1.944 1.575,-3.52 3.521,-3.52 1.942,0 3.519,1.575 3.519,3.52 0,1.944 -1.576,3.519 -3.519,3.519 z m 0,-84.111 c -1.945,0 -3.521,-1.576 -3.521,-3.519 0,-1.944 1.575,-3.52 3.521,-3.52 1.942,0 3.519,1.576 3.519,3.52 0,1.943 -1.576,3.519 -3.519,3.519 z m 56.23,164.704 c -27.212,0 -49.271,-22.06 -49.271,-49.271 0,-26.822 21.438,-48.623 48.112,-49.241 24.819,-21.406 30.446,-63.729 30.446,-63.729 h 14.43 v 90.254 c 3.54,6.799 5.553,14.521 5.553,22.716 0,27.211 -22.058,49.271 -49.27,49.271 z m 55.332,3.519 c -1.944,0 -3.521,-1.576 -3.521,-3.52 0,-1.944 1.576,-3.52 3.521,-3.52 1.943,0 3.519,1.575 3.519,3.52 -0.001,1.944 -1.576,3.52 -3.519,3.52 z m 0,-84.112 c -1.944,0 -3.521,-1.575 -3.521,-3.519 0,-1.944 1.576,-3.52 3.521,-3.52 1.943,0 3.519,1.575 3.519,3.52 -0.001,1.944 -1.576,3.519 -3.519,3.519 z m 0,-84.111 c -1.944,0 -3.521,-1.576 -3.521,-3.519 0,-1.944 1.576,-3.52 3.521,-3.52 1.943,0 3.519,1.576 3.519,3.52 -0.001,1.943 -1.576,3.519 -3.519,3.519 z"
   id="path18"
   style="fill:url(#SVGID_1_)" />
		<linearGradient
   id="SVGID_2_"
   gradientUnits="userSpaceOnUse"
   x1="297.96829"
   y1="321.5"
   x2="297.96829"
   y2="514.83972">
			<stop
   offset="0"
   style="stop-color:#7E9FBA"
   id="stop21" />
			<stop
   offset="0.8257"
   style="stop-color:#231F20"
   id="stop23" />
		</linearGradient>
		<circle
   cx="297.96799"
   cy="451.82599"
   r="19.356001"
   id="circle25"
   sodipodi:cx="297.96799"
   sodipodi:cy="451.82599"
   sodipodi:rx="19.356001"
   sodipodi:ry="19.356001"
   style="fill:url(#SVGID_2_)"
   d="m 317.32399,451.82599 c 0,10.69002 -8.66598,19.356 -19.356,19.356 -10.69003,0 -19.356,-8.66598 -19.356,-19.356 0,-10.69003 8.66597,-19.356 19.356,-19.356 10.69002,0 19.356,8.66597 19.356,19.356 z" />
	</g>
</g>
</svg>