<?xml version="1.0" encoding="UTF-8" standalone="no"?>
<!-- Created with Inkscape (http://www.inkscape.org/) -->

<svg
   xmlns:dc="http://purl.org/dc/elements/1.1/"
   xmlns:cc="http://creativecommons.org/ns#"
   xmlns:rdf="http://www.w3.org/1999/02/22-rdf-syntax-ns#"
   xmlns:svg="http://www.w3.org/2000/svg"
   xmlns="http://www.w3.org/2000/svg"
   xmlns:xlink="http://www.w3.org/1999/xlink"
   xmlns:sodipodi="http://sodipodi.sourceforge.net/DTD/sodipodi-0.dtd"
   xmlns:inkscape="http://www.inkscape.org/namespaces/inkscape"
   width="48"
   height="48"
   id="svg4908"
   sodipodi:version="0.32"
   inkscape:version="0.47 r22583"
   sodipodi:docname="stock_addressbook.svg"
   inkscape:output_extension="org.inkscape.output.svg.inkscape"
   inkscape:export-filename="/home/andreas/project/misc icons/32x32/actions/bookmark-view.png"
   inkscape:export-xdpi="90"
   inkscape:export-ydpi="90"
   version="1.0">
  <defs
     id="defs4910">
    <inkscape:perspective
       sodipodi:type="inkscape:persp3d"
       inkscape:vp_x="0 : 24 : 1"
       inkscape:vp_y="0 : 1000 : 0"
       inkscape:vp_z="48 : 24 : 1"
       inkscape:persp3d-origin="24 : 16 : 1"
       id="perspective139" />
    <linearGradient
       inkscape:collect="always"
       id="linearGradient6881">
      <stop
         style="stop-color:#ffffff;stop-opacity:1;"
         offset="0"
         id="stop6883" />
      <stop
         style="stop-color:#ffffff;stop-opacity:0;"
         offset="1"
         id="stop6885" />
    </linearGradient>
    <linearGradient
       inkscape:collect="always"
       id="linearGradient6859">
      <stop
         style="stop-color:#9ee757;stop-opacity:1"
         offset="0"
         id="stop6861" />
      <stop
         style="stop-color:#8ae234;stop-opacity:1"
         offset="1"
         id="stop6863" />
    </linearGradient>
    <linearGradient
       inkscape:collect="always"
       id="linearGradient6851">
      <stop
         style="stop-color:#fdee77;stop-opacity:1"
         offset="0"
         id="stop6853" />
      <stop
         style="stop-color:#fce94f;stop-opacity:1"
         offset="1"
         id="stop6855" />
    </linearGradient>
    <linearGradient
       inkscape:collect="always"
       id="linearGradient6843">
      <stop
         style="stop-color:#fec065;stop-opacity:1"
         offset="0"
         id="stop6845" />
      <stop
         style="stop-color:#fcaf3e;stop-opacity:1"
         offset="1"
         id="stop6847" />
    </linearGradient>
    <linearGradient
       inkscape:collect="always"
       id="linearGradient6820">
      <stop
         style="stop-color:#729fcf;stop-opacity:1;"
         offset="0"
         id="stop6822" />
      <stop
         style="stop-color:#729fcf;stop-opacity:0;"
         offset="1"
         id="stop6824" />
    </linearGradient>
    <linearGradient
       inkscape:collect="always"
       id="linearGradient6794">
      <stop
         style="stop-color:#ffffff;stop-opacity:1;"
         offset="0"
         id="stop6796" />
      <stop
         style="stop-color:#ffffff;stop-opacity:0;"
         offset="1"
         id="stop6798" />
    </linearGradient>
    <linearGradient
       inkscape:collect="always"
       id="linearGradient6642">
      <stop
         style="stop-color:#d3d7cf;stop-opacity:1"
         offset="0"
         id="stop6644" />
      <stop
         style="stop-color:#888a85;stop-opacity:1"
         offset="1"
         id="stop6646" />
    </linearGradient>
    <linearGradient
       id="linearGradient6499"
       inkscape:collect="always">
      <stop
         id="stop6501"
         offset="0"
         style="stop-color:#729fcf;stop-opacity:1" />
      <stop
         id="stop6503"
         offset="1"
         style="stop-color:#3465a4;stop-opacity:1" />
    </linearGradient>
    <linearGradient
       inkscape:collect="always"
       id="linearGradient5060">
      <stop
         style="stop-color:black;stop-opacity:1;"
         offset="0"
         id="stop5062" />
      <stop
         style="stop-color:black;stop-opacity:0;"
         offset="1"
         id="stop5064" />
    </linearGradient>
    <linearGradient
       id="linearGradient5048">
      <stop
         style="stop-color:black;stop-opacity:0;"
         offset="0"
         id="stop5050" />
      <stop
         id="stop5056"
         offset="0.5"
         style="stop-color:black;stop-opacity:1;" />
      <stop
         style="stop-color:black;stop-opacity:0;"
         offset="1"
         id="stop5052" />
    </linearGradient>
    <linearGradient
       inkscape:collect="always"
       xlink:href="#linearGradient5048"
       id="linearGradient6208"
       gradientUnits="userSpaceOnUse"
       gradientTransform="matrix(2.774389,0,0,1.969706,-1892.179,-872.8854)"
       x1="302.85715"
       y1="366.64789"
       x2="302.85715"
       y2="609.50507" />
    <radialGradient
       inkscape:collect="always"
       xlink:href="#linearGradient5060"
       id="radialGradient6210"
       gradientUnits="userSpaceOnUse"
       gradientTransform="matrix(2.774389,0,0,1.969706,-1891.633,-872.8854)"
       cx="605.71429"
       cy="486.64789"
       fx="605.71429"
       fy="486.64789"
       r="117.14286" />
    <radialGradient
       inkscape:collect="always"
       xlink:href="#linearGradient5060"
       id="radialGradient6212"
       gradientUnits="userSpaceOnUse"
       gradientTransform="matrix(-2.774389,0,0,1.969706,112.7623,-872.8854)"
       cx="605.71429"
       cy="486.64789"
       fx="605.71429"
       fy="486.64789"
       r="117.14286" />
    <radialGradient
       inkscape:collect="always"
       xlink:href="#linearGradient6642"
       id="radialGradient6214"
       gradientUnits="userSpaceOnUse"
       gradientTransform="matrix(1.3279654,0,-0.4677714,1.6070078,3.489273,-5.7538092)"
       cx="4.4339509"
       cy="8.3226004"
       fx="4.4339509"
       fy="8.3226004"
       r="6" />
    <radialGradient
       inkscape:collect="always"
       xlink:href="#linearGradient6642"
       id="radialGradient6216"
       gradientUnits="userSpaceOnUse"
       gradientTransform="matrix(1.3279654,0,-0.4677714,1.6070078,3.489273,-5.7538092)"
       cx="4.4339509"
       cy="8.3226004"
       fx="4.4339509"
       fy="8.3226004"
       r="6" />
    <radialGradient
       inkscape:collect="always"
       xlink:href="#linearGradient6642"
       id="radialGradient6218"
       gradientUnits="userSpaceOnUse"
       gradientTransform="matrix(1.3279654,0,-0.4677714,1.6070078,3.489273,-5.7538092)"
       cx="4.4339509"
       cy="8.3226004"
       fx="4.4339509"
       fy="8.3226004"
       r="6" />
    <radialGradient
       inkscape:collect="always"
       xlink:href="#linearGradient6642"
       id="radialGradient6220"
       gradientUnits="userSpaceOnUse"
       gradientTransform="matrix(1.3279654,0,-0.4677714,1.6070078,3.489273,-5.7538092)"
       cx="4.4339509"
       cy="8.3226004"
       fx="4.4339509"
       fy="8.3226004"
       r="6" />
    <radialGradient
       inkscape:collect="always"
       xlink:href="#linearGradient6642"
       id="radialGradient6222"
       gradientUnits="userSpaceOnUse"
       gradientTransform="matrix(1.3279654,0,-0.4677714,1.6070078,3.489273,-5.7538092)"
       cx="4.4339509"
       cy="8.3226004"
       fx="4.4339509"
       fy="8.3226004"
       r="6" />
    <radialGradient
       inkscape:collect="always"
       xlink:href="#linearGradient6642"
       id="radialGradient6224"
       gradientUnits="userSpaceOnUse"
       gradientTransform="matrix(1.3279654,0,-0.4677714,1.6070078,3.489273,-5.7538092)"
       cx="4.4339509"
       cy="8.3226004"
       fx="4.4339509"
       fy="8.3226004"
       r="6" />
    <radialGradient
       inkscape:collect="always"
       xlink:href="#linearGradient6859"
       id="radialGradient6226"
       gradientUnits="userSpaceOnUse"
       gradientTransform="matrix(0.7867179,0,0,1.4423161,-51.042152,-5.8996785)"
       cx="42"
       cy="15.814279"
       fx="42"
       fy="15.814279"
       r="3" />
    <linearGradient
       inkscape:collect="always"
       xlink:href="#linearGradient6794"
       id="linearGradient6228"
       gradientUnits="userSpaceOnUse"
       x1="42.875"
       y1="30.9375"
       x2="39.919209"
       y2="51.062393" />
    <radialGradient
       inkscape:collect="always"
       xlink:href="#linearGradient6851"
       id="radialGradient6230"
       gradientUnits="userSpaceOnUse"
       gradientTransform="matrix(0.8213255,0,0,1.0038423,-52.350499,0.173875)"
       cx="42.8125"
       cy="25.727272"
       fx="42.8125"
       fy="25.727272"
       r="4.5" />
    <radialGradient
       inkscape:collect="always"
       xlink:href="#linearGradient6843"
       id="radialGradient6232"
       gradientUnits="userSpaceOnUse"
       gradientTransform="matrix(0.7452385,0,0,0.9108471,-49.172637,3.6387251)"
       cx="42.5"
       cy="36.307945"
       fx="42.5"
       fy="36.307945"
       r="4.5" />
    <linearGradient
       inkscape:collect="always"
       xlink:href="#linearGradient6794"
       id="linearGradient6234"
       gradientUnits="userSpaceOnUse"
       x1="42.875"
       y1="30.9375"
       x2="39.919209"
       y2="51.062393" />
    <linearGradient
       inkscape:collect="always"
       xlink:href="#linearGradient6794"
       id="linearGradient6236"
       gradientUnits="userSpaceOnUse"
       x1="42.875"
       y1="30.9375"
       x2="39.919209"
       y2="51.062393" />
    <linearGradient
       inkscape:collect="always"
       xlink:href="#linearGradient6499"
       id="linearGradient6238"
       gradientUnits="userSpaceOnUse"
       gradientTransform="matrix(0.8885602,0,0,1,-55.486688,0)"
       x1="17.077137"
       y1="14.375"
       x2="41.06271"
       y2="56.9375" />
    <linearGradient
       inkscape:collect="always"
       xlink:href="#linearGradient6820"
       id="linearGradient6240"
       gradientUnits="userSpaceOnUse"
       x1="24.75"
       y1="43.927441"
       x2="24.75"
       y2="35.790096" />
    <linearGradient
       inkscape:collect="always"
       xlink:href="#linearGradient6881"
       id="linearGradient6242"
       gradientUnits="userSpaceOnUse"
       x1="17.353554"
       y1="7.9356604"
       x2="28.035534"
       y2="81.759773" />
    <radialGradient
       inkscape:collect="always"
       xlink:href="#linearGradient6642"
       id="radialGradient6244"
       gradientUnits="userSpaceOnUse"
       gradientTransform="matrix(1.5261839,0,0,1.400538,-2.7953523,-3.4069917)"
       cx="5.312501"
       cy="8.1713457"
       fx="5.312501"
       fy="8.1713457"
       r="6" />
    <radialGradient
       inkscape:collect="always"
       xlink:href="#linearGradient6642"
       id="radialGradient6246"
       gradientUnits="userSpaceOnUse"
       gradientTransform="matrix(1.5261839,0,0,1.400538,-2.7953523,-3.4069917)"
       cx="5.312501"
       cy="8.1713457"
       fx="5.312501"
       fy="8.1713457"
       r="6" />
    <radialGradient
       inkscape:collect="always"
       xlink:href="#linearGradient6642"
       id="radialGradient6248"
       gradientUnits="userSpaceOnUse"
       gradientTransform="matrix(1.5261839,0,0,1.400538,-2.7953523,-3.4069917)"
       cx="5.312501"
       cy="8.1713457"
       fx="5.312501"
       fy="8.1713457"
       r="6" />
    <radialGradient
       inkscape:collect="always"
       xlink:href="#linearGradient6642"
       id="radialGradient6250"
       gradientUnits="userSpaceOnUse"
       gradientTransform="matrix(1.5261839,0,0,1.400538,-2.7953523,-3.4069917)"
       cx="5.312501"
       cy="8.1713457"
       fx="5.312501"
       fy="8.1713457"
       r="6" />
    <radialGradient
       inkscape:collect="always"
       xlink:href="#linearGradient6642"
       id="radialGradient6252"
       gradientUnits="userSpaceOnUse"
       gradientTransform="matrix(1.5261839,0,0,1.400538,-2.7953523,-3.4069917)"
       cx="5.312501"
       cy="8.1713457"
       fx="5.312501"
       fy="8.1713457"
       r="6" />
    <radialGradient
       inkscape:collect="always"
       xlink:href="#linearGradient6642"
       id="radialGradient6254"
       gradientUnits="userSpaceOnUse"
       gradientTransform="matrix(1.5261839,0,0,1.400538,-2.7953523,-3.4069917)"
       cx="5.312501"
       cy="8.1713457"
       fx="5.312501"
       fy="8.1713457"
       r="6" />
    <linearGradient
       inkscape:collect="always"
       xlink:href="#linearGradient6881"
       id="linearGradient2983"
       gradientUnits="userSpaceOnUse"
       x1="17.353554"
       y1="7.9356604"
       x2="28.035534"
       y2="81.759773" />
    <linearGradient
       inkscape:collect="always"
       xlink:href="#linearGradient6820"
       id="linearGradient2986"
       gradientUnits="userSpaceOnUse"
       x1="24.75"
       y1="43.927441"
       x2="24.75"
       y2="35.790096" />
    <linearGradient
       inkscape:collect="always"
       xlink:href="#linearGradient6499"
       id="linearGradient2989"
       gradientUnits="userSpaceOnUse"
       gradientTransform="matrix(0.8885602,0,0,1,4.513312,0)"
       x1="17.077137"
       y1="14.375"
       x2="41.06271"
       y2="56.9375" />
    <radialGradient
       inkscape:collect="always"
       xlink:href="#linearGradient6843"
       id="radialGradient2997"
       gradientUnits="userSpaceOnUse"
       gradientTransform="matrix(0.7452385,0,0,0.9108471,10.827363,3.6387251)"
       cx="42.5"
       cy="36.307945"
       fx="42.5"
       fy="36.307945"
       r="4.5" />
    <radialGradient
       inkscape:collect="always"
       xlink:href="#linearGradient6851"
       id="radialGradient3000"
       gradientUnits="userSpaceOnUse"
       gradientTransform="matrix(0.8213255,0,0,1.0038423,7.649501,0.173875)"
       cx="42.8125"
       cy="25.727272"
       fx="42.8125"
       fy="25.727272"
       r="4.5" />
    <radialGradient
       inkscape:collect="always"
       xlink:href="#linearGradient6859"
       id="radialGradient3005"
       gradientUnits="userSpaceOnUse"
       gradientTransform="matrix(0.7867179,0,0,1.4423161,8.957848,-5.8996785)"
       cx="42"
       cy="15.814279"
       fx="42"
       fy="15.814279"
       r="3" />
  </defs>
  <sodipodi:namedview
     id="base"
     pagecolor="#ffffff"
     bordercolor="#666666"
     borderopacity="1.0"
     inkscape:pageopacity="0.0"
     inkscape:pageshadow="2"
     inkscape:zoom="11.313708"
     inkscape:cx="27.434125"
     inkscape:cy="24.112433"
     inkscape:current-layer="layer1"
     showgrid="false"
     inkscape:grid-bbox="true"
     inkscape:document-units="px"
     inkscape:window-width="1280"
     inkscape:window-height="970"
     inkscape:window-x="5"
     inkscape:window-y="41"
     width="48px"
     height="48px"
     showguides="true"
     inkscape:guide-bbox="true"
     showborder="false"
     inkscape:showpageshadow="false"
     inkscape:object-points="true"
     inkscape:grid-points="true"
     borderlayer="true"
     inkscape:window-maximized="0">
    <inkscape:grid
       id="GridFromPre046Settings"
       type="xygrid"
       originx="0px"
       originy="0px"
       spacingx="0.5px"
       spacingy="0.5px"
       color="#0000ff"
       empcolor="#0000ff"
       opacity="0.2"
       empopacity="0.4"
       empspacing="2" />
  </sodipodi:namedview>
  <metadata
     id="metadata4913">
    <rdf:RDF>
      <cc:Work
         rdf:about="">
        <dc:format>image/svg+xml</dc:format>
        <dc:type
           rdf:resource="http://purl.org/dc/dcmitype/StillImage" />
        <dc:title></dc:title>
        <dc:date>2007-06-23</dc:date>
        <dc:creator>
          <cc:Agent>
            <dc:title>Lapo Calamandrei</dc:title>
          </cc:Agent>
        </dc:creator>
        <dc:subject>
          <rdf:Bag>
            <rdf:li>address</rdf:li>
            <rdf:li>book</rdf:li>
            <rdf:li>contact</rdf:li>
          </rdf:Bag>
        </dc:subject>
        <cc:license
           rdf:resource="http://creativecommons.org/licenses/GPL/2.0/" />
        <dc:source />
        <dc:contributor>
          <cc:Agent>
            <dc:title>Andreas Nilsson</dc:title>
          </cc:Agent>
        </dc:contributor>
      </cc:Work>
      <cc:License
         rdf:about="http://creativecommons.org/licenses/GPL/2.0/">
        <cc:permits
           rdf:resource="http://web.resource.org/cc/Reproduction" />
        <cc:permits
           rdf:resource="http://web.resource.org/cc/Distribution" />
        <cc:requires
           rdf:resource="http://web.resource.org/cc/Notice" />
        <cc:permits
           rdf:resource="http://web.resource.org/cc/DerivativeWorks" />
        <cc:requires
           rdf:resource="http://web.resource.org/cc/ShareAlike" />
        <cc:requires
           rdf:resource="http://web.resource.org/cc/SourceCode" />
      </cc:License>
    </rdf:RDF>
  </metadata>
  <g
     id="layer1"
     inkscape:label="Layer 1"
     inkscape:groupmode="layer">
    <g
       style="display:inline"
       id="g6055"
       transform="matrix(0.02019273,0,0,0.01708318,42.460131,42.402519)">
      <rect
         y="-150.69685"
         x="-1559.2523"
         height="478.35718"
         width="1339.6335"
         id="rect6057"
         style="opacity:0.39195981;color:#000000;fill:url(#linearGradient6208);fill-opacity:1;fill-rule:nonzero;stroke:none;stroke-width:1;marker:none;visibility:visible;display:inline;overflow:visible" />
      <path
         sodipodi:nodetypes="cccc"
         id="path6059"
         d="m -219.61876,-150.68038 c 0,0 0,478.33079 0,478.33079 142.874166,0.90045 345.40022,-107.16966 345.40014,-239.196175 0,-132.026537 -159.436816,-239.134595 -345.40014,-239.134615 z"
         style="opacity:0.40206185;color:#000000;fill:url(#radialGradient6210);fill-opacity:1;fill-rule:nonzero;stroke:none;stroke-width:1;marker:none;visibility:visible;display:inline;overflow:visible" />
      <path
         style="opacity:0.40206185;color:#000000;fill:url(#radialGradient6212);fill-opacity:1;fill-rule:nonzero;stroke:none;stroke-width:1;marker:none;visibility:visible;display:inline;overflow:visible"
         d="m -1559.2523,-150.68038 c 0,0 0,478.33079 0,478.33079 -142.8742,0.90045 -345.4002,-107.16966 -345.4002,-239.196175 0,-132.026537 159.4368,-239.134595 345.4002,-239.134615 z"
         id="path6061"
         sodipodi:nodetypes="cccc" />
    </g>
    <g
       id="g6063"
       transform="translate(0,30)">
      <path
         id="path6065"
         d="m 14.345337,8.5060394 c -0.64368,2.2113336 -3.112797,4.0060386 -5.5114231,4.0060386 -2.3986256,0 -3.8229293,-1.794705 -3.1792494,-4.0060386 0.64368,-2.2113336 3.1127974,-4.0060393 5.5114235,-4.0060393 2.398625,0 3.822929,1.7947057 3.179249,4.0060393 z"
         style="fill:none;stroke:url(#radialGradient6214);stroke-width:3;stroke-linecap:round;stroke-linejoin:miter;stroke-miterlimit:4;stroke-opacity:1;stroke-dashoffset:0" />
      <path
         transform="matrix(0.8701215,0,-0.3339941,1.1474218,4.7836537,-1.8445527)"
         d="m 14.451495,9.0207386 c 0,1.9282134 -2.235864,3.4913394 -4.9939421,3.4913394 -2.7580779,0 -4.9939418,-1.563126 -4.9939418,-3.4913394 0,-1.9282137 2.2358639,-3.4913397 4.9939418,-3.4913397 2.7580781,0 4.9939421,1.563126 4.9939421,3.4913397 z"
         sodipodi:ry="3.4913397"
         sodipodi:rx="4.9939418"
         sodipodi:cy="9.0207386"
         sodipodi:cx="9.4575529"
         id="path6067"
         style="fill:none;stroke:#eeeeec;stroke-width:1.00080287;stroke-linecap:round;stroke-linejoin:miter;stroke-miterlimit:4;stroke-opacity:1;stroke-dasharray:none;stroke-dashoffset:0"
         sodipodi:type="arc" />
    </g>
    <g
       id="g6070"
       transform="translate(0,24)">
      <path
         id="path6072"
         d="m 14.345337,8.5060394 c -0.64368,2.2113336 -3.112797,4.0060386 -5.5114231,4.0060386 -2.3986256,0 -3.8229293,-1.794705 -3.1792494,-4.0060386 0.64368,-2.2113336 3.1127974,-4.0060393 5.5114235,-4.0060393 2.398625,0 3.822929,1.7947057 3.179249,4.0060393 z"
         style="fill:none;stroke:url(#radialGradient6216);stroke-width:3;stroke-linecap:round;stroke-linejoin:miter;stroke-miterlimit:4;stroke-opacity:1;stroke-dashoffset:0" />
      <path
         transform="matrix(0.8701215,0,-0.3339941,1.1474218,4.7836537,-1.8445527)"
         d="m 14.451495,9.0207386 c 0,1.9282134 -2.235864,3.4913394 -4.9939421,3.4913394 -2.7580779,0 -4.9939418,-1.563126 -4.9939418,-3.4913394 0,-1.9282137 2.2358639,-3.4913397 4.9939418,-3.4913397 2.7580781,0 4.9939421,1.563126 4.9939421,3.4913397 z"
         sodipodi:ry="3.4913397"
         sodipodi:rx="4.9939418"
         sodipodi:cy="9.0207386"
         sodipodi:cx="9.4575529"
         id="path6074"
         style="fill:none;stroke:#eeeeec;stroke-width:1.00080287;stroke-linecap:round;stroke-linejoin:miter;stroke-miterlimit:4;stroke-opacity:1;stroke-dasharray:none;stroke-dashoffset:0"
         sodipodi:type="arc" />
    </g>
    <g
       id="g6076"
       transform="translate(0,18)">
      <path
         id="path6078"
         d="m 14.345337,8.5060394 c -0.64368,2.2113336 -3.112797,4.0060386 -5.5114231,4.0060386 -2.3986256,0 -3.8229293,-1.794705 -3.1792494,-4.0060386 0.64368,-2.2113336 3.1127974,-4.0060393 5.5114235,-4.0060393 2.398625,0 3.822929,1.7947057 3.179249,4.0060393 z"
         style="fill:none;stroke:url(#radialGradient6218);stroke-width:3;stroke-linecap:round;stroke-linejoin:miter;stroke-miterlimit:4;stroke-opacity:1;stroke-dashoffset:0" />
      <path
         transform="matrix(0.8701215,0,-0.3339941,1.1474218,4.7836537,-1.8445527)"
         d="m 14.451495,9.0207386 c 0,1.9282134 -2.235864,3.4913394 -4.9939421,3.4913394 -2.7580779,0 -4.9939418,-1.563126 -4.9939418,-3.4913394 0,-1.9282137 2.2358639,-3.4913397 4.9939418,-3.4913397 2.7580781,0 4.9939421,1.563126 4.9939421,3.4913397 z"
         sodipodi:ry="3.4913397"
         sodipodi:rx="4.9939418"
         sodipodi:cy="9.0207386"
         sodipodi:cx="9.4575529"
         id="path6080"
         style="fill:none;stroke:#eeeeec;stroke-width:1.00080287;stroke-linecap:round;stroke-linejoin:miter;stroke-miterlimit:4;stroke-opacity:1;stroke-dasharray:none;stroke-dashoffset:0"
         sodipodi:type="arc" />
    </g>
    <g
       id="g6082"
       transform="translate(0,12)">
      <path
         id="path6084"
         d="m 14.345337,8.5060394 c -0.64368,2.2113336 -3.112797,4.0060386 -5.5114231,4.0060386 -2.3986256,0 -3.8229293,-1.794705 -3.1792494,-4.0060386 0.64368,-2.2113336 3.1127974,-4.0060393 5.5114235,-4.0060393 2.398625,0 3.822929,1.7947057 3.179249,4.0060393 z"
         style="fill:none;stroke:url(#radialGradient6220);stroke-width:3;stroke-linecap:round;stroke-linejoin:miter;stroke-miterlimit:4;stroke-opacity:1;stroke-dashoffset:0" />
      <path
         transform="matrix(0.8701215,0,-0.3339941,1.1474218,4.7836537,-1.8445527)"
         d="m 14.451495,9.0207386 c 0,1.9282134 -2.235864,3.4913394 -4.9939421,3.4913394 -2.7580779,0 -4.9939418,-1.563126 -4.9939418,-3.4913394 0,-1.9282137 2.2358639,-3.4913397 4.9939418,-3.4913397 2.7580781,0 4.9939421,1.563126 4.9939421,3.4913397 z"
         sodipodi:ry="3.4913397"
         sodipodi:rx="4.9939418"
         sodipodi:cy="9.0207386"
         sodipodi:cx="9.4575529"
         id="path6086"
         style="fill:none;stroke:#eeeeec;stroke-width:1.00080287;stroke-linecap:round;stroke-linejoin:miter;stroke-miterlimit:4;stroke-opacity:1;stroke-dasharray:none;stroke-dashoffset:0"
         sodipodi:type="arc" />
    </g>
    <g
       id="g6088"
       transform="translate(0,6)">
      <path
         id="path6090"
         d="m 14.345337,8.5060394 c -0.64368,2.2113336 -3.112797,4.0060386 -5.5114231,4.0060386 -2.3986256,0 -3.8229293,-1.794705 -3.1792494,-4.0060386 0.64368,-2.2113336 3.1127974,-4.0060393 5.5114235,-4.0060393 2.398625,0 3.822929,1.7947057 3.179249,4.0060393 z"
         style="fill:none;stroke:url(#radialGradient6222);stroke-width:3;stroke-linecap:round;stroke-linejoin:miter;stroke-miterlimit:4;stroke-opacity:1;stroke-dashoffset:0" />
      <path
         transform="matrix(0.8701215,0,-0.3339941,1.1474218,4.7836537,-1.8445527)"
         d="m 14.451495,9.0207386 c 0,1.9282134 -2.235864,3.4913394 -4.9939421,3.4913394 -2.7580779,0 -4.9939418,-1.563126 -4.9939418,-3.4913394 0,-1.9282137 2.2358639,-3.4913397 4.9939418,-3.4913397 2.7580781,0 4.9939421,1.563126 4.9939421,3.4913397 z"
         sodipodi:ry="3.4913397"
         sodipodi:rx="4.9939418"
         sodipodi:cy="9.0207386"
         sodipodi:cx="9.4575529"
         id="path6092"
         style="fill:none;stroke:#eeeeec;stroke-width:1.00080287;stroke-linecap:round;stroke-linejoin:miter;stroke-miterlimit:4;stroke-opacity:1;stroke-dasharray:none;stroke-dashoffset:0"
         sodipodi:type="arc" />
    </g>
    <g
       id="g6094">
      <path
         id="path6096"
         d="m 14.345337,8.5060394 c -0.64368,2.2113336 -3.112797,4.0060386 -5.5114231,4.0060386 -2.3986256,0 -3.8229293,-1.794705 -3.1792494,-4.0060386 0.64368,-2.2113336 3.1127974,-4.0060393 5.5114235,-4.0060393 2.398625,0 3.822929,1.7947057 3.179249,4.0060393 z"
         style="fill:none;stroke:url(#radialGradient6224);stroke-width:3;stroke-linecap:round;stroke-linejoin:miter;stroke-miterlimit:4;stroke-opacity:1;stroke-dashoffset:0" />
      <path
         transform="matrix(0.8701215,0,-0.3339941,1.1474218,4.7836537,-1.8445527)"
         d="m 14.451495,9.0207386 a 4.9939418,3.4913397 0 1 1 -9.9878839,0 4.9939418,3.4913397 0 1 1 9.9878839,0 z"
         sodipodi:ry="3.4913397"
         sodipodi:rx="4.9939418"
         sodipodi:cy="9.0207386"
         sodipodi:cx="9.4575529"
         id="path6098"
         style="fill:none;stroke:#eeeeec;stroke-width:1.00080287;stroke-linecap:round;stroke-linejoin:miter;stroke-miterlimit:4;stroke-opacity:1;stroke-dasharray:none;stroke-dashoffset:0"
         sodipodi:type="arc" />
    </g>
    <rect
       style="fill:#3465a4;fill-opacity:1;stroke:#204a87;stroke-width:1;stroke-linecap:round;stroke-linejoin:miter;stroke-miterlimit:0;stroke-opacity:1;stroke-dasharray:none;stroke-dashoffset:0"
       id="rect6100"
       width="29.999998"
       height="39.999996"
       x="9.5"
       y="1.5"
       rx="2.3950391"
       ry="2.4748738" />
    <g
       id="g6102"
       transform="translate(-2,1)">
      <path
         sodipodi:nodetypes="cccccc"
         id="path6104"
         d="M 14,3 39.182408,3 40,3.6961651 40,25 14,25 14,3 z"
         style="fill:#d3d7cf;fill-opacity:1;stroke:none" />
      <path
         sodipodi:nodetypes="ccccc"
         id="path6106"
         d="m 14,3 25.65625,0 c 1.055682,1.0277742 -0.49011,2.0151389 -2,2 L 12.625,5 C 14.126385,5 15.015732,3.4971845 14,3 z"
         style="fill:#ffffff;fill-opacity:1;stroke:none" />
    </g>
    <rect
       style="fill:url(#radialGradient3005);fill-opacity:1;stroke:#4e9a06;stroke-width:1.00000012;stroke-linecap:butt;stroke-linejoin:miter;stroke-miterlimit:4;stroke-opacity:1;stroke-dasharray:none;stroke-dashoffset:0"
       id="rect6108"
       width="5"
       height="10"
       x="39.5"
       y="9.5"
       rx="1.2374369"
       ry="1.1136932" />
    <path
       style="opacity:0.2;fill:none;stroke:#ffffff;stroke-width:1;stroke-linecap:round;stroke-linejoin:miter;stroke-miterlimit:0;stroke-opacity:1;stroke-dashoffset:0"
       d="m 11.920627,2.53125 c -0.800828,0 -1.389377,0.6089338 -1.389377,1.4375 l 0,35.0625 c 0,0.828566 0.588549,1.4375 1.389377,1.4375 l 25.189997,0 c 0.800828,0 1.389377,-0.608935 1.389377,-1.4375 l 0,-35.0625 c 0,-0.8285661 -0.58855,-1.4375 -1.389377,-1.4375 l -25.189997,0 z"
       id="path6110"
       sodipodi:nodetypes="ccccccccc" />
    <path
       sodipodi:type="inkscape:offset"
       inkscape:radius="-0.99302852"
       inkscape:original="M 39.75 29.5 C 39.06446 29.5 38.5 30.064461 38.5 30.75 L 38.5 38.25 C 38.5 38.93554 39.064459 39.5 39.75 39.5 L 45.25 39.5 C 45.93554 39.5 46.5 38.935541 46.5 38.25 L 46.5 30.75 C 46.5 30.06446 45.935541 29.5 45.25 29.5 L 39.75 29.5 z "
       style="opacity:0.5;fill:none;stroke:url(#linearGradient6228);stroke-width:1.00000012;stroke-linecap:butt;stroke-linejoin:miter;stroke-miterlimit:4;stroke-opacity:1;stroke-dasharray:none;stroke-dashoffset:0"
       id="path6112"
       d="m 39.75,30.5 c -0.140446,0 -0.25,0.109555 -0.25,0.25 l 0,7.5 c 0,0.140448 0.109551,0.25 0.25,0.25 l 5.5,0 c 0.140448,0 0.25,-0.109551 0.25,-0.25 l 0,-7.5 c 0,-0.140448 -0.109551,-0.25 -0.25,-0.25 l -5.5,0 z"
       transform="translate(-62,-20)" />
    <rect
       style="fill:url(#radialGradient3000);fill-opacity:1;stroke:#c4a000;stroke-width:1.00000012;stroke-linecap:butt;stroke-linejoin:miter;stroke-miterlimit:4;stroke-opacity:1;stroke-dasharray:none;stroke-dashoffset:0"
       id="rect6114"
       width="8"
       height="10"
       x="37.5"
       y="19.5"
       rx="1.2374369"
       ry="1.2374369" />
    <rect
       style="fill:url(#radialGradient2997);fill-opacity:1;stroke:#ce5c00;stroke-width:1.00000012;stroke-linecap:butt;stroke-linejoin:miter;stroke-miterlimit:4;stroke-opacity:1;stroke-dasharray:none;stroke-dashoffset:0"
       id="rect6116"
       width="8"
       height="10"
       x="38.5"
       y="29.5"
       rx="1.2374369"
       ry="1.2374369" />
    <path
       sodipodi:type="inkscape:offset"
       inkscape:radius="-0.99302852"
       inkscape:original="M 39.75 29.5 C 39.06446 29.5 38.5 30.064461 38.5 30.75 L 38.5 38.25 C 38.5 38.93554 39.064459 39.5 39.75 39.5 L 45.25 39.5 C 45.93554 39.5 46.5 38.935541 46.5 38.25 L 46.5 30.75 C 46.5 30.06446 45.935541 29.5 45.25 29.5 L 39.75 29.5 z "
       style="opacity:0.5;fill:none;stroke:url(#linearGradient6234);stroke-width:1.00000012;stroke-linecap:butt;stroke-linejoin:miter;stroke-miterlimit:4;stroke-opacity:1;stroke-dasharray:none;stroke-dashoffset:0"
       id="path6118"
       d="m 39.75,30.5 c -0.140446,0 -0.25,0.109555 -0.25,0.25 l 0,7.5 c 0,0.140448 0.109551,0.25 0.25,0.25 l 5.5,0 c 0.140448,0 0.25,-0.109551 0.25,-0.25 l 0,-7.5 c 0,-0.140448 -0.109551,-0.25 -0.25,-0.25 l -5.5,0 z"
       transform="translate(-61,-10)" />
    <rect
       style="opacity:0.25;fill:#000000;fill-opacity:1;stroke:none"
       id="rect6120"
       width="6.8125"
       height="10"
       x="35.1875"
       y="19" />
    <path
       sodipodi:type="inkscape:offset"
       inkscape:radius="-0.99302852"
       inkscape:original="M 39.75 29.5 C 39.06446 29.5 38.5 30.064461 38.5 30.75 L 38.5 38.25 C 38.5 38.93554 39.064459 39.5 39.75 39.5 L 45.25 39.5 C 45.93554 39.5 46.5 38.935541 46.5 38.25 L 46.5 30.75 C 46.5 30.06446 45.935541 29.5 45.25 29.5 L 39.75 29.5 z "
       style="opacity:0.5;fill:none;stroke:url(#linearGradient6236);stroke-width:1.00000012;stroke-linecap:butt;stroke-linejoin:miter;stroke-miterlimit:4;stroke-opacity:1;stroke-dasharray:none;stroke-dashoffset:0"
       id="path6122"
       d="m 39.75,30.5 c -0.140446,0 -0.25,0.109555 -0.25,0.25 l 0,7.5 c 0,0.140448 0.109551,0.25 0.25,0.25 l 5.5,0 c 0.140448,0 0.25,-0.109551 0.25,-0.25 l 0,-7.5 c 0,-0.140448 -0.109551,-0.25 -0.25,-0.25 l -5.5,0 z"
       transform="translate(-60,0)" />
    <rect
       style="opacity:0.1;fill:#000000;fill-opacity:1;stroke:none"
       id="rect6124"
       width="6.8125"
       height="11"
       x="35.1875"
       y="29" />
    <rect
       style="opacity:0.15517243;fill:#000000;fill-opacity:1;stroke:none"
       id="rect6126"
       width="7"
       height="10"
       x="35"
       y="9" />
    <path
       sodipodi:nodetypes="ccccccccc"
       id="rect6128"
       d="m 10.974874,6.5 27.050252,0 C 39.396206,6.5 40.5,7.6037937 40.5,8.9748738 l 0,34.0502482 c 0,1.37108 -1.103794,2.474874 -2.474874,2.474874 l -27.050252,0 C 9.603794,45.499996 8.5,44.396202 8.5,43.025122 L 8.5,8.9748738 C 8.5,7.6037937 9.603794,6.5 10.974874,6.5 z"
       style="fill:url(#linearGradient2989);fill-opacity:1;stroke:#204a87;stroke-width:1;stroke-linecap:round;stroke-linejoin:miter;stroke-miterlimit:0;stroke-opacity:1;stroke-dashoffset:0" />
    <path
       sodipodi:nodetypes="ccccccccc"
       id="path6130"
       d="M 10.96875,7 C 9.866556,7 9,7.8665563 9,8.96875 l 0,34.0625 C 9,44.133444 9.8665564,45 10.96875,45 l 27.0625,0 C 39.133444,45 40,44.133443 40,43.03125 L 40,8.96875 C 40,7.8665562 39.133443,7 38.03125,7 l -27.0625,0 z"
       style="fill:url(#linearGradient2986);fill-opacity:1;stroke:none" />
    <path
       sodipodi:nodetypes="ccccccccc"
       id="path6132"
       d="m 10.96875,7.53125 c -0.828566,0 -1.4375,0.6089338 -1.4375,1.4375 l 0,34.0625 c 0,0.828566 0.608934,1.4375 1.4375,1.4375 l 27.0625,0 c 0.828566,0 1.4375,-0.608935 1.4375,-1.4375 l 0,-34.0625 c 0,-0.8285661 -0.608935,-1.4375 -1.4375,-1.4375 l -27.0625,0 z"
       style="opacity:0.46120689;fill:none;stroke:url(#linearGradient2983);stroke-width:1;stroke-linecap:round;stroke-linejoin:miter;stroke-miterlimit:0;stroke-opacity:1;stroke-dashoffset:0" />
    <path
       sodipodi:type="arc"
       style="fill:none;stroke:#204a87;stroke-width:1.03306484;stroke-linecap:round;stroke-linejoin:miter;stroke-miterlimit:4;stroke-opacity:1;stroke-dasharray:none;stroke-dashoffset:0"
       id="path6134"
       sodipodi:cx="11.91033"
       sodipodi:cy="11.959651"
       sodipodi:rx="1.524699"
       sodipodi:ry="1.6130873"
       d="m 13.435029,11.959651 a 1.524699,1.6130873 0 1 1 -3.049398,0 1.524699,1.6130873 0 1 1 3.049398,0 z"
       transform="matrix(0.9838006,0,0,0.9524402,0.282611,30.145517)" />
    <path
       sodipodi:type="arc"
       style="fill:none;stroke:#204a87;stroke-width:1.03306484;stroke-linecap:round;stroke-linejoin:miter;stroke-miterlimit:4;stroke-opacity:1;stroke-dasharray:none;stroke-dashoffset:0"
       id="path6136"
       sodipodi:cx="11.91033"
       sodipodi:cy="11.959651"
       sodipodi:rx="1.524699"
       sodipodi:ry="1.6130873"
       d="m 13.435029,11.959651 a 1.524699,1.6130873 0 1 1 -3.049398,0 1.524699,1.6130873 0 1 1 3.049398,0 z"
       transform="matrix(0.9838006,0,0,0.9524402,0.282611,24.145517)" />
    <path
       sodipodi:type="arc"
       style="fill:none;stroke:#204a87;stroke-width:1.03306484;stroke-linecap:round;stroke-linejoin:miter;stroke-miterlimit:4;stroke-opacity:1;stroke-dasharray:none;stroke-dashoffset:0"
       id="path6138"
       sodipodi:cx="11.91033"
       sodipodi:cy="11.959651"
       sodipodi:rx="1.524699"
       sodipodi:ry="1.6130873"
       d="m 13.435029,11.959651 a 1.524699,1.6130873 0 1 1 -3.049398,0 1.524699,1.6130873 0 1 1 3.049398,0 z"
       transform="matrix(0.9838006,0,0,0.9524402,0.282611,18.145517)" />
    <path
       sodipodi:type="arc"
       style="fill:none;stroke:#204a87;stroke-width:1.03306484;stroke-linecap:round;stroke-linejoin:miter;stroke-miterlimit:4;stroke-opacity:1;stroke-dasharray:none;stroke-dashoffset:0"
       id="path6140"
       sodipodi:cx="11.91033"
       sodipodi:cy="11.959651"
       sodipodi:rx="1.524699"
       sodipodi:ry="1.6130873"
       d="m 13.435029,11.959651 a 1.524699,1.6130873 0 1 1 -3.049398,0 1.524699,1.6130873 0 1 1 3.049398,0 z"
       transform="matrix(0.9838006,0,0,0.9524402,0.282611,6.1455167)" />
    <path
       sodipodi:type="arc"
       style="fill:none;stroke:#204a87;stroke-width:1.03306484;stroke-linecap:round;stroke-linejoin:miter;stroke-miterlimit:4;stroke-opacity:1;stroke-dasharray:none;stroke-dashoffset:0"
       id="path6142"
       sodipodi:cx="11.91033"
       sodipodi:cy="11.959651"
       sodipodi:rx="1.524699"
       sodipodi:ry="1.6130873"
       d="m 13.435029,11.959651 a 1.524699,1.6130873 0 1 1 -3.049398,0 1.524699,1.6130873 0 1 1 3.049398,0 z"
       transform="matrix(0.9838006,0,0,0.9524402,0.282611,12.145517)" />
    <path
       sodipodi:type="arc"
       style="fill:none;stroke:#204a87;stroke-width:1.03306484;stroke-linecap:round;stroke-linejoin:miter;stroke-miterlimit:4;stroke-opacity:1;stroke-dasharray:none;stroke-dashoffset:0"
       id="path6144"
       sodipodi:cx="11.91033"
       sodipodi:cy="11.959651"
       sodipodi:rx="1.524699"
       sodipodi:ry="1.6130873"
       d="m 13.435029,11.959651 a 1.524699,1.6130873 0 1 1 -3.049398,0 1.524699,1.6130873 0 1 1 3.049398,0 z"
       transform="matrix(0.9838006,0,0,0.9524402,0.282611,0.1455168)" />
    <g
       id="g6146"
       transform="translate(0,30)">
      <path
         sodipodi:nodetypes="csc"
         id="path6148"
         d="m 5.65625,8.5 c -0.6436799,2.211334 0.7888742,4 3.1875,4 0.913594,0 1.829015,-0.27526 2.65625,-0.71875"
         style="fill:none;stroke:url(#radialGradient6244);stroke-width:3;stroke-linecap:round;stroke-linejoin:miter;stroke-miterlimit:4;stroke-opacity:1;stroke-dasharray:none;stroke-dashoffset:0" />
      <path
         sodipodi:nodetypes="cssc"
         id="path6150"
         d="m 6.84375,6.5 c -0.5475716,0.5922996 -0.9735778,1.2650799 -1.1875,2 -0.6436799,2.211334 0.7888742,4 3.1875,4 0.913594,0 1.829015,-0.27526 2.65625,-0.71875"
         style="fill:none;stroke:#eeeeec;stroke-width:1;stroke-linecap:round;stroke-linejoin:miter;stroke-miterlimit:4;stroke-opacity:1;stroke-dasharray:none;stroke-dashoffset:0" />
      <path
         transform="matrix(1.3714287,0,0,0.9320388,-1.7365942,0.3133592)"
         d="M 5.8125,8.2578125 C 5.8125,8.7022291 5.5676557,9.0625 5.265625,9.0625 4.9635943,9.0625 4.71875,8.7022291 4.71875,8.2578125 c 0,-0.4444166 0.2448443,-0.8046875 0.546875,-0.8046875 0.3020307,0 0.546875,0.3602709 0.546875,0.8046875 z"
         sodipodi:ry="0.8046875"
         sodipodi:rx="0.546875"
         sodipodi:cy="8.2578125"
         sodipodi:cx="5.265625"
         id="path6152"
         style="fill:#ffffff;fill-opacity:1;stroke:none"
         sodipodi:type="arc" />
      <path
         transform="matrix(1.3714287,0,0,0.9320388,4.0970367,3.7163106)"
         d="M 5.8125,8.2578125 C 5.8125,8.7022291 5.5676557,9.0625 5.265625,9.0625 4.9635943,9.0625 4.71875,8.7022291 4.71875,8.2578125 c 0,-0.4444166 0.2448443,-0.8046875 0.546875,-0.8046875 0.3020307,0 0.546875,0.3602709 0.546875,0.8046875 z"
         sodipodi:ry="0.8046875"
         sodipodi:rx="0.546875"
         sodipodi:cy="8.2578125"
         sodipodi:cx="5.265625"
         id="path6154"
         style="opacity:0.7;fill:#ffffff;fill-opacity:1;stroke:none"
         sodipodi:type="arc" />
    </g>
    <g
       id="g6156"
       transform="translate(0,24)">
      <path
         sodipodi:nodetypes="csc"
         id="path6158"
         d="m 5.65625,8.5 c -0.6436799,2.211334 0.7888742,4 3.1875,4 0.913594,0 1.829015,-0.27526 2.65625,-0.71875"
         style="fill:none;stroke:url(#radialGradient6246);stroke-width:3;stroke-linecap:round;stroke-linejoin:miter;stroke-miterlimit:4;stroke-opacity:1;stroke-dasharray:none;stroke-dashoffset:0" />
      <path
         sodipodi:nodetypes="cssc"
         id="path6160"
         d="m 6.84375,6.5 c -0.5475716,0.5922996 -0.9735778,1.2650799 -1.1875,2 -0.6436799,2.211334 0.7888742,4 3.1875,4 0.913594,0 1.829015,-0.27526 2.65625,-0.71875"
         style="fill:none;stroke:#eeeeec;stroke-width:1;stroke-linecap:round;stroke-linejoin:miter;stroke-miterlimit:4;stroke-opacity:1;stroke-dasharray:none;stroke-dashoffset:0" />
      <path
         transform="matrix(1.3714287,0,0,0.9320388,-1.7365942,0.3133592)"
         d="M 5.8125,8.2578125 C 5.8125,8.7022291 5.5676557,9.0625 5.265625,9.0625 4.9635943,9.0625 4.71875,8.7022291 4.71875,8.2578125 c 0,-0.4444166 0.2448443,-0.8046875 0.546875,-0.8046875 0.3020307,0 0.546875,0.3602709 0.546875,0.8046875 z"
         sodipodi:ry="0.8046875"
         sodipodi:rx="0.546875"
         sodipodi:cy="8.2578125"
         sodipodi:cx="5.265625"
         id="path6162"
         style="fill:#ffffff;fill-opacity:1;stroke:none"
         sodipodi:type="arc" />
      <path
         transform="matrix(1.3714287,0,0,0.9320388,4.0970367,3.7163106)"
         d="M 5.8125,8.2578125 C 5.8125,8.7022291 5.5676557,9.0625 5.265625,9.0625 4.9635943,9.0625 4.71875,8.7022291 4.71875,8.2578125 c 0,-0.4444166 0.2448443,-0.8046875 0.546875,-0.8046875 0.3020307,0 0.546875,0.3602709 0.546875,0.8046875 z"
         sodipodi:ry="0.8046875"
         sodipodi:rx="0.546875"
         sodipodi:cy="8.2578125"
         sodipodi:cx="5.265625"
         id="path6164"
         style="opacity:0.7;fill:#ffffff;fill-opacity:1;stroke:none"
         sodipodi:type="arc" />
    </g>
    <g
       id="g6166"
       transform="translate(0,18)">
      <path
         sodipodi:nodetypes="csc"
         id="path6168"
         d="m 5.65625,8.5 c -0.6436799,2.211334 0.7888742,4 3.1875,4 0.913594,0 1.829015,-0.27526 2.65625,-0.71875"
         style="fill:none;stroke:url(#radialGradient6248);stroke-width:3;stroke-linecap:round;stroke-linejoin:miter;stroke-miterlimit:4;stroke-opacity:1;stroke-dasharray:none;stroke-dashoffset:0" />
      <path
         sodipodi:nodetypes="cssc"
         id="path6170"
         d="m 6.84375,6.5 c -0.5475716,0.5922996 -0.9735778,1.2650799 -1.1875,2 -0.6436799,2.211334 0.7888742,4 3.1875,4 0.913594,0 1.829015,-0.27526 2.65625,-0.71875"
         style="fill:none;stroke:#eeeeec;stroke-width:1;stroke-linecap:round;stroke-linejoin:miter;stroke-miterlimit:4;stroke-opacity:1;stroke-dasharray:none;stroke-dashoffset:0" />
      <path
         transform="matrix(1.3714287,0,0,0.9320388,-1.7365942,0.3133592)"
         d="M 5.8125,8.2578125 C 5.8125,8.7022291 5.5676557,9.0625 5.265625,9.0625 4.9635943,9.0625 4.71875,8.7022291 4.71875,8.2578125 c 0,-0.4444166 0.2448443,-0.8046875 0.546875,-0.8046875 0.3020307,0 0.546875,0.3602709 0.546875,0.8046875 z"
         sodipodi:ry="0.8046875"
         sodipodi:rx="0.546875"
         sodipodi:cy="8.2578125"
         sodipodi:cx="5.265625"
         id="path6172"
         style="fill:#ffffff;fill-opacity:1;stroke:none"
         sodipodi:type="arc" />
      <path
         transform="matrix(1.3714287,0,0,0.9320388,4.0970367,3.7163106)"
         d="M 5.8125,8.2578125 C 5.8125,8.7022291 5.5676557,9.0625 5.265625,9.0625 4.9635943,9.0625 4.71875,8.7022291 4.71875,8.2578125 c 0,-0.4444166 0.2448443,-0.8046875 0.546875,-0.8046875 0.3020307,0 0.546875,0.3602709 0.546875,0.8046875 z"
         sodipodi:ry="0.8046875"
         sodipodi:rx="0.546875"
         sodipodi:cy="8.2578125"
         sodipodi:cx="5.265625"
         id="path6174"
         style="opacity:0.7;fill:#ffffff;fill-opacity:1;stroke:none"
         sodipodi:type="arc" />
    </g>
    <g
       id="g6176"
       transform="translate(0,12)">
      <path
         sodipodi:nodetypes="csc"
         id="path6178"
         d="m 5.65625,8.5 c -0.6436799,2.211334 0.7888742,4 3.1875,4 0.913594,0 1.829015,-0.27526 2.65625,-0.71875"
         style="fill:none;stroke:url(#radialGradient6250);stroke-width:3;stroke-linecap:round;stroke-linejoin:miter;stroke-miterlimit:4;stroke-opacity:1;stroke-dasharray:none;stroke-dashoffset:0" />
      <path
         sodipodi:nodetypes="cssc"
         id="path6180"
         d="m 6.84375,6.5 c -0.5475716,0.5922996 -0.9735778,1.2650799 -1.1875,2 -0.6436799,2.211334 0.7888742,4 3.1875,4 0.913594,0 1.829015,-0.27526 2.65625,-0.71875"
         style="fill:none;stroke:#eeeeec;stroke-width:1;stroke-linecap:round;stroke-linejoin:miter;stroke-miterlimit:4;stroke-opacity:1;stroke-dasharray:none;stroke-dashoffset:0" />
      <path
         transform="matrix(1.3714287,0,0,0.9320388,-1.7365942,0.3133592)"
         d="M 5.8125,8.2578125 C 5.8125,8.7022291 5.5676557,9.0625 5.265625,9.0625 4.9635943,9.0625 4.71875,8.7022291 4.71875,8.2578125 c 0,-0.4444166 0.2448443,-0.8046875 0.546875,-0.8046875 0.3020307,0 0.546875,0.3602709 0.546875,0.8046875 z"
         sodipodi:ry="0.8046875"
         sodipodi:rx="0.546875"
         sodipodi:cy="8.2578125"
         sodipodi:cx="5.265625"
         id="path6182"
         style="fill:#ffffff;fill-opacity:1;stroke:none"
         sodipodi:type="arc" />
      <path
         transform="matrix(1.3714287,0,0,0.9320388,4.0970367,3.7163106)"
         d="M 5.8125,8.2578125 C 5.8125,8.7022291 5.5676557,9.0625 5.265625,9.0625 4.9635943,9.0625 4.71875,8.7022291 4.71875,8.2578125 c 0,-0.4444166 0.2448443,-0.8046875 0.546875,-0.8046875 0.3020307,0 0.546875,0.3602709 0.546875,0.8046875 z"
         sodipodi:ry="0.8046875"
         sodipodi:rx="0.546875"
         sodipodi:cy="8.2578125"
         sodipodi:cx="5.265625"
         id="path6184"
         style="opacity:0.7;fill:#ffffff;fill-opacity:1;stroke:none"
         sodipodi:type="arc" />
    </g>
    <g
       id="g6186"
       transform="translate(0,6)">
      <path
         sodipodi:nodetypes="csc"
         id="path6188"
         d="m 5.65625,8.5 c -0.6436799,2.211334 0.7888742,4 3.1875,4 0.913594,0 1.829015,-0.27526 2.65625,-0.71875"
         style="fill:none;stroke:url(#radialGradient6252);stroke-width:3;stroke-linecap:round;stroke-linejoin:miter;stroke-miterlimit:4;stroke-opacity:1;stroke-dasharray:none;stroke-dashoffset:0" />
      <path
         sodipodi:nodetypes="cssc"
         id="path6190"
         d="m 6.84375,6.5 c -0.5475716,0.5922996 -0.9735778,1.2650799 -1.1875,2 -0.6436799,2.211334 0.7888742,4 3.1875,4 0.913594,0 1.829015,-0.27526 2.65625,-0.71875"
         style="fill:none;stroke:#eeeeec;stroke-width:1;stroke-linecap:round;stroke-linejoin:miter;stroke-miterlimit:4;stroke-opacity:1;stroke-dasharray:none;stroke-dashoffset:0" />
      <path
         transform="matrix(1.3714287,0,0,0.9320388,-1.7365942,0.3133592)"
         d="M 5.8125,8.2578125 C 5.8125,8.7022291 5.5676557,9.0625 5.265625,9.0625 4.9635943,9.0625 4.71875,8.7022291 4.71875,8.2578125 c 0,-0.4444166 0.2448443,-0.8046875 0.546875,-0.8046875 0.3020307,0 0.546875,0.3602709 0.546875,0.8046875 z"
         sodipodi:ry="0.8046875"
         sodipodi:rx="0.546875"
         sodipodi:cy="8.2578125"
         sodipodi:cx="5.265625"
         id="path6192"
         style="fill:#ffffff;fill-opacity:1;stroke:none"
         sodipodi:type="arc" />
      <path
         transform="matrix(1.3714287,0,0,0.9320388,4.0970367,3.7163106)"
         d="M 5.8125,8.2578125 C 5.8125,8.7022291 5.5676557,9.0625 5.265625,9.0625 4.9635943,9.0625 4.71875,8.7022291 4.71875,8.2578125 c 0,-0.4444166 0.2448443,-0.8046875 0.546875,-0.8046875 0.3020307,0 0.546875,0.3602709 0.546875,0.8046875 z"
         sodipodi:ry="0.8046875"
         sodipodi:rx="0.546875"
         sodipodi:cy="8.2578125"
         sodipodi:cx="5.265625"
         id="path6194"
         style="opacity:0.7;fill:#ffffff;fill-opacity:1;stroke:none"
         sodipodi:type="arc" />
    </g>
    <g
       id="g6198">
      <path
         sodipodi:nodetypes="csc"
         id="path6200"
         d="m 5.65625,8.5 c -0.6436799,2.211334 0.7888742,4 3.1875,4 0.913594,0 1.829015,-0.27526 2.65625,-0.71875"
         style="fill:none;stroke:url(#radialGradient6254);stroke-width:3;stroke-linecap:round;stroke-linejoin:miter;stroke-miterlimit:4;stroke-opacity:1;stroke-dasharray:none;stroke-dashoffset:0" />
      <path
         sodipodi:nodetypes="cssc"
         id="path6202"
         d="m 6.84375,6.5 c -0.5475716,0.5922996 -0.9735778,1.2650799 -1.1875,2 -0.6436799,2.211334 0.7888742,4 3.1875,4 0.913594,0 1.829015,-0.27526 2.65625,-0.71875"
         style="fill:none;stroke:#eeeeec;stroke-width:1;stroke-linecap:round;stroke-linejoin:miter;stroke-miterlimit:4;stroke-opacity:1;stroke-dasharray:none;stroke-dashoffset:0" />
      <path
         transform="matrix(1.3714287,0,0,0.9320388,-1.7365942,0.3133592)"
         d="m 5.8125,8.2578125 a 0.546875,0.8046875 0 1 1 -1.09375,0 0.546875,0.8046875 0 1 1 1.09375,0 z"
         sodipodi:ry="0.8046875"
         sodipodi:rx="0.546875"
         sodipodi:cy="8.2578125"
         sodipodi:cx="5.265625"
         id="path6204"
         style="fill:#ffffff;fill-opacity:1;stroke:none"
         sodipodi:type="arc" />
      <path
         transform="matrix(1.3714287,0,0,0.9320388,4.0970367,3.7163106)"
         d="m 5.8125,8.2578125 a 0.546875,0.8046875 0 1 1 -1.09375,0 0.546875,0.8046875 0 1 1 1.09375,0 z"
         sodipodi:ry="0.8046875"
         sodipodi:rx="0.546875"
         sodipodi:cy="8.2578125"
         sodipodi:cx="5.265625"
         id="path6206"
         style="opacity:0.7;fill:#ffffff;fill-opacity:1;stroke:none"
         sodipodi:type="arc" />
    </g>
  </g>
</svg>
