<?xml version="1.0" encoding="UTF-8" standalone="no"?>
<!-- Generator: Adobe Illustrator 12.0.0, SVG Export Plug-In . SVG Version: 6.00 Build 51448)  -->
<svg
   xmlns:ns="http://ns.adobe.com/SaveForWeb/1.0/"
   xmlns:dc="http://purl.org/dc/elements/1.1/"
   xmlns:cc="http://web.resource.org/cc/"
   xmlns:rdf="http://www.w3.org/1999/02/22-rdf-syntax-ns#"
   xmlns:svg="http://www.w3.org/2000/svg"
   xmlns="http://www.w3.org/2000/svg"
   xmlns:xlink="http://www.w3.org/1999/xlink"
   xmlns:sodipodi="http://sodipodi.sourceforge.net/DTD/sodipodi-0.dtd"
   xmlns:inkscape="http://www.inkscape.org/namespaces/inkscape"
   version="1.1"
   id="svg1877"
   sodipodi:docbase="/home/pinheiro/artwork/Oxygen/Pinheiro"
   inkscape:version="0.45+devel"
   inkscape:output_extension="org.inkscape.output.svgz.inkscape"
   sodipodi:docname="accessories-dictionary.svgz"
   sodipodi:version="0.32"
   width="128"
   height="128"
   viewBox="0 0 128 128"
   overflow="visible"
   enable-background="new 0 0 128 128"
   xml:space="preserve"><defs
   id="defs282"><linearGradient
     id="linearGradient4202"><stop
       style="stop-color:#ffffff;stop-opacity:1;"
       offset="0"
       id="stop4204" /><stop
       style="stop-color:#ffffff;stop-opacity:0.55696201;"
       offset="1"
       id="stop4206" /></linearGradient><linearGradient
     id="linearGradient4194"><stop
       style="stop-color:#8c0000;stop-opacity:1;"
       offset="0"
       id="stop4196" /><stop
       style="stop-color:#8c0000;stop-opacity:0.74683547;"
       offset="1"
       id="stop4198" /></linearGradient><linearGradient
     id="linearGradient3717"><stop
       id="stop3719"
       offset="0"
       style="stop-color:#696969;stop-opacity:0.15189873;" /><stop
       style="stop-color:#919191;stop-opacity:1;"
       offset="0.6046198"
       id="stop3721" /><stop
       id="stop3723"
       offset="1"
       style="stop-color:#bdbdbd;stop-opacity:0.39240506;" /></linearGradient><linearGradient
     id="linearGradient3709"><stop
       id="stop3711"
       offset="0"
       style="stop-color:#b3b3b3;stop-opacity:0.14901961;" /><stop
       style="stop-color:#919191;stop-opacity:1;"
       offset="0.66884249"
       id="stop3713" /><stop
       id="stop3715"
       offset="1"
       style="stop-color:#bdbdbd;stop-opacity:0.39240506;" /></linearGradient><linearGradient
     id="linearGradient3869"><stop
       id="stop3871"
       offset="0"
       style="stop-color:#696969;stop-opacity:0.15189873;" /><stop
       style="stop-color:#919191;stop-opacity:1;"
       offset="0.67074138"
       id="stop3873" /><stop
       id="stop3875"
       offset="1"
       style="stop-color:#bdbdbd;stop-opacity:0.39240506;" /></linearGradient><linearGradient
     id="linearGradient3851"><stop
       style="stop-color:#696969;stop-opacity:0.15189873;"
       offset="0"
       id="stop3853" /><stop
       id="stop3859"
       offset="0.5"
       style="stop-color:#919191;stop-opacity:1;" /><stop
       style="stop-color:#bdbdbd;stop-opacity:0.39240506;"
       offset="1"
       id="stop3855" /></linearGradient><linearGradient
     id="linearGradient3081"><stop
       style="stop-color:#610000;stop-opacity:1;"
       offset="0"
       id="stop3083" /><stop
       style="stop-color:#540000;stop-opacity:1;"
       offset="1"
       id="stop3085" /></linearGradient><filter
     inkscape:collect="always"
     id="filter3031"><feGaussianBlur
       inkscape:collect="always"
       stdDeviation="0.26804993"
       id="feGaussianBlur3033" /></filter><filter
     inkscape:collect="always"
     id="filter3035"><feGaussianBlur
       inkscape:collect="always"
       stdDeviation="0.26774803"
       id="feGaussianBlur3037" /></filter><filter
     inkscape:collect="always"
     id="filter3051"><feGaussianBlur
       inkscape:collect="always"
       stdDeviation="0.12874266"
       id="feGaussianBlur3053" /></filter><clipPath
     clipPathUnits="userSpaceOnUse"
     id="clipPath3069"><path
       id="path3071"
       d="M 115.446,90.505 L 107.6565,47.931 C 107.6565,47.931 12.50575,38.7485 15.292875,67.0105 C 18.08,95.2725 20.838,102.044 24.712,101.703 L 111.705,93.216 L 113.066,93.083 C 115.187,92.69 115.683,92.251 115.446,90.505 z"
       style="fill:#e20071"
       sodipodi:nodetypes="ccscccc" /></clipPath><filter
     inkscape:collect="always"
     id="filter3077"><feGaussianBlur
       inkscape:collect="always"
       stdDeviation="0.39699429"
       id="feGaussianBlur3079" /></filter><linearGradient
     inkscape:collect="always"
     xlink:href="#linearGradient3081"
     id="linearGradient3087"
     x1="20.673505"
     y1="96.192035"
     x2="115.49258"
     y2="96.192035"
     gradientUnits="userSpaceOnUse" /><linearGradient
     inkscape:collect="always"
     xlink:href="#linearGradient3851"
     id="linearGradient3857"
     x1="66.156647"
     y1="113.687"
     x2="109.881"
     y2="113.687"
     gradientUnits="userSpaceOnUse" /><linearGradient
     inkscape:collect="always"
     xlink:href="#linearGradient3869"
     id="linearGradient3867"
     x1="25.990999"
     y1="111.687"
     x2="109.881"
     y2="111.687"
     gradientUnits="userSpaceOnUse" /><linearGradient
     inkscape:collect="always"
     xlink:href="#linearGradient3851"
     id="linearGradient3883"
     x1="44.886406"
     y1="108.75771"
     x2="90.469322"
     y2="109.687"
     gradientUnits="userSpaceOnUse" /><linearGradient
     inkscape:collect="always"
     xlink:href="#linearGradient3851"
     id="linearGradient3891"
     x1="50.255592"
     y1="98.034943"
     x2="109.881"
     y2="99.686996"
     gradientUnits="userSpaceOnUse" /><linearGradient
     inkscape:collect="always"
     xlink:href="#linearGradient3851"
     id="linearGradient3899"
     x1="35.847527"
     y1="105.32194"
     x2="109.881"
     y2="105.687"
     gradientUnits="userSpaceOnUse" /><linearGradient
     inkscape:collect="always"
     xlink:href="#linearGradient3717"
     id="linearGradient3907"
     x1="25.990999"
     y1="107.687"
     x2="109.881"
     y2="107.687"
     gradientUnits="userSpaceOnUse" /><linearGradient
     inkscape:collect="always"
     xlink:href="#linearGradient3851"
     id="linearGradient2937"
     x1="25.990999"
     y1="101.687"
     x2="109.881"
     y2="101.687"
     gradientUnits="userSpaceOnUse" /><linearGradient
     inkscape:collect="always"
     xlink:href="#linearGradient3709"
     id="linearGradient3326"
     x1="25.990999"
     y1="103.687"
     x2="109.881"
     y2="103.687"
     gradientUnits="userSpaceOnUse" /><filter
     inkscape:collect="always"
     id="filter4128"><feGaussianBlur
       inkscape:collect="always"
       stdDeviation="0.1344975"
       id="feGaussianBlur4130" /></filter><filter
     inkscape:collect="always"
     x="-0.0627307"
     width="1.1254614"
     y="-0.20440804"
     height="1.4088161"
     id="filter4132"><feGaussianBlur
       inkscape:collect="always"
       stdDeviation="2.3882525"
       id="feGaussianBlur4134" /></filter><filter
     inkscape:collect="always"
     id="filter4188"><feGaussianBlur
       inkscape:collect="always"
       stdDeviation="2.2899436"
       id="feGaussianBlur4190" /></filter><linearGradient
     inkscape:collect="always"
     xlink:href="#linearGradient3081"
     id="linearGradient4192"
     gradientUnits="userSpaceOnUse"
     x1="20.673505"
     y1="96.192035"
     x2="115.49258"
     y2="96.192035" /><linearGradient
     inkscape:collect="always"
     xlink:href="#linearGradient4194"
     id="linearGradient4200"
     x1="20"
     y1="24"
     x2="99.5"
     y2="24"
     gradientUnits="userSpaceOnUse" /><linearGradient
     inkscape:collect="always"
     xlink:href="#linearGradient4202"
     id="linearGradient4208"
     x1="20"
     y1="25"
     x2="99.5"
     y2="25"
     gradientUnits="userSpaceOnUse" /></defs><sodipodi:namedview
   inkscape:window-height="697"
   inkscape:window-width="1024"
   inkscape:pageshadow="2"
   inkscape:pageopacity="0.0"
   guidetolerance="10.0"
   gridtolerance="10.0"
   objecttolerance="10.0"
   borderopacity="1.0"
   bordercolor="#666666"
   pagecolor="#ffffff"
   id="base"
   inkscape:zoom="5.7265625"
   inkscape:cx="64"
   inkscape:cy="64"
   inkscape:window-x="0"
   inkscape:window-y="0"
   inkscape:current-layer="svg1877" />
<metadata
   id="metadata1882">
	<rdf:RDF>
		<cc:Work
   rdf:about="">
			<dc:format>image/svg+xml</dc:format>
			<dc:type
   rdf:resource="http://purl.org/dc/dcmitype/StillImage" />
		</cc:Work>
	</rdf:RDF>
	<ns:sfw>
		<ns:slices />
		<ns:sliceSourceBounds
   x="8"
   y="3"
   height="121"
   width="113.736"
   bottomLeftOrigin="true" />
	</ns:sfw>
</metadata>
<filter
   id="AI_Sfocatura_3">
	<feGaussianBlur
   stdDeviation="3"
   id="feGaussianBlur5" />
</filter>
<linearGradient
   id="path2797_1_"
   gradientUnits="userSpaceOnUse"
   x1="66.3574"
   y1="118.2754"
   x2="66.3574"
   y2="99.0564"
   gradientTransform="translate(0,-1)">
	<stop
   offset="0"
   style="stop-color:#DEDEDE"
   id="stop8" />
	<stop
   offset="1"
   style="stop-color:#FFFFFF"
   id="stop10" />
</linearGradient>
<path
   style="opacity:0.6;fill:#000000;fill-opacity:1;filter:url(#filter4188)"
   d="M 97.375,3.5 C 97.147705,3.508416 96.889875,3.538125 96.625,3.5625 L 15.0625,9.84375 L 13.8125,10.25 L 12.6875,10.21875 L 10.65625,10.40625 C 9.1452499,10.54625 8.067,13.16275 7.75,14.84375 C 7.4329999,16.52475 7.5,26.15625 7.5,26.15625 L 18.4375,119.125 C 18.913501,121.244 19.83525,124.80275 22.03125,124.46875 L 22.8125,124.375 L 22.8125,124.40625 L 109.59375,115.5625 C 111.71375,115.3685 113.1765,113.77625 112.9375,112.03125 L 112.09375,93.1875 L 113.0625,93.09375 C 115.1835,92.70075 115.6745,92.246 115.4375,90.5 L 99.875,5.34375 C 99.666753,3.8160001 98.966064,3.4410879 97.375,3.5 z"
   id="path4186"
   transform="matrix(0.9870646,0,0,0.9451576,-0.9030608,6.8273745)" /><path
   id="path2797"
   sodipodi:nodetypes="ccccc"
   d="M 111.992,92.187 C 111.992,92.187 112.508,107.358 110.281,111.728 L 22.479,121.437 C 19.083,121.955 20.838,101.044 24.712,100.703 L 111.992,92.187 z"
   style="fill:url(#path2797_1_)" />
<g
   id="g13"
   transform="translate(-20,-1)">
	<defs
   id="defs15"><path
     id="path2797_2_"
     sodipodi:nodetypes="ccccc"
     d="M 111.992,92.226 C 111.992,92.226 112.508,107.397 110.281,111.767 L 22.479,121.476 C 19.083,121.994 20.838,101.083 24.712,100.743 L 111.992,92.226 z" /></defs>
	<clipPath
   id="path2797_3_">
		<use
   xlink:href="#path2797_2_"
   id="use19"
   x="0"
   y="0"
   width="128"
   height="128" />
	</clipPath>
	<g
   clip-path="url(#path2797_3_)"
   id="g21"
   style="filter:url(#filter4132)"
   transform="translate(20,0)">
		<linearGradient
   id="XMLID_1_"
   gradientUnits="userSpaceOnUse"
   x1="20.4004"
   y1="105.2852"
   x2="112.043"
   y2="105.2852">
			<stop
   offset="0.3195"
   style="stop-color:#2E3436"
   id="stop24" />
			<stop
   offset="1"
   style="stop-color:#888A85"
   id="stop26" />
		</linearGradient>
		<path
   d="M 25.677,102.664 L 112.043,94.237 C 112.032,92.443 111.992,90.303 111.992,90.303 L 23.748,98.82 C 20.168,99.134 19.364,117.966 21.797,120.267 C 21.089,114.534 22.796,102.917 25.677,102.664 z"
   id="path28"
   style="fill:url(#XMLID_1_)" />
	</g>
</g>
<radialGradient
   id="XMLID_3_"
   cx="23.4214"
   cy="-24.1943"
   r="152.103"
   gradientTransform="matrix(1,0,0,0.9966,0,-0.7838)"
   gradientUnits="userSpaceOnUse">
	<stop
   offset="0.0533"
   style="stop-color:#E29390"
   id="stop31" />
	<stop
   offset="0.6627"
   style="stop-color:#A71B1B"
   id="stop33" />
	<stop
   offset="0.9053"
   style="stop-color:#8A2121"
   id="stop35" />
</radialGradient>
<path
   d="M 115.446,89.505 L 99.867,4.357 C 99.629,2.611 98.75,2.361 96.631,2.556 L 15.069,8.845 L 13.819,9.255 L 12.674,9.226 L 10.663,9.399 C 9.152,9.539 21.056,122.517 21.056,122.517 L 22.479,121.437 C 19.083,121.955 20.838,101.044 24.712,100.703 L 111.705,92.216 L 113.066,92.083 C 115.187,91.69 115.683,91.251 115.446,89.505 z"
   id="path37"
   style="fill:url(#XMLID_3_)" />
<linearGradient
   id="XMLID_4_"
   gradientUnits="userSpaceOnUse"
   x1="8.9722"
   y1="68.4072"
   x2="19.3589"
   y2="67.0882"
   gradientTransform="translate(0,-1)">
	<stop
   offset="0.3136"
   style="stop-color:#8A2121"
   id="stop40" />
	<stop
   offset="0.5367"
   style="stop-color:#8C2323"
   id="stop42" />
	<stop
   offset="0.6399"
   style="stop-color:#942A2A"
   id="stop44" />
	<stop
   offset="0.7185"
   style="stop-color:#A03636"
   id="stop46" />
	<stop
   offset="0.7845"
   style="stop-color:#B34846"
   id="stop48" />
	<stop
   offset="0.8422"
   style="stop-color:#CA5E5C"
   id="stop50" />
	<stop
   offset="0.8639"
   style="stop-color:#D56966"
   id="stop52" />
	<stop
   offset="0.9172"
   style="stop-color:#E29390"
   id="stop54" />
	<stop
   offset="1"
   style="stop-color:#7A1212"
   id="stop56" />
</linearGradient>
<path
   d="M 22.479,121.437 C 19.083,121.955 20.838,101.044 24.712,100.703 C 24.712,100.703 12.676,9.23 12.674,9.227 L 10.663,9.4 C 9.152,9.54 8.059,12.171 7.742,13.852 C 7.425,15.533 7.511,25.165 7.511,25.165 L 18.446,118.115 C 18.922,120.234 19.825,123.813 22.021,123.479 L 25.563,123.093 L 26.592,120.982 L 22.479,121.437 z"
   id="path58"
   style="fill:url(#XMLID_4_)" />
<linearGradient
   id="XMLID_5_"
   gradientUnits="userSpaceOnUse"
   x1="17.644"
   y1="56.1646"
   x2="24.7346"
   y2="55.168"
   gradientTransform="translate(0,-1)">
	<stop
   offset="0"
   style="stop-color:#9C0F0F"
   id="stop61" />
	<stop
   offset="0.316"
   style="stop-color:#FFFFFF"
   id="stop63" />
	<stop
   offset="0.6029"
   style="stop-color:#BF0303"
   id="stop65" />
</linearGradient>
<path
   d="M 24.712,100.702 L 28.244,100.359 L 15.431,8.817 L 15.07,8.845 L 13.82,9.255 L 12.675,9.226 L 11.839,9.298 L 24.367,100.791 C 24.479,100.744 24.595,100.713 24.712,100.702 z"
   id="path67"
   style="opacity:0.5;fill:url(#XMLID_5_)" />
<g
   id="g69"
   transform="translate(0,-1)">
	<g
   id="g71">
		<linearGradient
   id="XMLID_6_"
   gradientUnits="userSpaceOnUse"
   x1="70.734398"
   y1="116.3115"
   x2="111.5255"
   y2="90.542198">
			<stop
   offset="0.3136"
   style="stop-color:#8A2121"
   id="stop74" />
			<stop
   offset="0.4265"
   style="stop-color:#8E2525"
   id="stop76" />
			<stop
   offset="0.5426"
   style="stop-color:#9A3130"
   id="stop78" />
			<stop
   offset="0.6601"
   style="stop-color:#AF4543"
   id="stop80" />
			<stop
   offset="0.7779"
   style="stop-color:#CC605D"
   id="stop82" />
			<stop
   offset="0.8107"
   style="stop-color:#D56966"
   id="stop84" />
			<stop
   offset="1"
   style="stop-color:#E29390"
   id="stop86" />
		</linearGradient>
		<path
   d="M 112.942,112.02 L 112.096,93.082 L 111.992,93.186 C 111.992,93.186 112.508,108.357 110.281,112.727 L 22.479,122.436 L 22.797,124.393 L 109.6,115.556 C 111.72,115.362 113.181,113.765 112.942,112.02 z"
   id="path88"
   style="fill:url(#XMLID_6_)" />
	</g>
</g>
<g
   id="g90"
   clip-path="url(#clipPath3069)"
   style="fill:url(#linearGradient3087);fill-opacity:1;filter:url(#filter3077)"
   transform="translate(0,-1)">
	<linearGradient
   id="XMLID_7_"
   gradientUnits="userSpaceOnUse"
   x1="115.4932"
   y1="103.2646"
   x2="20.6738"
   y2="103.2647">
		<stop
   offset="0"
   style="stop-color:#590000;fill-opacity:1;fill:url(#linearGradient3087)"
   id="stop93" />
		<stop
   offset="0.9053"
   style="stop-color:#8A2121;fill-opacity:1;fill:url(#linearGradient3087)"
   id="stop95" />
	</linearGradient>
	<path
   d="M 113.066,92.121 L 111.705,92.254 L 24.712,100.742 C 22.206,100.962 20.588,109.793 20.677,115.86 C 20.758,109.864 22.335,101.913 24.712,101.702 L 111.705,93.215 L 113.066,93.082 C 115.113,92.704 115.639,92.27 115.46,90.669 C 115.305,91.514 114.629,91.831 113.066,92.121 z"
   id="path97"
   style="fill:url(#linearGradient4192);fill-opacity:1" />
</g>
<linearGradient
   id="XMLID_8_"
   gradientUnits="userSpaceOnUse"
   x1="22.2095"
   y1="122.4463"
   x2="22.2095"
   y2="101.7021"
   gradientTransform="translate(0,-1)">
	<stop
   offset="0"
   style="stop-color:#9C0F0F"
   id="stop100" />
	<stop
   offset="1"
   style="stop-color:#FF8080"
   id="stop102" />
</linearGradient>

<g
   id="g106"
   transform="translate(0,-1)">
	<g
   id="g108"
   style="filter:url(#filter3031)">
		<path
   d="M 46.652,59.42 C 46.196,58.452 45.996,58.338 44.651,58.5 L 37.912,59.311 C 36.803,59.443 36.555,59.612 36.374,60.6 L 35.465,65.557 C 35.075,67.689 34.927,68.957 34.995,69.463 C 35.07,70.012 35.329,70.261 36.409,70.233 L 37.902,70.203 C 38.247,70.398 38.346,71.135 37.968,71.362 C 36.796,71.402 35.412,71.554 33.315,71.743 C 31.85,71.905 30.266,72.176 29.079,72.359 C 28.79,72.204 28.607,71.483 28.844,71.221 L 30.283,70.922 C 31.332,70.712 32.241,70.098 32.645,68.383 C 33.164,66.193 34.011,63.093 35.187,57.801 L 38.036,45.133 C 38.432,43.452 38.579,42.573 38.348,41.88 C 39.361,41.43 39.999,40.532 40.404,39.891 C 40.668,39.856 40.991,39.905 41.122,40.202 C 41.971,42.081 42.969,44.037 43.914,45.918 L 52.707,63.416 C 54.613,67.236 55.31,67.867 57.315,67.876 L 58.577,67.876 C 58.932,68.072 58.952,68.828 58.752,69.039 C 56.853,69.158 55.241,69.288 53.183,69.519 C 50.992,69.766 49.278,70.051 47.968,70.245 C 47.579,70.102 47.428,69.366 47.711,69.099 L 49.008,68.814 C 49.948,68.613 50.544,68.265 50.478,67.8 C 50.405,67.294 50.057,66.49 49.536,65.421 L 46.652,59.42 z M 37.25,56.449 C 37.039,57.529 37.089,57.57 38.33,57.418 L 43.813,56.754 C 45.109,56.595 45.174,56.402 44.596,55.228 L 41.158,48.184 C 40.654,47.155 40.086,46 39.748,45.5 L 39.66,45.51 C 39.557,45.75 39.264,46.879 38.963,48.281 L 37.25,56.449 z"
   id="path110"
   style="fill:#e20800" />
		<path
   d="M 57.03,42.799 C 56.629,40.146 56.542,39.883 55.069,39.257 L 54.579,39.047 C 54.333,38.943 54.239,38.317 54.445,38.152 C 55.418,37.61 57.494,36.74 59.073,35.615 C 59.254,35.593 59.448,35.657 59.565,35.824 C 59.716,37.403 59.937,39.435 60.24,41.413 L 61.555,49.982 C 61.675,50.76 61.888,50.919 62.16,50.886 C 63.246,50.053 64.954,49.002 67.206,48.719 C 72.478,48.059 76.709,51.576 77.545,56.679 C 78.561,62.894 74.744,67.776 68.467,68.476 C 66.741,68.667 65.389,68.485 64.418,68.309 C 63.394,68.091 62.751,67.877 62.379,67.918 C 62.008,67.96 61.697,68.376 61.514,68.727 C 61.474,68.779 61.429,68.784 61.337,68.794 C 61.153,68.815 60.954,68.741 60.833,68.567 C 60.78,67.91 60.691,67.018 60.329,64.602 L 57.03,42.799 z M 63.394,61.939 C 63.642,63.562 64.234,64.96 65.172,65.849 C 66.112,66.742 67.454,67.161 68.948,66.995 C 73.346,66.499 74.478,62.553 73.836,58.541 C 73.065,53.768 70.016,50.381 65.447,50.948 C 64.066,51.117 63.015,51.574 62.435,52.063 C 62.027,52.441 62.013,52.954 62.288,54.745 L 63.394,61.939 z"
   id="path112"
   style="fill:#e20800" />
		<path
   d="M 95.184,46.033 C 95.626,46.31 96.091,47.015 96.235,47.807 C 96.383,48.648 96.059,49.594 95.485,49.664 C 95.245,49.694 94.988,49.63 94.756,49.42 C 93.479,48.289 91.506,47.296 89.552,47.539 C 86.236,47.953 83.453,50.896 84.283,55.832 C 84.898,59.484 88.217,63.573 93.356,62.991 C 96.154,62.674 97.386,61.274 98.216,59.532 C 98.586,59.393 99.083,59.675 99.207,60.096 C 98.183,63.803 94.78,65.544 91.98,65.856 C 89.433,66.141 86.948,65.596 85.004,64.175 C 83.076,62.761 81.597,60.584 81.094,57.542 C 80.261,52.515 82.946,46.752 90.8,45.772 C 91.894,45.635 93.795,45.636 95.184,46.033 z"
   id="path114"
   style="fill:#e20800" />
	</g>
	<g
   id="g116"
   style="filter:url(#filter3035)">
		<path
   d="M 46.741,57.343 C 46.285,56.379 46.085,56.266 44.741,56.429 L 38.01,57.248 C 36.902,57.381 36.654,57.551 36.473,58.536 L 35.566,63.483 C 35.174,65.608 35.028,66.877 35.096,67.379 C 35.169,67.928 35.429,68.176 36.509,68.145 L 37.998,68.115 C 38.343,68.311 38.443,69.042 38.066,69.271 C 36.894,69.313 35.512,69.468 33.417,69.658 C 31.954,69.824 30.371,70.097 29.186,70.277 C 28.897,70.125 28.715,69.406 28.951,69.148 L 30.389,68.845 C 31.438,68.633 32.345,68.018 32.748,66.307 C 33.267,64.123 34.111,61.027 35.287,55.745 L 38.132,43.102 C 38.527,41.422 38.676,40.545 38.444,39.854 C 39.455,39.403 40.093,38.506 40.496,37.867 C 40.761,37.831 41.081,37.878 41.215,38.175 C 42.064,40.048 43.059,41.999 44.005,43.874 L 52.79,61.318 C 54.694,65.128 55.389,65.754 57.392,65.761 L 58.653,65.756 C 59.008,65.954 59.028,66.707 58.827,66.919 C 56.931,67.039 55.319,67.176 53.265,67.407 C 51.076,67.655 49.363,67.942 48.055,68.138 C 47.666,67.996 47.517,67.263 47.799,66.994 L 49.095,66.706 C 50.033,66.506 50.629,66.155 50.562,65.695 C 50.49,65.186 50.143,64.383 49.622,63.322 L 46.741,57.343 z M 37.348,54.394 C 37.137,55.471 37.185,55.512 38.427,55.359 L 43.904,54.687 C 45.199,54.527 45.266,54.334 44.687,53.164 L 41.253,46.141 C 40.749,45.118 40.181,43.965 39.843,43.465 L 39.754,43.476 C 39.653,43.715 39.36,44.843 39.06,46.243 L 37.348,54.394 z"
   id="path118"
   style="fill:#8c0000" />
		<path
   d="M 57.109,40.745 C 56.707,38.1 56.62,37.836 55.149,37.213 L 54.657,37.005 C 54.412,36.902 54.32,36.278 54.523,36.114 C 55.497,35.571 57.569,34.701 59.148,33.576 C 59.328,33.552 59.522,33.616 59.641,33.783 C 59.79,35.358 60.01,37.387 60.314,39.36 L 61.628,47.907 C 61.747,48.682 61.959,48.841 62.232,48.806 C 63.315,47.974 65.023,46.923 67.272,46.638 C 72.539,45.971 76.765,49.472 77.598,54.563 C 78.614,60.761 74.802,65.64 68.534,66.347 C 66.809,66.541 65.457,66.36 64.489,66.186 C 63.466,65.969 62.822,65.76 62.452,65.8 C 62.081,65.842 61.769,66.256 61.588,66.609 C 61.548,66.659 61.503,66.664 61.41,66.677 C 61.227,66.698 61.029,66.624 60.908,66.449 C 60.854,65.793 60.767,64.904 60.403,62.494 L 57.109,40.745 z M 63.464,59.831 C 63.712,61.449 64.303,62.844 65.242,63.73 C 66.18,64.617 67.521,65.034 69.012,64.864 C 73.407,64.364 74.539,60.425 73.895,56.425 C 73.126,51.661 70.079,48.288 65.513,48.861 C 64.137,49.031 63.086,49.49 62.507,49.979 C 62.1,50.357 62.085,50.869 62.36,52.654 L 63.464,59.831 z"
   id="path120"
   style="fill:#8c0000" />
		<path
   d="M 95.22,43.912 C 95.661,44.187 96.127,44.889 96.269,45.679 C 96.417,46.518 96.095,47.462 95.52,47.533 C 95.279,47.563 95.023,47.5 94.791,47.292 C 93.517,46.167 91.542,45.178 89.594,45.423 C 86.279,45.839 83.499,48.782 84.327,53.705 C 84.944,57.349 88.26,61.422 93.391,60.832 C 96.185,60.512 97.419,59.113 98.249,57.375 C 98.618,57.235 99.11,57.516 99.236,57.936 C 98.213,61.637 94.815,63.379 92.019,63.696 C 89.475,63.982 86.992,63.445 85.051,62.029 C 83.124,60.622 81.648,58.451 81.146,55.417 C 80.312,50.402 82.993,44.65 90.837,43.659 C 91.934,43.517 93.828,43.517 95.22,43.912 z"
   id="path122"
   style="fill:#8c0000" />
	</g>
	<g
   id="g124">
		
			<radialGradient
   id="XMLID_9_"
   cx="7.2905002"
   cy="30.882299"
   r="193.40891"
   gradientTransform="matrix(0.9963,4.81e-2,2.6e-3,0.8585,3.0582,-24.9269)"
   gradientUnits="userSpaceOnUse">
			<stop
   offset="0.4852"
   style="stop-color:#FFFFFF"
   id="stop127" />
			<stop
   offset="0.9053"
   style="stop-color:#D3D7CF"
   id="stop129" />
		</radialGradient>
		<path
   d="M 46.697,58.381 C 46.239,57.416 46.042,57.301 44.697,57.464 L 37.962,58.278 C 36.852,58.413 36.604,58.58 36.423,59.568 L 35.514,64.519 C 35.123,66.648 34.977,67.915 35.044,68.419 C 35.118,68.968 35.377,69.215 36.459,69.189 L 37.949,69.157 C 38.293,69.353 38.394,70.087 38.016,70.315 C 36.844,70.355 35.46,70.509 33.364,70.698 C 31.899,70.864 30.317,71.136 29.131,71.315 C 28.842,71.163 28.66,70.442 28.896,70.184 L 30.335,69.882 C 31.383,69.668 32.292,69.057 32.694,67.342 C 33.213,65.156 34.058,62.059 35.236,56.772 L 38.082,44.117 C 38.478,42.435 38.625,41.559 38.396,40.866 C 39.407,40.417 40.044,39.518 40.448,38.879 C 40.713,38.843 41.034,38.891 41.168,39.187 C 42.016,41.063 43.013,43.017 43.958,44.896 L 52.746,62.366 C 54.651,66.18 55.348,66.809 57.351,66.819 L 58.613,66.817 C 58.967,67.013 58.988,67.766 58.787,67.978 C 56.89,68.098 55.277,68.233 53.222,68.465 C 51.033,68.709 49.319,68.997 48.009,69.192 C 47.62,69.046 47.471,68.314 47.753,68.046 L 49.049,67.759 C 49.989,67.557 50.585,67.21 50.518,66.748 C 50.446,66.24 50.099,65.436 49.578,64.373 L 46.697,58.381 z M 37.299,55.421 C 37.087,56.5 37.136,56.54 38.377,56.388 L 43.857,55.72 C 45.153,55.561 45.218,55.368 44.64,54.197 L 41.205,47.163 C 40.7,46.135 40.132,44.984 39.795,44.482 L 39.705,44.493 C 39.603,44.734 39.311,45.862 39.01,47.263 L 37.299,55.421 z"
   id="path131"
   style="fill:url(#XMLID_9_)" />
		
			<radialGradient
   id="XMLID_10_"
   cx="9.0815001"
   cy="29.642099"
   r="185.8085"
   gradientTransform="matrix(0.9963,4.81e-2,2.6e-3,0.8585,3.0582,-24.9269)"
   gradientUnits="userSpaceOnUse">
			<stop
   offset="0.4852"
   style="stop-color:#FFFFFF"
   id="stop134" />
			<stop
   offset="0.9053"
   style="stop-color:#D3D7CF"
   id="stop136" />
		</radialGradient>
		<path
   d="M 57.069,41.772 C 56.668,39.123 56.582,38.859 55.109,38.234 L 54.618,38.026 C 54.373,37.921 54.279,37.297 54.484,37.13 C 55.458,36.589 57.532,35.719 59.11,34.595 C 59.291,34.571 59.485,34.635 59.602,34.801 C 59.753,36.379 59.974,38.409 60.277,40.385 L 61.592,48.944 C 61.712,49.718 61.924,49.877 62.196,49.843 C 63.282,49.011 64.988,47.96 67.241,47.676 C 72.51,47.013 76.736,50.524 77.571,55.619 C 78.589,61.825 74.776,66.706 68.501,67.408 C 66.776,67.603 65.424,67.422 64.454,67.245 C 63.43,67.027 62.787,66.817 62.417,66.859 C 62.046,66.897 61.734,67.312 61.552,67.666 C 61.512,67.718 61.467,67.722 61.374,67.733 C 61.191,67.755 60.993,67.681 60.872,67.506 C 60.818,66.849 60.731,65.958 60.366,63.545 L 57.069,41.772 z M 63.429,60.883 C 63.677,62.506 64.269,63.902 65.208,64.789 C 66.148,65.678 67.488,66.096 68.979,65.928 C 73.376,65.43 74.51,61.488 73.866,57.483 C 73.095,52.713 70.048,49.335 65.479,49.902 C 64.102,50.073 63.052,50.53 62.473,51.021 C 62.065,51.398 62.049,51.911 62.323,53.699 L 63.429,60.883 z"
   id="path138"
   style="fill:url(#XMLID_10_)" />
		
			<radialGradient
   id="XMLID_11_"
   cx="4.6436"
   cy="23.8081"
   r="192.9373"
   gradientTransform="matrix(0.9963,4.81e-2,2.6e-3,0.8585,3.0582,-24.9269)"
   gradientUnits="userSpaceOnUse">
			<stop
   offset="0.4852"
   style="stop-color:#FFFFFF"
   id="stop141" />
			<stop
   offset="0.9053"
   style="stop-color:#D3D7CF"
   id="stop143" />
		</radialGradient>
		<path
   d="M 95.2,44.971 C 95.641,45.248 96.108,45.952 96.252,46.742 C 96.399,47.582 96.076,48.527 95.502,48.598 C 95.261,48.628 95.005,48.564 94.771,48.356 C 93.498,47.226 91.522,46.236 89.574,46.48 C 86.257,46.895 83.475,49.839 84.307,54.768 C 84.922,58.415 88.236,62.496 93.372,61.911 C 96.17,61.593 97.403,60.193 98.232,58.454 C 98.601,58.313 99.097,58.594 99.221,59.016 C 98.196,62.719 94.798,64.462 91.999,64.776 C 89.453,65.061 86.972,64.521 85.029,63.102 C 83.099,61.691 81.623,59.517 81.12,56.479 C 80.284,51.458 82.97,45.702 90.816,44.714 C 91.914,44.577 93.812,44.574 95.2,44.971 z"
   id="path145"
   style="fill:url(#XMLID_11_)" />
	</g>
</g>
<g
   id="g147"
   transform="translate(0,-1)"
   style="opacity:0.5">
	
		<radialGradient
   id="XMLID_12_"
   cx="55.584999"
   cy="3.0941999"
   r="35.3106"
   gradientTransform="matrix(0.9996,2.75e-2,-2.76e-2,0.9962,-8.9169,5.0753)"
   gradientUnits="userSpaceOnUse">
		<stop
   offset="0.4852"
   style="stop-color:#FFFFFF"
   id="stop150" />
		<stop
   offset="0.9053"
   style="stop-color:#D3D7CF"
   id="stop152" />
	</radialGradient>
	<path
   d="M 30.162,17.472 C 29.975,15.883 30.907,14.573 32.384,14.446 C 34.039,14.303 35.027,15.558 35.192,16.958 C 35.38,18.564 34.414,19.829 33.03,19.948 C 31.438,20.085 30.33,18.902 30.162,17.472 z M 34.502,17.267 C 34.348,15.955 33.659,14.585 32.291,14.703 C 31.544,14.767 30.644,15.415 30.849,17.157 C 30.986,18.333 31.682,19.816 33.094,19.694 C 33.954,19.619 34.687,18.833 34.502,17.267 z"
   id="path154"
   style="fill:url(#XMLID_12_)" />
	
		<radialGradient
   id="XMLID_13_"
   cx="55.5854"
   cy="3.0962"
   r="35.3055"
   gradientTransform="matrix(0.9996,2.75e-2,-2.76e-2,0.9962,-8.9169,5.0753)"
   gradientUnits="userSpaceOnUse">
		<stop
   offset="0.4852"
   style="stop-color:#FFFFFF"
   id="stop157" />
		<stop
   offset="0.9053"
   style="stop-color:#D3D7CF"
   id="stop159" />
	</radialGradient>
	<path
   d="M 36.151,16.932 C 36.023,16.766 35.886,16.65 35.681,16.628 L 35.564,16.613 C 35.516,16.577 35.507,16.441 35.555,16.413 C 35.837,16.406 36.002,16.398 36.181,16.383 C 36.353,16.369 36.509,16.347 36.787,16.307 C 36.841,16.335 36.856,16.461 36.818,16.506 L 36.714,16.538 C 36.526,16.595 36.537,16.642 36.681,16.823 L 37.091,17.349 C 37.125,17.393 37.175,17.454 37.2,17.476 C 37.226,17.449 37.415,17.032 37.536,16.765 C 37.633,16.547 37.607,16.511 37.444,16.475 L 37.356,16.458 C 37.308,16.414 37.307,16.286 37.361,16.257 C 37.528,16.259 37.715,16.251 37.887,16.236 C 38.052,16.222 38.273,16.195 38.408,16.167 C 38.469,16.194 38.484,16.321 38.446,16.365 L 38.341,16.398 C 38.174,16.452 38.069,16.485 37.999,16.564 C 37.89,16.686 37.667,17.075 37.432,17.527 C 37.36,17.663 37.363,17.686 37.473,17.82 L 38.263,18.805 C 38.457,19.045 38.584,19.138 38.78,19.137 L 38.895,19.135 C 38.943,19.18 38.952,19.309 38.904,19.337 C 38.636,19.344 38.399,19.357 38.191,19.375 C 37.926,19.397 37.74,19.422 37.513,19.458 C 37.453,19.438 37.423,19.305 37.469,19.259 L 37.674,19.218 C 37.879,19.177 37.878,19.105 37.767,18.969 L 37.324,18.405 C 37.221,18.269 37.171,18.21 37.139,18.189 C 37.121,18.214 37.073,18.297 37.033,18.39 L 36.793,18.941 C 36.68,19.208 36.673,19.273 36.855,19.288 L 36.98,19.302 C 37.027,19.338 37.037,19.474 36.989,19.503 C 36.808,19.503 36.628,19.51 36.455,19.525 C 36.276,19.539 36.12,19.561 35.935,19.593 C 35.873,19.567 35.85,19.431 35.897,19.394 L 36.058,19.349 C 36.184,19.315 36.277,19.243 36.388,19.08 C 36.519,18.892 36.779,18.331 36.917,18.095 C 36.972,18.002 36.982,17.968 36.914,17.886 L 36.151,16.932 z"
   id="path161"
   style="fill:url(#XMLID_13_)" />
	
		<radialGradient
   id="XMLID_14_"
   cx="55.584999"
   cy="3.0957"
   r="35.306499"
   gradientTransform="matrix(0.9996,2.75e-2,-2.76e-2,0.9962,-8.9169,5.0753)"
   gradientUnits="userSpaceOnUse">
		<stop
   offset="0.4852"
   style="stop-color:#FFFFFF"
   id="stop164" />
		<stop
   offset="0.9053"
   style="stop-color:#D3D7CF"
   id="stop166" />
	</radialGradient>
	<path
   d="M 39.292,20.932 C 39.267,20.718 39.383,20.603 39.541,20.59 L 39.677,20.578 C 39.792,20.568 39.857,20.505 39.897,20.414 C 40.063,20.038 40.167,19.692 40.209,19.496 C 40.223,19.43 40.254,19.259 40.241,19.148 C 40.222,18.988 40.183,18.897 40.054,18.61 L 39.295,16.957 C 39.13,16.594 39.057,16.407 38.799,16.374 L 38.615,16.349 C 38.567,16.312 38.559,16.177 38.614,16.148 C 38.845,16.145 39.061,16.133 39.297,16.113 C 39.491,16.096 39.692,16.072 39.919,16.035 C 39.978,16.055 40.001,16.188 39.957,16.233 L 39.782,16.289 C 39.685,16.321 39.631,16.35 39.637,16.405 C 39.648,16.5 39.873,17.003 39.932,17.134 L 40.247,17.845 C 40.305,17.969 40.491,18.379 40.521,18.391 C 40.541,18.374 40.626,18.118 40.717,17.78 L 40.886,17.131 C 40.995,16.705 41.054,16.402 41.044,16.315 C 41.038,16.258 40.987,16.208 40.856,16.195 L 40.629,16.174 C 40.574,16.138 40.565,16.003 40.62,15.974 C 40.851,15.97 41.067,15.96 41.253,15.944 C 41.432,15.928 41.596,15.906 41.795,15.873 C 41.856,15.9 41.877,16.019 41.833,16.071 L 41.713,16.105 C 41.482,16.173 41.38,16.415 41.203,17 L 40.909,17.949 C 40.735,18.503 40.31,19.936 40.06,20.832 C 39.974,21.145 39.81,21.231 39.646,21.246 C 39.439,21.264 39.315,21.131 39.292,20.932 z"
   id="path168"
   style="fill:url(#XMLID_14_)" />
	
		<radialGradient
   id="XMLID_15_"
   cx="55.585899"
   cy="3.0947001"
   r="35.310299"
   gradientTransform="matrix(0.9996,2.75e-2,-2.76e-2,0.9962,-8.9169,5.0753)"
   gradientUnits="userSpaceOnUse">
		<stop
   offset="0.4852"
   style="stop-color:#FFFFFF"
   id="stop171" />
		<stop
   offset="0.9053"
   style="stop-color:#D3D7CF"
   id="stop173" />
	</radialGradient>
	<path
   d="M 44.916,15.806 C 45,15.839 45.018,16.109 44.911,16.134 L 44.395,16.179 C 44.424,16.313 44.441,16.449 44.457,16.584 C 44.522,17.133 44.312,17.874 43.401,17.953 C 43.273,17.963 43.171,17.956 43.084,17.956 C 43.004,18.018 42.792,18.189 42.82,18.419 C 42.841,18.602 43.024,18.74 43.361,18.711 C 43.604,18.69 43.896,18.642 44.211,18.614 C 44.611,18.58 45.224,18.605 45.317,19.401 C 45.419,20.267 44.64,20.977 43.709,21.058 C 42.828,21.134 42.458,20.636 42.411,20.239 C 42.395,20.112 42.413,20.006 42.455,19.938 C 42.561,19.784 42.736,19.56 42.88,19.364 C 42.936,19.286 42.985,19.21 42.915,19.169 C 42.626,19.113 42.351,18.863 42.318,18.585 C 42.313,18.546 42.339,18.512 42.41,18.441 C 42.521,18.343 42.642,18.196 42.747,18.042 C 42.777,17.992 42.805,17.926 42.801,17.885 C 42.54,17.764 42.21,17.479 42.151,16.97 C 42.07,16.286 42.54,15.723 43.177,15.668 C 43.45,15.645 43.71,15.703 43.885,15.768 C 44.127,15.86 44.179,15.872 44.337,15.858 L 44.916,15.806 z M 43.973,16.834 C 43.91,16.293 43.656,15.858 43.219,15.896 C 42.875,15.927 42.657,16.299 42.721,16.838 C 42.787,17.403 43.138,17.742 43.482,17.713 C 43.869,17.678 44.029,17.319 43.973,16.834 z M 43.795,19.147 C 43.566,19.166 43.281,19.207 43.189,19.286 C 43.03,19.421 42.888,19.682 42.923,19.984 C 42.973,20.414 43.324,20.744 43.976,20.688 C 44.614,20.633 44.99,20.2 44.936,19.747 C 44.879,19.262 44.555,19.082 44.039,19.125 L 43.795,19.147 z"
   id="path175"
   style="fill:url(#XMLID_15_)" />
	
		<radialGradient
   id="XMLID_16_"
   cx="55.584499"
   cy="3.0947001"
   r="35.311199"
   gradientTransform="matrix(0.9996,2.75e-2,-2.76e-2,0.9962,-8.9169,5.0753)"
   gradientUnits="userSpaceOnUse">
		<stop
   offset="0.4852"
   style="stop-color:#FFFFFF"
   id="stop178" />
		<stop
   offset="0.9053"
   style="stop-color:#D3D7CF"
   id="stop180" />
	</radialGradient>
	<path
   d="M 45.957,16.647 C 45.77,16.663 45.765,16.679 45.788,16.878 C 45.882,17.682 46.385,18.328 47.152,18.262 C 47.39,18.242 47.581,18.145 47.766,17.816 C 47.835,17.786 47.891,17.83 47.906,17.9 C 47.733,18.462 47.239,18.704 46.867,18.736 C 46.402,18.777 46.01,18.585 45.767,18.301 C 45.515,18.009 45.386,17.644 45.344,17.295 C 45.23,16.316 45.713,15.447 46.573,15.373 C 47.189,15.319 47.647,15.754 47.702,16.231 C 47.715,16.343 47.708,16.406 47.697,16.44 C 47.681,16.49 47.582,16.505 47.281,16.53 L 45.957,16.647 z M 46.373,16.371 C 46.904,16.325 47.058,16.279 47.108,16.226 C 47.128,16.209 47.146,16.175 47.134,16.072 C 47.108,15.849 46.939,15.583 46.524,15.619 C 46.101,15.655 45.785,16.116 45.809,16.378 C 45.811,16.394 45.814,16.418 45.864,16.414 L 46.373,16.371 z"
   id="path182"
   style="fill:url(#XMLID_16_)" />
	
		<radialGradient
   id="XMLID_17_"
   cx="55.584999"
   cy="3.0933001"
   r="35.314899"
   gradientTransform="matrix(0.9996,2.75e-2,-2.76e-2,0.9962,-8.9169,5.0753)"
   gradientUnits="userSpaceOnUse">
		<stop
   offset="0.4852"
   style="stop-color:#FFFFFF"
   id="stop185" />
		<stop
   offset="0.9053"
   style="stop-color:#D3D7CF"
   id="stop187" />
	</radialGradient>
	<path
   d="M 48.536,16.174 C 48.499,15.865 48.495,15.824 48.285,15.699 L 48.214,15.657 C 48.182,15.627 48.172,15.54 48.205,15.514 C 48.362,15.435 48.747,15.194 48.876,15.061 C 48.905,15.059 48.942,15.071 48.961,15.109 C 48.967,15.294 48.982,15.413 48.99,15.484 C 48.995,15.531 49.029,15.569 49.079,15.564 C 49.356,15.332 49.67,15.104 50.035,15.073 C 50.63,15.021 50.927,15.453 50.989,15.986 L 51.15,17.354 C 51.217,17.926 51.241,18.006 51.504,18.021 L 51.665,18.031 C 51.72,18.067 51.721,18.204 51.673,18.232 C 51.456,18.234 51.249,18.245 50.996,18.267 C 50.739,18.289 50.524,18.315 50.333,18.349 C 50.28,18.329 50.25,18.194 50.295,18.15 L 50.429,18.114 C 50.688,18.044 50.686,17.972 50.619,17.399 L 50.48,16.214 C 50.427,15.762 50.2,15.443 49.713,15.485 C 49.441,15.509 49.219,15.658 49.137,15.816 C 49.06,15.96 49.059,16.072 49.086,16.302 L 49.229,17.519 C 49.295,18.092 49.319,18.162 49.583,18.186 L 49.714,18.2 C 49.769,18.236 49.772,18.372 49.723,18.4 C 49.528,18.401 49.319,18.41 49.068,18.432 C 48.809,18.454 48.596,18.481 48.397,18.515 C 48.344,18.495 48.314,18.361 48.36,18.316 L 48.507,18.279 C 48.766,18.218 48.764,18.137 48.698,17.564 L 48.536,16.174 z"
   id="path189"
   style="fill:url(#XMLID_17_)" />
	
		<radialGradient
   id="XMLID_18_"
   cx="55.584999"
   cy="3.0957"
   r="35.308399"
   gradientTransform="matrix(0.9996,2.75e-2,-2.76e-2,0.9962,-8.9169,5.0753)"
   gradientUnits="userSpaceOnUse">
		<stop
   offset="0.4852"
   style="stop-color:#FFFFFF"
   id="stop192" />
		<stop
   offset="0.9053"
   style="stop-color:#D3D7CF"
   id="stop194" />
	</radialGradient>
	<path
   d="M 54.08,13.745 C 54.015,13.188 53.959,13.026 53.653,13.002 L 53.492,12.991 C 53.43,12.957 53.408,12.83 53.475,12.793 C 54.08,12.7 54.658,12.626 55.267,12.574 C 55.869,12.522 56.383,12.525 56.871,12.676 C 57.884,12.984 58.478,13.847 58.601,14.898 C 58.72,15.908 58.384,16.812 57.625,17.375 C 57.191,17.693 56.615,17.847 56.063,17.895 C 55.605,17.935 55.139,17.912 54.887,17.933 C 54.586,17.959 54.329,17.989 53.994,18.034 C 53.948,18.014 53.919,17.887 53.956,17.835 L 54.118,17.797 C 54.527,17.698 54.53,17.601 54.432,16.767 L 54.08,13.745 z M 55.001,16.532 C 55.05,16.954 55.101,17.206 55.246,17.387 C 55.432,17.619 55.714,17.675 56.165,17.636 C 57.556,17.516 58.061,16.453 57.888,14.974 C 57.784,14.098 57.231,12.653 55.353,12.816 C 54.931,12.852 54.709,12.936 54.657,12.989 C 54.605,13.042 54.615,13.241 54.656,13.598 L 55.001,16.532 z"
   id="path196"
   style="fill:url(#XMLID_18_)" />
	
		<radialGradient
   id="XMLID_19_"
   cx="55.583"
   cy="3.0952001"
   r="35.314301"
   gradientTransform="matrix(0.9996,2.75e-2,-2.76e-2,0.9962,-8.9169,5.0753)"
   gradientUnits="userSpaceOnUse">
		<stop
   offset="0.4852"
   style="stop-color:#FFFFFF"
   id="stop199" />
		<stop
   offset="0.9053"
   style="stop-color:#D3D7CF"
   id="stop201" />
	</radialGradient>
	<path
   d="M 59.925,12.904 C 59.958,13.19 59.794,13.332 59.593,13.35 C 59.37,13.369 59.207,13.198 59.18,12.983 C 59.149,12.721 59.302,12.539 59.517,12.522 C 59.733,12.503 59.898,12.681 59.925,12.904 z M 59.596,15.22 C 59.56,14.91 59.555,14.87 59.345,14.744 L 59.275,14.702 C 59.242,14.672 59.232,14.586 59.265,14.559 C 59.423,14.481 59.807,14.239 59.957,14.104 C 59.994,14.102 60.023,14.115 60.035,14.147 C 60.053,14.426 60.083,14.81 60.122,15.136 L 60.289,16.566 C 60.356,17.138 60.38,17.218 60.643,17.234 L 60.797,17.243 C 60.852,17.28 60.853,17.416 60.805,17.445 C 60.589,17.447 60.38,17.458 60.129,17.479 C 59.872,17.502 59.657,17.528 59.458,17.561 C 59.405,17.542 59.374,17.407 59.42,17.362 L 59.568,17.326 C 59.828,17.264 59.826,17.184 59.759,16.611 L 59.596,15.22 z"
   id="path203"
   style="fill:url(#XMLID_19_)" />
	
		<radialGradient
   id="XMLID_20_"
   cx="55.580101"
   cy="3.0938001"
   r="35.319401"
   gradientTransform="matrix(0.9996,2.75e-2,-2.76e-2,0.9962,-8.9169,5.0753)"
   gradientUnits="userSpaceOnUse">
		<stop
   offset="0.4852"
   style="stop-color:#FFFFFF"
   id="stop206" />
		<stop
   offset="0.9053"
   style="stop-color:#D3D7CF"
   id="stop208" />
	</radialGradient>
	<path
   d="M 63.27,14.067 C 63.333,14.118 63.398,14.241 63.415,14.377 C 63.431,14.52 63.378,14.677 63.292,14.684 C 63.256,14.687 63.217,14.674 63.185,14.638 C 63.002,14.436 62.713,14.253 62.419,14.277 C 61.917,14.32 61.481,14.8 61.58,15.644 C 61.653,16.263 62.126,16.969 62.894,16.903 C 63.309,16.866 63.501,16.642 63.633,16.358 C 63.689,16.337 63.759,16.387 63.775,16.458 C 63.601,17.068 63.089,17.337 62.672,17.374 C 62.294,17.406 61.926,17.301 61.643,17.053 C 61.361,16.804 61.15,16.429 61.089,15.913 C 60.988,15.053 61.425,14.092 62.615,13.989 C 62.779,13.974 63.063,13.989 63.27,14.067 z"
   id="path210"
   style="fill:url(#XMLID_20_)" />
	
		<radialGradient
   id="XMLID_21_"
   cx="55.5923"
   cy="3.0957"
   r="35.2976"
   gradientTransform="matrix(0.9996,2.75e-2,-2.76e-2,0.9962,-8.9169,5.0753)"
   gradientUnits="userSpaceOnUse">
		<stop
   offset="0.4852"
   style="stop-color:#FFFFFF"
   id="stop213" />
		<stop
   offset="0.9053"
   style="stop-color:#D3D7CF"
   id="stop215" />
	</radialGradient>
	<path
   d="M 64.832,14.246 C 64.71,14.257 64.706,14.281 64.725,14.448 L 64.9,15.935 C 64.954,16.395 65.054,16.814 65.527,16.773 C 65.599,16.767 65.662,16.745 65.716,16.715 C 65.777,16.686 65.86,16.59 65.882,16.589 C 65.939,16.584 65.979,16.67 65.969,16.717 C 65.86,16.896 65.624,17.116 65.26,17.149 C 64.643,17.202 64.47,16.831 64.412,16.354 L 64.198,14.533 C 64.175,14.319 64.165,14.304 64.022,14.316 L 63.821,14.334 C 63.774,14.305 63.757,14.219 63.78,14.169 C 63.979,14.078 64.146,13.961 64.21,13.883 C 64.292,13.78 64.403,13.552 64.456,13.387 C 64.489,13.369 64.575,13.363 64.61,13.415 L 64.652,13.773 C 64.67,13.916 64.677,13.922 64.798,13.913 L 65.595,13.844 C 65.689,13.907 65.699,14.123 65.64,14.177 L 64.832,14.246 z"
   id="path217"
   style="fill:url(#XMLID_21_)" />
	
		<radialGradient
   id="XMLID_22_"
   cx="55.581501"
   cy="3.0952001"
   r="35.3153"
   gradientTransform="matrix(0.9996,2.75e-2,-2.76e-2,0.9962,-8.9169,5.0753)"
   gradientUnits="userSpaceOnUse">
		<stop
   offset="0.4852"
   style="stop-color:#FFFFFF"
   id="stop220" />
		<stop
   offset="0.9053"
   style="stop-color:#D3D7CF"
   id="stop222" />
	</radialGradient>
	<path
   d="M 66.834,12.307 C 66.867,12.593 66.703,12.737 66.503,12.754 C 66.281,12.773 66.115,12.603 66.09,12.387 C 66.06,12.125 66.212,11.944 66.427,11.926 C 66.643,11.906 66.809,12.084 66.834,12.307 z M 66.505,14.624 C 66.469,14.314 66.464,14.273 66.253,14.148 L 66.184,14.106 C 66.151,14.077 66.142,13.99 66.174,13.963 C 66.33,13.885 66.716,13.643 66.866,13.509 C 66.901,13.506 66.932,13.519 66.943,13.55 C 66.963,13.829 66.992,14.213 67.031,14.538 L 67.199,15.968 C 67.266,16.542 67.29,16.62 67.553,16.636 L 67.705,16.648 C 67.76,16.683 67.763,16.821 67.715,16.849 C 67.499,16.851 67.289,16.862 67.039,16.884 C 66.78,16.906 66.566,16.933 66.367,16.966 C 66.314,16.946 66.285,16.812 66.329,16.767 L 66.477,16.73 C 66.737,16.669 66.736,16.589 66.668,16.016 L 66.505,14.624 z"
   id="path224"
   style="fill:url(#XMLID_22_)" />
	
		<radialGradient
   id="XMLID_23_"
   cx="55.5825"
   cy="3.0957"
   r="35.313099"
   gradientTransform="matrix(0.9996,2.75e-2,-2.76e-2,0.9962,-8.9169,5.0753)"
   gradientUnits="userSpaceOnUse">
		<stop
   offset="0.4852"
   style="stop-color:#FFFFFF"
   id="stop227" />
		<stop
   offset="0.9053"
   style="stop-color:#D3D7CF"
   id="stop229" />
	</radialGradient>
	<path
   d="M 70.958,14.93 C 71.074,15.925 70.541,16.692 69.645,16.77 C 68.822,16.84 68.102,16.252 67.984,15.258 C 67.867,14.257 68.464,13.482 69.31,13.409 C 70.112,13.34 70.843,13.953 70.958,14.93 z M 69.251,13.656 C 68.778,13.696 68.485,14.228 68.589,15.101 C 68.673,15.825 69.059,16.578 69.69,16.524 C 70.32,16.469 70.428,15.722 70.356,15.11 C 70.276,14.434 69.932,13.597 69.251,13.656 z"
   id="path231"
   style="fill:url(#XMLID_23_)" />
	
		<radialGradient
   id="XMLID_24_"
   cx="55.582001"
   cy="3.0947001"
   r="35.314098"
   gradientTransform="matrix(0.9996,2.75e-2,-2.76e-2,0.9962,-8.9169,5.0753)"
   gradientUnits="userSpaceOnUse">
		<stop
   offset="0.4852"
   style="stop-color:#FFFFFF"
   id="stop234" />
		<stop
   offset="0.9053"
   style="stop-color:#D3D7CF"
   id="stop236" />
	</radialGradient>
	<path
   d="M 71.83,14.163 C 71.794,13.853 71.789,13.813 71.579,13.688 L 71.508,13.646 C 71.476,13.616 71.466,13.53 71.499,13.503 C 71.656,13.424 72.04,13.182 72.171,13.051 C 72.198,13.048 72.236,13.061 72.256,13.1 C 72.263,13.283 72.276,13.403 72.284,13.475 C 72.29,13.522 72.324,13.559 72.374,13.556 C 72.65,13.324 72.964,13.096 73.329,13.065 C 73.924,13.012 74.222,13.444 74.284,13.977 L 74.445,15.345 C 74.512,15.918 74.535,15.997 74.799,16.012 L 74.959,16.023 C 75.013,16.059 75.015,16.196 74.969,16.224 C 74.751,16.226 74.542,16.236 74.292,16.258 C 74.033,16.28 73.819,16.306 73.628,16.34 C 73.574,16.321 73.544,16.186 73.59,16.142 L 73.723,16.106 C 73.983,16.036 73.983,15.963 73.915,15.391 L 73.775,14.206 C 73.72,13.754 73.496,13.435 73.008,13.477 C 72.736,13.5 72.514,13.649 72.432,13.809 C 72.354,13.952 72.353,14.064 72.381,14.295 L 72.523,15.512 C 72.59,16.084 72.614,16.154 72.877,16.179 L 73.009,16.191 C 73.065,16.228 73.067,16.365 73.018,16.392 C 72.823,16.392 72.615,16.403 72.364,16.425 C 72.106,16.447 71.891,16.473 71.693,16.507 C 71.64,16.488 71.61,16.353 71.655,16.308 L 71.803,16.271 C 72.063,16.21 72.062,16.129 71.994,15.556 L 71.83,14.163 z"
   id="path238"
   style="fill:url(#XMLID_24_)" />
	
		<radialGradient
   id="XMLID_25_"
   cx="55.583"
   cy="3.0941999"
   r="35.311798"
   gradientTransform="matrix(0.9996,2.75e-2,-2.76e-2,0.9962,-8.9169,5.0753)"
   gradientUnits="userSpaceOnUse">
		<stop
   offset="0.4852"
   style="stop-color:#FFFFFF"
   id="stop241" />
		<stop
   offset="0.9053"
   style="stop-color:#D3D7CF"
   id="stop243" />
	</radialGradient>
	<path
   d="M 76.664,14.388 C 76.768,14.34 76.773,14.266 76.759,14.147 L 76.723,13.781 C 76.698,13.486 76.563,13.096 76.119,13.135 C 75.919,13.152 75.688,13.284 75.703,13.532 C 75.711,13.66 75.715,13.755 75.662,13.808 C 75.567,13.913 75.38,13.985 75.272,13.995 C 75.208,14.001 75.167,13.963 75.159,13.892 C 75.11,13.478 75.854,12.843 76.378,12.799 C 76.893,12.754 77.184,13.067 77.232,13.665 L 77.351,15.051 C 77.38,15.419 77.482,15.74 77.761,15.716 C 77.834,15.709 77.896,15.68 77.934,15.653 C 77.968,15.625 78,15.59 78.022,15.588 C 78.05,15.586 78.078,15.632 78.084,15.688 C 78.089,15.726 77.875,16.059 77.523,16.089 C 77.351,16.103 77.17,16.047 77.029,15.883 C 76.995,15.837 76.944,15.778 76.901,15.781 C 76.851,15.785 76.773,15.864 76.639,15.963 C 76.493,16.073 76.347,16.19 76.147,16.208 C 75.94,16.226 75.759,16.176 75.624,16.068 C 75.473,15.944 75.362,15.753 75.337,15.53 C 75.3,15.22 75.416,15.025 75.853,14.803 L 76.664,14.388 z M 76.385,15.826 C 76.528,15.814 76.737,15.676 76.798,15.589 C 76.872,15.486 76.86,15.376 76.848,15.208 L 76.806,14.738 C 76.795,14.65 76.766,14.636 76.723,14.64 C 76.68,14.643 76.562,14.686 76.439,14.745 C 76.035,14.941 75.84,15.078 75.877,15.388 C 75.893,15.523 76.02,15.858 76.385,15.826 z"
   id="path245"
   style="fill:url(#XMLID_25_)" />
	
		<radialGradient
   id="XMLID_26_"
   cx="55.599602"
   cy="3.0952001"
   r="35.294201"
   gradientTransform="matrix(0.9996,2.75e-2,-2.76e-2,0.9962,-8.9169,5.0753)"
   gradientUnits="userSpaceOnUse">
		<stop
   offset="0.4852"
   style="stop-color:#FFFFFF"
   id="stop248" />
		<stop
   offset="0.9053"
   style="stop-color:#D3D7CF"
   id="stop250" />
	</radialGradient>
	<path
   d="M 78.488,13.589 C 78.452,13.278 78.448,13.238 78.237,13.112 L 78.167,13.07 C 78.135,13.04 78.125,12.953 78.157,12.927 C 78.315,12.848 78.671,12.609 78.836,12.474 C 78.872,12.478 78.896,12.493 78.899,12.524 L 78.954,12.985 C 78.959,13.026 78.97,13.048 78.983,13.055 C 79.208,12.803 79.451,12.532 79.715,12.509 C 79.894,12.494 80.053,12.609 80.075,12.801 C 80.105,13.064 79.925,13.182 79.809,13.192 C 79.736,13.198 79.699,13.177 79.646,13.15 C 79.528,13.08 79.415,13.042 79.315,13.051 C 79.201,13.061 79.124,13.139 79.075,13.231 C 79.016,13.349 79.023,13.582 79.054,13.853 L 79.181,14.933 C 79.249,15.505 79.275,15.6 79.549,15.6 L 79.81,15.601 C 79.866,15.638 79.868,15.774 79.819,15.803 C 79.481,15.815 79.273,15.825 79.021,15.847 C 78.764,15.869 78.549,15.896 78.365,15.928 C 78.312,15.909 78.283,15.775 78.327,15.73 L 78.46,15.694 C 78.722,15.625 78.72,15.552 78.652,14.979 L 78.488,13.589 z"
   id="path252"
   style="fill:url(#XMLID_26_)" />
	
		<radialGradient
   id="XMLID_27_"
   cx="55.591801"
   cy="3.0947001"
   r="35.303299"
   gradientTransform="matrix(0.9996,2.75e-2,-2.76e-2,0.9962,-8.9169,5.0753)"
   gradientUnits="userSpaceOnUse">
		<stop
   offset="0.4852"
   style="stop-color:#FFFFFF"
   id="stop255" />
		<stop
   offset="0.9053"
   style="stop-color:#D3D7CF"
   id="stop257" />
	</radialGradient>
	<path
   d="M 80.927,17.337 C 80.903,17.123 81.019,17.008 81.176,16.994 L 81.314,16.983 C 81.428,16.974 81.493,16.911 81.533,16.819 C 81.699,16.444 81.803,16.097 81.845,15.901 C 81.858,15.836 81.889,15.664 81.876,15.553 C 81.856,15.394 81.817,15.302 81.689,15.015 L 80.931,13.363 C 80.764,12.999 80.692,12.812 80.434,12.78 L 80.251,12.755 C 80.202,12.718 80.193,12.583 80.249,12.554 C 80.48,12.551 80.696,12.539 80.933,12.52 C 81.125,12.503 81.326,12.478 81.553,12.441 C 81.614,12.461 81.635,12.594 81.591,12.639 L 81.415,12.694 C 81.318,12.727 81.265,12.755 81.27,12.811 C 81.281,12.907 81.507,13.409 81.565,13.54 L 81.88,14.252 C 81.938,14.376 82.123,14.785 82.154,14.797 C 82.174,14.78 82.259,14.524 82.351,14.186 L 82.52,13.537 C 82.629,13.11 82.687,12.808 82.677,12.722 C 82.671,12.665 82.62,12.614 82.489,12.602 L 82.262,12.58 C 82.207,12.545 82.198,12.409 82.252,12.381 C 82.483,12.377 82.699,12.366 82.886,12.35 C 83.065,12.334 83.23,12.312 83.429,12.279 C 83.49,12.307 83.51,12.425 83.466,12.477 L 83.347,12.511 C 83.117,12.579 83.014,12.821 82.836,13.406 L 82.542,14.356 C 82.368,14.909 81.943,16.343 81.693,17.24 C 81.606,17.552 81.443,17.638 81.278,17.653 C 81.075,17.669 80.95,17.537 80.927,17.337 z"
   id="path259"
   style="fill:url(#XMLID_27_)" />
</g>
<line
   x1="99"
   y1="21.502001"
   x2="20.5"
   y2="28.497999"
   id="line261"
   style="opacity:0.50000000000000000;fill:none;stroke:url(#linearGradient4208);stroke-linecap:round" />
<line
   x1="99"
   y1="20.502001"
   x2="20.5"
   y2="27.497999"
   id="line263"
   style="opacity:0.50000000000000000;fill:none;stroke:url(#linearGradient4200);stroke-linecap:round" />







<g
   id="g3725"
   style="opacity:1;filter:url(#filter4128)"
   transform="translate(0,-1)"><line
     style="fill:none;stroke:url(#linearGradient3326)"
     id="line265"
     y2="99.333"
     x2="109.381"
     y1="108.041"
     x1="26.490999" /><line
     style="fill:none;stroke:url(#linearGradient2937)"
     id="line267"
     y2="97.333"
     x2="109.381"
     y1="106.041"
     x1="26.490999" /><line
     style="fill:none;stroke:url(#linearGradient3891)"
     id="line269"
     y2="95.333"
     x2="109.381"
     y1="104.041"
     x1="26.490999" /><line
     style="fill:none;stroke:url(#linearGradient3899)"
     id="line271"
     y2="101.333"
     x2="109.381"
     y1="110.041"
     x1="26.490999" /><line
     style="fill:none;stroke:url(#linearGradient3907)"
     id="line273"
     y2="103.333"
     x2="109.381"
     y1="112.041"
     x1="26.490999" /><line
     style="fill:none;stroke:url(#linearGradient3883)"
     id="line275"
     y2="105.333"
     x2="109.381"
     y1="114.041"
     x1="26.490999" /><line
     style="fill:none;stroke:url(#linearGradient3867)"
     id="line277"
     y2="107.333"
     x2="109.381"
     y1="116.041"
     x1="26.490999" /><line
     style="fill:none;stroke:url(#linearGradient3857);stroke-linecap:round"
     id="line279"
     y2="109.333"
     x2="109.381"
     y1="118.041"
     x1="26.490999" /></g>
<path
   d="M 24.712,100.702 L 23.748,100.702 C 19.874,101.044 18.118,121.954 21.515,121.436 L 22.074,121.374 C 19.24,120.184 21.005,101.029 24.712,100.702 z"
   id="path104"
   style="fill:url(#XMLID_8_);filter:url(#filter3051)" /><g
   id="g4158"
   style="fill:#e20071"
   transform="translate(0,-1)">
	<g
   id="g4160"
   style="fill:#e20071">
		<linearGradient
   y2="90.542198"
   x2="111.5255"
   y1="116.3115"
   x1="70.734398"
   gradientUnits="userSpaceOnUse"
   id="linearGradient4162">
			<stop
   id="stop4164"
   style="stop-color:#8A2121"
   offset="0.3136" />
			<stop
   id="stop4166"
   style="stop-color:#8E2525"
   offset="0.4265" />
			<stop
   id="stop4168"
   style="stop-color:#9A3130"
   offset="0.5426" />
			<stop
   id="stop4170"
   style="stop-color:#AF4543"
   offset="0.6601" />
			<stop
   id="stop4172"
   style="stop-color:#CC605D"
   offset="0.7779" />
			<stop
   id="stop4174"
   style="stop-color:#D56966"
   offset="0.8107" />
			<stop
   id="stop4176"
   style="stop-color:#E29390"
   offset="1" />
		</linearGradient>
		
	</g>
</g></svg>