<?xml version="1.0" encoding="UTF-8" standalone="no"?>
<!-- Generator: Adobe Illustrator 15.0.0, SVG Export Plug-In . SVG Version: 6.00 Build 0)  -->

<svg
   xmlns:dc="http://purl.org/dc/elements/1.1/"
   xmlns:cc="http://creativecommons.org/ns#"
   xmlns:rdf="http://www.w3.org/1999/02/22-rdf-syntax-ns#"
   xmlns:svg="http://www.w3.org/2000/svg"
   xmlns="http://www.w3.org/2000/svg"
   xmlns:sodipodi="http://sodipodi.sourceforge.net/DTD/sodipodi-0.dtd"
   xmlns:inkscape="http://www.inkscape.org/namespaces/inkscape"
   version="1.1"
   id="Layer_1"
   x="0px"
   y="0px"
   width="148.905"
   height="201.16701"
   viewBox="0 0 148.90499 201.167"
   enable-background="new 0 0 595.28 841.89"
   xml:space="preserve"
   inkscape:version="0.47 r22583"
   sodipodi:docname="sync.svg"><metadata
   id="metadata16"><rdf:RDF><cc:Work
       rdf:about=""><dc:format>image/svg+xml</dc:format><dc:type
         rdf:resource="http://purl.org/dc/dcmitype/StillImage" /></cc:Work></rdf:RDF></metadata><defs
   id="defs14"><inkscape:perspective
     sodipodi:type="inkscape:persp3d"
     inkscape:vp_x="0 : 420.94501 : 1"
     inkscape:vp_y="0 : 1000 : 0"
     inkscape:vp_z="595.28003 : 420.94501 : 1"
     inkscape:persp3d-origin="297.64001 : 280.63 : 1"
     id="perspective18" /></defs><sodipodi:namedview
   pagecolor="#ffffff"
   bordercolor="#666666"
   borderopacity="1"
   objecttolerance="10"
   gridtolerance="10"
   guidetolerance="10"
   inkscape:pageopacity="0"
   inkscape:pageshadow="2"
   inkscape:window-width="640"
   inkscape:window-height="489"
   id="namedview12"
   showgrid="false"
   inkscape:zoom="0.28032165"
   inkscape:cx="74.307001"
   inkscape:cy="99.722002"
   inkscape:window-x="0"
   inkscape:window-y="41"
   inkscape:window-maximized="0"
   inkscape:current-layer="Layer_1" />
<path
   d="M 138.57699,3.2 H 10.328991 C 4.6249905,3.2 -9.4696599e-6,7.825 -9.4696599e-6,13.529 v 177.31 c 0,5.704 4.6249999696599,10.328 10.3290004696599,10.328 H 138.57699 c 5.703,0 10.328,-4.624 10.328,-10.328 V 13.529 c 0,-5.704 -4.625,-10.329 -10.328,-10.329 z M 74.452991,197.294 c -2.852,0 -5.164,-2.312 -5.164,-5.164 0,-2.854 2.312,-5.164 5.164,-5.164 2.853,0 5.165,2.311 5.165,5.164 0,2.851 -2.312,5.164 -5.165,5.164 z m 63.262999,-24.96 c 0,5.703 -4.625,10.327 -10.328,10.327 H 97.584991 V 127.35 h 12.149999 l -35.603999,-35.605 -35.605,35.605 h 12.15 v 55.312 h -29.157 c -5.704,0 -10.329,-4.624 -10.329,-10.327 V 24.288 c 0,-5.704 4.625,-10.329 10.329,-10.329 H 127.38799 c 5.703,0 10.328,4.625 10.328,10.329 v 148.046 z"
   id="path3"
   style="fill:#ffffff" />
<linearGradient
   id="SVGID_1_"
   gradientUnits="userSpaceOnUse"
   x1="297.78561"
   y1="320.3335"
   x2="297.78561"
   y2="517.78369"
   gradientTransform="translate(-223.33301,-319.5)">
	<stop
   offset="0"
   style="stop-color:#4990CD"
   id="stop6" />
	<stop
   offset="1"
   style="stop-color:#2F67B2"
   id="stop8" />
</linearGradient>
<path
   d="M 138.57699,0 H 10.328991 C 4.6249905,0 -9.4696599e-6,4.625 -9.4696599e-6,10.329 v 177.31 c 0,5.704 4.6249999696599,10.328 10.3290004696599,10.328 H 138.57699 c 5.703,0 10.328,-4.624 10.328,-10.328 V 10.329 C 148.90499,4.625 144.27999,0 138.57699,0 z M 74.452991,194.094 c -2.852,0 -5.164,-2.312 -5.164,-5.164 0,-2.854 2.312,-5.164 5.164,-5.164 2.853,0 5.165,2.311 5.165,5.164 0,2.851 -2.312,5.164 -5.165,5.164 z m 63.262999,-24.96 c 0,5.703 -4.625,10.327 -10.328,10.327 H 97.584991 v -55.312 h 12.149999 l -35.603999,-35.605 -35.605,35.605 h 12.15 v 55.312 h -29.157 c -5.704,0 -10.329,-4.624 -10.329,-10.327 V 21.088 c 0,-5.704 4.625,-10.329 10.329,-10.329 H 127.38799 c 5.703,0 10.328,4.625 10.328,10.329 v 148.046 z"
   id="path10"
   style="fill:url(#SVGID_1_)" />
</svg>