<svg xmlns="http://www.w3.org/2000/svg" viewBox="0 0 128 128" height="128" width="128"><g fill-rule="evenodd"><path d="M16.579 122.484v-107.685c.269-7.886 2.821-11.47 7.253-11.675l83.506-.158c2.766-.034 3.223 2.603 3.223 5.261l-.177 110.342c.201 4.009-3.089 3.994-3.089 3.994l-6.904.108c-.187 4.217-.269 4.387-3.224 4.267h-76.425c-3.906 0-4.164.2-4.164-4.455z" fill="#2fac66"/><path d="M22.295 13.15h73.626c5.749.098 5.128 2.683 5.171 9.678l.182 94.28c1.823.145 4.62-1.884 4.585-5.107l-.182-96.837c.151-6.452-1.337-6.452-4.3-6.717h-75.291c-2.867-.18-3.639.842-3.79 4.704z" fill="#fff"/></g></svg>