<?xml version="1.0" encoding="UTF-8" standalone="no"?>
<!-- Created with Inkscape (http://www.inkscape.org/) -->
<svg
   xmlns:svg="http://www.w3.org/2000/svg"
   xmlns="http://www.w3.org/2000/svg"
   xmlns:xlink="http://www.w3.org/1999/xlink"
   version="1.0"
   width="48"
   height="48"
   id="svg2454">
  <defs
     id="defs2456">
    <linearGradient
       id="linearGradient5048">
      <stop
         id="stop5050"
         style="stop-color:#000000;stop-opacity:0"
         offset="0" />
      <stop
         id="stop5056"
         style="stop-color:#000000;stop-opacity:1"
         offset="0.5" />
      <stop
         id="stop5052"
         style="stop-color:#000000;stop-opacity:0"
         offset="1" />
    </linearGradient>
    <linearGradient
       x1="302.85715"
       y1="366.64789"
       x2="302.85715"
       y2="609.50507"
       id="linearGradient3735"
       xlink:href="#linearGradient5048"
       gradientUnits="userSpaceOnUse"
       gradientTransform="matrix(6.732488e-2,0,0,1.470022e-2,-0.3411391,37.040146)" />
    <radialGradient
       cx="605.71429"
       cy="486.64789"
       r="117.14286"
       fx="605.71429"
       fy="486.64789"
       id="radialGradient3732"
       xlink:href="#linearGradient5060"
       gradientUnits="userSpaceOnUse"
       gradientTransform="matrix(-2.303994e-2,0,0,1.470022e-2,21.62311,37.040176)" />
    <linearGradient
       id="linearGradient5060">
      <stop
         id="stop5062"
         style="stop-color:#000000;stop-opacity:1"
         offset="0" />
      <stop
         id="stop5064"
         style="stop-color:#000000;stop-opacity:0"
         offset="1" />
    </linearGradient>
    <radialGradient
       cx="605.71429"
       cy="486.64789"
       r="117.14286"
       fx="605.71429"
       fy="486.64789"
       id="radialGradient3729"
       xlink:href="#linearGradient5060"
       gradientUnits="userSpaceOnUse"
       gradientTransform="matrix(2.303995e-2,0,0,1.470022e-2,26.360882,37.040176)" />
    <linearGradient
       id="linearGradient2508">
      <stop
         id="stop2510"
         style="stop-color:#2e4a5a;stop-opacity:1"
         offset="0" />
      <stop
         id="stop2512"
         style="stop-color:#6e8796;stop-opacity:1"
         offset="1" />
    </linearGradient>
    <linearGradient
       x1="-51.786404"
       y1="53.623615"
       x2="-51.786404"
       y2="2.9062471"
       id="linearGradient3726"
       xlink:href="#linearGradient2508"
       gradientUnits="userSpaceOnUse"
       gradientTransform="matrix(0.8074968,0,0,0.8948322,59.410232,-2.9805536)" />
    <linearGradient
       id="linearGradient2867-449-88-871-390-598-476-591-434-148-895-534-212-357-729">
      <stop
         id="stop8022"
         style="stop-color:#85c2cf;stop-opacity:1"
         offset="0" />
      <stop
         id="stop8024"
         style="stop-color:#74a4be;stop-opacity:1"
         offset="0.26238" />
      <stop
         id="stop8026"
         style="stop-color:#5177a0;stop-opacity:1"
         offset="0.704952" />
      <stop
         id="stop8028"
         style="stop-color:#2c5889;stop-opacity:1"
         offset="1" />
    </linearGradient>
    <radialGradient
       cx="14.239056"
       cy="11.49049"
       r="18.000002"
       fx="14.239056"
       fy="11.49049"
       id="radialGradient3724"
       xlink:href="#linearGradient2867-449-88-871-390-598-476-591-434-148-895-534-212-357-729"
       gradientUnits="userSpaceOnUse"
       gradientTransform="matrix(0,3.1785897,-5.2985257,0,74.190987,-39.503429)" />
    <linearGradient
       id="linearGradient4000">
      <stop
         id="stop4002"
         style="stop-color:#000000;stop-opacity:1"
         offset="0" />
      <stop
         id="stop4004"
         style="stop-color:#000000;stop-opacity:0"
         offset="1" />
    </linearGradient>
    <linearGradient
       x1="75.854454"
       y1="28"
       x2="91"
       y2="12"
       id="linearGradient2721"
       xlink:href="#linearGradient4000"
       gradientUnits="userSpaceOnUse"
       gradientTransform="matrix(1.1871658,0,0,0.9191539,-63.59695,5.0286452)"
       spreadMethod="reflect" />
    <linearGradient
       id="linearGradient5293">
      <stop
         id="stop5295"
         style="stop-color:#ffffff;stop-opacity:1"
         offset="0" />
      <stop
         id="stop5297"
         style="stop-color:#ffffff;stop-opacity:0"
         offset="1" />
    </linearGradient>
    <linearGradient
       x1="75.854454"
       y1="28"
       x2="91"
       y2="12"
       id="linearGradient2718"
       xlink:href="#linearGradient5293"
       gradientUnits="userSpaceOnUse"
       gradientTransform="matrix(1.1871658,0,0,0.9191539,-63.46794,3.9175341)"
       spreadMethod="reflect" />
    <radialGradient
       cx="102"
       cy="112.3047"
       r="139.55859"
       id="XMLID_8_"
       gradientUnits="userSpaceOnUse">
      <stop
         id="stop41"
         style="stop-color:#000000;stop-opacity:1"
         offset="0" />
      <stop
         id="stop47"
         style="stop-color:#000000;stop-opacity:1"
         offset="0.18851049" />
      <stop
         id="stop49"
         style="stop-color:#000000;stop-opacity:0"
         offset="0.25718147" />
      <stop
         id="stop51"
         style="stop-color:#000000;stop-opacity:0"
         offset="1" />
    </radialGradient>
    <radialGradient
       cx="102"
       cy="112.3047"
       r="139.55859"
       id="radialGradient3721"
       xlink:href="#XMLID_8_"
       gradientUnits="userSpaceOnUse"
       gradientTransform="matrix(0.3617022,0,0,-0.3907784,0.8510637,47.517004)" />
    <linearGradient
       id="linearGradient3759">
      <stop
         id="stop3761"
         style="stop-color:#000000;stop-opacity:1"
         offset="0" />
      <stop
         id="stop3763"
         style="stop-color:#000000;stop-opacity:0"
         offset="1" />
    </linearGradient>
    <linearGradient
       x1="26.188938"
       y1="30.4547"
       x2="44.250275"
       y2="16.134642"
       id="linearGradient3765"
       xlink:href="#linearGradient3759"
       gradientUnits="userSpaceOnUse"
       spreadMethod="reflect" />
    <linearGradient
       id="linearGradient8265-821-176-38-919-66-249">
      <stop
         id="stop2687"
         style="stop-color:#ffffff;stop-opacity:1"
         offset="0" />
      <stop
         id="stop2689"
         style="stop-color:#ffffff;stop-opacity:0"
         offset="1" />
    </linearGradient>
    <linearGradient
       x1="16.626165"
       y1="15.298182"
       x2="20.054544"
       y2="24.627615"
       id="linearGradient3718"
       xlink:href="#linearGradient8265-821-176-38-919-66-249"
       gradientUnits="userSpaceOnUse"
       gradientTransform="matrix(0.740136,0,0,1.3934396,6.236734,-7.3170934)" />
    <linearGradient
       id="linearGradient3211">
      <stop
         id="stop3213"
         style="stop-color:#ffffff;stop-opacity:1"
         offset="0" />
      <stop
         id="stop3215"
         style="stop-color:#ffffff;stop-opacity:0"
         offset="1" />
    </linearGradient>
    <linearGradient
       x1="24"
       y1="1.9999999"
       x2="24"
       y2="46.01725"
       id="linearGradient3715"
       xlink:href="#linearGradient3211"
       gradientUnits="userSpaceOnUse"
       gradientTransform="matrix(1,0,0,0.9777778,0,-0.9666696)" />
    <linearGradient
       id="linearGradient4267">
      <stop
         id="stop4269"
         style="stop-color:#c4c4c4;stop-opacity:1"
         offset="0" />
      <stop
         id="stop4271"
         style="stop-color:#c4c4c4;stop-opacity:0"
         offset="1" />
    </linearGradient>
    <linearGradient
       x1="35.516502"
       y1="4.8577352"
       x2="34.102982"
       y2="6.5436172"
       id="linearGradient3712"
       xlink:href="#linearGradient4267"
       gradientUnits="userSpaceOnUse" />
    <filter
       id="filter3212"
       color-interpolation-filters="sRGB"
       height="1.3286875"
       width="1.2969251"
       y="-0.16434373"
       x="-0.14846256">
      <feGaussianBlur
         id="feGaussianBlur3214"
         stdDeviation="0.77391625" />
    </filter>
    <linearGradient
       id="linearGradient8589">
      <stop
         id="stop8591"
         style="stop-color:#fefefe;stop-opacity:1"
         offset="0" />
      <stop
         id="stop8593"
         style="stop-color:#cbcbcb;stop-opacity:1"
         offset="1" />
    </linearGradient>
    <linearGradient
       x1="32.892288"
       y1="8.0590115"
       x2="36.358372"
       y2="5.4565363"
       id="linearGradient3708"
       xlink:href="#linearGradient8589"
       gradientUnits="userSpaceOnUse"
       gradientTransform="matrix(0.9976985,0,0,1.0406866,0.1638029,-1.1057942)" />
    <linearGradient
       id="linearGradient2508-790">
      <stop
         id="stop3686"
         style="stop-color:#294351;stop-opacity:1"
         offset="0" />
      <stop
         id="stop3688"
         style="stop-color:#637a87;stop-opacity:1"
         offset="1" />
    </linearGradient>
    <linearGradient
       x1="24.239185"
       y1="44.110138"
       x2="24.239185"
       y2="0.19081046"
       id="linearGradient3704"
       xlink:href="#linearGradient2508-790"
       gradientUnits="userSpaceOnUse"
       gradientTransform="scale(0.9901323,1.009966)" />
  </defs>
  <g
     id="layer1">
    <rect
       width="32.508301"
       height="3.5700529"
       x="7.7378473"
       y="42.429947"
       id="rect2879"
       style="opacity:0.3;fill:url(#linearGradient3735);fill-opacity:1;fill-rule:nonzero;stroke:none;stroke-width:1;marker:none;visibility:visible;display:inline;overflow:visible" />
    <path
       d="M 7.7378475,42.430102 C 7.7378475,42.430102 7.7378475,45.999958 7.7378475,45.999958 C 6.5513473,46.006658 4.869468,45.200135 4.869468,44.2148 C 4.869468,43.229467 6.1935126,42.430103 7.7378475,42.430102 L 7.7378475,42.430102 z"
       id="path2881"
       style="opacity:0.3;fill:url(#radialGradient3732);fill-opacity:1;fill-rule:nonzero;stroke:none;stroke-width:1;marker:none;visibility:visible;display:inline;overflow:visible" />
    <path
       d="M 40.246148,42.430102 C 40.246148,42.430102 40.246148,45.999958 40.246148,45.999958 C 41.432648,46.006658 43.114528,45.200135 43.114528,44.2148 C 43.114528,43.229467 41.790483,42.430103 40.246148,42.430102 z"
       id="path2883"
       style="opacity:0.3;fill:url(#radialGradient3729);fill-opacity:1;fill-rule:nonzero;stroke:none;stroke-width:1;marker:none;visibility:visible;display:inline;overflow:visible" />
    <path
       d="M 6.4999609,0.49719839 C 14.520256,0.49719839 22.540551,0.49719839 30.560847,0.49719839 C 31.086081,2.4573981 36.693941,7.3488012 41.500042,10.123605 C 41.500042,21.583338 41.500042,33.04307 41.500042,44.502803 C 29.833348,44.502803 18.166655,44.502803 6.4999609,44.502803 C 6.4999609,29.834268 6.4999609,15.165733 6.4999609,0.49719839 L 6.4999609,0.49719839 z"
       id="path4160"
       style="fill:url(#radialGradient3724);fill-opacity:1;stroke:url(#linearGradient3726);stroke-width:0.99992186;stroke-linecap:butt;stroke-linejoin:round;stroke-miterlimit:4;stroke-dasharray:none;stroke-dashoffset:0;stroke-opacity:1;display:inline" />
    <path
       d="M 18.912879,14 C 14.941321,19.117861 10.971558,24.242219 7,29.36008 C 7,34.571159 7,39.788922 7,45 C 16.433735,45 25.867403,45 35.301136,45 C 37.911168,41.636631 38.313471,41.123931 41,37.661986 C 41,32.936269 41,28.228706 41,23.48345 C 33.204587,20.134987 23.975066,16.174425 18.912879,14 z"
       id="path3743"
       style="opacity:0.1;fill:url(#linearGradient2721);fill-opacity:1;fill-rule:nonzero;stroke:none;stroke-width:0.91176528;stroke-linecap:butt;stroke-linejoin:miter;marker:none;marker-start:none;marker-mid:none;marker-end:none;stroke-miterlimit:4;stroke-dasharray:none;stroke-dashoffset:0;stroke-opacity:1;visibility:visible;display:inline;overflow:visible;enable-background:accumulate" />
    <path
       d="M 18.912879,13 C 14.941321,18.117861 10.971558,23.242219 7,28.36008 C 7,33.571159 7,38.788922 7,44 C 16.433735,44 25.867403,44 35.301136,44 C 37.911168,40.636631 38.313471,40.123931 41,36.661986 C 41,31.936269 41,27.228706 41,22.48345 C 33.204587,19.134987 23.975066,15.174425 18.912879,13 z"
       id="path3697"
       style="opacity:0.4;fill:url(#linearGradient2718);fill-opacity:1;fill-rule:nonzero;stroke:none;stroke-width:0.91176528;stroke-linecap:butt;stroke-linejoin:miter;marker:none;marker-start:none;marker-mid:none;marker-end:none;stroke-miterlimit:4;stroke-dasharray:none;stroke-dashoffset:0;stroke-opacity:1;visibility:visible;display:inline;overflow:visible;enable-background:accumulate" />
    <path
       d="M 7.3617017,44 C 7.1624047,44 6.9999997,43.824541 6.9999997,43.60922 L 6.9999997,1.4051698 C 6.9999997,1.189461 7.1624047,1.0143923 7.3617017,1.0143923 C 14.844793,1.122407 23.137385,0.85281719 30.611384,1.0412869 L 40.894021,9.907312 L 41,43.60922 C 41,43.824541 40.837957,44 40.638297,44 L 7.3617017,44 z"
       id="path4191"
       style="opacity:0.1;fill:url(#radialGradient3721);fill-opacity:1" />
    <path
       d="M 19.282773,18.262322 L 37.902319,26.544107 L 19.282773,18.262322 z M 17.298398,20.910212 L 38.949033,30.540195 L 17.298398,20.910212 z M 15.282773,23.599801 L 22.210976,26.681395 L 15.282773,23.599801 z M 13.298398,26.24769 L 34.949033,35.877673 L 13.298398,26.24769 z M 11.282773,28.937279 L 30.768345,37.604263 L 11.282773,28.937279 z M 9.2827733,31.606018 L 27.036294,39.502604 L 9.2827733,31.606018 z M 7.2983983,34.253908 L 28.516021,43.691291 L 7.2983983,34.253908 z"
       id="path3475"
       style="opacity:0.1;fill:none;fill-rule:evenodd;stroke:url(#linearGradient3765);stroke-width:0.99999994px;stroke-linecap:butt;stroke-linejoin:miter;stroke-opacity:1" />
    <path
       d="M 8.6190476,0.99999965 C 7.7247578,0.99999965 7,2.3644865 7,4.0481466 L 7,26.343182 C 7.0020508,26.530741 7.0457385,26.708109 7.1204567,26.832231 C 7.1951747,26.956353 7.2940924,27.01588 7.3931967,26.996355 L 40.699319,17.068097 C 40.870646,17.01723 40.997604,16.74143 41,16.414922 L 41,10.414639 C 41,10.414639 30.166292,0.99999965 30.166292,0.99999965 L 8.6190476,0.99999965 z"
       id="path2603"
       style="opacity:0.2;fill:url(#linearGradient3718);fill-opacity:1;fill-rule:evenodd;stroke:none;stroke-width:1.00213289;stroke-linecap:round;stroke-linejoin:round;stroke-miterlimit:4;stroke-dasharray:none;stroke-dashoffset:0;stroke-opacity:1" />
    <path
       d="M 40.500039,10.258811 C 40.500039,21.207848 40.500039,32.573221 40.500039,43.522258 C 29.500013,43.522258 18.499987,43.522258 7.4999609,43.522258 C 7.4999609,29.507417 7.4999609,15.492577 7.4999609,1.4777364 C 15.061954,1.4777364 22.804295,1.4777364 30.366289,1.4777364"
       id="path2435"
       style="opacity:0.4;fill:none;stroke:url(#linearGradient3715);stroke-width:0.9999218;stroke-linecap:butt;stroke-linejoin:round;stroke-miterlimit:4;stroke-dasharray:none;stroke-dashoffset:0;stroke-opacity:1;display:inline" />
    <path
       d="M 30.560847,0.49999969 C 31.96778,0.97465279 39.526301,6.3794031 41.500042,10.123605 C 41.500042,21.583338 41.500042,10.949143 41.500042,22.408876 C 1.0542159,38.137806 6.2643971,0.49999969 30.560847,0.49999969 z"
       id="path4238"
       style="fill:none;stroke:url(#linearGradient3712);stroke-width:0.99992186;stroke-linecap:butt;stroke-linejoin:round;stroke-miterlimit:4;stroke-dasharray:none;stroke-dashoffset:0;stroke-opacity:1;display:inline" />
    <path
       d="M 28.617256,0.92125799 C 32.899778,0.92125799 30.770506,9.404429 30.770506,9.404429 C 30.770506,9.404429 41.128148,7.6020826 41.128148,12.223174 C 41.128148,9.61345 29.825844,1.4945781 28.617256,0.92125799 L 28.617256,0.92125799 z"
       id="path12038"
       style="opacity:0.4;fill:#000000;fill-opacity:1;fill-rule:evenodd;stroke:none;display:inline;filter:url(#filter3212)" />
    <path
       d="M 28.617256,0.92125799 C 31.803749,0.92125799 30.953016,8.5831365 30.953016,8.5831365 C 30.953016,8.5831365 41.128148,7.6020826 41.128148,12.223174 C 41.128148,11.097235 41.214058,10.290929 40.994371,9.939581 C 39.416058,7.4154022 32.881194,1.7511808 30.41941,1.0087927 C 30.235188,0.95323799 29.544367,0.92125799 28.617256,0.92125799 z"
       id="path4474"
       style="fill:url(#linearGradient3708);fill-opacity:1;fill-rule:evenodd;stroke:none;display:inline" />
    <path
       d="M 32.807163,36 C 31.076219,36 29.345275,36 27.61433,36 C 26.660397,32.026917 25.634821,28.070226 24.73023,24.08585 C 24.44139,22.831007 24.137269,20.68373 23.967721,19.910063 C 23.415309,24.20959 22.213999,28.373778 21.230109,32.581489 C 20.953546,33.720992 20.676984,34.860496 20.400422,36 C 18.664559,36 16.928697,36 15.192835,36 C 13.46189,28.666666 11.730945,21.333332 10.000001,13.999999 C 11.499824,13.999999 12.999649,13.999999 14.499473,13.999999 C 15.702214,20.042836 17.061924,26.05565 18.010537,32.147742 C 18.412772,29.270776 18.919145,26.408882 19.660572,23.601424 C 20.438274,20.400949 21.215976,17.200473 21.993678,13.999999 C 23.331225,13.999999 24.668773,13.999999 26.006321,13.999999 C 27.027471,18.244597 28.087667,22.480197 29.084024,26.730511 C 29.438636,28.527379 29.720267,30.338198 30.004214,32.147742 C 30.899062,26.157507 32.263019,20.255699 33.435583,14.318447 C 33.410917,13.741547 34.130171,14.09756 34.487738,13.999999 C 35.658491,13.999999 36.829245,13.999999 37.999998,13.999999 C 36.269053,21.333332 34.538109,28.666666 32.807163,36 z"
       id="text2616"
       style="font-size:30.51395607px;font-style:normal;font-variant:normal;font-weight:bold;font-stretch:normal;opacity:0.4;fill:#ffffff;fill-opacity:1;stroke:none;stroke-width:1px;stroke-linecap:butt;stroke-linejoin:miter;stroke-opacity:1;font-family:Droid Sans;-inkscape-font-specification:Droid Sans Bold" />
    <path
       d="M 32.807163,35.000001 C 31.076219,35.000001 29.345275,35.000001 27.61433,35.000001 C 26.660397,31.026918 25.634821,27.070227 24.73023,23.08585 C 24.44139,21.831008 24.137269,19.68373 23.967721,18.910064 C 23.415309,23.20959 22.213999,27.373779 21.230109,31.58149 C 20.953546,32.720994 20.676984,33.860497 20.400422,35.000001 C 18.664559,35.000001 16.928697,35.000001 15.192835,35.000001 C 13.46189,27.666667 11.730945,20.333333 10.000001,13 C 11.499824,13 12.999649,13 14.499473,13 C 15.702214,19.042836 17.061924,25.055651 18.010537,31.147743 C 18.412772,28.270776 18.919145,25.408882 19.660572,22.601424 C 20.438274,19.40095 21.215976,16.200475 21.993678,13 C 23.331225,13 24.668773,13 26.006321,13 C 27.027471,17.244599 28.087667,21.480198 29.084024,25.730512 C 29.438636,27.52738 29.720267,29.338199 30.004214,31.147743 C 30.899062,25.157509 32.263019,19.2557 33.435583,13.318448 C 33.410917,12.741547 34.130171,13.097561 34.487738,13 C 35.658491,13 36.829245,13 37.999998,13 C 36.269053,20.333333 34.538109,27.666667 32.807163,35.000001 z"
       id="text2612"
       style="font-size:30.51395607px;font-style:normal;font-variant:normal;font-weight:bold;font-stretch:normal;fill:url(#linearGradient3704);fill-opacity:1;stroke:none;stroke-width:1px;stroke-linecap:butt;stroke-linejoin:miter;stroke-opacity:1;font-family:Droid Sans;-inkscape-font-specification:Droid Sans Bold" />
  </g>
</svg>
