<svg xmlns="http://www.w3.org/2000/svg" xmlns:xlink="http://www.w3.org/1999/xlink" width="128" height="128" version="1"><defs><radialGradient id="a" cx="305.027" cy="-349" r="34.178" gradientTransform="matrix(1.166 0 0 -1 -353.776 -376.987)" gradientUnits="userSpaceOnUse"><stop offset="0" stop-color="#4b73ad"/><stop offset="1" stop-color="#80B3FF"/></radialGradient><radialGradient xlink:href="#a" id="k" gradientUnits="userSpaceOnUse" gradientTransform="matrix(1.091 0 0 -1 -273.567 -316.5)" cx="312.723" cy="-349" r="34.178" fx="312.723" fy="-349"/><radialGradient id="b" cx="354.852" cy="-426" r="34.179" gradientTransform="matrix(1 0 0 -1 -359.207 -378.987)" gradientUnits="userSpaceOnUse"><stop offset="0" stop-color="#538BCF"/><stop offset="1" stop-color="#80B3FF"/></radialGradient><radialGradient xlink:href="#b" id="j" gradientUnits="userSpaceOnUse" gradientTransform="matrix(1 0 0 -1 -290.467 -322.5)" cx="354.852" cy="-426" r="34.179"/><radialGradient id="c" cx="354.852" cy="-426" r="34.179" gradientTransform="matrix(1 0 0 -1 -359.207 -376.987)" gradientUnits="userSpaceOnUse"><stop offset="0" stop-color="#538BCF"/><stop offset="1" stop-color="#80B3FF"/></radialGradient><radialGradient xlink:href="#c" id="i" gradientUnits="userSpaceOnUse" gradientTransform="matrix(1 0 0 -1 -290.467 -320.5)" cx="354.852" cy="-426" r="34.179"/><linearGradient id="d" gradientUnits="userSpaceOnUse" x1="354.685" y1="-601.276" x2="354.685" y2="-503.146" gradientTransform="matrix(1 0 0 -.652 -359.426 -340.638)"><stop offset="0" stop-color="#B3D9FF"/><stop offset=".486" stop-color="#71A8F5"/><stop offset=".799" stop-color="#2C72C7"/><stop offset=".98" stop-color="#2C72C7"/><stop offset="1" stop-color="#DEEBFF"/></linearGradient><linearGradient xlink:href="#d" id="h" gradientUnits="userSpaceOnUse" gradientTransform="matrix(1 0 0 -.652 -290.685 -284.151)" x1="354.685" y1="-601.276" x2="354.685" y2="-503.146"/><linearGradient id="e" gradientUnits="userSpaceOnUse" x1="63.499" y1="-79.239" x2="63.499" y2="9.327" gradientTransform="translate(-68.241 44.013)"><stop offset="0" stop-color="#73A3E7"/><stop offset=".139" stop-color="#83B1F5"/><stop offset=".369" stop-color="#BCD6FC"/><stop offset=".501" stop-color="#659FEE"/><stop offset="1" stop-color="#06f"/></linearGradient><linearGradient xlink:href="#e" id="g" gradientUnits="userSpaceOnUse" gradientTransform="translate(.5 100.5)" x1="63.499" y1="-79.239" x2="63.499" y2="9.327"/><filter x="-.025" width="1.051" y="-.461" height="1.922" id="f"><feGaussianBlur stdDeviation="1.181"/></filter></defs><path d="M120 107.084c0 1.357-25.072 4.916-56 4.916s-56-3.559-56-4.916c0-1.357 25.072-1.229 56-1.229 30.927 0 56-.128 56 1.229z" enable-background="new" opacity=".5" filter="url(#f)"/><path d="M108 26c0-1.1-.9-2-2-2h-84c-1.1 0-2 .9-2 2 0 0 .125 82-8 82h104c-8.125 0-8-82-8-82z" fill="url(#g)"/><path d="M116 108h-104c0-27.75-7.954-62.047-7.954-62.047-.239-1.074.472-1.953 1.579-1.953h116.749c1.108 0 1.818.879 1.58 1.953 0 0-7.954 34.297-7.954 62.047z" enable-background="new" opacity=".8" fill="url(#h)"/><path d="M16.552 105c-.276 0-.5.225-.5.5s.224.5.5.5h95.667c.276 0 .5-.225.5-.5s-.224-.5-.5-.5h-95.667z" enable-background="new" opacity=".2" fill="url(#i)"/><path d="M16.552 103c-.276 0-.5.225-.5.5s.224.5.5.5h95.667c.276 0 .5-.225.5-.5s-.224-.5-.5-.5h-95.667z" enable-background="new" opacity=".2" fill="url(#j)"/><path d="M32.332 32c-.184 0-.331.224-.331.5s.147.5.331.5h63.337c.183 0 .331-.224.331-.5s-.15-.5-.331-.5h-63.337z" enable-background="new" opacity=".2" fill="url(#k)"/><path d="M22.01 24c-1.1 0-1.958.901-1.906 2 0 0 .07 2.543.188 6h19.718l8-8h-26z" enable-background="new" opacity=".4" fill="#fff"/></svg>