<svg xmlns="http://www.w3.org/2000/svg" xmlns:cc="http://web.resource.org/cc/" xmlns:svg="http://www.w3.org/2000/svg" xmlns:xlink="http://www.w3.org/1999/xlink" id="svg2196" width="128" height="128" version="1.0"><defs id="defs2198"><radialGradient id="path2489_1_" cx="305.027" cy="-349" r="34.178" gradientTransform="matrix(1.1658,0,0,-1,-353.77589,-376.98677)" gradientUnits="userSpaceOnUse"><stop style="stop-color:#4b73ad;stop-opacity:1" id="stop44" offset="0"/><stop style="stop-color:#80b3ff" id="stop46" offset="1"/></radialGradient><radialGradient id="radialGradient2421" cx="312.723" cy="-349" r="34.178" fx="312.723" fy="-349" gradientTransform="matrix(1.0909626,0,0,-1,-273.56664,-316.5)" gradientUnits="userSpaceOnUse" xlink:href="#path2489_1_"/><radialGradient id="path4248_1_" cx="354.852" cy="-426" r="34.179" gradientTransform="matrix(1,0,0,-1,-359.20739,-378.98677)" gradientUnits="userSpaceOnUse"><stop style="stop-color:#538bcf" id="stop38" offset="0"/><stop style="stop-color:#80b3ff" id="stop40" offset="1"/></radialGradient><radialGradient id="radialGradient2424" cx="354.852" cy="-426" r="34.179" gradientTransform="matrix(1,0,0,-1,-290.46665,-322.5)" gradientUnits="userSpaceOnUse" xlink:href="#path4248_1_"/><radialGradient id="path2471_1_" cx="354.852" cy="-426" r="34.179" gradientTransform="matrix(1,0,0,-1,-359.20739,-376.98677)" gradientUnits="userSpaceOnUse"><stop style="stop-color:#538bcf" id="stop32" offset="0"/><stop style="stop-color:#80b3ff" id="stop34" offset="1"/></radialGradient><radialGradient id="radialGradient2427" cx="354.852" cy="-426" r="34.179" gradientTransform="matrix(1,0,0,-1,-290.46665,-320.5)" gradientUnits="userSpaceOnUse" xlink:href="#path2471_1_"/><linearGradient id="front_1_" x1="354.685" x2="354.685" y1="-601.276" y2="-503.146" gradientTransform="matrix(1,0,0,-0.6522,-359.42609,-340.63827)" gradientUnits="userSpaceOnUse"><stop style="stop-color:#b3d9ff" id="stop20" offset="0"/><stop style="stop-color:#71a8f5" id="stop22" offset=".486"/><stop style="stop-color:#2c72c7" id="stop24" offset=".799"/><stop style="stop-color:#2c72c7" id="stop26" offset=".98"/><stop style="stop-color:#deebff" id="stop28" offset="1"/></linearGradient><linearGradient id="linearGradient2430" x1="354.685" x2="354.685" y1="-601.276" y2="-503.146" gradientTransform="matrix(1,0,0,-0.6522,-290.68535,-284.1515)" gradientUnits="userSpaceOnUse" xlink:href="#front_1_"/><linearGradient id="XMLID_1_" x1="63.499" x2="63.499" y1="-79.239" y2="9.327" gradientTransform="translate(-68.240592,44.013228)" gradientUnits="userSpaceOnUse"><stop style="stop-color:#73a3e7" id="stop6" offset="0"/><stop style="stop-color:#83b1f5" id="stop8" offset=".139"/><stop style="stop-color:#bcd6fc" id="stop10" offset=".369"/><stop style="stop-color:#659fee" id="stop12" offset=".501"/><stop style="stop-color:#06f" id="stop14" offset="1"/></linearGradient><linearGradient id="linearGradient2433" x1="63.499" x2="63.499" y1="-79.239" y2="9.327" gradientTransform="translate(0.500149,100.5)" gradientUnits="userSpaceOnUse" xlink:href="#XMLID_1_"/><filter id="filter3021" width="1.051" height="1.922" x="-.025" y="-.461"><feGaussianBlur id="feGaussianBlur3023" stdDeviation="1.181"/></filter></defs><metadata id="metadata2201"/><g id="layer1"><g id="g2866" transform="translate(1.147243e-4,0)"><path style="opacity:.5;filter:url(#filter3021)" id="shadow" d="M 120,107.084 C 120,108.441 94.928,112 64.000001,112 C 33.072,112 8,108.441 8,107.084 C 8,105.727 33.072,105.855 64.000001,105.855 C 94.927,105.855 120,105.727 120,107.084 z" enable-background="new"/><path style="fill:url(#linearGradient2433)" id="path16" d="M 108.00015,26 C 108.00015,24.9 107.10015,24 106.00015,24 L 22.000149,24 C 20.900149,24 20.000149,24.9 20.000149,26 C 20.000149,26 20.125149,108 12.000149,108 C 15.396149,108 112.60415,108 116.00015,108 C 107.87515,108 108.00015,26 108.00015,26 z"/><path style="opacity:.8;fill:url(#linearGradient2430)" id="front" d="M 116.00015,108 L 12.000149,108 C 12.000149,80.25 4.046149,45.953 4.046149,45.953 C 3.807149,44.879 4.518149,44 5.625149,44 L 122.37415,44 C 123.48215,44 124.19215,44.879 123.95415,45.953 C 123.95415,45.953 116.00015,80.25 116.00015,108 z" enable-background="new"/><path style="opacity:.2;fill:url(#radialGradient2427)" id="path2471" d="M 16.552149,105 C 16.276149,105 16.052149,105.225 16.052149,105.5 C 16.052149,105.775 16.276149,106 16.552149,106 L 112.21915,106 C 112.49515,106 112.71915,105.775 112.71915,105.5 C 112.71915,105.225 112.49515,105 112.21915,105 L 16.552149,105 z" enable-background="new"/><path style="opacity:.2;fill:url(#radialGradient2424)" id="path4248" d="M 16.552149,103 C 16.276149,103 16.052149,103.225 16.052149,103.5 C 16.052149,103.775 16.276149,104 16.552149,104 L 112.21915,104 C 112.49515,104 112.71915,103.775 112.71915,103.5 C 112.71915,103.225 112.49515,103 112.21915,103 L 16.552149,103 z" enable-background="new"/><path style="opacity:.2;fill:url(#radialGradient2421)" id="path2489" d="M 32.331428,32 C 32.147429,32 32,32.224 32,32.5 C 32,32.776 32.147429,33 32.331428,33 L 95.66856,33 C 95.85144,33 96,32.776 96,32.5 C 96,32.224 95.85029,32 95.66856,32 L 32.331428,32 z" enable-background="new"/><path style="opacity:.4;fill:#fff" id="back" d="M 22.010149,24 C 20.910149,24 20.052149,24.901 20.104149,26 C 20.104149,26 20.174149,28.543 20.292149,32 L 40.010149,32 L 48.010149,24 L 22.010149,24 z" enable-background="new"/></g></g></svg>