<svg xmlns="http://www.w3.org/2000/svg" xmlns:svg="http://www.w3.org/2000/svg" xmlns:xlink="http://www.w3.org/1999/xlink" id="svg2606" width="128" height="128" version="1.0"><defs id="defs2608"><linearGradient id="linearGradient10207"><stop style="stop-color:#a2a2a2;stop-opacity:1" id="stop10209" offset="0"/><stop style="stop-color:#fff;stop-opacity:1" id="stop10211" offset="1"/></linearGradient><linearGradient id="XMLID_12_" x1="96" x2="88" y1="104" y2="96" gradientUnits="userSpaceOnUse"><stop style="stop-color:#888a85;stop-opacity:1" id="stop83" offset="0"/><stop style="stop-color:#8c8e89;stop-opacity:1" id="stop85" offset=".007"/><stop style="stop-color:#abaca9;stop-opacity:1" id="stop87" offset=".067"/><stop style="stop-color:#c5c6c4;stop-opacity:1" id="stop89" offset=".135"/><stop style="stop-color:#dbdbda;stop-opacity:1" id="stop91" offset=".265"/><stop style="stop-color:#ebebeb;stop-opacity:1" id="stop93" offset=".376"/><stop style="stop-color:#f7f7f6;stop-opacity:1" id="stop95" offset=".487"/><stop style="stop-color:#fdfdfd;stop-opacity:1" id="stop97" offset=".632"/><stop style="stop-color:#fff;stop-opacity:1" id="stop99" offset="1"/></linearGradient><radialGradient id="XMLID_8_" cx="102" cy="112.305" r="139.559" gradientUnits="userSpaceOnUse"><stop style="stop-color:#b7b8b9;stop-opacity:1" id="stop41" offset="0"/><stop style="stop-color:#ececec;stop-opacity:1" id="stop47" offset=".189"/><stop style="stop-color:#fafafa;stop-opacity:1" id="stop49" offset=".257"/><stop style="stop-color:#fff;stop-opacity:1" id="stop51" offset=".301"/><stop style="stop-color:#fafafa;stop-opacity:1" id="stop53" offset=".531"/><stop style="stop-color:#ebecec;stop-opacity:1" id="stop55" offset=".845"/><stop style="stop-color:#e1e2e3;stop-opacity:1" id="stop57" offset="1"/></radialGradient><filter id="filter6697" width="1.384" height="1.384" x="-.192" y="-.192" color-interpolation-filters="sRGB"><feGaussianBlur id="feGaussianBlur6699" stdDeviation="1.945"/></filter><clipPath id="clipPath7084"><path style="fill:#000;fill-opacity:1;fill-rule:evenodd;stroke:none" id="path7086" d="m 72,88 -32,32 -8,0 0,-40 40,0 0,8 z"/></clipPath><radialGradient id="radialGradient9437" cx="102" cy="112.305" r="139.559" gradientTransform="matrix(1,0,0,0.9996653,2e-6,0.00301608)" gradientUnits="userSpaceOnUse" xlink:href="#XMLID_8_"/><linearGradient id="linearGradient10213" x1="98.617" x2="91.229" y1="106.414" y2="99.255" gradientUnits="userSpaceOnUse" xlink:href="#linearGradient10207"/><filter id="filter2770" color-interpolation-filters="sRGB"><feGaussianBlur id="feGaussianBlur2772" stdDeviation="2.079"/></filter><linearGradient id="linearGradient2774" x1="45.034" x2="11.675" y1="44.966" y2="1.461" gradientTransform="matrix(1.0115079,0,0,1.0161106,5.5234761,9.1336546)" gradientUnits="userSpaceOnUse" xlink:href="#linearGradient2545"/><linearGradient id="linearGradient2756" x1="25.554" x2="0" y1="34.006" y2="34.153" gradientTransform="matrix(1.0237894,0,0,1.0414051,4.9857129,9.0513362)" gradientUnits="userSpaceOnUse" xlink:href="#linearGradient11545"/><linearGradient id="linearGradient2749" x1="40.864" x2="33.136" y1="40.518" y2="32.652" gradientTransform="matrix(1.0237894,0,0,1.0414051,4.9857129,9.0513362)" gradientUnits="userSpaceOnUse" xlink:href="#linearGradient11663"/><linearGradient id="linearGradient2543" x1="45.034" x2="11.675" y1="44.966" y2="1.461" gradientTransform="matrix(0.9880039,0,0,0.9757112,0.5252674,0.07904551)" gradientUnits="userSpaceOnUse" xlink:href="#linearGradient2545"/><linearGradient id="linearGradient2545"><stop style="stop-color:#342679;stop-opacity:1" id="stop2547" offset="0"/><stop style="stop-color:#7b51ae;stop-opacity:.96862745" id="stop2553" offset=".722"/><stop style="stop-color:#d9cce8;stop-opacity:.96862745" id="stop2549" offset="1"/></linearGradient><linearGradient id="linearGradient11653" x1="25.554" x2="0" y1="34.006" y2="34.153" gradientTransform="matrix(0.4601868,0,0,0.9728475,2.2307835,28.622031)" gradientUnits="userSpaceOnUse" xlink:href="#linearGradient11545"/><linearGradient id="linearGradient11545"><stop style="stop-color:#f89c11;stop-opacity:1" id="stop11547" offset="0"/><stop style="stop-color:#fabf60;stop-opacity:1" id="stop11549" offset="1"/></linearGradient><clipPath id="clip7"><path id="path25" d="m 10.84375,39.414062 -10.84375,0 0,-10.953124 10.84375,0 0,-28.45703175 35.542969,0 0,32.73437475 -13.058594,13.058594 -22.484375,0 0,-6.382813"/></clipPath><clipPath id="clip32"><path id="path100" d="m 10.84375,39.414062 -10.84375,0 0,-10.953124 10.84375,0 0,-28.45703175 35.542969,0 0,32.73437475 -13.058594,13.058594 -22.484375,0 0,-6.382813"/></clipPath><clipPath id="clip48"><path id="path148" d="m 10.84375,39.414062 -10.84375,0 0,-10.953124 10.84375,0 0,-28.45703175 35.542969,0 0,32.73437475 -13.058594,13.058594 -22.484375,0 0,-6.382813"/></clipPath><linearGradient id="linearGradient2525" x1="25.554" x2="0" y1="34.006" y2="34.153" gradientUnits="userSpaceOnUse" xlink:href="#linearGradient11545"/><linearGradient id="linearGradient2518" x1="40.864" x2="33.136" y1="40.518" y2="32.652" gradientUnits="userSpaceOnUse" xlink:href="#linearGradient11663"/><linearGradient id="linearGradient11663"><stop style="stop-color:#342679;stop-opacity:1" id="stop11665" offset="0"/><stop style="stop-color:#dacfe4;stop-opacity:1" id="stop11667" offset="1"/></linearGradient></defs><metadata id="metadata2611"/><g id="layer1"><path style="opacity:.5;fill:#000;fill-opacity:1;filter:url(#filter2770)" id="path7865" d="m 16,8 0,112 c 0,0 63.15625,0 63.15625,0 l 0.03125,0 c 3e-6,0 11.90625,-9.90625 17.40625,-15.40625 C 102.09375,99.09375 112,87.1875 112,87.1875 L 112,87.15625 112,8 16,8 z" transform="matrix(1.0416667,0,0,1.0267857,-2.6666667,-1.2142891)"/><path style="fill:#fff;fill-opacity:1" id="path34" d="M 16.000001,8 16,120 c 0,0 63.146418,0 63.146418,0 L 112,87.14642 112,8 16.000001,8 z"/><path style="fill:url(#radialGradient9437);fill-opacity:1" id="path59" d="m 18.000002,9.0000034 c -0.551,0 -1,0.44885 -1,0.999665 l 0,107.9638516 c 0,0.55181 0.449,0.99966 1,0.99966 l 59.171997,0 c 0.263,0 2.76268,0.11813 2.948681,-0.0688 L 110.707,88.094202 C 110.894,87.907264 111,85.40942 111,85.146508 l 0,-75.1468396 c 0,-0.550815 -0.448,-0.999665 -1,-0.999665 l -91.999998,0 z"/><path style="opacity:.4;fill:#000;fill-opacity:1;filter:url(#filter6697)" id="path5540" d="m 41.879531,115.98249 c 0,0 24.309609,-24.309614 24.309609,-24.309614 0,0 -9.35314,2.913124 -19.60314,2.913124 0,10.25 -4.706469,21.39649 -4.706469,21.39649 z" clip-path="url(#clipPath7084)" transform="translate(40,0)"/><path style="fill:url(#linearGradient10213);fill-opacity:1" id="path14523" d="m 79.172,120 c 0,0 11.914,-9.914 17.414,-15.414 5.5,-5.5 15.414,-17.414 15.414,-17.414 0,0 -13.75,8.828 -24,8.828 0,10.25 -8.828,24 -8.828,24 z"/><g id="layer1-2" transform="matrix(2.6666667,0,0,2.6666667,-26.364309,-16.219923)"><g id="g2454" transform="matrix(1.000026,0,0,0.9968473,-1.2968723e-4,0.405534)"><g id="g11649" transform="matrix(1.0237894,0,0,1.0414051,9.6816161,-27.57005)"><rect style="fill:#000;fill-opacity:1" id="rect11645" width="11.895" height="11.569" x="3.13" y="57.056" ry="0" transform="matrix(0.9396926,-0.3420201,0.3420201,0.9396926,0,0)"/><rect style="fill:url(#linearGradient11653);fill-opacity:1" id="rect11641" width="11.895" height="11.569" x="2.231" y="56.063" ry="0" transform="matrix(0.9396926,-0.3420201,0.3420201,0.9396926,0,0)"/></g><g style="fill:#816392;fill-opacity:.86179516" id="g11677" transform="matrix(1.0237894,0,0,1.0414051,0.779179,8.770206)"><g style="fill:#816392;fill-opacity:.86179516" id="g11679" clip-path="url(#clip32)" transform="translate(4.2261802,1.3274155)"><path style="fill:#816392;fill-opacity:.86179516;fill-rule:nonzero;stroke:none" id="path11681" d="m 26.128906,23.296875 c 2.015625,1.242187 4.480469,1.78125 6.523438,0.195313 1.574218,-1.210938 1.84375,-3.335938 1.324218,-5.414063 -0.917968,-3.585937 -4.5625,-7.527344 -4.5625,-7.527344 L 18.972656,-2.15625 c 0,0 -0.136718,-0.171875 -0.433594,-0.261719 -0.414062,-0.117187 -1.035156,0.261719 -0.683593,1.027344 l 10.910156,13.445313 c 0,0 3.265625,3.304687 3.886719,6.472656 0.296875,1.484375 0.214844,2.960937 -0.917969,3.871094 C 30.214844,23.621094 28.289062,22.9375 26.605469,21.863281 24.34375,20.417969 22.429688,18.09375 22.429688,18.09375 L 7.777344,0.679688 7.613281,2.613281 21.472656,19.136719 c 0,0 2.082032,2.566406 4.65625,4.160156"/></g><g style="fill:#816392;fill-opacity:.86179516" id="g11683" clip-path="url(#clip48)" transform="translate(4.2261807,1.4535628)"><path style="fill:#816392;fill-opacity:.86179516;fill-rule:nonzero;stroke:none" id="path11685" d="m 28.304688,15.984375 c 2.003906,2.550781 0.160156,3.707031 -1.125,3.027344 -1.875,-1 -4.425782,-4.386719 -4.425782,-4.386719 L 15.613281,6.003906 C 15.070312,5.257812 14.429688,5.644531 14.296875,6.09375 c -0.09766,0.347656 0.238281,0.683594 0.238281,0.683594 l 7.191406,8.703125 c 0,0 2.207032,2.601562 3.398438,3.738281 3.5,3.367188 7.761719,0.152344 4.050781,-4.558594 C 27.074219,12 23.867188,8.175781 23.867188,8.175781 L 13.371094,-4.707031 11.859375,-4.839844 11.789062,-4.050781 22.511719,8.71875 c 0,0 3.636719,4.523438 5.792969,7.265625"/></g></g><g id="g11671" transform="matrix(1.0237894,0,0,1.0414051,0.659598,7.725718)"><g id="g3875" clip-path="url(#clip32)" transform="translate(4.2261802,1.3274155)"><path style="fill:#fff;fill-opacity:1;fill-rule:nonzero;stroke:none" id="path3877" d="m 26.128906,23.296875 c 2.015625,1.242187 4.480469,1.78125 6.523438,0.195313 1.574218,-1.210938 1.84375,-3.335938 1.324218,-5.414063 -0.917968,-3.585937 -4.5625,-7.527344 -4.5625,-7.527344 L 18.972656,-2.15625 c 0,0 -0.136718,-0.171875 -0.433594,-0.261719 -0.414062,-0.117187 -1.035156,0.261719 -0.683593,1.027344 l 10.910156,13.445313 c 0,0 3.265625,3.304687 3.886719,6.472656 0.296875,1.484375 0.214844,2.960937 -0.917969,3.871094 C 30.214844,23.621094 28.289062,22.9375 26.605469,21.863281 24.34375,20.417969 22.429688,18.09375 22.429688,18.09375 L 7.777344,0.679688 7.613281,2.613281 21.472656,19.136719 c 0,0 2.082032,2.566406 4.65625,4.160156"/></g><g id="g6171" clip-path="url(#clip48)" transform="translate(4.2261807,1.4535628)"><path style="fill:#fff;fill-opacity:1;fill-rule:nonzero;stroke:none" id="path6173" d="m 28.304688,15.984375 c 2.003906,2.550781 0.160156,3.707031 -1.125,3.027344 -1.875,-1 -4.425782,-4.386719 -4.425782,-4.386719 L 15.613281,6.003906 C 15.070312,5.257812 14.429688,5.644531 14.296875,6.09375 c -0.09766,0.347656 0.238281,0.683594 0.238281,0.683594 l 7.191406,8.703125 c 0,0 2.207032,2.601562 3.398438,3.738281 3.5,3.367188 7.761719,0.152344 4.050781,-4.558594 C 27.074219,12 23.867188,8.175781 23.867188,8.175781 L 13.371094,-4.707031 11.859375,-4.839844 11.789062,-4.050781 22.511719,8.71875 c 0,0 3.636719,4.523438 5.792969,7.265625"/></g></g></g></g><g id="g8370" transform="matrix(0.10181328,0,0,0.10181328,23.503861,90.420112)"><path style="fill-rule:evenodd" id="path8372" d="m 20.795,23.442 c 41.244,-1.555 81.688,-2.171 104.79,17.582 10.619,27.832 15.009,83.404 4.99,117.209 -18.421,31.11 -62.996,31.504 -109.78,29.303 0,-54.699 0,-109.396 0,-164.094 z m 34.93,134.79 c 11.643,0 23.287,0 34.93,0 16.604,-30.859 22.254,-125.032 -34.93,-105.488 0,35.163 0,70.326 0,105.488 z"/><path style="fill-rule:evenodd" id="path8374" d="m 165.505,23.442 c 33.267,0 66.533,0 99.8,0 7.251,46.182 16.995,89.436 34.931,123.07 14.479,-35.739 17.123,-85.377 29.939,-123.07 11.644,0 23.287,0 34.93,0 -12.062,58.113 -35.35,103.042 -44.909,164.093 -14.971,0 -29.94,0 -44.91,0 -9.471,-49.436 -28.165,-88.039 -39.92,-134.791 -23.287,0 -46.573,0 -69.86,0 -0.001,-9.767 -0.001,-19.535 -0.001,-29.302 z"/><path style="fill-rule:evenodd" id="path8376" d="m 385.065,76.186 c 12.301,-0.773 24.042,-0.888 29.939,5.86 -2.146,26.978 -3.585,49.781 4.99,76.186 45.408,12.307 33.898,-42.234 34.93,-82.046 9.98,0 19.96,0 29.94,0 0,37.116 0,74.232 0,111.349 -22.437,6.814 -26.368,-8.103 -29.94,-23.442 -14.933,22.293 -52.771,32.37 -69.859,5.86 0,-31.255 0,-62.511 0,-93.767 z"/><path style="fill-rule:evenodd" id="path8378" d="m 165.505,87.907 c 9.98,0 19.96,0 29.94,0 -2.328,48.057 6.913,109.699 -9.98,140.651 -23.857,2.642 -21.052,2.642 -44.91,0 24.686,-27.659 29.399,-78.774 24.95,-140.651 z"/></g></g></svg>