<svg xmlns="http://www.w3.org/2000/svg" xmlns:xlink="http://www.w3.org/1999/xlink" version="1" width="128" height="128"><defs><linearGradient id="b"><stop offset="0" stop-color="#a2a2a2"/><stop offset="1" stop-color="#fff"/></linearGradient><linearGradient x1="96" y1="104" x2="88" y2="96" gradientUnits="userSpaceOnUse"><stop offset="0" stop-color="#888a85"/><stop offset=".007" stop-color="#8c8e89"/><stop offset=".067" stop-color="#abaca9"/><stop offset=".135" stop-color="#c5c6c4"/><stop offset=".265" stop-color="#dbdbda"/><stop offset=".376" stop-color="#ebebeb"/><stop offset=".487" stop-color="#f7f7f6"/><stop offset=".632" stop-color="#fdfdfd"/><stop offset="1" stop-color="#fff"/></linearGradient><radialGradient cx="102" cy="112.305" r="139.559" id="a" gradientUnits="userSpaceOnUse"><stop offset="0" stop-color="#b7b8b9"/><stop offset=".189" stop-color="#ececec"/><stop offset=".257" stop-color="#fafafa"/><stop offset=".301" stop-color="#fff"/><stop offset=".531" stop-color="#fafafa"/><stop offset=".845" stop-color="#ebecec"/><stop offset="1" stop-color="#e1e2e3"/></radialGradient><filter x="-.192" y="-.192" width="1.384" height="1.384" color-interpolation-filters="sRGB" id="i"><feGaussianBlur stdDeviation="1.945"/></filter><clipPath id="h"><path d="M72 88l-32 32h-8v-40h40v8z" fill-rule="evenodd"/></clipPath><radialGradient cx="102" cy="112.305" r="139.559" id="g" xlink:href="#a" gradientUnits="userSpaceOnUse" gradientTransform="translate(0 .003)"/><linearGradient x1="98.617" y1="106.414" x2="91.229" y2="99.255" id="j" xlink:href="#b" gradientUnits="userSpaceOnUse"/><filter color-interpolation-filters="sRGB" id="f"><feGaussianBlur stdDeviation="2.079"/></filter><linearGradient x1="45.034" y1="44.966" x2="11.675" y2="1.461" xlink:href="#c" gradientUnits="userSpaceOnUse" gradientTransform="matrix(1.012 0 0 1.016 5.523 9.134)"/><linearGradient x1="25.554" y1="34.006" x2="0" y2="34.153" xlink:href="#d" gradientUnits="userSpaceOnUse" gradientTransform="matrix(1.024 0 0 1.041 4.986 9.051)"/><linearGradient x1="40.864" y1="40.518" x2="33.136" y2="32.652" xlink:href="#e" gradientUnits="userSpaceOnUse" gradientTransform="matrix(1.024 0 0 1.041 4.986 9.051)"/><linearGradient x1="45.034" y1="44.966" x2="11.675" y2="1.461" xlink:href="#c" gradientUnits="userSpaceOnUse" gradientTransform="matrix(.988 0 0 .976 .525 .079)"/><linearGradient id="c"><stop offset="0" stop-color="#342679"/><stop offset=".722" stop-color="#7b51ae" stop-opacity=".969"/><stop offset="1" stop-color="#d9cce8" stop-opacity=".969"/></linearGradient><linearGradient x1="25.554" y1="34.006" x2="0" y2="34.153" id="k" xlink:href="#d" gradientUnits="userSpaceOnUse" gradientTransform="matrix(.46 0 0 .973 2.231 28.622)"/><linearGradient id="d"><stop offset="0" stop-color="#f89c11"/><stop offset="1" stop-color="#fabf60"/></linearGradient><clipPath><path d="M10.844 39.414h-10.844v-10.953h10.844v-28.457h35.543v32.734l-13.059 13.059h-22.484v-6.383"/></clipPath><clipPath id="l"><path d="M10.844 39.414h-10.844v-10.953h10.844v-28.457h35.543v32.734l-13.059 13.059h-22.484v-6.383"/></clipPath><clipPath id="m"><path d="M10.844 39.414h-10.844v-10.953h10.844v-28.457h35.543v32.734l-13.059 13.059h-22.484v-6.383"/></clipPath><linearGradient x1="25.554" y1="34.006" x2="0" y2="34.153" xlink:href="#d" gradientUnits="userSpaceOnUse"/><linearGradient x1="40.864" y1="40.518" x2="33.136" y2="32.652" xlink:href="#e" gradientUnits="userSpaceOnUse"/><linearGradient id="e"><stop offset="0" stop-color="#342679"/><stop offset="1" stop-color="#dacfe4"/></linearGradient></defs><path d="M14 7v115h65.821s12.402-10.172 18.132-15.819c5.729-5.647 16.048-17.872 16.048-17.872v-81.309h-100z" opacity=".5" filter="url(#f)"/><path d="M16 8v112h63.146l32.854-32.854v-79.146h-96z" fill="#fff"/><path d="M18 9c-.551 0-1 .449-1 1v107.964c0 .552.449 1 1 1h59.172c.263 0 2.763.118 2.949-.069l30.586-30.8c.187-.187.293-2.685.293-2.948v-75.147c0-.551-.448-1-1-1h-92z" fill="url(#g)"/><path d="M81.88 115.982l24.31-24.31s-9.353 2.913-19.603 2.913c0 10.25-4.706 21.396-4.706 21.396z" clip-path="url(#h)" opacity=".4" filter="url(#i)"/><path d="M79.172 120s11.914-9.914 17.414-15.414c5.5-5.5 15.414-17.414 15.414-17.414s-13.75 8.828-24 8.828c0 10.25-8.828 24-8.828 24z" fill="url(#j)"/><g transform="matrix(2.567 -.947 .934 2.602 -.542 -88.446)"><rect width="11.895" height="11.569" ry="0" x="3.13" y="57.056"/><rect width="11.895" height="11.569" ry="0" x="2.231" y="56.063" fill="url(#k)"/></g><g fill="#816392" fill-opacity=".862"><path d="M58.582 76.333c5.503 3.438 12.232 4.93 17.809.541 4.298-3.352 5.033-9.234 3.615-14.986-2.506-9.926-12.456-20.836-12.456-20.836l-28.505-35.173s-.373-.476-1.184-.724c-1.13-.324-2.826.724-1.866 2.844l29.785 37.217s8.915 9.147 10.611 17.916c.81 4.109.587 8.196-2.506 10.715-4.148 3.384-9.406 1.492-14.002-1.481-6.174-4.001-11.4-10.434-11.4-10.434l-40.001-48.202-.448 5.352 37.836 45.737s5.684 7.104 12.712 11.515" clip-path="url(#l)"/><path d="M64.522 56.441c5.471 7.061.437 10.261-3.071 8.38-5.119-2.768-12.082-12.142-12.082-12.142l-19.494-23.863c-1.482-2.065-3.231-.995-3.594.249-.267.962.651 1.892.651 1.892l19.633 24.09s6.025 7.201 9.278 10.348c9.555 9.32 21.189.422 11.059-12.618-5.737-7.363-14.492-17.949-14.492-17.949l-28.654-35.66-4.127-.368-.192 2.184 29.273 35.346s9.928 12.521 15.815 20.111" clip-path="url(#m)"/></g><g fill="#fff"><path d="M58.263 73.557c5.503 3.438 12.232 4.93 17.809.541 4.298-3.352 5.033-9.234 3.615-14.986-2.506-9.926-12.456-20.836-12.456-20.836l-28.505-35.173s-.373-.476-1.184-.724c-1.13-.324-2.826.724-1.866 2.844l29.785 37.217s8.915 9.147 10.611 17.916c.81 4.109.587 8.196-2.506 10.715-4.148 3.384-9.406 1.492-14.002-1.481-6.174-4.001-11.4-10.434-11.4-10.434l-40.001-48.202-.448 5.352 37.836 45.737s5.684 7.104 12.712 11.515" clip-path="url(#l)"/><path d="M64.203 53.665c5.471 7.061.437 10.261-3.071 8.38-5.119-2.768-12.082-12.142-12.082-12.142l-19.494-23.863c-1.482-2.065-3.231-.995-3.594.249-.267.962.651 1.892.651 1.892l19.633 24.09s6.025 7.201 9.278 10.348c9.555 9.32 21.189.422 11.059-12.618-5.737-7.363-14.492-17.949-14.492-17.949l-28.654-35.66-4.127-.368-.192 2.184 29.273 35.346s9.928 12.521 15.815 20.111" clip-path="url(#m)"/></g><path d="M25.621 92.807c4.199-.158 8.317-.221 10.669 1.79 1.081 2.834 1.528 8.492.508 11.933-1.876 3.167-6.414 3.208-11.177 2.983v-16.707zm3.556 13.723h3.556c1.691-3.142 2.266-12.73-3.556-10.74v10.74zm11.177-13.723h10.161c.738 4.702 1.73 9.106 3.556 12.53 1.474-3.639 1.743-8.693 3.048-12.53h3.556c-1.228 5.917-3.599 10.491-4.572 16.707h-4.572c-.964-5.033-2.868-8.964-4.064-13.724h-7.113v-2.983zm22.355 5.37c1.252-.079 2.448-.09 3.048.597-.218 2.747-.365 5.068.508 7.757 4.623 1.253 3.451-4.3 3.556-8.353h3.048v11.337c-2.284.694-2.685-.825-3.048-2.387-1.52 2.27-5.373 3.296-7.113.597v-9.547zm-22.355 1.193h3.048c-.237 4.893.704 11.169-1.016 14.32-2.429.269-2.143.269-4.572 0 2.513-2.816 2.993-8.02 2.54-14.32z" fill-rule="evenodd"/></svg>