<svg xmlns="http://www.w3.org/2000/svg" xmlns:xlink="http://www.w3.org/1999/xlink" width="128" height="128" version="1"><defs><linearGradient id="b"><stop offset="0" stop-color="#a2a2a2"/><stop offset="1" stop-color="#fff"/></linearGradient><linearGradient gradientUnits="userSpaceOnUse" x1="96" y1="104" x2="88" y2="96"><stop offset="0" stop-color="#888A85"/><stop offset=".007" stop-color="#8C8E89"/><stop offset=".067" stop-color="#ABACA9"/><stop offset=".135" stop-color="#C5C6C4"/><stop offset=".265" stop-color="#DBDBDA"/><stop offset=".376" stop-color="#EBEBEB"/><stop offset=".487" stop-color="#F7F7F6"/><stop offset=".632" stop-color="#FDFDFD"/><stop offset="1" stop-color="#fff"/></linearGradient><radialGradient id="a" cx="102" cy="112.305" r="139.559" gradientUnits="userSpaceOnUse"><stop offset="0" stop-color="#b7b8b9"/><stop offset=".189" stop-color="#ECECEC"/><stop offset=".257" stop-color="#FAFAFA"/><stop offset=".301" stop-color="#fff"/><stop offset=".531" stop-color="#FAFAFA"/><stop offset=".845" stop-color="#EBECEC"/><stop offset="1" stop-color="#E1E2E3"/></radialGradient><filter x="-.192" width="1.384" y="-.192" height="1.384" id="g"><feGaussianBlur stdDeviation="1.945"/></filter><clipPath id="f"><path d="M72 88l-32 32h-8v-40h40v8z" fill-rule="evenodd"/></clipPath><radialGradient xlink:href="#a" id="e" gradientUnits="userSpaceOnUse" gradientTransform="translate(0 .003)" cx="102" cy="112.305" r="139.559"/><linearGradient xlink:href="#b" id="h" x1="98.617" y1="106.414" x2="91.229" y2="99.255" gradientUnits="userSpaceOnUse"/><filter id="d"><feGaussianBlur stdDeviation="2.079"/></filter><linearGradient xlink:href="#c" x1="32.254" y1="57.967" x2="98.358" y2="57.967" gradientUnits="userSpaceOnUse" gradientTransform="translate(19.44 41.709)"/><linearGradient id="c"><stop offset="0" stop-color="#2b2b2b"/><stop offset=".5" stop-color="#242424"/><stop offset=".75" stop-color="#363636"/><stop offset="1" stop-color="#2b2b2b"/></linearGradient><linearGradient xlink:href="#c" x1="32.254" y1="57.967" x2="98.358" y2="57.967" gradientUnits="userSpaceOnUse" gradientTransform="translate(19.44 41.709)"/><linearGradient><stop offset="0" stop-color="#2b2b2b"/><stop offset=".5" stop-color="#242424"/><stop offset=".75" stop-color="#363636"/><stop offset="1" stop-color="#2b2b2b"/></linearGradient><linearGradient y2="57.967" x2="98.358" y1="57.967" x1="32.254" gradientTransform="translate(13.291 -32.406)" gradientUnits="userSpaceOnUse" id="i" xlink:href="#c"/></defs><path d="M14 7v115h65.821s12.402-10.172 18.132-15.819c5.729-5.647 16.048-17.872 16.048-17.872v-81.309h-100z" opacity=".5" filter="url(#d)"/><path d="M16 8v112h63.146l32.854-32.854v-79.146h-96z" fill="#fff"/><path d="M18 9c-.551 0-1 .449-1 1v107.964c0 .552.449 1 1 1h59.172c.263 0 2.763.118 2.949-.069l30.586-30.8c.187-.187.293-2.685.293-2.948v-75.147c0-.551-.448-1-1-1h-92z" fill="url(#e)"/><path d="M81.88 115.982l24.31-24.31s-9.353 2.913-19.603 2.913c0 10.25-4.706 21.396-4.706 21.396z" clip-path="url(#f)" opacity=".4" filter="url(#g)"/><path d="M79.172 120s11.914-9.914 17.414-15.414c5.5-5.5 15.414-17.414 15.414-17.414s-13.75 8.828-24 8.828c0 10.25-8.828 24-8.828 24z" fill="url(#h)"/><path d="M46.329 73.724l17.671-17.724 5.682 5.673-12.051 12.05 6.395 6.352 18.341-18.375-15.517-15.235c-1.668-1.259-3.376-2.147-5.392-.071l-24.102 23.546c-2.457 2.229-2.144 4.458-.669 6.688l24.42 24.561c2.682 2.238 3.703 1.178 5.934-.091l25.035-25.228c.642-1.615 1.843-2.714-.448-4.969l-3.564-3.494-24.075 23.997-17.662-17.681z" fill="#85b916"/><text style="-inkscape-font-specification:FreeSerif" x="44" y="36" font-size="72" fill="url(#i)" font-family="FreeSerif"><tspan x="44" y="36" style="-inkscape-font-specification:Sans" font-size="28" fill="url(#i)" font-family="Sans">PUB</tspan></text><text style="-inkscape-font-specification:FreeSans" x="28" y="36" font-size="28" font-family="FreeSans"><tspan x="28" y="36" font-size="28" fill="#85b916">e</tspan></text></svg>