<svg xmlns="http://www.w3.org/2000/svg" xmlns:xlink="http://www.w3.org/1999/xlink" width="128" height="128" version="1"><defs><linearGradient id="F"><stop offset="0"/><stop offset="1" stop-opacity="0"/></linearGradient><filter x="-.058" width="1.117" y="-.536" height="2.071" id="J"><feGaussianBlur stdDeviation="2.399"/></filter><radialGradient xlink:href="#a" gradientUnits="userSpaceOnUse" gradientTransform="matrix(.778 .523 -.523 .778 26.601 -18.319)" cx="47.582" cy="30.584" fx="50.021" fy="27.667" r="5.6"/><radialGradient xlink:href="#a" gradientUnits="userSpaceOnUse" gradientTransform="matrix(.827 .441 -.441 .827 63.567 -17.756)" cx="66.301" cy="106.353" fx="59.748" fy="106.177" r="6.555"/><radialGradient gradientUnits="userSpaceOnUse" gradientTransform="matrix(.83 .557 -.557 .83 23.541 -23.407)" fy="27.667" fx="50.021" r="5.6" cy="30.584" cx="47.582" id="a"><stop offset="0" stop-color="#fff"/><stop offset="1" stop-color="#fff" stop-opacity="0"/></radialGradient><radialGradient xlink:href="#a" gradientUnits="userSpaceOnUse" gradientTransform="matrix(.935 -.063 .063 .935 .39 7.727)" cx="61.417" cy="70.336" fx="64.086" fy="76.87" r="7.058"/><linearGradient xlink:href="#b" gradientUnits="userSpaceOnUse" gradientTransform="matrix(.938 0 0 .938 4.531 3.625)" x1="90.727" y1="42.275" x2="109.81" y2="42.275"/><radialGradient xlink:href="#b" gradientUnits="userSpaceOnUse" gradientTransform="matrix(1.034 0 0 .196 -1.094 76.008)" cx="55.237" cy="93.081" fx="55.237" fy="93.081" r="36.429"/><radialGradient xlink:href="#b" gradientUnits="userSpaceOnUse" gradientTransform="matrix(1.034 0 0 .4 -1.094 39.033)" cx="51.922" cy="64.665" fx="51.922" fy="64.665" r="37.981"/><radialGradient id="b" cx="75.122" cy="45.164" r="30.476" gradientUnits="userSpaceOnUse"><stop offset="0" stop-color="#fff"/><stop offset="1" stop-color="#fff" stop-opacity="0"/></radialGradient><radialGradient xlink:href="#b" gradientUnits="userSpaceOnUse" gradientTransform="matrix(.938 0 0 .938 4.531 3.625)" cx="75.122" cy="45.164" r="30.476"/><radialGradient gradientUnits="userSpaceOnUse" gradientTransform="matrix(.953 .004 -.004 .953 8.897 -30.864)" r="57.299" cy="76.447" cx="41.043" id="c"><stop offset=".248" stop-color="#fff"/><stop offset=".521" stop-color="#C7ECFF"/><stop offset=".751" stop-color="#7AC3FF"/><stop offset=".858" stop-color="#63B8FF"/><stop offset=".953" stop-color="#8ACAFF"/></radialGradient><radialGradient xlink:href="#c" gradientUnits="userSpaceOnUse" gradientTransform="matrix(.893 .004 -.004 .893 12.872 -25.31)" cx="41.043" cy="76.447" r="57.299"/><radialGradient gradientUnits="userSpaceOnUse" gradientTransform="matrix(.953 .004 -.004 .953 8.897 -30.864)" r="57.117" cy="76.44" cx="41.267" id="d"><stop offset=".248" stop-color="#fff"/><stop offset=".521" stop-color="#C7ECFF"/><stop offset=".751" stop-color="#7AC3FF"/><stop offset=".858" stop-color="#63B8FF"/><stop offset=".953" stop-color="#8ACAFF"/></radialGradient><radialGradient xlink:href="#d" gradientUnits="userSpaceOnUse" gradientTransform="matrix(.893 .004 -.004 .893 12.872 -25.31)" cx="41.267" cy="76.44" r="57.117"/><radialGradient gradientUnits="userSpaceOnUse" gradientTransform="matrix(.953 .004 -.004 .953 8.897 -30.864)" r="57.261" cy="76.441" cx="41.09" id="e"><stop offset=".248" stop-color="#fff"/><stop offset=".521" stop-color="#C7ECFF"/><stop offset=".751" stop-color="#7AC3FF"/><stop offset=".858" stop-color="#63B8FF"/><stop offset=".953" stop-color="#8ACAFF"/></radialGradient><radialGradient xlink:href="#e" gradientUnits="userSpaceOnUse" gradientTransform="matrix(.893 .004 -.004 .893 12.872 -25.31)" cx="41.09" cy="76.441" r="57.261"/><radialGradient gradientUnits="userSpaceOnUse" gradientTransform="matrix(.953 .004 -.004 .953 8.897 -30.864)" r="57.272" cy="76.438" cx="41.079" id="f"><stop offset=".248" stop-color="#fff"/><stop offset=".521" stop-color="#C7ECFF"/><stop offset=".751" stop-color="#7AC3FF"/><stop offset=".858" stop-color="#63B8FF"/><stop offset=".953" stop-color="#8ACAFF"/></radialGradient><radialGradient xlink:href="#f" gradientUnits="userSpaceOnUse" gradientTransform="matrix(.893 .004 -.004 .893 12.872 -25.31)" cx="41.079" cy="76.438" r="57.272"/><radialGradient gradientUnits="userSpaceOnUse" gradientTransform="matrix(.953 .004 -.004 .953 8.897 -30.864)" r="57.654" cy="76.454" cx="40.553" id="g"><stop offset=".248" stop-color="#fff"/><stop offset=".521" stop-color="#C7ECFF"/><stop offset=".751" stop-color="#7AC3FF"/><stop offset=".858" stop-color="#63B8FF"/><stop offset=".953" stop-color="#8ACAFF"/></radialGradient><radialGradient xlink:href="#g" gradientUnits="userSpaceOnUse" gradientTransform="matrix(.893 .004 -.004 .893 12.872 -25.31)" cx="40.553" cy="76.454" r="57.654"/><radialGradient gradientUnits="userSpaceOnUse" gradientTransform="matrix(.953 .004 -.004 .953 8.897 -30.864)" r="57.253" cy="76.45" cx="41.099" id="h"><stop offset=".248" stop-color="#fff"/><stop offset=".521" stop-color="#C7ECFF"/><stop offset=".751" stop-color="#7AC3FF"/><stop offset=".858" stop-color="#63B8FF"/><stop offset=".953" stop-color="#8ACAFF"/></radialGradient><radialGradient xlink:href="#h" gradientUnits="userSpaceOnUse" gradientTransform="matrix(.893 .004 -.004 .893 12.872 -25.31)" cx="41.099" cy="76.45" r="57.253"/><radialGradient gradientUnits="userSpaceOnUse" gradientTransform="matrix(.953 .004 -.004 .953 8.897 -30.864)" r="57.159" cy="76.448" cx="41.213" id="i"><stop offset=".248" stop-color="#fff"/><stop offset=".521" stop-color="#C7ECFF"/><stop offset=".751" stop-color="#7AC3FF"/><stop offset=".858" stop-color="#63B8FF"/><stop offset=".953" stop-color="#8ACAFF"/></radialGradient><radialGradient xlink:href="#i" gradientUnits="userSpaceOnUse" gradientTransform="matrix(.893 .004 -.004 .893 12.872 -25.31)" cx="41.213" cy="76.448" r="57.159"/><radialGradient gradientUnits="userSpaceOnUse" gradientTransform="matrix(.953 .004 -.004 .953 8.897 -30.864)" r="57.328" cy="76.42" cx="41.031" id="j"><stop offset=".248" stop-color="#fff"/><stop offset=".521" stop-color="#C7ECFF"/><stop offset=".751" stop-color="#7AC3FF"/><stop offset=".858" stop-color="#63B8FF"/><stop offset=".953" stop-color="#8ACAFF"/></radialGradient><radialGradient xlink:href="#j" gradientUnits="userSpaceOnUse" gradientTransform="matrix(.893 .004 -.004 .893 12.872 -25.31)" cx="41.031" cy="76.42" r="57.328"/><radialGradient gradientUnits="userSpaceOnUse" gradientTransform="matrix(.953 .004 -.004 .953 8.897 -30.864)" r="57.266" cy="76.471" cx="41.075" id="k"><stop offset=".248" stop-color="#fff"/><stop offset=".521" stop-color="#C7ECFF"/><stop offset=".751" stop-color="#7AC3FF"/><stop offset=".858" stop-color="#63B8FF"/><stop offset=".953" stop-color="#8ACAFF"/></radialGradient><radialGradient xlink:href="#k" gradientUnits="userSpaceOnUse" gradientTransform="matrix(.893 .004 -.004 .893 12.872 -25.31)" cx="41.075" cy="76.471" r="57.266"/><radialGradient gradientUnits="userSpaceOnUse" gradientTransform="matrix(.953 .004 -.004 .953 8.897 -30.864)" r="57.307" cy="76.444" cx="41.03" id="l"><stop offset=".521" stop-color="#BFD9FF"/><stop offset=".751" stop-color="#80B3FF"/><stop offset=".858" stop-color="#80B3FF"/><stop offset=".899" stop-color="#7AB0FA"/><stop offset=".956" stop-color="#68A8EC"/><stop offset="1" stop-color="#56A0DE"/></radialGradient><radialGradient xlink:href="#l" gradientUnits="userSpaceOnUse" gradientTransform="matrix(.893 .004 -.004 .893 12.872 -25.31)" cx="41.03" cy="76.444" r="57.307"/><radialGradient gradientUnits="userSpaceOnUse" gradientTransform="matrix(.953 0 0 .953 2.591 2.686)" r="46.679" cy="76.084" cx="52.28" id="m"><stop offset=".248" stop-color="#fff"/><stop offset=".521" stop-color="#C7ECFF"/><stop offset=".627" stop-color="#C3EAFF"/><stop offset=".729" stop-color="#5fa5d1"/><stop offset="1" stop-color="#81bbec"/></radialGradient><radialGradient xlink:href="#m" gradientUnits="userSpaceOnUse" gradientTransform="matrix(.73 .009 -.011 .893 15.677 5.715)" cx="48.389" cy="72.037" r="46.679" fx="48.389" fy="72.037"/><radialGradient gradientUnits="userSpaceOnUse" gradientTransform="matrix(.953 .004 -.004 .953 8.897 -30.864)" r="57.312" cy="76.428" cx="41.021" id="n"><stop offset=".248" stop-color="#fff"/><stop offset=".521" stop-color="#C7ECFF"/><stop offset=".751" stop-color="#7AC3FF"/><stop offset=".858" stop-color="#63B8FF"/><stop offset=".953" stop-color="#8ACAFF"/></radialGradient><radialGradient xlink:href="#n" gradientUnits="userSpaceOnUse" gradientTransform="matrix(.893 .004 -.004 .893 12.872 -25.31)" cx="41.021" cy="76.428" r="57.312"/><radialGradient gradientUnits="userSpaceOnUse" gradientTransform="matrix(.953 0 0 .953 2.591 2.686)" r="57.306" cy="60.964" cx="43.948" id="o"><stop offset=".248" stop-color="#fff"/><stop offset=".521" stop-color="#C7ECFF"/><stop offset=".953" stop-color="#8ACAFF"/></radialGradient><radialGradient xlink:href="#o" gradientUnits="userSpaceOnUse" gradientTransform="matrix(.893 0 0 .893 6.961 6.143)" cx="43.948" cy="60.964" r="57.306"/><radialGradient gradientUnits="userSpaceOnUse" gradientTransform="matrix(.953 .004 -.004 .953 8.897 -30.864)" r="57.307" cy="76.441" cx="41.03" id="p"><stop offset=".521" stop-color="#BFD9FF"/><stop offset=".751" stop-color="#80B3FF"/><stop offset=".858" stop-color="#80B3FF"/><stop offset=".899" stop-color="#7AB0FA"/><stop offset=".956" stop-color="#68A8EC"/><stop offset="1" stop-color="#56A0DE"/></radialGradient><radialGradient xlink:href="#p" gradientUnits="userSpaceOnUse" gradientTransform="matrix(.893 .004 -.004 .893 12.872 -25.31)" cx="41.03" cy="76.441" r="57.307"/><radialGradient gradientUnits="userSpaceOnUse" gradientTransform="matrix(.953 0 0 .953 2.591 2.686)" r="57.31" cy="60.974" cx="43.959" id="q"><stop offset=".248" stop-color="#fff"/><stop offset=".521" stop-color="#C7ECFF"/><stop offset=".953" stop-color="#058EFF"/></radialGradient><radialGradient xlink:href="#q" gradientUnits="userSpaceOnUse" gradientTransform="matrix(.893 0 0 .893 6.961 6.143)" cx="43.959" cy="60.974" r="57.31"/><radialGradient gradientUnits="userSpaceOnUse" gradientTransform="matrix(.948 -.098 .098 .948 -2.01 9.242)" r="57.304" cy="39.725" cx="48.305" id="r"><stop offset=".248" stop-color="#fff"/><stop offset=".521" stop-color="#BFD9FF"/><stop offset=".751" stop-color="#80B3FF"/><stop offset=".858" stop-color="#6193CF"/><stop offset="1" stop-color="#80B3FF"/></radialGradient><radialGradient xlink:href="#r" gradientUnits="userSpaceOnUse" gradientTransform="matrix(.889 -.092 .092 .889 2.647 12.29)" cx="48.305" cy="39.725" r="57.304"/><radialGradient gradientUnits="userSpaceOnUse" gradientTransform="matrix(.953 0 0 .953 2.591 2.686)" fy="60.575" fx="80.556" r="71.87" cy="53.12" cx="39.968" id="s"><stop offset="0" stop-color="#fff"/><stop offset=".067" stop-color="#F5FAFE"/><stop offset=".179" stop-color="#DBEBFB"/><stop offset=".322" stop-color="#B1D4F6"/><stop offset=".492" stop-color="#77B4F0"/><stop offset=".68" stop-color="#2D8BE8"/><stop offset=".787" stop-color="#0072E3"/><stop offset=".953" stop-color="#8ACAFF"/></radialGradient><radialGradient xlink:href="#s" gradientUnits="userSpaceOnUse" gradientTransform="matrix(.893 0 0 .893 6.961 6.143)" cx="39.968" cy="53.12" fx="80.556" fy="60.575" r="71.87"/><radialGradient gradientUnits="userSpaceOnUse" gradientTransform="matrix(.953 .004 -.004 .953 8.897 -30.864)" r="57.265" cy="76.422" cx="41.05" id="t"><stop offset=".248" stop-color="#fff"/><stop offset=".521" stop-color="#C7ECFF"/><stop offset=".751" stop-color="#7AC3FF"/><stop offset=".858" stop-color="#63B8FF"/><stop offset=".953" stop-color="#8ACAFF"/></radialGradient><radialGradient xlink:href="#t" gradientUnits="userSpaceOnUse" gradientTransform="matrix(.893 .004 -.004 .893 12.872 -25.31)" cx="41.05" cy="76.422" r="57.265"/><radialGradient gradientUnits="userSpaceOnUse" gradientTransform="matrix(.953 0 0 .953 2.591 2.686)" r="57.312" cy="60.974" cx="43.959" id="u"><stop offset=".248" stop-color="#fff"/><stop offset=".521" stop-color="#C7ECFF"/><stop offset=".953" stop-color="#8ACAFF"/></radialGradient><radialGradient xlink:href="#u" gradientUnits="userSpaceOnUse" gradientTransform="matrix(.893 0 0 .893 6.961 6.143)" cx="43.959" cy="60.974" r="57.312"/><radialGradient gradientUnits="userSpaceOnUse" gradientTransform="matrix(.953 .004 -.004 .953 8.897 -30.864)" r="57.309" cy="76.444" cx="41.029" id="v"><stop offset=".521" stop-color="#BFD9FF"/><stop offset=".751" stop-color="#80B3FF"/><stop offset=".858" stop-color="#80B3FF"/><stop offset=".899" stop-color="#7AB0FA"/><stop offset=".956" stop-color="#68A8EC"/><stop offset="1" stop-color="#56A0DE"/></radialGradient><radialGradient xlink:href="#v" gradientUnits="userSpaceOnUse" gradientTransform="matrix(.893 .004 -.004 .893 12.872 -25.31)" cx="41.029" cy="76.444" r="57.309"/><radialGradient gradientUnits="userSpaceOnUse" gradientTransform="matrix(.953 0 0 .953 2.591 2.686)" r="57.304" cy="60.966" cx="43.959" id="w"><stop offset=".248" stop-color="#fff"/><stop offset=".521" stop-color="#C7ECFF"/><stop offset=".953" stop-color="#8ACAFF"/></radialGradient><radialGradient xlink:href="#w" gradientUnits="userSpaceOnUse" gradientTransform="matrix(.893 0 0 .893 6.961 6.143)" cx="43.959" cy="60.966" r="57.304"/><radialGradient gradientUnits="userSpaceOnUse" gradientTransform="matrix(.953 .004 -.004 .953 8.897 -30.864)" r="57.305" cy="76.441" cx="41.03" id="x"><stop offset=".248" stop-color="#fff"/><stop offset=".521" stop-color="#C7ECFF"/><stop offset=".751" stop-color="#7AC3FF"/><stop offset=".858" stop-color="#63B8FF"/><stop offset=".953" stop-color="#8ACAFF"/></radialGradient><radialGradient xlink:href="#x" gradientUnits="userSpaceOnUse" gradientTransform="matrix(.893 .004 -.004 .893 12.872 -25.31)" cx="41.03" cy="76.441" r="57.305"/><radialGradient gradientUnits="userSpaceOnUse" gradientTransform="matrix(.953 0 0 .953 2.591 2.686)" r="57.313" cy="60.974" cx="43.961" id="y"><stop offset=".248" stop-color="#fff"/><stop offset=".521" stop-color="#C7ECFF"/><stop offset=".953" stop-color="#8ACAFF"/></radialGradient><radialGradient xlink:href="#y" gradientUnits="userSpaceOnUse" gradientTransform="matrix(.893 0 0 .893 6.961 6.143)" cx="43.961" cy="60.974" r="57.313"/><radialGradient gradientUnits="userSpaceOnUse" gradientTransform="matrix(.953 .004 -.004 .953 8.897 -30.864)" r="57.305" cy="76.441" cx="41.03" id="z"><stop offset=".521" stop-color="#BFD9FF"/><stop offset=".751" stop-color="#80B3FF"/><stop offset=".858" stop-color="#80B3FF"/><stop offset=".899" stop-color="#7AB0FA"/><stop offset=".956" stop-color="#68A8EC"/><stop offset="1" stop-color="#56A0DE"/></radialGradient><radialGradient xlink:href="#z" gradientUnits="userSpaceOnUse" gradientTransform="matrix(.893 .004 -.004 .893 12.872 -25.31)" cx="41.03" cy="76.441" r="57.305"/><radialGradient gradientUnits="userSpaceOnUse" gradientTransform="matrix(.953 0 0 .953 2.591 2.686)" r="57.311" cy="60.974" cx="43.959" id="A"><stop offset=".248" stop-color="#fff"/><stop offset=".521" stop-color="#C7ECFF"/><stop offset=".953" stop-color="#8ACAFF"/></radialGradient><radialGradient xlink:href="#A" gradientUnits="userSpaceOnUse" gradientTransform="matrix(.893 0 0 .893 6.961 6.143)" cx="43.959" cy="60.974" r="57.311"/><radialGradient gradientUnits="userSpaceOnUse" gradientTransform="matrix(.953 0 0 .953 2.591 2.686)" r="84.581" cy="39.421" cx="63.449" id="B"><stop offset="0" stop-color="#BFD9FF"/><stop offset=".057" stop-color="#B4D1FA"/><stop offset=".156" stop-color="#98BCEB"/><stop offset=".284" stop-color="#6A9AD4"/><stop offset=".308" stop-color="#6193CF"/><stop offset=".344" stop-color="#588DCC"/><stop offset=".405" stop-color="#407EC4"/><stop offset=".48" stop-color="#1866B6"/><stop offset=".521" stop-color="#0057AE"/><stop offset=".751" stop-color="#80B3FF"/><stop offset=".776" stop-color="#77ACF9"/><stop offset=".817" stop-color="#5F99E9"/><stop offset=".869" stop-color="#377BCF"/><stop offset=".882" stop-color="#2C72C7"/><stop offset="1" stop-color="#0057AE"/></radialGradient><radialGradient xlink:href="#B" gradientUnits="userSpaceOnUse" gradientTransform="matrix(.953 0 0 .953 2.591 2.686)" cx="63.449" cy="39.421" r="84.581"/><radialGradient gradientUnits="userSpaceOnUse" r="84.581" cy="39.059" cx="63.793" id="C"><stop offset="0" stop-color="#103961"/><stop offset=".675" stop-color="#227AD1"/><stop offset=".929" stop-color="#00438A"/></radialGradient><radialGradient xlink:href="#C" gradientUnits="userSpaceOnUse" gradientTransform="matrix(.938 0 0 .938 4.531 3.625)" cx="63.793" cy="39.059" r="84.581"/><linearGradient id="E"><stop offset="0" stop-color="#a2a2a2"/><stop offset="1" stop-color="#fff"/></linearGradient><linearGradient gradientUnits="userSpaceOnUse" x1="96" y1="104" x2="88" y2="96"><stop offset="0" stop-color="#888A85"/><stop offset=".007" stop-color="#8C8E89"/><stop offset=".067" stop-color="#ABACA9"/><stop offset=".135" stop-color="#C5C6C4"/><stop offset=".265" stop-color="#DBDBDA"/><stop offset=".376" stop-color="#EBEBEB"/><stop offset=".487" stop-color="#F7F7F6"/><stop offset=".632" stop-color="#FDFDFD"/><stop offset="1" stop-color="#fff"/></linearGradient><radialGradient id="D" cx="102" cy="112.305" r="139.559" gradientUnits="userSpaceOnUse"><stop offset="0" stop-color="#b7b8b9"/><stop offset=".189" stop-color="#ECECEC"/><stop offset=".257" stop-color="#FAFAFA"/><stop offset=".301" stop-color="#fff"/><stop offset=".531" stop-color="#FAFAFA"/><stop offset=".845" stop-color="#EBECEC"/><stop offset="1" stop-color="#E1E2E3"/></radialGradient><filter x="-.192" width="1.384" y="-.192" height="1.384" id="L"><feGaussianBlur stdDeviation="1.945"/></filter><clipPath id="K"><path d="M72 88l-32 32h-8v-40h40v8z" fill-rule="evenodd"/></clipPath><radialGradient xlink:href="#D" id="H" gradientUnits="userSpaceOnUse" gradientTransform="translate(0 .003)" cx="102" cy="112.305" r="139.559"/><linearGradient xlink:href="#E" id="M" x1="98.617" y1="106.414" x2="91.229" y2="99.255" gradientUnits="userSpaceOnUse"/><filter id="G"><feGaussianBlur stdDeviation="2.079"/></filter><radialGradient xlink:href="#F" id="I" cx="74.75" cy="117.875" fx="74.75" fy="117.875" r="49.25" gradientTransform="matrix(1 0 0 .109 0 105.01)" gradientUnits="userSpaceOnUse"/><radialGradient xlink:href="#a" gradientUnits="userSpaceOnUse" gradientTransform="matrix(.515 .346 -.346 .515 -77.388 9.472)" cx="47.582" cy="30.584" fx="50.021" fy="27.667" r="5.6"/><radialGradient xlink:href="#a" gradientUnits="userSpaceOnUse" gradientTransform="matrix(.548 .292 -.292 .548 -52.914 9.844)" cx="66.301" cy="106.353" fx="59.748" fy="106.177" r="6.555"/><radialGradient xlink:href="#a" gradientUnits="userSpaceOnUse" gradientTransform="matrix(.619 -.042 .042 .619 -94.742 26.716)" cx="61.417" cy="70.336" fx="64.086" fy="76.87" r="7.058"/><linearGradient xlink:href="#b" gradientUnits="userSpaceOnUse" gradientTransform="matrix(.621 0 0 .621 -92 24)" x1="90.727" y1="42.275" x2="109.81" y2="42.275"/><radialGradient xlink:href="#b" gradientUnits="userSpaceOnUse" gradientTransform="matrix(.685 0 0 .13 -95.724 71.922)" cx="55.237" cy="93.081" fx="55.237" fy="93.081" r="36.429"/><radialGradient xlink:href="#b" gradientUnits="userSpaceOnUse" gradientTransform="matrix(.685 0 0 .265 -95.724 47.443)" cx="51.922" cy="64.665" fx="51.922" fy="64.665" r="37.981"/><radialGradient xlink:href="#b" gradientUnits="userSpaceOnUse" gradientTransform="matrix(.621 0 0 .621 -92 24)" cx="75.122" cy="45.164" r="30.476"/><radialGradient xlink:href="#c" gradientUnits="userSpaceOnUse" gradientTransform="matrix(.592 .003 -.003 .592 -86.478 4.843)" cx="41.043" cy="76.447" r="57.299"/><radialGradient xlink:href="#d" gradientUnits="userSpaceOnUse" gradientTransform="matrix(.592 .003 -.003 .592 -86.478 4.843)" cx="41.267" cy="76.44" r="57.117"/><radialGradient xlink:href="#e" gradientUnits="userSpaceOnUse" gradientTransform="matrix(.592 .003 -.003 .592 -86.478 4.843)" cx="41.09" cy="76.441" r="57.261"/><radialGradient xlink:href="#f" gradientUnits="userSpaceOnUse" gradientTransform="matrix(.592 .003 -.003 .592 -86.478 4.843)" cx="41.079" cy="76.438" r="57.272"/><radialGradient xlink:href="#g" gradientUnits="userSpaceOnUse" gradientTransform="matrix(.592 .003 -.003 .592 -86.478 4.843)" cx="40.553" cy="76.454" r="57.654"/><radialGradient xlink:href="#h" gradientUnits="userSpaceOnUse" gradientTransform="matrix(.592 .003 -.003 .592 -86.478 4.843)" cx="41.099" cy="76.45" r="57.253"/><radialGradient xlink:href="#i" gradientUnits="userSpaceOnUse" gradientTransform="matrix(.592 .003 -.003 .592 -86.478 4.843)" cx="41.213" cy="76.448" r="57.159"/><radialGradient xlink:href="#j" gradientUnits="userSpaceOnUse" gradientTransform="matrix(.592 .003 -.003 .592 -86.478 4.843)" cx="41.031" cy="76.42" r="57.328"/><radialGradient xlink:href="#k" gradientUnits="userSpaceOnUse" gradientTransform="matrix(.592 .003 -.003 .592 -86.478 4.843)" cx="41.075" cy="76.471" r="57.266"/><radialGradient xlink:href="#l" gradientUnits="userSpaceOnUse" gradientTransform="matrix(.592 .003 -.003 .592 -86.478 4.843)" cx="41.03" cy="76.444" r="57.307"/><radialGradient xlink:href="#m" gradientUnits="userSpaceOnUse" gradientTransform="matrix(.483 .006 -.007 .591 -84.621 25.384)" cx="48.389" cy="72.037" fx="48.389" fy="72.037" r="46.679"/><radialGradient xlink:href="#n" gradientUnits="userSpaceOnUse" gradientTransform="matrix(.592 .003 -.003 .592 -86.478 4.843)" cx="41.021" cy="76.428" r="57.312"/><radialGradient xlink:href="#o" gradientUnits="userSpaceOnUse" gradientTransform="matrix(.592 0 0 .592 -90.392 25.667)" cx="43.948" cy="60.964" r="57.306"/><radialGradient xlink:href="#p" gradientUnits="userSpaceOnUse" gradientTransform="matrix(.592 .003 -.003 .592 -86.478 4.843)" cx="41.03" cy="76.441" r="57.307"/><radialGradient xlink:href="#q" gradientUnits="userSpaceOnUse" gradientTransform="matrix(.592 0 0 .592 -90.392 25.667)" cx="43.959" cy="60.974" r="57.31"/><radialGradient xlink:href="#r" gradientUnits="userSpaceOnUse" gradientTransform="matrix(.588 -.061 .061 .588 -93.247 29.737)" cx="48.305" cy="39.725" r="57.304"/><radialGradient xlink:href="#s" gradientUnits="userSpaceOnUse" gradientTransform="matrix(.592 0 0 .592 -90.392 25.667)" cx="39.968" cy="53.12" fx="80.556" fy="60.575" r="71.87"/><radialGradient xlink:href="#t" gradientUnits="userSpaceOnUse" gradientTransform="matrix(.592 .003 -.003 .592 -86.478 4.843)" cx="41.05" cy="76.422" r="57.265"/><radialGradient xlink:href="#u" gradientUnits="userSpaceOnUse" gradientTransform="matrix(.592 0 0 .592 -90.392 25.667)" cx="43.959" cy="60.974" r="57.312"/><radialGradient xlink:href="#v" gradientUnits="userSpaceOnUse" gradientTransform="matrix(.592 .003 -.003 .592 -86.478 4.843)" cx="41.029" cy="76.444" r="57.309"/><radialGradient xlink:href="#w" gradientUnits="userSpaceOnUse" gradientTransform="matrix(.592 0 0 .592 -90.392 25.667)" cx="43.959" cy="60.966" r="57.304"/><radialGradient xlink:href="#x" gradientUnits="userSpaceOnUse" gradientTransform="matrix(.592 .003 -.003 .592 -86.478 4.843)" cx="41.03" cy="76.441" r="57.305"/><radialGradient xlink:href="#y" gradientUnits="userSpaceOnUse" gradientTransform="matrix(.592 0 0 .592 -90.392 25.667)" cx="43.961" cy="60.974" r="57.313"/><radialGradient xlink:href="#z" gradientUnits="userSpaceOnUse" gradientTransform="matrix(.592 .003 -.003 .592 -86.478 4.843)" cx="41.03" cy="76.441" r="57.305"/><radialGradient xlink:href="#A" gradientUnits="userSpaceOnUse" gradientTransform="matrix(.592 0 0 .592 -90.392 25.667)" cx="43.959" cy="60.974" r="57.311"/><radialGradient xlink:href="#C" gradientUnits="userSpaceOnUse" gradientTransform="matrix(.621 0 0 .621 -92 24)" cx="63.793" cy="39.059" r="84.581"/><radialGradient xlink:href="#B" gradientUnits="userSpaceOnUse" gradientTransform="matrix(.953 0 0 .953 2.591 2.686)" cx="63.449" cy="39.421" r="84.581"/><radialGradient xlink:href="#B" id="N" gradientUnits="userSpaceOnUse" gradientTransform="matrix(.953 0 0 .953 2.591 2.686)" cx="63.449" cy="39.421" r="84.581"/><radialGradient xlink:href="#A" id="O" gradientUnits="userSpaceOnUse" gradientTransform="matrix(.592 0 0 .592 -90.392 25.667)" cx="43.959" cy="60.974" r="57.311"/><radialGradient xlink:href="#z" id="P" gradientUnits="userSpaceOnUse" gradientTransform="matrix(.592 .003 -.003 .592 -86.478 4.843)" cx="41.03" cy="76.441" r="57.305"/><radialGradient xlink:href="#y" id="Q" gradientUnits="userSpaceOnUse" gradientTransform="matrix(.592 0 0 .592 -90.392 25.667)" cx="43.961" cy="60.974" r="57.313"/><radialGradient xlink:href="#x" id="R" gradientUnits="userSpaceOnUse" gradientTransform="matrix(.592 .003 -.003 .592 -86.478 4.843)" cx="41.03" cy="76.441" r="57.305"/><radialGradient xlink:href="#w" id="S" gradientUnits="userSpaceOnUse" gradientTransform="matrix(.592 0 0 .592 -90.392 25.667)" cx="43.959" cy="60.966" r="57.304"/><radialGradient xlink:href="#v" id="T" gradientUnits="userSpaceOnUse" gradientTransform="matrix(.592 .003 -.003 .592 -86.478 4.843)" cx="41.029" cy="76.444" r="57.309"/><radialGradient xlink:href="#u" id="U" gradientUnits="userSpaceOnUse" gradientTransform="matrix(.592 0 0 .592 -90.392 25.667)" cx="43.959" cy="60.974" r="57.312"/><radialGradient xlink:href="#t" id="V" gradientUnits="userSpaceOnUse" gradientTransform="matrix(.592 .003 -.003 .592 -86.478 4.843)" cx="41.05" cy="76.422" r="57.265"/><radialGradient xlink:href="#s" id="W" gradientUnits="userSpaceOnUse" gradientTransform="matrix(.592 0 0 .592 -90.392 25.667)" cx="39.968" cy="53.12" fx="80.556" fy="60.575" r="71.87"/><radialGradient xlink:href="#r" id="X" gradientUnits="userSpaceOnUse" gradientTransform="matrix(.588 -.061 .061 .588 -93.247 29.737)" cx="48.305" cy="39.725" r="57.304"/><radialGradient xlink:href="#q" id="Y" gradientUnits="userSpaceOnUse" gradientTransform="matrix(.592 0 0 .592 -90.392 25.667)" cx="43.959" cy="60.974" r="57.31"/><radialGradient xlink:href="#p" id="Z" gradientUnits="userSpaceOnUse" gradientTransform="matrix(.592 .003 -.003 .592 -86.478 4.843)" cx="41.03" cy="76.441" r="57.307"/><radialGradient xlink:href="#o" id="aa" gradientUnits="userSpaceOnUse" gradientTransform="matrix(.592 0 0 .592 -90.392 25.667)" cx="43.948" cy="60.964" r="57.306"/><radialGradient xlink:href="#n" id="ab" gradientUnits="userSpaceOnUse" gradientTransform="matrix(.592 .003 -.003 .592 -86.478 4.843)" cx="41.021" cy="76.428" r="57.312"/><radialGradient xlink:href="#m" id="ac" gradientUnits="userSpaceOnUse" gradientTransform="matrix(.483 .006 -.007 .591 -84.621 25.384)" cx="48.389" cy="72.037" fx="48.389" fy="72.037" r="46.679"/><radialGradient xlink:href="#l" id="ad" gradientUnits="userSpaceOnUse" gradientTransform="matrix(.592 .003 -.003 .592 -86.478 4.843)" cx="41.03" cy="76.444" r="57.307"/><radialGradient xlink:href="#k" id="ae" gradientUnits="userSpaceOnUse" gradientTransform="matrix(.592 .003 -.003 .592 -86.478 4.843)" cx="41.075" cy="76.471" r="57.266"/><radialGradient xlink:href="#j" id="af" gradientUnits="userSpaceOnUse" gradientTransform="matrix(.592 .003 -.003 .592 -86.478 4.843)" cx="41.031" cy="76.42" r="57.328"/><radialGradient xlink:href="#i" id="ag" gradientUnits="userSpaceOnUse" gradientTransform="matrix(.592 .003 -.003 .592 -86.478 4.843)" cx="41.213" cy="76.448" r="57.159"/><radialGradient xlink:href="#h" id="ah" gradientUnits="userSpaceOnUse" gradientTransform="matrix(.592 .003 -.003 .592 -86.478 4.843)" cx="41.099" cy="76.45" r="57.253"/><radialGradient xlink:href="#g" id="ai" gradientUnits="userSpaceOnUse" gradientTransform="matrix(.592 .003 -.003 .592 -86.478 4.843)" cx="40.553" cy="76.454" r="57.654"/><radialGradient xlink:href="#f" id="aj" gradientUnits="userSpaceOnUse" gradientTransform="matrix(.592 .003 -.003 .592 -86.478 4.843)" cx="41.079" cy="76.438" r="57.272"/><radialGradient xlink:href="#e" id="ak" gradientUnits="userSpaceOnUse" gradientTransform="matrix(.592 .003 -.003 .592 -86.478 4.843)" cx="41.09" cy="76.441" r="57.261"/><radialGradient xlink:href="#d" id="al" gradientUnits="userSpaceOnUse" gradientTransform="matrix(.592 .003 -.003 .592 -86.478 4.843)" cx="41.267" cy="76.44" r="57.117"/><radialGradient xlink:href="#c" id="am" gradientUnits="userSpaceOnUse" gradientTransform="matrix(.592 .003 -.003 .592 -86.478 4.843)" cx="41.043" cy="76.447" r="57.299"/><radialGradient xlink:href="#b" id="an" gradientUnits="userSpaceOnUse" gradientTransform="matrix(.621 0 0 .621 -92 24)" cx="75.122" cy="45.164" r="30.476"/><radialGradient xlink:href="#b" id="ao" gradientUnits="userSpaceOnUse" gradientTransform="matrix(.685 0 0 .265 -95.724 47.443)" cx="51.922" cy="64.665" fx="51.922" fy="64.665" r="37.981"/><radialGradient xlink:href="#b" id="ap" gradientUnits="userSpaceOnUse" gradientTransform="matrix(.685 0 0 .13 -95.724 71.922)" cx="55.237" cy="93.081" fx="55.237" fy="93.081" r="36.429"/><linearGradient xlink:href="#b" id="aq" gradientUnits="userSpaceOnUse" gradientTransform="matrix(.621 0 0 .621 -92 24)" x1="90.727" y1="42.275" x2="109.81" y2="42.275"/><radialGradient xlink:href="#a" id="ar" gradientUnits="userSpaceOnUse" gradientTransform="matrix(.619 -.042 .042 .619 -94.742 26.716)" cx="61.417" cy="70.336" fx="64.086" fy="76.87" r="7.058"/><radialGradient xlink:href="#a" id="as" gradientUnits="userSpaceOnUse" gradientTransform="matrix(.548 .292 -.292 .548 -52.914 9.844)" cx="66.301" cy="106.353" fx="59.748" fy="106.177" r="6.555"/><radialGradient xlink:href="#a" id="at" gradientUnits="userSpaceOnUse" gradientTransform="matrix(.515 .346 -.346 .515 -77.388 9.472)" cx="47.582" cy="30.584" fx="50.021" fy="27.667" r="5.6"/></defs><path d="M14 7v115h65.821s12.402-10.172 18.132-15.819c5.729-5.647 16.048-17.872 16.048-17.872v-81.309h-100z" opacity=".5" filter="url(#G)"/><path d="M16 8v112h63.146l32.854-32.854v-79.146h-96z" fill="#fff"/><path d="M18 9c-.551 0-1 .449-1 1v107.964c0 .552.449 1 1 1h59.172c.263 0 2.763.118 2.949-.069l30.586-30.8c.187-.187.293-2.685.293-2.948v-75.147c0-.551-.448-1-1-1h-92z" fill="url(#H)"/><path transform="matrix(.629 0 0 .744 15.181 8.279)" d="M124 117.875a49.25 5.375 0 1 1-98.5 0 49.25 5.375 0 1 1 98.5 0z" opacity=".7" fill="url(#I)" fill-rule="evenodd" filter="url(#J)"/><path d="M81.88 115.982l24.31-24.31s-9.353 2.913-19.603 2.913c0 10.25-4.706 21.396-4.706 21.396z" clip-path="url(#K)" opacity=".4" filter="url(#L)"/><path d="M79.172 120s11.914-9.914 17.414-15.414c5.5-5.5 15.414-17.414 15.414-17.414s-13.75 8.828-24 8.828c0 10.25-8.828 24-8.828 24z" fill="url(#M)"/><g transform="translate(120)"><circle transform="matrix(.633 0 0 .633 -92.735 23.265)" cx="58.001" cy="58" r="56.84" fill="url(#N)"/><path d="M-59.43 25.057c-1.62.161-3.257.443-4.868.837l-.075.028c-.283.15-.582.316-.842.553 0 .002-1.193 1.361-1.193 2.306l.022.21c.07.3.26.519.552.636.42.169 1.009.081 1.135-.001l.294-.309.07-.092c1.019-1.182 1.791-1.767 1.95-1.85.488-.014.74-.21 1.748-1.007l.03-.024c.291-.23.645-.375 1.019-.529l.321-.134c.123-.052.197-.171.197-.299l-.01-.082c-.039-.156-.19-.259-.351-.243z" fill="url(#O)"/><path d="M-64.995 26.717c-.012.009-1.235 1.487-1.073 2.202.158.675 1.181.439 1.19.434.115-.074.207-.239.295-.34 1.109-1.288 2.012-1.961 2.122-1.96.433.002.592-.127 1.65-.964.416-.328.927-.495 1.411-.706-1.643.164-3.252.445-4.823.829-.274.145-.546.297-.774.506z" fill="url(#P)"/><path d="M-59.854 26.086c-.084.003-.168.043-.226.102-.126.129-.362.371-.454.673-.076.247-.091.487-.106.719-.013.201-.024.39-.076.563-.038.13.008.272.115.353.109.083.257.089.372.016.304-.193.381-.202.539-.208.174-.007.359-.031.616-.228l.122-.115c.038-.049.385-.92.165-1.406-.227-.502-.774-.481-1.067-.47z" fill="url(#Q)"/><path d="M-59.841 26.413c-.109.11-.311.314-.381.545l-.18 1.279c.33-.209.462-.25.701-.259.112-.004.23-.008.429-.16l.052-.043c.004-.006.284-.754.135-1.084-.113-.253-.365-.295-.757-.279z" fill="url(#R)"/><path d="M-67.518 26.846c-2.072.721-4.095 1.647-6.013 2.753-.062.035-.102.073-.13.137l-.142.335c-.036.085-.031.17.007.254.038.084.114.138.2.166.237.078.385.105.547.086-.091.249-.129.46-.129.658 0 .208.037.405.086.626.022.101.091.186.186.228l.452.202c.125.055.271.028.367-.07.491-.501.601-.516 1.012-.573.099-.014.186-.072.237-.158.766-1.301.926-1.572 3.652-4.095.114-.105.138-.276.058-.408-.079-.132-.24-.191-.387-.14z" fill="url(#S)"/><path d="M-72.774 31.791l.452.202c.568-.58.751-.606 1.201-.667.802-1.362 1.014-1.673 3.711-4.17-2.082.725-4.073 1.642-5.958 2.728l-.127.298c.395.128.395.128 1.097-.188-.563.937-.49 1.278-.377 1.798z" fill="url(#T)"/><path d="M-58.434 29.162l-.088.224-.008.016-.14.398c-.013.115-.002.398.351.537.081.031.179.003.259-.032.079-.035.15-.127.182-.207l.088-.227.114-.281c.088-.304-.032-.552-.321-.664-.168-.065-.372.07-.438.236z" fill="url(#U)"/><path d="M-58.231 29.532c-.059.123-.106.219-.115.303-.014.137.091.177.146.199.038-.19.155-.351.209-.536.047-.163-.015-.225-.125-.267-.017.081-.035.142-.115.302z" fill="url(#V)"/><path d="M-53.628 25.095c-.066.083-.09.193-.06.296.22.765.298 1.389.232 1.855-.496 3.53.505 4.599 1.431 4.874l.146.014c.023.529.223 1.051.713 1.703l-.786 1.159-.044-.14c-.029-.086-.093-.155-.177-.192-.731-.32-1.57-.958-1.57-2.198l.011-.249.002-.028c0-.078-.029-.154-.081-.214-.057-.067-.14-.107-.228-.113-.065-.004-.151-.018-.187-.063-.025-.033-.047-.096-.047-.22 0-.097.014-.23.05-.414l.006-.047c0-.091-.051-.177-.118-.243-.076-.077-.208-.104-.315-.083l-.044.012c-.333.115-.354.132-1.489 1.011-.079.061-.125.155-.126.256v.038c0 .693.157 1.131.553 1.739-.328.104-.503.376-.621.578-.154.263-.204.308-.334.302-.117-.004-.227.053-.288.151-.063.099-.068.222-.014.325.136.263.157.575.179.904.029.43.061.918.371 1.359.056.08.145.131.242.139.408.031.644-.142.851-.323.117-.102.205-.215.286-.328-.089.258-.139.452-.139.651 0 .132.016.277.043.469.016.102.078.19.168.24.09.048.197.053.29.011.304-.137.579-.313.844-.49l-.438.645-.056.183c0 .08.029.16.088.222.767.832 1.225 1.327 1.458 1.597l-2.511.576c-.151.035-.257.17-.257.32l.006.064c.105.514.155 1.054.202 1.577.088.966.179 1.965.615 2.919.072.156.252.231.413.169.4-.151.845-.126 1.318-.099l.03.001-.079.061c-1.152 2.051-1.552 2.765-1.552 3.22 0 .141.047.261.114.384-1.368 1.225-1.622 1.994-2.717 5.467l-.015.099c0 .104.05.205.139.268.393.276.565.397.565 1.016 0 .218-.022.498-.062.868l-.022.39c0 2.77 3.373 4.306 4.875 4.853 1.999.727 3.771.017 5.486-.67 1.593-.639 3.106-1.228 4.769-.731.001.33.07.647.138.953.063.285.124.56.124.826 0 .146-.018.289-.063.43l-.016.101.04.157c.044.079.117.137.205.159.639.168 1.971.513 2.666 1.784.302.554.452 1.225.452 2.009 0 .873-.186 1.886-.561 3.031l-.016.101c0 .091.038.179.107.243 1.937 1.758 1.937 1.758 2.031 2.989l.047.145 2.45 4.036c.086.142.264.194.416.126 2.418-1.099 6.048-2.76 6.257-7.178.5-.3.583-.516 1.21-2.244l.021-.114-.045-.163c-.049-.084-.131-.142-.228-.156l-.084-.013c-.024-.22-.052-.439-.052-.639 0-.789.278-1.495 1.529-2.771.06-.061.093-.143.093-.229l-.002-.029c-.086-.999-.457-1.926-.817-2.82-.405-1.011-.79-1.969-.79-3.013l.01-.269c.07-1.079.31-2.177.544-3.238.284-1.304.578-2.636.578-4 0-.808-.102-1.627-.37-2.458-.03-.098-.106-.175-.204-.208-.097-.034-.205-.02-.29.038-.384.259-.577.652-.748.999-.203.415-.367.686-.693.819-.126-.142-.2-.259-.2-.32l.002-.014c.017-.128.311-.274.469-.351.647-.32 1.501-2.048 1.501-4.275 0-.953-.157-1.998-.553-3.062-.038-.102-.125-.179-.231-.204-.118-.027-.175-.058-1.262-.753l1.289-.608c.086-.041.151-.117.176-.209l.012-.088-.055-.182c-6.149-9.142-15.962-14.828-26.927-15.597-.107-.007-.21.037-.277.12zm3.886 3.923l.287.13.023.125c.054.253.127.495.202.734l-.096.011c-.018-.191-.07-.406-.22-.686l-.196-.313zm1.017 2.316l.004-.015.222.473c-.259.065-.389.26-.472.544-.028.099-.075.178-.17.243l-.03-.11c0-.072.038-.132.098-.228.117-.182.192-.351.192-.539l-.053-.212c.088-.021.164-.076.209-.155zm.192 9.396l.003.04-.004.2-.002.214c0 .343.032.713.244 1.067.383.636.899.698 1.449.737-1.221.261-2.246.902-3.242 1.532l-.419.262.037-.21c.03-.197.055-.367.138-.493.113-.17.354-.305.61-.448.429-.239.996-.555.996-1.213 0-.105-.014-.219-.045-.342-.042-.161-.197-.264-.362-.243-.111.016-.193.033-.273.074l.22-.565c.335-.133.523-.386.65-.613zm2.09 2.092c.106-.196.156-.358.156-.515 0-.286-.178-.569-.505-1.012.184.055.374.091.561.124.497.089.794.169.942.446l-.121.068-.528.314c-.091.055-.132.137-.132.232l.02.122.125.269c-.214.009-.421.029-.624.06l.107-.109zm2.556.051c.121-.26.183-.53.241-.791.065-.283.131-.536.259-.754.24.552.509.754 1.583 1.531.104.075.243.083.352.02.43-.243.747-.581 1.053-.906.148-.159.3-.294.452-.431.408.413.933.734 1.793.126l.163.286c.043.092.127.158.227.179l.333.069c.102.022.194.007.272-.063l.406-.371c.053.174.087.338.087.485 0 .2-.049.377-.148.533-.316.495-1.339 1.076-4.416 1.028-.087-.001-.171.032-.233.093-.063.061-.097.145-.098.232-.006 1.003-.007 1.249-.112 1.426-.659-.274-1.348-.369-2.019-.449-.485-.058-.943-.128-1.385-.249l.03-.311c0-.303-.062-.621-.245-1.064l.244.05c.516.036.996-.312 1.163-.667zm14.806-.633c-.114.204-.238.344-.412.475l-.196-.189.608-.286zm-3.648 4.381c.113.024.228.042.359.036l.187.376-.546-.412zm1.791 1.722l-.039-.051.295.173c.454.259.819.493 1.146 1.093-.128.009-.31-.023-.55-.227-.329-.28-.583-.624-.853-.988zm-10.564 12.646l.003-.042-.003.042z" fill="url(#W)"/><path d="M-27.549 70.953c.543-.304.543-.304 1.216-2.159l-.333-.052c-.155-1.304-.248-2.09 1.547-3.922-.182-2.131-1.74-3.943-1.598-6.152.206-3.195 1.823-6.288.768-9.575-.747.503-.635 1.696-1.718 1.928-.892-.811-.195-1.153.222-1.36.685-.338 2.089-3.424.784-6.93-.189-.045-.189-.045-1.791-1.071-.37.9-.482 1.092-1.069 1.479-1.465-1.401-1.465-1.401-1.452-1.506l.354-.022c.251.214.478.449.749.641l3.174-1.495c-5.865-8.728-15.553-14.676-26.675-15.455.202.706.323 1.414.242 1.991-.462 3.296.396 4.277 1.2 4.515.215-.356.186-.831.59-1.094-.32 1.28-.418 1.896.575 3.118l-1.529 2.255.097-.672c.001-.14-.059-.317-.104-.45-.718-.315-1.9-1.092-1.755-2.774-.614-.036-.589-.569-.486-1.087l-.043.012c-.283.098-.283.098-1.397.961-.005.8.189 1.195.809 2.05.574.786.608 1.057.204 1.525-.058-.745-.176-1.1-.508-1.521-.685-.013-.552.957-1.245.929.364.701.049 1.547.526 2.227.282.021.439-.093.611-.244.269-.236.393-.567.621-.831.18-.207.6-.286.252.659-.204.554-.218.662-.143 1.164.731-.328 1.318-.906 2.062-1.208l-1.251 1.845c1.715 1.858 1.715 1.858 1.732 2.036-1.097.27-1.815.432-2.954.677.299 1.469.148 3.012.793 4.425 1.053-.4 2.26.254 3.271-.43.541-.367.304-1.022.603-1.477.426-.644 1.784-.705 1.518-1.742-.248.034-.248.034-1.052 1.089-.174-.037-.395-.158-.513-.284.664-.42.814-.815 1.216-1.873.646-.124.614-.842 1.088-1.119.323.672-.065 1.447.335 2.112.315.523.719.547 1.282.586.233-.438.146-.555-.525-1.447l.157-.423c.685.492 1.987.09 2.211 1.216-.274.181-.593.29-.853.492.348 1.135 1.349.673 1.555.229.313-.668.19-1.514.912-2.016.313.902.313.902 1.659 1.876.678-.385 1.073-1.06 1.683-1.516.489.545.874.973 1.851.117.128.176.289.421.382.617l.335.07.74-.677c.973 2.012-.579 2.999-4.614 2.935-.008 1.455-.008 1.455-.337 1.817-1.208-.604-2.606-.415-3.858-.842.094-.625.118-.968-.362-1.927-2.806.042-4.504 2.392-7.016 3.048-1.666 2.968-1.666 2.968-1.304 3.505-1.494 1.284-1.672 1.845-2.824 5.503.672.473.8.715.641 2.187-.31 2.782 3.142 4.355 4.64 4.899 3.752 1.368 6.731-2.685 10.482-1.341-.108.864.449 1.687.169 2.558 1.177.307 4.75 1.243 2.786 7.24 2.033 1.846 2.033 1.846 2.138 3.208l2.45 4.035c2.38-1.081 5.976-2.717 6.082-7.078zm-21.11-38.521c-.041.146-.112.388-.452.511l-.17.047c-.338-.498-.22-.685-.067-.925.16-.244.281-.437-.197-1.022.186.019.338.174.538.129.13-.227-.215-.48.046-.7-.171-.183-.171-.183-.701-.052.038-.205.084-.464-.17-.935-.41-.771-1.063-1.393-1.486-2.159.324-.14.145-.52-.102-1.046-.218-.466-.2-.562-.108-.668.403.57.468.77.461 1.41v.184c1.129 1.561 1.706 1.644 1.896 1.672l.061.323c.254 1.201.82 2.289 1.159 2.94-.581-.146-.624.012-.707.292zm18.361 17.148c-.701-.598-1.081-1.448-1.771-2.054-.66-.576-1.46-.988-2.088-1.604-.387-.384-.482-.502-.799-.934 1.228-.127 1.476 1.603 2.783 1.321.498 1.219 1.035 1.523 1.653 1.874.532.304 1.035.587 1.446 1.561l-.19.091c-.342.124-.69.038-1.034-.255z" fill="url(#X)"/><path d="M-74.71 30.811c-.15.147-.338.286-.504.388l-.202-.087c-.102-.045-.217-.035-.31.027l-.315.211c-.078.052-.132.143-.145.234l-.043.304-.016.106-.003.048c0 .091.048.167.112.228-1.228 1.085-2.122 2.405-2.971 3.7-.515.787-1.059 1.586-1.662 2.324.087-.237.303-.605.814-1.362l.055-.182-.055-.181c-.176-.263-.417-.625-.578-1.041-.04-.104-.13-.18-.238-.202-.108-.023-.22.011-.299.09-4.624 4.678-7.847 10.526-9.322 16.909-.032.14.035.281.159.353.125.072.284.05.39-.047l.087-.081c1.549.678 2.431 1.073 2.73 1.445.089.11.13.23.13.388 0 .244-.102.59-.278 1.124-.644.161-.768.312-.961 1.092l-.009.078c0 .073.025.144.07.202.485.616.776.768 2.017.601.068.248.155.483.258.688l-.226.757-.013.089c0 .104.054.201.146.264.527.357.705.31 1.601-.175.539.618.901.598 3.714.444 1.147-.063 1.147-.063 2.051 2.067.038.089.112.156.204.185l.467.145c.148.047.306-.015.38-.151l.181-.328c.062-.114.05-.248-.027-.35-.315-.42-.511-.898-.718-1.402l-.484-1.055c-.045-.099-.124-.145-.231-.163-.186-.032-.436-.164-.533-.283-.064-.078-.16-.122-.26-.12-1.701.039-1.701.039-3.609-2.012-.077-.082-.193-.118-.304-.097l-.111.021c-.697-1.579-.821-1.878-.821-2.038l.011-.093.006-.063c0-.076-.026-.15-.077-.209-.065-.074-.156-.116-.254-.112l-.146.005-.243.002c-.556-.052-.626-.27-.649-.341l-.03-.212c0-1.676 4.661-6.372 5.681-7.261.073-.063.116-.157.116-.252l-.007-.064-.04-.272c0-.107.033-.222.114-.455 3.041-.322 3.484-.406 4.578-2.143l.025-.089c1.703.235 1.729.247 1.894.462.066.086.171.133.279.127.108-.006.206-.066.261-.16.393-.662.643-1.234.643-1.768 0-.453-.195-.881-.622-1.315l.714-1.871.022-.121c0-.082-.029-.163-.084-.223-.482-.524-.714-.777-.714-1.37 0-.556.204-1.409.6-3.062l.009-.075c0-.092-.038-.181-.109-.244-.089-.079-.215-.105-.328-.064-.392.141-.657.439-.891.703l-.284.294c.493-.713.527-.808.595-1.119l.007-.071c0-.074-.024-.145-.071-.203l-.109-.137.29-.716.024-.122c0-.08-.03-.159-.086-.22-.084-.093-.215-.129-.335-.093-.135.04-.326.063-.499.064l-.079-.185c-.043-.099-.131-.17-.237-.191-.106-.021-.217.011-.294.086zm-.725 10.331c.22-.395.423-.62.606-.757l-.195.243c-.315.369-.632.755-.755 1.281-.178-.052-.356-.087-.521-.107-.187-.025-.348-.06-.492-.115.087-.252.163-.354.366-.539.199.036.422.088.608.146.148.048.308-.016.384-.151z" fill="url(#Y)"/><path d="M-89.82 52.164c3.582 1.565 3.582 1.565 2.902 3.611-.717.16-.717.16-.899.901.416.528.53.67 2 .442.04.322.208.737.364 1.027-.092.258-.189.601-.257.862.408.276.408.276 1.498-.319.56.701.56.701 3.617.533 1.375-.076 1.375-.076 2.369 2.266l.467.145.178-.322c-.572-.761-.773-1.682-1.226-2.494-.247-.042-.575-.208-.731-.399-1.848.043-1.848.043-3.857-2.114l-.37.07c-.993-2.249-.993-2.249-.937-2.558l-.423.006c-3.79-.349 4.718-8.308 4.821-8.389-.086-.416-.086-.416.152-1.096 3.243-.342 3.507-.371 4.542-2.014-.483-.282-1.123-.106-1.58-.469.204-.647.204-.647.664-1.055.246.034.569.11.807.186.672-1.209 1.313-1.141 1.586-1.114-.288.816-1.186 1.293-1.349 2.182 2.074.286 2.074.286 2.329.618.814-1.375.796-2.064-.077-2.84.333-.935.422-1.169.79-2.072-1.051-1.142-1.051-1.142-.192-4.728-.79.282-.994 1.438-2.09 1.271 1.007-1.436 1.007-1.436 1.08-1.771l-.229-.285.363-.894c-.234.07-.57.095-.812.067l-.16-.372c-.187.183-.47.404-.706.522l-.359-.155-.315.212-.06.419.379.129c-2.305 1.811-3.363 4.512-5.217 6.643l-.376-.048c-.048-.413-.067-.567.909-2.017-.189-.284-.439-.66-.611-1.105-4.491 4.545-7.746 10.308-9.235 16.756l.253-.233z" fill="url(#Z)"/><path d="M-89.299 67.664c-.092.078-.138.198-.113.317.104.477.093.677.037 1.088-.012.089.011.176.066.246.055.07.134.115.222.123l1.202.119c.102.011.22-.026.29-.102.069-.076.117-.177.097-.278-.09-.487-.223-.78-.475-1.04l-.397-.281-.374-.158-.219-.087c-.113-.044-.245-.025-.336.054z" fill="url(#aa)"/><path d="M-87.859 69.23l.039.006c-.078-.424-.183-.66-.388-.873-.042-.041-.135-.127-.31-.215l-.575-.238c.117.533.1.775.042 1.203.391.043.792.086 1.192.117z" fill="url(#ab)"/><path d="M-90.131 57.312c-.237.287-.482.574-.737.713l-.106-.016c-.158.022-.273.159-.277.319l-.053 1.762c0 .143.095.264.234.306.2.058.393.072.587.092.132.766.408 1.278.838 1.495.273.138.565.135.818.071.323.77 1.161 2.488 2.331 2.849.351.11.698.079 1.036-.062.066.22.107.439.107.657 0 .534-.164 1.067-.333 1.617-.178.58-.362 1.179-.362 1.81l.001.052c.017.225.18 2.024 1.068 3.119 3.425 4.226 3.425 4.226 4.239 4.63.803.396 1.346.787 1.619 1.163l2.702 6.293c.93 4.093 5.096 7.688 7.642 8.615 1.02.372 1.83.361 2.341-.032.081-.063.128-.159.128-.259l-.004-.051c-.019-.119-.102-.218-.215-.258-.934-.325-1.56-1.004-2.223-1.722-.48-.521-.981-1.046-1.605-1.45l.093-.095c.061-.061.094-.125.094-.207l-.002-.038-.133-1.044-.084-.576c.516-.407.884-.456 1.109-.475.09-.007.176-.052.232-.122.047-.058.074-.132.074-.207l-.003-.042c-.08-.56-.089-.618-.089-1.167v-.042c.65-.382.891-1.007 1.086-1.578.178-.521.331-.971.763-1.233.099-.059.157-.166.157-.279l-.001-.032c-.031-.312-.119-.602-.203-.883-.081-.269-.148-.526-.169-.781.558-.348.709-.397 2.363-.911.101-.032.185-.12.217-.222.31-.961.539-1.673.539-2.484 0-.426-.063-.88-.211-1.41-.038-.136-.055-.26-.055-.38 0-.55.365-.958.775-1.418.342-.383.697-.781.857-1.292.049-.158.073-.32.073-.485 0-.536-.258-1.1-.752-1.632-.971-1.045-2.904-1.942-4.573-1.549-.711.168-2.869-.93-3.973-1.582l.117-.268.028-.131-.038-.154c-.649-1.222-1.831-1.451-2.873-1.653-.682-.132-1.326-.258-1.825-.621-.369-.269-.513-.659-.678-1.11-.097-.265-.197-.538-.351-.797-.088-.146-.275-.2-.429-.123-1.212.614-2.12.4-3.473-.824-.122-.11-.306-.112-.43-.006-.562.477-.608.514-2.128.774-.155.026-.269.159-.272.317-.014.711-.04.866-.428 1.218-.305-.362-.614-.389-1.603-.349-.24-2.721-.341-3.079-1.776-3.807.047-.276.105-.55.183-.839.133-.49.271-.996.271-1.539l-.001-.065c-.002-.102-.052-.198-.135-.258-.971-.698-1.634.106-2.118.692z" fill="url(#ac)"/><path d="M-78.84 77.716l2.722 6.338c1.124 5.12 7.722 9.804 9.483 8.449-1.857-.646-2.573-2.567-4.241-3.419l.379-.385c-.033-.6-.181-1.185-.241-1.781.679-.596 1.174-.634 1.439-.657-.092-.647-.092-.647-.091-1.428 1.309-.572.877-2.232 2.006-2.917-.063-.637-.403-1.218-.39-1.868.755-.474.755-.474 2.609-1.05.47-1.46.732-2.264.327-3.717-.418-1.505 1.217-2.113 1.579-3.277.526-1.685-2.61-3.781-4.864-3.25-1.114.263-4.43-1.746-4.464-1.766l.235-.531c-.965-1.816-3.218-1.154-4.603-2.163-.695-.506-.724-1.348-1.117-2.004-1.343.681-2.383.444-3.841-.875-.599.51-.677.575-2.284.847-.018.935-.046 1.06-.808 1.695-.361-.556-.361-.556-1.848-.493-.279-3.198-.279-3.198-1.85-3.97.099-.882.516-1.71.497-2.611-1.18-.85-1.678 1.211-2.702 1.521l-.017-.058c-.033.575-.048 1.153-.052 1.735.227.066.475.116.773.124.254 2.106 1.427 1.509 1.562 1.433.155.413 1.571 4 3.368 2.741.762 1.611-.472 3.047-.446 4.592.001.017.132 1.852.996 2.917 3.38 4.17 3.38 4.17 4.131 4.541.863.427 1.454.859 1.755 1.286z" fill="url(#ad)"/><path d="M-24.567 61.583c-.093.069-.126.378.001.484.092.076.21.018.196-.283-.006-.127-.102-.248-.197-.201z" fill="url(#ae)"/><path d="M-66.215 91.204l-1.022.016c.442.558.898.791 1.435.737l-.146-.451-.031-.049-.235-.253z" fill="url(#af)"/><path d="M-23.009 59.644c-.001-.059-.035-.178-.106-.132-.113.092-.25.449-.128.558.09.079.239-.261.234-.426z" fill="url(#ag)"/><path d="M-21.133 55.079l-.106-.21c-.081-.113-.134-.078-.182-.043.128.4.231.743.349 1.146l.049-.007-.11-.886z" fill="url(#ah)"/><path d="M-21.123 64.741c-.077.07-.128.38-.042.482l.07.014.065-.476-.093-.02z" fill="url(#ai)"/><path d="M-22.258 59.466l-.013-.102c-.104.14-.255.246-.336.404-.067.127-.068.227-.048.347.101-.132.24-.238.33-.381.035-.055.076-.146.068-.268z" fill="url(#aj)"/><path d="M-23.364 62.403l-.138-.789-.524.353.137.789.492-.331.034-.022z" fill="url(#ak)"/><path d="M-21.717 57.192c.141.227.248-.088.348-.428l.012-.043c-.001-.022-.097-.303-.293-.149-.13.127-.187.425-.067.621z" fill="url(#al)"/><path d="M-23.936 68.574c.38-.317 1.111.109 1.33-.495.006-.017.64-4.679.643-4.918.016-1.822-.572-2.264-.853-2.477-.079 1.593-.367 2.305-1.225 3.042.217.97.253 1.501.054 2.738-.164 1.013-.178 1.367.052 2.11z" fill="url(#am)"/><path d="M-58.398 41.63c-3.874-.731-7.643-1.024-11.223-.844 11.454 2.133 23.234 6.388 35.472 13.722 4.256 2.55 8.574 5.486 12.949 8.822.059-.812.076-1.617.076-2.423-11.549-10.153-24.934-16.952-37.274-19.278z" opacity=".8" fill="url(#an)"/><path d="M-34.149 54.508c-5.511 8.093-33.11 17.697-52.027 18.16.245.657.509 1.313.794 1.95 22.527.225 45.474-10.788 51.233-20.11z" opacity=".8" fill="url(#ao)" fill-rule="evenodd"/><path d="M-32.942 86.562c-20.68 1.498-36.691-1.532-49.9-7.273.242.371.488.74.745 1.104 11.733 7.442 30.144 10.393 48.217 6.926.315-.249.633-.497.938-.757z" opacity=".8" fill="url(#ap)" fill-rule="evenodd"/><path d="M-24.754 44.136c-4.044 6.647-7.448 10.528-10.932 12.206 3.845-1.645 7.625-4.725 11.845-10.385l-.912-1.82z" opacity=".8" fill="url(#aq)" fill-rule="evenodd"/><path d="M-55.032 67.861c-1.109-.472-2.208-.903-3.198-1.135 1.12-.038 2.284.062 3.468.209-.426-1.109-.793-2.195-.972-3.228.43.832 1.094 1.781 1.81 2.745.472-1.11.903-2.208 1.135-3.199.038 1.12-.059 2.285-.207 3.468 1.109-.426 2.194-.793 3.226-.972-.83.43-1.78 1.095-2.743 1.811 1.109.471 2.207.902 3.198 1.134-1.12.038-2.284-.06-3.467-.209.425 1.109.791 2.194.971 3.226-.431-.832-1.094-1.78-1.811-2.742-.471 1.11-.902 2.208-1.135 3.197-.038-1.119.062-2.282.207-3.467-1.108.426-2.193.791-3.224.971.831-.43 1.779-1.095 2.742-1.81z" fill="url(#ar)"/><path d="M-48.732 86.961c-.645-.917-1.299-1.796-1.965-2.465.902.521 1.771 1.171 2.631 1.867.21-1.082.452-2.119.818-3.022-.069.867-.011 1.943.079 3.053.917-.644 1.797-1.297 2.466-1.964-.521.901-1.169 1.771-1.867 2.632 1.083.21 2.12.453 3.02.819-.866-.07-1.942-.011-3.054.078.644.917 1.298 1.797 1.966 2.465-.902-.518-1.773-1.168-2.63-1.866-.211 1.083-.456 2.118-.817 3.019.067-.866.009-1.94-.082-3.051-.917.644-1.796 1.297-2.465 1.964.52-.901 1.168-1.77 1.865-2.631-1.081-.21-2.118-.453-3.018-.817.866.07 1.939.01 3.052-.081z" fill="url(#as)"/><path d="M-64.312 41.176c-.467-.835-.947-1.638-1.456-2.265.721.52 1.403 1.147 2.074 1.814.272-.902.569-1.762.957-2.496-.133.73-.177 1.648-.197 2.6.835-.467 1.639-.947 2.266-1.456-.52.722-1.147 1.404-1.814 2.076.902.271 1.762.568 2.495.956-.73-.133-1.649-.178-2.6-.196.467.834.947 1.638 1.456 2.264-.722-.52-1.404-1.146-2.074-1.813-.271.902-.569 1.761-.956 2.495.133-.73.176-1.648.195-2.6-.835.468-1.638.948-2.264 1.457.52-.722 1.146-1.404 1.813-2.075-.902-.271-1.761-.568-2.495-.956.731.133 1.649.176 2.601.195z" fill="url(#at)"/></g></svg>