<svg xmlns="http://www.w3.org/2000/svg" xmlns:cc="http://web.resource.org/cc/" xmlns:svg="http://www.w3.org/2000/svg" xmlns:xlink="http://www.w3.org/1999/xlink" id="svg2606" width="128" height="128" version="1.0"><defs id="defs2608"><linearGradient id="linearGradient5298"><stop style="stop-color:#000;stop-opacity:1" id="stop5300" offset="0"/><stop style="stop-color:#000;stop-opacity:0" id="stop5302" offset="1"/></linearGradient><filter id="filter4491" width="1.117" height="2.071" x="-.058" y="-.536"><feGaussianBlur id="feGaussianBlur4493" stdDeviation="2.399"/></filter><radialGradient id="radialGradient3435" cx="47.582" cy="30.584" r="5.6" fx="50.021" fy="27.667" gradientTransform="matrix(0.778406,0.5225629,-0.5225629,0.778406,26.600867,-18.318688)" gradientUnits="userSpaceOnUse" xlink:href="#XMLID_72_"/><radialGradient id="radialGradient3438" cx="66.301" cy="106.353" r="6.555" fx="59.748" fy="106.177" gradientTransform="matrix(0.8272502,0.4411873,-0.4411873,0.8272502,63.567061,-17.756281)" gradientUnits="userSpaceOnUse" xlink:href="#XMLID_72_"/><radialGradient id="XMLID_72_" cx="47.582" cy="30.584" r="5.6" fx="50.021" fy="27.667" gradientTransform="matrix(0.8303,0.5574,-0.5574,0.8303,23.5409,-23.4065)" gradientUnits="userSpaceOnUse"><stop id="stop3765" offset="0" style="stop-color:#fff"/><stop id="stop3767" offset="1" style="stop-color:white;stop-opacity:0"/></radialGradient><radialGradient id="radialGradient3441" cx="61.417" cy="70.336" r="7.058" fx="64.086" fy="76.87" gradientTransform="matrix(0.9353444,-6.3000015e-2,6.3000015e-2,0.9353444,0.3897673,7.7268485)" gradientUnits="userSpaceOnUse" xlink:href="#XMLID_72_"/><linearGradient id="linearGradient3444" x1="90.727" x2="109.81" y1="42.275" y2="42.275" gradientTransform="matrix(0.9375002,0,0,0.9375002,4.5312683,3.6249103)" gradientUnits="userSpaceOnUse" xlink:href="#XMLID_66_"/><radialGradient id="radialGradient3447" cx="55.237" cy="93.081" r="36.429" fx="55.237" fy="93.081" gradientTransform="matrix(1.034483,0,0,0.1964225,-1.093733,76.007779)" gradientUnits="userSpaceOnUse" xlink:href="#XMLID_66_"/><radialGradient id="radialGradient3450" cx="51.922" cy="64.665" r="37.981" fx="51.922" fy="64.665" gradientTransform="matrix(1.034483,0,0,0.3999342,-1.093733,39.033132)" gradientUnits="userSpaceOnUse" xlink:href="#XMLID_66_"/><radialGradient id="XMLID_66_" cx="75.122" cy="45.164" r="30.476" gradientUnits="userSpaceOnUse"><stop style="stop-color:#fff" id="stop3717" offset="0"/><stop style="stop-color:white;stop-opacity:0" id="stop3719" offset="1"/></radialGradient><radialGradient id="radialGradient3453" cx="75.122" cy="45.164" r="30.476" gradientTransform="matrix(0.9375002,0,0,0.9375002,4.5312683,3.6249103)" gradientUnits="userSpaceOnUse" xlink:href="#XMLID_66_"/><radialGradient id="XMLID_65_" cx="41.043" cy="76.447" r="57.299" gradientTransform="matrix(0.953,4.2e-3,-4.2e-3,0.953,8.8966,-30.8642)" gradientUnits="userSpaceOnUse"><stop id="stop3702" offset=".248" style="stop-color:#fff"/><stop id="stop3704" offset=".521" style="stop-color:#c7ecff"/><stop id="stop3706" offset=".751" style="stop-color:#7ac3ff"/><stop id="stop3708" offset=".858" style="stop-color:#63b8ff"/><stop id="stop3710" offset=".953" style="stop-color:#8acaff"/></radialGradient><radialGradient id="radialGradient3456" cx="41.043" cy="76.447" r="57.299" gradientTransform="matrix(0.8934374,3.9375009e-3,-3.9375009e-3,0.8934374,12.871829,-25.310283)" gradientUnits="userSpaceOnUse" xlink:href="#XMLID_65_"/><radialGradient id="XMLID_64_" cx="41.267" cy="76.44" r="57.117" gradientTransform="matrix(0.953,4.2e-3,-4.2e-3,0.953,8.8966,-30.8642)" gradientUnits="userSpaceOnUse"><stop id="stop3689" offset=".248" style="stop-color:#fff"/><stop id="stop3691" offset=".521" style="stop-color:#c7ecff"/><stop id="stop3693" offset=".751" style="stop-color:#7ac3ff"/><stop id="stop3695" offset=".858" style="stop-color:#63b8ff"/><stop id="stop3697" offset=".953" style="stop-color:#8acaff"/></radialGradient><radialGradient id="radialGradient3459" cx="41.267" cy="76.44" r="57.117" gradientTransform="matrix(0.8934374,3.9375009e-3,-3.9375009e-3,0.8934374,12.871829,-25.310283)" gradientUnits="userSpaceOnUse" xlink:href="#XMLID_64_"/><radialGradient id="XMLID_63_" cx="41.09" cy="76.441" r="57.261" gradientTransform="matrix(0.953,4.2e-3,-4.2e-3,0.953,8.8966,-30.8642)" gradientUnits="userSpaceOnUse"><stop id="stop3676" offset=".248" style="stop-color:#fff"/><stop id="stop3678" offset=".521" style="stop-color:#c7ecff"/><stop id="stop3680" offset=".751" style="stop-color:#7ac3ff"/><stop id="stop3682" offset=".858" style="stop-color:#63b8ff"/><stop id="stop3684" offset=".953" style="stop-color:#8acaff"/></radialGradient><radialGradient id="radialGradient3462" cx="41.09" cy="76.441" r="57.261" gradientTransform="matrix(0.8934374,3.9375009e-3,-3.9375009e-3,0.8934374,12.871829,-25.310283)" gradientUnits="userSpaceOnUse" xlink:href="#XMLID_63_"/><radialGradient id="XMLID_60_" cx="41.079" cy="76.438" r="57.272" gradientTransform="matrix(0.953,4.2e-3,-4.2e-3,0.953,8.8966,-30.8642)" gradientUnits="userSpaceOnUse"><stop id="stop3641" offset=".248" style="stop-color:#fff"/><stop id="stop3643" offset=".521" style="stop-color:#c7ecff"/><stop id="stop3645" offset=".751" style="stop-color:#7ac3ff"/><stop id="stop3647" offset=".858" style="stop-color:#63b8ff"/><stop id="stop3649" offset=".953" style="stop-color:#8acaff"/></radialGradient><radialGradient id="radialGradient3465" cx="41.079" cy="76.438" r="57.272" gradientTransform="matrix(0.8934374,3.9375009e-3,-3.9375009e-3,0.8934374,12.871829,-25.310283)" gradientUnits="userSpaceOnUse" xlink:href="#XMLID_60_"/><radialGradient id="XMLID_59_" cx="40.553" cy="76.454" r="57.654" gradientTransform="matrix(0.953,4.2e-3,-4.2e-3,0.953,8.8966,-30.8642)" gradientUnits="userSpaceOnUse"><stop id="stop3628" offset=".248" style="stop-color:#fff"/><stop id="stop3630" offset=".521" style="stop-color:#c7ecff"/><stop id="stop3632" offset=".751" style="stop-color:#7ac3ff"/><stop id="stop3634" offset=".858" style="stop-color:#63b8ff"/><stop id="stop3636" offset=".953" style="stop-color:#8acaff"/></radialGradient><radialGradient id="radialGradient3468" cx="40.553" cy="76.454" r="57.654" gradientTransform="matrix(0.8934374,3.9375009e-3,-3.9375009e-3,0.8934374,12.871829,-25.310283)" gradientUnits="userSpaceOnUse" xlink:href="#XMLID_59_"/><radialGradient id="XMLID_58_" cx="41.099" cy="76.45" r="57.253" gradientTransform="matrix(0.953,4.2e-3,-4.2e-3,0.953,8.8966,-30.8642)" gradientUnits="userSpaceOnUse"><stop id="stop3615" offset=".248" style="stop-color:#fff"/><stop id="stop3617" offset=".521" style="stop-color:#c7ecff"/><stop id="stop3619" offset=".751" style="stop-color:#7ac3ff"/><stop id="stop3621" offset=".858" style="stop-color:#63b8ff"/><stop id="stop3623" offset=".953" style="stop-color:#8acaff"/></radialGradient><radialGradient id="radialGradient3471" cx="41.099" cy="76.45" r="57.253" gradientTransform="matrix(0.8934374,3.9375009e-3,-3.9375009e-3,0.8934374,12.871829,-25.310283)" gradientUnits="userSpaceOnUse" xlink:href="#XMLID_58_"/><radialGradient id="XMLID_57_" cx="41.213" cy="76.448" r="57.159" gradientTransform="matrix(0.953,4.2e-3,-4.2e-3,0.953,8.8966,-30.8642)" gradientUnits="userSpaceOnUse"><stop id="stop3602" offset=".248" style="stop-color:#fff"/><stop id="stop3604" offset=".521" style="stop-color:#c7ecff"/><stop id="stop3606" offset=".751" style="stop-color:#7ac3ff"/><stop id="stop3608" offset=".858" style="stop-color:#63b8ff"/><stop id="stop3610" offset=".953" style="stop-color:#8acaff"/></radialGradient><radialGradient id="radialGradient3474" cx="41.213" cy="76.448" r="57.159" gradientTransform="matrix(0.8934374,3.9375009e-3,-3.9375009e-3,0.8934374,12.871829,-25.310283)" gradientUnits="userSpaceOnUse" xlink:href="#XMLID_57_"/><radialGradient id="XMLID_56_" cx="41.031" cy="76.42" r="57.328" gradientTransform="matrix(0.953,4.2e-3,-4.2e-3,0.953,8.8966,-30.8642)" gradientUnits="userSpaceOnUse"><stop id="stop3589" offset=".248" style="stop-color:#fff"/><stop id="stop3591" offset=".521" style="stop-color:#c7ecff"/><stop id="stop3593" offset=".751" style="stop-color:#7ac3ff"/><stop id="stop3595" offset=".858" style="stop-color:#63b8ff"/><stop id="stop3597" offset=".953" style="stop-color:#8acaff"/></radialGradient><radialGradient id="radialGradient3477" cx="41.031" cy="76.42" r="57.328" gradientTransform="matrix(0.8934374,3.9375009e-3,-3.9375009e-3,0.8934374,12.871829,-25.310283)" gradientUnits="userSpaceOnUse" xlink:href="#XMLID_56_"/><radialGradient id="XMLID_55_" cx="41.075" cy="76.471" r="57.266" gradientTransform="matrix(0.953,4.2e-3,-4.2e-3,0.953,8.8966,-30.8642)" gradientUnits="userSpaceOnUse"><stop id="stop3576" offset=".248" style="stop-color:#fff"/><stop id="stop3578" offset=".521" style="stop-color:#c7ecff"/><stop id="stop3580" offset=".751" style="stop-color:#7ac3ff"/><stop id="stop3582" offset=".858" style="stop-color:#63b8ff"/><stop id="stop3584" offset=".953" style="stop-color:#8acaff"/></radialGradient><radialGradient id="radialGradient3480" cx="41.075" cy="76.471" r="57.266" gradientTransform="matrix(0.8934374,3.9375009e-3,-3.9375009e-3,0.8934374,12.871829,-25.310283)" gradientUnits="userSpaceOnUse" xlink:href="#XMLID_55_"/><radialGradient id="XMLID_54_" cx="41.03" cy="76.444" r="57.307" gradientTransform="matrix(0.953,4.2e-3,-4.2e-3,0.953,8.8966,-30.8642)" gradientUnits="userSpaceOnUse"><stop id="stop3561" offset=".521" style="stop-color:#bfd9ff"/><stop id="stop3563" offset=".751" style="stop-color:#80b3ff"/><stop id="stop3565" offset=".858" style="stop-color:#80b3ff"/><stop id="stop3567" offset=".899" style="stop-color:#7ab0fa"/><stop id="stop3569" offset=".956" style="stop-color:#68a8ec"/><stop id="stop3571" offset="1" style="stop-color:#56a0de"/></radialGradient><radialGradient id="radialGradient3483" cx="41.03" cy="76.444" r="57.307" gradientTransform="matrix(0.8934374,3.9375009e-3,-3.9375009e-3,0.8934374,12.871829,-25.310283)" gradientUnits="userSpaceOnUse" xlink:href="#XMLID_54_"/><radialGradient id="XMLID_53_" cx="52.28" cy="76.084" r="46.679" gradientTransform="matrix(0.953,0,0,0.953,2.5914,2.6856)" gradientUnits="userSpaceOnUse"><stop id="stop3544" offset=".248" style="stop-color:#fff"/><stop id="stop3546" offset=".521" style="stop-color:#c7ecff"/><stop id="stop3548" offset=".627" style="stop-color:#c3eaff"/><stop id="stop3550" offset=".729" style="stop-color:#5fa5d1;stop-opacity:1"/><stop id="stop3556" offset="1" style="stop-color:#81bbec;stop-opacity:1"/></radialGradient><radialGradient id="radialGradient3486" cx="48.389" cy="72.037" r="46.679" fx="48.389" fy="72.037" gradientTransform="matrix(0.7295943,8.9368963e-3,-1.0943011e-2,0.8933704,15.677266,5.7150385)" gradientUnits="userSpaceOnUse" xlink:href="#XMLID_53_"/><radialGradient id="XMLID_52_" cx="41.021" cy="76.428" r="57.312" gradientTransform="matrix(0.953,4.2e-3,-4.2e-3,0.953,8.8966,-30.8642)" gradientUnits="userSpaceOnUse"><stop id="stop3531" offset=".248" style="stop-color:#fff"/><stop id="stop3533" offset=".521" style="stop-color:#c7ecff"/><stop id="stop3535" offset=".751" style="stop-color:#7ac3ff"/><stop id="stop3537" offset=".858" style="stop-color:#63b8ff"/><stop id="stop3539" offset=".953" style="stop-color:#8acaff"/></radialGradient><radialGradient id="radialGradient3489" cx="41.021" cy="76.428" r="57.312" gradientTransform="matrix(0.8934374,3.9375009e-3,-3.9375009e-3,0.8934374,12.871829,-25.310283)" gradientUnits="userSpaceOnUse" xlink:href="#XMLID_52_"/><radialGradient id="XMLID_51_" cx="43.948" cy="60.964" r="57.306" gradientTransform="matrix(0.953,0,0,0.953,2.5914,2.6856)" gradientUnits="userSpaceOnUse"><stop id="stop3522" offset=".248" style="stop-color:#fff"/><stop id="stop3524" offset=".521" style="stop-color:#c7ecff"/><stop id="stop3526" offset=".953" style="stop-color:#8acaff"/></radialGradient><radialGradient id="radialGradient3492" cx="43.948" cy="60.964" r="57.306" gradientTransform="matrix(0.8934374,0,0,0.8934374,6.9607061,6.1426609)" gradientUnits="userSpaceOnUse" xlink:href="#XMLID_51_"/><radialGradient id="XMLID_50_" cx="41.03" cy="76.441" r="57.307" gradientTransform="matrix(0.953,4.2e-3,-4.2e-3,0.953,8.8966,-30.8642)" gradientUnits="userSpaceOnUse"><stop id="stop3507" offset=".521" style="stop-color:#bfd9ff"/><stop id="stop3509" offset=".751" style="stop-color:#80b3ff"/><stop id="stop3511" offset=".858" style="stop-color:#80b3ff"/><stop id="stop3513" offset=".899" style="stop-color:#7ab0fa"/><stop id="stop3515" offset=".956" style="stop-color:#68a8ec"/><stop id="stop3517" offset="1" style="stop-color:#56a0de"/></radialGradient><radialGradient id="radialGradient3495" cx="41.03" cy="76.441" r="57.307" gradientTransform="matrix(0.8934374,3.9375009e-3,-3.9375009e-3,0.8934374,12.871829,-25.310283)" gradientUnits="userSpaceOnUse" xlink:href="#XMLID_50_"/><radialGradient id="XMLID_49_" cx="43.959" cy="60.974" r="57.31" gradientTransform="matrix(0.953,0,0,0.953,2.5914,2.6856)" gradientUnits="userSpaceOnUse"><stop id="stop3498" offset=".248" style="stop-color:#fff"/><stop id="stop3500" offset=".521" style="stop-color:#c7ecff"/><stop id="stop3502" offset=".953" style="stop-color:#058eff"/></radialGradient><radialGradient id="radialGradient3498" cx="43.959" cy="60.974" r="57.31" gradientTransform="matrix(0.8934374,0,0,0.8934374,6.9607061,6.1426609)" gradientUnits="userSpaceOnUse" xlink:href="#XMLID_49_"/><radialGradient id="XMLID_48_" cx="48.305" cy="39.725" r="57.304" gradientTransform="matrix(0.948,-9.81e-2,9.81e-2,0.948,-2.0096,9.2425)" gradientUnits="userSpaceOnUse"><stop id="stop3485" offset=".248" style="stop-color:#fff"/><stop id="stop3487" offset=".521" style="stop-color:#bfd9ff"/><stop id="stop3489" offset=".751" style="stop-color:#80b3ff"/><stop id="stop3491" offset=".858" style="stop-color:#6193cf"/><stop id="stop3493" offset="1" style="stop-color:#80b3ff"/></radialGradient><radialGradient id="radialGradient3501" cx="48.305" cy="39.725" r="57.304" gradientTransform="matrix(0.8887502,-9.1968777e-2,9.1968777e-2,0.8887502,2.6472679,12.289761)" gradientUnits="userSpaceOnUse" xlink:href="#XMLID_48_"/><radialGradient id="XMLID_47_" cx="39.968" cy="53.12" r="71.87" fx="80.556" fy="60.575" gradientTransform="matrix(0.953,0,0,0.953,2.5914,2.6856)" gradientUnits="userSpaceOnUse"><stop id="stop3466" offset="0" style="stop-color:#fff"/><stop id="stop3468" offset=".067" style="stop-color:#f5fafe"/><stop id="stop3470" offset=".179" style="stop-color:#dbebfb"/><stop id="stop3472" offset=".322" style="stop-color:#b1d4f6"/><stop id="stop3474" offset=".492" style="stop-color:#77b4f0"/><stop id="stop3476" offset=".68" style="stop-color:#2d8be8"/><stop id="stop3478" offset=".787" style="stop-color:#0072e3"/><stop id="stop3480" offset=".953" style="stop-color:#8acaff"/></radialGradient><radialGradient id="radialGradient3504" cx="39.968" cy="53.12" r="71.87" fx="80.556" fy="60.575" gradientTransform="matrix(0.8934374,0,0,0.8934374,6.9607061,6.1426609)" gradientUnits="userSpaceOnUse" xlink:href="#XMLID_47_"/><radialGradient id="XMLID_46_" cx="41.05" cy="76.422" r="57.265" gradientTransform="matrix(0.953,4.2e-3,-4.2e-3,0.953,8.8966,-30.8642)" gradientUnits="userSpaceOnUse"><stop id="stop3453" offset=".248" style="stop-color:#fff"/><stop id="stop3455" offset=".521" style="stop-color:#c7ecff"/><stop id="stop3457" offset=".751" style="stop-color:#7ac3ff"/><stop id="stop3459" offset=".858" style="stop-color:#63b8ff"/><stop id="stop3461" offset=".953" style="stop-color:#8acaff"/></radialGradient><radialGradient id="radialGradient3507" cx="41.05" cy="76.422" r="57.265" gradientTransform="matrix(0.8934374,3.9375009e-3,-3.9375009e-3,0.8934374,12.871829,-25.310283)" gradientUnits="userSpaceOnUse" xlink:href="#XMLID_46_"/><radialGradient id="XMLID_45_" cx="43.959" cy="60.974" r="57.312" gradientTransform="matrix(0.953,0,0,0.953,2.5914,2.6856)" gradientUnits="userSpaceOnUse"><stop id="stop3444" offset=".248" style="stop-color:#fff"/><stop id="stop3446" offset=".521" style="stop-color:#c7ecff"/><stop id="stop3448" offset=".953" style="stop-color:#8acaff"/></radialGradient><radialGradient id="radialGradient3510" cx="43.959" cy="60.974" r="57.312" gradientTransform="matrix(0.8934374,0,0,0.8934374,6.9607061,6.1426609)" gradientUnits="userSpaceOnUse" xlink:href="#XMLID_45_"/><radialGradient id="XMLID_44_" cx="41.029" cy="76.444" r="57.309" gradientTransform="matrix(0.953,4.2e-3,-4.2e-3,0.953,8.8966,-30.8642)" gradientUnits="userSpaceOnUse"><stop id="stop3429" offset=".521" style="stop-color:#bfd9ff"/><stop id="stop3431" offset=".751" style="stop-color:#80b3ff"/><stop id="stop3433" offset=".858" style="stop-color:#80b3ff"/><stop id="stop3435" offset=".899" style="stop-color:#7ab0fa"/><stop id="stop3437" offset=".956" style="stop-color:#68a8ec"/><stop id="stop3439" offset="1" style="stop-color:#56a0de"/></radialGradient><radialGradient id="radialGradient3513" cx="41.029" cy="76.444" r="57.309" gradientTransform="matrix(0.8934374,3.9375009e-3,-3.9375009e-3,0.8934374,12.871829,-25.310283)" gradientUnits="userSpaceOnUse" xlink:href="#XMLID_44_"/><radialGradient id="XMLID_43_" cx="43.959" cy="60.966" r="57.304" gradientTransform="matrix(0.953,0,0,0.953,2.5914,2.6856)" gradientUnits="userSpaceOnUse"><stop id="stop3420" offset=".248" style="stop-color:#fff"/><stop id="stop3422" offset=".521" style="stop-color:#c7ecff"/><stop id="stop3424" offset=".953" style="stop-color:#8acaff"/></radialGradient><radialGradient id="radialGradient3516" cx="43.959" cy="60.966" r="57.304" gradientTransform="matrix(0.8934374,0,0,0.8934374,6.9607061,6.1426609)" gradientUnits="userSpaceOnUse" xlink:href="#XMLID_43_"/><radialGradient id="XMLID_42_" cx="41.03" cy="76.441" r="57.305" gradientTransform="matrix(0.953,4.2e-3,-4.2e-3,0.953,8.8966,-30.8642)" gradientUnits="userSpaceOnUse"><stop id="stop3407" offset=".248" style="stop-color:#fff"/><stop id="stop3409" offset=".521" style="stop-color:#c7ecff"/><stop id="stop3411" offset=".751" style="stop-color:#7ac3ff"/><stop id="stop3413" offset=".858" style="stop-color:#63b8ff"/><stop id="stop3415" offset=".953" style="stop-color:#8acaff"/></radialGradient><radialGradient id="radialGradient3519" cx="41.03" cy="76.441" r="57.305" gradientTransform="matrix(0.8934374,3.9375009e-3,-3.9375009e-3,0.8934374,12.871829,-25.310283)" gradientUnits="userSpaceOnUse" xlink:href="#XMLID_42_"/><radialGradient id="XMLID_41_" cx="43.961" cy="60.974" r="57.313" gradientTransform="matrix(0.953,0,0,0.953,2.5914,2.6856)" gradientUnits="userSpaceOnUse"><stop id="stop3398" offset=".248" style="stop-color:#fff"/><stop id="stop3400" offset=".521" style="stop-color:#c7ecff"/><stop id="stop3402" offset=".953" style="stop-color:#8acaff"/></radialGradient><radialGradient id="radialGradient3522" cx="43.961" cy="60.974" r="57.313" gradientTransform="matrix(0.8934374,0,0,0.8934374,6.9607061,6.1426609)" gradientUnits="userSpaceOnUse" xlink:href="#XMLID_41_"/><radialGradient id="XMLID_40_" cx="41.03" cy="76.441" r="57.305" gradientTransform="matrix(0.953,4.2e-3,-4.2e-3,0.953,8.8966,-30.8642)" gradientUnits="userSpaceOnUse"><stop id="stop3383" offset=".521" style="stop-color:#bfd9ff"/><stop id="stop3385" offset=".751" style="stop-color:#80b3ff"/><stop id="stop3387" offset=".858" style="stop-color:#80b3ff"/><stop id="stop3389" offset=".899" style="stop-color:#7ab0fa"/><stop id="stop3391" offset=".956" style="stop-color:#68a8ec"/><stop id="stop3393" offset="1" style="stop-color:#56a0de"/></radialGradient><radialGradient id="radialGradient3525" cx="41.03" cy="76.441" r="57.305" gradientTransform="matrix(0.8934374,3.9375009e-3,-3.9375009e-3,0.8934374,12.871829,-25.310283)" gradientUnits="userSpaceOnUse" xlink:href="#XMLID_40_"/><radialGradient id="XMLID_39_" cx="43.959" cy="60.974" r="57.311" gradientTransform="matrix(0.953,0,0,0.953,2.5914,2.6856)" gradientUnits="userSpaceOnUse"><stop id="stop3374" offset=".248" style="stop-color:#fff"/><stop id="stop3376" offset=".521" style="stop-color:#c7ecff"/><stop id="stop3378" offset=".953" style="stop-color:#8acaff"/></radialGradient><radialGradient id="radialGradient3528" cx="43.959" cy="60.974" r="57.311" gradientTransform="matrix(0.8934374,0,0,0.8934374,6.9607061,6.1426609)" gradientUnits="userSpaceOnUse" xlink:href="#XMLID_39_"/><radialGradient id="XMLID_38_" cx="63.449" cy="39.421" r="84.581" gradientTransform="matrix(0.953,0,0,0.953,2.5914,2.6856)" gradientUnits="userSpaceOnUse"><stop id="stop3341" offset="0" style="stop-color:#bfd9ff"/><stop id="stop3343" offset=".057" style="stop-color:#b4d1fa"/><stop id="stop3345" offset=".156" style="stop-color:#98bceb"/><stop id="stop3347" offset=".284" style="stop-color:#6a9ad4"/><stop id="stop3349" offset=".308" style="stop-color:#6193cf"/><stop id="stop3351" offset=".344" style="stop-color:#588dcc"/><stop id="stop3353" offset=".405" style="stop-color:#407ec4"/><stop id="stop3355" offset=".48" style="stop-color:#1866b6"/><stop id="stop3357" offset=".521" style="stop-color:#0057ae"/><stop id="stop3359" offset=".751" style="stop-color:#80b3ff"/><stop id="stop3361" offset=".776" style="stop-color:#77acf9"/><stop id="stop3363" offset=".817" style="stop-color:#5f99e9"/><stop id="stop3365" offset=".869" style="stop-color:#377bcf"/><stop id="stop3367" offset=".882" style="stop-color:#2c72c7"/><stop id="stop3369" offset="1" style="stop-color:#0057ae"/></radialGradient><radialGradient id="radialGradient5336" cx="63.449" cy="39.421" r="84.581" gradientTransform="matrix(0.953,0,0,0.953,2.5914,2.6856)" gradientUnits="userSpaceOnUse" xlink:href="#XMLID_38_"/><radialGradient id="XMLID_37_" cx="63.793" cy="39.059" r="84.581" gradientUnits="userSpaceOnUse"><stop id="stop3332" offset="0" style="stop-color:#103961"/><stop id="stop3334" offset=".675" style="stop-color:#227ad1"/><stop id="stop3336" offset=".929" style="stop-color:#00438a"/></radialGradient><radialGradient id="radialGradient3532" cx="63.793" cy="39.059" r="84.581" gradientTransform="matrix(0.9375002,0,0,0.9375002,4.5312683,3.6249103)" gradientUnits="userSpaceOnUse" xlink:href="#XMLID_37_"/><linearGradient id="linearGradient10207"><stop style="stop-color:#a2a2a2;stop-opacity:1" id="stop10209" offset="0"/><stop style="stop-color:#fff;stop-opacity:1" id="stop10211" offset="1"/></linearGradient><linearGradient id="XMLID_12_" x1="96" x2="88" y1="104" y2="96" gradientUnits="userSpaceOnUse"><stop style="stop-color:#888a85" id="stop83" offset="0"/><stop style="stop-color:#8c8e89" id="stop85" offset=".007"/><stop style="stop-color:#abaca9" id="stop87" offset=".067"/><stop style="stop-color:#c5c6c4" id="stop89" offset=".135"/><stop style="stop-color:#dbdbda" id="stop91" offset=".265"/><stop style="stop-color:#ebebeb" id="stop93" offset=".376"/><stop style="stop-color:#f7f7f6" id="stop95" offset=".487"/><stop style="stop-color:#fdfdfd" id="stop97" offset=".632"/><stop style="stop-color:#fff" id="stop99" offset="1"/></linearGradient><radialGradient id="XMLID_8_" cx="102" cy="112.305" r="139.559" gradientUnits="userSpaceOnUse"><stop style="stop-color:#b7b8b9;stop-opacity:1" id="stop41" offset="0"/><stop style="stop-color:#ececec" id="stop47" offset=".189"/><stop style="stop-color:#fafafa" id="stop49" offset=".257"/><stop style="stop-color:#fff" id="stop51" offset=".301"/><stop style="stop-color:#fafafa" id="stop53" offset=".531"/><stop style="stop-color:#ebecec" id="stop55" offset=".845"/><stop style="stop-color:#e1e2e3" id="stop57" offset="1"/></radialGradient><filter id="filter6697" width="1.384" height="1.384" x="-.192" y="-.192"><feGaussianBlur id="feGaussianBlur6699" stdDeviation="1.945"/></filter><clipPath id="clipPath7084" clipPathUnits="userSpaceOnUse"><path style="fill:#000;fill-opacity:1;fill-rule:evenodd;stroke:none;stroke-width:1px;stroke-linecap:butt;stroke-linejoin:miter;stroke-opacity:1" id="path7086" d="M 72,88 L 40,120 L 32,120 L 32,80 L 72,80 L 72,88 z"/></clipPath><radialGradient id="radialGradient9437" cx="102" cy="112.305" r="139.559" gradientTransform="matrix(1,0,0,0.9996653,2e-6,3.0160848e-3)" gradientUnits="userSpaceOnUse" xlink:href="#XMLID_8_"/><linearGradient id="linearGradient10213" x1="98.617" x2="91.229" y1="106.414" y2="99.255" gradientUnits="userSpaceOnUse" xlink:href="#linearGradient10207"/><filter id="filter2770"><feGaussianBlur id="feGaussianBlur2772" stdDeviation="2.079"/></filter><radialGradient id="radialGradient5304" cx="74.75" cy="117.875" r="49.25" fx="74.75" fy="117.875" gradientTransform="matrix(1,0,0,0.1091371,0,105.01047)" gradientUnits="userSpaceOnUse" xlink:href="#linearGradient5298"/><radialGradient id="radialGradient5307" cx="47.582" cy="30.584" r="5.6" fx="50.021" fy="27.667" gradientTransform="matrix(0.5153583,0.3459726,-0.3459726,0.5153583,-77.388406,9.4718282)" gradientUnits="userSpaceOnUse" xlink:href="#XMLID_72_"/><radialGradient id="radialGradient5310" cx="66.301" cy="106.353" r="6.555" fx="59.748" fy="106.177" gradientTransform="matrix(0.5476965,0.2920963,-0.2920963,0.5476965,-52.914242,9.8441803)" gradientUnits="userSpaceOnUse" xlink:href="#XMLID_72_"/><radialGradient id="radialGradient5313" cx="61.417" cy="70.336" r="7.058" fx="64.086" fy="76.87" gradientTransform="matrix(0.6192623,-4.1710344e-2,4.1710344e-2,0.6192623,-94.741957,26.715765)" gradientUnits="userSpaceOnUse" xlink:href="#XMLID_72_"/><linearGradient id="linearGradient5316" x1="90.727" x2="109.81" y1="42.275" y2="42.275" gradientTransform="matrix(0.6206896,0,0,0.6206896,-91.999999,24)" gradientUnits="userSpaceOnUse" xlink:href="#XMLID_66_"/><radialGradient id="radialGradient5319" cx="55.237" cy="93.081" r="36.429" fx="55.237" fy="93.081" gradientTransform="matrix(0.6848989,0,0,0.1300452,-95.724136,71.922439)" gradientUnits="userSpaceOnUse" xlink:href="#XMLID_66_"/><radialGradient id="radialGradient5322" cx="51.922" cy="64.665" r="37.981" fx="51.922" fy="64.665" gradientTransform="matrix(0.6848989,0,0,0.264784,-95.724136,47.442679)" gradientUnits="userSpaceOnUse" xlink:href="#XMLID_66_"/><radialGradient id="radialGradient5325" cx="75.122" cy="45.164" r="30.476" gradientTransform="matrix(0.6206896,0,0,0.6206896,-91.999999,24)" gradientUnits="userSpaceOnUse" xlink:href="#XMLID_66_"/><radialGradient id="radialGradient5328" cx="41.043" cy="76.447" r="57.299" gradientTransform="matrix(0.591517,2.6068965e-3,-2.6068965e-3,0.591517,-86.477974,4.8429113)" gradientUnits="userSpaceOnUse" xlink:href="#XMLID_65_"/><radialGradient id="radialGradient5331" cx="41.267" cy="76.44" r="57.117" gradientTransform="matrix(0.591517,2.6068965e-3,-2.6068965e-3,0.591517,-86.477974,4.8429113)" gradientUnits="userSpaceOnUse" xlink:href="#XMLID_64_"/><radialGradient id="radialGradient5334" cx="41.09" cy="76.441" r="57.261" gradientTransform="matrix(0.591517,2.6068965e-3,-2.6068965e-3,0.591517,-86.477974,4.8429113)" gradientUnits="userSpaceOnUse" xlink:href="#XMLID_63_"/><radialGradient id="radialGradient5337" cx="41.079" cy="76.438" r="57.272" gradientTransform="matrix(0.591517,2.6068965e-3,-2.6068965e-3,0.591517,-86.477974,4.8429113)" gradientUnits="userSpaceOnUse" xlink:href="#XMLID_60_"/><radialGradient id="radialGradient5340" cx="40.553" cy="76.454" r="57.654" gradientTransform="matrix(0.591517,2.6068965e-3,-2.6068965e-3,0.591517,-86.477974,4.8429113)" gradientUnits="userSpaceOnUse" xlink:href="#XMLID_59_"/><radialGradient id="radialGradient5343" cx="41.099" cy="76.45" r="57.253" gradientTransform="matrix(0.591517,2.6068965e-3,-2.6068965e-3,0.591517,-86.477974,4.8429113)" gradientUnits="userSpaceOnUse" xlink:href="#XMLID_58_"/><radialGradient id="radialGradient5346" cx="41.213" cy="76.448" r="57.159" gradientTransform="matrix(0.591517,2.6068965e-3,-2.6068965e-3,0.591517,-86.477974,4.8429113)" gradientUnits="userSpaceOnUse" xlink:href="#XMLID_57_"/><radialGradient id="radialGradient5349" cx="41.031" cy="76.42" r="57.328" gradientTransform="matrix(0.591517,2.6068965e-3,-2.6068965e-3,0.591517,-86.477974,4.8429113)" gradientUnits="userSpaceOnUse" xlink:href="#XMLID_56_"/><radialGradient id="radialGradient5352" cx="41.075" cy="76.471" r="57.266" gradientTransform="matrix(0.591517,2.6068965e-3,-2.6068965e-3,0.591517,-86.477974,4.8429113)" gradientUnits="userSpaceOnUse" xlink:href="#XMLID_55_"/><radialGradient id="radialGradient5355" cx="41.03" cy="76.444" r="57.307" gradientTransform="matrix(0.591517,2.6068965e-3,-2.6068965e-3,0.591517,-86.477974,4.8429113)" gradientUnits="userSpaceOnUse" xlink:href="#XMLID_54_"/><radialGradient id="radialGradient5358" cx="48.389" cy="72.037" r="46.679" fx="48.389" fy="72.037" gradientTransform="matrix(0.4830416,5.9168402e-3,-7.2450262e-3,0.5914727,-84.620581,25.383809)" gradientUnits="userSpaceOnUse" xlink:href="#XMLID_53_"/><radialGradient id="radialGradient5361" cx="41.021" cy="76.428" r="57.312" gradientTransform="matrix(0.591517,2.6068965e-3,-2.6068965e-3,0.591517,-86.477974,4.8429113)" gradientUnits="userSpaceOnUse" xlink:href="#XMLID_52_"/><radialGradient id="radialGradient5364" cx="43.948" cy="60.964" r="57.306" gradientTransform="matrix(0.591517,0,0,0.591517,-90.391544,25.666924)" gradientUnits="userSpaceOnUse" xlink:href="#XMLID_51_"/><radialGradient id="radialGradient5367" cx="41.03" cy="76.441" r="57.307" gradientTransform="matrix(0.591517,2.6068965e-3,-2.6068965e-3,0.591517,-86.477974,4.8429113)" gradientUnits="userSpaceOnUse" xlink:href="#XMLID_50_"/><radialGradient id="radialGradient5370" cx="43.959" cy="60.974" r="57.31" gradientTransform="matrix(0.591517,0,0,0.591517,-90.391544,25.666924)" gradientUnits="userSpaceOnUse" xlink:href="#XMLID_49_"/><radialGradient id="radialGradient5373" cx="48.305" cy="39.725" r="57.304" gradientTransform="matrix(0.5884138,-6.0889658e-2,6.0889658e-2,0.5884138,-93.247337,29.736727)" gradientUnits="userSpaceOnUse" xlink:href="#XMLID_48_"/><radialGradient id="radialGradient5376" cx="39.968" cy="53.12" r="71.87" fx="80.556" fy="60.575" gradientTransform="matrix(0.591517,0,0,0.591517,-90.391544,25.666924)" gradientUnits="userSpaceOnUse" xlink:href="#XMLID_47_"/><radialGradient id="radialGradient5379" cx="41.05" cy="76.422" r="57.265" gradientTransform="matrix(0.591517,2.6068965e-3,-2.6068965e-3,0.591517,-86.477974,4.8429113)" gradientUnits="userSpaceOnUse" xlink:href="#XMLID_46_"/><radialGradient id="radialGradient5382" cx="43.959" cy="60.974" r="57.312" gradientTransform="matrix(0.591517,0,0,0.591517,-90.391544,25.666924)" gradientUnits="userSpaceOnUse" xlink:href="#XMLID_45_"/><radialGradient id="radialGradient5385" cx="41.029" cy="76.444" r="57.309" gradientTransform="matrix(0.591517,2.6068965e-3,-2.6068965e-3,0.591517,-86.477974,4.8429113)" gradientUnits="userSpaceOnUse" xlink:href="#XMLID_44_"/><radialGradient id="radialGradient5388" cx="43.959" cy="60.966" r="57.304" gradientTransform="matrix(0.591517,0,0,0.591517,-90.391544,25.666924)" gradientUnits="userSpaceOnUse" xlink:href="#XMLID_43_"/><radialGradient id="radialGradient5391" cx="41.03" cy="76.441" r="57.305" gradientTransform="matrix(0.591517,2.6068965e-3,-2.6068965e-3,0.591517,-86.477974,4.8429113)" gradientUnits="userSpaceOnUse" xlink:href="#XMLID_42_"/><radialGradient id="radialGradient5394" cx="43.961" cy="60.974" r="57.313" gradientTransform="matrix(0.591517,0,0,0.591517,-90.391544,25.666924)" gradientUnits="userSpaceOnUse" xlink:href="#XMLID_41_"/><radialGradient id="radialGradient5397" cx="41.03" cy="76.441" r="57.305" gradientTransform="matrix(0.591517,2.6068965e-3,-2.6068965e-3,0.591517,-86.477974,4.8429113)" gradientUnits="userSpaceOnUse" xlink:href="#XMLID_40_"/><radialGradient id="radialGradient5400" cx="43.959" cy="60.974" r="57.311" gradientTransform="matrix(0.591517,0,0,0.591517,-90.391544,25.666924)" gradientUnits="userSpaceOnUse" xlink:href="#XMLID_39_"/><radialGradient id="radialGradient5404" cx="63.793" cy="39.059" r="84.581" gradientTransform="matrix(0.6206896,0,0,0.6206896,-91.999999,24)" gradientUnits="userSpaceOnUse" xlink:href="#XMLID_37_"/><radialGradient id="radialGradient5409" cx="63.449" cy="39.421" r="84.581" gradientTransform="matrix(0.953,0,0,0.953,2.5914,2.6856)" gradientUnits="userSpaceOnUse" xlink:href="#XMLID_38_"/><radialGradient id="radialGradient5446" cx="63.449" cy="39.421" r="84.581" gradientTransform="matrix(0.953,0,0,0.953,2.5914,2.6856)" gradientUnits="userSpaceOnUse" xlink:href="#XMLID_38_"/><radialGradient id="radialGradient5448" cx="43.959" cy="60.974" r="57.311" gradientTransform="matrix(0.591517,0,0,0.591517,-90.391544,25.666924)" gradientUnits="userSpaceOnUse" xlink:href="#XMLID_39_"/><radialGradient id="radialGradient5450" cx="41.03" cy="76.441" r="57.305" gradientTransform="matrix(0.591517,2.6068965e-3,-2.6068965e-3,0.591517,-86.477974,4.8429113)" gradientUnits="userSpaceOnUse" xlink:href="#XMLID_40_"/><radialGradient id="radialGradient5452" cx="43.961" cy="60.974" r="57.313" gradientTransform="matrix(0.591517,0,0,0.591517,-90.391544,25.666924)" gradientUnits="userSpaceOnUse" xlink:href="#XMLID_41_"/><radialGradient id="radialGradient5454" cx="41.03" cy="76.441" r="57.305" gradientTransform="matrix(0.591517,2.6068965e-3,-2.6068965e-3,0.591517,-86.477974,4.8429113)" gradientUnits="userSpaceOnUse" xlink:href="#XMLID_42_"/><radialGradient id="radialGradient5456" cx="43.959" cy="60.966" r="57.304" gradientTransform="matrix(0.591517,0,0,0.591517,-90.391544,25.666924)" gradientUnits="userSpaceOnUse" xlink:href="#XMLID_43_"/><radialGradient id="radialGradient5458" cx="41.029" cy="76.444" r="57.309" gradientTransform="matrix(0.591517,2.6068965e-3,-2.6068965e-3,0.591517,-86.477974,4.8429113)" gradientUnits="userSpaceOnUse" xlink:href="#XMLID_44_"/><radialGradient id="radialGradient5460" cx="43.959" cy="60.974" r="57.312" gradientTransform="matrix(0.591517,0,0,0.591517,-90.391544,25.666924)" gradientUnits="userSpaceOnUse" xlink:href="#XMLID_45_"/><radialGradient id="radialGradient5462" cx="41.05" cy="76.422" r="57.265" gradientTransform="matrix(0.591517,2.6068965e-3,-2.6068965e-3,0.591517,-86.477974,4.8429113)" gradientUnits="userSpaceOnUse" xlink:href="#XMLID_46_"/><radialGradient id="radialGradient5464" cx="39.968" cy="53.12" r="71.87" fx="80.556" fy="60.575" gradientTransform="matrix(0.591517,0,0,0.591517,-90.391544,25.666924)" gradientUnits="userSpaceOnUse" xlink:href="#XMLID_47_"/><radialGradient id="radialGradient5466" cx="48.305" cy="39.725" r="57.304" gradientTransform="matrix(0.5884138,-6.0889658e-2,6.0889658e-2,0.5884138,-93.247337,29.736727)" gradientUnits="userSpaceOnUse" xlink:href="#XMLID_48_"/><radialGradient id="radialGradient5468" cx="43.959" cy="60.974" r="57.31" gradientTransform="matrix(0.591517,0,0,0.591517,-90.391544,25.666924)" gradientUnits="userSpaceOnUse" xlink:href="#XMLID_49_"/><radialGradient id="radialGradient5470" cx="41.03" cy="76.441" r="57.307" gradientTransform="matrix(0.591517,2.6068965e-3,-2.6068965e-3,0.591517,-86.477974,4.8429113)" gradientUnits="userSpaceOnUse" xlink:href="#XMLID_50_"/><radialGradient id="radialGradient5472" cx="43.948" cy="60.964" r="57.306" gradientTransform="matrix(0.591517,0,0,0.591517,-90.391544,25.666924)" gradientUnits="userSpaceOnUse" xlink:href="#XMLID_51_"/><radialGradient id="radialGradient5474" cx="41.021" cy="76.428" r="57.312" gradientTransform="matrix(0.591517,2.6068965e-3,-2.6068965e-3,0.591517,-86.477974,4.8429113)" gradientUnits="userSpaceOnUse" xlink:href="#XMLID_52_"/><radialGradient id="radialGradient5476" cx="48.389" cy="72.037" r="46.679" fx="48.389" fy="72.037" gradientTransform="matrix(0.4830416,5.9168402e-3,-7.2450262e-3,0.5914727,-84.620581,25.383809)" gradientUnits="userSpaceOnUse" xlink:href="#XMLID_53_"/><radialGradient id="radialGradient5478" cx="41.03" cy="76.444" r="57.307" gradientTransform="matrix(0.591517,2.6068965e-3,-2.6068965e-3,0.591517,-86.477974,4.8429113)" gradientUnits="userSpaceOnUse" xlink:href="#XMLID_54_"/><radialGradient id="radialGradient5480" cx="41.075" cy="76.471" r="57.266" gradientTransform="matrix(0.591517,2.6068965e-3,-2.6068965e-3,0.591517,-86.477974,4.8429113)" gradientUnits="userSpaceOnUse" xlink:href="#XMLID_55_"/><radialGradient id="radialGradient5482" cx="41.031" cy="76.42" r="57.328" gradientTransform="matrix(0.591517,2.6068965e-3,-2.6068965e-3,0.591517,-86.477974,4.8429113)" gradientUnits="userSpaceOnUse" xlink:href="#XMLID_56_"/><radialGradient id="radialGradient5484" cx="41.213" cy="76.448" r="57.159" gradientTransform="matrix(0.591517,2.6068965e-3,-2.6068965e-3,0.591517,-86.477974,4.8429113)" gradientUnits="userSpaceOnUse" xlink:href="#XMLID_57_"/><radialGradient id="radialGradient5486" cx="41.099" cy="76.45" r="57.253" gradientTransform="matrix(0.591517,2.6068965e-3,-2.6068965e-3,0.591517,-86.477974,4.8429113)" gradientUnits="userSpaceOnUse" xlink:href="#XMLID_58_"/><radialGradient id="radialGradient5488" cx="40.553" cy="76.454" r="57.654" gradientTransform="matrix(0.591517,2.6068965e-3,-2.6068965e-3,0.591517,-86.477974,4.8429113)" gradientUnits="userSpaceOnUse" xlink:href="#XMLID_59_"/><radialGradient id="radialGradient5490" cx="41.079" cy="76.438" r="57.272" gradientTransform="matrix(0.591517,2.6068965e-3,-2.6068965e-3,0.591517,-86.477974,4.8429113)" gradientUnits="userSpaceOnUse" xlink:href="#XMLID_60_"/><radialGradient id="radialGradient5492" cx="41.09" cy="76.441" r="57.261" gradientTransform="matrix(0.591517,2.6068965e-3,-2.6068965e-3,0.591517,-86.477974,4.8429113)" gradientUnits="userSpaceOnUse" xlink:href="#XMLID_63_"/><radialGradient id="radialGradient5494" cx="41.267" cy="76.44" r="57.117" gradientTransform="matrix(0.591517,2.6068965e-3,-2.6068965e-3,0.591517,-86.477974,4.8429113)" gradientUnits="userSpaceOnUse" xlink:href="#XMLID_64_"/><radialGradient id="radialGradient5496" cx="41.043" cy="76.447" r="57.299" gradientTransform="matrix(0.591517,2.6068965e-3,-2.6068965e-3,0.591517,-86.477974,4.8429113)" gradientUnits="userSpaceOnUse" xlink:href="#XMLID_65_"/><radialGradient id="radialGradient5498" cx="75.122" cy="45.164" r="30.476" gradientTransform="matrix(0.6206896,0,0,0.6206896,-91.999999,24)" gradientUnits="userSpaceOnUse" xlink:href="#XMLID_66_"/><radialGradient id="radialGradient5500" cx="51.922" cy="64.665" r="37.981" fx="51.922" fy="64.665" gradientTransform="matrix(0.6848989,0,0,0.264784,-95.724136,47.442679)" gradientUnits="userSpaceOnUse" xlink:href="#XMLID_66_"/><radialGradient id="radialGradient5502" cx="55.237" cy="93.081" r="36.429" fx="55.237" fy="93.081" gradientTransform="matrix(0.6848989,0,0,0.1300452,-95.724136,71.922439)" gradientUnits="userSpaceOnUse" xlink:href="#XMLID_66_"/><linearGradient id="linearGradient5504" x1="90.727" x2="109.81" y1="42.275" y2="42.275" gradientTransform="matrix(0.6206896,0,0,0.6206896,-91.999999,24)" gradientUnits="userSpaceOnUse" xlink:href="#XMLID_66_"/><radialGradient id="radialGradient5506" cx="61.417" cy="70.336" r="7.058" fx="64.086" fy="76.87" gradientTransform="matrix(0.6192623,-4.1710344e-2,4.1710344e-2,0.6192623,-94.741957,26.715765)" gradientUnits="userSpaceOnUse" xlink:href="#XMLID_72_"/><radialGradient id="radialGradient5508" cx="66.301" cy="106.353" r="6.555" fx="59.748" fy="106.177" gradientTransform="matrix(0.5476965,0.2920963,-0.2920963,0.5476965,-52.914242,9.8441803)" gradientUnits="userSpaceOnUse" xlink:href="#XMLID_72_"/><radialGradient id="radialGradient5510" cx="47.582" cy="30.584" r="5.6" fx="50.021" fy="27.667" gradientTransform="matrix(0.5153583,0.3459726,-0.3459726,0.5153583,-77.388406,9.4718282)" gradientUnits="userSpaceOnUse" xlink:href="#XMLID_72_"/></defs><metadata id="metadata2611"/><g id="layer1"><path style="opacity:.5;fill:#000;fill-opacity:1;filter:url(#filter2770)" id="path7865" d="M 16,8 L 16,120 C 16,120 79.15625,120 79.15625,120 L 79.1875,120 C 79.187503,120 91.09375,110.09375 96.59375,104.59375 C 102.09375,99.09375 112,87.1875 112,87.1875 L 112,87.15625 L 112,8 L 16,8 z" transform="matrix(1.0416667,0,0,1.0267857,-2.6666667,-1.2142891)"/><path style="fill:#fff;fill-opacity:1" id="path34" d="M 16.000001,8 L 16,120 C 16,120 79.146418,120 79.146418,120 L 112,87.14642 L 112,8 L 16.000001,8 z"/><path style="fill:url(#radialGradient9437);fill-opacity:1" id="path59" d="M 18.000002,9.0000034 C 17.449002,9.0000034 17.000002,9.4488534 17.000002,9.9996684 L 17.000002,117.96352 C 17.000002,118.51533 17.449002,118.96318 18.000002,118.96318 L 77.171999,118.96318 C 77.434999,118.96318 79.934679,119.08131 80.12068,118.89438 L 110.707,88.094202 C 110.894,87.907264 111,85.40942 111,85.146508 L 111,9.9996684 C 111,9.4488534 110.552,9.0000034 110,9.0000034 L 18.000002,9.0000034 z"/><path id="path4102" d="M 124,117.875 A 49.25,5.375 0 1 1 25.5,117.875 A 49.25,5.375 0 1 1 124,117.875 z" transform="matrix(0.6294416,0,-2.59361e-8,0.7441868,15.181476,8.2789769)" style="opacity:.7;fill:url(#radialGradient5304);fill-opacity:1;fill-rule:evenodd;stroke:none;stroke-width:3;stroke-linecap:round;stroke-linejoin:round;stroke-miterlimit:4;stroke-dasharray:none;stroke-opacity:1;filter:url(#filter4491)"/><path id="path5540" d="M 41.879531,115.98249 C 41.879531,115.98249 66.18914,91.672876 66.18914,91.672876 C 66.18914,91.672876 56.836,94.586 46.586,94.586 C 46.586,104.836 41.879531,115.98249 41.879531,115.98249 z" clip-path="url(#clipPath7084)" transform="translate(40,0)" style="opacity:.4;fill:#000;fill-opacity:1;filter:url(#filter6697)"/><path style="fill:url(#linearGradient10213);fill-opacity:1" id="path14523" d="M 79.172,120 C 79.172,120 91.086,110.086 96.586,104.586 C 102.086,99.086 112,87.172 112,87.172 C 112,87.172 98.25,96 88,96 C 88,106.25 79.172,120 79.172,120 z"/><g id="g5411" transform="translate(120,0)"><circle id="circle3371" cx="58.001" cy="58" r="56.84" transform="matrix(0.6333568,0,0,0.6333568,-92.735327,23.265306)" style="fill:url(#radialGradient5446)"/><path id="path3380" d="M -59.429931,25.057034 C -61.04993,25.218414 -62.687309,25.499586 -64.297999,25.894345 C -64.324068,25.900552 -64.349516,25.910483 -64.373103,25.922276 C -64.656138,26.072483 -64.954689,26.238207 -65.214758,26.47531 L -65.214758,26.47531 C -65.214758,26.477793 -66.407723,27.836483 -66.407723,28.781173 C -66.407723,28.854413 -66.400895,28.924552 -66.385379,28.990965 C -66.315861,29.290758 -66.125309,29.509861 -65.833585,29.627173 C -65.413379,29.796621 -64.824965,29.707862 -64.698965,29.626552 L -64.404757,29.317448 L -64.33462,29.225586 C -63.316068,28.043172 -62.54393,27.458483 -62.384413,27.37531 C -61.896551,27.361035 -61.644552,27.165517 -60.63655,26.368552 L -60.606757,26.344345 C -60.315654,26.11469 -59.961861,25.969448 -59.587585,25.815517 L -59.266689,25.681448 C -59.143792,25.629931 -59.069309,25.510759 -59.069309,25.382276 C -59.069309,25.355586 -59.072414,25.327655 -59.07924,25.300345 C -59.118344,25.143931 -59.269172,25.040897 -59.429931,25.057034 z" style="fill:url(#radialGradient5448)"/><path id="path3395" d="M -64.995033,26.716759 C -65.007447,26.726069 -66.229585,28.203931 -66.067586,28.918345 C -65.90993,29.593655 -64.887033,29.357793 -64.877102,29.352207 C -64.761654,29.277724 -64.670413,29.113241 -64.581654,29.012069 C -63.473103,27.724138 -62.569999,27.05131 -62.459517,27.051931 C -62.026896,27.054414 -61.867378,26.92469 -60.809103,26.088 C -60.39324,25.760276 -59.882413,25.59331 -59.397654,25.382276 C -61.04062,25.546138 -62.650068,25.82731 -64.221033,26.210897 C -64.494758,26.356138 -64.76662,26.508207 -64.995033,26.716759 z" style="fill:url(#radialGradient5450)"/><path id="path3404" d="M -59.853861,26.086138 C -59.938275,26.089241 -60.021447,26.128966 -60.079792,26.188552 C -60.205792,26.317655 -60.441655,26.559103 -60.534137,26.862 C -60.610482,27.109035 -60.625379,27.348621 -60.639654,27.580758 C -60.652689,27.781862 -60.66324,27.971173 -60.715378,28.143724 C -60.753861,28.274069 -60.70731,28.416207 -60.59993,28.496896 C -60.49131,28.580069 -60.342965,28.586276 -60.228137,28.513035 C -59.923999,28.32 -59.847033,28.310689 -59.689378,28.305104 C -59.515585,28.297655 -59.33062,28.274069 -59.073654,28.07669 C -59.072414,28.076069 -58.951999,27.961862 -58.951999,27.961862 C -58.913516,27.912828 -58.567172,27.042 -58.786896,26.556 C -59.014068,26.053862 -59.560895,26.074966 -59.853861,26.086138 z" style="fill:url(#radialGradient5452)"/><path id="path3417" d="M -59.841448,26.413241 C -59.950068,26.523103 -60.152413,26.72731 -60.222551,26.958207 C -60.350413,27.37531 -60.276551,27.818483 -60.402551,28.237449 C -60.072344,28.028897 -59.940137,27.98731 -59.701172,27.97862 C -59.589448,27.974276 -59.471516,27.970552 -59.272275,27.818483 C -59.257999,27.805448 -59.230688,27.792413 -59.220137,27.775655 C -59.215792,27.770069 -58.935861,27.022138 -59.084827,26.691931 C -59.197792,26.43869 -59.449793,26.397103 -59.841448,26.413241 z" style="fill:url(#radialGradient5454)"/><path id="path3426" d="M -67.517516,26.846483 C -69.589378,27.567724 -71.612827,28.493793 -73.530757,29.599862 C -73.592826,29.634621 -73.633171,29.672483 -73.661103,29.737035 L -73.80324,30.071586 C -73.83924,30.156621 -73.834275,30.241655 -73.796413,30.325448 C -73.758551,30.409242 -73.682826,30.463241 -73.596551,30.491172 C -73.359447,30.568758 -73.211102,30.596069 -73.049723,30.576828 C -73.140344,30.825724 -73.178826,31.036758 -73.178826,31.234759 C -73.178826,31.44269 -73.141585,31.639448 -73.093172,31.860414 C -73.071447,31.961586 -73.00255,32.046 -72.907585,32.088827 L -72.455723,32.290551 C -72.330344,32.345793 -72.184482,32.318483 -72.088895,32.221034 C -71.59793,31.720138 -71.488068,31.70462 -71.077172,31.648137 C -70.977861,31.634483 -70.890965,31.576137 -70.840067,31.490483 C -70.074137,30.189517 -69.913999,29.918896 -67.188551,27.395172 C -67.074965,27.290276 -67.050758,27.119586 -67.130826,26.986759 C -67.210275,26.854552 -67.371034,26.796207 -67.517516,26.846483 z" style="fill:url(#radialGradient5456)"/><path id="path3441" d="M -72.773516,31.790896 C -72.637585,31.851725 -72.457586,31.932414 -72.321654,31.99262 C -71.753723,31.412897 -71.57062,31.386827 -71.12062,31.325379 C -70.318688,29.963586 -70.106413,29.652621 -67.409516,27.155586 C -69.49193,27.880552 -71.482481,28.79731 -73.367516,29.883517 C -73.414068,29.976621 -73.457516,30.075931 -73.494136,30.181448 C -73.099378,30.30931 -73.099378,30.30931 -72.396757,29.993379 C -72.959723,30.93 -72.887103,31.27138 -72.773516,31.790896 z" style="fill:url(#radialGradient5458)"/><path id="path3450" d="M -58.434343,29.162275 L -58.522482,29.386345 C -58.523723,29.390689 -58.52931,29.398758 -58.530551,29.401862 L -58.670205,29.799724 C -58.683241,29.915173 -58.672068,30.198206 -58.318896,30.336621 C -58.238206,30.367655 -58.140137,30.339724 -58.060068,30.304965 C -57.981241,30.270207 -57.910482,30.177724 -57.878206,30.097655 L -57.790068,29.871103 L -57.675862,29.589931 C -57.587724,29.285793 -57.707516,29.038137 -57.996758,28.926413 C -58.164345,28.861241 -58.368551,28.995931 -58.434343,29.162275 z" style="fill:url(#radialGradient5460)"/><path id="path3463" d="M -58.230758,29.531586 C -58.289723,29.654482 -58.336275,29.75069 -58.345586,29.834482 C -58.359861,29.971034 -58.254344,30.011379 -58.199103,30.033103 C -58.16062,29.843172 -58.04455,29.681793 -57.990551,29.496827 C -57.943378,29.334207 -58.005447,29.272138 -58.11531,29.229932 C -58.132069,29.311241 -58.150689,29.372069 -58.230758,29.531586 z" style="fill:url(#radialGradient5462)"/><path id="path3482" d="M -53.628344,25.094897 C -53.694758,25.177448 -53.718344,25.287931 -53.688551,25.390966 C -53.468827,26.155655 -53.39062,26.780069 -53.456413,27.245586 L -53.456413,27.245586 C -53.952344,30.776069 -52.951792,31.844276 -52.025723,32.119241 C -51.974206,32.134137 -51.927033,32.136 -51.879241,32.132897 C -51.856275,32.661724 -51.656413,33.184345 -51.166689,33.835448 C -51.286482,34.014207 -51.575103,34.436897 -51.952482,34.994897 C -51.966758,34.947103 -51.981654,34.89931 -51.996551,34.85462 C -52.025723,34.768344 -52.089655,34.699449 -52.173447,34.662207 C -52.903999,34.34193 -53.743792,33.704482 -53.743792,32.464345 C -53.743792,32.384276 -53.741309,32.301104 -53.733241,32.215448 C -53.732,32.206137 -53.731378,32.196827 -53.731378,32.187517 C -53.731378,32.10931 -53.75993,32.033586 -53.812068,31.974 C -53.869172,31.906966 -53.952344,31.866621 -54.039861,31.861034 C -54.105034,31.857311 -54.19131,31.843034 -54.226689,31.797724 C -54.252137,31.764827 -54.273861,31.702137 -54.273861,31.578 C -54.273861,31.481172 -54.260206,31.347723 -54.223585,31.164 C -54.219861,31.147862 -54.217999,31.132345 -54.217999,31.116828 C -54.217999,31.026207 -54.268896,30.939931 -54.33593,30.874138 C -54.411654,30.797172 -54.543862,30.770483 -54.651241,30.791586 C -54.665517,30.794068 -54.684137,30.799034 -54.695309,30.804 C -55.027999,30.919448 -55.049723,30.936207 -56.184344,31.815104 C -56.263172,31.876552 -56.309724,31.970275 -56.310344,32.070828 C -56.310344,32.083862 -56.310344,32.096896 -56.310344,32.10931 C -56.310344,32.802 -56.15331,33.240207 -55.757309,33.848483 C -56.085654,33.952138 -56.260068,34.22462 -56.377999,34.426344 C -56.53193,34.688896 -56.581585,34.734207 -56.71193,34.72862 C -56.82862,34.724897 -56.938482,34.78138 -56.99993,34.880068 C -57.063241,34.978758 -57.067585,35.102276 -57.014206,35.20531 C -56.878275,35.468483 -56.857172,35.780069 -56.835448,36.109655 C -56.806896,36.539793 -56.77462,37.027655 -56.464895,37.468345 C -56.409034,37.548414 -56.319655,37.59931 -56.222827,37.607379 C -55.815033,37.638413 -55.579171,37.465242 -55.371861,37.284621 C -55.255172,37.182207 -55.167034,37.069241 -55.085723,36.956276 C -55.174482,37.214482 -55.224758,37.408759 -55.224758,37.607379 C -55.224758,37.739586 -55.20862,37.884828 -55.181309,38.076621 C -55.165172,38.178414 -55.103724,38.266552 -55.013723,38.316207 C -54.923723,38.364621 -54.816344,38.368966 -54.723241,38.327379 C -54.419723,38.190206 -54.144137,38.014552 -53.879723,37.837655 C -54.078344,38.131241 -54.31731,38.482552 -54.31731,38.482552 C -54.355172,38.538414 -54.373172,38.601724 -54.373172,38.665655 C -54.373172,38.745724 -54.343999,38.825172 -54.285034,38.887241 C -53.517861,39.719586 -53.060413,40.214276 -52.827034,40.484276 C -53.460137,40.629517 -55.338344,41.060275 -55.338344,41.060275 C -55.489171,41.095034 -55.59531,41.230344 -55.59531,41.380551 C -55.59531,41.401655 -55.594068,41.423379 -55.589102,41.444483 C -55.484206,41.958413 -55.434551,42.498414 -55.387378,43.021034 C -55.299241,43.987448 -55.207999,44.986137 -54.772275,45.940138 C -54.700275,46.096551 -54.520275,46.171034 -54.358896,46.108965 C -53.959171,45.957517 -53.513517,45.982965 -53.041171,46.010275 C -53.03124,46.010275 -53.020689,46.010275 -53.010758,46.010897 C -53.036827,46.034482 -53.072827,46.042551 -53.090206,46.072344 C -54.242206,48.123724 -54.642551,48.837517 -54.642551,49.291862 C -54.642551,49.432758 -54.595379,49.552551 -54.528964,49.675448 C -55.896964,50.900069 -56.150827,51.669724 -57.246344,55.142483 C -57.256275,55.175379 -57.26124,55.208275 -57.26124,55.241172 C -57.26124,55.345448 -57.210965,55.446 -57.122206,55.508689 C -56.72931,55.784896 -56.557378,55.905931 -56.557378,56.524758 C -56.557378,56.74262 -56.579102,57.022552 -56.619448,57.392483 C -56.634344,57.524689 -56.641792,57.655034 -56.641792,57.782276 C -56.641792,60.551792 -53.268344,62.08862 -51.766896,62.634827 C -49.768275,63.362275 -47.995585,62.651586 -46.28062,61.964482 C -44.687309,61.325172 -43.174689,60.736758 -41.511861,61.23393 C -41.51062,61.564138 -41.442344,61.880689 -41.374069,62.18731 C -41.310758,62.472207 -41.250551,62.747172 -41.250551,63.013448 C -41.250551,63.15931 -41.268551,63.302689 -41.313862,63.443585 C -41.325655,63.476482 -41.329379,63.51 -41.329379,63.544137 C -41.329379,63.598758 -41.315724,63.652758 -41.289655,63.701172 C -41.245585,63.78 -41.172345,63.837724 -41.084827,63.860068 C -40.446137,64.028276 -39.113517,64.373379 -38.418344,65.644552 C -38.116689,66.198827 -37.965861,66.869792 -37.965861,67.653102 C -37.965861,68.526413 -38.152068,69.538758 -38.526965,70.68393 C -38.537517,70.716826 -38.543103,70.750344 -38.543103,70.784482 C -38.543103,70.875723 -38.505241,70.963861 -38.435724,71.027793 C -36.499172,72.785585 -36.499172,72.785585 -36.404828,74.017034 C -36.401103,74.06855 -36.384966,74.118206 -36.357655,74.161654 L -33.907172,78.197999 C -33.821517,78.339516 -33.642758,78.392275 -33.49131,78.323999 C -31.073103,77.225378 -27.443311,75.564413 -27.234137,71.145723 C -26.73448,70.84593 -26.651304,70.62993 -26.024411,68.901309 C -26.011375,68.864689 -26.003311,68.826826 -26.003311,68.787102 C -26.003311,68.729999 -26.01883,68.674138 -26.048623,68.624482 C -26.097656,68.540069 -26.17958,68.482343 -26.277037,68.468069 C -26.277037,68.468069 -26.319237,68.46062 -26.360828,68.455033 C -26.385033,68.234689 -26.412344,68.016207 -26.412344,67.816344 C -26.412344,67.027447 -26.134275,66.321103 -24.883587,65.045585 C -24.823379,64.984137 -24.790487,64.902206 -24.790487,64.816551 C -24.790487,64.805999 -24.791103,64.798551 -24.792348,64.788 C -24.877999,63.788689 -25.249175,62.862 -25.609168,61.967586 C -26.013864,60.956482 -26.398685,59.998137 -26.398685,58.954758 C -26.398685,58.865999 -26.394349,58.77662 -26.388754,58.685378 C -26.318621,57.60662 -26.079032,56.508621 -25.844415,55.447241 C -25.560142,54.143172 -25.266548,52.811172 -25.266548,51.447516 C -25.266548,50.64 -25.368963,49.820689 -25.636485,48.989585 C -25.666894,48.891517 -25.742615,48.814552 -25.840071,48.781655 C -25.936892,48.748138 -26.044896,48.761172 -26.129925,48.819517 C -26.514137,49.078344 -26.707176,49.471241 -26.877864,49.818206 C -27.080828,50.233448 -27.245312,50.504689 -27.571169,50.636896 C -27.697174,50.495379 -27.771657,50.378069 -27.771657,50.317241 C -27.771657,50.312896 -27.770412,50.30731 -27.76979,50.303585 C -27.752411,50.175724 -27.45883,50.029862 -27.300549,49.952275 C -26.653171,49.631999 -25.799725,47.904 -25.799725,45.676965 C -25.799725,44.723586 -25.956754,43.678965 -26.352758,42.614483 C -26.391244,42.512068 -26.478134,42.435103 -26.583654,42.410275 C -26.701582,42.382965 -26.758692,42.351931 -27.845518,41.657379 C -27.22359,41.364413 -26.556344,41.049724 -26.556344,41.049724 C -26.47007,41.008758 -26.404896,40.933034 -26.38069,40.841172 C -26.371997,40.812621 -26.368892,40.783448 -26.368892,40.753655 C -26.368892,40.689723 -26.386894,40.626414 -26.424142,40.571793 C -32.57331,31.429654 -42.385792,25.743517 -53.351516,24.974483 C -53.458275,24.967035 -53.56131,25.011724 -53.628344,25.094897 z M -49.742206,29.017655 C -49.631103,29.079724 -49.535516,29.121931 -49.454827,29.147379 C -49.443034,29.208827 -49.431862,29.272138 -49.431862,29.272138 C -49.377861,29.524759 -49.305241,29.766828 -49.230137,30.005793 C -49.258689,30.006414 -49.294069,30.012621 -49.326344,30.016965 C -49.344344,29.825793 -49.395862,29.611034 -49.546068,29.331103 C -49.604413,29.221241 -49.676413,29.121931 -49.742206,29.017655 z M -48.725516,31.334069 C -48.722413,31.328483 -48.723655,31.324138 -48.721172,31.319172 C -48.644206,31.484897 -48.570965,31.648137 -48.498965,31.792138 C -48.758413,31.857311 -48.888137,32.052206 -48.97131,32.335862 C -48.999241,32.434552 -49.046413,32.514 -49.141379,32.578552 C -49.158137,32.538207 -49.171792,32.499724 -49.171792,32.468069 C -49.171792,32.396069 -49.133931,32.335862 -49.073723,32.240276 C -48.957034,32.058414 -48.88131,31.888965 -48.88131,31.700897 C -48.88131,31.635725 -48.914827,31.55938 -48.934689,31.48862 C -48.846551,31.467518 -48.770206,31.412897 -48.725516,31.334069 z M -48.533103,40.730069 C -48.533103,40.743103 -48.529999,40.756138 -48.529999,40.769793 C -48.529999,40.835586 -48.531861,40.90262 -48.533724,40.970276 C -48.535586,41.039793 -48.536206,41.111172 -48.536206,41.183793 C -48.536206,41.526414 -48.504551,41.896965 -48.292275,42.250759 C -47.909309,42.886345 -47.392896,42.948414 -46.842965,42.987517 C -48.063862,43.248207 -49.08862,43.889379 -50.085448,44.519379 C -50.226344,44.608758 -50.364137,44.694413 -50.504413,44.78131 C -50.490758,44.709931 -50.478344,44.638551 -50.467793,44.571517 C -50.437379,44.374759 -50.413172,44.204069 -50.329999,44.078689 C -50.217034,43.90862 -49.976207,43.77331 -49.719862,43.631172 C -49.290965,43.392207 -48.724275,43.076276 -48.724275,42.418345 C -48.724275,42.313448 -48.73793,42.199241 -48.768965,42.076344 C -48.810551,41.915586 -48.965723,41.811931 -49.130827,41.833655 C -49.241931,41.849172 -49.323862,41.866551 -49.40393,41.908138 C -49.335033,41.743655 -49.25993,41.546897 -49.183585,41.34331 C -48.848413,41.210482 -48.660965,40.957241 -48.533103,40.730069 z M -46.443241,42.822413 C -46.337723,42.626275 -46.287448,42.464276 -46.287448,42.307242 C -46.287448,42.021724 -46.465585,41.738068 -46.792689,41.295517 C -46.608965,41.350759 -46.418413,41.386758 -46.231585,41.419655 C -45.735034,41.509034 -45.437724,41.589103 -45.289999,41.865931 C -45.345862,41.896965 -45.411034,41.933586 -45.411034,41.933586 L -45.939241,42.247655 C -46.030482,42.302276 -46.071448,42.384827 -46.071448,42.479793 C -46.071448,42.518896 -46.063379,42.559861 -46.051585,42.602069 C -46.018069,42.712551 -45.970275,42.784551 -45.926827,42.871448 C -46.140965,42.880137 -46.348276,42.899999 -46.55062,42.931655 C -46.507171,42.901861 -46.466827,42.868345 -46.443241,42.822413 z M -43.887241,42.87331 C -43.766206,42.613241 -43.704137,42.343241 -43.646413,42.081931 C -43.581861,41.798897 -43.515447,41.545655 -43.387586,41.328413 C -43.147379,41.880828 -42.87862,42.082551 -41.804828,42.859655 C -41.700551,42.934758 -41.562138,42.942206 -41.452896,42.879517 C -41.022758,42.636206 -40.706207,42.298551 -40.399586,41.97331 C -40.251861,41.814413 -40.099172,41.679724 -39.947103,41.54193 C -39.538689,41.95531 -39.014206,42.276206 -38.153931,41.667931 C -38.088758,41.773448 -38.030413,41.873379 -37.991309,41.953448 C -37.948482,42.045931 -37.864689,42.111724 -37.764138,42.132828 L -37.431448,42.201724 C -37.329654,42.224069 -37.237172,42.209172 -37.159586,42.138413 C -37.159586,42.138413 -36.955379,41.951586 -36.753655,41.767241 C -36.700896,41.941655 -36.666758,42.104896 -36.666758,42.251999 C -36.666758,42.452482 -36.715793,42.629378 -36.814482,42.785172 C -37.130413,43.280483 -38.15331,43.861448 -41.230689,43.813034 C -41.317585,43.811793 -41.401379,43.84531 -41.464068,43.906138 C -41.526758,43.966965 -41.560896,44.050758 -41.562138,44.137655 C -41.568344,45.140689 -41.568965,45.387103 -41.674482,45.563379 C -42.333655,45.289655 -43.02262,45.19469 -43.693586,45.11462 C -44.178965,45.056276 -44.636413,44.986758 -45.078344,44.865724 C -45.067793,44.76331 -45.048551,44.655931 -45.048551,44.554759 C -45.048551,44.251861 -45.11062,43.933448 -45.293724,43.490275 C -45.203102,43.520068 -45.119931,43.534344 -45.049793,43.53993 C -44.533378,43.575931 -44.054206,43.228345 -43.887241,42.87331 z M -29.08131,42.240206 C -29.194897,42.443793 -29.319655,42.584689 -29.492827,42.715034 C -29.561103,42.649241 -29.626896,42.585931 -29.688965,42.526345 C -29.673448,42.518896 -29.278689,42.33331 -29.08131,42.240206 z M -32.729724,46.621655 C -32.616759,46.645241 -32.501931,46.663862 -32.370965,46.657655 C -32.310137,46.793586 -32.246827,46.918965 -32.183517,47.033172 C -32.379655,46.886068 -32.607448,46.714758 -32.729724,46.621655 z M -30.938414,48.343448 C -30.951448,48.326689 -30.965724,48.309931 -30.977517,48.292551 C -30.880068,48.351517 -30.78262,48.40924 -30.682069,48.465723 C -30.227724,48.725172 -29.862758,48.959172 -29.535655,49.558759 C -29.664137,49.567448 -29.845379,49.535793 -30.085586,49.331586 C -30.414552,49.051654 -30.668413,48.707793 -30.938414,48.343448 z M -41.501931,60.989379 C -41.501931,60.976344 -41.50131,60.961448 -41.498827,60.947793 C -41.50131,60.961448 -41.500689,60.975723 -41.501931,60.989379 L -41.501931,60.989379 z" style="fill:url(#radialGradient5464)"/><path id="path3495" d="M -27.549447,70.952688 C -27.006345,70.649171 -27.006345,70.649171 -26.333511,68.79331 C -26.434073,68.775931 -26.565652,68.757309 -26.666823,68.741792 C -26.821999,67.437723 -26.914477,66.65193 -25.120072,64.819654 C -25.302551,62.688827 -26.859856,60.877034 -26.717723,58.667999 C -26.511654,55.47331 -24.894763,52.380413 -25.949929,49.092621 C -26.697245,49.596 -26.584899,50.788345 -27.667997,51.020482 C -28.55993,50.209862 -27.862897,49.867241 -27.446416,49.660551 C -26.761797,49.322275 -25.357794,46.236206 -26.662487,42.730551 C -26.851792,42.685862 -26.851792,42.685862 -28.453171,41.659241 C -28.823103,42.559241 -28.934827,42.751034 -29.522621,43.138345 C -30.987448,41.737448 -30.987448,41.737448 -30.975035,41.631931 C -30.870137,41.626345 -30.72862,41.616413 -30.621241,41.609586 C -30.370482,41.823103 -30.14331,42.058965 -29.872689,42.250759 L -26.699106,40.755517 C -32.564,32.027379 -42.252345,26.079931 -53.374482,25.300345 C -53.172137,26.006069 -53.051102,26.714276 -53.132413,27.291517 C -53.594826,30.587379 -52.736413,31.568069 -51.93262,31.806413 C -51.717861,31.450138 -51.747034,30.97531 -51.342344,30.712137 C -51.66262,31.992 -51.760068,32.608345 -50.766964,33.829862 L -52.295724,36.084827 C -52.300068,35.856413 -52.201999,35.641034 -52.198896,35.412621 C -52.197655,35.272965 -52.257861,35.095448 -52.303172,34.96262 C -53.021309,34.647931 -54.203103,33.870207 -54.057861,32.188758 C -54.671724,32.152759 -54.646896,31.619586 -54.543862,31.10193 C -54.557516,31.106897 -54.575516,31.111861 -54.58731,31.114345 C -54.870344,31.212414 -54.870344,31.212414 -55.984482,32.075172 C -55.989448,32.875241 -55.795793,33.27 -55.175103,34.12469 C -54.601585,34.910482 -54.566827,35.181724 -54.970895,35.649724 C -55.02862,34.904896 -55.147172,34.549241 -55.47924,34.128413 C -56.163861,34.115379 -56.031655,35.085517 -56.724344,35.057586 C -56.360619,35.758344 -56.675309,36.604965 -56.19862,37.284621 C -55.916206,37.305724 -55.759792,37.191517 -55.587241,37.04069 C -55.317861,36.804206 -55.194344,36.473379 -54.966551,36.209586 C -54.786551,36.002897 -54.366965,35.923448 -54.714551,36.868138 C -54.918137,37.421793 -54.933034,37.530414 -54.857931,38.031931 C -54.127379,37.703586 -53.540206,37.125724 -52.795999,36.824069 L -54.04731,38.668758 C -52.332344,40.527103 -52.332344,40.527103 -52.315586,40.70462 C -53.412965,40.97462 -54.130482,41.136621 -55.270068,41.381793 C -54.971516,42.850966 -55.121723,44.393379 -54.476827,45.806689 C -53.424138,45.406345 -52.216896,46.060552 -51.205792,45.377172 C -50.664551,45.010344 -50.902275,44.355517 -50.603102,43.899931 C -50.17731,43.256275 -48.819241,43.194827 -49.084896,42.158275 C -49.332551,42.192414 -49.332551,42.192414 -50.136964,43.247586 C -50.310759,43.210344 -50.532344,43.089931 -50.649654,42.96393 C -49.986138,42.543724 -49.83531,42.148965 -49.433723,41.09131 C -48.788206,40.967172 -48.819241,40.249035 -48.345654,39.972206 C -48.022275,40.644413 -48.410206,41.419655 -48.011102,42.083793 C -47.695792,42.607034 -47.292345,42.631241 -46.729379,42.669724 C -46.49662,42.231517 -46.583517,42.114827 -47.254482,41.222276 C -47.208551,41.094414 -47.147103,40.925586 -47.097447,40.798965 C -46.412827,41.290552 -45.11,40.888966 -44.886551,42.014896 C -45.160896,42.196138 -45.479931,42.305379 -45.739379,42.506483 C -45.391793,43.641103 -44.39,43.17931 -44.183931,42.735517 C -43.870482,42.067034 -43.993999,41.221655 -43.272138,40.719517 C -42.958689,41.621379 -42.958689,41.621379 -41.613034,42.595242 C -40.935241,42.210413 -40.539862,41.535103 -39.930345,41.078896 C -39.441241,41.623862 -39.056414,42.051517 -38.079448,41.196207 C -37.950965,41.371862 -37.790207,41.617655 -37.697103,41.813172 C -37.596552,41.834276 -37.464344,41.860966 -37.362551,41.882689 C -37.318482,41.84731 -37.318482,41.84731 -36.622068,41.205517 C -35.649448,43.217793 -37.201172,44.204069 -41.236275,44.140137 C -41.244345,45.595034 -41.244345,45.595034 -41.57331,45.957517 C -42.781792,45.353586 -44.179586,45.542896 -45.430896,45.115242 C -45.337171,44.490207 -45.312965,44.146965 -45.792758,43.188621 C -48.598896,43.230828 -50.297103,45.580138 -52.809034,46.236206 C -54.474965,49.204345 -54.474965,49.204345 -54.113102,49.741241 C -55.607103,51.024827 -55.78462,51.586551 -56.93724,55.244276 C -56.265034,55.717241 -56.137171,55.95931 -56.296689,57.430965 C -56.607034,60.212896 -53.154758,61.785723 -51.656413,62.330068 C -47.904344,63.698068 -44.925033,59.644965 -41.174828,60.989379 C -41.282827,61.853378 -40.725448,62.676413 -41.005999,63.547861 C -39.829172,63.854483 -36.255862,64.790482 -38.220344,70.788206 C -36.186965,72.634137 -36.186965,72.634137 -36.082068,73.99593 L -33.631586,78.031033 C -31.251241,76.950413 -27.655583,75.314275 -27.549447,70.952688 z M -48.659103,32.432069 C -48.700068,32.577931 -48.771448,32.82 -49.111586,32.942896 C -49.194758,32.970827 -49.215861,32.975172 -49.281655,32.990069 C -49.61993,32.492276 -49.501378,32.304827 -49.348689,32.06462 C -49.189172,31.82069 -49.068138,31.627655 -49.546068,31.042966 C -49.359862,31.062206 -49.208413,31.216759 -49.00793,31.172069 C -48.877586,30.944896 -49.222689,30.692275 -48.961999,30.472552 C -49.13331,30.289448 -49.13331,30.289448 -49.663379,30.421034 C -49.625517,30.216207 -49.578965,29.956759 -49.833447,29.485655 C -50.243723,28.714759 -50.896068,28.092207 -51.319379,27.326276 C -50.995378,27.186 -51.174137,26.806759 -51.421792,26.279793 C -51.640275,25.813655 -51.622275,25.718069 -51.529792,25.611931 C -51.126965,26.182345 -51.061792,26.381586 -51.06862,27.022138 C -51.067999,27.077379 -51.100896,27.159931 -51.06862,27.205862 C -49.939586,28.766896 -49.362965,28.849448 -49.172413,28.877379 C -49.153793,28.973586 -49.133931,29.102689 -49.111586,29.200759 C -48.857102,30.401793 -48.291655,31.489862 -47.952137,32.140345 C -48.533103,31.994483 -48.57593,32.152138 -48.659103,32.432069 z M -30.297862,49.579861 C -30.999241,48.981517 -31.379103,48.131793 -32.06931,47.526 C -32.729724,46.95 -33.529793,46.538482 -34.15731,45.921517 C -34.54462,45.53731 -34.639585,45.419379 -34.956138,44.987379 C -33.727792,44.860138 -33.480138,46.59062 -32.172965,46.308206 C -31.674551,47.527241 -31.137655,47.830758 -30.520068,48.182689 C -29.988138,48.486206 -29.484758,48.769862 -29.073862,49.743723 C -29.132207,49.772276 -29.204828,49.813862 -29.263793,49.834965 C -29.605793,49.959103 -29.953999,49.873448 -30.297862,49.579861 z" style="fill:url(#radialGradient5466)"/><path id="path3504" d="M -74.710068,30.811448 C -74.859654,30.958552 -75.048344,31.097587 -75.214068,31.19938 C -75.289792,31.167104 -75.416412,31.112483 -75.416412,31.112483 C -75.518205,31.067793 -75.633034,31.077103 -75.726137,31.139172 L -76.040826,31.350207 C -76.118412,31.401724 -76.173033,31.492965 -76.185447,31.584207 L -76.228275,31.888344 L -76.244413,31.994483 C -76.246275,32.011242 -76.247516,32.027379 -76.247516,32.042896 C -76.247516,32.134137 -76.199723,32.209862 -76.135171,32.270689 C -77.362896,33.355655 -78.256689,34.675862 -79.106413,35.97062 C -79.621585,36.757655 -80.165309,37.556482 -80.767999,38.295103 C -80.681102,38.058 -80.465103,37.690551 -79.954275,36.93269 C -79.917654,36.877449 -79.899033,36.813517 -79.899033,36.750206 C -79.899033,36.687517 -79.917033,36.623586 -79.953654,36.568965 C -80.129309,36.305793 -80.370758,35.943931 -80.532137,35.528069 C -80.571861,35.423793 -80.661861,35.348069 -80.770482,35.325724 C -80.878482,35.302759 -80.990827,35.336275 -81.069653,35.415724 C -85.693792,40.093241 -88.917033,45.941379 -90.391171,52.325172 C -90.423447,52.464827 -90.356412,52.605724 -90.232275,52.677724 C -90.107516,52.749724 -89.947999,52.727999 -89.842481,52.630551 C -89.842481,52.630551 -89.797171,52.587103 -89.755585,52.549862 C -88.206964,53.227655 -87.324344,53.623034 -87.025792,53.994827 C -86.937034,54.10531 -86.896067,54.224483 -86.896067,54.382758 C -86.896067,54.626689 -86.998481,54.972413 -87.174136,55.506827 C -87.817792,55.667585 -87.942551,55.818413 -88.134964,56.59862 C -88.141171,56.624068 -88.144274,56.650758 -88.144274,56.676206 C -88.144274,56.748827 -88.119447,56.820206 -88.074137,56.878552 C -87.588757,57.494276 -87.297654,57.646344 -86.056895,57.479999 C -85.988619,57.728275 -85.901723,57.962896 -85.799309,58.167723 C -85.856413,58.359517 -86.02524,58.924344 -86.02524,58.924344 C -86.03455,58.954137 -86.038275,58.984551 -86.038275,59.013723 C -86.038275,59.117999 -85.984275,59.214827 -85.892413,59.277517 C -85.365447,59.634414 -85.187309,59.587862 -84.291033,59.102482 C -83.752275,59.720068 -83.389792,59.700826 -80.577447,59.546896 C -79.430412,59.483586 -79.430412,59.483586 -78.526068,61.613793 C -78.488206,61.702551 -78.414344,61.770207 -78.321861,61.798758 L -77.854482,61.943379 C -77.706758,61.989931 -77.548482,61.928482 -77.473999,61.79193 L -77.292757,61.464206 C -77.230689,61.349999 -77.243102,61.216551 -77.319447,61.114137 C -77.634758,60.693931 -77.830896,60.21662 -78.037585,59.711999 L -78.521723,58.657448 C -78.566412,58.558758 -78.645861,58.512206 -78.752619,58.494206 C -78.938826,58.462551 -79.188344,58.330344 -79.285171,58.211172 C -79.349103,58.133586 -79.444688,58.089517 -79.545241,58.091379 C -81.246551,58.130482 -81.246551,58.130482 -83.15455,56.079724 C -83.231516,55.997793 -83.347585,55.961793 -83.458688,55.982275 C -83.458688,55.982275 -83.52262,55.994689 -83.569791,56.003379 C -84.266826,54.424344 -84.390964,54.125172 -84.390964,53.965655 C -84.390964,53.932138 -84.385378,53.905448 -84.379792,53.872551 C -84.375447,53.852069 -84.373585,53.830965 -84.373585,53.809862 C -84.373585,53.734137 -84.399654,53.659655 -84.45055,53.600689 C -84.515102,53.526827 -84.606344,53.48462 -84.705033,53.488344 L -84.850896,53.49331 L -85.094206,53.495172 C -85.650344,53.443655 -85.720482,53.225172 -85.743447,53.153792 C -85.76393,53.089862 -85.773861,53.019103 -85.773861,52.942137 C -85.773861,51.265655 -81.113102,46.570138 -80.092688,45.680689 C -80.019447,45.617379 -79.97662,45.523655 -79.97662,45.428689 C -79.97662,45.406965 -79.979102,45.385862 -79.983447,45.364758 C -80.008274,45.246207 -80.023792,45.169862 -80.023792,45.092897 C -80.023792,44.985516 -79.990895,44.870689 -79.910206,44.63793 C -76.868827,44.316413 -76.426274,44.231999 -75.331998,42.49531 C -75.315241,42.468621 -75.315241,42.436345 -75.30655,42.405931 C -73.603999,42.641172 -73.577309,42.652965 -73.412205,42.868345 C -73.345792,42.95462 -73.241516,43.001793 -73.132896,42.995586 C -73.024895,42.98938 -72.926827,42.929172 -72.871585,42.836069 C -72.478688,42.173793 -72.22855,41.602138 -72.22855,41.067724 C -72.22855,40.61462 -72.423447,40.186344 -72.850482,39.752483 C -72.732551,39.443379 -72.136689,37.881103 -72.136689,37.881103 C -72.121792,37.841999 -72.114964,37.801034 -72.114964,37.760068 C -72.114964,37.678137 -72.143516,37.597448 -72.199378,37.537242 C -72.681034,37.013379 -72.913791,36.760138 -72.913791,36.167379 C -72.913791,35.611862 -72.710206,34.758413 -72.314206,33.105517 C -72.307998,33.080689 -72.304895,33.055241 -72.304895,33.030414 C -72.304895,32.937931 -72.343379,32.849172 -72.413516,32.786482 C -72.502896,32.707034 -72.628896,32.681586 -72.741861,32.722552 C -73.133516,32.863448 -73.398551,33.162 -73.632551,33.425793 C -73.735586,33.541862 -73.826206,33.636207 -73.916826,33.72 C -73.423999,33.006827 -73.389861,32.911862 -73.321585,32.600897 C -73.31662,32.576689 -73.314137,32.553103 -73.314137,32.529518 C -73.314137,32.455655 -73.338344,32.384897 -73.385516,32.326552 C -73.385516,32.326552 -73.451309,32.244 -73.494757,32.19 C -73.420896,32.007517 -73.204275,31.473724 -73.204275,31.473724 C -73.188137,31.433379 -73.180068,31.392413 -73.180068,31.351448 C -73.180068,31.27138 -73.209861,31.192552 -73.265723,31.131103 C -73.350136,31.038 -73.480482,31.002 -73.600895,31.038 C -73.735586,31.078345 -73.927378,31.10131 -74.09993,31.10193 C -74.139654,31.010068 -74.179378,30.916966 -74.179378,30.916966 C -74.222827,30.818276 -74.310343,30.746897 -74.416482,30.725793 C -74.52262,30.70469 -74.633723,30.736345 -74.710068,30.811448 z M -75.435033,41.142207 C -75.215309,40.746827 -75.011723,40.522138 -74.82862,40.384966 C -74.893171,40.465655 -74.95462,40.545723 -75.023516,40.627654 C -75.338206,40.996965 -75.655999,41.383034 -75.778895,41.908758 C -75.956413,41.85662 -76.134551,41.821862 -76.299654,41.801379 C -76.487103,41.776552 -76.64724,41.741172 -76.791861,41.685931 C -76.704965,41.43393 -76.62924,41.331517 -76.426274,41.147172 C -76.227654,41.183172 -76.004205,41.234689 -75.81862,41.293034 C -75.670895,41.341448 -75.510137,41.277517 -75.435033,41.142207 z" style="fill:url(#radialGradient5468)"/><path id="path3519" d="M -89.820137,52.164413 C -86.238137,53.729793 -86.238137,53.729793 -86.917792,55.774965 C -87.634689,55.934482 -87.634689,55.934482 -87.817171,56.675586 C -87.401309,57.203793 -87.287102,57.34531 -85.816688,57.117517 C -85.776344,57.439034 -85.608757,57.854896 -85.452344,58.144137 C -85.544206,58.401724 -85.641033,58.745586 -85.709309,59.006275 C -85.301516,59.282482 -85.301516,59.282482 -84.211585,58.687241 C -83.651102,59.387999 -83.651102,59.387999 -80.594826,59.219792 C -79.219378,59.143448 -79.219378,59.143448 -78.225654,61.48531 C -78.089102,61.528138 -77.899171,61.587724 -77.758896,61.629931 C -77.704895,61.534345 -77.634137,61.40524 -77.581378,61.307793 C -78.153034,60.546827 -78.354758,59.625723 -78.807862,58.813861 C -79.054895,58.772276 -79.382619,58.60593 -79.539033,58.414758 C -81.386826,58.457586 -81.386826,58.457586 -83.395998,56.300689 C -83.505861,56.321792 -83.656068,56.350344 -83.76593,56.370207 C -84.759033,54.121448 -84.759033,54.121448 -84.702551,53.812345 C -84.829171,53.814206 -84.997379,53.830344 -85.12524,53.817931 C -88.915171,53.468482 -80.407378,45.51 -80.304344,45.42931 C -80.39062,45.012827 -80.39062,45.012827 -80.152275,44.333172 C -76.909171,43.991172 -76.645378,43.962621 -75.610067,42.319034 C -76.092964,42.037241 -76.732896,42.213517 -77.190343,41.850413 C -76.986757,41.203034 -76.986757,41.203034 -76.526206,40.795241 C -76.280413,40.82938 -75.957033,40.905724 -75.719309,40.981448 C -75.047102,39.772345 -74.40593,39.84062 -74.133447,39.867931 C -74.421447,40.683517 -75.318964,41.160827 -75.482206,42.049655 C -73.407861,42.335793 -73.407861,42.335793 -73.152758,42.667241 C -72.338413,41.292413 -72.356413,40.603449 -73.229723,39.827586 C -72.897034,38.892828 -72.807654,38.658827 -72.440206,37.755724 C -73.491654,36.613654 -73.491654,36.613654 -72.632619,33.02731 C -73.422757,33.309724 -73.626965,34.464827 -74.722482,34.298483 C -73.715724,32.862828 -73.715724,32.862828 -73.642482,32.527655 C -73.710136,32.442 -73.802619,32.327792 -73.871516,32.242758 C -73.761034,31.976483 -73.616413,31.616483 -73.508413,31.348345 C -73.742412,31.417862 -74.078827,31.44331 -74.320896,31.41538 C -74.368688,31.305517 -74.43262,31.156552 -74.480413,31.043586 C -74.66724,31.22669 -74.950275,31.447655 -75.186137,31.565586 C -75.295379,31.520276 -75.439999,31.456965 -75.545516,31.410414 C -75.641102,31.474345 -75.76524,31.558138 -75.860827,31.622069 C -75.875724,31.746827 -75.901792,31.915034 -75.921034,32.041035 C -75.807447,32.079517 -75.656619,32.131034 -75.542412,32.170138 C -77.847654,33.98131 -78.905309,36.681931 -80.759309,38.812758 C -80.872895,38.799103 -81.022481,38.779241 -81.135447,38.764966 C -81.183861,38.352207 -81.202482,38.197655 -80.226758,36.747723 C -80.415447,36.464069 -80.666206,36.087931 -80.838137,35.642276 C -85.328826,40.186966 -88.584343,45.950069 -90.072757,52.397792 C -89.992068,52.317724 -89.910137,52.237655 -89.820137,52.164413 z" style="fill:url(#radialGradient5470)"/><path id="path3528" d="M -89.299378,67.664275 C -89.391861,67.742482 -89.437792,67.862276 -89.412344,67.980826 C -89.308688,68.457516 -89.31924,68.657379 -89.375102,69.068896 C -89.386895,69.157654 -89.36455,69.245172 -89.309309,69.314689 C -89.254068,69.384206 -89.17524,69.429516 -89.087102,69.437586 L -87.885447,69.556137 C -87.783654,69.566689 -87.665722,69.530069 -87.595585,69.453724 C -87.526688,69.377999 -87.478895,69.276827 -87.498137,69.175655 C -87.588137,68.689034 -87.720965,68.396069 -87.972964,68.135999 C -87.974205,68.133517 -88.369585,67.855448 -88.369585,67.855448 C -88.370205,67.854827 -88.74386,67.697172 -88.74386,67.697172 L -88.962964,67.610275 C -89.07593,67.566206 -89.208137,67.585447 -89.299378,67.664275 z" style="fill:url(#radialGradient5472)"/><path id="path3541" d="M -87.859378,69.230275 C -87.849446,69.231516 -87.833309,69.232758 -87.820274,69.235861 C -87.898481,68.81193 -88.003378,68.576068 -88.208206,68.362551 C -88.249792,68.321586 -88.343516,68.23531 -88.518551,68.147793 C -88.702895,68.053448 -88.902757,67.993862 -89.09393,67.910068 C -88.97724,68.443241 -88.993999,68.684689 -89.051723,69.112965 C -88.660688,69.156413 -88.259723,69.19862 -87.859378,69.230275 z" style="fill:url(#radialGradient5474)"/><path id="path3558" d="M -90.131102,57.311792 C -90.368206,57.599172 -90.612757,57.885931 -90.868481,58.024344 C -90.903861,58.017517 -90.936137,58.003241 -90.973999,58.008827 C -91.131654,58.030551 -91.247102,58.167723 -91.251447,58.327862 C -91.251447,58.327862 -91.304826,60.085655 -91.304826,60.089379 C -91.304826,60.232758 -91.209861,60.353792 -91.070826,60.395378 C -90.870343,60.453724 -90.67793,60.467378 -90.483654,60.487862 C -90.351447,61.253792 -90.07524,61.765861 -89.645723,61.982482 C -89.372619,62.120275 -89.080275,62.117172 -88.827654,62.053241 C -88.504275,62.822896 -87.666964,64.541585 -86.496964,64.902206 C -86.146275,65.012069 -85.799309,64.981034 -85.461033,64.840137 C -85.39524,65.059862 -85.353654,65.279585 -85.353654,65.496827 C -85.353654,66.03124 -85.517516,66.563793 -85.686343,67.113723 C -85.864481,67.694068 -86.048206,68.292413 -86.048206,68.923654 C -86.048206,68.940413 -86.048206,68.957792 -86.047585,68.975172 C -86.030826,69.199861 -85.867585,70.99924 -84.979378,72.094137 C -81.554413,76.320413 -81.554413,76.320413 -80.740068,76.723861 C -79.936895,77.119861 -79.394413,77.510896 -79.121309,77.886413 C -79.08593,77.970206 -76.419448,84.178344 -76.418826,84.178965 C -75.488413,88.271792 -71.322965,91.866825 -68.776896,92.794139 C -67.756481,93.16593 -66.947102,93.154754 -66.436274,92.761856 C -66.354964,92.699172 -66.308413,92.60296 -66.308413,92.502411 C -66.308413,92.485654 -66.309654,92.467653 -66.312758,92.451518 C -66.331378,92.332346 -66.414551,92.233035 -66.527516,92.193934 C -67.461033,91.869315 -68.08793,91.190277 -68.750827,90.471515 C -69.23062,89.950758 -69.732137,89.42503 -70.35593,89.021585 C -70.318688,88.983099 -70.262827,88.926624 -70.262827,88.926624 C -70.201999,88.865793 -70.168482,88.801242 -70.168482,88.719933 C -70.168482,88.708135 -70.168482,88.695105 -70.170965,88.681447 L -70.303792,87.637447 C -70.303792,87.637447 -70.357792,87.268758 -70.387585,87.061447 C -69.871792,86.654895 -69.503103,86.605861 -69.279033,86.58662 C -69.189033,86.579792 -69.102758,86.535103 -69.046896,86.464964 C -68.999723,86.406619 -68.973033,86.333379 -68.973033,86.257654 C -68.973033,86.24462 -68.973654,86.229723 -68.976137,86.215447 C -69.056206,85.655586 -69.064895,85.597861 -69.064895,85.048551 C -69.064895,85.036137 -69.064895,85.02062 -69.064895,85.006964 C -68.415033,84.62524 -68.174206,83.999585 -67.978689,83.428551 C -67.801171,82.907792 -67.64724,82.457171 -67.21524,82.195861 C -67.11655,82.136895 -67.058206,82.030137 -67.058206,81.916551 C -67.058206,81.90662 -67.058206,81.894826 -67.059447,81.884274 C -67.090482,81.572689 -67.177999,81.282206 -67.262413,81.001654 C -67.343723,80.732896 -67.410758,80.47593 -67.43124,80.220206 C -66.87324,79.872619 -66.721792,79.822964 -65.068275,79.309033 C -64.967103,79.276758 -64.883309,79.18862 -64.851033,79.087448 C -64.541309,78.125999 -64.312275,77.414068 -64.312275,76.603448 C -64.312275,76.177655 -64.375585,75.72393 -64.523309,75.19324 C -64.561792,75.05731 -64.57793,74.933172 -64.57793,74.812757 C -64.57793,74.262827 -64.212965,73.854413 -63.802689,73.395102 C -63.460689,73.012137 -63.105655,72.614275 -62.945517,72.102827 C -62.896482,71.945171 -62.872275,71.782551 -62.872275,71.617447 C -62.872275,71.081792 -63.129861,70.516965 -63.62393,69.985034 C -64.595309,68.940413 -66.528137,68.043517 -68.197172,68.436413 C -68.908482,68.60462 -71.065999,67.505999 -72.170206,66.854896 C -72.143516,66.794069 -72.053516,66.587379 -72.053516,66.587379 C -72.034895,66.545793 -72.025585,66.500482 -72.025585,66.456414 C -72.025585,66.403034 -72.03862,66.350896 -72.064068,66.302482 C -72.71331,65.080964 -73.895103,64.85131 -74.937241,64.649585 C -75.619378,64.517378 -76.263033,64.392 -76.762068,64.028276 C -77.131378,63.758896 -77.274757,63.369103 -77.439861,62.917861 C -77.536688,62.652826 -77.63724,62.380345 -77.791171,62.120896 C -77.879309,61.975034 -78.066137,61.920413 -78.220068,61.997999 C -79.431654,62.612482 -80.339723,62.398344 -81.692826,61.173724 C -81.814482,61.063861 -81.998827,61.061378 -82.122965,61.167517 C -82.685309,61.644827 -82.730619,61.681448 -84.250689,61.941517 C -84.40586,61.967586 -84.520067,62.100413 -84.52255,62.258068 C -84.536206,62.968758 -84.562895,63.124551 -84.950827,63.476482 C -85.256206,63.11462 -85.565309,63.08731 -86.554068,63.127034 C -86.793654,60.40593 -86.894827,60.047792 -88.330481,59.320344 C -88.28393,59.044138 -88.225585,58.770413 -88.147378,58.481792 C -88.014551,57.992069 -87.876757,57.485585 -87.876757,56.943103 C -87.876757,56.920758 -87.876757,56.899654 -87.877379,56.87793 C -87.879861,56.775516 -87.929516,56.679931 -88.012688,56.619723 C -88.984068,55.922069 -89.646964,56.725241 -90.131102,57.311792 z" style="fill:url(#radialGradient5476)"/><path id="path3573" d="M -78.840137,77.715723 L -76.118412,84.053585 C -74.994343,89.173655 -68.396413,93.857375 -66.635517,92.503034 C -68.49262,91.856894 -69.208275,89.936478 -70.876688,89.084276 C -70.761861,88.968202 -70.611033,88.814893 -70.498069,88.698826 C -70.530965,88.098621 -70.67931,87.51393 -70.739516,86.917447 C -70.060481,86.320965 -69.565792,86.283724 -69.300758,86.260757 C -69.39324,85.613999 -69.39324,85.613999 -69.391999,84.832551 C -68.082965,84.260275 -68.514965,82.600551 -67.38593,81.91593 C -67.449241,81.279103 -67.789379,80.697517 -67.776343,80.047655 C -67.020965,79.573448 -67.020965,79.573448 -65.166964,78.997447 C -64.697102,77.537586 -64.435172,76.733172 -64.839862,75.280758 C -65.258206,73.775585 -63.623309,73.16731 -63.260826,72.004137 C -62.734482,70.318965 -65.870827,68.222896 -68.125172,68.754206 C -69.239309,69.016758 -72.555654,67.008206 -72.589172,66.987723 C -72.517792,66.828827 -72.424689,66.61593 -72.354551,66.456414 C -73.319723,64.640275 -75.572206,65.30193 -76.957585,64.29331 C -77.652137,63.787447 -77.68193,62.945171 -78.074206,62.289723 C -79.416758,62.970621 -80.457033,62.734137 -81.915033,61.415171 C -82.513999,61.925379 -82.591585,61.989931 -84.199171,62.262413 C -84.217171,63.197792 -84.245102,63.322551 -85.006688,63.957516 C -85.36793,63.401379 -85.36793,63.401379 -86.855103,63.464689 C -87.134412,60.266897 -87.134412,60.266897 -88.704757,59.494758 C -88.606068,58.612758 -88.188964,57.784758 -88.207585,56.883517 C -89.387516,56.033793 -89.885309,58.094483 -90.909447,58.404206 C -90.913792,58.386206 -90.918757,58.365103 -90.926206,58.345862 C -90.959102,58.92062 -90.974619,59.499103 -90.978343,60.08131 C -90.751171,60.147724 -90.503516,60.197379 -90.205585,60.204827 C -89.951102,62.310827 -88.77862,61.713723 -88.64393,61.637999 C -88.488757,62.050758 -87.072964,65.638344 -85.275447,64.378965 C -84.51324,65.989654 -85.747171,67.425931 -85.721723,68.971448 C -85.720482,68.988827 -85.589516,70.823586 -84.726136,71.888689 C -81.346482,76.059102 -81.346482,76.059102 -80.595447,76.429654 C -79.732068,76.856688 -79.141792,77.288689 -78.840137,77.715723 z" style="fill:url(#radialGradient5478)"/><path id="path3586" d="M -24.567039,61.583379 C -24.660132,61.652276 -24.693037,61.961379 -24.565788,62.067516 C -24.473932,62.143241 -24.355998,62.085517 -24.370279,61.784482 C -24.376482,61.657241 -24.472065,61.536206 -24.567039,61.583379 z" style="fill:url(#radialGradient5480)"/><path id="path3599" d="M -66.215309,91.203936 C -66.554826,91.210139 -66.896206,91.216965 -67.237585,91.219448 C -66.795654,91.777446 -66.339448,92.010203 -65.802551,91.956205 C -65.879516,91.814065 -65.876413,91.648965 -65.949034,91.505581 C -65.960827,91.491307 -65.969517,91.472689 -65.980068,91.456548 C -66.059516,91.351034 -66.090551,91.323108 -66.215309,91.203936 z" style="fill:url(#radialGradient5482)"/><path id="path3612" d="M -23.009105,59.643724 C -23.010343,59.584758 -23.043864,59.466206 -23.115241,59.512137 C -23.22821,59.604 -23.364755,59.961516 -23.243107,60.070137 C -23.153105,60.149585 -23.004139,59.808827 -23.009105,59.643724 z" style="fill:url(#radialGradient5484)"/><path id="path3625" d="M -21.132762,55.078551 C -21.162555,55.00593 -21.191104,54.933309 -21.238899,54.868758 C -21.320207,54.755793 -21.372967,54.791172 -21.420762,54.82531 C -21.292897,55.225034 -21.189859,55.568275 -21.071309,55.971103 C -21.053314,55.972344 -21.039033,55.966137 -21.022276,55.964276 C -21.05828,55.668206 -21.089311,55.370896 -21.132762,55.078551 z" style="fill:url(#radialGradient5486)"/><path id="path3638" d="M -21.123447,64.740826 C -21.200412,64.810344 -21.251935,65.12131 -21.165031,65.223103 C -21.143309,65.244206 -21.118481,65.246689 -21.095514,65.236758 C -21.072554,65.078482 -21.051447,64.918965 -21.03034,64.760689 C -21.057035,64.729034 -21.088688,64.715999 -21.123447,64.740826 z" style="fill:url(#radialGradient5488)"/><path id="path3651" d="M -22.258067,59.465586 C -22.259312,59.426482 -22.265516,59.391724 -22.271103,59.363171 C -22.374757,59.503448 -22.526205,59.608965 -22.607521,59.767241 C -22.674548,59.894482 -22.675793,59.994414 -22.655309,60.114206 C -22.554138,59.982 -22.415726,59.876482 -22.325724,59.733102 C -22.290343,59.677861 -22.249381,59.58662 -22.258067,59.465586 z" style="fill:url(#radialGradient5490)"/><path id="path3686" d="M -23.363517,62.40331 C -23.411934,62.10662 -23.466555,61.80062 -23.501929,61.614413 C -23.720412,61.762758 -23.907863,61.889999 -24.026413,61.967586 C -23.976758,62.249379 -23.938279,62.478413 -23.889239,62.756482 C -23.726615,62.64724 -23.557794,62.537379 -23.397653,62.425655 C -23.386484,62.417586 -23.37221,62.409516 -23.363517,62.40331 z" style="fill:url(#radialGradient5492)"/><path id="path3699" d="M -21.717448,57.191999 C -21.576547,57.418551 -21.469795,57.104483 -21.36924,56.763724 C -21.366757,56.750069 -21.358071,56.732689 -21.357449,56.720275 C -21.358071,56.698551 -21.454276,56.417379 -21.650414,56.57131 C -21.78014,56.698551 -21.837243,56.996482 -21.717448,57.191999 z" style="fill:url(#radialGradient5494)"/><path id="path3712" d="M -23.936418,68.574207 C -23.55655,68.257034 -22.825381,68.683448 -22.606276,68.078896 C -22.600688,68.061517 -21.966347,63.400138 -21.963242,63.161171 C -21.947107,61.339448 -22.535514,60.897516 -22.816688,60.684 C -22.896136,62.276689 -23.18352,62.98862 -24.041932,63.725999 C -23.824688,64.695516 -23.788691,65.227447 -23.987934,66.463862 C -24.152412,67.476827 -24.16607,67.83124 -23.936418,68.574207 z" style="fill:url(#radialGradient5496)"/><path style="opacity:.8;fill:url(#radialGradient5498)" id="path3721" d="M -58.397724,41.630069 C -62.271447,40.899517 -66.040896,40.605931 -69.621033,40.786551 C -58.166827,42.919241 -46.387379,47.174068 -34.149241,54.508137 C -29.893173,57.057931 -25.575039,59.994414 -21.19979,63.330621 C -21.140826,62.518137 -21.123447,61.713723 -21.124069,60.908068 C -32.67262,50.754827 -46.058413,43.956413 -58.397724,41.630069 z"/><path style="opacity:.8;fill:url(#radialGradient5500);fill-opacity:1;fill-rule:evenodd" id="path3728" d="M -34.149241,54.508137 C -39.660344,62.60131 -67.259309,72.20524 -86.176068,72.668275 C -85.930896,73.324965 -85.667102,73.981654 -85.382205,74.618482 C -62.854895,74.843792 -39.907999,63.830275 -34.149241,54.508137 z"/><path style="opacity:.8;fill:url(#radialGradient5502);fill-opacity:1;fill-rule:evenodd" id="path3735" d="M -32.942,86.562413 C -53.622137,88.060757 -69.633447,85.029929 -82.842344,79.289792 C -82.600274,79.660965 -82.353861,80.030275 -82.097517,80.393378 C -70.36462,87.835449 -51.953103,90.786832 -33.880483,87.319034 C -33.565172,87.070137 -33.247379,86.821861 -32.942,86.562413 z"/><path style="opacity:.8;fill:url(#linearGradient5504);fill-opacity:1;fill-rule:evenodd" id="path3742" d="M -24.754477,44.136413 C -28.798276,50.783379 -32.202137,54.663931 -35.686689,56.342275 C -31.841517,54.697447 -28.061517,51.617586 -23.842074,45.956897 L -24.754477,44.136413 z"/><path style="fill:url(#radialGradient5506);fill-opacity:1" id="path3751" d="M -55.032344,67.861034 C -56.141516,67.388689 -57.240138,66.957931 -58.230137,66.725792 C -57.109792,66.687309 -55.945999,66.787861 -54.762344,66.934344 C -55.188137,65.825171 -55.554965,64.738965 -55.734344,63.706758 C -55.304827,64.539103 -54.640068,65.487516 -53.924413,66.451448 C -53.452068,65.341654 -53.021309,64.243655 -52.789792,63.252413 C -52.751309,64.372758 -52.848758,65.537171 -52.996482,66.720827 C -51.88793,66.295034 -50.802965,65.928206 -49.770758,65.748827 C -50.601241,66.178965 -51.550275,66.843723 -52.514206,67.56 C -51.405034,68.031103 -50.307034,68.461861 -49.316413,68.694 C -50.436758,68.732482 -51.600551,68.634413 -52.783585,68.485448 C -52.358413,69.59462 -51.992206,70.678965 -51.812206,71.711172 C -52.242965,70.879448 -52.906482,69.931654 -53.622758,68.968965 C -54.093861,70.079379 -54.52462,71.176758 -54.757379,72.166137 C -54.795241,71.047033 -54.695309,69.883861 -54.550068,68.699585 C -55.657999,69.125379 -56.742965,69.490965 -57.774551,69.670965 C -56.943447,69.240827 -55.995654,68.576068 -55.032344,67.861034 z"/><path style="fill:url(#radialGradient5508);fill-opacity:1" id="path3760" d="M -48.732344,86.960896 C -49.377241,86.044137 -50.031448,85.16462 -50.697447,84.495516 C -49.795586,85.016275 -48.925999,85.666758 -48.066345,86.362551 C -47.856551,85.280689 -47.613861,84.243516 -47.248275,83.341033 C -47.317172,84.208137 -47.258827,85.283792 -47.168827,86.394206 C -46.252068,85.750551 -45.37193,85.097586 -44.702827,84.430344 C -45.223585,85.331585 -45.872206,86.201171 -46.569861,87.062068 C -45.486758,87.272482 -44.450206,87.515172 -43.549586,87.880761 C -44.416068,87.811243 -45.491103,87.869585 -46.603379,87.958964 C -45.959103,88.876347 -45.304895,89.755865 -44.637034,90.42435 C -45.538896,89.906069 -46.409723,89.256202 -47.267517,88.558554 C -47.478551,89.641652 -47.723102,90.67634 -48.084965,91.577587 C -48.01793,90.711098 -48.075654,89.637931 -48.166896,88.526278 C -49.083654,89.169934 -49.962551,89.822893 -50.631655,90.490762 C -50.111516,89.590136 -49.463516,88.720549 -48.766482,87.859654 C -49.847103,87.649862 -50.884275,87.406551 -51.784275,87.042206 C -50.918413,87.111723 -49.845241,87.052137 -48.732344,86.960896 z"/><path style="fill:url(#radialGradient5510)" id="path3769" d="M -64.312275,41.175724 C -64.779654,40.340897 -65.259448,39.537724 -65.768413,38.910827 C -65.047171,39.430965 -64.365033,40.057862 -63.694689,40.725103 C -63.422827,39.822621 -63.125517,38.962965 -62.737585,38.228689 C -62.871033,38.958621 -62.914482,39.876621 -62.934344,40.828758 C -62.099517,40.361379 -61.295103,39.881586 -60.668206,39.37262 C -61.188344,40.094483 -61.81524,40.77662 -62.481861,41.448207 C -61.579999,41.719448 -60.719724,42.016138 -59.986689,42.404069 C -60.71662,42.270621 -61.635241,42.226551 -62.586758,42.208552 C -62.119379,43.042758 -61.640206,43.846552 -61.130619,44.472828 C -61.852482,43.952689 -62.53462,43.326413 -63.204965,42.659793 C -63.476206,43.561655 -63.774137,44.42069 -64.161447,45.154966 C -64.027999,44.425034 -63.985171,43.507034 -63.966551,42.554896 C -64.801378,43.022896 -65.604551,43.502689 -66.230827,44.012276 C -65.71131,43.290414 -65.084413,42.608276 -64.417792,41.93731 C -65.319654,41.666068 -66.178689,41.369379 -66.912964,40.980828 C -66.181792,41.113655 -65.263792,41.157103 -64.312275,41.175724 z"/></g></g></svg>