<svg xmlns="http://www.w3.org/2000/svg" viewBox="0 0 128 128" enable-background="new 0 0 128 128"><style type="text/css">.st0{fill:url(#SVGID_1_);} .st1{opacity:0.8;fill:#292929;enable-background:new ;} .st2{opacity:0.8;enable-background:new ;} .st3{fill:none;} .st4{fill:url(#SVGID_2_);} .st5{fill:url(#SVGID_3_);} .st6{fill:#626C51;} .st7{fill:#769A99;} .st8{fill:#39789A;} .st9{fill:#354D4B;} .st10{fill:#CEAC63;} .st11{fill:#9A7F41;} .st12{fill:#181C04;} .st13{fill:#FBD78F;} .st14{fill:url(#SVGID_4_);} .st15{fill:url(#SVGID_5_);} .st16{fill:url(#SVGID_6_);} .st17{fill:url(#SVGID_7_);} .st18{fill:url(#SVGID_8_);} .st19{fill:url(#SVGID_9_);} .st20{fill:#37420C;} .st21{fill:#5A6111;} .st22{opacity:0.4;filter:url(#aa);enable-background:new ;} .st23{fill:url(#SVGID_10_);} .st24{fill:#2C46CC;} .st25{fill:url(#SVGID_11_);} .st26{fill:url(#SVGID_12_);} .st27{fill:url(#SVGID_13_);} .st28{fill:url(#SVGID_14_);} .st29{fill:#FFFFFF;} .st30{fill:url(#SVGID_15_);} .st31{fill:url(#SVGID_16_);} .st32{fill:url(#SVGID_17_);} .st33{fill:url(#SVGID_18_);} .st34{fill:url(#SVGID_19_);} .st35{fill:url(#SVGID_20_);} .st36{fill:url(#SVGID_21_);} .st37{fill:url(#SVGID_22_);} .st38{fill:url(#SVGID_23_);}</style><filter height="1.384" id="aa" width="1.384" x="-.192" y="-.192"><feGaussianBlur stdDeviation="1.945"/></filter><radialGradient id="SVGID_1_" cx="102" cy="17.695" r="139.559" gradientTransform="matrix(1 0 0 -1 0 130.003)" gradientUnits="userSpaceOnUse"><stop offset="0" stop-color="#B7B8B9"/><stop offset=".189" stop-color="#ECECEC"/><stop offset=".257" stop-color="#FAFAFA"/><stop offset=".301" stop-color="#fff"/><stop offset=".531" stop-color="#FAFAFA"/><stop offset=".845" stop-color="#EBECEC"/><stop offset="1" stop-color="#E1E2E3"/></radialGradient><path class="st0" d="M18 9c-.6 0-1 .4-1 1v108c0 .6.4 1 1 1h59.2c.3 0 2.8.1 2.9-.1l30.6-30.8c.2-.2.3-2.7.3-2.9v-75.2c0-.6-.4-1-1-1h-92z"/><path class="st1" d="M42 58.4l-.6 5.6h-13.4c0-.3 0-.5.4-.4.8.1 1.6-.3 1.7-1 .1-1.5.1-10 0-12.7.1-.7-.6-1.4-1.4-1.4-.3 0-.8.1-.7-.3 0-.3.5-.1.7-.1h7.3c0 .3 0 .5-.4.4-.7-.1-1.6.2-1.8.9-.2 1.3-.1 9.5-.1 12.4-.1.7.4 1.5 1.4 1.4 1.3 0 2.7.2 3.8-.4 1.5-.9 2-2.6 2.4-4 .1-.5.4-.4.7-.4z"/><path class="st2" d="M45.1 48.2h.4v2.6h1.2v.2h-1.6v-2.8zm2.8 2.9c-.5 0-1-.4-1-1.1 0-.7.5-1.1 1-1.1.6 0 1 .4 1 1.1 0 .8-.5 1.1-1 1.1zm0-.3c.4 0 .6-.3.6-.8 0-.4-.2-.8-.6-.8-.4 0-.6.4-.6.8 0 .5.2.8.6.8zm1.5-1.2v-.6h.3v.4c.1-.3.3-.5.6-.5h.1v.4h-.1c-.3 0-.4.2-.5.5v1.2h-.4v-1.4zm1.5.5c0 .5.3.7.7.7.3 0 .4 0 .6-.1l.1.3c-.1.1-.4.1-.7.1-.6 0-1-.4-1-1s.4-1.1 1-1.1c.7 0 .8.6.8 1v.2l-1.5-.1zm1.1-.3c0-.2-.1-.6-.5-.6s-.5.4-.6.6h1.1zm.8-.3v-.6h.3v.3c.1-.2.3-.4.6-.4s.5.2.6.4l.2-.3c.1-.1.3-.1.4-.1.3 0 .7.2.7.9v1.3h-.4v-1.2c0-.4-.1-.6-.4-.6-.2 0-.4.2-.4.3v1.5h-.4v-1.2c0-.3-.1-.6-.4-.6-.2 0-.4.2-.5.4v1.5h-.4l.1-1.6zm7.2-.9c-.1 0-.2-.1-.2-.2s.1-.2.2-.2.2.1.2.2-.1.2-.2.2zm-.2 2.4v-2h.4v2h-.4zm1-1.4v-.7h.3v.4c.1-.3.4-.4.7-.4.5 0 .9.4.9 1.1 0 .7-.5 1.1-.9 1.1-.3 0-.5-.1-.6-.3v1.1h-.4v-2.3zm.4.6v.2c.1.3.3.4.6.4.4 0 .6-.3.6-.8 0-.4-.2-.8-.6-.8-.3 0-.5.2-.6.5v.5zm2 .5c.1.1.3.1.5.1.3 0 .4-.1.4-.3 0-.2-.1-.3-.4-.4-.4-.1-.5-.3-.5-.6s.3-.6.7-.6c.2 0 .4.1.5.1l-.1.3c-.1 0-.2-.1-.4-.1s-.3.1-.3.3c0 .2.1.3.4.4.3.1.5.3.5.6 0 .4-.3.6-.8.6l-.6-.1.1-.3zm3.4-.2v.6h-.3v-.3c-.1.2-.3.4-.7.4-.3 0-.7-.2-.7-.9v-1.3h.4v1.1c0 .4.1.7.5.7.2 0 .4-.2.5-.3v-1.5h.4l-.1 1.5zm.6-1v-.6h.3v.3c.1-.2.3-.4.6-.4s.5.2.6.4l.2-.3c.1-.1.3-.1.4-.1.3 0 .7.2.7.9v1.3h-.4v-1.2c0-.4-.1-.6-.4-.6-.2 0-.4.2-.4.3v1.5h-.4v-1.2c0-.3-.1-.6-.4-.6-.2 0-.4.2-.5.4v1.5h-.4l.1-1.6zm8.7-1.5v3h-.3v-.4c-.1.2-.4.4-.7.4-.5 0-.9-.4-.9-1.1 0-.7.4-1.1.9-1.1.3 0 .5.2.6.3v-1.1h.4zm-.3 1.8v-.2c-.1-.2-.3-.4-.5-.4-.4 0-.6.3-.6.8 0 .4.2.8.6.8.2 0 .5-.2.5-.5v-.5zm1.8 1.3c-.5 0-1-.4-1-1.1 0-.7.5-1.1 1-1.1.6 0 1 .4 1 1.1 0 .8-.5 1.1-1 1.1zm0-.3c.4 0 .6-.3.6-.8 0-.4-.2-.8-.6-.8-.4 0-.6.4-.6.8 0 .5.2.8.6.8zm1.5-2.8h.4v3h-.4v-3zm1.8 3.1c-.5 0-1-.4-1-1.1 0-.7.5-1.1 1-1.1.6 0 1 .4 1 1.1 0 .8-.5 1.1-1 1.1zm0-.3c.4 0 .6-.3.6-.8 0-.4-.2-.8-.6-.8-.4 0-.6.4-.6.8 0 .5.2.8.6.8zm1.5-1.2v-.6h.3v.4c.1-.3.3-.5.6-.5h.1v.4h-.1c-.3 0-.4.2-.5.5v1.2h-.4v-1.4zm4.8 1.1c.1.1.3.1.5.1.3 0 .4-.1.4-.3 0-.2-.1-.3-.4-.4-.4-.1-.5-.3-.5-.6s.3-.6.7-.6c.2 0 .4.1.5.1l-.1.3c-.1 0-.2-.1-.4-.1s-.3.1-.3.3c0 .2.1.3.4.4.3.1.5.3.5.6 0 .4-.3.6-.8.6l-.6-.1.1-.3zm1.9-2.1c-.1 0-.2-.1-.2-.2s.1-.2.2-.2.2.1.2.2-.1.2-.2.2zm-.2 2.4v-2h.4v2h-.4zm1.4-2.5v.5h.5v.3h-.5v1.1c0 .3.1.4.3.4h.2v.3l-.3.1c-.2 0-.3-.1-.4-.2-.1-.1-.1-.3-.1-.5v-1.1h-.3v-.4h.3v-.4l.3-.1zm5.9 2v.5h-.3v-.3c-.1.2-.3.3-.6.3-.4 0-.6-.3-.6-.6 0-.5.4-.8 1.2-.8 0-.2 0-.5-.5-.5-.2 0-.4.1-.5.2l-.1-.3c.2-.1.4-.2.7-.2.6 0 .8.4.8.8l-.1.9zm-.4-.5c-.4 0-.9.1-.9.5 0 .2.2.4.3.4.3 0 .4-.2.5-.3v-.1l.1-.5zm1-.5v-.6h.3v.3c.1-.2.3-.4.6-.4s.5.2.6.4l.2-.3c.1-.1.3-.1.4-.1.3 0 .7.2.7.9v1.3h-.4v-1.2c0-.4-.1-.6-.4-.6-.2 0-.4.2-.4.3v1.5h-.4v-1.2c0-.3-.1-.6-.4-.6-.2 0-.4.2-.5.4v1.5h-.4l.1-1.6zm3.7.6c0 .5.3.7.7.7.3 0 .4 0 .6-.1l.1.3c-.1.1-.4.1-.7.1-.6 0-1-.4-1-1s.4-1.1 1-1.1c.7 0 .8.6.8 1v.2l-1.5-.1zm1.1-.3c0-.2-.1-.6-.5-.6s-.5.4-.6.6h1.1zm1.3-1.3v.5h.5v.3h-.5v1.1c0 .3.1.4.3.4h.2v.3l-.3.1c-.2 0-.3-.1-.4-.2-.1-.1-.1-.3-.1-.5v-1.1h-.4v-.4h.3v-.4l.4-.1zm.6 3.1l.3-1h.4c-.1.4-.3.8-.4 1h-.3zm-56.7 3.7c-.1 0-.3.1-.6.1-.6 0-1-.4-1-1.1s.4-1.1 1.1-1.1c.2 0 .4.1.5.1l-.1.3c-.1 0-.2-.1-.4-.1-.5 0-.7.4-.7.8 0 .5.3.8.7.8l.5-.1v.3zm1.2.1c-.5 0-1-.4-1-1.1 0-.7.5-1.1 1-1.1.6 0 1 .4 1 1.1 0 .8-.5 1.1-1 1.1zm0-.3c.4 0 .6-.3.6-.8 0-.4-.2-.8-.6-.8-.4 0-.6.4-.6.8 0 .5.3.8.6.8zm1.5-1.3v-.6h.3v.3c.1-.2.3-.4.7-.4.3 0 .7.2.7.9v1.2h-.4v-1.2c0-.3-.1-.6-.5-.6-.2 0-.4.2-.5.4v1.5h-.4v-1.5h.1zm2.3 1.2c.1.1.3.1.5.1.3 0 .4-.1.4-.3 0-.2-.1-.3-.4-.4-.4-.1-.5-.3-.5-.6s.3-.6.7-.6c.2 0 .4.1.5.1l-.1.3c-.1 0-.2-.1-.4-.1s-.3.1-.3.3c0 .2.1.3.4.4.3.1.5.3.5.6 0 .4-.3.6-.8.6l-.6-.1.1-.3zm1.9-.6c0 .5.3.7.7.7.3 0 .4 0 .6-.1l.1.3c-.1.1-.4.1-.7.1-.6 0-1-.4-1-1s.4-1.1 1-1.1c.7 0 .8.6.8 1v.2l-1.5-.1zm1.1-.3c0-.2-.1-.6-.5-.6s-.5.4-.6.6h1.1zm2.3 1.2c-.1 0-.3.1-.6.1-.6 0-1-.4-1-1.1s.4-1.1 1.1-1.1c.2 0 .4.1.5.1l-.1.3c-.1 0-.2-.1-.4-.1-.5 0-.7.4-.7.8 0 .5.3.8.7.8l.5-.1v.3zm.9-2.5v.5h.5v.3h-.5v1.1c0 .3.1.4.3.4h.2v.3l-.3.1c-.2 0-.3-.1-.4-.2-.1-.1-.1-.3-.1-.5v-1.1h-.3v-.3h.3v-.4l.3-.2zm1.2 1.6c0 .5.3.7.7.7.3 0 .4 0 .6-.1l.1.3c-.1.1-.4.1-.7.1-.6 0-1-.4-1-1s.4-1.1 1-1.1c.7 0 .8.6.8 1v.2l-1.5-.1zm1-.3c0-.2-.1-.6-.5-.6s-.5.4-.6.6h1.1zm1.3-1.3v.5h.5v.3h-.5v1.1c0 .3.1.4.3.4h.2v.3l-.3.1c-.2 0-.3-.1-.4-.2-.1-.1-.1-.3-.1-.5v-1.1h-.3v-.3h.3v-.4l.3-.2zm2.7 2v.6h-.3v-.3c-.1.2-.3.4-.7.4-.3 0-.7-.2-.7-.9v-1.2h.4v1.1c0 .4.1.7.5.7.2 0 .4-.2.5-.3v-1.5h.3v1.4zm.8-.4c0 .5.3.7.7.7.3 0 .4 0 .6-.1l.1.3c-.1.1-.4.1-.7.1-.6 0-1-.4-1-1s.4-1.1 1-1.1c.7 0 .8.6.8 1v.2l-1.5-.1zm1.1-.3c0-.2-.1-.6-.5-.6s-.5.4-.6.6h1.1zm.8-.2v-.6h.3v.4c.1-.3.3-.5.6-.5h.1v.4h-.1c-.3 0-.4.2-.5.5v1.3h-.4v-1.5zm5.7.9v.5h-.3v-.3c-.1.2-.3.3-.6.3-.4 0-.6-.3-.6-.6 0-.5.4-.8 1.2-.8 0-.2 0-.5-.5-.5-.2 0-.4.1-.5.2l-.1-.3c.2-.1.4-.2.7-.2.6 0 .8.4.8.8l-.1.9zm-.4-.5c-.4 0-.9.1-.9.5 0 .2.2.4.3.4.3 0 .4-.2.5-.3v-.1l.1-.5zm2.8-2v3h-.3v-.4c-.1.2-.4.4-.7.4-.5 0-.9-.4-.9-1.1 0-.7.4-1.1.9-1.1.3 0 .5.2.6.3v-1.2h.4zm-.4 1.8v-.2c-.1-.2-.3-.4-.5-.4-.4 0-.6.3-.6.8 0 .4.2.8.6.8.2 0 .5-.2.5-.5v-.5zm1.1-1.2c-.1 0-.2-.1-.2-.2s.1-.2.2-.2.2.1.2.2 0 .2-.2.2zm-.1 2.4v-2.1h.4v2.1h-.4zm1-1.4v-.7h.3v.4c.1-.3.4-.4.7-.4.5 0 .9.4.9 1.1 0 .7-.5 1.1-.9 1.1-.3 0-.5-.1-.6-.3v1.1h-.4v-2.3zm.3.6v.2c.1.3.3.4.6.4.4 0 .6-.3.6-.8 0-.4-.2-.8-.6-.8-.3 0-.5.2-.6.5v.5zm2.2-1.6c-.1 0-.2-.1-.2-.2s.1-.2.2-.2.2.1.2.2 0 .2-.2.2zm-.1 2.4v-2.1h.4v2.1h-.4zm.9-.3c.1.1.3.1.5.1.3 0 .4-.1.4-.3 0-.2-.1-.3-.4-.4-.4-.1-.5-.3-.5-.6s.3-.6.7-.6c.2 0 .4.1.5.1l-.1.3c-.1 0-.2-.1-.4-.1s-.3.1-.3.3c0 .2.1.3.4.4.3.1.5.3.5.6 0 .4-.3.6-.8.6l-.6-.1.1-.3zm3.2.3c-.1 0-.3.1-.6.1-.6 0-1-.4-1-1.1s.4-1.1 1.1-1.1c.2 0 .4.1.5.1l-.1.3c-.1 0-.2-.1-.4-.1-.5 0-.7.4-.7.8 0 .5.3.8.7.8l.5-.1v.3zm.6-2.4c-.1 0-.2-.1-.2-.2s.1-.2.2-.2.2.1.2.2-.1.2-.2.2zm-.2 2.4v-2.1h.4v2.1h-.4zm1-1.5v-.6h.3v.3c.1-.2.3-.4.7-.4.3 0 .7.2.7.9v1.2h-.4v-1.2c0-.3-.1-.6-.5-.6-.2 0-.4.2-.5.4v1.5h-.4l.1-1.5zm4.1 1.2c0 .5-.1.8-.3 1-.2.2-.5.2-.7.2-.2 0-.5-.1-.7-.2l.1-.3c.1.1.3.2.6.2.4 0 .7-.2.7-.7v-.2c-.1.2-.3.3-.6.3-.5 0-.9-.4-.9-1 0-.7.5-1.1.9-1.1s.5.2.6.4v-.3h.3v1.7000000000000002zm-.4-.9v-.2c-.1-.2-.2-.4-.5-.4-.4 0-.6.3-.6.8 0 .4.2.7.6.7.2 0 .4-.1.5-.4v-.5zm4.1.3c0 .5.3.7.7.7.3 0 .4 0 .6-.1l.1.3c-.1.1-.4.1-.7.1-.6 0-1-.4-1-1s.4-1.1 1-1.1c.7 0 .8.6.8 1v.2l-1.5-.1zm1.1-.3c0-.2-.1-.6-.5-.6s-.5.4-.6.6h1.1zm.8-1.8h.4v3h-.4v-3zm1.1.6c-.1 0-.2-.1-.2-.2s.1-.2.2-.2.2.1.2.2 0 .2-.2.2zm-.1 2.4v-2.1h.4v2.1h-.4zm1.4-2.5v.5h.5v.3h-.5v1.1c0 .3.1.4.3.4h.2v.3l-.3.1c-.2 0-.3-.1-.4-.2-.1-.1-.1-.3-.1-.5v-1.1h-.3v-.3h.2v-.4l.4-.2zm1.1 2.6c-.1 0-.2-.1-.2-.3 0-.2.1-.3.3-.3.1 0 .2.1.2.3 0 .2-.1.3-.3.3zm3.7-3v2.9h-.4v-2.9h.4zm.6 1.4v-.6h.3v.3c.1-.2.3-.4.7-.4.3 0 .7.2.7.9v1.2h-.4v-1.2c0-.3-.1-.6-.5-.6-.2 0-.4.2-.5.4v1.5h-.4l.1-1.5zm-56.7 4.4v-.6h.3v.4c.1-.3.3-.5.6-.5h.1v.4h-.1c-.3 0-.4.2-.5.5v1.3h-.4v-1.5zm1.4-1.6h.4v1.3l.3-.3c.1-.1.2-.1.4-.1.3 0 .7.2.7.9v1.2h-.4v-1.2c0-.3-.1-.6-.5-.6-.2 0-.4.2-.5.4v1.5h-.4v-3.1zm3.2 3.1c-.5 0-1-.4-1-1.1 0-.7.5-1.1 1-1.1.6 0 1 .4 1 1.1 0 .7-.5 1.1-1 1.1zm0-.3c.4 0 .6-.3.6-.8 0-.4-.2-.8-.6-.8-.4 0-.6.4-.6.8 0 .5.2.8.6.8zm1.5-1.3v-.6h.3v.3c.1-.2.3-.4.7-.4.3 0 .7.2.7.9v1.2h-.4v-1.2c0-.3-.1-.6-.5-.6-.2 0-.4.2-.5.4v1.5h-.4v-1.5h.1zm3.8 1.5c-.1 0-.3.1-.6.1-.6 0-1-.4-1-1.1s.4-1.1 1.1-1.1c.2 0 .4.1.5.1l-.1.3c-.1 0-.2-.1-.4-.1-.5 0-.7.4-.7.8 0 .5.3.8.7.8l.5-.1v.3zm2.1-.5v.6h-.3v-.3c-.1.2-.3.4-.7.4-.3 0-.7-.2-.7-.9v-1.2h.4v1.1c0 .4.1.7.5.7.2 0 .4-.2.5-.3v-1.5h.4v1.4h-.1zm.6.2c.1.1.3.1.5.1.3 0 .4-.1.4-.3 0-.2-.1-.3-.4-.4-.4-.1-.5-.3-.5-.6s.3-.6.7-.6c.2 0 .4.1.5.1l-.1.3c-.1 0-.2-.1-.4-.1s-.3.1-.3.3c0 .2.1.3.4.4.3.1.5.3.5.6 0 .4-.3.6-.8.6l-.6-.1.1-.3zm4.1-.2v.5h-.3v-.3c-.1.2-.3.3-.6.3-.4 0-.6-.3-.6-.6 0-.5.4-.8 1.2-.8 0-.2 0-.5-.5-.5-.2 0-.4.1-.5.2l-.1-.3c.2-.1.4-.2.7-.2.6 0 .8.4.8.8-.1.2-.1.9-.1.9zm-.4-.5c-.4 0-.9.1-.9.5 0 .2.2.4.3.4.3 0 .4-.2.5-.3v-.1l.1-.5zm1-.5v-.6h.3v.3c.1-.2.3-.4.7-.4.3 0 .7.2.7.9v1.2h-.4v-1.2c0-.3-.1-.6-.5-.6-.2 0-.4.2-.5.4v1.5h-.4l.1-1.5zm2.8-1v.5h.5v.3h-.5v1.1c0 .3.1.4.3.4h.2v.3l-.3.1c-.2 0-.3-.1-.4-.2-.1-.1-.1-.3-.1-.5v-1.1h-.3v-.3h.3v-.4l.3-.2zm1.1 1.6c0 .5.3.7.7.7.3 0 .4 0 .6-.1l.1.3c-.1.1-.4.1-.7.1-.6 0-1-.4-1-1s.4-1.1 1-1.1c.7 0 .8.6.8 1v.2l-1.5-.1zm1.1-.3c0-.2-.1-.6-.5-.6s-.5.4-.6.6h1.1zm.9 1.3c-.1 0-.2-.1-.2-.3 0-.2.1-.3.3-.3.1 0 .2.1.2.3 0 .2-.1.3-.3.3zm3.3-.2c-.1.1-.4.1-.8.1-.8 0-1.4-.5-1.4-1.5 0-.9.6-1.5 1.5-1.5.3 0 .6.1.7.1l-.1.3c-.1.1-.3 0-.5 0-.7 0-1.1.4-1.1 1.2 0 .7.4 1.2 1.1 1.2.2 0 .5 0 .6-.1v.2zm2.2-.4v.6h-.3v-.3c-.1.2-.3.4-.7.4-.3 0-.7-.2-.7-.9v-1.2h.4v1.1c0 .4.1.7.5.7.2 0 .4-.2.5-.3v-1.5h.4l-.1 1.4zm.6-1v-.6h.3v.3c.1-.2.3-.4.6-.4s.5.2.6.4l.2-.3c.1-.1.3-.1.4-.1.3 0 .7.2.7.9v1.2h-.4v-1.2c0-.4-.1-.6-.4-.6-.2 0-.4.2-.4.3v1.5h-.4v-1.2c0-.3-.1-.6-.4-.6-.2 0-.4.2-.5.4v1.5h-.4l.1-1.5zm4.4 1.2c.1.1.3.1.5.1.3 0 .4-.1.4-.3 0-.2-.1-.3-.4-.4-.4-.1-.5-.3-.5-.6s.3-.6.7-.6c.2 0 .4.1.5.1l-.1.3c-.1 0-.2-.1-.4-.1s-.3.1-.3.3c0 .2.1.3.4.4.3.1.5.3.5.6 0 .4-.3.6-.8.6l-.6-.1.1-.3zm2.5.4c-.5 0-1-.4-1-1.1 0-.7.5-1.1 1-1.1.6 0 1 .4 1 1.1.1.7-.5 1.1-1 1.1zm0-.3c.4 0 .6-.3.6-.8 0-.4-.2-.8-.6-.8-.4 0-.6.4-.6.8 0 .5.3.8.6.8zm3 .2c-.1 0-.3.1-.6.1-.6 0-1-.4-1-1.1s.4-1.1 1.1-1.1c.2 0 .4.1.5.1l-.1.3c-.1 0-.2-.1-.4-.1-.5 0-.7.4-.7.8 0 .5.3.8.7.8l.5-.1v.3zm.6-2.4c-.1 0-.2-.1-.2-.2s.1-.2.2-.2.2.1.2.2-.1.2-.2.2zm-.2 2.4v-2.1h.4v2.1h-.4zm1.2-2.4c-.1 0-.2-.1-.2-.2s.1-.2.2-.2.2.1.2.2-.1.2-.2.2zm-.2 2.4v-2.1h.4v2.1h-.4zm.9-.3c.1.1.3.1.5.1.3 0 .4-.1.4-.3 0-.2-.1-.3-.4-.4-.4-.1-.5-.3-.5-.6s.3-.6.7-.6c.2 0 .4.1.5.1l-.1.3c-.1 0-.2-.1-.4-.1s-.3.1-.3.3c0 .2.1.3.4.4.3.1.5.3.5.6 0 .4-.3.6-.8.6l-.6-.1.1-.3zm2.7-1.2v-.6h.3v.3c.1-.2.3-.4.7-.4.3 0 .7.2.7.9v1.2h-.4v-1.2c0-.3-.1-.6-.5-.6-.2 0-.4.2-.5.4v1.5h-.4l.1-1.5zm3.8 1v.5h-.3v-.3c-.1.2-.3.3-.6.3-.4 0-.6-.3-.6-.6 0-.5.4-.8 1.2-.8 0-.2 0-.5-.5-.5-.2 0-.4.1-.5.2l-.1-.3c.2-.1.4-.2.7-.2.6 0 .8.4.8.8l-.1.9zm-.4-.5c-.4 0-.9.1-.9.5 0 .2.2.4.3.4.3 0 .4-.2.5-.3v-.1l.1-.5zm1.4-1.5v.5h.5v.3h-.5v1.1c0 .3.1.4.3.4h.2v.3l-.3.1c-.2 0-.3-.1-.4-.2-.1-.1-.1-.3-.1-.5v-1.1h-.3v-.3h.3v-.4l.3-.2zm1.8 2.6c-.5 0-1-.4-1-1.1 0-.7.5-1.1 1-1.1.6 0 1 .4 1 1.1 0 .7-.5 1.1-1 1.1zm0-.3c.4 0 .6-.3.6-.8 0-.4-.2-.8-.6-.8-.4 0-.6.4-.6.8 0 .5.2.8.6.8zm2.8-.1c-.1.2-.3.4-.7.4-.5 0-.9-.4-.9-1.1 0-.8.5-1.1.9-1.1.3 0 .5.2.6.4v-.3h.4v3h-.4l.1-1.3zm0-.9v-.2c-.1-.2-.3-.4-.5-.4-.4 0-.6.3-.6.8 0 .4.2.8.6.8.2 0 .4-.2.5-.4v-.6000000000000001zm2.7.7v.6h-.3v-.3c-.1.2-.3.4-.7.4-.3 0-.7-.2-.7-.9v-1.2h.4v1.1c0 .4.1.7.5.7.2 0 .4-.2.5-.3v-1.5h.4l-.1 1.4zm.9-.4c0 .5.3.7.7.7.3 0 .4 0 .6-.1l.1.3c-.1.1-.4.1-.7.1-.6 0-1-.4-1-1s.4-1.1 1-1.1c.7 0 .8.6.8 1v.2l-1.5-.1zm1-.3c0-.2-.1-.6-.5-.6s-.5.4-.6.6h1.1zm-58.2 4.1v-.7h.3v.4c.1-.3.4-.4.7-.4.5 0 .9.4.9 1.1 0 .7-.5 1.1-.9 1.1-.3 0-.5-.1-.6-.3v1.1h-.4v-2.3zm.4.6v.2c.1.3.3.4.6.4.4 0 .6-.3.6-.8 0-.4-.2-.8-.6-.8-.3 0-.5.2-.6.5v.5zm2.2-.1c0 .5.3.7.7.7.3 0 .4 0 .6-.1l.1.3c-.1.1-.4.1-.7.1-.6 0-1-.4-1-1s.4-1.1 1-1.1c.7 0 .8.6.8 1v.2l-1.5-.1zm1.1-.3c0-.2-.1-.6-.5-.6s-.5.4-.6.6h1.1zm.8-.3v-.6h.4v.3c.1-.2.3-.4.7-.4.3 0 .7.2.7.9v1.2h-.4v-1.2c0-.3-.1-.6-.5-.6-.2 0-.4.2-.5.4v1.5h-.4v-1.5zm3.8 1v.5h-.3v-.3c-.1.2-.4.4-.7.4-.4 0-.6-.3-.6-.6 0-.5.4-.8 1.2-.8 0-.2 0-.5-.5-.5-.2 0-.4.1-.5.2v-.3c.2-.1.4-.2.7-.2.6 0 .8.4.8.8-.1.1-.1.8-.1.8zm-.3-.5c-.4 0-.9.1-.9.5 0 .2.2.4.3.4.3 0 .4-.2.5-.3v-.1l.1-.5zm1.3-1.5v.5h.6v.3h-.5v1.1c0 .3.1.4.3.4h.2v.3l-.3.1c-.2 0-.3-.1-.4-.2-.1-.1-.1-.3-.1-.5v-1.1h-.3v-.3h.3v-.4l.2-.2zm1.2.1c-.1 0-.2-.1-.2-.2s.1-.2.2-.2.2.1.2.2-.1.2-.2.2zm-.2 2.4v-2.1h.4v2.1h-.4zm1-3h.4v1.3c.1-.2.4-.4.7-.4.5 0 .9.4.9 1.1 0 .7-.5 1.1-.9 1.1-.3 0-.5-.1-.7-.4v.3h-.3v-.5l-.1-2.5zm.3 2.2v.1c.1.3.3.4.6.4.4 0 .6-.3.6-.8 0-.4-.2-.8-.6-.8-.3 0-.5.2-.6.5v.6000000000000001zm3.8.3v.6h-.3v-.3c-.1.2-.3.4-.7.4-.3 0-.7-.2-.7-.9v-1.2h.4v1c0 .4.1.7.5.7.2 0 .4-.2.5-.3v-1.5h.4v1.5h-.1zm.5.1c.1.1.3.1.5.1.3 0 .4-.1.4-.3 0-.2-.1-.3-.4-.4-.4-.1-.5-.3-.5-.6s.3-.6.7-.6c.2 0 .4.1.5.1l-.1.3c-.1 0-.2-.1-.4-.1s-.3.1-.3.3c0 .2.1.3.4.4.3.1.5.3.5.6 0 .4-.3.6-.8.6l-.6-.1.1-.3zm8.6-.5c0 .5.3.7.7.7.3 0 .4 0 .6-.1l.1.3c-.1.1-.4.1-.7.1-.6 0-1-.4-1-1s.4-1.1 1-1.1c.7 0 .8.6.8 1v.2l-1.5-.1zm1.1-.3c0-.2-.1-.6-.5-.6s-.5.4-.6.6h1.1zm1.3-1.3v.5h.5v.3h-.5v1.1c0 .3.1.4.3.4h.2v.3l-.3.1c-.2 0-.3-.1-.4-.2-.1-.1-.1-.3-.1-.5v-1.1h-.3v-.3h.3v-.4l.3-.2zm7.6 1v-.6h.3v.3c.1-.2.3-.4.6-.4s.5.2.6.4l.2-.3c.1-.1.3-.1.4-.1.3 0 .7.2.7.9v1.2h-.4v-1.2c0-.4-.1-.6-.4-.6-.2 0-.4.2-.4.3v1.5h-.4v-1.2c0-.3-.1-.6-.4-.6-.2 0-.4.2-.5.4v1.5h-.4l.1-1.5zm4.9 1v.5h-.3v-.3c-.1.2-.3.3-.6.3-.4 0-.6-.3-.6-.6 0-.5.4-.8 1.2-.8 0-.2 0-.5-.5-.5-.2 0-.4.1-.5.2l-.1-.2c.2-.1.4-.2.7-.2.6 0 .8.4.8.8l-.1.8zm-.3-.5c-.4 0-.9.1-.9.5 0 .2.2.4.3.4.3 0 .4-.2.5-.3v-.1l.1-.5zm2.7.7c0 .5-.1.8-.3 1-.2.2-.5.2-.7.2-.2 0-.5-.1-.7-.2l.1-.3c.1.1.3.2.6.2.4 0 .7-.2.7-.7v-.2c-.1.2-.3.3-.6.3-.5 0-.9-.4-.9-1 0-.7.5-1.1.9-1.1s.5.2.6.4v-.3h.3v1.7000000000000002zm-.4-.9v-.2c-.1-.2-.2-.4-.5-.4-.4 0-.6.3-.6.8 0 .4.2.7.6.7.2 0 .4-.1.5-.4v-.5zm1-.3v-.6h.3v.3c.1-.2.3-.4.7-.4.3 0 .7.2.7.9v1.2h-.4v-1.2c0-.3-.1-.6-.5-.6-.2 0-.4.2-.5.4v1.5h-.4l.1-1.5zm2.5-.9c-.1 0-.2-.1-.2-.2s.1-.3.2-.3.2.1.2.2-.1.3-.2.3zm-.2 2.4v-2.1h.4v2.1h-.4zm1-.4c.1.1.3.1.5.1.3 0 .4-.1.4-.3 0-.2-.1-.3-.4-.4-.4-.1-.5-.3-.5-.6s.3-.6.7-.6c.2 0 .4.1.5.1l-.1.3c-.1 0-.2-.1-.4-.1s-.3.1-.3.3c0 .2.1.3.4.4.3.1.5.3.5.6 0 .4-.3.6-.8.6l-.6-.1.1-.3zm10.1-2.6v3h-.3v-.4c-.1.2-.4.4-.7.4-.5 0-.9-.4-.9-1.1 0-.7.4-1.1.9-1.1.3 0 .5.2.6.3v-1.2h.4zm-.4 1.8v-.2c-.1-.2-.3-.4-.5-.4-.4 0-.6.3-.6.8 0 .4.2.8.6.8.2 0 .5-.2.5-.5v-.5zm1.2-1.2c-.1 0-.2-.1-.2-.2s.1-.2.2-.2.2.1.2.2-.1.2-.2.2zm-.2 2.4v-2.1h.4v2.1h-.4zm.9-.4c.1.1.3.1.5.1.3 0 .4-.1.4-.3 0-.2-.1-.3-.4-.4-.4-.1-.5-.3-.5-.6s.3-.6.7-.6c.2 0 .4.1.5.1l-.1.3c-.1 0-.2-.1-.4-.1s-.3.1-.3.3c0 .2.1.3.4.4.3.1.5.3.5.6 0 .4-.3.6-.8.6l-.6-.1.1-.3zm-57.3 3.3v-.7h.3v.4c.1-.3.4-.4.7-.4.5 0 .9.4.9 1.1 0 .7-.5 1.1-.9 1.1-.3 0-.5-.1-.6-.3v1.1h-.4v-2.3zm.4.6v.2c.1.3.3.4.6.4.4 0 .6-.3.6-.8 0-.4-.2-.8-.6-.8-.3 0-.5.2-.6.5v.5zm3.5.3v.5h-.3v-.3c-.1.2-.3.3-.6.3-.4 0-.6-.3-.6-.6 0-.5.4-.8 1.2-.8 0-.2 0-.5-.5-.5-.2 0-.4.1-.5.2l-.1-.3c.2-.1.4-.2.7-.2.6 0 .8.4.8.8-.1.1-.1.9-.1.9zm-.4-.5c-.4 0-.9.1-.9.5 0 .2.2.4.3.4.3 0 .4-.2.5-.3v-.1l.1-.5zm1-.4v-.6h.3v.4c.1-.3.3-.5.6-.5h.1v.4h-.1c-.3 0-.4.2-.5.5v1.3h-.4v-1.5zm1.9-1.2v.5h.5v.3h-.5v1.1c0 .3.1.4.3.4h.2v.3l-.3.1c-.2 0-.3-.1-.4-.2-.1-.1-.1-.3-.1-.5v-1.1h-.3v-.3h.3v-.4l.3-.2zm2.6 2.1v.6h-.3v-.3c-.1.2-.3.4-.7.4-.3 0-.7-.2-.7-.9v-1.2h.4v1.1c0 .4.1.7.5.7.2 0 .4-.2.5-.3v-1.5h.4v1.4h-.1zm.7-.9v-.6h.3v.4c.1-.3.3-.5.6-.5h.1v.4h-.1c-.3 0-.4.2-.5.5v1.3h-.4v-1.5zm1.5-1c-.1 0-.2-.1-.2-.2s.1-.2.2-.2.2.1.2.2 0 .2-.2.2zm-.2 2.4v-2.1h.4v2.1h-.4zm1.2-1c0 .5.3.7.7.7.3 0 .4 0 .6-.1l.1.3c-.1.1-.4.1-.7.1-.6 0-1-.4-1-1s.4-1.1 1-1.1c.7 0 .8.6.8 1v.2l-1.5-.1zm1.1-.2c0-.2-.1-.6-.5-.6s-.5.4-.6.6h1.1zm.8-.3v-.6h.3v.3c.1-.2.3-.4.7-.4.3 0 .7.2.7.9v1.2h-.4v-1.1c0-.3-.1-.6-.5-.6-.2 0-.4.2-.5.4v1.5h-.4v-1.6h.1zm2.8-1.1v.5h.5v.3h-.5v1.1c0 .3.1.4.3.4h.2v.3l-.3.1c-.2 0-.3-.1-.4-.2-.1-.1-.1-.3-.1-.5v-1.1h-.3v-.3h.3v-.4l.3-.2zm7.1 1.1v-.6h.3v.3c.1-.2.3-.4.6-.4s.5.2.6.4l.2-.3c.1-.1.3-.1.4-.1.3 0 .7.2.7.9v1.2h-.4v-1.1c0-.4-.1-.6-.4-.6-.2 0-.4.2-.4.3v1.5h-.4v-1.2c0-.3-.1-.6-.4-.6-.2 0-.4.2-.5.4v1.5h-.4l.1-1.6zm4.3 1.6c-.5 0-1-.4-1-1.1 0-.7.5-1.1 1-1.1.6 0 1 .4 1 1.1.1.7-.5 1.1-1 1.1zm0-.3c.4 0 .6-.3.6-.8 0-.4-.2-.8-.6-.8-.4 0-.6.4-.6.8s.3.8.6.8zm1.5-1.3v-.6h.3v.3c.1-.2.3-.4.7-.4.3 0 .7.2.7.9v1.2h-.4v-1.1c0-.3-.1-.6-.5-.6-.2 0-.4.2-.5.4v1.5h-.4l.1-1.6zm2.8-1.1v.5h.5v.3h-.5v1.1c0 .3.1.4.3.4h.2v.3l-.3.1c-.2 0-.3-.1-.4-.2-.1-.1-.1-.3-.1-.5v-1.1h-.4v-.3h.3v-.4l.4-.2zm1.1 1.6c0 .5.3.7.7.7.3 0 .4 0 .6-.1l.1.3c-.1.1-.4.1-.7.1-.6 0-1-.4-1-1s.4-1.1 1-1.1c.7 0 .8.6.8 1v.2l-1.5-.1zm1.1-.2c0-.2-.1-.6-.5-.6s-.5.4-.6.6h1.1zm.8.8c.1.1.3.1.5.1.3 0 .4-.1.4-.3 0-.2-.1-.3-.4-.4-.4-.1-.5-.3-.5-.6s.3-.6.7-.6c.2 0 .4.1.5.1l-.1.3c-.1 0-.2-.1-.4-.1s-.3.1-.3.3c0 .2.1.3.4.4.3.1.5.3.5.6 0 .4-.3.6-.8.6l-.6-.1.1-.3zm1.4 1l.3-1h.4c-.1.4-.3.8-.4 1h-.3zm6.9-2.1v-.6h.3v.3c.1-.2.3-.4.7-.4.3 0 .7.2.7.9v1.2h-.4v-1.1c0-.3-.1-.6-.5-.6-.2 0-.4.2-.5.4v1.5h-.3v-1.6zm3.8 1v.5h-.3v-.3c-.1.2-.3.3-.6.3-.4 0-.6-.3-.6-.6 0-.5.4-.8 1.2-.8 0-.2 0-.5-.5-.5-.2 0-.4.1-.5.2l-.1-.3c.2-.1.4-.2.7-.2.6 0 .8.4.8.8l-.1.9zm-.3-.5c-.4 0-.9.1-.9.5 0 .2.2.4.3.4.3 0 .4-.2.5-.3v-.1l.1-.5zm.9.6c.1.1.3.1.5.1.3 0 .4-.1.4-.3 0-.2-.1-.3-.4-.4-.4-.1-.5-.3-.5-.6s.3-.6.7-.6c.2 0 .4.1.5.1l-.1.3c-.1 0-.2-.1-.4-.1s-.3.1-.3.3c0 .2.1.3.4.4.3.1.5.3.5.6 0 .4-.3.6-.8.6l-.6-.1.1-.3zm3.1.3c-.1 0-.3.1-.6.1-.6 0-1-.4-1-1.1s.4-1.1 1.1-1.1c.2 0 .4.1.5.1l-.1.3c-.1 0-.2-.1-.4-.1-.5 0-.7.4-.7.8 0 .5.3.8.7.8l.5-.1v.3zm.7-.9c0 .5.3.7.7.7.3 0 .4 0 .6-.1l.1.3c-.1.1-.4.1-.7.1-.6 0-1-.4-1-1s.4-1.1 1-1.1c.7 0 .8.6.8 1v.2l-1.5-.1zm1-.2c0-.2-.1-.6-.5-.6s-.5.4-.6.6h1.1zm1.3-1.4v.5h.5v.3h-.5v1.1c0 .3.1.4.3.4h.2v.3l-.3.1c-.2 0-.3-.1-.4-.2-.1-.1-.1-.3-.1-.5v-1.1h-.3v-.3h.3v-.4l.3-.2zm2.7 2.1v.6h-.3v-.3c-.1.2-.3.4-.7.4-.3 0-.7-.2-.7-.9v-1.2h.4v1.1c0 .4.1.7.5.7.2 0 .4-.2.5-.3v-1.5h.4l-.1 1.4zm.6-.9v-.6h.3v.4c.1-.3.3-.5.6-.5h.1v.4h-.1c-.3 0-.4.2-.5.5v1.3h-.4v-1.5zm-74.5 4.3v-.6h.3v.4c.1-.3.3-.5.6-.5h.1v.4h-.1c-.3 0-.4.2-.5.5v1.3h-.4v-1.5zm1.5-1c-.1 0-.2-.1-.2-.2s.1-.2.2-.2.2.1.2.2 0 .2-.2.2zm-.2 2.4v-2.1h.4v2.1h-.4zm2.8-3v3h-.3v-.4c-.1.2-.4.4-.7.4-.5 0-.9-.4-.9-1.1 0-.7.4-1.1.9-1.1.3 0 .5.2.6.3v-1.2c0 .1.4.1.4.1zm-.4 1.8v-.2c-.1-.2-.3-.4-.5-.4-.4 0-.6.3-.6.8 0 .4.2.8.6.8.2 0 .5-.2.5-.5v-.5zm1.2-1.2c-.1 0-.2-.1-.2-.2s.1-.2.2-.2.2.1.2.2-.1.2-.2.2zm-.2 2.4v-2.1h.4v2.1h-.4zm2.5-.1c-.1 0-.3.1-.6.1-.6 0-1-.4-1-1.1s.4-1.1 1.1-1.1c.2 0 .4.1.5.1l-.1.3c-.1 0-.2-.1-.4-.1-.5 0-.7.4-.7.8 0 .5.3.8.7.8l.5-.1v.3zm2.1-.5v.6h-.3v-.3c-.1.2-.3.4-.7.4-.3 0-.7-.2-.7-.9v-1.2h.4v1.1c0 .4.1.7.5.7.2 0 .4-.2.5-.3v-1.5h.4v1.4h-.1zm.6-2.4h.4v3h-.4v-3zm2.7 2.4v.6h-.3v-.3c-.1.2-.3.4-.7.4-.3 0-.7-.2-.7-.9v-1.2h.4v1.1c0 .4.1.7.5.7.2 0 .4-.2.5-.3v-1.5h.4v1.4h-.1zm.6.2c.1.1.3.1.5.1.3 0 .4-.1.4-.3 0-.2-.1-.3-.4-.4-.4-.1-.5-.3-.5-.6s.3-.6.7-.6c.2 0 .4.1.5.1l-.1.3c-.1 0-.2-.1-.4-.1s-.3.1-.3.3c0 .2.1.3.4.4.3.1.5.3.5.6 0 .4-.3.6-.8.6l-.6-.1.1-.3zm5-1.1v-.6h.3v.3c.1-.2.3-.4.6-.4s.5.2.6.4l.2-.3c.1-.1.3-.1.4-.1.3 0 .7.2.7.9v1.2h-.3v-1.2c0-.4-.1-.6-.4-.6-.2 0-.4.2-.4.3v1.5h-.4v-1.2c0-.3-.1-.6-.4-.6-.2 0-.4.2-.5.4v1.5h-.4v-1.5zm5.2.9v.6h-.3v-.3c-.1.2-.3.4-.7.4-.3 0-.7-.2-.7-.9v-1.2h.4v1.1c0 .4.1.7.5.7.2 0 .4-.2.5-.3v-1.5h.4v1.4h-.1zm.6.2c.1.1.3.1.5.1.3 0 .4-.1.4-.3 0-.2-.1-.3-.4-.4-.4-.1-.5-.3-.5-.6s.3-.6.7-.6c.2 0 .4.1.5.1l-.1.3c-.1 0-.2-.1-.4-.1s-.3.1-.3.3c0 .2.1.3.4.4.3.1.5.3.5.6 0 .4-.3.6-.8.6l-.6-.1.1-.3zm1.8.5c-.1 0-.2-.1-.2-.3 0-.2.1-.3.3-.3s.2.1.2.3c0 .1-.1.3-.3.3zm3.6-.5c.2.1.4.2.7.2.4 0 .6-.2.6-.5s-.2-.4-.5-.6c-.5-.2-.8-.4-.8-.8 0-.5.4-.8.9-.8.3 0 .5.1.6.1l-.1.3c-.1-.1-.3-.1-.5-.1-.4 0-.5.2-.5.4 0 .3.2.4.6.6.5.2.7.4.7.8s-.3.8-1 .8c-.3 0-.6-.1-.7-.2v-.2zm2.4-.6c0 .5.3.7.7.7.3 0 .4 0 .6-.1l.1.3c-.1.1-.4.1-.7.1-.6 0-1-.4-1-1s.4-1.1 1-1.1c.7 0 .8.6.8 1v.2l-1.5-.1zm1.1-.2c0-.2-.1-.6-.5-.6s-.5.4-.6.6h1.1zm2.6-1.8v3h-.3v-.4c-.1.2-.4.4-.7.4-.5 0-.9-.4-.9-1.1 0-.7.4-1.1.9-1.1.3 0 .5.2.6.3v-1.2c0 .1.4.1.4.1zm-.4 1.8v-.2c-.1-.2-.3-.4-.5-.4-.4 0-.6.3-.6.8 0 .4.2.8.6.8.2 0 .5-.2.5-.5v-.5zm5.7 1.1c-.1 0-.3.1-.6.1-.6 0-1-.4-1-1.1s.4-1.1 1.1-1.1c.2 0 .4.1.5.1l-.1.4c-.1 0-.2-.1-.4-.1-.5 0-.7.4-.7.8 0 .5.3.8.7.8l.5-.1v.2zm1.2.2c-.5 0-1-.4-1-1.1 0-.7.5-1.1 1-1.1.6 0 1 .4 1 1.1.1.7-.5 1.1-1 1.1zm0-.3c.4 0 .6-.3.6-.8 0-.4-.2-.8-.6-.8-.4 0-.6.4-.6.8s.3.8.6.8zm1.5-1.3v-.6h.3v.3c.1-.2.3-.4.7-.4.3 0 .7.2.7.9v1.2h-.4v-1.2c0-.3-.1-.6-.5-.6-.2 0-.4.2-.5.4v1.5h-.4l.1-1.5zm2.3 1.1c.1.1.3.1.5.1.3 0 .4-.1.4-.3 0-.2-.1-.3-.4-.4-.4-.1-.5-.3-.5-.6s.3-.6.7-.6c.2 0 .4.1.5.1l-.1.3c-.1 0-.2-.1-.4-.1s-.3.1-.3.3c0 .2.1.3.4.4.3.1.5.3.5.6 0 .4-.3.6-.8.6l-.6-.1.1-.3zm1.9-.6c0 .5.3.7.7.7.3 0 .4 0 .6-.1l.1.3c-.1.1-.4.1-.7.1-.6 0-1-.4-1-1s.4-1.1 1-1.1c.7 0 .8.6.8 1v.2l-1.5-.1zm1.1-.2c0-.2-.1-.6-.5-.6s-.5.4-.6.6h1.1zm2.2.9c-.1.2-.3.4-.7.4-.5 0-.9-.4-.9-1.1 0-.8.5-1.1.9-1.1.3 0 .5.2.6.4v-.3h.4v3h-.4l.1-1.3zm0-.9v-.2c-.1-.2-.3-.4-.5-.4-.4 0-.6.3-.6.8 0 .4.2.8.6.8.2 0 .4-.2.5-.4v-.6000000000000001zm2.7.6v.6h-.3v-.3c-.1.2-.3.4-.7.4-.3 0-.7-.2-.7-.9v-1.2h.4v1.1c0 .4.1.7.5.7.2 0 .4-.2.5-.3v-1.5h.3v1.4zm2.1.1v.5h-.3v-.3c-.1.2-.3.3-.6.3-.4 0-.6-.3-.6-.6 0-.5.4-.8 1.2-.8 0-.2 0-.5-.5-.5-.2 0-.4.1-.5.2l-.1-.3c.2-.1.4-.2.7-.2.6 0 .8.4.8.8l-.1.9zm-.4-.5c-.4 0-.9.1-.9.5 0 .2.2.4.3.4.3 0 .4-.2.5-.3v-.1l.1-.5zm1.4-1.6v.5h.5v.3h-.5v1.1c0 .3.1.4.3.4h.2v.3l-.3.1c-.2 0-.3-.1-.4-.2-.1-.1-.1-.3-.1-.5v-1.1h-.3v-.3h.3v-.4l.3-.2zm.7 3.1l.3-1h.4c-.1.4-.3.8-.4 1h-.3zm4-.9c.1.1.3.1.5.1.3 0 .4-.1.4-.3 0-.2-.1-.3-.4-.4-.4-.1-.5-.3-.5-.6s.3-.6.7-.6c.2 0 .4.1.5.1l-.1.3c-.1 0-.2-.1-.4-.1s-.3.1-.3.3c0 .2.1.3.4.4.3.1.5.3.5.6 0 .4-.3.6-.8.6l-.6-.1.1-.3zm2-.6c0 .5.3.7.7.7.3 0 .4 0 .6-.1l.1.3c-.1.1-.4.1-.7.1-.6 0-1-.4-1-1s.4-1.1 1-1.1c.7 0 .8.6.8 1v.2l-1.5-.1zm1-.2c0-.2-.1-.6-.5-.6s-.5.4-.6.6h1.1zm.9-.3v-.6h.3v.3c.1-.2.3-.4.6-.4s.5.2.6.4l.2-.3c.1-.1.3-.1.4-.1.3 0 .7.2.7.9v1.2h-.4v-1.2c0-.4-.1-.6-.4-.6-.2 0-.4.2-.4.3v1.5h-.4v-1.2c0-.3-.1-.6-.4-.6-.2 0-.4.2-.5.4v1.5h-.4l.1-1.5zm8.4.9v.6h-.3v-.3c-.1.2-.3.4-.7.4-.3 0-.7-.2-.7-.9v-1.2h.4v1.1c0 .4.1.7.5.7.2 0 .4-.2.5-.3v-1.5h.4l-.1 1.4zm1.1-2v.5h.5v.3h-.5v1.1c0 .3.1.4.3.4h.2v.3l-.3.1c-.2 0-.3-.1-.4-.2-.1-.1-.1-.3-.1-.5v-1.1h-.3v-.3h.3v-.4l.3-.2zm-74.8 4.8l.4 1.2c.1.2.1.4.2.5 0-.2.1-.3.2-.5l.4-1.2h.4l-.8 2.1h-.4l-.8-2.1h.4zm2.7 2.2c-.5 0-1-.4-1-1.1 0-.7.5-1.1 1-1.1.6 0 1 .4 1 1.1 0 .7-.5 1.1-1 1.1zm0-.3c.4 0 .6-.3.6-.8 0-.4-.2-.8-.6-.8-.4 0-.6.4-.6.8s.2.8.6.8zm1.4-2.8h.4v3h-.4v-3zm2.7 2.4v.6h-.3v-.3c-.1.2-.3.4-.7.4-.3 0-.7-.2-.7-.9v-1.2h.4v1.1c0 .4.1.7.5.7.2 0 .4-.2.5-.3v-1.5h.4v1.4h-.1zm1.1-2v.5h.5v.3h-.5v1.1c0 .3.1.4.3.4h.2v.3l-.3.1c-.2 0-.3-.1-.4-.2-.1-.1-.1-.3-.1-.5v-1.2h-.3v-.3h.3v-.4l.3-.1zm1 1.2v-.7h.3v.4c.1-.3.4-.4.7-.4.5 0 .9.4.9 1.1 0 .7-.5 1.1-.9 1.1-.3 0-.5-.1-.6-.3v1.1h-.4v-2.3zm.3.6v.2c.1.3.3.4.6.4.4 0 .6-.3.6-.8 0-.4-.2-.8-.6-.8-.3 0-.5.2-.6.5v.5zm3.5.3v.5h-.3v-.3c-.1.2-.3.3-.6.3-.4 0-.6-.3-.6-.6 0-.5.4-.8 1.2-.8 0-.2 0-.5-.5-.5-.2 0-.4.1-.5.2l-.1-.3c.2-.1.4-.2.7-.2.6 0 .8.4.8.8-.1.1-.1.9-.1.9zm-.4-.6c-.4 0-.9.1-.9.5 0 .2.2.4.3.4.3 0 .4-.2.5-.3v-.1l.1-.5zm1.4-1.5v.5h.5v.3h-.5v1.1c0 .3.1.4.3.4h.2v.3l-.3.1c-.2 0-.3-.1-.4-.2-.1-.1-.1-.3-.1-.5v-1.2h-.3v-.3h.3v-.4l.3-.1zm2-.4h.4v3h-.4v-3zm2.4 2.5v.5h-.3v-.3c-.1.2-.3.3-.6.3-.4 0-.6-.3-.6-.6 0-.5.4-.8 1.2-.8 0-.2 0-.5-.5-.5-.2 0-.4.1-.5.2l-.1-.3c.2-.1.4-.2.7-.2.6 0 .8.4.8.8-.1.1-.1.9-.1.9zm-.3-.6c-.4 0-.9.1-.9.5 0 .2.2.4.3.4.3 0 .4-.2.5-.3v-.1l.1-.5zm2.4 1c-.1 0-.3.1-.6.1-.6 0-1-.4-1-1.1s.4-1.1 1.1-1.1c.2 0 .4.1.5.1l-.1.3c-.1 0-.2-.1-.4-.1-.5 0-.7.4-.7.8 0 .5.3.8.7.8l.5-.1v.3zm.6-2.4c-.1 0-.2-.1-.2-.2s.1-.2.2-.2.2.1.2.2-.1.2-.2.2zm-.2 2.5v-2.1h.4v2.1h-.4zm1-1.5v-.6h.3v.3c.1-.2.3-.4.7-.4.3 0 .7.2.7.9v1.2h-.4v-1.2c0-.3-.1-.6-.5-.6-.2 0-.4.2-.5.4v1.5h-.3v-1.5zm2.5-1c-.1 0-.2-.1-.2-.2s.1-.2.2-.2.2.1.2.2 0 .2-.2.2zm-.2 2.5v-2.1h.4v2.1h-.4zm2.5-.5v.5h-.3v-.3c-.1.2-.3.3-.6.3-.4 0-.6-.3-.6-.6 0-.5.4-.8 1.2-.8 0-.2 0-.5-.5-.5-.2 0-.4.1-.5.2l-.1-.3c.2-.1.4-.2.7-.2.6 0 .8.4.8.8-.1.1-.1.9-.1.9zm-.4-.6c-.4 0-.9.1-.9.5 0 .2.2.4.3.4.3 0 .4-.2.5-.3v-.1l.1-.5zm.7 1.6l.3-1h.4c-.1.4-.3.8-.4 1h-.3zm1.9-2v-.6h.3v.3c.1-.2.3-.4.7-.4.3 0 .7.2.7.9v1.2h-.4v-1.2c0-.3-.1-.6-.5-.6-.2 0-.4.2-.5.4v1.5h-.3v-1.5zm2.5-1c-.1 0-.2-.1-.2-.2s.1-.2.2-.2.2.1.2.2-.1.2-.2.2zm-.2 2.5v-2.1h.4v2.1h-.4zm.9-.4c.1.1.3.1.5.1.3 0 .4-.1.4-.3 0-.2-.1-.3-.4-.4-.4-.1-.5-.3-.5-.6s.3-.6.7-.6c.2 0 .4.1.5.1l-.1.3c-.1 0-.2-.1-.4-.1s-.3.1-.3.3c0 .2.1.3.4.4.3.1.5.3.5.6 0 .4-.3.6-.8.6l-.6-.1.1-.3zm1.8-2.6h.4v3h-.4v-3zm3.4 2.5v.5h-.3v-.3c-.1.2-.3.3-.6.3-.4 0-.6-.3-.6-.6 0-.5.4-.8 1.2-.8 0-.2 0-.5-.5-.5-.2 0-.4.1-.5.2l-.1-.2c.2-.1.4-.2.7-.2.6 0 .8.4.8.8l-.1.8zm-.3-.6c-.4 0-.9.1-.9.5 0 .2.2.4.3.4.3 0 .4-.2.5-.3v-.1l.1-.5zm2.6.5v.6h-.3v-.3c-.1.2-.3.4-.7.4-.3 0-.7-.2-.7-.9v-1.2h.4v1.1c0 .4.1.7.5.7.2 0 .4-.2.5-.3v-1.5h.4l-.1 1.4zm2.4.3c0 .5-.1.8-.3 1-.2.2-.5.2-.7.2-.2 0-.5-.1-.7-.2l.1-.3c.1.1.3.2.6.2.4 0 .7-.2.7-.7v-.2c-.1.2-.3.3-.6.3-.5 0-.9-.4-.9-1 0-.7.5-1.1.9-1.1s.5.2.6.4v-.3h.3v1.7000000000000002zm-.4-1v-.2c-.1-.2-.2-.4-.5-.4-.4 0-.6.3-.6.8 0 .4.2.7.6.7.2 0 .4-.1.5-.4v-.5zm2.7.7v.6h-.3v-.3c-.1.2-.3.4-.7.4-.3 0-.7-.2-.7-.9v-1.2h.4v1.1c0 .4.1.7.5.7.2 0 .4-.2.5-.3v-1.5h.4l-.1 1.4zm.8-.4c0 .5.3.7.7.7.3 0 .4 0 .6-.1l.1.3c-.1.1-.4.1-.7.1-.6 0-1-.4-1-1s.4-1.1 1-1.1c.7 0 .8.6.8 1v.2l-1.5-.1zm1.1-.2c0-.2-.1-.6-.5-.6s-.5.4-.6.6h1.1zm3.3.7v.5h-.3v-.3c-.1.2-.3.3-.6.3-.4 0-.6-.3-.6-.6 0-.5.4-.8 1.2-.8 0-.2 0-.5-.5-.5-.2 0-.4.1-.5.2l-.1-.3c.2-.1.4-.2.7-.2.6 0 .8.4.8.8l-.1.9zm-.4-.6c-.4 0-.9.1-.9.5 0 .2.2.4.3.4.3 0 .4-.2.5-.3v-.1l.1-.5zm2.7.5v.6h-.3v-.3c-.1.2-.3.4-.7.4-.3 0-.7-.2-.7-.9v-1.2h.4v1.1c0 .4.1.7.5.7.2 0 .4-.2.5-.3v-1.5h.4l-.1 1.4zm2.1.5c-.1 0-.3.1-.6.1-.6 0-1-.4-1-1.1s.4-1.1 1.1-1.1c.2 0 .4.1.5.1l-.1.3c-.1 0-.2-.1-.4-.1-.5 0-.7.4-.7.8 0 .5.3.8.7.8l.5-.1v.3zm.9-2.5v.5h.5v.3h-.5v1.1c0 .3.1.4.3.4h.2v.3l-.3.1c-.2 0-.3-.1-.4-.2-.1-.1-.1-.3-.1-.5v-1.2h-.3v-.3h.3v-.4l.3-.1zm1.8 2.7c-.5 0-1-.4-1-1.1 0-.7.5-1.1 1-1.1.6 0 1 .4 1 1.1 0 .7-.5 1.1-1 1.1zm0-.3c.4 0 .6-.3.6-.8 0-.4-.2-.8-.6-.8-.4 0-.6.4-.6.8s.2.8.6.8zm1.4-1.2v-.6h.3v.4c.1-.3.3-.5.6-.5h.1v.3h-.1c-.3 0-.4.2-.5.5v1.3h-.4v-1.4zm4.2-1.6v3h-.3v-.4c-.1.2-.4.4-.7.4-.5 0-.9-.4-.9-1.1 0-.7.4-1.1.9-1.1.3 0 .5.2.6.3v-1.2c0 .1.4.1.4.1zm-.4 1.8v-.2c-.1-.2-.3-.4-.5-.4-.4 0-.6.3-.6.8 0 .4.2.8.6.8.2 0 .5-.2.5-.5v-.5zm1.2-1.3c-.1 0-.2-.1-.2-.2s.1-.2.2-.2.2.1.2.2 0 .2-.2.2zm-.2 2.5v-2.1h.4v2.1h-.4zm2.5-.5v.5h-.3v-.3c-.1.2-.3.3-.6.3-.4 0-.6-.3-.6-.6 0-.5.4-.8 1.2-.8 0-.2 0-.5-.5-.5-.2 0-.4.1-.5.2l-.1-.3c.2-.1.4-.2.7-.2.6 0 .8.4.8.8l-.1.9zm-.4-.6c-.4 0-.9.1-.9.5 0 .2.2.4.3.4.3 0 .4-.2.5-.3v-.1l.1-.5zm1-.4v-.6h.3v.3c.1-.2.3-.4.6-.4s.5.2.6.4l.2-.3c.1-.1.3-.1.4-.1.3 0 .7.2.7.9v1.2h-.4v-1.2c0-.4-.1-.6-.4-.6-.2 0-.4.2-.4.3v1.5h-.4v-1.2c0-.3-.1-.6-.4-.6-.2 0-.4.2-.5.4v1.5h-.4l.1-1.5zm3.2 2l.3-1h.4c-.1.4-.3.8-.4 1h-.3zm2-2.6l.4 1.2c.1.2.1.4.2.5l.2-.5.4-1.2h.4l-.8 2.1h-.4l-.8-2.1h.4zm2.1 1.1c0 .5.3.7.7.7.3 0 .4 0 .6-.1l.1.3c-.1.1-.4.1-.7.1-.6 0-1-.4-1-1s.4-1.1 1-1.1c.7 0 .8.6.8 1v.2l-1.5-.1zm1.1-.2c0-.2-.1-.6-.5-.6s-.5.4-.6.6h1.1zm.8-1.8h.4v3h-.4v-3zm-74.8 4.8c-.1 0-.2-.1-.2-.2s.1-.2.2-.2.2.1.2.2 0 .2-.2.2zm-.1 2.5v-2.1h.4v2.1h-.4zm2.4-.5v.5h-.3v-.3c-.1.2-.3.3-.6.3-.4 0-.6-.3-.6-.6 0-.5.4-.8 1.2-.8 0-.2 0-.5-.5-.5-.2 0-.4.1-.5.2l-.1-.3c.2-.1.4-.2.7-.2.6 0 .8.4.8.8-.1.1-.1.9-.1.9zm-.4-.6c-.4 0-.9.1-.9.5 0 .2.2.4.3.4.3 0 .4-.2.5-.3v-.1l.1-.5zm2.4 1c-.1 0-.3.1-.6.1-.6 0-1-.4-1-1.1s.4-1.1 1.1-1.1c.2 0 .4.1.5.1l-.1.3c-.1 0-.2-.1-.4-.1-.5 0-.7.4-.7.8 0 .5.3.8.7.8l.5-.1v.3zm2.2-.5v.6h-.3v-.3c-.1.2-.3.4-.7.4-.3 0-.7-.2-.7-.9v-1.3h.4v1.1c0 .4.1.7.5.7.2 0 .4-.2.5-.3v-1.5h.4v1.5h-.1zm.6-2.4h.4v3h-.4v-3zm1.1.5c-.1 0-.2-.1-.2-.2s.1-.2.2-.2.2.1.2.2 0 .2-.2.2zm-.1 2.5v-2.1h.4v2.1h-.4zm.9-.4c.1.1.3.1.5.1.3 0 .4-.1.4-.3 0-.2-.1-.3-.4-.4-.4-.1-.5-.3-.5-.6s.3-.6.7-.6c.2 0 .4.1.5.1l-.1.3c-.1 0-.2-.1-.4-.1s-.3.1-.3.3c0 .2.1.3.4.4.3.1.5.3.5.6 0 .4-.3.6-.8.6l-.6-.1.1-.3zm13.6-.2v.6h-.3v-.3c-.1.2-.3.4-.7.4-.3 0-.7-.2-.7-.9v-1.3h.4v1.1c0 .4.1.7.5.7.2 0 .4-.2.5-.3v-1.5h.3v1.5zm.7-.8v-.6h.3v.4c.1-.3.3-.5.6-.5h.1v.4h-.1c-.3 0-.4.2-.5.5v1.3h-.4v-1.5zm1.4-.1v-.6h.3v.3c.1-.2.3-.4.7-.4.3 0 .7.2.7.9v1.2h-.4v-1.2c0-.3-.1-.6-.5-.6-.2 0-.4.2-.5.4v1.5h-.4v-1.5h.1zm3.7 1v.5h-.3v-.3c-.1.2-.3.3-.6.3-.4 0-.6-.3-.6-.6 0-.5.4-.8 1.2-.8 0-.2 0-.5-.5-.5-.2 0-.4.1-.5.2l-.1-.3c.1-.1.4-.1.6-.1.6 0 .8.4.8.8v.8zm-.3-.6c-.4 0-.9.1-.9.5 0 .2.2.4.3.4.3 0 .4-.2.5-.3v-.1l.1-.5zm-28.2 3.9v-.6h.3v.3c.1-.2.3-.4.7-.4.3 0 .7.2.7.9v1.2h-.4v-1.2c0-.3-.1-.6-.5-.6-.2 0-.4.2-.5.4v1.5h-.4v-1.5h.1zm4 .9v.6h-.3v-.3c-.1.2-.3.4-.7.4-.3 0-.7-.2-.7-.9v-1.2h.4v1.1c0 .4.1.7.5.7.2 0 .4-.2.5-.3v-1.5h.4v1.4h-.1zm.6-.9v-.6h.3v.3c.1-.2.3-.4.7-.4.3 0 .7.2.7.9v1.2h-.4v-1.2c0-.3-.1-.6-.5-.6-.2 0-.4.2-.5.4v1.5h-.4v-1.5h.1zm3.8 1.4c-.1 0-.3.1-.6.1-.6 0-1-.4-1-1.1s.4-1.1 1.1-1.1c.2 0 .4.1.5.1l-.1.3c-.1 0-.2-.1-.4-.1-.5 0-.7.4-.7.8 0 .5.3.8.7.8l.5-.1v.3zm1.3-.3c.1.1.3.1.5.1.3 0 .4-.1.4-.3 0-.2-.1-.3-.4-.4-.4-.1-.5-.3-.5-.6s.3-.6.7-.6c.2 0 .4.1.5.1l-.1.3c-.1 0-.2-.1-.4-.1s-.3.1-.3.3c0 .2.1.3.4.4.3.1.5.3.5.6 0 .4-.3.6-.8.6l-.6-.1.1-.3zm1.9-.6c0 .5.3.7.7.7.3 0 .4 0 .6-.1l.1.3c-.1.1-.4.1-.7.1-.6 0-1-.4-1-1s.4-1.1 1-1.1c.7 0 .8.6.8 1v.2l-1.5-.1zm1.1-.3c0-.2-.1-.6-.5-.6s-.5.4-.6.6h1.1zm2.6-1.8v3h-.3v-.4c-.1.2-.4.4-.7.4-.5 0-.9-.4-.9-1.1 0-.7.4-1.1.9-1.1.3 0 .5.2.6.3v-1.2c0 .1.4.1.4.1zm-.4 1.9v-.2c-.1-.2-.3-.4-.5-.4-.4 0-.6.3-.6.8 0 .4.2.8.6.8.2 0 .5-.2.5-.5v-.5zm1.9-.3v-.6h.3v.3c.1-.2.3-.4.6-.4s.5.2.6.4l.2-.3c.1-.1.3-.1.4-.1.3 0 .7.2.7.9v1.2h-.4v-1.2c0-.4-.1-.6-.4-.6-.2 0-.4.2-.4.3v1.5h-.4v-1.2c0-.3-.1-.6-.4-.6-.2 0-.4.2-.5.4v1.5h-.4l.1-1.5zm5 1v.5h-.3v-.3c-.1.2-.3.3-.6.3-.4 0-.6-.3-.6-.6 0-.5.4-.8 1.2-.8 0-.2 0-.5-.5-.5-.2 0-.4.1-.5.2l-.1-.3c.2-.1.4-.2.7-.2.6 0 .8.4.8.8l-.1.9zm-.4-.6c-.4 0-.9.1-.9.5 0 .2.2.4.3.4.3 0 .4-.2.5-.3v-.1l.1-.5zm.9.7c.1.1.3.1.5.1.3 0 .4-.1.4-.3 0-.2-.1-.3-.4-.4-.4-.1-.5-.3-.5-.6s.3-.6.7-.6c.2 0 .4.1.5.1l-.1.3c-.1 0-.2-.1-.4-.1s-.3.1-.3.3c0 .2.1.3.4.4.3.1.5.3.5.6 0 .4-.3.6-.8.6l-.6-.1.1-.3zm1.7 0c.1.1.3.1.5.1.3 0 .4-.1.4-.3 0-.2-.1-.3-.4-.4-.4-.1-.5-.3-.5-.6s.3-.6.7-.6c.2 0 .4.1.5.1l-.1.3c-.1 0-.2-.1-.4-.1s-.3.1-.3.3c0 .2.1.3.4.4.3.1.5.3.5.6 0 .4-.3.6-.8.6l-.6-.1.1-.3zm3.1-.1v.5h-.3v-.3c-.1.2-.3.3-.6.3-.4 0-.6-.3-.6-.6 0-.5.4-.8 1.2-.8 0-.2 0-.5-.5-.5-.2 0-.4.1-.5.2l-.1-.3c.2-.1.4-.2.7-.2.6 0 .8.4.8.8-.1.1-.1.9-.1.9zm-.3-.6c-.4 0-.9.1-.9.5 0 .2.2.4.3.4.3 0 .4-.2.5-.3v-.1l.1-.5zm1.1 1.1c-.1 0-.2-.1-.2-.3 0-.2.1-.3.3-.3s.2.1.2.3c-.1.2-.2.3-.3.3zm-28 8.1c.2.1.4.2.7.2.4 0 .6-.2.6-.5s-.2-.4-.5-.6c-.5-.2-.8-.4-.8-.8 0-.5.4-.8.9-.8.3 0 .5.1.6.1l-.1.3c-.1-.1-.3-.1-.5-.1-.4 0-.5.2-.5.4 0 .3.2.4.6.6.5.2.7.4.7.8s-.3.8-1 .8c-.3 0-.6-.1-.7-.2v-.2zm4.6-.1v.6h-.3v-.3c-.1.2-.3.4-.7.4-.3 0-.7-.2-.7-.9v-1.2h.4v1c0 .4.1.7.5.7.2 0 .4-.2.5-.3v-1.5h.4v1.5h-.1zm1.3.2c.1.1.3.1.5.1.3 0 .4-.1.4-.3 0-.2-.1-.3-.4-.4-.4-.1-.5-.3-.5-.6s.3-.6.7-.6c.2 0 .4.1.5.1l-.1.3c-.1 0-.2-.1-.4-.1s-.3.1-.3.3c0 .2.1.3.4.4.3.1.5.3.5.6 0 .4-.3.6-.8.6l-.6-.1.1-.3zm2.5-1v-.7h.3v.4c.1-.3.4-.4.7-.4.5 0 .9.4.9 1.1 0 .7-.5 1.1-.9 1.1-.3 0-.5-.1-.6-.3v1.1h-.4v-2.3zm.3.5v.2c.1.3.3.4.6.4.4 0 .6-.3.6-.8 0-.4-.2-.8-.6-.8-.3 0-.5.2-.6.5v.5zm3-.1c0 .5.3.7.7.7.3 0 .4 0 .6-.1l.1.3c-.1.1-.4.1-.7.1-.6 0-1-.4-1-1s.4-1.1 1-1.1c.7 0 .8.6.8 1v.2l-1.5-.1zm1.1-.3c0-.2-.1-.6-.5-.6s-.5.4-.6.6h1.1zm1.6-.2v-.6h.3v.3c.1-.2.3-.4.7-.4.3 0 .7.2.7.9v1.3h-.4v-1.2c0-.3-.1-.6-.5-.6-.2 0-.4.2-.5.4v1.4h-.4v-1.5h.1zm4.8-1.6v3h-.3v-.4c-.1.2-.4.4-.7.4-.5 0-.9-.4-.9-1.1 0-.7.4-1.1.9-1.1.3 0 .5.2.6.3v-1.2c0 .1.4.1.4.1zm-.4 1.8v-.2c-.1-.2-.3-.4-.5-.4-.4 0-.6.3-.6.8 0 .4.2.8.6.8.2 0 .5-.2.5-.5v-.5zm1.9-1.2c-.1 0-.2-.1-.2-.2s.1-.2.2-.2.2.1.2.2 0 .2-.2.2zm-.1 2.5v-2.1h.4v2.1h-.4zm1.6-.4c.1.1.3.1.5.1.3 0 .4-.1.4-.3 0-.2-.1-.3-.4-.4-.4-.1-.5-.3-.5-.6s.3-.6.7-.6c.2 0 .4.1.5.1l-.1.3c-.1 0-.2-.1-.4-.1s-.3.1-.3.3c0 .2.1.3.4.4.3.1.5.3.5.6 0 .4-.3.6-.8.6l-.6-.1.1-.3zm2.4 0c.1.1.3.1.5.1.3 0 .4-.1.4-.3 0-.2-.1-.3-.4-.4-.4-.1-.5-.3-.5-.6s.3-.6.7-.6c.2 0 .4.1.5.1l-.1.3c-.1 0-.2-.1-.4-.1s-.3.1-.3.3c0 .2.1.3.4.4.3.1.5.3.5.6 0 .4-.3.6-.8.6l-.6-.1.1-.3zm2.7-.6c0 .5.3.7.7.7.3 0 .4 0 .6-.1l.1.3c-.1.1-.4.1-.7.1-.6 0-1-.4-1-1s.4-1.1 1-1.1c.7 0 .8.6.8 1v.2l-1.5-.1zm1.1-.3c0-.2-.1-.6-.5-.6s-.5.4-.6.6h1.1zm-28.3 4.1v-.6h.3v.3c.1-.2.3-.4.6-.4s.5.2.6.4l.2-.3c.1-.1.3-.1.4-.1.3 0 .7.2.7.9v1.2h-.4v-1.2c0-.4-.1-.6-.4-.6-.2 0-.4.2-.4.3v1.5h-.4v-1.2c0-.3-.1-.6-.4-.6-.2 0-.4.2-.5.4v1.5h-.4l.1-1.5zm4.9 1v.5h-.3v-.3c-.1.2-.3.3-.6.3-.4 0-.6-.3-.6-.6 0-.5.4-.8 1.2-.8 0-.2 0-.5-.5-.5-.2 0-.4.1-.5.2l-.1-.3c.2-.1.4-.2.7-.2.6 0 .8.4.8.8-.1.1-.1.9-.1.9zm-.4-.6c-.4 0-.9.1-.9.5 0 .2.2.4.3.4.3 0 .4-.2.5-.3v-.1l.1-.5zm2.7.8c0 .5-.1.8-.3 1-.2.2-.5.2-.7.2-.2 0-.5-.1-.7-.2l.1-.3c.1.1.3.2.6.2.4 0 .7-.2.7-.7v-.2c-.1.2-.3.3-.6.3-.5 0-.9-.4-.9-1 0-.7.5-1.1.9-1.1s.5.2.6.4v-.3h.3v1.7000000000000002zm-.3-1v-.2c-.1-.2-.2-.4-.5-.4-.4 0-.6.3-.6.8 0 .4.2.7.6.7.2 0 .4-.1.5-.4v-.5zm1-.2v-.6h.3v.3c.1-.2.3-.4.7-.4.3 0 .7.2.7.9v1.2h-.4v-1.2c0-.3-.1-.6-.5-.6-.2 0-.4.2-.5.4v1.5h-.4v-1.5h.1zm3.7 1v.5h-.3v-.3c-.1.2-.3.3-.6.3-.4 0-.6-.3-.6-.6 0-.5.4-.8 1.2-.8 0-.2 0-.5-.5-.5-.2 0-.4.1-.5.2l-.1-.3c.2-.1.4-.2.7-.2.6 0 .8.4.8.8-.1.1-.1.9-.1.9zm-.3-.6c-.4 0-.9.1-.9.5 0 .2.2.4.3.4.3 0 .4-.2.5-.3v-.1l.1-.5zm8.4-2h.4v3h-.4v-3zm2.4 2.6v.5h-.3v-.3c-.1.2-.3.3-.6.3-.4 0-.6-.3-.6-.6 0-.5.4-.8 1.2-.8 0-.2 0-.5-.5-.5-.2 0-.4.1-.5.2l-.1-.3c.2-.1.4-.2.7-.2.6 0 .8.4.8.8-.1.1-.1.9-.1.9zm-.3-.6c-.4 0-.9.1-.9.5 0 .2.2.4.3.4.3 0 .4-.2.5-.3v-.1l.1-.5zm2.4 1c-.1 0-.3.1-.6.1-.6 0-1-.4-1-1.1s.4-1.1 1.1-1.1c.2 0 .4.1.5.1l-.1.3c-.1 0-.2-.1-.4-.1-.5 0-.7.4-.7.8 0 .5.3.8.7.8l.5-.1v.3zm2.1-.5v.6h-.3v-.3c-.1.2-.3.4-.7.4-.3 0-.7-.2-.7-.9v-1.2h.4v1.1c0 .4.1.7.5.7.2 0 .4-.2.5-.3v-1.5h.4v1.4h-.1zm.6.2c.1.1.3.1.5.1.3 0 .4-.1.4-.3 0-.2-.1-.3-.4-.4-.4-.1-.5-.3-.5-.6s.3-.6.7-.6c.2 0 .4.1.5.1l-.1.3c-.1 0-.2-.1-.4-.1s-.3.1-.3.3c0 .2.1.3.4.4.3.1.5.3.5.6 0 .4-.3.6-.8.6l-.6-.1.1-.3zm1.4.9l.3-1h.4c-.1.4-.3.8-.4 1h-.3zm-28.3.7h.4v3h-.4v-3zm2.4 2.6v.5h-.3v-.3c-.1.2-.3.3-.6.3-.4 0-.6-.3-.6-.6 0-.5.4-.8 1.2-.8 0-.2 0-.5-.5-.5-.2 0-.4.1-.5.2l-.1-.3c.2-.1.4-.2.7-.2.6 0 .8.4.8.8-.1.1-.1.9-.1.9zm-.4-.6c-.4 0-.9.1-.9.5 0 .2.2.4.3.4.3 0 .4-.2.5-.3v-.1l.1-.5zm2.4 1c-.1 0-.3.1-.6.1-.6 0-1-.4-1-1.1s.4-1.1 1.1-1.1c.2 0 .4.1.5.1l-.1.3c-.1 0-.2-.1-.4-.1-.5 0-.7.4-.7.8 0 .5.3.8.7.8l.5-.1v.3zm.6-2.4c-.1 0-.2-.1-.2-.2s.1-.2.2-.2.2.1.2.2 0 .2-.2.2zm-.1 2.5v-2.1h.4v2.1h-.4zm.9-1.6v-.6h.3v.3c.1-.2.3-.4.7-.4.3 0 .7.2.7.9v1.2h-.4v-1.2c0-.3-.1-.6-.5-.6-.2 0-.4.2-.5.4v1.5h-.4v-1.5h.1zm2.6-.9c-.1 0-.2-.1-.2-.2s.1-.2.2-.2.2.1.2.2-.1.2-.2.2zm-.2 2.5v-2.1h.4v2.1h-.4zm2.4-.5v.5h-.3v-.3c-.1.2-.3.3-.6.3-.4 0-.6-.3-.6-.6 0-.5.4-.8 1.2-.8 0-.2 0-.5-.5-.5-.2 0-.4.1-.5.2l-.1-.3c.2-.1.4-.2.7-.2.6 0 .8.4.8.8-.1.1-.1.9-.1.9zm-.3-.6c-.4 0-.9.1-.9.5 0 .2.2.4.3.4.3 0 .4-.2.5-.3v-.1l.1-.5zm4.3.6v.5h-.3v-.3c-.1.2-.3.3-.6.3-.4 0-.6-.3-.6-.6 0-.5.4-.8 1.2-.8 0-.2 0-.5-.5-.5-.2 0-.4.1-.5.2l-.1-.3c.2-.1.4-.2.7-.2.6 0 .8.4.8.8-.1.1-.1.9-.1.9zm-.4-.6c-.4 0-.9.1-.9.5 0 .2.2.4.3.4.3 0 .4-.2.5-.3v-.1l.1-.5zm2.4 1c-.1 0-.3.1-.6.1-.6 0-1-.4-1-1.1s.4-1.1 1.1-1.1c.2 0 .4.1.5.1l-.1.3c-.1 0-.2-.1-.4-.1-.5 0-.7.4-.7.8 0 .5.3.8.7.8l.5-.1v.3zm.2.6l.3-1h.4c-.1.4-.3.8-.4 1h-.3zm2.7-1.9v-.7h.3v.4c.1-.3.4-.4.7-.4.5 0 .9.4.9 1.1 0 .7-.5 1.1-.9 1.1-.3 0-.5-.1-.6-.3v1.1h-.4v-2.3zm.4.5v.2c.1.3.3.4.6.4.4 0 .6-.3.6-.8 0-.4-.2-.8-.6-.8-.3 0-.5.2-.6.5v.5zm2.8.9c-.5 0-1-.4-1-1.1 0-.7.5-1.1 1-1.1.6 0 1 .4 1 1.1 0 .8-.5 1.1-1 1.1zm0-.3c.4 0 .6-.3.6-.8 0-.4-.2-.8-.6-.8-.4 0-.6.4-.6.8 0 .5.3.8.6.8zm1.5-1.2v-.6h.3v.4c.1-.3.3-.5.6-.5h.1v.4h-.1c-.3 0-.4.2-.5.5v1.3h-.4v-1.5zm1.9-1.1v.5h.6v.3h-.5v1.1c0 .3.1.4.3.4h.2v.3l-.3.1c-.2 0-.3-.1-.4-.2-.1-.1-.1-.3-.1-.5v-1.1h-.3v-.3h.3v-.4l.2-.2zm2.4 2.1v.5h-.3v-.3c-.1.2-.3.3-.6.3-.4 0-.6-.3-.6-.6 0-.5.4-.8 1.2-.8 0-.2 0-.5-.5-.5-.2 0-.4.1-.5.2l-.1-.3c.2-.1.4-.2.7-.2.6 0 .8.4.8.8-.1.1-.1.9-.1.9zm-.3-.6c-.4 0-.9.1-.9.5 0 .2.2.4.3.4.3 0 .4-.2.5-.3v-.1l.1-.5zm-28.2 3.8v-.6h.3v.3c.1-.2.3-.4.7-.4.3 0 .7.2.7.9v1.2h-.4v-1.2c0-.3-.1-.6-.5-.6-.2 0-.4.2-.5.4v1.5h-.4v-1.5h.1zm3.1 1.6c-.5 0-1-.4-1-1.1 0-.7.5-1.1 1-1.1.6 0 1 .4 1 1.1 0 .8-.5 1.1-1 1.1zm0-.3c.4 0 .6-.3.6-.8 0-.4-.2-.8-.6-.8-.4 0-.6.4-.6.8 0 .5.3.8.6.8zm1.5-1.3v-.6h.3v.3c.1-.2.3-.4.7-.4.3 0 .7.2.7.9v1.2h-.4v-1.2c0-.3-.1-.6-.5-.6-.2 0-.4.2-.5.4v1.5h-.4v-1.5h.1zm2.1 2.1l.3-1h.4c-.1.4-.3.8-.4 1h-.3zm3.4-.6c-.1 0-.3.1-.6.1-.6 0-1-.4-1-1.1s.4-1.1 1.1-1.1c.2 0 .4.1.5.1l-.1.3c-.1 0-.2-.1-.4-.1-.5 0-.7.4-.7.8 0 .5.3.8.7.8l.5-.1v.3zm1.2.1c-.5 0-1-.4-1-1.1 0-.7.5-1.1 1-1.1.6 0 1 .4 1 1.1.1.8-.5 1.1-1 1.1zm.1-.3c.4 0 .6-.3.6-.8 0-.4-.2-.8-.6-.8-.4 0-.6.4-.6.8-.1.5.2.8.6.8zm1.4-1.3v-.6h.3v.3c.1-.2.3-.4.7-.4.3 0 .7.2.7.9v1.2h-.4v-1.2c0-.3-.1-.6-.5-.6-.2 0-.4.2-.5.4v1.5h-.4v-1.5h.1zm2.4-.5l.4 1.2c.1.2.1.4.2.5 0-.2.1-.3.2-.5l.4-1.2h.4l-.8 2.1h-.4l-.8-2.1h.4zm3.3 1.6v.5h-.3v-.3c-.1.2-.3.3-.6.3-.4 0-.6-.3-.6-.6 0-.5.4-.8 1.2-.8 0-.2 0-.5-.5-.5-.2 0-.4.1-.5.2l-.1-.3c.2-.1.4-.2.7-.2.6 0 .8.4.8.9-.1 0-.1.8-.1.8zm-.4-.6c-.4 0-.9.1-.9.5 0 .2.2.4.3.4.3 0 .4-.2.5-.3v-.1l.1-.5zm1-2h.4v3h-.4v-3zm1 0h.4v3h-.4v-3zm1.1.6c-.1 0-.2-.1-.2-.2s.1-.2.2-.2.2.1.2.2 0 .2-.2.2zm-.1 2.5v-2.1h.4v2.1h-.4zm.9-.4c.1.1.3.1.5.1.3 0 .4-.1.4-.3 0-.2-.1-.3-.4-.4-.4-.1-.5-.3-.5-.6s.3-.6.7-.6c.2 0 .4.1.5.1l-.1.3c-.1 0-.2-.1-.4-.1s-.3.1-.3.3c0 .2.1.3.4.4.3.1.5.3.5.6 0 .4-.3.6-.8.6l-.6-.1.1-.3zm4.6-.2v.6h-.3v-.3c-.1.2-.3.4-.7.4-.3 0-.7-.2-.7-.9v-1.2h.4v1.1c0 .4.1.7.5.7.2 0 .4-.2.5-.3v-1.5h.4v1.4h-.1zm1-2v.5h.5v.3h-.5v1.1c0 .3.1.4.3.4h.2v.3l-.3.1c-.2 0-.3-.1-.4-.2-.1-.1-.1-.3-.1-.5v-1.1h-.3v-.3h.3v-.4l.3-.2zm.7 3.1l.3-1h.4c-.1.4-.3.8-.4 1h-.3zm-28.3 2.2v-.6h.3v.3c.1-.2.3-.4.6-.4s.5.2.6.4l.2-.3c.1-.1.3-.1.4-.1.3 0 .7.2.7.9v1.2h-.4v-1c0-.4-.1-.6-.4-.6-.2 0-.4.2-.4.3v1.5h-.4v-1.2c0-.3-.1-.6-.4-.6-.2 0-.4.2-.5.4v1.5h-.4l.1-1.7zm3.6-.9c-.1 0-.2-.1-.2-.2s.1-.2.2-.2.2.1.2.2 0 .2-.2.2zm-.1 2.5v-2.1h.4v2.1h-.4zm1.1 0c-.1 0-.2-.1-.2-.3 0-.2.1-.3.3-.3s.2.1.2.3c0 .2-.1.3-.3.3zm1.8-1l-.3.9h-.4l1-2.9h.4l1 2.9h-.4l-.3-.9h-1zm.9-.3l-.3-.8-.1-.5-.1.5-.3.8h.8zm1.2-1.8h.4v3h-.4v-3zm1.1.6c-.1 0-.2-.1-.2-.2s.1-.2.2-.2.2.1.2.2 0 .2-.2.2zm-.1 2.5v-2.1h.4v2.1h-.4zm2.3-.4c-.1.2-.3.4-.7.4-.5 0-.9-.4-.9-1.1 0-.8.5-1.1.9-1.1.3 0 .5.2.6.4v-.3h.4v3h-.4l.1-1.3zm0-.9v-.2c-.1-.2-.3-.4-.5-.4-.4 0-.6.3-.6.8 0 .4.2.8.6.8.2 0 .4-.2.5-.4v-.6000000000000001zm2.7.7v.6h-.3v-.3c-.1.2-.3.4-.7.4-.3 0-.7-.2-.7-.9v-1.2h.4v1.1c0 .4.1.7.5.7.2 0 .4-.2.5-.3v-1.5h.4v1.4h-.1zm2.1.1v.5h-.3v-.3c-.1.2-.3.3-.6.3-.4 0-.6-.3-.6-.6 0-.5.4-.8 1.2-.8 0-.2 0-.5-.5-.5-.2 0-.4.1-.5.2l-.1-.3c.2-.1.4-.2.7-.2.6 0 .8.4.8.9-.1 0-.1.8-.1.8zm-.4-.6c-.4 0-.9.1-.9.5 0 .2.2.4.3.4.3 0 .4-.2.5-.3v-.1l.1-.5zm1-.5v-.6h.3v.3c.1-.2.3-.4.6-.4s.5.2.6.4l.2-.3c.1-.1.3-.1.4-.1.3 0 .7.2.7.9v1.2h-.3v-1c0-.4-.1-.6-.4-.6-.2 0-.4.2-.4.3v1.5h-.4v-1.2c0-.3-.1-.6-.4-.6-.2 0-.4.2-.5.4v1.5h-.4v-1.7zm4.6.6c0 .5.3.7.7.7.3 0 .4 0 .6-.1l.1.3c-.1.1-.4.1-.7.1-.6 0-1-.4-1-1s.4-1.1 1-1.1c.7 0 .8.6.8 1v.2l-1.5-.1zm1.1-.3c0-.2-.1-.6-.5-.6s-.5.4-.6.6h1.1zm.8.9c.1.1.3.1.5.1.3 0 .4-.1.4-.3 0-.2-.1-.3-.4-.4-.4-.1-.5-.3-.5-.6s.3-.6.7-.6c.2 0 .4.1.5.1l-.1.3c-.1 0-.2-.1-.4-.1s-.3.1-.3.3c0 .2.1.3.4.4.3.1.5.3.5.6 0 .4-.3.6-.8.6l-.6-.1.1-.3zm2.1-2.2v.5h.5v.3h-.5v1.1c0 .3.1.4.3.4h.2v.3l-.3.1c-.2 0-.3-.1-.4-.2-.1-.1-.1-.3-.1-.5v-1.1h-.3v-.3h.3v-.4l.3-.2zm1.1 2.6c-.1 0-.2-.1-.2-.3 0-.2.1-.3.3-.3s.2.1.2.3c0 .2-.1.3-.3.3z"/><path class="st3" d="M18 9c-.6 0-1 .4-1 1v108c0 .6.4 1 1 1h59.2c.3 0 2.8.1 2.9-.1l30.6-30.8c.2-.2.3-2.7.3-2.9v-75.2c0-.6-.4-1-1-1h-92z"/><g transform="translate(.028 36)"><linearGradient id="SVGID_2_" gradientUnits="userSpaceOnUse" x1="83.499" y1="18.011" x2="83.499" y2="29.231" gradientTransform="matrix(1.002 0 0 -1 .334 94.011)"><stop offset="0" stop-color="#BA9752"/><stop offset=".266" stop-color="#FBD78F"/><stop offset=".544" stop-color="#FBD78F"/><stop offset="1" stop-color="#D6AE5E"/></linearGradient><path class="st4" d="M64 64.8h40v11.2h-40v-11.2z"/><linearGradient id="SVGID_3_" gradientUnits="userSpaceOnUse" x1="83.499" y1="51.75" x2="83.499" y2="68.525" gradientTransform="matrix(1.002 0 0 -1.073 .334 121.501)"><stop offset="0" stop-color="#fff"/><stop offset=".266" stop-color="#73D4FE"/><stop offset="1" stop-color="#23A7FF"/></linearGradient><path class="st5" d="M64 48h40v18h-40v-18z"/><path class="st6" d="M94.4 57.5c.4-.1 0-.8 0 0zm.7 0c.3.2.4-.8 0 0z"/><path class="st7" d="M93 57.3c.2.7 1.2.4 0 0z"/><path class="st8" d="M85.3 57.5c-.2.6.1 1.1 0 0z"/><path class="st6" d="M85.4 57.6c-.2.4.6.5 0 0z"/><path class="st7" d="M67.1 57.8c-.4 0 .3.4 0 0z"/><path class="st8" d="M69.7 58c-.4 0 .5 1.3 0 0z"/><path class="st9" d="M85.6 58.3c-.6-1 .1.9.1.1h-.1v-.1z"/><path class="st8" d="M85.6 57.9c-.2.8.5-.1 0 0zm.2.4c.6-.1-.1-.7 0 0z"/><path class="st10" d="M68.7 58c-.1.7.4 0 0 0z"/><path class="st8" d="M83.5 58c.4.6.8-.2 0 0zm3.9 0c-.5.1.2.6 0 0z"/><path class="st7" d="M90.2 58.3c.6.7.6-.7 0 0z"/><path class="st9" d="M93.4 58.4c.4-.2-.1-.8 0 0zm-3.1.3c-1-1.4.1 1.6 0 0z"/><path class="st7" d="M71.6 58.1c-.3.6.2.7 0 0zm17.9.2c-.3.4.6.1 0 0z"/><path class="st11" d="M92.9 58.4c.8.3.2-.4 0 0z"/><path class="st6" d="M90.2 58.5c.2.4.4-.5 0 0z"/><path class="st12" d="M80.9 58.6c.1.1.7 0 0 0z"/><path class="st7" d="M73.1 58.4c.1 1.3.5.9 0 0z"/><path class="st6" d="M87.6 58.6c0 1 .5-.3 0 0z"/><path class="st13" d="M92.8 58.6c.4.2.3-.5 0 0z"/><path class="st8" d="M71.7 58.5c-.3.8.5.3 0 0zm14.9 0c-.2.5.7.2 0 0zm-7.5.1c-1.3 0 .2 1.5-1 1 .7 1.2.7-.7 1-1zm2.5 0c-1 .5.3.9 0 0z"/><path class="st11" d="M83.7 58.7z"/><path class="st9" d="M87 58.7c-.4.3.4.5 0 0zm-3.8 0c-1.6.2.7.4 0 0zm4.4 0c-.5.6.7.6 0 0z"/><path class="st7" d="M90.7 59c.5 0 .5-.5 0 0z"/><path class="st9" d="M89.6 58.8c-.1.6.8.3 0 0z"/><path class="st8" d="M70 59c-.5-.3.3.7 0 0z"/><path class="st7" d="M72.8 58.9c-.1.5.7.1 0 0z"/><path class="st6" d="M89.4 59.1c.4.3.1-.6 0 0zm-16.7 0c-.7-.9.3.8 0 0z"/><path class="st9" d="M85.7 59.1c-1 .3.8-.1 0 0z"/><path class="st8" d="M89.6 59.1c-.3.3.6.1 0 0zm.5 0c-.1.6.6 0 0 0z"/><path class="st7" d="M82.9 59.4c.7-.1-.2-.4 0 0z"/><path class="st8" d="M81.3 59.2c.1.4.5.1 0 0z"/><path class="st6" d="M87.7 59.5c-.3-.1.5.5.1.1l-.1-.1z"/><path class="st10" d="M70.4 59.3c-.7 0 1 .1 0 0z"/><path class="st7" d="M83.3 59.5c.7.1-.1-.5 0 0zm-4 .1c.6 0-.1-.5 0 0z"/><path class="st11" d="M83 59.4c-.9.2-.2.7 0 0z"/><path class="st8" d="M71.9 59.6c-.5-.4.3.4 0 0z"/><path class="st7" d="M71.9 59.6c.8.3 1-.4 0 0z"/><path class="st9" d="M73.1 59.5c-.4.4.5.3 0 0z"/><path class="st6" d="M84.2 59.8c.4.3.3-.6 0 0z"/><path class="st8" d="M67 60.1c.2-.8-.6-.3 0 0zm21.1-.5c-1 .2.3.7 0 0z"/><path class="st12" d="M75.4 59.7c-1.1.5 1.2.6 0 0z"/><path class="st8" d="M91.4 59.7c-.7.8.5.7 0 0z"/><path class="st9" d="M65.3 59.8c-.2.7.3.1 0 0zm5.1.3c.4.2.8-.5 0 0z"/><path class="st12" d="M85.3 60c0 .5.5 0 0 0z"/><path class="st8" d="M64.6 60.1c-.1.5.6.2 0 0z"/><path class="st9" d="M79.4 60.2c-1-.4.1.7 0 0z"/><path class="st12" d="M79 60.3"/><path class="st11" d="M73.9 60.4c.1.7.3-.6 0 0z"/><path class="st6" d="M74.3 60.3c-.9.2.3.5 0 0z"/><path class="st12" d="M85.8 60.3c.1 1.6 1 .3 0 0zm-10.7 1.2c.5-2.4-1.2 1.4-.2 1.7.3-.4.6-1.4.2-1.7zm.1-.4c-.3.7.4.2 0 0z"/><path class="st10" d="M78 60.4"/><path class="st11" d="M69.4 60.5c-.6.2.4.5 0 0z"/><path class="st6" d="M92.5 60.6c-.3.6.4-.3 0 0z"/><path class="st12" d="M77 60.6c-.3.5.4.2 0 0zm-5.8 0c-.6 0 .3.6 0 0zm8.5 0c-.1.6.4.1 0 0zm7.9.3c.2 1.7 1.2-.8 0 0zm-19.1-.2c-.7.6.8 0 0 0z"/><path class="st10" d="M88.4 60.7c0 .4.6-.2 0 0z"/><path class="st12" d="M86.5 60.8c0 1 .3.1 0 0zm2.8.1c-.3.7.5.4 0 0z"/><path class="st6" d="M69.2 61.2c.7 0 .4-.3 0 0z"/><path class="st10" d="M75.9 61.2"/><path class="st9" d="M90.5 61.1c-.5.6.6.1 0 0z"/><path class="st6" d="M84.3 61.2c-.7-.1.1.8 0 0z"/><path class="st11" d="M90.1 61.2c-.4.4.5 0 0 0z"/><path class="st12" d="M70.2 61.3c-.1.7.6.2 0 0zm6.8 0c-.5.8.1 3.2.2 1.1 0-.4.1-.8-.2-1.1zm-11.5.2c.5.3.5-.6 0 0z"/><path class="st8" d="M79.9 61.5c-.2.6.8.1 0 0z"/><path class="st12" d="M81 61.5c-.2.7.6.5 0 0zm-6.7 1.2c-.2-.1 0 .2 0 0zm-.1-1.1c-.4 1.3.3 1.1 0 0z"/><path class="st6" d="M89.6 61.6c-.2.8.4.2 0 0z"/><path class="st8" d="M92 61.6c-.6.5.5.7 0 0z"/><path class="st12" d="M78.6 61.8c-.1-.2-.1 1 0 0zm9.8-.1c-.1.8.4.2 0 0zm-9.6.5c.9 1 .7-.2.1-.3v.1l-.1.2z"/><path class="st7" d="M88 62.2c-.9-1.2-.2 1.3 0 0zm-.5.1c-.1-.5.5-.1 0 0z"/><path class="st8" d="M89.7 61.9c-.9.3 1.2.6 0 0z"/><path class="st11" d="M72.4 62.1c.1.4.7.2 0 0z"/><path class="st12" d="M73.4 63.7c.7-.3-.1-2.3 0-.2v.2zm-.5-1.4c-.1.8.8-.2 0 0zm11.7 0c-.4.6-.2.6 0 0zm-16.8 0c-.1.5.7.3 0 0zm14.1 0c-.8 1.2 1 .5 0 0z"/><path class="st6" d="M85.2 62.6c-.3 1.1.5.1 0 0z"/><path class="st9" d="M75.5 62.7c-.1.5.7 0 0 0zm6.7.2c-.1.6.6-.2 0 0z"/><path class="st12" d="M79.1 62.9c-.6.6.5.5 0 0z"/><path class="st8" d="M85.6 63c-.4.6.3.8 0 0z"/><path class="st12" d="M67 63c-.3-.1-.3.4 0 0z"/><path class="st7" d="M75.3 63.7c.9-.1-.2-1.4 0 0zm10.3-.7c-.2.5.2.7 0 0z"/><path class="st8" d="M85.2 63.1c0 .7.4-.1 0 0z"/><path class="st12" d="M75.9 63.1c-.6 0 .3.6 0 0z"/><path class="st9" d="M77.9 63.1c-.4.4.4.1 0 0z"/><path class="st8" d="M86 63.3c-.1 1.2.3.3.3-.1l-.3.1z"/><path class="st7" d="M72.4 63.3c-.3.5.4.2 0 0zm8.5 0c.2.4-1.2.7-.3.6.1-.1.6.2.3-.6z"/><path class="st8" d="M80.4 63.4c-.6.4.1.5 0 0z"/><path class="st12" d="M69.7 63.5c-1.2 1.4 1.2-.1 0 0zm-1.6.2c.3.5.8-.6 0 0zm15.4.8c1 .7 1.1-1.5.2-.2l-.2.2zm-15.8-.9c-.3.4.5.2 0 0z"/><path class="st9" d="M71.2 63.6c-.5.3.1.4 0 0z"/><path class="st7" d="M86.2 63.6c-.4.8.6 1.2 0 0z"/><path class="st9" d="M73.2 63.7c.1 1.2.5.6 0 0z"/><path class="st12" d="M68.6 64.1c.5.6 1.3-.1.4-.3-.1 0-.4.1-.4.3zm8.3-.3c-.1.9.7-.5 0 0z"/><path class="st9" d="M80.2 64c-.2.7.2.3 0 0z"/><path class="st7" d="M78.7 64.2c.6.4.3-.6 0 0z"/><path class="st6" d="M74.9 64.2c-.8.2.2.4 0 0z"/><path class="st10" d="M80.3 64.4c.7.2.2-.8 0 0z"/><path class="st9" d="M82.5 64.4c.6 0 0-.6 0 0z"/><path class="st6" d="M86 64.2c-.3.4.4.2 0 0z"/><path class="st13" d="M72.4 64.3c.5.6.2-.5 0 0z"/><path class="st12" d="M76.7 64.4c.5.1.5-.2 0 0z"/><path class="st11" d="M77.9 64.3c.2.5.6-.4 0 0z"/><path class="st10" d="M79 64.3c-1 .1.5.1 0 0zm7.9-.1c-1 0 .5.9 0 0z"/><path class="st11" d="M78.6 64.5c-.3.5.3.2 0 0zm-7 .1c.1.7.6-.4 0 0z"/><path class="st6" d="M74.6 64.5c.2.6.7-.1 0 0z"/><path class="st11" d="M74.1 64.6c-.5-.3-.1.4 0 0z"/><path class="st7" d="M86.3 64.8c.4 0 .2-.5 0 0z"/><path class="st6" d="M86.5 64.9c.7 0 0-.7 0 0z"/><path class="st12" d="M69.7 65.6c1-1.5-1.4-.3 0 0z"/><path class="st6" d="M82.2 64.9c.5.1 0-.4 0 0z"/><path class="st10" d="M84.2 65.1c1.1 0 .2-.6 0 0zm-5.5.1c0 .4.4-.1 0 0z"/><path class="st6" d="M78.2 65.4c.5.3.2-.4 0 0z"/><path class="st12" d="M71.7 65.4"/><path class="st6" d="M78.6 65.6c.5.5.4-.3 0 0z"/><path class="st13" d="M82.3 65.9c.9.1-.1-.8 0 0z"/><path class="st11" d="M83.6 65.6c-.2.6.7 0 0 0z"/><path class="st12" d="M72.1 65.8c.7-.1.1-.4 0 0zm3.2.2c-.8-.5-2.5.1-1.2 1 1.1.5 3.6-.2 1.2-1zm-1.2.4c.1-.6.6.4 0 0zm.2.4c0-.5.5 0 0 0zm.9.1c0-.3.5.1 0 0z"/><path class="st13" d="M84.1 65.7c-.8 1.3 2.5-.4.2 0h-.2z"/><path class="st6" d="M78.1 65.8c.7.4.9-.3 0 0z"/><path class="st13" d="M83 66.2c-.4.9 1.5-.6 0-.3-.4-.3-.3.3 0 .3z"/><path class="st12" d="M71.3 66c.1.4.4-.2 0 0z"/><path class="st11" d="M69.1 66.6c.3-.5-.3-.7 0 0z"/><path class="st12" d="M72.3 66.1c.1.6.7-.1 0 0zm.6.5c.9.4-.3-1.1 0 0zm.3.1c0 1.2 1 1.3.3.2l-.3-.2zm4.3-.1l-.9-.3c-.5 1.2 2.8 1 .9.3z"/><path class="st6" d="M78.7 66.2c.1.4.6 0 0 0zm.5 0c-.3.6.5.4 0 0z"/><path class="st12" d="M71.3 66.3c-.4 1 1 1.6.2.3l-.2-.3z"/><path class="st11" d="M80 66.4c-.1.4.4-.2 0 0z"/><path class="st13" d="M82.2 66.8c1.3-.4-.1-.7 0 0z"/><path class="st12" d="M72.3 66.7c-.1-.6-.4 0 0 0z"/><path class="st13" d="M81.4 66.6c.2.6.8-.4 0 0z"/><path class="st10" d="M83.1 66.8c.6 0 .1-.5 0 0z"/><path class="st9" d="M71.2 66.8c-.5.1.4.8 0 0z"/><path class="st10" d="M82 66.9c-1.1.5 1.1 1.1 0 0zm.4.5c.3-.5-.4-.7 0 0zm-.2-.4c-.1-.3-.4.2 0 0z"/><path class="st12" d="M78.2 67c-1 1.5 1.1.3 0 0z"/><path class="st13" d="M81.8 67.2c.7.7.9-.6 0 0z"/><path class="st12" d="M72.7 67.2c-1.4.4.7.5 0 0zm6.7.1c-.5.4.3.4 0 0zm-7.6.5c.1.6.7 0 0 0zm-.1.4c.3.5.9.2 0 0zm1.6.6c-1.7-1.6-.6 2 0 0zm.4.6c1.3-.2-.5-1.6-.1-.3-.4.9 1.3 1.2.2.4l-.1-.1zm-2.8-.9c0 .8.6.1 0 0zm7.7.9c.1.4.5-.3 0 0z"/><path class="st9" d="M67.8 69.9c.4.1-.1-.6 0 0z"/><path class="st12" d="M70.8 69.7c-.8 1.6 1.1 0 0 0z"/><path class="st6" d="M71.5 70.3c-.3.2.4.5 0 0z"/><path class="st11" d="M72 71.3c-1 .7.9 0 0 0zm.7.2l.1.5c1.2.1.4-.1-.1-.5z"/><path class="st10" d="M74.7 71.8c-.3.5.3.2 0 0z"/><path class="st11" d="M66.1 73.1c-.3-.1 1.6 0 .2-.2l-.2.2z"/><path class="st13" d="M71 73.5c.7 0 .3-.6 0 0zm-.4 0c-.8.5 1.5.2 0 0zm-1.1.6c.5.4 1.7 0 .5-.3-.2 0-.5.1-.5.3zm-.5.1c.8-.1.1-.7 0 0zm-2.5-.2c.2.6.6-.2 0 0zm.5 0c.1.5.5-.4 0 0zm1.2 0c0 .5.5-.2 0 0zm2.7.3c.6.3.2-.4 0 0zm-2.5.1c-.7.5.6.4 0 0zm-1.2.6c.7 0 .3-.9 0 0z"/><path class="st10" d="M78.2 74.7c-.3.1 0 .4 0 0zm-6.2.3c.5.4.5-.4 0 0zm17.9 0c.1.4.5-.3 0 0zm-.9.2c.9.1.2-.5 0 0zm-18.7-.2c0 .4.5 0 0 0zm12.8 1h-.2.2z"/><path class="st8" d="M94 56.8c-.8.2-.5 1.3 0 .1v-.1z"/><path class="st7" d="M95.9 57.8c.6-1-2.4-.7-1.4-.7-.2 1.1 1.3-.4 1.3.9.8-.5-.4 1 .5.5-.8 0 .7-1-.4-.7z"/><path class="st8" d="M71 57.1c-1.5 0-.7.3 0 0z"/><path class="st9" d="M97.9 57.8"/><path class="st10" d="M67 58.2c.1-1.3.7 1.7.5-.1-.7-1 2.5-.4.5-.8-.6-.1-1.6.2-1 .9z"/><path class="st11" d="M69.7 57.2c-1.3.9.6.1 0 0z"/><path class="st6" d="M68.6 57.5c-.6.3 0 1.4 0 0z"/><path class="st7" d="M93.1 57.8c-.3.4-1.3.6-.4 1.1-.6.5-.6.4-.3.6-.6.8-1.4-.9-.9.5-.4.9 1.7 1.6.2.6-.4-1.2 1.4.9.7-.8.1-.6.9-.2.3-.8.8-.2-.5-.9.6-.8.1-.1 0-.4-.2-.4zm-.7 2.3c-.5.2-.9-.3 0-.2v.2z"/><path class="st11" d="M72.6 58.6c-.1.6.6.7 0 0z"/><path class="st7" d="M70 57.7c-1-.3-1.7.1-1.3.7-.5.1-1.1-.1-.3.4-1 0 1.4 1.4.6 1.3-1.4-1.5 0 1.9.5.1.2-.6.8-.9-.2-.5-1-1.5.5-2.4 1.7-1.7 1.1.5-.6-.8-1-.3zm-1 2.7c-.8-.9.8 0 0 0zm-.6-1.4c.2-.4.6.2 0 0zm.5.2c.4.5-.8 0 0 0z"/><path class="st6" d="M94.1 57.1c-.7.2-1.3 1.9-.4.8.1-.3.9-.7.4-.8z"/><path class="st7" d="M85.7 57.8c-.8-.4.9.4.5 0 .1-.3-.5-.1-.5 0zm-.5.3c-.6-.6-.5.2-1.1.2.5-.6.3 1.3.8.2-.1-.4.6-.2.3-.4zm-2.7.9c-.3.2.7.3.2-.2 0 0 0 .2-.2.2z"/><path class="st11" d="M66.4 58c-1.1-.7-.2.7 0 0zm-.1.1c-.8.1-.1-.6 0 0zm28.5.3c.3.4.4-.6 0 0z"/><path class="st10" d="M94.4 57.7c0 .8.7.3 0 0z"/><path class="st8" d="M68.4 57.6c0 .5.5-.2 0 0zm3 .5c-.9-.2-.3.4 0 0z"/><path class="st7" d="M66.9 58.1c-.7-.9-.4.9 0 0z"/><path class="st6" d="M85.8 57.9c-.8 1.6 1.1-.9 0 0zm-4.4.3c-.5 1 .3.5 0 0z"/><path class="st10" d="M93 58.7c0-.5-.4 0 0 0z"/><path class="st6" d="M92.8 59.1c-.4.5 1 .2 0 0zm-.5.6c.4.3.9-.4 0 0z"/><path class="st11" d="M92.8 59.6c-.7.7-.1 1.2 0 0z"/><path class="st10" d="M65.9 57.9c.3.6.6-.1 0 0z"/><path class="st6" d="M81 59.2c-.4-.6-.3-1.4-.9-.6-1 1 .1 1.1.9.6zm-.3-.2c-1 .8-.5-.9 0 0z"/><path class="st8" d="M90 58c-.5.6-.8 1.4 0 .4.3.2.3-.6 0-.4z"/><path class="st11" d="M68.7 58.2c-.2.3.1.5 0 0z"/><path class="st9" d="M71.1 58.3c.3-.1-.2-.5 0 0zm10.3 1.1c.2-.5-.3-.4-.1-1.2-.1.3-.5 1.1-.4 0-.4-.7.2 2.2 1 1.4l-.1-.1-.4-.1z"/><path class="st8" d="M83.4 58.2c0 .4.7.3 0 0zm-.2.4c-1.1.3-.3.7 0 0z"/><path class="st6" d="M85.3 58.3c-.5-.5-.5 1.5-.8 0-.9-.1.2 0-.2.2 0 .9 1.2.1 1-.2z"/><path class="st8" d="M90.6 58.9c-.1-1.3-.6.8 0 0z"/><path class="st6" d="M71.7 58.3c-.2-.4-.3.3-.4 0 .4.5 1.6.6.4 0z"/><path class="st9" d="M80.3 59.1c-.5.1.1.2 0 0z"/><path class="st6" d="M91.2 59.4c-.9.4-1.2.6-1.2-.4-.5-.5-.1 1.9-1.2 1.6.3.8 1.2-1.5 1.9-.5 0-.7.2-.6.7-.6l-.2-.1z"/><path class="st7" d="M70.7 58.4c-.5-.4-.1 1.3-.8.3.2 1.1.7.6.8 0-.4-.1-.2-.3 0-.3z"/><path class="st12" d="M71.3 58.8c-.1.7.4-.2 0 0zm-1.3 2c-.3-.1-.3.7 0 0zm2.7.2c-1.3.5-1-3-1.9-1-1.2.5.3 2.2.1.4.6-.8 1.9 2.2 2.2 1.1l-.1-.2-.3-.3z"/><path class="st6" d="M70.7 59.5c-.3.4.5.2 0 0zm12.9-1.2c-.4-.1.8.3 0 0zm3.6.2c-.6-.6-2.1.7-.9.8-.5-.9 1.1-.4.9-.8z"/><path class="st11" d="M93.9 58.3c-.5.4.7.2 0 0zm-24.4 1.8c-.2-.5.4.5.2-.1 0 0-.1.2-.2.1z"/><path class="st6" d="M68.8 60c0 .8 1 .3 0 0zm2.1-1c-1.1.1 0 .5 0 0z"/><path class="st8" d="M79.6 59.2c-.7.2-.3.5 0 0z"/><path class="st9" d="M83.9 58.8c-1.3.1.9.4 0 0z"/><path class="st6" d="M85.6 58.6c-.2.5.7-.8 0 0z"/><path class="st9" d="M92.6 60.8c-.5.1 1.1.7 0 0zm-20.9-2.2c-.5.6.2.9 0 0z"/><path class="st7" d="M78.1 60c-.3.1-2.3.2-2.5-.9-.2.5.7 1.5 1.4 1 .3.4 2.6 0 1.1-.1zm-3.2-1.2c.1.3.7.4 0 0z"/><path class="st6" d="M66.9 59.5c0-1.4-.6 1.6-1.2 1.1.1.9 2.2-1.4 1.2-1.1zm1.7-.4c-.8-.2.1-.7-.8-.3-.3-.2.9.9.6 1.4.3.2-.1-.7.3-.7-.2 0-.3-.3-.1-.4z"/><path class="st7" d="M72.4 59c-.7-.5-.6.8 0 0 .4.5.3.2 0 0zm2.4 0c-.1.2-.1.7-.6.2.3 1-1.7.2-.5 1 .3-.7 1.5-.4 1.1-1.2z"/><path class="st6" d="M79.1 59.1c-.4-.5.9.5.2 0h-.2z"/><path class="st9" d="M79.1 59.1c-.3-.9-.8 2.2 0 .7.2-.1.5-.9 0-.7z"/><path class="st6" d="M83.5 58.8c-.9.2 1.3-.1 0 0z"/><path class="st7" d="M86.7 58.8c-.5-.4.4.8 0 0z"/><path class="st6" d="M86.8 58.8c-.5.1.7.7 0 0zm-22.2 1.5c.3-.5 2.2.3 1.3-.8-.1.1-.6.6-.8.5.1-.8-1.1.4-1-.5-.2.4 0 .7.5.8zm-.5.1c1.1.7-.1-.6 0 0z"/><path class="st7" d="M87.9 59.1c.8-1.1-1.9-1.1-.2-.6 0 1 .8 1.1.7.4l-.3.1-.2.1z"/><path class="st10" d="M71.7 59.1c.2.6.8-.5 0 0zm10.6-.3c-.5-.1.2.5 0 0z"/><path class="st11" d="M87.1 59.1c-2.1-.4.8.7 0 0z"/><path class="st6" d="M86.9 59.4c-2.3.5 1.5.3 0 0z"/><path class="st11" d="M80.4 58.8c0 .7.7 0 0 0zm10.2 1.2c-.3-.1.4.1 0 0z"/><path class="st9" d="M89.6 60.3c.9-.1.1-1 0 0z"/><path class="st11" d="M89.5 60c-.9-.7 0 1.1 0 0z"/><path class="st6" d="M76.2 60.2c-.2-1.1-1.5-1.5-1.7-.6-.8 1.1-1.4 0-1.4-.2.1.8.5 2.4.7.9.5-.3.3-.1.9-.3.4-1.8 1.4.9 1.4.4 0 0 .2-.1.1-.2zm7.9-1c-.6-.3-2.6-.2-1.6.2.6-.3 1.1.9 1.8-.3l-.2.1zm-.8.3c0-.5.6.2 0 0z"/><path class="st8" d="M90.9 59.4c.3.2.5-.5 0 0z"/><path class="st6" d="M90.7 59c-.9.2.2.4 0 0z"/><path class="st7" d="M67.3 59.8c-.9-.3.3 1.1 0 0z"/><path class="st11" d="M84 59c-.3.5.6 0 0 0z"/><path class="st9" d="M82.4 59.1c-.2.4.4.6 0 0z"/><path class="st11" d="M85.4 59.4c-.9.3-.1.5.2 0h-.2z"/><path class="st9" d="M86.2 62.1c.8-.8.6-1.2 0 0zm-2.6 2.4c-.8-.7-.1.6.1 0h-.1z"/><path class="st6" d="M84.1 62.7c-.7.4.4.3 0 0z"/><path class="st9" d="M84.5 60.5c0 .9-.5 1.7-1.2 1-.1.4.6.6.9.9.3-.6.2-1.3.3-1.9zm.4 1.1c-1 .6.2.9 0 0zm-17.3-1.4c-.3.4.4.1 0 0z"/><path class="st11" d="M82.2 59.8c-.5-.6-.4.2 0 .2v-.2z"/><path class="st6" d="M82.1 59.9c-.2-.8-1-1-.3 0-.1.4.7.3.3 0z"/><path class="st9" d="M71.7 59.4c-.3 1 .7-.7 0 0zm1 1.2c-.5-.2.3.6 0 0zm.8 1.2c-.1-.6-.4-2.6-.3-1 .1 0 .2 1.7.3 1zm2.1-2.3c0 .8.5 1.2.2.2l-.2-.2z"/><path class="st6" d="M79.9 62.9c-.3-.4.1.6 0 0z"/><path class="st9" d="M79.6 63.6c-.6-.4-1.5.5-.4.2.2 1.3-.2-.6.6-.2.3-.5-.2-.1-.2 0zm-1.9-1.1c-1.2.5.9.1 0 0zm-.1 1.2c-.5-.3-.5-1.1-.4 0 .1.2.7.3.4 0zm-1.4-.7c-.6.5-.3 1.2-.1.1.3.3.4 0 .1-.1zm-3.3-.4c-1.1 0 .7.5 0 0zm1.9-2.8c.6-.5.2-.7 0 0z"/><path class="st10" d="M65.4 59.2l-.1.1.1-.1z"/><path class="st11" d="M70.6 59.4c-.5-.4.2 1 0 0z"/><path class="st6" d="M82.8 59.9c-.6-.4-.2 1 0 .2-.1 0-.1-.2 0-.2z"/><path class="st9" d="M84.3 59.3c-1 .3.4.4 0 0z"/><path class="st12" d="M67.9 65.6c1.1.4-.4-.8 0 0zm1.3 3.3c-.2-.1 0 .1 0 0zm1.2-1.2c1.5.5-.3-3-.3-1.1-1.4-.9-.2 1.6-.6 2.3.8.1 1.3-.4.9-1.2zm-.4.1c-.6.4-.1-.5 0 0zm-1 4.9c-1.6-.6.3-.6.4-1.1-.6-.4-3-.3-.9-.7.6 0 2.1-.4.7-.7.1-.2.6-.8-.4-.8-1.4 0 .8-.6 0-1.5-.4-1-.3-2.4-.6-3.1.7 1.4-1.1.8-1.2 0 .6.1 1.6.3.6-.4-1.3.5-.8-2.4-1.6-2-.2-.7.5-.4-.5-.7-1.6-.9-1.7 1.7-.9 2.1.8-.1 1.8.6 1 1 .4.5 1.6-.6 1.1.5 1.6.2 2.4 3.3 1.3 3.1.4-.8-1.7-.9-.4-1.1-1.1-.1-.3-1.8-1.1-.9.1.5-.7-1.6-.8-.4l.3.5c-.9.7-.6-1.9-1.1-2-.7-1.5-.9.5-.7 1.2.1 1.6 0 2.8 0 4.3.1 1.2-.5 2.9 1.2 2.5 1.1.2 2.4.6 3.6.2zm.4-.9c-1.2.2-1-.6 0 0zm-4.7-10.1c.7-.1.1.6 0 0zm1 .2c.4.6-.6-.3 0 0zm.5 1.9c-.4-.3.2-.5 0 0zm1.8 6.6c.6 0 0 .5 0 0zm0-.4c-.2-.3-.1-.7 0 0zm0 2c-.7.4-1.1-.4 0 0zm-1.6-4.8c.3 0-.1.4 0 0zm1 1.8c.6-.7 0 2-.9.8-1.2-.4.4-1.2.9-.8zm-2.8-2.6c.6.2-.2.5 0 0zm-.1-2c.2-.5.3.3 0 0zm.1.6c.7-.1-.2-.8 0 0zm1.8.6c.4-.5 0-.2 0 0zm-1.9-1.8c-.2-.6-.8.2 0 0zm1.9 2.1c-.2.2.4.2 0 0zm.6.4c.5.6.4 0 0 0z"/><path class="st6" d="M75.2 59.5c-.6.1 0 .3 0 0z"/><path class="st11" d="M80.4 59.4c-.7.1.2.9 0 0zm2.5.4c-.4.2.7.1 0 0zm1.6-.4c-1.1.5-.3.3.4.1l-.4-.1z"/><path class="st9" d="M88 60c-.3-.7-1.8-.2-.8-.1.3-.7.1 1.4 1 .7.2 0 0-.5-.2-.6z"/><path class="st6" d="M72.7 59.4c-.6.2-1.1.4-.7.6.3.4.7.4.4-.1l.2-.3.1-.2z"/><path class="st9" d="M91.1 60.2c-.7-.7-.1 1.5-.2 0 .1.1.4.5.2 0zm-.3-.7c-.2.7 1.1.1 0 0z"/><path class="st10" d="M84 59.7c.4 0 .3-.5 0 0z"/><path class="st8" d="M64.7 59.9c.6.6.5-.1 0 0z"/><path class="st6" d="M80.1 59.6c-.9 0-.8 1.8-.3.3.4-.3 0 1 .3 0 .1-.1.4-.5 0-.3z"/><path class="st9" d="M79.6 60.2c.6-.3.2-.8 0 0z"/><path class="st10" d="M81.9 59.8c.1.3.5-.1 0 0z"/><path class="st9" d="M87.7 61.8c.4.1-.1-.5 0 0z"/><path class="st6" d="M91.4 60.4c-.7-.5.6 2.1.1.5 0-.1-.2-.3-.1-.5zm-.3-.5c.1.6.7-.3 0 0z"/><path class="st11" d="M83.8 60c-.7.6.2 1.2 0 0z"/><path class="st7" d="M86.8 59.8c-.4.2.6.1 0 0z"/><path class="st11" d="M78 60.8c-.7-1.1-.4 1 .1-.1.5-.6-.3-.4-.1 0v.1zm-.6-.7c-.6.8.8 0 0 0z"/><path class="st10" d="M82.9 59.9"/><path class="st7" d="M64.7 60.6c.7.5 1.2 0 1.6-.5-.9.1-1.6.2-2.1.1l.5.4zm.6.1c.1-.9 0 .2 0 0z"/><path class="st11" d="M72.5 60c-.6.3.3.3 0 0z"/><path class="st6" d="M78.6 60c-.6.6-.7 1.5-.1.4l.1-.4z"/><path class="st9" d="M82.6 61.5c-.3.9.4.5 0 0z"/><path class="st6" d="M88.1 60c-.1-.2.5 1.1.1.1l-.1-.1z"/><path class="st11" d="M76.2 60.2c.5.2.5-.6 0 0zm-.3 1c-.8-.7.8 1.6.2.1l-.2-.1zm12.4-1.2c0 .6 1.3.2 0 0zm-14.9.8c.1.6.6-.5 0 0z"/><path class="st9" d="M79.8 61.1c-.2-1.3-.7 1-1-.2-.8.8 1 .9.6-.1 0 .3.9.2.4.3z"/><path class="st11" d="M88.9 61c-.7-.8-.8.1.1.2l-.1-.2z"/><path class="st6" d="M67.3 60.6c-.4.2.4.5 0 0z"/><path class="st9" d="M71.3 60.4c-.3.9.2.2.3.5 0-.2-.1-.5-.3-.5zm0 .8c-.3.2.3.5 0 0zm6.7-.3c.1.9.9-.2 0 0z"/><path class="st6" d="M69.8 60.3c-.7.4.8.1 0 0zm20.9.4c0-1.1-1.2 1.1-.2.2.5 0-.1 1.2-.1.3-1.3.5.3.4.5 1.1-.7-.8.7-1.8-.2-1.6z"/><path class="st8" d="M91.6 60.8c.5.8.6.5 0 0z"/><path class="st11" d="M74.1 60.6c0 1 .8-.6 0 0z"/><path class="st10" d="M80.4 60.8c-.3.4.5.4 0 0z"/><path class="st6" d="M84.2 60.5c-.4.5-1.2-.1-.5.7.4 1.6-.4-.7.7-.5-.5 1 .6-.6-.2-.2z"/><path class="st8" d="M83.7 61c-.1.2 1.1.1 0 0z"/><path class="st11" d="M83.6 60.8c-.6-.1.4.8 0 0z"/><path class="st12" d="M84.6 60.6c-.3.9.5.6 0 0z"/><path class="st11" d="M78.4 61.3c-1.2-.7.4 1 0 0z"/><path class="st9" d="M89.3 60.5c-.9.4.1.8 0 0z"/><path class="st7" d="M91.7 61.4c-.1-1.3-.6.8 0 .1.1.8.5-.6 0-.1z"/><path class="st6" d="M80.2 61c-.9-.5-1.4 1.1-.6.3.1-.1 1 0 .6-.3zm2.4.5c-.9 0 .1 1.2 0 0zm-.2.3c0-.4.5 0 0 0zm10-.9c-1.3 1 .6.7 0 0z"/><path class="st9" d="M88.4 61c-.4.4.2.6 0 0zm1.6.7c-.1-.7-1.3.1-.5.3-.8.4-.3.4.2 0 .4-.9.7 3.1.7.8-.1-.4-.3-.8-.4-1.1z"/><path class="st6" d="M78.6 60.9c-.6 1 .5-.1 0 0zm4.7.1c-.6-.3-.2.5 0 0z"/><path class="st7" d="M91.1 61.9c-.8-.2.5-.6-.3-.9-.1.7 0 2.8.2 1.2l.1-.3z"/><path class="st8" d="M90.9 60.8c-.2.7.4.3 0 0z"/><path class="st11" d="M79.3 61.5c1.3-.1 1-.6 0 0z"/><path class="st6" d="M71.5 60.9c-.4.5.7.8 0 0z"/><path class="st7" d="M84 61.3c-.4-.9.1 1.3 0 0z"/><path class="st6" d="M88.9 61.3c-1.2-.7.1 1 0 0z"/><path class="st7" d="M69.2 61.2c.5.4.5-.5 0 0z"/><path class="st11" d="M66.4 61.4c.4.5.4-.4 0 0zm1.1-.2c-.9-.2.3.7 0 0z"/><path class="st10" d="M67.5 61.4c.6.3.1-.4 0 0zm1-.3c-.8-.7-2.3.4-.8 0 .3-.1.6 0 .8 0z"/><path class="st6" d="M87.2 61.2c-.6-.6.2 1.4 0 0z"/><path class="st8" d="M87.3 61.8c-.4-.6-.9-.1-.2-.1-.1.1.4.6.2.1z"/><path class="st7" d="M71.3 61.2c-.1.7.7 0 0 0z"/><path class="st6" d="M86.4 62.1c.5-.9-.7 2.1.1.5.1-.1.1-.4-.1-.5zm2.3.7c0-.9-1.8-1.6-1.3-.1.3 1.5-.2-1.5.6-.4-.1.4-.4.7.3.3.7-.3-.3 2.1.5.7 0-.1.1-.4-.1-.5z"/><path class="st9" d="M87.5 64.1c.1-.5-.2-3.2-.2-2.3-.2 1.3 0 2 .1 3.3.2-.3.1-.7.1-1zm-.1-1.5c-.4.1.1-.5 0 0z"/><path class="st11" d="M69.4 61.4c.3.6.8-.2 0 0z"/><path class="st9" d="M70 61.5c.5 0 0-.5 0 0z"/><path class="st6" d="M85.3 62.2c-.6-.5-.2.2 0 0zm-4.6-.4c-1.1-.7-.3.2.3.4l-.1-.2-.2-.2zm-1.3 0c0 .7.4-.2 0 0z"/><path class="st9" d="M81.2 63.3c.1-.7-.3-.8 0 0zm-.2-1.3c-.9-.9.3 1.2 0 1.9v-1.9z"/><path class="st7" d="M87 61.8c.2 1.1-1-.7-.5.6.4.5 1-.2.5-.6z"/><path class="st11" d="M73.5 61.8c.2.5.4-.7 0 0z"/><path class="st6" d="M83.6 62.1c-.7-1-.1 2.1.4.4.2-.3-.1-.6-.4-.4zm-.1.8c-.4-1.1 1.4-.6 0 0zm1 1.7c-1.3.8-2.1-2-3.2-.4-.8 1.2 2 2.2-.1 2.3-.5.1 2 0 .7-.8-.8-.4.4-.5-.6-.7.4-.1-.2-1.1.6-.4 1 .1 2.4.1 3.2.3-.9.6 1.1-.1-.2-.4l-.4.1zm-2.7-.1c-.4-.7 1-.2 0 0zm.7-.1c.1-.8.5.1 0 0z"/><path class="st11" d="M69.6 61.9c.5.7.6.2 0 0zm-1.2-.1c-.7.3.8.4 0 0z"/><path class="st9" d="M90.7 62.5c.1-1.3-.4.4 0 0z"/><path class="st11" d="M79.6 61.9c-.1.8.9.3 0 0z"/><path class="st7" d="M80.3 62.9c-.2-.4.7 1.1 0 0z"/><path class="st10" d="M87.8 62.2"/><path class="st6" d="M90 61.6c-.2 1 1.2 1 .1.3l-.1-.1v-.2z"/><path class="st11" d="M76 62.2c-.2-.8-.3.4 0 0z"/><path class="st6" d="M73.2 63.7c.7-.7-.8-1.2-.7-1.4.2.8-.9.7-.4 1.3-.2-1 .6.6.7-.6 1.1.1-.4 1.4-.5 1 .6.6 1-.1 1.1.3 0-.2-.1-.4-.2-.6zm-.7-.2c-.4-.1.2-.4 0 0z"/><path class="st9" d="M78.4 62.3c.2.7.6-.5 0 0z"/><path class="st7" d="M83.6 62.2c-.4 1.7 1-.3 0 0z"/><path class="st6" d="M79.5 62.2c-.1.5.6.1 0 0z"/><path class="st9" d="M80.2 62.7c-.6-.9.2 2.5 0 .3v-.3z"/><path class="st6" d="M78.1 62.5c-.1.2.2.6-.2.9.6.7.8-1.2.2-.9zm2.2.9c.2-.7-.4-.9 0 0z"/><path class="st11" d="M83.4 62.4c-.1.6.6-.1 0 0z"/><path class="st6" d="M85.4 63.7c.2.5.1 2.4 0 1.1.1-.4.6-.9 0-1.1z"/><path class="st7" d="M85.8 62.7c-.6.3.8.9 0 0zm1 .7c-.1-1.6-1.2 1.2-.5-.1.4-.3.8 1.8.6.2l-.1-.1z"/><path class="st9" d="M83.4 62.6c-.9 0 .7 1 0 0z"/><path class="st6" d="M81.4 63.2c-.1-1.5-.3.9 0 0z"/><path class="st9" d="M85.4 63.7c.3-.9-.2-1.5-.2-.4-.6-1.8.4 1.7.2.6v-.2z"/><path class="st6" d="M77.5 63.4c-.2-1.6-.5 1 .2-.2l-.2.2zm-1.2-.1c-.2-.3-.7 1.4-.6.1-.5-1.7-.7 1.6.1.8.6.3.6-.6.5-.9zm-1 .4c-.3-1.2.9-.2 0 0z"/><path class="st11" d="M75.6 64.2c.3-.4-.5.1 0 0z"/><path class="st6" d="M74.8 63.4c-.5 1 .7.7 0 0z"/><path class="st9" d="M75.3 62.9c.1.7-1.2.7-1 .7-.3-.9.2 1.1.3 0 .7.3.6-.2.7-.7z"/><path class="st7" d="M77.5 62.9c-.1.9.4-.2 0 0zm8.5 1c-.3-.3-.5.2 0 .3l.1-.1-.1-.2z"/><path class="st9" d="M73 63.4c.1-.8-.4.1-.4-.4-.1.4.8 1.3.4.4z"/><path class="st6" d="M79.9 63.3c-.7.4.3.3 0 0z"/><path class="st10" d="M64.7 63.3c-.9.3.5.1 0 0z"/><path class="st6" d="M81 63.5c0 .4-.8.5 0 .6.1-.2 0-.4 0-.6z"/><path class="st9" d="M81.3 63.7c-.2-.3-.3 1.8.2.6-.9-.4.7-.4-.2-.6z"/><path class="st6" d="M79.6 63.7c-.6-.8-.1 1.7 0 0zm-8.6.2c-.6.4.6 0 0 0zm5.8.7c-1.2.2.5.2-.4.4.8.3.6.1.4-.4z"/><path class="st11" d="M79.2 64.3c-1.2-.2.2 1.2 0 0z"/><path class="st6" d="M80.3 64.4c-.2-1.4.2 1-.2-.2.1.6-.6.9-.9.2 0 1.2-.9-.8 0-.2-.3-1.7-3.2 1.4-1.6 1 .8-.7-1 0-.1-.6 1.2-.2.4.9 1.6.6.9.5 1.3-1.3 1.9-.2.1-.9.1-.3-.7-.6zm-2.2.1c-.4-.8 1.3-.6 0 0zm.5 0c.3.1-.3.5 0 0zm-.2.5c.5-.4.4.3 0 0zm.6.2c.2-.6.7 0 0 0z"/><path class="st7" d="M78.6 63.8c-1.3.2.5.9 0 0zm-.3.4c0-.3.5-.2 0 0z"/><path class="st11" d="M85.3 64.9c-1.3.2-2.9-.5-3.9-.2.6.3-.4.5.4.6-.6 1.2 1.6-.8 1.3.3-.4-.2 2.1-.1 2.1-.3l.1-.4zm-3.1 0c0-.4.5.1 0 0zm2 .2c.3-.6.9.1 0 0zm-13.2-.5c-1.4 0 1 .6 0 0zm1.4-.1c.5-.8-1.3.1.1 0h-.1z"/><path class="st6" d="M74.1 64.5c.2-.8-.6-.4-.2-.2-1.2 0 1.1.7.2.2z"/><path class="st12" d="M67.4 63.9c-.6.6.7.3 0 0z"/><path class="st10" d="M71.2 64"/><path class="st11" d="M71.4 64.1c-.4.5 1.1.3 0 0z"/><path class="st9" d="M73.8 63.9c-.7.5.1.6 0 0zm8 .2c-.4.8.9 0 0 0z"/><path class="st10" d="M72.4 64.3c.5.6.2-.5 0 0zm.2-.1c.2-.1-.6-.1 0 0z"/><path class="st11" d="M70.3 64.2c.1.8 1-.3 0 0z"/><path class="st10" d="M85.8 65.4c.7.5.7-.9 0 0z"/><path class="st11" d="M64.2 65.3c.1-.8-.4-.1 0 0z"/><path class="st6" d="M73.1 65.8c-.3.8.9.9 0 0z"/><path class="st11" d="M78.8 65.1c-.9.3-.8-.2-.7-.5-1.2 0-.9.3-.4.5-1 .7 1.2-.1.2.7 1.2-.4.3.9 1.3.6.4.8 1.5-1.6 0-1l-.2-.1-.2-.2zm-.6.3c.1-.4.4.2 0 0zm.5-.2c.6-.1-.2.5 0 0zm-.1.4c.3-.3.5.4 0 0zm.5.7c-1.1 0 0-.9 0 0zm.5-.3c-1.4-.6 1.2-.5 0 0z"/><path class="st9" d="M85.3 64.7c-.2.9.4-.2 0 0z"/><path class="st11" d="M73.1 65.2c-.5-.7.2.2 0 0z"/><path class="st6" d="M71.7 69.5c-.2.7.6.6 0 0zm-3.1-.3c-.6-.3-.1.5 0 0z"/><path class="st9" d="M71.5 68.2c-.4-1.5.3 1 .1-.1l-.1.1z"/><path class="st6" d="M71.3 67.8c0 .7.5.2 0 0zm-.4-2.5c-.6.2.8 2.6.2.6-.1-.2-.2-.4-.2-.6z"/><path class="st9" d="M85.3 65.2c-.4 1.2.5.4 0 0zm1.5 0c-.8.5 1.4.4 0 .2-.1 0 .3-.3 0-.2z"/><path class="st6" d="M69.2 67c0-.8-.1-1.8-.2-.4-.1.8.4 2.5.2.7v-.3z"/><path class="st10" d="M83.6 65.6c-.2.3.4-.1 0 0zm-1 .9c-.2-.4-.7.3 0 0zm.3-.3c-.4-.3 0 .6 0 0zm2.3-.9c-.7.1-2.5 1-2 0-.9-.4-2.1.9-.5.7 1.5-.2.7.7-.3.6-.7.4 1.5-.2 1.9-.2 0 .4.4-.5 1.2-.4.5-.2-.3-.6-.3-.7zm-2.6.6c-.3-.3 0-.4 0 0zm1.3.3c.3-1 2-.4.4-.1-.1.1-.3.1-.4.1z"/><path class="st11" d="M82.5 66.2c.5-.2-1.1-.2 0 .1.6.2.1-.2 0-.1z"/><path class="st6" d="M73.6 66c-.4.5.4.8 0 0z"/><path class="st10" d="M79 65.5c.4.8 1.3-.1.1.1l-.1-.1z"/><path class="st9" d="M69.2 67.7zm0 .7c-.2-1.5-.4.2 0 .5v-.2c.1 0 0-.3 0-.3zm4.3-1.5c-.1-1.2-.2.9.2.5 0-.1 0-.5-.2-.5z"/><path class="st6" d="M80.2 66.4c-.4-.6-1.9.9-.3.3 0 0 .8-.3.3-.3zm-.2.1c-.1-.4.5.1 0 0z"/><path class="st12" d="M77.2 68.9c-.8-.5-4-1.4-2.5.4.5.3 1.9.1 1.3-.7.3 1.1 3.2 1.5 1.5.2.1-.1-.3.1-.3.1z"/><path class="st10" d="M81.4 66.9c1 .1 0-.6 0 0zm.5-.2c-.1-.1-.4.1 0 0zm-1 .1c-.2 0 0 .3 0 0zM64 73.4c.1.1.1-.1 0 0zm6.3.5c.3.3.2-.3 0 0zm11.9-3.9c1.2-.2 1.1-.8 0 0zm-3.4.3c1.3-.1 1.1-.5 0 0zm-12.7 3.9c-1.5.9 3-.5 1 .4-.7.1-3.2.3-1.2.5.6-.2 1.6-.3.9.4.5.7 2.6-.5 1.1-.4.3-.7.7-.5.8-.6 1.1-.5 1.8.6 2.9-.2.6 0 1-.7.2-.8.4-.4 3-1.1 1.9-.1 1.2.6 2-.9.4-.9-1.6-.2.9-.5 1.2-1.1 1-.2 2.7-.6 3.2-1.2-.9.1-2.3-.2-2 .2-1.3-.7-1.6 1.2-3 .7-1.4 0-.9.5.1.8-.3.1-2.7.1-1.3.5.9-.1 2.5.5.7.4-3 .2-5.7.1-8.4.2.8.7-1.1.1-.2.6-1.3 1.3 1.2.7 1.7.6zm1.1.8c.2-.8.8 0 0 0zm3.7-.7c.2-.4.5.3 0 0zm.5-1.1c-.1.4-.8.2 0 0zm-.8.3c1.4.2-.5.3 0 0zm-.3.4c.8.2-.9.9 0 0zm-.9 0c0 .7-.8-.1 0 0zm-1.2.1c.6-.1 0 .4 0 0zm-1.1.2c-.1-.5.3 0 0 0zm-.3 0c-.8 0-.1-.6 0 0z"/><path class="st11" d="M81.3 68.1c-.7-.3-1.5-.1-.3.3.1.1.3-.1.3-.3zm-14.4 1.2c1.2.2-.3-.7 0 0z"/><path class="st13" d="M83 69.4c1.1-1.1-2.6 1.1-.4.4.7-.2 2-.7.5-.4h-.1z"/><path class="st11" d="M81.8 69.5c1.2 0 .7-.6 0 0zm1.5.6c-.2.6-1.2.3-.9-.1-.8 0-.8-.1-.9.5-1.1-.3 2.2.6 1.8-.4zm-13.6-.8c-.9 0 .1.5.2.1l-.2-.1zm13.7.3c-1.1.5 1.2-.4 0 0zm-8.3.4c.1.5.5.9.2.1.4.4 1.4.8 1 .1 2.2-.1-.6-.1-1.2-.2zm1.2.5c-.2.3-.3-.4 0 0zm-2.4.4c.1 0 0-.1 0 0zm-.3-.4c-.7.6.9.3 0 0zm1.7.2c-.6.7-.8-.1-1.4.2.3.4 2 .6 1.4-.2zm-2.9.6c.5.2.9-.2 0 0zm6-1.1c-1-.3-.9.1 0 0zm.2.1c.6.2 1.1-.2 0 0z"/><path class="st13" d="M64.1 74.5v.1-.1zm.4.8c-.6-.5-.5.3 0 0zm.7-.2c-1-.4.9-.7.9-.3.7.1 2.4-.8.7-.5-.3.1-1.9.3-1-.2-.8.2-2.6 1-.6 1z"/><path class="st11" d="M64.5 73.3c.5.5 0-.9.7-.1.7-1.1-2.2.2-.7.1zm2.5-.1c.6 0-.3-.5 0 0zm.4-.1c.6.1 2 0 .6-.2-.1.1-.4.3-.6.2zm1.9-.3c-.5.7 1.1 0 0 0z"/><path class="st9" d="M68.1 70.8c-.8.1.3.5 0 0z"/><path class="st10" d="M75 75c-.7-.2 0 .4 0 0z"/><path class="st7" d="M71 57.1c-.6 0-2.8.1-1.1.2.3 0 1 .1.4-.2.2 0 .5.1.7 0z"/><path class="st6" d="M95 57.5c-.5.3.2.7 0 0z"/><path class="st8" d="M71.5 58.1c-.5.3.6.3 0 0z"/><path class="st11" d="M67.3 58.4c-.7-.1.7.6 0-.2v.2z"/><path class="st6" d="M70.9 58.5c-.8-.4 0 1 0 0z"/><path class="st9" d="M84.2 58.4c.1.8.5-.7 0 0z"/><path class="st7" d="M80.3 58.5c-.7.2-1.7.2-.5.8-.3-.7 1.1-1.2.5-.8z"/><path class="st8" d="M83 59c.4.5.7-.4 0 0z"/><path class="st10" d="M90.9 59c.3-.1-.7-.1 0 0zm-23.3.4c.2-.7-.6-.2 0 0z"/><path class="st11" d="M87.8 59.4c-.3.6.7-.5 0 0z"/><path class="st6" d="M70.1 59.2c-.5.8.7.2 0 0z"/><path class="st11" d="M70.2 59.6c-.9-.2-.4.8 0 0zm20-.1c-.7 0 .7.6 0 0z"/><path class="st10" d="M92 60c-.9-.2.8.4 0 0z"/><path class="st7" d="M76.7 60.2c-1.4 0-.2.8 0 0z"/><path class="st11" d="M76 60.4c-.1.3 1-.1 0 0z"/><path class="st9" d="M74.9 60.5c-.8-.1.3.4 0 0z"/><path class="st7" d="M73.7 60.7c.6.1-.2-.4 0 0zm14.9-.3c-.9-.4.8.9 0 0z"/><path class="st6" d="M82.1 60.6c-.1.4.3-.2 0 0z"/><path class="st8" d="M71.4 60.6c-.6.3.5.5 0 0z"/><path class="st11" d="M67.4 61c.1.5.7-.4 0 0z"/><path class="st6" d="M69 60.8c-.6.4.2.4 0 0z"/><path class="st7" d="M84.4 60.6c-.7.9 0 1 0 0z"/><path class="st8" d="M92.7 61c-.8.2.5.5 0 0zm-8.7.3c-.3.2.4.6 0 0z"/><path class="st9" d="M91.3 61.2c-.5-.4.4 1.3.2-.2h-.1l-.1.2z"/><path class="st11" d="M81.4 61.5c.3-.2-.6-.1 0 0z"/><path class="st10" d="M77.5 61.5c0 .7.4-.5 0 0z"/><path class="st7" d="M82.4 61.8c.5 0 0-.5 0 0z"/><path class="st8" d="M83.3 61.7c0 .5.6-.1 0 0z"/><path class="st7" d="M80.3 61.9c-.1-.6-.6.6-.5-.5-.9-.2.4 1.5.7.5.5 1.1.5-.3-.2 0zm-.7-.1c-.2-.7.6-.1 0 0z"/><path class="st10" d="M68.7 62z"/><path class="st7" d="M91.9 61.9c-.8-.3-.3.6 0 0z"/><path class="st6" d="M84.3 62.3c.3-.2-.3-.5 0 0zm-5.6.2c-.6.7.8-.2 0 0z"/><path class="st12" d="M77.2 61.7c-.4 1.5 1.4 1 0 0z"/><path class="st6" d="M86.1 62.7c-1.1-.8-.4.8 0 0z"/><path class="st7" d="M77.9 62.6c-.2.9.8 0 0 0z"/><path class="st6" d="M82.8 62.6c.1.8.6 0 0 0z"/><path class="st11" d="M86.9 62.5c-.9.3.2 1.2 0 0z"/><path class="st9" d="M72.1 63c.1.6.5-.6 0 0zm14.2-.5c-.8-.3 0 1.6 0 0z"/><path class="st7" d="M73 63.1c-.2.8.4.2.1-.1l-.1.1zm-.3 0c-.4.4.7.2 0 0z"/><path class="st6" d="M74.4 63.4c-.1-1.2-.2 1 0 0z"/><path class="st7" d="M76.1 63.1c-.1.6.4.3 0 0z"/><path class="st11" d="M76.2 63.9c.4.3.3-.6 0 0z"/><path class="st7" d="M80 64.2c-1-.8.3.8.1-.4l-.1.4z"/><path class="st9" d="M77.4 64c-.5-.1.2.6 0 0z"/><path class="st7" d="M73.8 64.2c.2.8.4-.7 0 0z"/><path class="st10" d="M79.7 64.2c-.6-.2.2.7 0 0z"/><path class="st11" d="M80.1 64.2c-1.1-.1-.5 1.2 0 .3-.5-.1.1-.1 0-.3zm-3.9.7c-1.4.1 1.6.1 0 0zm4.8-.2c-1.6-.2-.3.9 0 0z"/><path class="st10" d="M77.8 65.6c.9.5-.2-.9 0 0zm.9.3c-.2.7 1 0 0 0z"/><path class="st9" d="M80.6 66.4c-.1.5.6-.2 0 0z"/><path class="st6" d="M71.2 67.1c-.2.8.5.4 0 0zm2.5.6c0 .8.5.2 0 0z"/><path class="st12" d="M104 67.6"/><path class="st6" d="M69.2 69.2c-.8.2.3.3 0 0z"/><path class="st10" d="M74.8 70.8c.3.3.4-.4 0 0z"/><path class="st11" d="M69.9 71.1c.7.2.7-.6 0 0zm2.1 1.5c1-.2 1.8.2.3.2-.8 0-2.8.4-1 .2.8.1 3.4-.4 1.4-.6-.4-.1-2 0-.7.2z"/><path class="st10" d="M86 64.6h.1-.1zm-3.1 2.6c-.4.9.7.3 0 0zm-14.4-8.8c-.3-.6 0 .6 0 0zm-2.4.7c-.5.8.5.8 0 0z"/><path class="st11" d="M82.1 59.1c-1.1 0 .4.6 0 0zm4.8.9c-.7-.9 0 .8 0 0zm-6.2 4.4c-.3-.9-.6.8.3-.1l-.3.1zm-.4 0c.2-.8.8.3 0 0zm-3.7.7c0 .7.7-.5 0 0z"/><path class="st10" d="M73.9 70.7c-.2.5.9-.6 0 0z"/><path class="st11" d="M72.9 70.7c-1 .6-1.2-.9-1.7 0 0 .2 2.8.9 1.7 0z"/><path class="st8" d="M77.7 62.9c-.6.4.7.2 0 0z"/><path class="st9" d="M78.5 59.5c-1.5-.4 1 .8 0 0zm.2 2.1c-.4.7.6.1 0 0z"/><path class="st7" d="M82.3 58.8c-1.2-.5-.4.9 0 0zm8.7.2c-1.5.6.2.8.2 0h-.2zm-1.4.3c-.3-.5-.9-.7-.2 0-.7.1-.7.4-1.1.7.8.5.9-.1 1.3-.4v-.3zm.8 2.3c-1-.1.5 1 0 0z"/><linearGradient id="SVGID_4_" gradientUnits="userSpaceOnUse" x1="68.616" y1="36.31" x2="68.616" y2="36.31" gradientTransform="matrix(1 0 0 -1 .028 94)"><stop offset="0" stop-color="#fff"/><stop offset=".266" stop-color="#4EC7FD"/><stop offset="1" stop-color="#09f"/></linearGradient><path class="st14" d="M68.6 57.7c-.3.1.7.6 0 0z"/><linearGradient id="SVGID_5_" gradientUnits="userSpaceOnUse" x1="68.385" y1="35.048" x2="68.385" y2="35.048" gradientTransform="matrix(1 0 0 -1 .028 94)"><stop offset="0" stop-color="#fff"/><stop offset=".266" stop-color="#4EC7FD"/><stop offset="1" stop-color="#09f"/></linearGradient><path class="st15" d="M68.4 59c.5.2.2-.4 0 0z"/><linearGradient id="SVGID_6_" gradientUnits="userSpaceOnUse" x1="69.991" y1="35.048" x2="69.991" y2="35.048" gradientTransform="matrix(1 0 0 -1 .028 94)"><stop offset="0" stop-color="#fff"/><stop offset=".266" stop-color="#4EC7FD"/><stop offset="1" stop-color="#09f"/></linearGradient><path class="st16" d="M70 59c-.1.4.5 0 0 0z"/><linearGradient id="SVGID_7_" gradientUnits="userSpaceOnUse" x1="91.944" y1="34.015" x2="91.944" y2="34.015" gradientTransform="matrix(1 0 0 -1 .028 94)"><stop offset="0" stop-color="#fff"/><stop offset=".266" stop-color="#4EC7FD"/><stop offset="1" stop-color="#09f"/></linearGradient><path class="st17" d="M92 60c1 .3.3-.4 0 0z"/><linearGradient id="SVGID_8_" gradientUnits="userSpaceOnUse" x1="66.952" y1="34.072" x2="66.952" y2="34.072" gradientTransform="matrix(1 0 0 -1 .028 94)"><stop offset="0" stop-color="#fff"/><stop offset=".266" stop-color="#4EC7FD"/><stop offset="1" stop-color="#09f"/></linearGradient><path class="st18" d="M67 59.9c0 .4.4-.1 0 0z"/><linearGradient id="SVGID_9_" gradientUnits="userSpaceOnUse" x1="77.844" y1="33.957" x2="77.844" y2="33.957" gradientTransform="matrix(1 0 0 -1 .028 94)"><stop offset="0" stop-color="#fff"/><stop offset=".266" stop-color="#4EC7FD"/><stop offset="1" stop-color="#09f"/></linearGradient><path class="st19" d="M77.9 60c.1.6.5-.3 0 0z"/><path d="M87.5 62.3c.4 0 0-.5 0 0z"/><path class="st7" d="M74.5 63.8c.8.5.1-.9 0 0zm-1.3.2c-.7.4.6.5 0 0zm10.2-5.8c-.4-.5 0 1.4.3.3-.1-.1-.4-.1-.3-.3zm-11.3 4.9c-.4.4.5.3 0 0zm-5.1-2.8c-.4.4.7.5 0 0z"/><path class="st20" d="M71.4 58.8c-.5-1.3-.4 1.3-1.1 1.3.9-.1 1.4-1.5 1.1-1.3zm-3.1 1.4c-.2-.8-.2-1.4-.7-.4-.3.7.9 1 .9 1.4.8.1 0-.9-.2-1zm.3.9c-.7-.6.4-.3 0 0zm13.7-1.9c-.7.7.5.6 0 0zm7.3 1.1c.4.4.4-.7 0 0zm-7.2-.1c-1.2-.4.5.6 0 0zm8.4 0c-.1.7.6.1 0 0zm-23.2.3c-.7.2.3.6 0 0zm16.2.3c.5.2.2-.6 0 0zm-10.7-.1c0 .8.4-.1 0 0zm.6.3c-1.3.4.4 1.1 0 0zm8.5.6c.2-.5-.4 0 0 0zm-14.6-.1c-.5.3.5.4 0 0zm-2.9.2c.1.6.7-.1 0 0zm.8.4c.6.2.1-.7 0 0zm6.2.8c-.2 1 .6.5 0 0zm-5.6.6c-.1.4.5.2 0 0zm-1.6.7c-.3.6.7 0 0 0zm1.6.1c-.5.2.4.5 0 0zm5.2.4c-.3.6.6.2 0 0zm3.1 0c.2.4.8-.2 0 0zm.7.9c.7.4.1-.7 0 0zm-7.4.1c.6.4.5-.8 0 0zm6.4.7c.6.4.1-.6 0 0zm-9.5 0c-.2.5.6.2 0 0zm13.6.1c-.2.3.4.2 0 0zm-3.9.3c.4 0 0-.5 0 0zm6.2-.2c-.3.7.4 0 0 0zm-5.3.2c0 .6.5-.1 0 0zm-8.8.4c-.1.4.5.1 0 0zm11.9.9c-1.4.3 1.6.7 0 0zm1.6 1c.7.3.4-.5 0 0zm-11.9 1.3c.3.5.2 0 0 0zm.4 1.3c1.3.4 1-.5 0 0zm-1.2.3c.9.4.7-.3 0 0zm26.6-14c-.8.8.9-.4 0 0zm-12.9.8c-.4-.2.7.2.2-.2-.1.1-.1.3-.2.2zm-1.1 4.2c-.3-.7-1.1-2.3-1.5-1.1-.9.3-.7-.8-.5-.6-1-.1-.5-.4-.7-.8-.3.3-1.1 2.8-1.4 1 .7-1.3-.7-2.9-1.2-.9l.2.4c-.6 1.4-1.3 1-1.8-.2-.6-.1-.7-.8-1.5-.9 1-1.1-.5-.6.1.3.6.4 1.7.9 1.6 1.5-.8.3-1.8-1.5-1.1-.1.4.2 1.7.5.6.9 1.3.1.7 2.2.9 2.4 0-.6.7-1.5.7-.4 1.1.1-.9-2.3.3-1.1.2-.6.7-4 1-1.9 0 .8-1.2 2.8 0 1.4.4.2.1 1 .7.3.9.3.5 3.3 1.1 1.4 1.1-.1.7-1.8.2-.4-.7.1.1-2.3-.1-2.3l1.6 1.1c-1 .9.2.9 1 .3l-.2-.3zm-2.8-2.4c.3.1-.3.4 0 0zm-3.8 2.1c-.5-.4.1-.7 0 0zm.5 1.1c-.6-.7 0-2.4.1-.7.1.3 0 .5-.1.7zm.6-1.1c-.7-1.3.5-1.3 0 0zm.2.3c-.5-.8.6-2.6.1-.8 0 .2-.1.5-.1.8zm.5-2.2c-.8-.1.5-.8 0 0zm.1-.7c.3-1 1 .8 0 0zm.8 3.3c-.6 0 .3-.5 0 0zm.3-.7c-.1-1.1 1-.3 0 0zm.9 1.8c-.8 0 .3-.5 0 0zm.1-.7c.2.8-.7-.1 0 0zm-.2-.3c-.8-.8.3-3.2.1-1.1l-.1 1.1zm1.6-1.7c-.4.4.5-.5.1.1l-.1-.1zm.5 1.7c-.6-.5.6-.9 0 0zm0-1.2c-.5-1.1 1.1 1.8 0 0zm7.4-1.7c0-1-.5-1.3-1.3-.7-.5-.7 1.3-.3.2-.8.4-1.6-1.4 1.3-1.1 1.4 1.1 1.7-1.9 2.6-1 4 .7-.3.7-1.3.9-.1-1.2.7.4.3.4-.6.6.2.9 1.1.7-.2-.6-.4-.2-3.3 0-1.3 1.2.8.9-.9 1.5-1.3 0-.2-.1-.3-.3-.4zm-2.8 3.6c-.5-.6.5-.9 0 0zm.9-3.6c.5 0-.3 1.2 0 0zm-.2 1.7c.6.5-.3.9 0 0zm.4.6c-.6-.5.4-.4 0 0zm-.1-.6c-.6-.6.8-.7 0 0zm.5-1.3c-.6-.1.3-.8 0 0zm.1-1c.5 0 0 .5 0 0zm.3 2.1c-.5-.8.6-1 0 0zm0-1.1c-.4-.9.8-.2 0 0zm.4 1c-.4-.4.5-.6 0 0zm.1-.7c-.5-1.1.2-1.2 0 0zm.4-.2c-.2-.9.6.5 0 0zm-21.2.3c.6.5.9.5.8 1.3.9-.8-.1 2.6 1.5 1.9 1.2.8-1.3-.1-.5.7 1 .5 1.4-1.3 1.5.3-.7.4.7 3.8.3 1.6 0-.8-.3-3 .7-1.4.9-.2 1.2-.3.1-.7-1.4-1.1 1.6-.7-.1-1.8-.3.1-.6-.9-1.1-.4.6-1.1-1.5-.4-1.9-1.3-.5-.3-2.8-.2-2.4 0 .5 0 .8-.2 1.1-.2zm2.4 3.9c-1.3 0 0-.8 0 0zm2-1.8c.8.3-.5.8 0 0zm-3-.5c.5-.3.1.7 0 0zm.2 1.1c.6 0-.4.6 0 0zm.3-.1c-.7.3-.1-.6 0 0zm.1.2c-.1-.8.6.5 0 0zm.5-.3c-.4 0 0-.6 0 0zm.6.6c-1.5-.2 1.1-.9.4.2-.1.1-.4 0-.4-.2zm-.3-.8c1-.6.2.5 0 0zm1.6 1.1c.8 1.9-1.2-.3 0 0zm-.4-.7c.5-.5-.4.8-.6-.1 0-.3.6-.2.6.1zm-.6-.4c.4.5-.6.2 0 0zm-.9-1.4c.7 0-.2.7 0 0zm-.4.2c1.4-.3 1 1.7.2.5-.1-.1-.3-.3-.2-.5zm-.6-.4c-.2-1.2 1.2 1.7-.1.5.1-.3-.5-.5.1-.5zm-.9-.7c-.2.6-.7-.1 0 0zm16.9-.5c-.9-.5-1.6-.6-2.2-.6-.2-1.8-.7 1.3.9.8.8-.2.4-.9.6 0 1.3 0 0 2.3 1 1.2-.1 1.1.6-1.7-.3-1.1 1-.7.4-1.8 0-.3zm6.3 1c-.5-.2-.7-.8-1.2-1.4-1.2.7.9 2.2.9 2 .1-.2 1.3-1.1.3-.6zm-1.1-.1c-1-1.1.7-1.8 0 0zm.5.3c-.5-.7.2-.4 0 0zm-17.9-1.6c.3 1.4-.3.1-.5.2-.5.2 1.6-1.2 0-.4-.5.2-.7 1 .1.6-1.2.9 1 .8.7 1 .5.5.2-2-.2-1.2.3-.7 1.2.2.3-.5 0 0-.3.1-.4.3zm-.6 1c0-.4.4 0 0 0zm.2.1c-.2-.8.8.4 0 0zm.9-.1c-.7 0 .1-.4 0 0zm16.2-.3c-.1.6.7.2 0 0zm-14.6-1.4c-.1 1.5 1 .4 0 0zm7.1.5c-.2-.6-.2 1.6.2.5 0-.2-.4-.3-.2-.5zm0 .7c-.4-.4.3-.5 0 0zm-1.3-.7c-1.1 1.1.8.4 0 0zm.7-.5c-1.1.1.2 2.6 0 .7-.9-.3.7-.2 0-.7zm10.2.8c-1.2 1.5 1.8.1.5 0-.2.3-.4.2-.5 0zm-.1.8c-.3-.7.5-.3 0 0zm-20 7.2c-.2-1.2.2 1 0 0zm1.5-2.8c-1.1-.3-2.1.8-1.5 1.5-.5-1.2.4-1 .9-.9-.4-1 1.2 0 .9.7 0-.4-.2-.8-.3-1.3zm4.8.5c.2.1 0-.1 0 0zm4.8.7c-1.8.7-3-1.6-4.6-1.1-1.2.2-1.2-.9-2.4-.5-.1.6.1 1.5.2.5.3.6 0 1.5 1.2 1.4 1-.3 1.3 1.1.4.4-.3-.3 0 1.2-.6.2-.8-.4-.4 1.1-.9-.1-.5-1.4.2.5-.2-.2-.5-.6-.4-1.3-.5-1.4-.9.1-.2-.7-.9-.6.4-.7-.8-.1-.9-.1-.6.6 1 4.2 0 2.1-.3-.4-.2.7-.7.4 1 1.6-2.8 1-2.1 1.4-.2-.5 1.8.6.7.8.8.3 1.1.9 0 .4-.6.3-1.5.3-1.4.6.6 0 2.6.2 1.3.9-1.7-.3 1 1.1-.6.7-.6-.2-2.3.1-.8 0 .7 0 2.6.4 2.6-.2-1 .2-2.1-.6-.5-.4.6.1 3.4-.4 1.3-.2-1.4.2-.6-.6.3-.6-.9 0-4-.3-1.5-.5.8.1 1.8-.5 1.2-1.4.5.7.8.7.9 0 1.2-.3 2.9 1.5 2.7-.1 1.7 0 3.5 1.3 4.9.1 0-.5-2.3-.7-2.6-1.6-1.1.8-.2-1.2 0-.9-1.1.3-.4-1.6.1-.4.2-1 1.1.7.4.5.4.3-.7.3 0 .8.2.6 1.5-1.2 1.5-.1.8.1 3.9-.8 1.5-.8zm-4.7.2c.4-.6.6.3 0 0zm-2.4 0c-.7.4-.1-.9 0 0zm.2.5c-.5.6-.7-.5 0 0zm-.6-.9c-.3.5-.5-.5 0 0zm-.9.2c.8.7-.6.4 0 0zm-.3-.9c1.1.6-.6.9 0 0zm.4.3c.6.4-.2.4 0 0zm.6.8c.4.6-1.2.3 0 0zm0-.9c-.6.2-.3-.6 0 0zm-.1.2c-.4.4-.4-.6 0 0zm-.2-.9c-.2.5-.4.1 0 0zm-.2.4c-.3.4-.6-.4 0 0zm-.5-.6c.2.4-.3.6 0 0zm-.1.6c.2.8-.6-.3 0 0zm-.3.3c1 .7-.3 1.6 0 .1v-.1zm-.6 1.7c1-.7-.2 1.2 0 0zm0 1.6c.5 1-.7.2 0 0zm-1.7-.2c0-.6.6.1 0 0zm.4.1c.3-1 1.8 0 .4.3-.1.6-.2-.4-.4-.3zm.1.6c1.4-.5.9.9 0 0zm1.7.2c-.9.4-.4-.1-.4-.3-.2-.7.5.1.4.3zm-.1-1.3c-.8-.7.6-.2 0 0zm.6.2c-.9.1.2-.6 0 0zm.3-.5c-1.1-.5 1-.8 0 0zm-.2-.9c.8 0 .2.8 0 0zm-.1-.3c.7-.1 1.7 1.3 0 0zm1.5 1.6c-1.7.6-.5-1.9 0 0zm-.1-.5c-.7-.3 1.1-.7 0-.1v.1zm1.3 1.4c-1.6.3-.8-2.9-.2-.8-1 .6-.1.3.2.8zm0-.3c-.7.3-.2-.6 0 0zm4.2-.3c.6-.3.1.5 0 0zm.1-.2c-.7.1-.3-.7 0 0zm-2.2-.7c.8-.2 1.8.6 1.8 1.1-1.4 1-1-1.6-2.3-.9 1.1.7-2.1.9-1.3 0-1.1 0 0-1.3.4-.1.5.4 1-1 1.4-.1zm-.5-.5c.1-1.3.9-.5 0 0zm0-1.2c-1.1 1.3-3.4-.5-1.5-1 .5.2 2.5.6 1.8 1.2l-.3-.2zm.6-.2c-.8-.2 0-.6 0 0zm1.6.8c-.2 1-.3-1.1.5-.2-.1.2-.4.4-.5.2zm1.2.2c-.4-.3.4-.4 0 0zm-14 5.1c1-.1 1.1 0 .1-.2-1.8.1-.9-.3-.1.2zm9.8-11.6c-.6.6.5.4 0 0zm-10.9 2.7c.8-.3.7.8.2 1l1.3 1.6c-.7-.2.3-.1-.2-.7.7.5 1.1-.2 1.8.7-1.6-.7.9 1.3-.4.9.1.5 1.4.8.9 1 1.2-1 .1-2.7-1.1-2.9-.4-.3.2-1.1-1-.7-.9-.1.6-1.5-.8-1.6-.3.1-1.5.3-.7.7zm3.9 2.8c-.7.3-.3-.8 0 0zm-.5 0c-.1.4 1.1 1-.1.5-1-.5-.8-.7.1-.5zm-.2-.5c-.7.5-.5-.5 0 0zm-1.2-.3c-1.3 0 0-.7 0 0zm.2-1.1c0 1-1.5.3-.1 0h.1zm-1.1 1.2c-.7.1.1-.6 0 0zm.1-2.1c.3.6-1 1.2-.1.3-.3-.2-.7-.5.1-.3zm-.8-.5c.8.3-.5.8 0 0zm8.2.2c-1-.1.6 1.3 0 0zm-3.2 4.3c.7.4.1-.5 0 0zm-2.5 1c-.4-.2-1.8.8-.4 1.1.8.7 1.2-1.7.4-1.1zm.2.7c-.3.2-.2.6-.8-.1-.2-.7 1.5-.5.8.1zm.6.1c-.5.1.1.8 0 0zm-1.4-10.5c-.4-3.1-.1 1.8 0 0zm20.8-.2c-1.1-.3.4.8 0 0zm-.1.7c-.5 1.3.6.8 0 0zm3.2 1.6c-.5.2.5.4 0 0zm-9 .2c.5.6.1-.8 0 0zm.8 1.3c.5-1.3-2.4-1.7-1.4-.2-.1.7.3 2.6.2.9-.4-.9.9-1.8.2-.5.2.6 2.1.5 1-.2zm-1.2-.7c-.5-.6.4-.5 0 0zm.7 1c-.3-1.1.9-.2 0 0zm.4.1c-.2-.6.7 0 0 0zm-9.9-.4c-.3-.5-.9-1.2-.5-.1.1.1.6.5.5.1zm3.7 1.9c.5-.8-1.3.6-.5-.3-.3-.3-.5-1-.5.1-.2.8 2.5.3 1 .2zm3.1-.8c-.1.8.6.1 0 0zm-7.6-.7c-.6.6.3 1.4.4.7l-.4-.7zm13.9 2c-.3-.3.1.6 0 0zm5.1-3.2c0 .7.4 0 0 0zm-24.1 4c-.5 1.2.4.8 0 0zm16.1 2.5c-.3-.7-1.9.7-.6.2.3.4 1.8-.5.6-.2zm-17.5-9.8c-.8-.8-.1 2.2-.1.3 0-.1.3-.1.1-.3zm5.9 4.7c-.4 1.1.7.2 0 0z"/><path class="st6" d="M80.5 67.8c1-.1.5-.5 0 0z"/><path class="st7" d="M86.8 58.1c-.2.4-1.4.4-.4.5.2-.1.5-.3.4-.5z"/><path class="st21" d="M87.1 58.8c.8 0 .4-1 0 0zm-1.8.3c.9-.3.7-1.3 0 0zm-.1.6c-.3 0 .1.2 0 0zm.1-.2c-.5.5.3 0 0 0zm1-.5c1.1.1-1.1-.3 0 .5-1-.6-1.2 1.1-.1.2 1-.2.7-.4.1-.7zm.9.4c.8.7.2-.8 0 0zm-19 .1c-.3.8.8.2 0 0zm21.9.4c.2-.8-.3-.3 0 0zm1-.2c-.4 0 0 .5 0 0zm-1.6.5c.1-.7-.5 0 0 0zm-.5.4c.3-.2-.2-.8 0 0zm-.1-.2c-.4-.7-.2.4 0 0zm-9.7.4c1 .2-.7-.5 0 0zm7.6-.5c-.9-1.2.1 1 .6 1.1.8 1.3.3-1.3-.6-1.1zm-8.2 1.1c-1-.2-1.3-2.2-2.3-.9-1.3-.2.4 2.5.4.6.1-.9 1-.4.4 0 .4.2 1.4.4.4.3.4.3.3 1.1 1.1.2v-.2zm-7.8 0c.4.5.2-.4 0 0zm14 1.5c.4-.8-.5-.2 0 0zm-16.2.2c-.3-.9-2-.3-.8.2.3 0 .6-.2.8-.2zm5.4.2c.6-.2-.5-.7 0 0zm-9.4.2c.5.7.4-.8 0 0zm19.1.7c1.3-.9-1-.5 0 0zm1.1-.5c-1.2.7 1.4 1.7.2.2l-.1-.1-.1-.1zm-7.5.1c0 .6.3-.3 0 0zm-9.2.1c-1 1.3 2.3.9 0 0zm-1.2.2c-.4.7.5-.1 0 0zm13.3.2c-.1.5.2.3 0 0zm-13.7.4c-1.3.1-.8 1.5 0 0zm-.7.7c-.3.7 1.1.1 0 0zm-.7.4c.7.4.1-.5 0 0zm6.6.2c.7.4.6-.5 0 0zm1.9 0c.5 1.3.1.2 0 0zm2.7.2c.1.5.4.6 0 0zm-8.5.2c.3.8.8-.2 0 0zm4.8.3c.1.6.7-.3 0 0zm.5.2c-.5.5.5.3 0 0zm2.6.3c.5.3.4-.7 0 0zm-3.7-.2c-.2.4.2.6 0 0zm-.3.5c.7 1 1.7.2 0 0zm1.2.1c.2.7.9-.2 0 0zm.5.4c-1.6.4.4 1 0 0zm.6 1.6c.5.5.3-.5 0 0zm-3.3 0c-.4.1-.1.2 0 0zm0-12.3c-2.2-.4 2.9 2.1 1.4 1.1-.4-.3-1-.6-1.4-1.1zm-1 .2c.3-.1 0-.1 0 0zm-2.1.1c.3 1.7-.5.5-.5.4 0 0-1-1-.8-.1.9-.4.1 2 1.5 1.9-.4-.7.7-1.4.3-1.3.5-.3.8-.3.3-.8.6 0 2-.6.7-.7-.6.2-1 .8-1.5.6zm0 1.8c-.6-.2.2-.7 0 0zm-1.5-.8c-1.1-.7-1.5.2-1.3 1 .4 0-.2.9.7.3.3 0 .9-1.4.6-.1 1.4.6-.1-2.7-.5-1.7l.5.5zm-.6 1zm14.8-.9c-.8.8.7.4 0 0zm.3 2.1c.2.4.1 0 0 0zm.1.2c-1.7.7 2.1 1.4 1.6.2-.3-.9-1 .4-1.6-.2zm.7.5c0-.7 1 .3 0 0zm2.6-3.1c-.2 1.6 1.7.8 1.1.1-.4.2-.7-.1-1.1-.1zm-2.1 2.3c.3 0 0-.1 0 0zm1.1-1.3c.3 1.9-2.6-1.4-3 .7-.8 1.1 1.1 1 .2 0 .3-1.3.4 1.4.9 0 .8.4 1.7 1.2 2.1-.1.2.7 0 .5.4.1-.1 1.7 1.9-1 .1-.4-.2-.1-.4-.2-.7-.3zm-11.8-1.2c-.3.9.9.6 0 0zm23.2-1c.5 0 .1-.2 0 0zm1.4.4c-.4-.5-1.4.9-1.4-.4-.9.2-.7.9-.6.9-1.2.2-1.7 3.4-.4 1.6.5.1 1.3 1.2.7-.1.2-.3.5-1.8 1.1-1.1-.1-.4-.1-.9.6-.9zm-1.8 1.5c-.6 0 0-.4 0 0zm-.1-.8c.7.5-.3.1 0 0zm.5-.6c.6.2.1.8 0 0zm-1.7 2.8c-.3-.1-.1.1 0 0zm-24.7-1.5c.6.7.3.2 0 0zm17.3 3.5c.4-1-.7-1.8 0 0zm-14.6-3c.6-.7.2-1.6-.1-.4 0 .1-.1.4.1.4zm.8-.1c.4 0 .4-.4 0 0zm1.2.4c1-.8-1.1-.1-.1.5-1.1.5.7.5.6.7-.2-.4-.6-.7-.5-1.2zm-1.5.1c1.4.8.8-.9 0 0zm2.3 2c.4-.1.1-.3 0 0zm1.2-1c-.4-.1-1.6-.3-1 .4-.5.5 0 .5 0 .8.5-.1.4-1 1-1.2zm.9.7c-.1 1.5 1.6 0 0 0zm1 2.1c-.1.1.1 0 0 0zm-.3-.4c-.4 1 .9 0 0 0zm.3.5c-1.4.5 1 1.9 0 .7l-.1-.3c0-.1.1-.4.1-.4zm-1.6-3c.5-.7-.5-.3 0 0zm7.1-1.2c.3 0-.3-.7 0 0zm-2.8.6c.1-.2-.2 0 0 0zm-.2-.4c.5.9 1.6-1 .2-.2l-.2.2zm4.2 2.1c-.8.7.9.9 0 0zm-.3.8c.1.1.3-.1 0 0zm-.1-.2c.5.1.2-.2 0 0zm.1.2c0-.4-.6-.1 0 0zm-9.1-2.8c-.4.6 1.2 1.3.8.2-.2-.2-.5-.2-.8-.2zm1.3-.4c.7.7.1-1.1 0 0zm-.4.5c.6-.2.4-.7 0 0zm-4 .9c1.1-.6-.2-.9 0 0zm8-.1c.6-.3-.4-.5 0 0zm.8-.6c-.7-.1.3.8 0 0zm11.1.1c-1.3-1.1-1.1 1.2-.3.1-.2-.2.1-.2.3-.1zm-.2.4c-1 .4-.5.9.1.2l-.1-.2zm-1.5.7c-.1 1.6.5-.9 0 0zm-.6-.4c.1 1 .9-.2 0 0zm-14.1 1c.2-.7.1 1.8.3.3 1.2-2.8-2 .9-.3-.3zm0-.2c-.1.6.6-.4 0 0zm-7.6-.2c-.5 1.1 1.3 1.6.2.2l-.1-.1-.1-.1zm2.2 3.8c-.1.1.2.3 0 0zm0 0c-.5 1.9 3.1 0 .6-.1-.1 0-.6-.3-.6.1zm13.8-2.3c-1-.1-2.1.6-.4.6 1.9 1.5.1-3.4 0-1l.1.2c.1 0 .3.2.3.2zm-1.6 1.2c-.1-.5-.7.2 0 0zm4.5-2.9c-.6.9.5.5 0 0zm.4.1c-.5.6.5.5 0 0zm-9.8 1.2c1-.3-.1-1.1 0 0zm1.7 1.5c.6-.4 0-.3 0 0zm.8-1.6c-.4-1.1-.8 2.3.1.7.2-.2.4-.7-.1-.7zm-13.7 1.1c-.4 1.7 1.5.3 0 0zm1.9 2.4c.6.4.7-.5 0 0zm.3-2.1c-.2-.2-.6.1 0 0zm.1.9c-.6.6.9.4 0 0zm2.3 4.2c-.6 1.8 2.1-.7 0 0zm-1.4.1c.7.3.3-.4 0 0zm4.1-2.9c-.1.3.5-.2 0 0zm1.4.8c0 .8.2 1.2.8 1 1.1.8 0-1.3.9-.1 1.5-.3-1.4-1-1.7-.9zm-1.1-3.2c-.1 0 .1.2 0 0zm-.6-2.1c.2-.5-.3-.1 0 0zm.6 2.1c-.1-.3-.2 0 0 0zm-.1 0c0 .2.2 0 0 0zm.1.1c0-.1-.1-.1 0 0zm-3-3.7c0 .1.1-.1 0 0zm2.3 2.2c.4.4.9-1.1.7 0 1-.9-1.3-1.1-.7 0zm-7.7-2.6c-.1.1.1 0 0 0zm2.8.4c-.2.1.1.2 0 0zm4.9 2.2zm-1.9-1.9c.4.1 1-.8.1-.4 1.4-.7-1.3-.5-.3.1l.2.3zm4.7 3.8c-.1 0 .1.2 0 0zm-.1-.4c0-.2-.4.2 0 0zm-2.7-.7c-.3-.2.1.5 0 0zm-3.8-1c.5-.7-2.4-1.4-.3-1.3.8-.2 3 .5 2.6 1.2-.8-.1-2-.8-1.9 0-.3.1.5.5.5.8 1.2-.1 1.4 1.2.8 1.7 1.1 1.2 2.7.9 4.1.6.9.5 1.4.7 2.8.8 1.5.5 2.8 1.5 4.4 1.1-1 .9-2.6.3-3.7.7 0-.6.4-1-.5-.5-1.2 1.1 1.9 1.1 2.5 1.8 1 .4-.7.6.6.5 1.1-.2 4.1-.2 3.1-1.8-.4-.3-2.3 0-1.5-.9-.4.1-1.3 0-.6-.5-1.9-.3-3.9-.7-5.5-1.7-.6-.2-.9-1.4-.6-.1 0 .4-.8-.1-.1 0-.9-.5-.4.1-.7-.2-.5 0-.9 1-.7 0-.6.4-2.2-.3-.9-.6-1.1-.2-.3-3.4-1.3-1.6-.1-.7-1-.6-.9-.9-.2-.4-.9-.3-.7-.9-.3 1.1-1.8-1.1-.7.4 0 .9-2-1.8-1.6-.2 1-.3-.5.7-.3-.2-.8 1.2-3.9-1-2.6.7 1.3.1 2.5.4 3.7 1.1zm10.6 6.4c-2.2-.5.7-.8 0 0zm1.2.4c.3-.5.6.2 0 0zm2.6-.9c1.1.6-2.3.9-.7.1.2-.1.5-.1.7-.1zm-1.2 0c-.9 1-1.5-1-.2-.7-.5.7-.8.2.2.7zm-.8-1.6c.4.1-.3.4 0 0zm-2.3-.1c.6.3-.2.4 0 0zm-2.7-1.6zm-.1 0zm0 0zm-.1 0zm0 0zm0 0zm-.1 0zm0 0zm0 0zm-.1 0zm0 0zm0 .7c0-.4.6 0 0 0zm-2.2-.7c1.1 0-.6.5 0 0zm-1.6 0c-1 .2-.6-.9 0 0zm0 .1c-.3-.6.6 0 0 0zm.7-.5c-.1.6-.8-.1 0 0zm-1.1-1.1c1.2-.7 1 .2.7.9.4.5-1.2-.3-.7-.9zm-.6.8c.6.3.3.3 0 0zm-3.9-2.8c.1-.7.4.8 0 0zm2.9 11.6c.8-.5 3.4-.4 3.1-.4-1.6-.2 0-.8.7-.6-.3-.4-1.9-.5-.4-.7.8.1 2.7-.1.8-.5.2-.5 2.5 1 1.7-.6.2-.5 3.2.2 1.4-.5-.5-.5-2.8-.7-1.7.5-1-.5-3.9-1.1-2.7.8.9 0 1.3.3.2.2-.8.1-1.4-.2-.7-.9-.4-.9-.8-.5-.3.2-.6.5-3.8.5-1.5.8.8-.7.7.4 1.7.1-.8.1-1.7.7-.3.6.9 0 1.2 0 .1.1-.8 0-3.7.2-1.4.5 1.5.2-1.4.6-1.8.5-1.1 0-3.4-.4-3.6-.3 1.3.2 3 .7 4.7.2zm-1.6-11.4zm11.5 8.5c-.6-.7-2.5.2-.7.2.3 0 .6 0 .7-.2zm-6.3 2.5c.5.1.5 0 0 0zm-.2-6.9c-.3-.1-.6.4 0 0zm-1.1 4.4c.3.4.3-.2 0 0zm-4.7-.8c.4.1.2-.6 0 0zm-.4.1c.9 1.1 1.4-1.2.1-.3l-.1.3zm.4-.1c.2-.7.5.1 0 0zm4.5-.4c-.6.7.7.1 0 0zm.3.1zm6.6-.1c.1.6.7 0 0 0zm12.8-8.3zm-8 .1c-.4 1.2 1.5.8 0 0zm-2 1.9c1 .1.2-1.1 0 0zm5-.5c.3 1 .7.4 0 0zm-2.6 1c1 .1.4-1.2 0 0zm-5.9.6c.5-.9-.4.2 0 0zm-2.2.6c-.7 1.1 1.1-.4 0 0zm6.8-4.3c.2.3.2-.8 0 0zm3 1c.3-1-.6-.1 0 0zm.4-.4c-.2.7.4.3 0 0zm-10 5.7c.7.2.1-.6 0 0zm-3.9.4c.8-.3-.5-.9 0 0zm-4-.1c-1.9-.5 1 1.5.3.4-.2 0-.4-.2-.3-.4zm8.8 1c-.5 0-.5.5 0 0zm-5.4.2c-.4.6-.1.5 0 0zm-1.6 2.3c.7.9 1.5-.5 0 0zm6.2-6.3c-.5.7.7-.2 0 0z"/><path class="st9" d="M92 61.6c.2 1 .8-.8 0 0z"/></g><path d="M81.9 116l24.3-24.3s-9.4 2.9-19.6 2.9c0 10.2-4.7 21.4-4.7 21.4z" class="st22"/><linearGradient id="SVGID_10_" gradientUnits="userSpaceOnUse" x1="98.523" y1="23.492" x2="91.136" y2="30.65" gradientTransform="matrix(1 0 0 -1 0 130)"><stop offset="0" stop-color="#A2A2A2"/><stop offset="1" stop-color="#fff"/></linearGradient><path class="st23" d="M80.1 118.9s11-8.8 16.5-14.3l14.1-16.5s-12.5 7.9-22.7 7.9c0 10.2-7.9 22.9-7.9 22.9z"/><path class="st24" d="M17 8v32h94v-32h-94zm16.5 26.4c0 .9-.7 1.6-1.6 1.6h-3.1v-3.2c0-.9.7-1.6 1.6-1.6h3.1v3.2zm18.8-1.6c0 1.8-1.4 3.2-3.1 3.2h-12.6v-4.8h9.4c.9 0 1.6-.7 1.6-1.6v-11.2c0-.9-.7-1.6-1.6-1.6h-11c-.9 0-1.6.7-1.6 1.6v9.6h-4.7v-12.8c0-1.8 1.4-3.2 3.1-3.2h17.2c1.7 0 3.1 1.4 3.1 3.2v17.6z"/><linearGradient id="SVGID_11_" gradientUnits="userSpaceOnUse" x1="153" y1="34.443" x2="153" y2="37.556" gradientTransform="matrix(1 0 0 -1 -131 70)"><stop offset="0" stop-color="#9DB9D6"/><stop offset="1" stop-color="#537DD1"/></linearGradient><circle class="st25" cx="22" cy="34" r="2"/><linearGradient id="SVGID_12_" gradientUnits="userSpaceOnUse" x1="153" y1="42.443" x2="153" y2="45.556" gradientTransform="matrix(1 0 0 -1 -131 70)"><stop offset="0" stop-color="#9DB9D6"/><stop offset="1" stop-color="#537DD1"/></linearGradient><circle class="st26" cx="22" cy="26" r="2"/><linearGradient id="SVGID_13_" gradientUnits="userSpaceOnUse" x1="153" y1="50.443" x2="153" y2="53.556" gradientTransform="matrix(1 0 0 -1 -131 70)"><stop offset="0" stop-color="#9DB9D6"/><stop offset="1" stop-color="#537DD1"/></linearGradient><circle class="st27" cx="22" cy="18" r="2"/><linearGradient id="SVGID_14_" gradientUnits="userSpaceOnUse" x1="153" y1="-45.557" x2="153" y2="-42.444" gradientTransform="matrix(1 0 0 -1 -131 70)"><stop offset="0" stop-color="#fff"/><stop offset="1" stop-color="#ddd"/></linearGradient><circle class="st28" cx="22" cy="114" r="2"/><circle class="st29" cx="22" cy="114" r="1.6"/><linearGradient id="SVGID_15_" gradientUnits="userSpaceOnUse" x1="153" y1="-37.557" x2="153" y2="-34.444" gradientTransform="matrix(1 0 0 -1 -131 70)"><stop offset="0" stop-color="#fff"/><stop offset="1" stop-color="#ddd"/></linearGradient><circle class="st30" cx="22" cy="106" r="2"/><circle class="st29" cx="22" cy="106" r="1.6"/><linearGradient id="SVGID_16_" gradientUnits="userSpaceOnUse" x1="153" y1="-29.557" x2="153" y2="-26.444" gradientTransform="matrix(1 0 0 -1 -131 70)"><stop offset="0" stop-color="#fff"/><stop offset="1" stop-color="#ddd"/></linearGradient><circle class="st31" cx="22" cy="98" r="2"/><circle class="st29" cx="22" cy="98" r="1.6"/><linearGradient id="SVGID_17_" gradientUnits="userSpaceOnUse" x1="153" y1="-21.557" x2="153" y2="-18.444" gradientTransform="matrix(1 0 0 -1 -131 70)"><stop offset="0" stop-color="#fff"/><stop offset="1" stop-color="#ddd"/></linearGradient><circle class="st32" cx="22" cy="90" r="2"/><circle class="st29" cx="22" cy="90" r="1.6"/><linearGradient id="SVGID_18_" gradientUnits="userSpaceOnUse" x1="153" y1="-13.557" x2="153" y2="-10.444" gradientTransform="matrix(1 0 0 -1 -131 70)"><stop offset="0" stop-color="#fff"/><stop offset="1" stop-color="#ddd"/></linearGradient><circle class="st33" cx="22" cy="82" r="2"/><circle class="st29" cx="22" cy="82" r="1.6"/><linearGradient id="SVGID_19_" gradientUnits="userSpaceOnUse" x1="153" y1="-5.557" x2="153" y2="-2.444" gradientTransform="matrix(1 0 0 -1 -131 70)"><stop offset="0" stop-color="#fff"/><stop offset="1" stop-color="#ddd"/></linearGradient><circle class="st34" cx="22" cy="74" r="2"/><circle class="st29" cx="22" cy="74" r="1.6"/><linearGradient id="SVGID_20_" gradientUnits="userSpaceOnUse" x1="153" y1="2.443" x2="153" y2="5.556" gradientTransform="matrix(1 0 0 -1 -131 70)"><stop offset="0" stop-color="#fff"/><stop offset="1" stop-color="#ddd"/></linearGradient><circle class="st35" cx="22" cy="66" r="2"/><circle class="st29" cx="22" cy="66" r="1.6"/><linearGradient id="SVGID_21_" gradientUnits="userSpaceOnUse" x1="153" y1="10.443" x2="153" y2="13.556" gradientTransform="matrix(1 0 0 -1 -131 70)"><stop offset="0" stop-color="#fff"/><stop offset="1" stop-color="#ddd"/></linearGradient><circle class="st36" cx="22" cy="58" r="2"/><circle class="st29" cx="22" cy="58" r="1.6"/><linearGradient id="SVGID_22_" gradientUnits="userSpaceOnUse" x1="153" y1="18.443" x2="153" y2="21.556" gradientTransform="matrix(1 0 0 -1 -131 70)"><stop offset="0" stop-color="#fff"/><stop offset="1" stop-color="#ddd"/></linearGradient><circle class="st37" cx="22" cy="50" r="2"/><circle class="st29" cx="22" cy="50" r="1.6"/><linearGradient id="SVGID_23_" gradientUnits="userSpaceOnUse" x1="153" y1="26.443" x2="153" y2="29.556" gradientTransform="matrix(1 0 0 -1 -131 70)"><stop offset="0" stop-color="#fff"/><stop offset="1" stop-color="#ddd"/></linearGradient><circle class="st38" cx="22" cy="42" r="2"/><circle class="st29" cx="22" cy="42" r="1.6"/><circle class="st29" cx="22" cy="34" r="1.6"/><circle class="st29" cx="22" cy="26" r="1.6"/><circle class="st29" cx="22" cy="18" r="1.6"/></svg>