<svg xmlns="http://www.w3.org/2000/svg" xmlns:cc="http://web.resource.org/cc/" xmlns:svg="http://www.w3.org/2000/svg" xmlns:xlink="http://www.w3.org/1999/xlink" id="Layer_1" width="128" height="128" enable-background="new 0 0 128 128" overflow="visible" version="1.1" viewBox="0 0 128 128" xml:space="preserve"><defs id="defs67"><linearGradient id="linearGradient2975"><stop style="stop-color:black;stop-opacity:1" id="stop2977" offset="0"/><stop style="stop-color:black;stop-opacity:0" id="stop2979" offset="1"/></linearGradient><linearGradient id="linearGradient2981" x1="28.947" x2="28.947" y1="125.896" y2="104.955" gradientTransform="matrix(0.551974,0,0,0.578087,29.1021,21.19557)" gradientUnits="userSpaceOnUse" xlink:href="#linearGradient2975"/><linearGradient id="linearGradient2913"><stop style="stop-color:#a4c0e4;stop-opacity:1" id="stop2915" offset="0"/><stop style="stop-color:#a4c0e4;stop-opacity:0" id="stop2917" offset="1"/></linearGradient><linearGradient id="linearGradient2067" x1="52.985" x2="113.219" y1="68.39" y2="49.39" gradientTransform="matrix(0.551528,6.701011e-2,-6.398318e-2,0.57762,33.9153,22.66019)" gradientUnits="userSpaceOnUse" xlink:href="#linearGradient2913"/><linearGradient id="linearGradient2083" x1="4.911" x2="58.885" y1="44.649" y2="36.866" gradientTransform="matrix(1.551192,-0.319841,-0.305393,-1.624575,40.5611,107.8913)" gradientUnits="userSpaceOnUse" xlink:href="#linearGradient3710"/><linearGradient id="linearGradient2087"><stop style="stop-color:#4686d8;stop-opacity:1" id="stop2089" offset="0"/><stop style="stop-color:#4686d8;stop-opacity:0" id="stop2091" offset="1"/></linearGradient><linearGradient id="linearGradient2093" x1="68.236" x2="70.711" y1="120.294" y2="86.634" gradientTransform="matrix(0.551974,0,0,0.578087,29.1021,21.19557)" gradientUnits="userSpaceOnUse" xlink:href="#linearGradient2087"/><linearGradient id="linearGradient2086" x1="4.911" x2="58.885" y1="44.649" y2="36.866" gradientTransform="matrix(1.551192,-0.319841,-0.305393,-1.624575,40.5611,107.8913)" gradientUnits="userSpaceOnUse" xlink:href="#linearGradient3710"/><linearGradient id="linearGradient3853"><stop style="stop-color:black;stop-opacity:1" id="stop3855" offset="0"/><stop style="stop-color:black;stop-opacity:0" id="stop3857" offset="1"/></linearGradient><radialGradient id="radialGradient2089" cx="-36.858" cy="75.225" r=".972" fx="-36.858" fy="75.225" gradientTransform="matrix(0.52266,1.032812e-2,0.79062,-63.46014,10.2886,4803.897)" gradientUnits="userSpaceOnUse" xlink:href="#linearGradient3853"/><linearGradient id="linearGradient2092" x1="4.911" x2="58.885" y1="44.649" y2="36.866" gradientTransform="matrix(1.551192,-0.319841,-0.305393,-1.624575,40.5611,107.8913)" gradientUnits="userSpaceOnUse" xlink:href="#linearGradient3710"/><radialGradient id="XMLID_5_" cx="51.999" cy="-9" r="111.001" gradientUnits="userSpaceOnUse"><stop style="stop-color:#80b3ff" id="stop4094" offset=".15"/><stop style="stop-color:#69a1f0" id="stop4096" offset=".316"/><stop style="stop-color:#4888da" id="stop4098" offset=".603"/><stop style="stop-color:#3378cc" id="stop4100" offset=".841"/><stop style="stop-color:#2c72c7" id="stop4102" offset="1"/></radialGradient><linearGradient id="linearGradient2097" x1="92.146" x2="59.409" y1="-60.187" y2="214.473" gradientTransform="matrix(0.532305,-6.467406e-2,-6.175264e-2,-0.557487,31.9462,97.4947)" gradientUnits="userSpaceOnUse" xlink:href="#XMLID_5_"/><linearGradient id="linearGradient2101" x1="20.607" x2="14.044" y1="54.213" y2="16.438" gradientTransform="matrix(1.472945,-0.303707,-0.289987,-1.542628,41.2038,118.6735)" gradientUnits="userSpaceOnUse" xlink:href="#linearGradient3837"/><linearGradient id="linearGradient3804"><stop style="stop-color:white;stop-opacity:1" id="stop3806" offset="0"/><stop style="stop-color:white;stop-opacity:0" id="stop3808" offset="1"/></linearGradient><linearGradient id="linearGradient2105" x1="6.281" x2="14.313" y1="35.764" y2="35.764" gradientTransform="matrix(1.472945,-0.303707,-0.289987,-1.542628,41.2038,118.6735)" gradientUnits="userSpaceOnUse" xlink:href="#linearGradient3804"/><linearGradient id="linearGradient2109" x1="5.324" x2="16.25" y1="55.63" y2="54.984" gradientTransform="matrix(1.472945,-0.303707,-0.289987,-1.542628,41.2038,118.6735)" gradientUnits="userSpaceOnUse" xlink:href="#linearGradient3783"/><linearGradient id="linearGradient2113" x1="15.688" x2="16.753" y1="48.891" y2="55.438" gradientTransform="matrix(1.472945,-0.303707,-0.289987,-1.542628,41.2038,118.6735)" gradientUnits="userSpaceOnUse" xlink:href="#linearGradient3783"/><linearGradient id="linearGradient3783"><stop style="stop-color:white;stop-opacity:1" id="stop3785" offset="0"/><stop style="stop-color:white;stop-opacity:0" id="stop3787" offset="1"/></linearGradient><linearGradient id="linearGradient2117" x1="15.688" x2="16.25" y1="48.891" y2="54.984" gradientTransform="matrix(1.472945,-0.303707,-0.289987,-1.542628,41.2038,118.6735)" gradientUnits="userSpaceOnUse" xlink:href="#linearGradient3783"/><linearGradient id="linearGradient3756"><stop style="stop-color:black;stop-opacity:1" id="stop3758" offset="0"/><stop style="stop-color:black;stop-opacity:0" id="stop3760" offset="1"/></linearGradient><linearGradient id="linearGradient2121" x1="15.214" x2="14.702" y1="58.94" y2="56.033" gradientTransform="matrix(1.472945,-0.303707,-0.289987,-1.542628,41.2038,118.6735)" gradientUnits="userSpaceOnUse" xlink:href="#linearGradient3756"/><linearGradient id="linearGradient2114" x1="82.313" x2="72.327" y1="61.875" y2="133.313" gradientTransform="translate(0,1.7)" gradientUnits="userSpaceOnUse" xlink:href="#linearGradient5477"/><linearGradient id="linearGradient2112" x1="82.313" x2="72.327" y1="61.875" y2="133.313" gradientTransform="translate(0,-3.3)" gradientUnits="userSpaceOnUse" xlink:href="#linearGradient5477"/><linearGradient id="linearGradient2110" x1="82.313" x2="36.313" y1="61.875" y2="128.313" gradientTransform="translate(0,0.7)" gradientUnits="userSpaceOnUse" xlink:href="#linearGradient5477"/><linearGradient id="linearGradient2108" x1="34.563" x2="44.063" y1="99.375" y2="125.125" gradientTransform="translate(0,-2)" gradientUnits="userSpaceOnUse" xlink:href="#linearGradient5477"/><linearGradient id="linearGradient2106" x1="39.813" x2="45.313" y1="79.125" y2="138.875" gradientTransform="translate(0,-1)" gradientUnits="userSpaceOnUse" xlink:href="#linearGradient5477"/><linearGradient id="linearGradient5477"><stop style="stop-color:black;stop-opacity:1" id="stop5479" offset="0"/><stop style="stop-color:white;stop-opacity:1" id="stop5481" offset="1"/></linearGradient><linearGradient id="linearGradient2104" x1="74.063" x2="108.063" y1="85.125" y2="126.063" gradientUnits="userSpaceOnUse" xlink:href="#linearGradient5477"/><linearGradient id="linearGradient2132" x1="4.911" x2="58.885" y1="44.649" y2="36.866" gradientTransform="matrix(1.551192,-0.319841,-0.305393,-1.624575,39.6845,102.7017)" gradientUnits="userSpaceOnUse" xlink:href="#linearGradient3710"/><linearGradient id="linearGradient3710"><stop style="stop-color:white;stop-opacity:1" id="stop3712" offset="0"/><stop style="stop-color:white;stop-opacity:0" id="stop3714" offset="1"/></linearGradient><linearGradient id="linearGradient2135" x1="4.911" x2="58.885" y1="44.649" y2="36.866" gradientTransform="matrix(1.551192,-0.319841,-0.305393,-1.624575,39.6845,102.7595)" gradientUnits="userSpaceOnUse" xlink:href="#linearGradient3710"/><linearGradient id="linearGradient3695"><stop style="stop-color:#626262;stop-opacity:1" id="stop3697" offset="0"/><stop style="stop-color:#efefef;stop-opacity:1" id="stop3699" offset="1"/></linearGradient><linearGradient id="linearGradient2139" x1="32.439" x2="33.05" y1="40" y2="42.763" gradientTransform="matrix(1.551192,-0.319841,-0.305393,-1.624575,40.5611,107.8913)" gradientUnits="userSpaceOnUse" xlink:href="#linearGradient3695"/><linearGradient id="linearGradient3814"><stop style="stop-color:white;stop-opacity:0" id="stop3816" offset="0"/><stop id="stop3824" offset=".185" style="stop-color:white;stop-opacity:0"/><stop id="stop3822" offset=".281" style="stop-color:white;stop-opacity:.33574006"/><stop style="stop-color:white;stop-opacity:.1696751" id="stop3829" offset=".451"/><stop id="stop3831" offset=".479" style="stop-color:white;stop-opacity:0"/><stop style="stop-color:white;stop-opacity:.3068592" id="stop3833" offset=".656"/><stop style="stop-color:white;stop-opacity:0" id="stop3818" offset="1"/></linearGradient><linearGradient id="linearGradient2143" x1="4.518" x2="18.827" y1="41.237" y2="38.016" gradientTransform="matrix(1.472945,-0.303707,-0.289987,-1.542628,41.2038,118.6735)" gradientUnits="userSpaceOnUse" xlink:href="#linearGradient3814"/><linearGradient id="linearGradient3291"><stop id="stop3293" offset="0" style="stop-color:#000;stop-opacity:1"/><stop style="stop-color:black;stop-opacity:.62454873" id="stop3100" offset=".676"/><stop id="stop3295" offset="1" style="stop-color:#000;stop-opacity:0"/></linearGradient><radialGradient id="radialGradient2211" cx="63.912" cy="115.709" r="63.912" fx="63.912" fy="115.709" gradientTransform="matrix(1,0,0,0.197802,0,92.82166)" gradientUnits="userSpaceOnUse" xlink:href="#linearGradient3291"/><linearGradient id="linearGradient3837"><stop style="stop-color:black;stop-opacity:1" id="stop3839" offset="0"/><stop id="stop3849" offset=".25" style="stop-color:black;stop-opacity:.59927797"/><stop id="stop3847" offset=".5" style="stop-color:black;stop-opacity:.27797833"/><stop style="stop-color:black;stop-opacity:0" id="stop3841" offset="1"/></linearGradient><linearGradient id="linearGradient2147" x1="36.992" x2="38.914" y1="42.161" y2="39.759" gradientTransform="matrix(1.551192,-0.319841,-0.305393,-1.624575,40.5611,107.8913)" gradientUnits="userSpaceOnUse" xlink:href="#linearGradient3837"/><linearGradient id="linearGradient2362"><stop style="stop-color:#fff;stop-opacity:1" id="stop2364" offset="0"/><stop style="stop-color:#fff;stop-opacity:0" id="stop2366" offset="1"/></linearGradient><linearGradient id="linearGradient2401" x1="74.515" x2="52.588" y1="17.232" y2="99.065" gradientTransform="matrix(0.804942,0,0,0.782908,12.99123,16.32518)" gradientUnits="userSpaceOnUse" xlink:href="#linearGradient2362"/><linearGradient id="linearGradient2389"><stop style="stop-color:#000;stop-opacity:0" id="stop2391" offset="0"/><stop id="stop2393" offset=".438" style="stop-color:#000;stop-opacity:0"/><stop style="stop-color:#000;stop-opacity:0" id="stop2395" offset=".566"/><stop id="stop2423" offset=".762" style="stop-color:#000;stop-opacity:.24705882"/><stop id="stop2421" offset=".779" style="stop-color:#000;stop-opacity:.49803922"/><stop style="stop-color:#000;stop-opacity:1" id="stop2397" offset=".875"/><stop id="stop2411" offset=".875" style="stop-color:#000;stop-opacity:.49803922"/><stop id="stop2399" offset="1" style="stop-color:#000;stop-opacity:0"/></linearGradient><linearGradient id="linearGradient2321"><stop style="stop-color:#c3c3c3;stop-opacity:1" id="stop2323" offset="0"/><stop style="stop-color:#fff;stop-opacity:1" id="stop2325" offset="1"/></linearGradient><linearGradient id="linearGradient2287"><stop id="stop2299" offset="0" style="stop-color:#000;stop-opacity:0"/><stop style="stop-color:#000;stop-opacity:0" id="stop2307" offset=".438"/><stop id="stop2309" offset=".582" style="stop-color:#000;stop-opacity:0"/><stop style="stop-color:#000;stop-opacity:.49803922" id="stop2419" offset=".764"/><stop id="stop2303" offset=".875" style="stop-color:#000;stop-opacity:1"/><stop style="stop-color:#000;stop-opacity:.49803922" id="stop2413" offset=".918"/><stop id="stop2417" offset=".96" style="stop-color:#000;stop-opacity:0"/><stop style="stop-color:#000;stop-opacity:0" id="stop2291" offset="1"/></linearGradient><linearGradient id="linearGradient3175"><stop style="stop-color:#fff;stop-opacity:1" id="stop3177" offset="0"/><stop style="stop-color:#bebebe;stop-opacity:1" id="stop3179" offset="1"/></linearGradient><linearGradient id="linearGradient4060"><stop style="stop-color:#1d1d1d;stop-opacity:1" id="stop4062" offset="0"/><stop style="stop-color:#fff;stop-opacity:0" id="stop4064" offset="1"/></linearGradient><linearGradient id="linearGradient4230"><stop style="stop-color:#6c6c6c;stop-opacity:1" id="stop4232" offset="0"/><stop style="stop-color:#fff;stop-opacity:1" id="stop4234" offset="1"/></linearGradient></defs><metadata id="metadata3"/><switch id="switch5"><g id="g9"><rect id="_x3C_Sezione_x3E_" width="128" height="128" fill="none"/><path id="path12" fill="#323232" d="M18,2c-2.206,0-4,1.794-4,4v116c0,2.206,1.794,4,4,4h61.888 c1.076,0,2.122-0.442,2.871-1.215l30.112-31.025C113.6,93.008,114,92.02,114,90.975V6c0-2.206-1.794-4-4-4H18z" opacity=".15"/><path id="path14" fill="#323232" d="M18,3c-1.654,0-3,1.346-3,3v116c0,1.654,1.346,3,3,3h61.888 c0.807,0,1.592-0.332,2.153-0.911l30.112-31.025C112.699,92.5,113,91.758,113,90.975V6c0-1.654-1.346-3-3-3H18z" opacity=".2"/><path id="path16" fill="#323232" d="M18,4c-1.103,0-2,0.897-2,2v116c0,1.103,0.897,2,2,2h61.888 c0.538,0,1.062-0.222,1.436-0.607l30.112-31.025c0.364-0.376,0.564-0.87,0.564-1.393V6c0-1.103-0.897-2-2-2H18z" opacity=".25"/><path id="path18" fill="#323232" d="M18,5c-0.552,0-1,0.448-1,1v116c0,0.553,0.448,1,1,1h61.888 c0.271,0,0.529-0.109,0.718-0.304l30.112-31.025c0.181-0.187,0.282-0.437,0.282-0.696V6c0-0.552-0.447-1-1-1H18z" opacity=".3"/><path id="path20" fill="#FFF" d="M18,121c3.858,0,60.218,0,61.888,0c1.161-1.196,29.007-29.886,30.112-31.025c0-1.609,0-81.05,0-84.975 c-3.91,0-88.089,0-92,0C18,8.944,18,117.056,18,121z"/><radialGradient id="XMLID_3_" cx="101.156" cy="111.13" r="137.893" gradientUnits="userSpaceOnUse"><stop style="stop-color:#555" id="stop23" offset=".101"/><stop style="stop-color:#676767" id="stop25" offset=".115"/><stop style="stop-color:#9b9b9b" id="stop27" offset=".161"/><stop style="stop-color:silver" id="stop29" offset=".202"/><stop style="stop-color:#d8d8d8" id="stop31" offset=".234"/><stop style="stop-color:#e0e0e0" id="stop33" offset=".254"/><stop style="stop-color:#ededed" id="stop35" offset=".311"/><stop style="stop-color:#fafafa" id="stop37" offset=".401"/><stop style="stop-color:#fff" id="stop39" offset=".479"/><stop style="stop-color:#fafafa" id="stop41" offset=".6"/><stop style="stop-color:#eee" id="stop43" offset=".722"/><stop style="stop-color:#ddd" id="stop45" offset=".888"/></radialGradient><path id="path47" fill="url(#XMLID_3_)" d="M19,6c0,1.949,0,112.052,0,114c1.922,0,59.644,0,60.465,0c0.572-0.59,28.986-29.866,29.535-30.431 c0-0.794,0-81.625,0-83.569C107.064,6,20.935,6,19,6z"/><linearGradient id="XMLID_4_" x1="85.647" x2="95.421" y1="95.726" y2="105.499" gradientUnits="userSpaceOnUse"><stop style="stop-color:#fff" id="stop50" offset=".3"/><stop style="stop-color:#eee" id="stop52" offset=".604"/><stop style="stop-color:#cdcdcd" id="stop54" offset=".748"/><stop style="stop-color:#bbb" id="stop56" offset=".846"/><stop style="stop-color:#c5c5c5" id="stop58" offset=".876"/><stop style="stop-color:#d7d7d7" id="stop60" offset=".948"/><stop style="stop-color:#ddd" id="stop62" offset="1"/></linearGradient><path id="path64" fill="url(#XMLID_4_)" d="M94.969,105.834c-5.667,6-14.943,14.779-14.943,14.779s5.492-12.58,6.156-25.424 c0,0,11.898,0.123,23.818-5.621C110,89.568,100.636,99.834,94.969,105.834z"/></g></switch><path id="path2276" d="M 54.238363,22.578978 L 54.238363,20.756439 L 54.238363,22.578978 z" style="fill:#fff;fill-opacity:.75688076;fill-rule:nonzero;stroke:none;stroke-width:.5;stroke-linecap:round;stroke-linejoin:round;stroke-miterlimit:4;stroke-dasharray:none;stroke-dashoffset:4;stroke-opacity:1"/><path id="path2381" d="M 55.332631,26.444393 L 55.332631,24.705507 L 55.332631,26.444393 z" style="fill:#fff;fill-opacity:.75688076;fill-rule:nonzero;stroke:none;stroke-width:.5;stroke-linecap:round;stroke-linejoin:round;stroke-miterlimit:4;stroke-dasharray:none;stroke-dashoffset:4;stroke-opacity:1"/><path id="path2792" d="M 49.78914,85.92228 L 49.564,25.125274 L 86.97768,25.349526 C 88.08665,25.345017 88.95745,26.30148 88.96172,27.462926 L 87.45642,86.05197 C 87.46071,87.2134 86.59686,88.12516 85.48786,88.12967 L 49.78914,85.92228 z" style="fill:#2560a8;fill-opacity:1;fill-rule:nonzero;stroke:none;stroke-width:.1;stroke-linecap:round;stroke-linejoin:round;stroke-miterlimit:4;stroke-dasharray:none;stroke-dashoffset:4;stroke-opacity:.1300813"/><path style="fill:url(#linearGradient2147);fill-opacity:1;fill-rule:evenodd;stroke:none;stroke-width:1px;stroke-linecap:butt;stroke-linejoin:miter;stroke-opacity:1" id="path3740" d="M 86.40042,26.651684 C 89.08862,29.708956 88.82622,29.84804 88.72299,31.685111 L 84.22652,32.388514 L 86.40042,26.651684 z"/><path style="fill:#000;fill-opacity:1;fill-rule:nonzero;stroke:none;stroke-width:.1;stroke-linecap:round;stroke-linejoin:round;stroke-miterlimit:4;stroke-dasharray:none;stroke-dashoffset:4;stroke-opacity:.1300813" id="rect2790" d="M 50.45449,90.73049 L 46.72837,90.77402 L 46.09113,90.61066 L 45.56266,90.78763 L 41.43353,90.83588 C 40.64304,90.83908 39.99719,90.16752 39.99413,89.33964 L 39.07794,84.465922 L 38.99997,27.532221 C 39.09164,26.109942 39.93547,24.904231 41.09402,24.986152 L 49.59275,25.128684 L 50.72556,30.028461 C 51.26087,30.241742 51.63967,30.784027 51.64202,31.421562 L 51.83465,89.233 C 51.83773,90.06088 51.24498,90.72729 50.45449,90.73049 z"/><path style="fill:url(#linearGradient2143);fill-opacity:1;fill-rule:nonzero;stroke:none;stroke-width:.1;stroke-linecap:round;stroke-linejoin:round;stroke-miterlimit:4;stroke-dasharray:none;stroke-dashoffset:4;stroke-opacity:.1300813" id="path3812" d="M 50.70631,90.37435 L 46.98008,90.39153 L 46.32731,90.22567 L 45.79308,90.43597 L 41.68954,90.48088 C 40.89906,90.48408 40.21564,89.81057 40.21256,88.98269 L 39.2973,84.11377 L 39.09726,28.771328 C 39.20154,29.622538 40.89817,31.560921 41.87689,31.60335 L 51.30719,31.661928 C 50.179,50.784514 50.62306,70.456163 50.70631,90.37435 z"/><path style="fill:url(#linearGradient2139);fill-opacity:1;fill-rule:evenodd;stroke:none;stroke-width:1px;stroke-linecap:butt;stroke-linejoin:miter;stroke-opacity:1" id="path2797" d="M 87.11584,30.156325 L 86.46968,26.655339 L 41.4793,26.29837 C 39.6873,26.171671 40.02183,30.006437 42.04755,29.986965 L 87.11584,30.156325 z"/><path id="path3724" d="M 49.59669,25.168383 L 86.94571,25.331582 C 88.00349,25.327292 88.84723,26.208049 88.92635,27.296303 C 88.66247,26.463164 87.92406,25.83568 87.04115,25.83927 L 49.60132,25.661825 L 49.59669,25.168383 z" style="fill:#000;fill-opacity:.47560975;fill-rule:nonzero;stroke:none;stroke-width:.1;stroke-linecap:round;stroke-linejoin:round;stroke-miterlimit:4;stroke-dasharray:none;stroke-dashoffset:4;stroke-opacity:.1300813"/><path id="path3726" d="M 49.62538,25.268772 L 86.99984,25.519952 C 88.05764,25.515662 88.90137,26.396407 88.98049,27.484669 C 88.7166,26.651523 87.9782,26.024039 87.09529,26.027634 L 49.76523,25.879141 L 49.62538,25.268772 z" style="opacity:.49180328;fill:url(#linearGradient2135);fill-opacity:1;fill-rule:nonzero;stroke:none;stroke-width:.1;stroke-linecap:round;stroke-linejoin:round;stroke-miterlimit:4;stroke-dasharray:none;stroke-dashoffset:4;stroke-opacity:.1300813"/><path style="opacity:.34426228;fill:url(#linearGradient2132);fill-opacity:1;fill-rule:nonzero;stroke:none;stroke-width:.1;stroke-linecap:round;stroke-linejoin:round;stroke-miterlimit:4;stroke-dasharray:none;stroke-dashoffset:4;stroke-opacity:.1300813" id="path3728" d="M 49.624,25.271756 L 86.99984,25.462144 C 88.05764,25.457854 88.90137,26.338598 88.98049,27.426858 C 88.7166,26.593714 87.91857,25.64893 87.03563,25.652519 L 49.70556,25.63796 L 49.624,25.271756 z"/><g id="g5505" transform="matrix(0.551528,-6.701011e-2,-6.398318e-2,-0.57762,30.7416,98.5024)" style="opacity:.397541"><path id="path5475" d="M 30.625,118.75 C 32.625,118.75 114.11742,108.58839 114.11742,108.58839" style="fill:none;fill-opacity:.75;fill-rule:evenodd;stroke:url(#linearGradient2104);stroke-width:.1;stroke-linecap:butt;stroke-linejoin:miter;stroke-miterlimit:4;stroke-dasharray:none;stroke-opacity:1"/><path style="fill:none;fill-opacity:.75;fill-rule:evenodd;stroke:url(#linearGradient2106);stroke-width:.1;stroke-linecap:butt;stroke-linejoin:miter;stroke-miterlimit:4;stroke-dasharray:none;stroke-opacity:1" id="path5485" d="M 31.066942,117.61742 C 33.066942,117.61742 114.25,107.5 114.25,107.5"/><path id="path5489" d="M 31.464689,116.79419 C 33.464689,116.79419 114.25,106.5 114.25,106.5" style="fill:none;fill-opacity:.75;fill-rule:evenodd;stroke:url(#linearGradient2108);stroke-width:.1;stroke-linecap:butt;stroke-linejoin:miter;stroke-miterlimit:4;stroke-dasharray:none;stroke-opacity:1"/><path style="fill:none;fill-opacity:.75;fill-rule:evenodd;stroke:url(#linearGradient2110);stroke-width:.1;stroke-linecap:butt;stroke-linejoin:miter;stroke-miterlimit:4;stroke-dasharray:none;stroke-opacity:1" id="path5493" d="M 31.332107,119.81742 C 33.332107,119.81742 114.02903,109.7 114.02903,109.7"/><path id="path5497" d="M 31.906631,115.81742 C 33.906631,115.81742 114.02903,105.7 114.02903,105.7" style="fill:none;fill-opacity:.75;fill-rule:evenodd;stroke:url(#linearGradient2112);stroke-width:.1;stroke-linecap:butt;stroke-linejoin:miter;stroke-miterlimit:4;stroke-dasharray:none;stroke-opacity:1"/><path style="fill:none;fill-opacity:.75;fill-rule:evenodd;stroke:url(#linearGradient2114);stroke-width:.1;stroke-linecap:butt;stroke-linejoin:miter;stroke-miterlimit:4;stroke-dasharray:none;stroke-opacity:1" id="path5501" d="M 32.039214,120.90581 C 34.039214,120.90581 114.02903,110.7 114.02903,110.7"/></g><path style="opacity:.68999999;fill:#000;fill-opacity:.47560975;fill-rule:nonzero;stroke:none;stroke-width:.1;stroke-linecap:round;stroke-linejoin:round;stroke-miterlimit:4;stroke-dasharray:none;stroke-dashoffset:4;stroke-opacity:.1300813" id="path3732" d="M 49.59669,25.168383 L 86.94571,25.331582 C 88.00349,25.327292 88.84723,26.208049 88.92635,27.296303 C 88.6344,26.112984 87.84732,25.561447 86.96441,25.565044 L 49.6312,25.394635 L 49.59669,25.168383 z"/><path id="path3754" d="M 87.11584,30.156325 L 86.46968,26.655339 L 41.4793,26.29837 C 39.6873,26.171671 40.02183,30.006437 42.04755,29.986965 L 87.11584,30.156325 z" style="fill:url(#linearGradient2121);fill-opacity:1;fill-rule:evenodd;stroke:none;stroke-width:1px;stroke-linecap:butt;stroke-linejoin:miter;stroke-opacity:1"/><path style="opacity:.42213117;fill:url(#linearGradient2117);fill-opacity:1;fill-rule:evenodd;stroke:none;stroke-width:1px;stroke-linecap:butt;stroke-linejoin:miter;stroke-opacity:1" id="path3781" d="M 40.00707,29.134568 C 40.09955,29.544431 40.91297,30.372161 41.16255,30.448668 C 44.25091,30.429472 47.33925,30.410287 50.4276,30.391101 C 50.43618,30.606318 50.44476,30.821544 50.45333,31.036771 C 47.31595,31.049394 44.17855,31.061987 41.04115,31.074601 C 40.67175,31.105791 40.12418,29.739646 40.00707,29.134568 z"/><path id="path3791" d="M 40.00707,29.134568 C 40.09955,29.544431 41.17951,30.441142 41.42909,30.517639 C 44.51744,30.498444 47.16985,30.498336 50.25819,30.479141 C 50.26677,30.694367 50.22415,30.779774 50.23272,30.995 C 47.09534,31.007614 44.95605,30.930567 41.56369,30.963829 C 40.62627,30.973014 40.12418,29.739646 40.00707,29.134568 z" style="opacity:.42213117;fill:url(#linearGradient2113);fill-opacity:1;fill-rule:evenodd;stroke:none;stroke-width:1px;stroke-linecap:butt;stroke-linejoin:miter;stroke-opacity:1"/><path style="opacity:.42213117;fill:url(#linearGradient2109);fill-opacity:1;fill-rule:evenodd;stroke:none;stroke-width:1px;stroke-linecap:butt;stroke-linejoin:miter;stroke-opacity:1" id="path3793" d="M 40.00707,29.134568 C 40.0795,29.1172 40.15418,29.355031 40.2557,29.511304 C 40.5492,29.963104 41.0587,30.538397 41.57555,30.487442 C 44.66391,30.468256 47.16985,30.498336 50.25819,30.479141 C 50.26677,30.694367 50.17848,30.664012 50.18706,30.879219 C 47.04965,30.891842 44.68034,30.763781 41.54296,30.776394 C 40.89381,30.751884 40.36656,30.130598 40.1221,29.576062 C 40.05112,29.415023 39.96135,29.141631 40.00707,29.134568 z"/><path style="opacity:.36885244;fill:url(#linearGradient2105);fill-opacity:1;fill-rule:nonzero;stroke:none;stroke-width:.1;stroke-linecap:round;stroke-linejoin:round;stroke-miterlimit:4;stroke-dasharray:none;stroke-dashoffset:4;stroke-opacity:.1300813" id="path3799" d="M 45.58346,90.46542 L 46.00298,30.097041 L 46.67459,30.108789 L 46.11298,90.29365 L 45.58346,90.46542 z"/><path id="path3835" d="M 50.67417,88.07866 L 46.94793,88.09582 L 46.29518,87.92999 L 45.76096,88.14028 L 41.65741,88.18518 C 40.86693,88.18839 40.18351,87.51488 40.18043,86.68699 L 39.26517,81.818077 L 39.09726,28.771328 C 39.20154,29.622538 40.48491,31.610717 41.87689,31.60335 L 51.30719,31.661928 C 50.179,50.784514 50.59093,68.160476 50.67417,88.07866 z" style="fill:url(#linearGradient2101);fill-opacity:1;fill-rule:nonzero;stroke:none;stroke-width:.1;stroke-linecap:round;stroke-linejoin:round;stroke-miterlimit:4;stroke-dasharray:none;stroke-dashoffset:4;stroke-opacity:.1300813"/><path style="fill:url(#linearGradient2097);fill-opacity:1;fill-rule:nonzero;stroke:none;stroke-width:.1;stroke-linecap:round;stroke-linejoin:round;stroke-miterlimit:4;stroke-dasharray:none;stroke-dashoffset:4;stroke-opacity:.1300813" id="rect1887" d="M 50.32541,90.73611 L 50.48017,29.99899 L 87.8118,30.165589 C 88.92079,30.16108 89.79156,31.117549 89.79587,32.27899 L 88.48434,88.55577 C 88.48866,89.71721 87.6248,90.62898 86.5158,90.63347 L 50.32541,90.73611 z"/><path style="fill:#000;fill-opacity:.47560975;fill-rule:nonzero;stroke:none;stroke-width:.1;stroke-linecap:round;stroke-linejoin:round;stroke-miterlimit:4;stroke-dasharray:none;stroke-dashoffset:4;stroke-opacity:.1300813" id="path3703" d="M 50.47324,30.011084 L 87.82225,30.174303 C 88.88006,30.170001 89.72379,31.050749 89.8029,32.139003 C 89.53903,31.305869 88.8006,30.678383 87.91769,30.681969 L 50.47788,30.504535 L 50.47324,30.011084 z"/><path style="opacity:.49180328;fill:url(#linearGradient2092);fill-opacity:1;fill-rule:nonzero;stroke:none;stroke-width:.1;stroke-linecap:round;stroke-linejoin:round;stroke-miterlimit:4;stroke-dasharray:none;stroke-dashoffset:4;stroke-opacity:.1300813" id="path3718" d="M 50.50194,30.400512 L 87.87641,30.651703 C 88.9342,30.64742 89.77794,31.528168 89.85704,32.616423 C 89.59318,31.783269 88.85475,31.155794 87.97184,31.15938 L 50.48176,31.188074 L 50.50194,30.400512 z"/><path style="fill:url(#radialGradient2089);fill-opacity:1;fill-rule:nonzero;stroke:none;stroke-width:.1;stroke-linecap:round;stroke-linejoin:round;stroke-miterlimit:4;stroke-dasharray:none;stroke-dashoffset:4;stroke-opacity:.1300813" id="path3851" d="M 50.43227,91.40407 C 49.84556,91.3957 49.37501,63.98514 49.41594,30.1327 L 51.57792,30.163556 C 51.52843,64.015859 51.01899,91.41244 50.43227,91.40407 z"/><path id="path3708" d="M 50.36899,30.542945 L 87.87641,30.651703 C 88.9342,30.64742 89.77794,31.528168 89.85704,32.616423 C 89.59318,31.783269 88.79511,30.838499 87.91219,30.842085 L 50.35352,30.882057 L 50.36899,30.542945 z" style="opacity:.34426228;fill:url(#linearGradient2086);fill-opacity:1;fill-rule:nonzero;stroke:none;stroke-width:.1;stroke-linecap:round;stroke-linejoin:round;stroke-miterlimit:4;stroke-dasharray:none;stroke-dashoffset:4;stroke-opacity:.1300813"/><path id="path2084" d="M 50.32541,90.73611 L 50.48017,29.99899 L 87.8118,30.165589 C 88.92079,30.16108 89.79156,31.117549 89.79587,32.27899 L 88.48434,88.55577 C 88.48866,89.71721 87.6248,90.62898 86.5158,90.63347 L 50.32541,90.73611 z" style="fill:url(#linearGradient2093);fill-opacity:1;fill-rule:nonzero;stroke:none;stroke-width:.1;stroke-linecap:round;stroke-linejoin:round;stroke-miterlimit:4;stroke-dasharray:none;stroke-dashoffset:4;stroke-opacity:.1300813"/><path style="opacity:.34426228;fill:url(#linearGradient2083);fill-opacity:1;fill-rule:nonzero;stroke:none;stroke-width:.1;stroke-linecap:round;stroke-linejoin:round;stroke-miterlimit:4;stroke-dasharray:none;stroke-dashoffset:4;stroke-opacity:.1300813" id="path3720" d="M 50.57526,30.467951 L 87.87641,30.651703 C 88.9342,30.64742 89.77794,31.528168 89.85704,32.616423 C 89.59318,31.783269 88.84541,31.039069 87.96248,31.042645 L 50.57638,30.990079 L 50.57526,30.467951 z"/><path id="path3722" d="M 50.47324,30.011084 L 87.82225,30.174303 C 88.88006,30.170001 89.72379,31.050749 89.8029,32.139003 C 89.51096,30.955686 88.7239,30.404146 87.84097,30.407743 L 50.50775,30.237331 L 50.47324,30.011084 z" style="fill:#000;fill-opacity:.47560975;fill-rule:nonzero;stroke:none;stroke-width:.1;stroke-linecap:round;stroke-linejoin:round;stroke-miterlimit:4;stroke-dasharray:none;stroke-dashoffset:4;stroke-opacity:.1300813"/><path id="path3769" d="M 86.89214,90.62005 C 86.7624,90.6477 86.60744,90.65669 86.46881,90.65727 L 50.31772,90.74258 L 50.29334,90.42211 L 86.41445,90.36802 C 87.52342,90.36352 88.41212,89.41588 88.40783,88.25443 L 88.47124,88.59189 C 88.47502,89.60816 87.80037,90.42663 86.89214,90.62005 z" style="opacity:.34836067;fill:#000;fill-opacity:1;fill-rule:nonzero;stroke:none;stroke-width:.1;stroke-linecap:round;stroke-linejoin:round;stroke-miterlimit:4;stroke-dasharray:none;stroke-dashoffset:4;stroke-opacity:.1300813"/><path style="fill:url(#linearGradient2067);fill-opacity:1;fill-rule:nonzero;stroke:none;stroke-width:1px;stroke-linecap:butt;stroke-linejoin:miter;stroke-opacity:1" id="path2012" d="M 89.98774,44.636177 C 88.18116,46.407636 86.38283,48.188703 84.66689,50.057553 C 79.98987,55.383415 75.69166,61.050217 72.11656,67.259903 C 70.17057,70.642469 68.36242,74.102555 66.55977,77.565028 C 63.4691,81.355827 60.34911,85.119621 57.19442,88.85349 C 56.80877,89.31668 56.42743,89.78716 56.04363,90.25585 L 57.20735,90.24832 C 57.68565,89.62681 58.16484,89.00675 58.64506,88.38837 C 60.84324,85.607614 63.05071,82.834162 65.25801,80.061237 C 63.9718,82.523424 62.6714,84.979315 61.31188,87.4008 C 60.92637,88.02433 59.81724,89.34919 59.25873,90.24052 L 60.94076,90.2335 C 61.71909,89.39226 62.13857,88.26438 62.90124,86.86365 C 64.50972,83.535023 66.10892,80.206938 67.76522,76.911569 C 70.00207,74.103704 72.23867,71.296518 74.47171,68.485303 C 79.35681,62.259429 84.3869,56.148874 90.32904,51.038554 L 90.29631,50.443653 C 84.01452,55.759111 78.80724,62.234997 73.66789,68.743155 C 72.08196,70.73265 70.49099,72.717155 68.89159,74.694311 C 70.23903,72.073411 71.63217,69.477207 73.10792,66.923953 C 76.7695,60.658744 81.18514,54.965861 85.99302,49.639753 C 87.28988,48.229363 88.64977,46.887473 90.03725,45.576634 L 89.98774,44.636177 z M 90.7478,58.915665 C 89.7065,61.914432 88.53486,64.861949 87.16799,67.731427 C 84.10151,74.484822 81.00803,81.247329 77.3204,87.65953 C 76.84246,88.44923 75.76018,89.62089 75.48744,90.16807 L 76.37563,90.16309 C 76.62725,90.03662 76.93337,89.86948 77.30843,89.65185 L 76.44205,90.16395 L 76.88262,90.16223 C 77.91949,89.5362 78.17164,88.69264 79.01512,87.08232 C 82.25029,80.673339 85.10482,74.06266 87.9485,67.456326 C 89.04928,65.07357 89.98462,62.626608 90.81186,60.138936 L 90.7478,58.915665 z"/><path id="path2969" d="M 29.390845,49.041616 L 29.390845,47.397028 L 29.390845,49.041616 z" style="fill:#fff;fill-opacity:.75688076;fill-rule:nonzero;stroke:none;stroke-width:.5;stroke-linecap:round;stroke-linejoin:round;stroke-miterlimit:4;stroke-dasharray:none;stroke-dashoffset:4;stroke-opacity:1"/><path style="fill:url(#linearGradient2981);fill-opacity:1;fill-rule:evenodd;stroke:none;stroke-width:1px;stroke-linecap:butt;stroke-linejoin:miter;stroke-opacity:1" id="path2973" d="M 39.1769,76.872735 L 39.22569,84.511617 L 40.22585,89.67232 L 40.71373,90.36211 L 41.88464,90.61761 L 45.78768,90.59205 L 46.08041,90.46432 L 50.20301,90.59205 L 50.2762,77.000472 L 39.1769,76.872735 z"/><path style="opacity:.34836067;fill:#000;fill-opacity:1;fill-rule:nonzero;stroke:none;stroke-width:.1;stroke-linecap:round;stroke-linejoin:round;stroke-miterlimit:4;stroke-dasharray:none;stroke-dashoffset:4;stroke-opacity:.1300813" id="path2983" d="M 86.89214,90.62005 C 86.7624,90.6477 86.60744,90.65669 86.46881,90.65727 L 50.31772,90.74258 L 50.29334,90.13305 L 86.41445,90.07898 C 87.52342,90.07448 88.41212,89.41588 88.40783,88.25443 L 88.47124,88.59189 C 88.47502,89.60816 87.80037,90.42663 86.89214,90.62005 z"/></svg>