<svg xmlns="http://www.w3.org/2000/svg" xmlns:cc="http://web.resource.org/cc/" xmlns:svg="http://www.w3.org/2000/svg" xmlns:xlink="http://www.w3.org/1999/xlink" id="svg2606" width="128" height="128" version="1.0"><defs id="defs2608"><radialGradient id="XMLID_136_" cx="85" cy="103.305" r="139.559" gradientTransform="translate(-72,-12)" gradientUnits="userSpaceOnUse"><stop style="stop-color:#535557" id="stop8845" offset="0"/><stop style="stop-color:#6e7072" id="stop8847" offset=".03"/><stop style="stop-color:#98999b" id="stop10" offset=".084"/><stop style="stop-color:#b9babc" id="stop12" offset=".136"/><stop style="stop-color:#d1d1d3" id="stop14" offset=".186"/><stop style="stop-color:#dfdfe1" id="stop16" offset=".233"/><stop style="stop-color:#e4e4e6" id="stop18" offset=".272"/><stop style="stop-color:#dfdfe1" id="stop20" offset=".477"/><stop style="stop-color:#d0d0d3" id="stop22" offset=".725"/><stop style="stop-color:#b8b8bc" id="stop24" offset=".994"/><stop style="stop-color:#b7b7bb" id="stop26" offset="1"/></radialGradient><linearGradient id="XMLID_138_" x1="7.839" x2="7.839" y1="8.585" y2="7.585" gradientTransform="matrix(0.9135 0.4067 -0.4067 0.9135 3.6272 -3.0738)" gradientUnits="userSpaceOnUse"><stop style="stop-color:#888a85" id="stop38" offset="0"/><stop style="stop-color:#7a7c78" id="stop8774" offset=".223"/><stop style="stop-color:#565654" id="stop8776" offset=".644"/><stop style="stop-color:#323232" id="stop44" offset="1"/></linearGradient><linearGradient id="XMLID_137_" x1="7.464" x2="7.464" y1="3.502" y2="11.501" gradientTransform="matrix(0.9695 0.2451 -0.2451 0.9695 2.1015 -1.6022)" gradientUnits="userSpaceOnUse"><stop style="stop-color:#fff;stop-opacity:1" id="stop8767" offset="0"/><stop style="stop-color:#888" id="stop8769" offset="1"/></linearGradient><filter id="filter5206"><feGaussianBlur id="feGaussianBlur5208" stdDeviation=".178"/></filter><linearGradient id="linearGradient3308"><stop id="stop3310" offset="0" style="stop-color:#fff;stop-opacity:1"/><stop id="stop3312" offset="1" style="stop-color:#fff;stop-opacity:0"/></linearGradient><radialGradient id="XMLID_28_" cx="34" cy="42" r="32" gradientTransform="matrix(0.375,0,0,1,-22.749756,-40)" gradientUnits="userSpaceOnUse"><stop style="stop-color:#5f5f5f;stop-opacity:1" id="stop120" offset="0"/><stop id="stop8913" offset=".654" style="stop-color:#252525;stop-opacity:1"/><stop style="stop-color:#3b3b3b;stop-opacity:1" id="stop130" offset="1"/></radialGradient><radialGradient id="XMLID_27_" cx="33.5" cy="77.833" r="75.666" gradientTransform="translate(-44,-40)" gradientUnits="userSpaceOnUse"><stop style="stop-color:#babdb6" id="stop69" offset=".077"/><stop style="stop-color:#b2b5af" id="stop71" offset=".089"/><stop style="stop-color:#9da19b" id="stop73" offset=".106"/><stop style="stop-color:#7a7e7c" id="stop75" offset=".128"/><stop style="stop-color:#4a4f50" id="stop77" offset=".153"/><stop style="stop-color:#2e3436" id="stop79" offset=".166"/><stop style="stop-color:#363b3d" id="stop81" offset=".175"/><stop style="stop-color:#4b5050" id="stop3163" offset=".19"/><stop style="stop-color:#6e716e" id="stop3165" offset=".207"/><stop style="stop-color:#888a85" id="stop3167" offset=".219"/><stop style="stop-color:#90928c" id="stop3169" offset=".287"/><stop style="stop-color:#a4a7a1" id="stop3171" offset=".392"/><stop style="stop-color:#c6cac2" id="stop3173" offset=".519"/><stop style="stop-color:#d3d7cf" id="stop3175" offset=".562"/><stop style="stop-color:#eaece8" id="stop3177" offset=".575"/><stop style="stop-color:#f9faf9" id="stop3179" offset=".588"/><stop style="stop-color:#fff" id="stop101" offset=".598"/><stop style="stop-color:#e8eae6" id="stop103" offset=".611"/><stop style="stop-color:#d9dcd5" id="stop105" offset=".624"/><stop style="stop-color:#d3d7cf" id="stop107" offset=".633"/><stop style="stop-color:#babdb6" id="stop109" offset=".717"/><stop style="stop-color:#9ea19b" id="stop111" offset=".829"/><stop style="stop-color:#8e908b" id="stop113" offset=".927"/><stop style="stop-color:#888a85" id="stop115" offset="1"/></radialGradient><linearGradient id="XMLID_26_" x1="34" x2="34" y1="78" y2="6" gradientTransform="translate(-44,-40)" gradientUnits="userSpaceOnUse"><stop style="stop-color:#f0f1f2;stop-opacity:1" id="stop60" offset="0"/><stop style="stop-color:#fff" id="stop64" offset="1"/></linearGradient><linearGradient id="XMLID_25_" x1="34" x2="34" y1="82" y2="2" gradientTransform="translate(-44,-40)" gradientUnits="userSpaceOnUse"><stop style="stop-color:#888a85" id="stop3143" offset="0"/><stop style="stop-color:#c9ccc4" id="stop3145" offset=".799"/><stop style="stop-color:#babdb6" id="stop3147" offset="1"/></linearGradient><linearGradient id="linearGradient2854"><stop style="stop-color:#fff;stop-opacity:1" id="stop2856" offset="0"/><stop style="stop-color:#fff;stop-opacity:0" id="stop2858" offset="1"/></linearGradient><linearGradient id="linearGradient2860" x1="43.176" x2="43.176" y1="2" y2="52.048" gradientUnits="userSpaceOnUse" xlink:href="#linearGradient2854"/><linearGradient id="XMLID_23_" x1="2" x2="66" y1="42" y2="42" gradientTransform="translate(-44,-40)" gradientUnits="userSpaceOnUse"><stop style="stop-color:#babdb6" id="stop13" offset="0"/><stop style="stop-color:#bcbfb8" id="stop15" offset=".009"/><stop style="stop-color:#d2d4d0" id="stop17" offset=".114"/><stop style="stop-color:#e2e2e1" id="stop19" offset=".225"/><stop style="stop-color:#ebebeb" id="stop21" offset=".348"/><stop style="stop-color:#eee" id="stop23" offset=".5"/><stop style="stop-color:#ebebeb" id="stop25" offset=".652"/><stop style="stop-color:#e2e2e1" id="stop27" offset=".775"/><stop style="stop-color:#d2d4d0" id="stop29" offset=".886"/><stop style="stop-color:#bcbfb8" id="stop31" offset=".991"/><stop style="stop-color:#babdb6" id="stop33" offset="1"/></linearGradient><linearGradient id="XMLID_22_" x1="34" x2="34" y1="81.529" y2="2.471" gradientTransform="translate(-44,-40)" gradientUnits="userSpaceOnUse"><stop style="stop-color:#888a85" id="stop4" offset="0"/><stop style="stop-color:#888a85" id="stop6" offset=".509"/><stop style="stop-color:#2e3436" id="stop8" offset="1"/></linearGradient><linearGradient id="linearGradient10207"><stop style="stop-color:#a2a2a2;stop-opacity:1" id="stop10209" offset="0"/><stop style="stop-color:#fff;stop-opacity:1" id="stop10211" offset="1"/></linearGradient><linearGradient id="XMLID_12_" x1="96" x2="88" y1="104" y2="96" gradientUnits="userSpaceOnUse"><stop style="stop-color:#888a85" id="stop83" offset="0"/><stop style="stop-color:#8c8e89" id="stop85" offset=".007"/><stop style="stop-color:#abaca9" id="stop87" offset=".067"/><stop style="stop-color:#c5c6c4" id="stop89" offset=".135"/><stop style="stop-color:#dbdbda" id="stop91" offset=".265"/><stop style="stop-color:#ebebeb" id="stop93" offset=".376"/><stop style="stop-color:#f7f7f6" id="stop95" offset=".487"/><stop style="stop-color:#fdfdfd" id="stop97" offset=".632"/><stop style="stop-color:#fff" id="stop99" offset="1"/></linearGradient><radialGradient id="XMLID_8_" cx="102" cy="112.305" r="139.559" gradientUnits="userSpaceOnUse"><stop style="stop-color:#b7b8b9;stop-opacity:1" id="stop41" offset="0"/><stop style="stop-color:#ececec" id="stop47" offset=".189"/><stop style="stop-color:#fafafa" id="stop49" offset=".257"/><stop style="stop-color:#fff" id="stop51" offset=".301"/><stop style="stop-color:#fafafa" id="stop53" offset=".531"/><stop style="stop-color:#ebecec" id="stop55" offset=".845"/><stop style="stop-color:#e1e2e3" id="stop57" offset="1"/></radialGradient><filter id="filter6697" width="1.384" height="1.384" x="-.192" y="-.192"><feGaussianBlur id="feGaussianBlur6699" stdDeviation="1.945"/></filter><clipPath id="clipPath7084" clipPathUnits="userSpaceOnUse"><path style="fill:#000;fill-opacity:1;fill-rule:evenodd;stroke:none;stroke-width:1px;stroke-linecap:butt;stroke-linejoin:miter;stroke-opacity:1" id="path7086" d="M 72,88 L 40,120 L 32,120 L 32,80 L 72,80 L 72,88 z"/></clipPath><radialGradient id="radialGradient9437" cx="102" cy="112.305" r="139.559" gradientTransform="matrix(1,0,0,0.9996653,2e-6,3.0160848e-3)" gradientUnits="userSpaceOnUse" xlink:href="#XMLID_136_"/><filter id="filter2770"><feGaussianBlur id="feGaussianBlur2772" stdDeviation="2.079"/></filter><linearGradient id="linearGradient3234" x1="43.176" x2="43.176" y1="2" y2="52.048" gradientUnits="userSpaceOnUse" xlink:href="#linearGradient2854"/><linearGradient id="linearGradient3292" x1="43.176" x2="43.176" y1="2" y2="52.048" gradientUnits="userSpaceOnUse" xlink:href="#linearGradient2854"/><linearGradient id="linearGradient3306" x1="98.617" x2="91.229" y1="106.414" y2="99.255" gradientTransform="translate(10,0)" gradientUnits="userSpaceOnUse" xlink:href="#linearGradient10207"/><filter id="filter3328"><feGaussianBlur id="feGaussianBlur3330" stdDeviation=".521"/></filter><linearGradient id="linearGradient8859" x1="43.176" x2="43.176" y1="2" y2="52.048" gradientUnits="userSpaceOnUse" xlink:href="#linearGradient2854"/><linearGradient id="linearGradient8867" x1="7.464" x2="7.464" y1="3.502" y2="11.501" gradientTransform="matrix(0.9695,0.2451,-0.2451,0.9695,2.1015,-1.6022)" gradientUnits="userSpaceOnUse" xlink:href="#XMLID_137_"/><linearGradient id="linearGradient8869" x1="7.839" x2="7.839" y1="8.585" y2="7.585" gradientTransform="matrix(0.9135,0.4067,-0.4067,0.9135,3.6272,-3.0738)" gradientUnits="userSpaceOnUse" xlink:href="#XMLID_138_"/><linearGradient id="linearGradient8871" x1="7.464" x2="7.464" y1="3.502" y2="11.501" gradientTransform="matrix(0.9695,0.2451,-0.2451,0.9695,2.1015,-1.6022)" gradientUnits="userSpaceOnUse" xlink:href="#XMLID_137_"/><linearGradient id="linearGradient8873" x1="7.839" x2="7.839" y1="8.585" y2="7.585" gradientTransform="matrix(0.8653713,-0.5010186,0.5010186,0.8653713,-3.3342251,4.4313796)" gradientUnits="userSpaceOnUse" xlink:href="#XMLID_138_"/><linearGradient id="linearGradient8875" x1="7.464" x2="7.464" y1="3.502" y2="11.501" gradientTransform="matrix(0.9695,0.2451,-0.2451,0.9695,2.1015,-1.6022)" gradientUnits="userSpaceOnUse" xlink:href="#XMLID_137_"/><linearGradient id="linearGradient8877" x1="7.839" x2="7.839" y1="8.585" y2="7.585" gradientTransform="matrix(0.1088575,0.9940006,-0.9940006,0.1088575,14.683415,-1.1725681)" gradientUnits="userSpaceOnUse" xlink:href="#XMLID_138_"/><radialGradient id="radialGradient8900" cx="-10" cy="8.835" r="12" fx="-10" fy="16.808" gradientTransform="matrix(1.8374823,0,0,4.373016,82.374823,43.42419)" gradientUnits="userSpaceOnUse" xlink:href="#XMLID_28_"/><radialGradient id="radialGradient8903" cx="33.5" cy="77.833" r="75.666" gradientTransform="matrix(1.0126051,0,0,0.9817928,29.571428,22.764705)" gradientUnits="userSpaceOnUse" xlink:href="#XMLID_27_"/><linearGradient id="linearGradient8911" x1="50" x2="16.565" y1="64.737" y2="6" gradientTransform="translate(-44,-40)" gradientUnits="userSpaceOnUse" xlink:href="#XMLID_26_"/><clipPath id="clipPath8917" clipPathUnits="userSpaceOnUse"><path style="fill:#0057ae;fill-opacity:1" id="path8919" d="M 22,22 C 22,26.597656 24.692871,30.84961 28.86084,32.831543 L 22.775879,69.342772 C 22.739746,69.561523 22.72168,69.78125 22.72168,70 C 22.72168,70.939453 23.053223,71.857422 23.669434,72.585938 C 24.429687,73.482422 25.545898,74 26.72168,74 L 41.27832,74 C 42.454102,74 43.570312,73.482422 44.330078,72.584961 C 44.947265,71.857422 45.27832,70.939453 45.27832,70 C 45.27832,69.78125 45.260742,69.561523 45.223632,69.341797 L 39.138672,32.831055 C 43.30664,30.850098 46,26.598633 46,22 C 46,15.383301 40.617187,10 34,10 C 27.383301,10 22,15.383301 22,22 z"/></clipPath><filter id="filter9302"><feGaussianBlur id="feGaussianBlur9304" stdDeviation=".866"/></filter></defs><metadata id="metadata2611"/><g id="layer1"><path style="opacity:.5;fill:#000;fill-opacity:1;filter:url(#filter2770)" id="path7865" d="M 16,8 L 16,120 C 16,120 79.15625,120 79.15625,120 L 79.1875,120 C 79.187503,120 91.09375,110.09375 96.59375,104.59375 C 102.09375,99.09375 112,87.1875 112,87.1875 L 112,87.15625 L 112,8 L 16,8 z" transform="matrix(1.0416667,0,0,1.0267857,-2.6666667,-1.2142891)"/><path style="fill:#fff;fill-opacity:1" id="path34" d="M 16.000001,8 L 16,120 C 16,120 79.146418,120 79.146418,120 L 112,87.14642 L 112,8 L 16.000001,8 z"/><path style="fill:url(#radialGradient9437);fill-opacity:1" id="path59" d="M 18.000002,9.0000034 C 17.449002,9.0000034 17.000002,9.4488534 17.000002,9.9996684 L 17.000002,117.96352 C 17.000002,118.51533 17.449002,118.96318 18.000002,118.96318 L 77.171999,118.96318 C 77.434999,118.96318 79.934679,119.08131 80.12068,118.89438 L 110.707,88.094202 C 110.894,87.907264 111,85.40942 111,85.146508 L 111,9.9996684 C 111,9.4488534 110.552,9.0000034 110,9.0000034 L 18.000002,9.0000034 z"/><g id="g37" transform="matrix(0.9411765,0,0,0.952381,31.999999,23.999999)" style="opacity:.5;fill:url(#linearGradient8859);fill-opacity:1"><linearGradient id="XMLID_24_" x1="34" x2="34" y1="6.75" y2="50.25" gradientUnits="userSpaceOnUse"><stop style="stop-color:#fff;fill-opacity:1;fill:url(#linearGradient2860)" id="stop40" offset="0"/><stop style="stop-color:#000;fill-opacity:1;fill:url(#linearGradient2860)" id="stop42" offset="1"/></linearGradient><path id="path44" d="M 2,2 L 2,40.86084 C 12.473633,36.993652 24.851562,34.75 38.125,34.75 C 48.060547,34.75 57.488281,36.013184 66,38.264648 L 66,2 L 2,2 z" style="fill:#fff;fill-opacity:0"/></g><path id="path66" d="M -26,-18 C -26,-12.924316 -23.51709,-8.1943359 -19.520996,-5.2075195 C -20.273437,-0.6943359 -25.169922,28.685547 -25.169922,28.685547 C -25.170898,28.69043 -25.27832,30 -25.27832,30 C -25.27832,31.889648 -24.605957,33.725586 -23.384766,35.168945 C -21.85791,36.969727 -19.633301,38 -17.27832,38 L -2.7216797,38 C -0.3652344,38 1.8603515,36.96875 3.3828125,35.169922 C 4.6044922,33.729492 5.2783203,31.892578 5.2783203,30 L 5.1679687,28.675781 C 5.1679687,28.675781 0.9023437,3.0810546 -0.4794922,-5.2075196 C 3.5166016,-8.1938477 6,-12.923828 6,-18 C 6,-26.822266 -1.1777344,-34 -10,-34 C -18.822266,-34 -26,-26.822266 -26,-18 z" transform="matrix(1.0036765,0,0,0.9801588,74.036765,62.039683)" style="fill:url(#linearGradient8911);filter:url(#filter3328);opacity:.80000000000000004"/><path id="path117" d="M 49.823529,44.364146 C 49.823529,48.635519 51.972348,52.742462 55.571348,55.350829 C 56.088034,55.725233 56.384201,56.310569 56.384201,56.923711 C 56.384201,57.030615 56.375301,57.138957 56.356513,57.24682 C 56.356513,57.24682 50.677421,90.28501 50.650225,90.443209 C 50.641326,90.549633 50.576061,91.312824 50.558755,91.516085 C 50.565184,92.898649 51.070992,94.240944 51.99262,95.296563 C 53.150589,96.620641 54.841066,97.380955 56.629937,97.380955 L 71.370064,97.380955 C 73.159923,97.380955 74.849905,96.621599 76.005897,95.297522 C 76.928514,94.241903 77.434817,92.900566 77.44075,91.516085 C 77.42295,91.311864 77.358674,90.559221 77.347796,90.43362 C 77.321097,90.275421 71.642993,57.24682 71.642993,57.24682 C 71.624204,57.138957 71.615304,57.030615 71.615304,56.92371 C 71.615304,56.310569 71.911966,55.725233 72.428157,55.350829 C 76.027652,52.742942 78.176471,48.635519 78.176471,44.364146 C 78.176471,36.784974 71.817034,30.619047 64,30.619047 C 56.182965,30.619047 49.823529,36.784974 49.823529,44.364146 z" style="opacity:.5;fill:url(#radialGradient8903)"/><path id="path132" d="M 52.705882,44.952381 C 52.705882,49.331101 55.240349,53.380581 59.163143,55.268137 L 53.436121,90.040738 C 53.402114,90.249072 53.38511,90.458336 53.38511,90.666669 C 53.38511,91.561386 53.697151,92.435642 54.277114,93.129467 C 54.992646,93.983262 56.043198,94.476193 57.149816,94.476193 L 70.850184,94.476193 C 71.956802,94.476193 73.007353,93.983262 73.722427,93.128537 C 74.303309,92.435642 74.61489,91.561386 74.61489,90.666669 C 74.61489,90.458336 74.598346,90.249072 74.563419,90.039809 L 68.836397,55.267672 C 72.759191,53.381046 75.294118,49.332032 75.294118,44.952381 C 75.294118,38.650763 70.227941,33.523809 64,33.523809 C 57.772518,33.523809 52.705882,38.650763 52.705882,44.952381 z" style="fill:url(#radialGradient8900);fill-opacity:1"/><g id="g134" clip-path="url(#clipPath8917)" transform="matrix(0.9411765,0,0,0.952381,31.999999,23.999999)" style="opacity:1;filter:url(#filter9302)"><path id="path136" d="M 24.72168,73 C 24.72168,72.78125 24.739746,72.561523 24.775879,72.342773 L 30.86084,35.831543 C 30.045898,35.443848 29.289062,34.967285 28.596191,34.42041 L 22.775879,69.342773 C 22.739746,69.561523 22.72168,69.78125 22.72168,70 C 22.72168,70.939453 23.053223,71.857422 23.669434,72.585938 C 23.978027,72.950195 24.355957,73.232422 24.762207,73.461914 C 24.744629,73.308594 24.72168,73.155273 24.72168,73 z"/><path id="path138" d="M 24,25 C 24,18.383301 29.383301,13 36,13 C 39.514648,13 42.670898,14.527832 44.867188,16.942871 C 42.954102,12.849609 38.808594,10 34,10 C 27.383301,10 22,15.383301 22,22 C 22,25.013184 23.162109,27.873535 25.132812,30.047852 C 24.40332,28.489258 24,26.771484 24,25 z"/></g><g id="g5214" transform="translate(16.749,8.2500001)"><circle id="circle5210" cx="86" cy="7.5" r="4" transform="translate(-78.499,0)" style="opacity:.7;fill:none;stroke:#000;stroke-width:.5;stroke-miterlimit:4;stroke-dasharray:none;stroke-opacity:1;filter:url(#filter5206)"/><circle style="fill:url(#linearGradient8867)" id="circle35" cx="7.5" cy="7.5" r="3.999"/><path style="fill:url(#linearGradient8869)" id="path46" d="M 4.61,5.666 C 4.479,5.783 4.372,5.918 4.303,6.077 C 4.232,6.235 4.203,6.404 4.205,6.58 L 10.39,9.334 C 10.521,9.217 10.628,9.082 10.698,8.923 C 10.769,8.765 10.798,8.596 10.796,8.42 L 4.61,5.666 z"/></g><g id="g5219" transform="translate(95.248002,8.2500001)"><circle style="opacity:.7;fill:none;stroke:#000;stroke-width:.5;stroke-miterlimit:4;stroke-dasharray:none;stroke-opacity:1;filter:url(#filter5206)" id="circle5221" cx="86" cy="7.5" r="4" transform="translate(-78.499,0)"/><circle style="fill:url(#linearGradient8871)" id="circle5223" cx="7.5" cy="7.5" r="3.999"/><path style="fill:url(#linearGradient8873)" id="path5225" d="M 4.3192772,8.7642657 C 4.337141,8.9389966 4.3836634,9.104857 4.4719182,9.2540317 C 4.5581895,9.4042391 4.6780142,9.5268933 4.8216983,9.6285539 L 10.681136,6.236544 C 10.663272,6.0618131 10.61675,5.8959527 10.529082,5.7459683 C 10.44281,5.5957609 10.322986,5.4731067 10.179302,5.3714461 L 4.3192772,8.7642657 z"/></g><g id="g5231" transform="translate(16.749,104.25)"><circle style="opacity:.7;fill:none;stroke:#000;stroke-width:.5;stroke-miterlimit:4;stroke-dasharray:none;stroke-opacity:1;filter:url(#filter5206)" id="circle5233" cx="86" cy="7.5" r="4" transform="translate(-78.499,0)"/><circle style="fill:url(#linearGradient8875)" id="circle5235" cx="7.5" cy="7.5" r="3.999"/><path style="fill:url(#linearGradient8877)" id="path5237" d="M 7.6286781,4.0791643 C 7.461616,4.0249404 7.2910948,4.0005164 7.1189842,4.0210086 C 6.9467299,4.0392695 6.7861312,4.0993531 6.635102,4.1897422 L 7.3718181,10.919972 C 7.5388802,10.974196 7.7094014,10.99862 7.8820158,10.978991 C 8.0542701,10.960731 8.2148688,10.900647 8.365898,10.810258 L 7.6286781,4.0791643 z"/></g><g id="g3302" transform="translate(-10,0)"><path style="opacity:.4;fill:#000;fill-opacity:1;filter:url(#filter6697)" id="path5540" d="M 41.879531,115.98249 C 41.879531,115.98249 66.18914,91.672876 66.18914,91.672876 C 66.18914,91.672876 56.836,94.586 46.586,94.586 C 46.586,104.836 41.879531,115.98249 41.879531,115.98249 z" clip-path="url(#clipPath7084)" transform="translate(50,0)"/><path id="path14523" d="M 89.172,120 C 89.172,120 101.086,110.086 106.586,104.586 C 112.086,99.086 122,87.172 122,87.172 C 122,87.172 108.25,96 98,96 C 98,106.25 89.172,120 89.172,120 z" style="fill:url(#linearGradient3306);fill-opacity:1"/></g></g></svg>