<svg xmlns="http://www.w3.org/2000/svg" xmlns:svg="http://www.w3.org/2000/svg" xmlns:xlink="http://www.w3.org/1999/xlink" id="svg2606" width="128" height="128" version="1.0"><defs id="defs2608"><linearGradient id="linearGradient10207"><stop id="stop10209" offset="0" style="stop-color:#a2a2a2;stop-opacity:1"/><stop id="stop10211" offset="1" style="stop-color:#fff;stop-opacity:1"/></linearGradient><linearGradient id="XMLID_12_" x1="96" x2="88" y1="104" y2="96" gradientUnits="userSpaceOnUse"><stop id="stop83" offset="0" style="stop-color:#888a85;stop-opacity:1"/><stop id="stop85" offset=".007" style="stop-color:#8c8e89;stop-opacity:1"/><stop id="stop87" offset=".067" style="stop-color:#abaca9;stop-opacity:1"/><stop id="stop89" offset=".135" style="stop-color:#c5c6c4;stop-opacity:1"/><stop id="stop91" offset=".265" style="stop-color:#dbdbda;stop-opacity:1"/><stop id="stop93" offset=".376" style="stop-color:#ebebeb;stop-opacity:1"/><stop id="stop95" offset=".487" style="stop-color:#f7f7f6;stop-opacity:1"/><stop id="stop97" offset=".632" style="stop-color:#fdfdfd;stop-opacity:1"/><stop id="stop99" offset="1" style="stop-color:#fff;stop-opacity:1"/></linearGradient><radialGradient id="XMLID_8_" cx="102" cy="112.305" r="139.559" gradientUnits="userSpaceOnUse"><stop id="stop41" offset="0" style="stop-color:#b7b8b9;stop-opacity:1"/><stop id="stop47" offset=".189" style="stop-color:#ececec;stop-opacity:1"/><stop id="stop49" offset=".257" style="stop-color:#fafafa;stop-opacity:1"/><stop id="stop51" offset=".301" style="stop-color:#fff;stop-opacity:1"/><stop id="stop53" offset=".531" style="stop-color:#fafafa;stop-opacity:1"/><stop id="stop55" offset=".845" style="stop-color:#ebecec;stop-opacity:1"/><stop id="stop57" offset="1" style="stop-color:#e1e2e3;stop-opacity:1"/></radialGradient><filter id="filter6697" width="1.384" height="1.384" x="-.192" y="-.192" color-interpolation-filters="sRGB"><feGaussianBlur id="feGaussianBlur6699" stdDeviation="1.945"/></filter><clipPath id="clipPath7084"><path id="path7086" d="m 72,88 -32,32 -8,0 0,-40 40,0 0,8 z" style="fill:#000;fill-opacity:1;fill-rule:evenodd;stroke:none"/></clipPath><radialGradient id="radialGradient9437" cx="102" cy="112.305" r="139.559" gradientTransform="matrix(1,0,0,0.9996653,2e-6,0.00301608)" gradientUnits="userSpaceOnUse" xlink:href="#XMLID_8_"/><linearGradient id="linearGradient10213" x1="98.617" x2="91.229" y1="106.414" y2="99.255" gradientUnits="userSpaceOnUse" xlink:href="#linearGradient10207"/><filter id="filter2770" color-interpolation-filters="sRGB"><feGaussianBlur id="feGaussianBlur2772" stdDeviation="2.079"/></filter></defs><metadata id="metadata2611"/><g id="layer1"><path id="path7865" d="m 16,8 0,112 c 0,0 63.15625,0 63.15625,0 l 0.03125,0 c 3e-6,0 11.90625,-9.90625 17.40625,-15.40625 C 102.09375,99.09375 112,87.1875 112,87.1875 L 112,87.15625 112,8 16,8 z" transform="matrix(1.0416667,0,0,1.0267857,-2.6666667,-1.2142891)" style="opacity:.5;fill:#000;fill-opacity:1;filter:url(#filter2770)"/><path id="path34" d="M 16.000001,8 16,120 c 0,0 63.146418,0 63.146418,0 L 112,87.14642 112,8 16.000001,8 z" style="fill:#fff;fill-opacity:1"/><path id="path59" d="m 18.000002,9.0000034 c -0.551,0 -1,0.44885 -1,0.999665 l 0,107.9638516 c 0,0.55181 0.449,0.99966 1,0.99966 l 59.171997,0 c 0.263,0 2.76268,0.11813 2.948681,-0.0688 L 110.707,88.094202 C 110.894,87.907264 111,85.40942 111,85.146508 l 0,-75.1468396 c 0,-0.550815 -0.448,-0.999665 -1,-0.999665 l -91.999998,0 z" style="fill:url(#radialGradient9437);fill-opacity:1"/><path id="path5540" d="m 41.879531,115.98249 c 0,0 24.309609,-24.309614 24.309609,-24.309614 0,0 -9.35314,2.913124 -19.60314,2.913124 0,10.25 -4.706469,21.39649 -4.706469,21.39649 z" clip-path="url(#clipPath7084)" transform="translate(40,0)" style="opacity:.4;fill:#000;fill-opacity:1;filter:url(#filter6697)"/><path id="path14523" d="m 79.172,120 c 0,0 11.914,-9.914 17.414,-15.414 5.5,-5.5 15.414,-17.414 15.414,-17.414 0,0 -13.75,8.828 -24,8.828 0,10.25 -8.828,24 -8.828,24 z" style="fill:url(#linearGradient10213);fill-opacity:1"/><text id="text3772" x="64.902" y="32.104" xml:space="preserve" style="font-size:28px;font-style:normal;font-variant:normal;font-weight:400;font-stretch:normal;text-align:center;line-height:125%;writing-mode:lr-tb;text-anchor:middle;fill:#000;fill-opacity:1;stroke:none;font-family:DejaVu Sans;-inkscape-font-specification:DejaVu Sans"><tspan id="tspan3774" x="64.902" y="32.104" style="font-size:28px;font-style:normal;font-variant:normal;font-weight:400;font-stretch:normal;text-align:center;line-height:125%;writing-mode:lr-tb;text-anchor:middle;fill:#000;fill-opacity:1;font-family:DejaVu Sans;-inkscape-font-specification:DejaVu Sans">mobi</tspan></text><path id="path4047" d="m 68.227,60.477999 c 0,2.157 0.052,3.954 -1.035,5.874 -0.88,1.561 -2.279,2.517 -3.833,2.517 -2.121,0 -3.366,-1.62 -3.366,-4.015 C 59.993,60.14 64.225,59.283 68.226,59.283 v 1.194999 z m 5.579,13.496 c -0.365,0.332 -0.896,0.352 -1.307,0.132 -1.838,-1.528 -2.167,-2.231 -3.174,-3.69 -3.035,3.094 -5.188,4.023 -9.123,4.023 -4.663,0 -8.284,-2.876 -8.284,-8.629 0,-4.49 2.433,-7.543999 5.899,-9.044999 3.005,-1.317 7.202,-1.556 10.41,-1.914 v -0.723 c 0,-1.313 0.104,-2.875 -0.671,-4.012 -0.674,-1.021 -1.968,-1.437 -3.106,-1.437 -2.111,0 -3.99,1.078 -4.45,3.321 -0.097,0.498 -0.46,0.991 -0.962,1.017 l -5.364,-0.581 c -0.456,-0.102 -0.958,-0.463 -0.828,-1.155 1.233,-6.511 7.109,-8.475 12.378,-8.475 2.693,0 6.215,0.719 8.335,2.757 2.692997,2.515 2.431997,5.869 2.431997,9.524 v 8.622999 c 0,2.596 1.081,3.732 2.091,5.128 0.354,0.503 0.434,1.103 -0.018,1.473 -1.131,0.949 -3.138997,2.693 -4.243997,3.676 l -0.014,-0.013 z" style="fill-rule:evenodd"/><path id="path3858" d="m 99.325111,79.885297 c -8.716894,6.432161 -21.357191,9.853809 -32.243032,9.853809 -15.251419,0 -28.989193,-5.636741 -39.38419,-15.021522 -0.815557,-0.738364 -0.08726,-1.746902 0.89191,-1.173831 C 39.807066,80.071565 53.675732,84 68,84 c 9.664184,0 20.284886,-2.004491 30.058986,-6.151079 1.474215,-0.623415 2.709284,0.97246 1.266125,2.036376 z" style="fill:#ff9201;fill-rule:evenodd"/><path id="path3860" d="m 104,76 c -1.11342,-1.426386 -7.371903,-0.676274 -10.179364,-0.337298 -0.853315,0.09817 -0.984206,-0.641874 -0.217315,-1.184739 4.990671,-3.505554 13.168059,-2.491141 14.119539,-1.318987 0.95736,1.187256 -0.25087,9.384779 -4.92858,13.293915 -0.71907,0.604117 -1.40373,0.286117 -1.08573,-0.510142 C 102.75988,83.311486 105.11761,77.427225 104,76 z" style="fill:#ff9201;fill-rule:evenodd"/></g></svg>