<svg xmlns="http://www.w3.org/2000/svg" xmlns:xlink="http://www.w3.org/1999/xlink" version="1" width="128" height="128"><defs><linearGradient id="b"><stop offset="0" stop-color="#a2a2a2"/><stop offset="1" stop-color="#fff"/></linearGradient><linearGradient x1="96" y1="104" x2="88" y2="96" gradientUnits="userSpaceOnUse"><stop offset="0" stop-color="#888a85"/><stop offset=".007" stop-color="#8c8e89"/><stop offset=".067" stop-color="#abaca9"/><stop offset=".135" stop-color="#c5c6c4"/><stop offset=".265" stop-color="#dbdbda"/><stop offset=".376" stop-color="#ebebeb"/><stop offset=".487" stop-color="#f7f7f6"/><stop offset=".632" stop-color="#fdfdfd"/><stop offset="1" stop-color="#fff"/></linearGradient><radialGradient cx="102" cy="112.305" r="139.559" id="a" gradientUnits="userSpaceOnUse"><stop offset="0" stop-color="#b7b8b9"/><stop offset=".189" stop-color="#ececec"/><stop offset=".257" stop-color="#fafafa"/><stop offset=".301" stop-color="#fff"/><stop offset=".531" stop-color="#fafafa"/><stop offset=".845" stop-color="#ebecec"/><stop offset="1" stop-color="#e1e2e3"/></radialGradient><filter x="-.192" y="-.192" width="1.384" height="1.384" color-interpolation-filters="sRGB" id="f"><feGaussianBlur stdDeviation="1.945"/></filter><clipPath id="e"><path d="M72 88l-32 32h-8v-40h40v8z" fill-rule="evenodd"/></clipPath><radialGradient cx="102" cy="112.305" r="139.559" id="d" xlink:href="#a" gradientUnits="userSpaceOnUse" gradientTransform="translate(0 .003)"/><linearGradient x1="98.617" y1="106.414" x2="91.229" y2="99.255" id="g" xlink:href="#b" gradientUnits="userSpaceOnUse"/><filter color-interpolation-filters="sRGB" id="c"><feGaussianBlur stdDeviation="2.079"/></filter></defs><path d="M14 7v115h65.821s12.402-10.172 18.132-15.819c5.729-5.647 16.048-17.872 16.048-17.872v-81.309h-100z" opacity=".5" filter="url(#c)"/><path d="M16 8v112h63.146l32.854-32.854v-79.146h-96z" fill="#fff"/><path d="M18 9c-.551 0-1 .449-1 1v107.964c0 .552.449 1 1 1h59.172c.263 0 2.763.118 2.949-.069l30.586-30.8c.187-.187.293-2.685.293-2.948v-75.147c0-.551-.448-1-1-1h-92z" fill="url(#d)"/><path d="M81.88 115.982l24.31-24.31s-9.353 2.913-19.603 2.913c0 10.25-4.706 21.396-4.706 21.396z" clip-path="url(#e)" opacity=".4" filter="url(#f)"/><path d="M79.172 120s11.914-9.914 17.414-15.414c5.5-5.5 15.414-17.414 15.414-17.414s-13.75 8.828-24 8.828c0 10.25-8.828 24-8.828 24z" fill="url(#g)"/><text x="64.902" y="32.104" style="text-align:center;line-height:125%;-inkscape-font-specification:DejaVu Sans" font-size="28" text-anchor="middle" font-family="DejaVu Sans"><tspan x="64.902" y="32.104" style="text-align:center;line-height:125%;-inkscape-font-specification:DejaVu Sans" font-size="28" text-anchor="middle" font-family="DejaVu Sans">mobi</tspan></text><path d="M68.227 60.478c0 2.157.052 3.954-1.035 5.874-.88 1.561-2.279 2.517-3.833 2.517-2.121 0-3.366-1.62-3.366-4.015 0-4.714 4.232-5.571 8.233-5.571v1.195zm5.579 13.496c-.365.332-.896.352-1.307.132-1.838-1.528-2.167-2.231-3.174-3.69-3.035 3.094-5.188 4.023-9.123 4.023-4.663 0-8.284-2.876-8.284-8.629 0-4.49 2.433-7.544 5.899-9.045 3.005-1.317 7.202-1.556 10.41-1.914v-.723c0-1.313.104-2.875-.671-4.012-.674-1.021-1.968-1.437-3.106-1.437-2.111 0-3.99 1.078-4.45 3.321-.097.498-.46.991-.962 1.017l-5.364-.581c-.456-.102-.958-.463-.828-1.155 1.233-6.511 7.109-8.475 12.378-8.475 2.693 0 6.215.719 8.335 2.757 2.693 2.515 2.432 5.869 2.432 9.524v8.623c0 2.596 1.081 3.732 2.091 5.128.354.503.434 1.103-.018 1.473-1.131.949-3.139 2.693-4.244 3.676l-.014-.013z" fill-rule="evenodd"/><path d="M99.325 79.885c-8.717 6.432-21.357 9.854-32.243 9.854-15.251 0-28.989-5.637-39.384-15.022-.816-.738-.087-1.747.892-1.174 11.217 6.528 25.086 10.456 39.41 10.456 9.664 0 20.285-2.004 30.059-6.151 1.474-.623 2.709.972 1.266 2.036zm4.675-3.885c-1.113-1.426-7.372-.676-10.179-.337-.853.098-.984-.642-.217-1.185 4.991-3.506 13.168-2.491 14.12-1.319.957 1.187-.251 9.385-4.929 13.294-.719.604-1.404.286-1.086-.51 1.051-2.631 3.409-8.516 2.291-9.943z" fill="#ff9201" fill-rule="evenodd"/></svg>