<svg xmlns="http://www.w3.org/2000/svg" xmlns:svg="http://www.w3.org/2000/svg" xmlns:xlink="http://www.w3.org/1999/xlink" id="svg2176" width="128" height="128" version="1.0"><defs id="defs2178"><linearGradient id="linearGradient4819" x1="406.065" x2="406.065" y1="290.503" y2="276.295" gradientTransform="matrix(4.80814, 0, 0, 2.87475, -1569.44, -758.786)" gradientUnits="userSpaceOnUse" spreadMethod="pad" xlink:href="#linearGradient7431"/><linearGradient id="linearGradient4817" x1="68.374" x2="67.912" y1="-410.099" y2="-478.508" gradientTransform="matrix(1.58223, 0, 0, -0.727268, 275.522, -213.417)" gradientUnits="userSpaceOnUse" spreadMethod="pad" xlink:href="#linearGradient11367"/><linearGradient id="linearGradient4815" x1="436.488" x2="436.512" y1="-278.913" y2="-299.887" gradientTransform="matrix(4.59378, 0, 0, 0.359494, -1920.95, 434.897)" gradientUnits="userSpaceOnUse" spreadMethod="pad" xlink:href="#linearGradient11377"/><linearGradient id="linearGradient11377"><stop id="stop11379" offset="0" style="stop-color:#fff;stop-opacity:0"/><stop id="stop11385" offset="1" style="stop-color:#fff;stop-opacity:.575472"/></linearGradient><linearGradient id="linearGradient11367"><stop id="stop11369" offset="0" style="stop-color:#000;stop-opacity:0"/><stop id="stop11371" offset=".721" style="stop-color:#000;stop-opacity:.254717"/><stop id="stop18428" offset=".91" style="stop-color:#000;stop-opacity:.12549"/><stop id="stop11375" offset="1" style="stop-color:#000;stop-opacity:0"/></linearGradient><linearGradient id="linearGradient7431"><stop id="stop7433" offset="0" style="stop-color:#fff;stop-opacity:0"/><stop id="stop7439" offset=".72" style="stop-color:#fff;stop-opacity:.858491"/><stop id="stop8224" offset=".9" style="stop-color:#fff;stop-opacity:.707547"/><stop id="stop7435" offset="1" style="stop-color:#fff;stop-opacity:.320755"/></linearGradient><filter id="filter3659"><feGaussianBlur id="feGaussianBlur3661" stdDeviation=".252"/></filter></defs><g id="layer1"><g id="g4500" transform="matrix(1.1475, 0, 0, 1.1475, -368.661, -33.5075)"><path id="path21978" d="M 326.964,34.4298 L 423.481,34.4298 C 437.856,66.0223 403.767,104.222 423.481,135.402 L 326.964,135.402 L 326.964,34.4298 z" style="fill:#5f7b8d;fill-opacity:1;fill-rule:evenodd;stroke:none;stroke-width:1.25;stroke-linecap:round;stroke-linejoin:round;stroke-miterlimit:4;stroke-opacity:1"/><path id="path21980" d="M 326.964,34.4298 L 353.143,34.4298 C 367.518,66.0223 333.429,104.222 353.143,135.402 L 326.964,135.402 L 326.964,34.4298 z" style="fill:#1d4659;fill-opacity:1;fill-rule:evenodd;stroke:none;stroke-width:1.25;stroke-linecap:round;stroke-linejoin:round;stroke-miterlimit:4;stroke-opacity:1"/><rect id="rect21982" width="101.089" height="7.911" x="34.43" y="326.964" transform="matrix(0, 1, 1, 0, 0, 0)" style="fill:url(#linearGradient4815) #000;fill-opacity:1;fill-rule:nonzero;stroke:none;stroke-width:1.25;stroke-linecap:round;stroke-linejoin:round;stroke-miterlimit:4;stroke-opacity:1"/><g id="g21984" transform="matrix(3.17412, 0, 0, 3.17412, 1038.99, -354.131)"><path id="path21986" d="M -218.445,122.416 C -213.917,132.369 -224.656,144.405 -218.445,154.228 L -216.32,154.228 C -222.531,144.405 -211.792,132.369 -216.32,122.416 L -218.445,122.416 z" style="fill:#000;fill-opacity:.0798122;fill-rule:nonzero;stroke:none;stroke-width:1.25;stroke-linecap:round;stroke-linejoin:round;stroke-miterlimit:4;stroke-opacity:1"/><path id="path21988" d="M -217.955,122.416 C -213.426,132.369 -224.166,144.405 -217.955,154.228 L -216.32,154.228 C -222.531,144.405 -211.792,132.369 -216.32,122.416 L -217.955,122.416 z" style="fill:#000;fill-opacity:.131455;fill-rule:nonzero;stroke:none;stroke-width:1.25;stroke-linecap:round;stroke-linejoin:round;stroke-miterlimit:4;stroke-opacity:1"/><path id="path21990" d="M -217.403,122.416 C -212.875,132.369 -223.614,144.405 -217.403,154.228 L -216.32,154.228 C -222.531,144.405 -211.792,132.369 -216.32,122.416 L -217.403,122.416 z" style="fill:#000;fill-opacity:.197183;fill-rule:nonzero;stroke:none;stroke-width:1.25;stroke-linecap:round;stroke-linejoin:round;stroke-miterlimit:4;stroke-opacity:1"/><path id="path21992" d="M -216.852,122.416 C -212.323,132.369 -223.063,144.405 -216.852,154.228 L -216.32,154.228 C -222.531,144.405 -211.792,132.369 -216.32,122.416 L -216.852,122.416 z" style="fill:#000;fill-opacity:.267606;fill-rule:nonzero;stroke:none;stroke-width:1.25;stroke-linecap:round;stroke-linejoin:round;stroke-miterlimit:4;stroke-opacity:1"/></g><path id="path21994" d="M 326.964,135.402 L 422.488,135.402 C 412.274,118.171 416.819,101.345 421.306,83.5374 L 326.964,83.2034 L 326.964,135.402 z" style="fill:url(#linearGradient4817) #000;fill-opacity:1;fill-rule:nonzero;stroke:none;stroke-width:1.25;stroke-linecap:round;stroke-linejoin:round;stroke-miterlimit:4;stroke-opacity:1"/><g id="g21996" transform="matrix(2.41517, 0, 0, 2.41517, 876.456, -197.189)"><path id="path21998" d="M 602.125,190.59375 C 599.45874,190.67075 596.74504,191.16798 594.53125,192.78125 C 591.5146,192.34561 588.3664,192.55749 585.5,193.6875 C 583.62824,194.43267 582.15635,195.77855 580.96875,197.34375 C 580.95544,197.36301 580.94492,197.38405 580.9375,197.40625 C 580.92091,197.43509 580.91029,197.46697 580.90625,197.5 C 580.91029,197.53303 580.92091,197.56491 580.9375,197.59375 C 580.94492,197.61595 580.95544,197.63699 580.96875,197.65625 C 580.97822,197.66757 580.98868,197.67803 581,197.6875 C 581.02605,197.71524 581.05813,197.73662 581.09375,197.75 C 581.12472,197.75595 581.15653,197.75595 581.1875,197.75 C 581.20825,197.75263 581.22925,197.75263 581.25,197.75 C 584.80749,196.49944 588.39295,195.15225 592.15625,195.5 C 593.28385,195.58867 594.35616,196.00271 595.46875,196.375 C 595.50974,196.38565 595.55276,196.38565 595.59375,196.375 C 595.62678,196.37096 595.65866,196.36034 595.6875,196.34375 C 595.7097,196.33633 595.73074,196.32581 595.75,196.3125 C 598.71379,193.45164 603.00891,192.72955 606.96875,191.90625 C 606.98007,191.89678 606.99053,191.88632 607,191.875 C 607.19563,191.80037 607.32956,191.73576 607.4375,191.625 C 607.49147,191.56962 607.55414,191.50784 607.5625,191.40625 C 607.57086,191.30466 607.51945,191.21518 607.46875,191.15625 C 607.36735,191.03839 607.25573,190.98239 607.125,190.9375 C 606.99427,190.89261 606.8215,190.87546 606.65625,190.84375 C 605.99526,190.71692 605.12704,190.6454 604.8125,190.625 C 604.80209,190.62434 604.79166,190.62434 604.78125,190.625 C 603.91011,190.58739 603.02603,190.56773 602.125,190.59375 z" transform="translate(-806.724, -92.8004)" style="fill:#000;fill-opacity:1;fill-rule:evenodd;stroke:none;stroke-width:1pt;stroke-linecap:butt;stroke-linejoin:miter;stroke-opacity:1"/><path id="path22000" d="M -224.344,103.835 C -219.295,101.9 -214.705,101.331 -211.263,102.86 C -208.45,100.119 -202.237,98.6242 -200.227,98.6199 C -207.528,97.8352 -210.552,99.4967 -212,100.582 C -216.698,100.015 -221.096,100.522 -224.344,103.834" style="fill:#fff;fill-opacity:1;stroke:none"/></g><g id="g22002" transform="matrix(2.41517, 0, 0, 2.41517, 876.456, -197.189)"><path id="path22004" d="M 596.25,27.53125 C 587.9033,27.701471 579.93436,30.011449 573.84375,35.03125 C 565.49276,31.223728 554.44432,30.751141 544.375,32.28125 C 538.97209,33.102263 533.8987,34.480363 529.6875,36.34375 C 525.4884,38.201779 521.99675,40.484175 520.1875,43.8125 C 519.57732,44.883163 519.7128,46.206199 520.46875,47.15625 C 521.22471,48.106278 522.5049,48.470375 523.65625,48.125 C 544.63433,42.131263 561.86554,43.038041 573.6875,52.875 C 574.80806,53.806374 576.46471,53.801852 577.5625,52.84375 C 587.80668,43.812696 604.05857,37.910216 621.5625,38.875 C 622.98852,38.943575 624.2874,37.997938 624.625,36.625 C 624.96264,35.252044 624.25302,33.783013 622.96875,33.1875 C 614.73544,29.461107 605.28688,27.346954 596.25,27.53125 z" transform="matrix(0.292292, -0.0677077, 0.0677077, 0.292292, -381.543, 134.276)" style="fill:#000;fill-opacity:1;fill-rule:evenodd;stroke:none;stroke-width:1pt;stroke-linecap:butt;stroke-linejoin:miter;stroke-opacity:1"/><path id="path22006" d="M -225.696,112.15 C -219.345,108.564 -214.201,107.915 -209.842,110.097 C -206.945,105.454 -199.625,102.766 -197.16,102.691 C -204.796,101.053 -210.086,104.587 -211.05,106.575 C -215.328,105.394 -224.104,108.305 -225.696,112.149" style="fill:#fff;fill-opacity:1;stroke:none"/></g><g id="g22010" transform="matrix(1.14159, 0, 0, 1.14159, 265.142, -259.674)"><path id="path22012" d="M 134.221,257.626 C 146.813,285.3 116.952,318.766 134.221,346.078 L 138.68,346.078 C 121.411,318.766 151.272,285.3 138.68,257.626 L 134.221,257.626 z" style="fill:#000;fill-opacity:.0798122;fill-rule:nonzero;stroke:none;stroke-width:1.25;stroke-linecap:round;stroke-linejoin:round;stroke-miterlimit:4;stroke-opacity:1"/><path id="path22014" d="M 135.222,257.626 C 147.814,285.3 117.953,318.766 135.222,346.078 L 138.68,346.078 C 121.411,318.766 151.272,285.3 138.68,257.626 L 135.222,257.626 z" style="fill:#000;fill-opacity:.131455;fill-rule:nonzero;stroke:none;stroke-width:1.25;stroke-linecap:round;stroke-linejoin:round;stroke-miterlimit:4;stroke-opacity:1"/><path id="path22016" d="M 136.393,257.626 C 148.985,285.3 119.124,318.766 136.393,346.078 L 138.68,346.078 C 121.411,318.766 151.272,285.3 138.68,257.626 L 136.393,257.626 z" style="fill:#000;fill-opacity:.197183;fill-rule:nonzero;stroke:none;stroke-width:1.25;stroke-linecap:round;stroke-linejoin:round;stroke-miterlimit:4;stroke-opacity:1"/><path id="path22018" d="M 137.564,257.626 C 150.156,285.3 120.295,318.766 137.564,346.078 L 138.68,346.078 C 121.411,318.766 151.272,285.3 138.68,257.626 L 137.564,257.626 z" style="fill:#000;fill-opacity:.267606;fill-rule:nonzero;stroke:none;stroke-width:1.25;stroke-linecap:round;stroke-linejoin:round;stroke-miterlimit:4;stroke-opacity:1"/><path id="path22020" d="M 133.134,257.626 C 145.726,285.3 115.865,318.766 133.134,346.078 L 138.68,346.078 C 121.411,318.766 151.272,285.3 138.68,257.626 L 133.134,257.626 z" style="fill:#000;fill-opacity:.0798122;fill-rule:nonzero;stroke:none;stroke-width:1.25;stroke-linecap:round;stroke-linejoin:round;stroke-miterlimit:4;stroke-opacity:1"/></g><g id="g22103" transform="matrix(1.14159, 0, 0, 1.14159, -389.722, -484.947)"><path id="path21604" d="M 653.161,498.44 L 693.751,498.44" style="fill:#607b8e;fill-opacity:1;fill-rule:nonzero;stroke:#fffeff;stroke-width:8;stroke-linecap:round;stroke-linejoin:round;stroke-miterlimit:4;stroke-dashoffset:0;stroke-opacity:.698039"/><path id="path21606" d="M 653.161,515.294 L 683.452,515.294" style="fill:#607b8e;fill-opacity:1;fill-rule:nonzero;stroke:#fffeff;stroke-width:8;stroke-linecap:round;stroke-linejoin:round;stroke-miterlimit:4;stroke-dashoffset:0;stroke-opacity:.698039"/><path id="path22101" d="M 653.161,532.46 L 693.751,532.46" style="fill:#607b8e;fill-opacity:1;fill-rule:nonzero;stroke:#fffeff;stroke-width:8;stroke-linecap:round;stroke-linejoin:round;stroke-miterlimit:4;stroke-dashoffset:0;stroke-opacity:.698039"/></g><path id="path22008" d="M 326.964,34.4298 L 423.285,34.4298 C 433.146,54.4709 420.531,82.4058 417.826,102.327 L 326.964,102.327 L 326.964,34.4298 z" style="fill:url(#linearGradient4819) #000;fill-opacity:1;fill-rule:nonzero;stroke:none;stroke-width:1.25;stroke-linecap:round;stroke-linejoin:round;stroke-miterlimit:4;stroke-opacity:1"/></g></g></svg>