<svg xmlns="http://www.w3.org/2000/svg" xmlns:cc="http://web.resource.org/cc/" xmlns:svg="http://www.w3.org/2000/svg" xmlns:xlink="http://www.w3.org/1999/xlink" id="svg1877" width="128" height="128" version="1.0"><defs id="defs1879"><linearGradient id="linearGradient10207"><stop style="stop-color:#a2a2a2;stop-opacity:1" id="stop10209" offset="0"/><stop style="stop-color:#fff;stop-opacity:1" id="stop10211" offset="1"/></linearGradient><linearGradient id="linearGradient10213" x1="98.617" x2="91.229" y1="106.414" y2="99.255" gradientUnits="userSpaceOnUse" xlink:href="#linearGradient10207"/><filter id="filter6697" width="1.384" height="1.384" x="-.192" y="-.192"><feGaussianBlur id="feGaussianBlur6699" stdDeviation="1.945"/></filter><clipPath id="clipPath7084" clipPathUnits="userSpaceOnUse"><path style="fill:#000;fill-opacity:1;fill-rule:evenodd;stroke:none;stroke-width:1px;stroke-linecap:butt;stroke-linejoin:miter;stroke-opacity:1" id="path7086" d="M 72,88 L 40,120 L 32,120 L 32,80 L 72,80 L 72,88 z"/></clipPath><radialGradient id="XMLID_8_" cx="102" cy="112.305" r="139.559" gradientUnits="userSpaceOnUse"><stop style="stop-color:#b7b8b9;stop-opacity:1" id="stop41" offset="0"/><stop style="stop-color:#ececec" id="stop47" offset=".189"/><stop style="stop-color:#fafafa" id="stop49" offset=".257"/><stop style="stop-color:#fff" id="stop51" offset=".301"/><stop style="stop-color:#fafafa" id="stop53" offset=".531"/><stop style="stop-color:#ebecec" id="stop55" offset=".845"/><stop style="stop-color:#e1e2e3" id="stop57" offset="1"/></radialGradient><radialGradient id="radialGradient9437" cx="102" cy="112.305" r="139.559" gradientTransform="matrix(1,0,0,0.9996653,2e-6,3.0160848e-3)" gradientUnits="userSpaceOnUse" xlink:href="#XMLID_8_"/><filter id="filter2770"><feGaussianBlur id="feGaussianBlur2772" stdDeviation="2.079"/></filter><linearGradient id="linearGradient3058"><stop style="stop-color:white;stop-opacity:1" id="stop3060" offset="0"/><stop style="stop-color:white;stop-opacity:0" id="stop3062" offset="1"/></linearGradient><linearGradient id="linearGradient2913"><stop style="stop-color:#c63f3f;stop-opacity:1" id="stop2915" offset="0"/><stop style="stop-color:#ecbfbf;stop-opacity:0" id="stop2917" offset="1"/></linearGradient><linearGradient id="linearGradient5477"><stop style="stop-color:black;stop-opacity:1" id="stop5479" offset="0"/><stop style="stop-color:white;stop-opacity:1" id="stop5481" offset="1"/></linearGradient><linearGradient id="linearGradient3837"><stop style="stop-color:black;stop-opacity:1" id="stop3839" offset="0"/><stop id="stop3849" offset=".25" style="stop-color:black;stop-opacity:.59927797"/><stop id="stop3847" offset=".5" style="stop-color:black;stop-opacity:.27797833"/><stop style="stop-color:black;stop-opacity:0" id="stop3841" offset="1"/></linearGradient><linearGradient id="linearGradient3814"><stop style="stop-color:white;stop-opacity:0" id="stop3816" offset="0"/><stop id="stop3824" offset=".185" style="stop-color:white;stop-opacity:0"/><stop id="stop3822" offset=".281" style="stop-color:white;stop-opacity:.33574006"/><stop style="stop-color:white;stop-opacity:.1696751" id="stop3829" offset=".451"/><stop id="stop3831" offset=".479" style="stop-color:white;stop-opacity:0"/><stop style="stop-color:white;stop-opacity:.3068592" id="stop3833" offset=".656"/><stop style="stop-color:white;stop-opacity:0" id="stop3818" offset="1"/></linearGradient><linearGradient id="linearGradient3695"><stop style="stop-color:#626262;stop-opacity:1" id="stop3697" offset="0"/><stop style="stop-color:#efefef;stop-opacity:1" id="stop3699" offset="1"/></linearGradient><radialGradient id="XMLID_5_" cx="51.999" cy="-9" r="111.001" gradientUnits="userSpaceOnUse"><stop style="stop-color:#c20600;stop-opacity:1" id="stop4094" offset=".15"/><stop id="stop2886" offset=".575" style="stop-color:#860202;stop-opacity:1"/><stop style="stop-color:#760101;stop-opacity:1" id="stop4102" offset="1"/></radialGradient><linearGradient id="linearGradient2919" x1="52.985" x2="113.219" y1="68.39" y2="49.39" gradientUnits="userSpaceOnUse" xlink:href="#linearGradient2913"/><linearGradient id="linearGradient2896" x1="-77.5" x2="-33" y1="35.5" y2="35.5" gradientUnits="userSpaceOnUse" xlink:href="#XMLID_5_"/><linearGradient id="linearGradient3064" x1="37.762" x2="198.912" y1="-113.792" y2="195.865" gradientTransform="matrix(1.556306,0,0,1.556306,-57.54863,-28.51275)" gradientUnits="userSpaceOnUse" xlink:href="#linearGradient3058"/><linearGradient id="linearGradient3070" x1="37.762" x2="198.912" y1="-113.792" y2="195.865" gradientTransform="matrix(1.556306,0,0,1.556306,50.77552,-229.5802)" gradientUnits="userSpaceOnUse" xlink:href="#linearGradient3058"/><linearGradient id="linearGradient3075" x1="37.762" x2="198.912" y1="-113.792" y2="195.865" gradientTransform="matrix(1.408905,0,0,1.408905,-40.36639,-13.00527)" gradientUnits="userSpaceOnUse" xlink:href="#linearGradient3058"/><radialGradient id="radialGradient3345" cx="101.156" cy="111.13" r="137.893" gradientUnits="userSpaceOnUse" xlink:href="#XMLID_3_"/><radialGradient id="radialGradient3379" cx="101.156" cy="111.13" r="137.893" gradientUnits="userSpaceOnUse" xlink:href="#XMLID_3_"/><radialGradient id="XMLID_3_" cx="101.156" cy="111.13" r="137.893" gradientUnits="userSpaceOnUse"><stop id="stop3264" offset=".101" style="stop-color:#555"/><stop id="stop3266" offset=".115" style="stop-color:#676767"/><stop id="stop3268" offset=".161" style="stop-color:#9b9b9b"/><stop id="stop3270" offset=".202" style="stop-color:silver"/><stop id="stop3272" offset=".234" style="stop-color:#d8d8d8"/><stop id="stop3274" offset=".254" style="stop-color:#e0e0e0"/><stop id="stop3276" offset=".311" style="stop-color:#ededed"/><stop id="stop3278" offset=".401" style="stop-color:#fafafa"/><stop id="stop3280" offset=".479" style="stop-color:#fff"/><stop id="stop3282" offset=".6" style="stop-color:#fafafa"/><stop id="stop3284" offset=".722" style="stop-color:#eee"/><stop id="stop3286" offset=".888" style="stop-color:#ddd"/></radialGradient><linearGradient id="XMLID_4_" x1="85.647" x2="95.421" y1="95.726" y2="105.499" gradientTransform="translate(0.346722,1.067494)" gradientUnits="userSpaceOnUse"><stop id="stop3291" offset=".3" style="stop-color:#fff"/><stop id="stop3293" offset=".604" style="stop-color:#eee"/><stop id="stop3295" offset=".748" style="stop-color:#cdcdcd"/><stop id="stop3297" offset=".846" style="stop-color:#bbb"/><stop id="stop3299" offset=".876" style="stop-color:#c5c5c5"/><stop id="stop3301" offset=".948" style="stop-color:#d7d7d7"/><stop id="stop3303" offset="1" style="stop-color:#ddd"/></linearGradient><radialGradient id="radialGradient3405" cx="101.156" cy="111.13" r="137.893" gradientTransform="translate(0.346722,1.067494)" gradientUnits="userSpaceOnUse" xlink:href="#XMLID_3_"/><linearGradient id="linearGradient21636" x1="98.617" x2="91.229" y1="106.414" y2="99.255" gradientTransform="translate(-2.1e-6,-0.4999957)" gradientUnits="userSpaceOnUse" xlink:href="#linearGradient10207"/><radialGradient id="radialGradient21640" cx="102" cy="112.305" r="139.559" gradientTransform="matrix(1,0,0,0.9996653,-10e-8,-0.4969796)" gradientUnits="userSpaceOnUse" xlink:href="#XMLID_8_"/></defs><metadata id="metadata1882"/><g id="layer1"><path style="opacity:.5;fill:#000;fill-opacity:1;filter:url(#filter2770)" id="path7865" d="M 16,8 L 16,120 C 16,120 79.15625,120 79.15625,120 L 79.1875,120 C 79.187503,120 91.09375,110.09375 96.59375,104.59375 C 102.09375,99.09375 112,87.1875 112,87.1875 L 112,87.15625 L 112,8 L 16,8 z" transform="matrix(1.0416667,0,0,1.0267857,-2.6666688,-1.7142848)"/><path style="fill:#fff;fill-opacity:1" id="path34" d="M 15.999999,7.5000043 L 15.999998,119.5 C 15.999998,119.5 79.146416,119.5 79.146416,119.5 L 112,86.646424 L 112,7.5000043 L 15.999999,7.5000043 z"/><path style="fill:url(#radialGradient21640);fill-opacity:1" id="path59" d="M 18,8.5000077 C 17.449,8.5000077 17,8.9488577 17,9.4996727 L 17,117.46352 C 17,118.01533 17.449,118.46318 18,118.46318 L 77.171997,118.46318 C 77.434997,118.46318 79.934677,118.58131 80.120678,118.39438 L 110.707,87.594206 C 110.894,87.407268 111,84.909424 111,84.646512 L 111,9.4996727 C 111,8.9488577 110.552,8.5000077 110,8.5000077 L 18,8.5000077 z"/><g id="g21606" transform="translate(2,0)"><path id="path1937" d="M 54.4375,7.0625 C 53.2612,15.384254 62.383486,26.243592 76.03125,36.46875 C 71.998639,52.327815 65.099806,70.232437 57.6875,85.09375 L 57.65625,85.125 C 37.278561,95.586605 23.637138,106.41265 28.28125,113.59375 C 29.401128,115.32536 30.785323,116.14791 32.3125,116.25 C 21.624982,109.7115 44.362726,100.15272 51.3125,96.46875 L 51.46875,96.65625 C 44.389273,108.60832 37.370716,116.58811 32.3125,116.25 C 39.591281,119.82557 49.627519,109.02764 58.8125,92.625 C 73.5456,85.314081 91.793406,77.263901 109.34375,70.40625 C 109.34375,68.123263 109.34375,66.782833 109.34375,64.09375 C 94.013209,69.067943 78.050706,75.29705 64.28125,81.875 C 70.630022,68.50075 76.177619,53.116198 79.5625,39.03125 C 88.415517,45.251569 98.772831,51.115171 109.34375,55.90625 C 109.34375,51.463267 109.34375,51.164689 109.34375,46.59375 C 99.418429,41.542999 89.679887,35.874886 81.40625,30.1875 C 83.015738,21.200791 83.536203,13.166765 82.53125,7.0625 C 81.254015,7.0625 80.788312,7.0625 79.4375,7.0625 C 80.164266,12.51374 79.57333,19.682911 78,27.78125 C 67.641889,20.270072 60.180738,12.903003 58.53125,7.0625 C 56.560344,7.0625 56.347557,7.0625 54.4375,7.0625 z" style="opacity:.06557378;fill:#2e3436"/><path id="path3342" d="M 43.28125,11.3125 C 41.894019,11.364447 40.41034,11.747904 38.78125,12.46875 C 24.221362,18.911262 34.94744,33.6935 53.5,47.21875 C 53.61261,44.624728 53.68066,42.091816 53.65625,39.65625 C 37.82725,28.439173 28.56271,17.519248 38.65625,13.1875 C 49.291142,8.6234216 53.47472,21.549093 53.65625,39.65625 C 54.6463,40.357844 55.64856,41.047333 56.6875,41.75 C 56.2993,25.262695 52.80929,12.336146 44.65625,11.375 C 44.221582,11.323756 43.74366,11.295184 43.28125,11.3125 z M 56.6875,41.75 L 54.788273,38.640337 L 52.380162,40.792211 L 51.874581,44.063604 L 55.055498,50.264611 L 56.65625,49.46875 C 67.339271,56.833667 80.092,63.616954 92.0625,68.28125 L 95.612583,70.419515 L 102.33607,70.948919 L 106.04249,69.225394 L 107.25283,66.259029 L 101.21875,65.40625 C 86.91873,59.677477 69.95925,50.72604 56.6875,41.75 z M 101.21875,65.40625 C 103.0815,66.152496 104.93087,66.838471 106.6875,67.46875 C 107.58847,67.132591 108.47364,66.777332 109.34375,66.46875 C 109.34375,65.23047 109.34375,64.728298 109.34375,63.40625 C 106.77635,63.941625 104.06169,64.60073 101.21875,65.40625 z M 106.6875,67.46875 C 104.09339,68.436625 101.36431,69.479535 98.5625,70.65625 C 102.33589,71.899671 105.95846,72.862308 109.34375,73.53125 C 109.34375,71.872066 109.34375,70.358768 109.34375,68.375 C 108.48008,68.093883 107.60688,67.798627 106.6875,67.46875 z M 98.5625,70.65625 C 96.424597,69.951771 94.27426,69.143064 92.0625,68.28125 C 78.51833,72.949786 63.68569,79.669682 51.625,86.84375 L 48.131792,87.559334 L 45.436084,92.548759 L 41.816027,97.433774 L 45.899687,101.64787 L 49.09375,96.21875 C 63.213362,87.457717 82.27465,77.496901 98.5625,70.65625 z M 49.09375,96.21875 C 47.368472,97.289256 45.71781,98.349253 44.15625,99.375 C 40.535571,110.00833 36.31269,117.14224 32.28125,116.84375 C 38.508501,119.96368 44.57609,110.53117 49.09375,96.21875 z M 32.28125,116.84375 C 22.776941,111.0439 39.65788,102.46606 44.15625,99.375 C 45.175971,96.380267 46.12573,93.123844 47.03125,89.65625 C 32.851581,98.790023 23.95999,108.26132 28.71875,114.53125 C 29.86555,116.0422 31.07821,116.75467 32.28125,116.84375 z M 47.03125,89.65625 C 48.503671,88.707799 50.047,87.782393 51.625,86.84375 C 54.42239,75.173809 56.27554,61.758826 56.65625,49.46875 C 55.580771,48.72731 54.52994,47.969595 53.5,47.21875 C 52.89931,61.056864 50.41758,76.688743 47.03125,89.65625 z" style="fill:#9c0f0f"/></g><path id="path5540" d="M 41.879531,115.98249 C 41.879531,115.98249 66.18914,91.672876 66.18914,91.672876 C 66.18914,91.672876 56.836,94.586 46.586,94.586 C 46.586,104.836 41.879531,115.98249 41.879531,115.98249 z" clip-path="url(#clipPath7084)" transform="translate(39.999998,-0.4999957)" style="opacity:.4;fill:#000;fill-opacity:1;filter:url(#filter6697)"/><path style="fill:url(#linearGradient21636);fill-opacity:1" id="path14523" d="M 79.171998,119.5 C 79.171998,119.5 91.085998,109.586 96.585998,104.086 C 102.086,98.586004 112,86.672004 112,86.672004 C 112,86.672004 98.249998,95.500004 87.999998,95.500004 C 87.999998,105.75 79.171998,119.5 79.171998,119.5 z"/></g></svg>