<svg xmlns="http://www.w3.org/2000/svg" xmlns:xlink="http://www.w3.org/1999/xlink" width="128" height="128" version="1"><defs><linearGradient xlink:href="#a" id="X" gradientUnits="userSpaceOnUse" gradientTransform="matrix(.812 0 0 .273 55.779 -173.643)" x1="105.414" y1="673.699" x2="274.533" y2="691.371"/><linearGradient id="G"><stop offset="0"/><stop offset="1" stop-opacity="0"/></linearGradient><linearGradient xlink:href="#b" gradientUnits="userSpaceOnUse" gradientTransform="matrix(.617 0 0 .36 55.779 -173.643)" x1="322.535" y1="671.365" x2="305.546" y2="703.106"/><linearGradient xlink:href="#b" gradientUnits="userSpaceOnUse" gradientTransform="matrix(.545 0 0 .407 55.779 -173.643)" x1="388.855" y1="581.208" x2="355.657" y2="561.592"/><linearGradient xlink:href="#b" gradientUnits="userSpaceOnUse" gradientTransform="matrix(.545 0 0 .407 55.779 -173.643)" x1="391.996" y1="490.368" x2="343.765" y2="472.658"/><linearGradient xlink:href="#b" gradientUnits="userSpaceOnUse" gradientTransform="matrix(.415 0 0 .535 55.779 -173.643)" x1="336.976" y1="514.064" x2="402.901" y2="491.134"/><linearGradient id="c"><stop offset="0"/><stop offset="1" stop-color="#484848"/></linearGradient><linearGradient xlink:href="#c" gradientUnits="userSpaceOnUse" gradientTransform="matrix(.47 0 0 .472 55.779 -173.643)" x1="313.857" y1="561.112" x2="355.786" y2="553.297"/><linearGradient xlink:href="#b" gradientUnits="userSpaceOnUse" gradientTransform="matrix(.617 0 0 .36 55.779 -173.643)" x1="306.288" y1="672.462" x2="333.499" y2="707.75"/><linearGradient xlink:href="#b" gradientUnits="userSpaceOnUse" gradientTransform="matrix(.545 0 0 .407 55.779 -173.643)" x1="391.996" y1="490.368" x2="343.765" y2="472.658"/><linearGradient id="b"><stop offset="0" stop-color="#fff" stop-opacity=".699"/><stop offset="1" stop-color="#fff" stop-opacity="0"/></linearGradient><linearGradient xlink:href="#b" gradientUnits="userSpaceOnUse" gradientTransform="matrix(.545 0 0 .407 55.779 -173.643)" x1="388.855" y1="581.208" x2="355.657" y2="561.592"/><linearGradient id="d"><stop offset="0"/><stop offset="1" stop-opacity="0"/></linearGradient><linearGradient xlink:href="#d" gradientUnits="userSpaceOnUse" gradientTransform="matrix(.448 0 0 .496 55.779 -173.643)" x1="390.908" y1="442.951" x2="419.73" y2="470.119"/><linearGradient id="e"><stop offset="0" stop-color="#62004f"/><stop offset=".146" stop-color="#8d2778"/><stop offset="1" stop-color="#ff00bf"/></linearGradient><linearGradient xlink:href="#e" gradientUnits="userSpaceOnUse" gradientTransform="matrix(.48 0 0 .462 55.779 -173.643)" x1="299.428" y1="480.611" x2="419.731" y2="503.821"/><linearGradient id="f"><stop offset="0" stop-color="#083e20"/><stop offset="1" stop-color="#245e3e"/></linearGradient><linearGradient xlink:href="#f" gradientUnits="userSpaceOnUse" gradientTransform="matrix(.853 0 0 1.173 -.505 .253)" x1="249.71" y1="470.676" x2="268.705" y2="444.599"/><linearGradient id="g"><stop offset="0" stop-color="#957d16"/><stop offset="1" stop-color="#927b16"/></linearGradient><linearGradient xlink:href="#g" gradientUnits="userSpaceOnUse" gradientTransform="scale(.853 1.173)" x1="249.71" y1="470.676" x2="268.705" y2="444.599"/><linearGradient id="h"><stop offset="0" stop-color="#54250d"/><stop offset="1" stop-color="#9f4f19"/></linearGradient><linearGradient xlink:href="#h" gradientUnits="userSpaceOnUse" gradientTransform="matrix(.853 0 0 1.173 -4.611 -5.495)" x1="249.71" y1="470.676" x2="268.705" y2="444.599"/><linearGradient id="i"><stop offset="0" stop-color="#8a1e51"/><stop offset="1" stop-color="#7e1b4a"/></linearGradient><linearGradient xlink:href="#i" gradientUnits="userSpaceOnUse" gradientTransform="scale(.853 1.173)" x1="249.71" y1="470.676" x2="285.551" y2="455.346"/><linearGradient id="j"><stop offset="0" stop-color="#1a3b23"/><stop offset=".34" stop-color="#255431"/><stop offset=".42" stop-color="#306d40"/><stop offset=".62" stop-color="#58c977"/><stop offset=".64" stop-color="#2f6a3f"/><stop offset="1" stop-color="#86ffa7"/></linearGradient><linearGradient xlink:href="#j" gradientUnits="userSpaceOnUse" gradientTransform="matrix(.402 0 0 .552 55.779 -173.643)" x1="410.687" y1="351.945" x2="496.011" y2="446.425"/><linearGradient id="k"><stop offset="0" stop-color="#6a5000"/><stop offset=".365" stop-color="#b49b1d"/><stop offset=".47" stop-color="#ffe63b"/><stop offset=".62" stop-color="#fde55f"/><stop offset=".66" stop-color="#af8800"/><stop offset="1" stop-color="#fcff96"/></linearGradient><linearGradient xlink:href="#k" gradientUnits="userSpaceOnUse" gradientTransform="matrix(.41 0 0 .541 55.779 -173.643)" x1="407.202" y1="340.132" x2="509.365" y2="443.406"/><linearGradient id="l"><stop offset="0" stop-color="#7c2b00"/><stop offset=".353" stop-color="#a56116"/><stop offset=".425" stop-color="#cf982c"/><stop offset=".61" stop-color="#ffdb59"/><stop offset=".64" stop-color="#d07100"/><stop offset="1" stop-color="#fff77c"/></linearGradient><linearGradient xlink:href="#l" gradientUnits="userSpaceOnUse" gradientTransform="matrix(.396 0 0 .561 55.961 -173.47)" x1="426.255" y1="315.437" x2="542.826" y2="426.811"/><linearGradient id="m"><stop offset="0" stop-color="#540d0d"/><stop offset=".35" stop-color="#7e2316"/><stop offset=".43" stop-color="#a93a1f"/><stop offset=".62" stop-color="#ff6731"/><stop offset=".66" stop-color="#9f2819"/><stop offset=".77" stop-color="#e1734d"/><stop offset="1" stop-color="#ffb47c"/></linearGradient><linearGradient xlink:href="#m" gradientUnits="userSpaceOnUse" gradientTransform="matrix(.4 0 0 .554 55.741 -173.714)" x1="438.624" y1="302.29" x2="560.685" y2="400.819"/><linearGradient id="n"><stop offset="0" stop-color="#833c0b"/><stop offset="1" stop-color="#723409"/></linearGradient><linearGradient xlink:href="#n" gradientUnits="userSpaceOnUse" gradientTransform="matrix(.477 0 0 .466 55.779 -173.643)" x1="178.402" y1="433.927" x2="274.363" y2="433.927"/><linearGradient id="o"><stop offset="0" stop-color="#214b2c"/><stop offset="1" stop-color="#1a3b23"/></linearGradient><linearGradient xlink:href="#o" gradientUnits="userSpaceOnUse" gradientTransform="matrix(.534 0 0 .415 55.827 -173.616)" x1="170.544" y1="569.892" x2="233.747" y2="533.101"/><linearGradient id="p"><stop offset="0" stop-color="#83190b"/><stop offset="1" stop-color="#721509"/></linearGradient><linearGradient xlink:href="#p" gradientUnits="userSpaceOnUse" gradientTransform="matrix(.466 0 0 .476 55.779 -173.643)" x1="177.64" y1="411.452" x2="275.485" y2="411.452"/><linearGradient id="q"><stop offset="0" stop-color="#7e5c08"/><stop offset="1" stop-color="#6e4b11"/></linearGradient><linearGradient xlink:href="#q" gradientUnits="userSpaceOnUse" gradientTransform="matrix(.485 0 0 .458 55.827 -173.616)" x1="185.365" y1="498.744" x2="246.535" y2="442.276"/><linearGradient id="r"><stop offset="0" stop-color="#b20033"/><stop offset=".46" stop-color="#ff7cba"/><stop offset=".55" stop-color="#9c225b"/><stop offset="1" stop-color="#ff7ca1"/></linearGradient><linearGradient xlink:href="#r" gradientUnits="userSpaceOnUse" gradientTransform="matrix(.311 0 0 .714 55.779 -173.643)" x1="683.1" y1="231.876" x2="720.634" y2="271.915"/><linearGradient id="s"><stop offset="0" stop-color="#8a1e51"/><stop offset="1" stop-color="#7e1b4a"/></linearGradient><linearGradient xlink:href="#s" gradientUnits="userSpaceOnUse" gradientTransform="matrix(.441 0 0 .503 55.779 -173.643)" x1="185.727" y1="378.454" x2="266.983" y2="378.454"/><linearGradient id="a"><stop offset="0" stop-color="#590012"/><stop offset=".93" stop-color="#a3211f"/><stop offset=".94" stop-color="#650014"/><stop offset="1" stop-color="#ee6c68"/></linearGradient><linearGradient xlink:href="#a" gradientUnits="userSpaceOnUse" gradientTransform="matrix(.812 0 0 .273 55.779 -173.643)" x1="105.414" y1="673.699" x2="274.533" y2="691.371"/><linearGradient id="t"><stop offset="0" stop-color="#b0e9c0"/><stop offset="1" stop-color="#75df92"/></linearGradient><linearGradient xlink:href="#t" gradientUnits="userSpaceOnUse" gradientTransform="scale(.853 1.173)" x1="273.209" y1="455.331" x2="276.428" y2="474.11"/><linearGradient id="u"><stop offset="0" stop-color="#ffd625"/><stop offset="1" stop-color="#fff0ab"/></linearGradient><linearGradient xlink:href="#u" gradientUnits="userSpaceOnUse" gradientTransform="scale(.853 1.173)" x1="269.879" y1="468.316" x2="274.636" y2="450.72"/><linearGradient id="v"><stop offset="0" stop-color="#f6b94e"/><stop offset="1" stop-color="#ffc340"/></linearGradient><linearGradient xlink:href="#v" gradientUnits="userSpaceOnUse" gradientTransform="scale(.853 1.173)" x1="262.957" y1="463.824" x2="271.316" y2="446.717"/><linearGradient id="w"><stop offset="0" stop-color="#fda5cf"/><stop offset="1" stop-color="#ce2c79"/></linearGradient><linearGradient xlink:href="#w" gradientUnits="userSpaceOnUse" gradientTransform="scale(.853 1.173)" x1="258.13" y1="442.669" x2="247.025" y2="456.033"/><linearGradient id="x"><stop offset="0" stop-color="#f6754e"/><stop offset="1" stop-color="#ffa879"/></linearGradient><linearGradient xlink:href="#x" gradientUnits="userSpaceOnUse" gradientTransform="matrix(.853 0 0 1.173 -12.281 22.44)" x1="257.995" y1="431.381" x2="274.716" y2="420.003"/><linearGradient id="y"><stop offset="0" stop-opacity="0"/><stop offset=".36" stop-opacity=".498"/><stop offset="1" stop-opacity="0"/></linearGradient><linearGradient xlink:href="#y" gradientUnits="userSpaceOnUse" gradientTransform="matrix(.454 0 0 .489 57.577 -173.424)" x1="277.573" y1="521.611" x2="316.569" y2="527.435"/><linearGradient id="z"><stop offset="0" stop-color="#b20033"/><stop offset="1" stop-color="#ffe77c"/></linearGradient><linearGradient xlink:href="#z" gradientUnits="userSpaceOnUse" gradientTransform="scale(.626 1.598)" x1="542.852" y1="330.59" x2="554.732" y2="359.371"/><linearGradient xlink:href="#A" gradientUnits="userSpaceOnUse" gradientTransform="scale(1.122 .892)" x1="229.561" y1="692.338" x2="276.193" y2="715.247"/><linearGradient xlink:href="#A" gradientUnits="userSpaceOnUse" gradientTransform="scale(1.122 .892)" x1="229.561" y1="692.338" x2="276.193" y2="715.247"/><linearGradient xlink:href="#A" gradientUnits="userSpaceOnUse" gradientTransform="scale(1.122 .892)" x1="229.561" y1="692.338" x2="276.193" y2="715.247"/><linearGradient xlink:href="#A" gradientUnits="userSpaceOnUse" gradientTransform="scale(1.122 .892)" x1="229.561" y1="692.338" x2="276.193" y2="715.247"/><linearGradient xlink:href="#A" gradientUnits="userSpaceOnUse" gradientTransform="scale(1.122 .892)" x1="229.561" y1="692.338" x2="276.193" y2="715.247"/><linearGradient id="A"><stop offset="0" stop-color="#4d3719"/><stop offset=".7" stop-color="#ddae66"/><stop offset="1" stop-color="#b2731c"/></linearGradient><linearGradient xlink:href="#A" gradientUnits="userSpaceOnUse" gradientTransform="scale(1.122 .892)" x1="261.132" y1="710.771" x2="267.062" y2="710.771"/><linearGradient id="B"><stop offset="0" stop-color="#50a3f7"/><stop offset="1" stop-color="#002ea8"/></linearGradient><linearGradient xlink:href="#B" gradientUnits="userSpaceOnUse" gradientTransform="matrix(1.346 0 0 2.123 538.334 -11.052)" x1="-263.29" y1="56.714" x2="-263.142" y2="8.871"/><linearGradient id="D"><stop offset="0" stop-color="#a2a2a2"/><stop offset="1" stop-color="#fff"/></linearGradient><linearGradient gradientUnits="userSpaceOnUse" x1="96" y1="104" x2="88" y2="96"><stop offset="0" stop-color="#888A85"/><stop offset=".007" stop-color="#8C8E89"/><stop offset=".067" stop-color="#ABACA9"/><stop offset=".135" stop-color="#C5C6C4"/><stop offset=".265" stop-color="#DBDBDA"/><stop offset=".376" stop-color="#EBEBEB"/><stop offset=".487" stop-color="#F7F7F6"/><stop offset=".632" stop-color="#FDFDFD"/><stop offset="1" stop-color="#fff"/></linearGradient><radialGradient id="C" cx="102" cy="112.305" r="139.559" gradientUnits="userSpaceOnUse"><stop offset="0" stop-color="#b7b8b9"/><stop offset=".189" stop-color="#ECECEC"/><stop offset=".257" stop-color="#FAFAFA"/><stop offset=".301" stop-color="#fff"/><stop offset=".531" stop-color="#FAFAFA"/><stop offset=".845" stop-color="#EBECEC"/><stop offset="1" stop-color="#E1E2E3"/></radialGradient><filter x="-.192" width="1.384" y="-.192" height="1.384" id="ay"><feGaussianBlur stdDeviation="1.945"/></filter><clipPath id="ax"><path d="M72 88l-32 32h-8v-40h40v8z" fill-rule="evenodd"/></clipPath><radialGradient xlink:href="#C" id="I" gradientUnits="userSpaceOnUse" gradientTransform="translate(-8 16.003)" cx="114" cy="95.029" r="139.559" fx="114" fy="95.029"/><linearGradient xlink:href="#D" id="az" x1="98.617" y1="106.414" x2="91.229" y2="99.255" gradientUnits="userSpaceOnUse"/><filter id="H"><feGaussianBlur stdDeviation="2.079"/></filter><linearGradient xlink:href="#B" id="J" gradientUnits="userSpaceOnUse" gradientTransform="matrix(1.346 0 0 2.123 538.334 -11.052)" x1="-263.142" y1="72.387" x2="-263.142" y2="-21.19"/><linearGradient xlink:href="#A" gradientUnits="userSpaceOnUse" gradientTransform="scale(1.122 .892)" x1="261.132" y1="710.771" x2="267.062" y2="710.771"/><linearGradient xlink:href="#A" id="L" gradientUnits="userSpaceOnUse" gradientTransform="scale(1.122 .892)" x1="229.561" y1="692.338" x2="276.193" y2="715.247"/><linearGradient xlink:href="#A" id="M" gradientUnits="userSpaceOnUse" gradientTransform="scale(1.122 .892)" x1="229.561" y1="692.338" x2="276.193" y2="715.247"/><linearGradient xlink:href="#A" id="N" gradientUnits="userSpaceOnUse" gradientTransform="scale(1.122 .892)" x1="229.561" y1="692.338" x2="276.193" y2="715.247"/><linearGradient xlink:href="#A" id="O" gradientUnits="userSpaceOnUse" gradientTransform="scale(1.122 .892)" x1="229.561" y1="692.338" x2="276.193" y2="715.247"/><linearGradient xlink:href="#A" id="P" gradientUnits="userSpaceOnUse" gradientTransform="scale(1.122 .892)" x1="229.561" y1="692.338" x2="276.193" y2="715.247"/><linearGradient xlink:href="#z" id="Q" gradientUnits="userSpaceOnUse" gradientTransform="scale(.626 1.598)" x1="542.852" y1="330.59" x2="554.732" y2="359.371"/><linearGradient xlink:href="#y" id="R" gradientUnits="userSpaceOnUse" gradientTransform="matrix(.454 0 0 .489 57.577 -173.424)" x1="277.573" y1="521.611" x2="316.569" y2="527.435"/><linearGradient xlink:href="#x" id="S" gradientUnits="userSpaceOnUse" gradientTransform="matrix(.853 0 0 1.173 -12.281 22.44)" x1="257.995" y1="431.381" x2="274.716" y2="420.003"/><linearGradient xlink:href="#w" id="T" gradientUnits="userSpaceOnUse" gradientTransform="scale(.853 1.173)" x1="258.13" y1="442.669" x2="247.025" y2="456.033"/><linearGradient xlink:href="#v" id="U" gradientUnits="userSpaceOnUse" gradientTransform="scale(.853 1.173)" x1="262.957" y1="463.824" x2="271.316" y2="446.717"/><linearGradient xlink:href="#u" id="V" gradientUnits="userSpaceOnUse" gradientTransform="scale(.853 1.173)" x1="269.879" y1="468.316" x2="274.636" y2="450.72"/><linearGradient xlink:href="#t" id="W" gradientUnits="userSpaceOnUse" gradientTransform="scale(.853 1.173)" x1="273.209" y1="455.331" x2="276.428" y2="474.11"/><linearGradient xlink:href="#a" gradientUnits="userSpaceOnUse" gradientTransform="matrix(.812 0 0 .273 55.779 -173.643)" x1="105.414" y1="673.699" x2="274.533" y2="691.371"/><linearGradient xlink:href="#s" id="Y" gradientUnits="userSpaceOnUse" gradientTransform="matrix(.441 0 0 .503 55.779 -173.643)" x1="185.727" y1="378.454" x2="266.983" y2="378.454"/><linearGradient xlink:href="#r" id="Z" gradientUnits="userSpaceOnUse" gradientTransform="matrix(.311 0 0 .714 55.779 -173.643)" x1="683.1" y1="231.876" x2="720.634" y2="271.915"/><linearGradient xlink:href="#q" id="aa" gradientUnits="userSpaceOnUse" gradientTransform="matrix(.485 0 0 .458 55.827 -173.616)" x1="185.365" y1="498.744" x2="246.535" y2="442.276"/><linearGradient xlink:href="#p" id="ab" gradientUnits="userSpaceOnUse" gradientTransform="matrix(.466 0 0 .476 55.779 -173.643)" x1="177.64" y1="411.452" x2="275.485" y2="411.452"/><linearGradient xlink:href="#o" id="ac" gradientUnits="userSpaceOnUse" gradientTransform="matrix(.534 0 0 .415 55.827 -173.616)" x1="170.544" y1="569.892" x2="233.747" y2="533.101"/><linearGradient xlink:href="#n" id="ad" gradientUnits="userSpaceOnUse" gradientTransform="matrix(.477 0 0 .466 55.779 -173.643)" x1="178.402" y1="433.927" x2="274.363" y2="433.927"/><linearGradient xlink:href="#m" id="ae" gradientUnits="userSpaceOnUse" gradientTransform="matrix(.4 0 0 .554 55.741 -173.714)" x1="438.624" y1="302.29" x2="560.685" y2="400.819"/><linearGradient xlink:href="#l" id="af" gradientUnits="userSpaceOnUse" gradientTransform="matrix(.396 0 0 .561 55.961 -173.47)" x1="426.255" y1="315.437" x2="542.826" y2="426.811"/><linearGradient xlink:href="#k" id="ag" gradientUnits="userSpaceOnUse" gradientTransform="matrix(.41 0 0 .541 55.779 -173.643)" x1="407.202" y1="340.132" x2="509.365" y2="443.406"/><linearGradient xlink:href="#j" id="ah" gradientUnits="userSpaceOnUse" gradientTransform="matrix(.402 0 0 .552 55.779 -173.643)" x1="410.687" y1="351.945" x2="496.011" y2="446.425"/><linearGradient xlink:href="#i" id="ai" gradientUnits="userSpaceOnUse" gradientTransform="scale(.853 1.173)" x1="249.71" y1="470.676" x2="285.551" y2="455.346"/><linearGradient xlink:href="#h" id="aj" gradientUnits="userSpaceOnUse" gradientTransform="matrix(.853 0 0 1.173 -4.611 -5.495)" x1="249.71" y1="470.676" x2="268.705" y2="444.599"/><linearGradient xlink:href="#g" id="ak" gradientUnits="userSpaceOnUse" gradientTransform="scale(.853 1.173)" x1="249.71" y1="470.676" x2="268.705" y2="444.599"/><linearGradient xlink:href="#f" id="al" gradientUnits="userSpaceOnUse" gradientTransform="matrix(.853 0 0 1.173 -.505 .253)" x1="249.71" y1="470.676" x2="268.705" y2="444.599"/><linearGradient xlink:href="#e" id="am" gradientUnits="userSpaceOnUse" gradientTransform="matrix(.48 0 0 .462 55.779 -173.643)" x1="299.428" y1="480.611" x2="419.731" y2="503.821"/><linearGradient xlink:href="#d" id="an" gradientUnits="userSpaceOnUse" gradientTransform="matrix(.448 0 0 .496 55.779 -173.643)" x1="390.908" y1="442.951" x2="419.73" y2="470.119"/><linearGradient xlink:href="#b" id="ao" gradientUnits="userSpaceOnUse" gradientTransform="matrix(.545 0 0 .407 55.779 -173.643)" x1="388.855" y1="581.208" x2="355.657" y2="561.592"/><linearGradient xlink:href="#b" id="ap" gradientUnits="userSpaceOnUse" gradientTransform="matrix(.545 0 0 .407 55.779 -173.643)" x1="391.996" y1="490.368" x2="343.765" y2="472.658"/><linearGradient xlink:href="#b" id="aq" gradientUnits="userSpaceOnUse" gradientTransform="matrix(.617 0 0 .36 55.779 -173.643)" x1="306.288" y1="672.462" x2="333.499" y2="707.75"/><linearGradient xlink:href="#c" id="ar" gradientUnits="userSpaceOnUse" gradientTransform="matrix(.47 0 0 .472 55.779 -173.643)" x1="313.857" y1="561.112" x2="355.786" y2="553.297"/><linearGradient xlink:href="#b" id="as" gradientUnits="userSpaceOnUse" gradientTransform="matrix(.415 0 0 .535 55.779 -173.643)" x1="336.976" y1="514.064" x2="402.901" y2="491.134"/><linearGradient xlink:href="#b" id="at" gradientUnits="userSpaceOnUse" gradientTransform="matrix(.545 0 0 .407 55.779 -173.643)" x1="391.996" y1="490.368" x2="343.765" y2="472.658"/><linearGradient xlink:href="#b" id="au" gradientUnits="userSpaceOnUse" gradientTransform="matrix(.545 0 0 .407 55.779 -173.643)" x1="388.855" y1="581.208" x2="355.657" y2="561.592"/><linearGradient xlink:href="#b" id="av" gradientUnits="userSpaceOnUse" gradientTransform="matrix(.617 0 0 .36 55.779 -173.643)" x1="322.535" y1="671.365" x2="305.546" y2="703.106"/><linearGradient y2="154.504" x2="210.986" y1="154.504" x1="155.211" gradientTransform="matrix(.93 0 0 .929 -84.4 12.848)" gradientUnits="userSpaceOnUse" xlink:href="#E"/><linearGradient y2="167.162" x2="83.743" y1="154.278" x1="82.802" gradientTransform="matrix(.626 0 0 .2 68.175 138.957)" gradientUnits="userSpaceOnUse" xlink:href="#F"/><linearGradient><stop offset="0" stop-color="#ffd500"/><stop offset="1" stop-color="#ff7e00"/></linearGradient><linearGradient><stop offset="0" stop-color="#ff7e00"/><stop offset="1" stop-color="#ffd500"/></linearGradient><linearGradient><stop offset="0" stop-color="#fff8de"/><stop offset="1" stop-color="#ff0"/></linearGradient><linearGradient id="F"><stop offset="0" stop-color="#555"/><stop offset="1" stop-color="#555" stop-opacity="0"/></linearGradient><linearGradient id="E"><stop offset="0"/><stop offset="1" stop-opacity="0"/></linearGradient><linearGradient><stop offset="0" stop-color="#323232"/><stop offset="1" stop-color="#101010"/></linearGradient><clipPath><path d="M1.955 2.183v184.968h254.759v-184.968h-254.759z" opacity=".489" fill="#f9f2ea"/></clipPath><clipPath><path d="M12 28v80h80.5l23.5-25.25v-54.75h-104z" opacity=".489" fill="#f9f2ea"/></clipPath><radialGradient xlink:href="#G" id="aw" cx="101.5" cy="92.997" fx="101.5" fy="92.997" r="21.5" gradientTransform="matrix(.725 .689 -.674 .709 90.662 -42.653)" gradientUnits="userSpaceOnUse"/><linearGradient xlink:href="#E" id="K" gradientUnits="userSpaceOnUse" gradientTransform="matrix(.41 0 0 .433 -28.253 27.952)" x1="121.406" y1="177.056" x2="177.181" y2="177.056"/></defs><path d="M6 23v91h81.821s12.402-10.172 18.132-15.819c5.729-5.647 16.048-17.872 16.048-17.872v-57.309h-116z" opacity=".5" filter="url(#H)"/><path d="M8 24v88h79.146l32.854-32.854v-55.146h-112z" fill="#fff"/><path d="M10 25c-.551 0-1 .449-1 1v83.964c0 .552.449 1 1 1h75.172c.263 0 2.763.118 2.949-.069l30.586-30.8c.187-.187.293-2.685.293-2.948v-51.147c0-.551-.448-1-1-1h-108z" fill="url(#I)"/><path d="M12 28h104v57.207l-24.119 22.793h-79.881v-80z" fill="url(#J)"/><path d="M187.223 104.206z" stroke="#000" stroke-width=".514" transform="matrix(.515 0 0 .552 -58.93 27.236)" fill="none"/><path d="M183.201 113.075c10.171-4.972 10.43-4.547 17.263.618l-.169-8.478c.056-.11 1.123-1.535 1.123 0l.225 10.525s-.506 12.444-2.303 13.431c-1.348.439-10.28 5.208-10.28 5.208s-1.798.877-3.146 0c-1.348-.877-8.988-6.359-8.988-6.359s-1.123-1.096-.449-2.412c.674-1.316 10.066-26.285 12.29-23.959" fill="#422f17" fill-rule="evenodd" stroke="#000" stroke-width=".514" transform="matrix(.515 0 0 .552 -58.93 27.236)"/><g fill="url(#K)" fill-rule="evenodd"><path d="M34.66 89.498l4.637-2.654s1.101-.603 2.261.241c1.159.844 3.478 2.835 3.478 2.835l.203 1.025-3.964-3.25c-.246-.043-.91-.422-1.63-.188-.638.362-5.476 3.154-5.476 3.154l.491-1.164z" fill="url(#L)"/><path d="M34.083 90.901l5.244-2.913s.985-.724 2.145.121c1.159.844 3.942 3.197 3.71 3.076l-.065 1.59-4.514-3.612s-.869-.422-1.507-.06c-.638.362-5.68 3.197-5.68 3.197l.669-1.399z" fill="url(#M)"/><path d="M33.356 92.512l5.449-2.956s.985-.724 2.145.121c1.159.844 4.328 3.499 4.096 3.378l-.121 1.457-4.845-3.78s-.869-.422-1.507-.06c-.638.362-5.68 3.197-5.68 3.197l.464-1.356z" fill="url(#N)"/><path d="M32.777 94.02l5.449-2.956s.985-.724 2.145.121c1.159.844 4.741 3.624 4.509 3.504l-.22 1.653-5.159-4.102s-.869-.422-1.507-.06c-.638.362-5.68 3.197-5.68 3.197l.464-1.356z" fill="url(#O)"/><path d="M32.225 95.65l5.449-3.137s1.101-.816 2.261.241c1.159.844 4.695 3.74 4.695 3.74.019.603-.251 1.237-.638 1.629.077-.462.734-.744-.174-1.478l-4.453-3.323c-.246-.128-.869-.422-1.507-.06-.638.362-5.516 3.112-5.516 3.112l-.116-.724z" fill="url(#P)"/></g><path d="M202.055 103.144s13.981 23.723 23.037-9.613" stroke="#fff" stroke-width=".514" stroke-opacity=".559" transform="matrix(.515 0 0 .552 -58.93 27.236)" fill="none"/><g fill-rule="evenodd"><path d="M52.98 64.98s9.591 11.26-1.23 14.587c-.82.256 1.23-14.587 1.23-14.587z" fill="url(#Q)"/><path d="M37.445 75.155l.035 2.318c1.983 1.244 4.4 2.124 7.072 2.445 2.67.321 5.22.038 7.422-.701l-.035-2.318c-1.982-1.242-12.291-2.485-14.494-1.745z" fill="#0b6c46"/><path d="M37.594 74.778l-.026 1.9c1.951 1.286 4.377 2.194 7.064 2.518 2.683.323 5.25.018 7.429-.768l.027-1.911c-1.95-1.283-12.313-2.528-14.495-1.739z" fill="#bea613"/><path d="M37.89 71.739l-.216 3.99c1.912 1.354 4.325 2.329 7.049 2.657 2.722.328 5.288-.05 7.445-.912l.216-3.99c-1.911-1.353-12.336-2.609-14.494-1.745z" fill="#b37711"/><path d="M38.044 71.631l-.204 2.608c1.802 1.492 4.233 2.579 7.02 2.915 2.786.335 5.392-.147 7.474-1.17l.204-2.608c-1.802-1.491-12.412-2.769-14.494-1.745z" fill="#ac182a"/><path d="M38.365 69.952l-.364 2.833c1.653 1.658 4.112 2.884 6.985 3.229 2.868.345 5.536-.258 7.508-1.475l.366-2.853c-1.653-1.653-12.522-2.955-14.495-1.734z" fill="#be2873"/><path d="M38.527 67.353l-.286 3.276c1.262 2.015 3.803 3.583 6.904 3.957 3.098.373 5.918-.548 7.589-2.207l.287-3.286c-1.263-2.012-12.824-3.401-14.495-1.739z" fill="#ab0d2d"/><path d="M38.9 64.697l-.476 4.281c1.032 1.999 3.658 3.623 6.898 4.013 3.234.389 6.149-.564 7.595-2.259l.478-4.302c-1.036-1.993-13.052-3.435-14.495-1.734z" fill="#8d0b1e"/><path d="M39.12 62.717l-.476 4.281c1.032 1.999 3.658 3.623 6.898 4.013 3.234.389 6.149-.564 7.595-2.259l.478-4.302c-1.036-1.993-13.052-3.435-14.495-1.734z" fill="#790a59"/><path d="M39.377 60.406l-.476 4.281c1.032 1.999 3.658 3.623 6.898 4.013 3.234.389 6.149-.564 7.595-2.259l.478-4.302c-1.036-1.993-13.052-3.435-14.495-1.734z" fill="#002c91"/><path d="M30.885 71.777l1.353 3.784 3.306 2.856c.682-.208 1.347-.469 1.976-.824l.446-3.928c-.899-.889-4.221-1.652-7.08-1.888z" fill="#0b6c46"/><path d="M30.554 70.849l1.684 4.712 2.537 2.192c1.006-.213 1.966-.598 2.86-1.136l.392-3.816c-.923-.963-4.525-1.769-7.472-1.952z" fill="#bea613"/><path d="M30.662 71.153l1.576 4.408 1.522 1.312c1.433-.137 2.799-.633 4.021-1.44l.2-2.272c-.886-1.001-4.393-1.819-7.319-2.008z" fill="#9f690f"/><path d="M29.394 68.025c-1.03.053-1.859.239-2.283.576l-.061.576 2.568-.952 2.537 7.096c2.133.277 4.176-.405 5.85-1.736l.346-3.4c-.988-1.329-5.865-2.319-8.956-2.16z" fill="#a01728"/><path d="M27.316 66.598l-.338 3.595c1.191 1.984 3.039 3.402 5.268 3.716 2.224.313 4.352-.538 5.973-2.119l.341-3.621c-1.191-1.977-9.622-3.159-11.244-1.572z" fill="#ae055a"/><path d="M27.666 64.273l-.364 3.246c.862 2.44 2.754 4.279 5.159 4.618 2.403.339 4.67-.911 6.083-3.027l.366-3.259c-.863-2.437-9.831-3.698-11.243-1.578z" fill="#9e0c2a"/><path d="M28.191 60.162l-.641 5.31c.683 2.43 2.638 4.334 5.151 4.688 2.508.353 4.852-.94 6.09-3.091l.645-5.336c-.686-2.423-10.007-3.731-11.244-1.572z" fill="#720818"/><path d="M28.487 57.705l-.641 5.31c.683 2.43 2.638 4.334 5.151 4.688 2.508.353 4.852-.94 6.09-3.091l.645-5.336c-.686-2.423-10.007-3.731-11.244-1.572z" fill="#67094d"/><path d="M28.833 54.839l-.641 5.31c.683 2.43 2.638 4.334 5.151 4.688 2.508.353 4.852-.94 6.09-3.091l.645-5.336c-.686-2.423-10.007-3.731-11.244-1.572z" fill="#0035a8"/><path d="M29.031 53.201l-.641 5.31c.683 2.43 2.474 3.822 4.987 4.177 2.508.353 5.016-.428 6.254-2.58l.645-5.336c-.686-2.423-10.007-3.731-11.244-1.572z" fill="#00a867"/><path d="M39.869 57.334l-.476 4.281c1.032 1.999 3.658 3.623 6.898 4.013 3.234.389 6.149-.564 7.595-2.259l.478-4.302c-1.036-1.993-13.052-3.435-14.495-1.734z" fill="#006145"/></g><path d="M38.936 62.728s-3.761 2.723-4.976 14.283c2.372 3.087 15.853 4.055 15.853 4.055s-2.951-13.072-1.157-18.096" fill="url(#R)" fill-rule="evenodd"/><g fill-rule="evenodd"><path d="M74.779 63.467c.248 1.101-.542 8.147-9.339 12.314 5.834-5.687 6.751-8.522 6.016-9.824.832-.285 2.028-4.252 3.322-2.491z" fill="url(#S)"/><path d="M72.605 65.216s-.48 8.406-9.587 11.926c5.834-5.687 6.441-8.198 5.706-9.5.832-.285 2.587-4.187 3.881-2.426z" fill="url(#T)"/><path d="M70.161 65.744c.262 1.085-.14 4.65-6.667 11.128-1.995.995-2.706 1.122-4.086 1.486 2.008-2.17 3.927-6.498 3.927-6.498s2.908-4.165 6.825-6.115z" fill="url(#U)"/><path d="M67.333 67.423c.262 1.085-.264 4.067-6.791 10.545-.194.023-.47.214-4.52 1.551 2.008-2.17 4.486-5.98 4.486-5.98s2.908-4.165 6.825-6.115z" fill="url(#V)"/><path d="M63.482 69.832c-.166 2.067.254 4.583-6.78 9.361-1.662.618-2.134.136-4.105.601 2.008-2.17 6.299-7.149 6.299-7.149s2.063-1.338 4.586-2.813z" fill="url(#W)"/></g><path d="M16.895 28.113c-.051.584-.128 1.893.276 3.756-.541.198-2.606 1.038-4.466 7.136 1.364-2.595 1.493-3.112 4.842-5.707.114-1.075.323-2.546 1.604-5.185h-2.256zm61.348 0c.811 1.541 2.509 5.169 1.934 7.778-.124.389-.407 1.364-.407 1.461.93.616 4.277 2.396 5.517 10.764.217-3.405 1.335-8.95-4.742-13.653.795-2.258 1.043-3.902.798-6.349h-3.1z" fill="url(#X)" fill-rule="evenodd"/><path d="M19.006 28.113c-.438.906-1.63 3.466-1.473 5.153-2.445 1.594-3.626 3.181-4.773 5.723l.008-.048s-1.521 4.197-.315 8.789c.198-2.196-.656-6.165 5.279-12.457-.028-.008.595 1.829 1.235 3.275.15-.632-.789-6.085 7.036-10.435h-6.998z" fill="url(#Y)" fill-rule="evenodd"/><path d="M73.832 28.113c4.942 5.188 4.335 12.457 4.335 12.457s.703-1.557.79-1.557c7.103 7.155 2.801 17.153 2.801 17.153s2.462-2.203 3.514-7.89c-.351-7.43-4.388-10.293-5.44-11.004 0 0 .526-1.006.614-2.657-.62-3.426-1.56-5.469-2.133-6.502h-4.481z" fill="url(#Z)" fill-rule="evenodd"/><path d="M20.009 41s-6.609 5.226-4.06 14.111c.965 2.66 3.157 4.954 3.157 4.954s-4.209-6.696 2.28-15.136c0 0 1.403 3.761 4.209 9.265 1.315-2.568 4.56-5.504 11.05-9.54 6.489-4.036-.526-7.339-.526-7.339s-13.154 3.549-12.891 12.017c-.526-.642-2.811-7.35-3.219-8.332z" fill="url(#aa)" fill-rule="evenodd"/><path d="M25.827 28.113c-2.95 1.63-7.193 4.907-6.875 10.29-.044 0-1.189-3.203-1.189-3.203s-5.872 4.717-5.302 12.377c.438 2.523 1.742 4.816 1.742 4.816s-2.575-8.716 4.397-14.632c.709 2.372 1.858 4.886 2.67 6.798-.044-.275-2.409-8.317 14.472-13.958.072-1.027.041-1.815-.031-2.488h-9.883z" fill="url(#ab)" fill-rule="evenodd"/><path d="M19.106 60.156s1.79 2.331 2.404 2.79c.395.459-3.157-5.855 2.017-13.285.93 3.049 5.086 10.873 5.086 10.873s3.384-5.423 8.646-7.625c2.368-7.155.263-6.421-.702-8.256-1.052.183-10.962 7.43-11.05 9.357-.175-.046-3.49-7.93-4.06-9.077-.526-.55-6.376 8.068-2.342 15.223z" fill="url(#ac)" fill-rule="evenodd"/><path d="M35.963 30.695c-.49-.557-17.149 5.471-14.777 13.53-2.105-4.678-2.499-6.421-2.499-6.421-.124-.519-6.796 4.999-4.516 14.54.57 1.284 1.408 2.583 1.883 3.023-.438-1.651-1.62-9.352 3.861-14.26 1.535 4.128 2.383 5.877 3.369 8.065.438-.459-1.133-6.734 13.074-11.963 1.666-4.541-.395-6.513-.395-6.513z" fill="url(#ad)" fill-rule="evenodd"/><path d="M65.391 28.113c11.325 7.973 10.287 15.367 10.413 16.944.921-1.193 1.685-2.654 2.079-3.251 5.393 7.201 2.261 16.367 1.911 16.872.351 0 1.616-1.829 2.01-2.609 4.779-11.879-2.101-17.298-2.847-17.161-.395.505-.66 1.335-.66 1.381.03-6.986-2.582-10.579-4.243-12.176h-8.663z" fill="url(#ae)" fill-rule="evenodd"/><path d="M56.797 28.113c-1.218.779-1.24 1.895 2.325 3.524 8.991 5.059 12.833 12.684 14.073 17.225.248-.324 2.51-3.626 2.739-3.901 4.827 9.52.852 16.825.238 17.329 0 0 2.915-1.911 3.722-3.403 3.814-10.605-2.041-17.193-2.041-17.193s-.128.584-1.926 3.179c.355-8.501-6.365-14.186-10.236-16.759h-8.893z" fill="url(#af)" fill-rule="evenodd"/><path d="M59.421 31.612s11.948 6.716 13.746 16.964c2.604-3.762 2.108-3.281 2.666-3.605.558-.324 5.209 10.054.434 17.319-3.721 3.503-4.093 3.373-5.023 3.892.248-.649 5.953-4.746 1.736-17.395-1.054 2.141-3.209 4.465-3.209 4.465s-1.627-8.734-12.851-15.156c-7.627-3.178 2.495-6.907 2.583-6.724" fill="url(#ag)" fill-rule="evenodd"/><path d="M56.983 38.058l-2.847 7.692c.175.183 7.808 3.892 11.033 12.713.331.015 4.093-4.346 4.465-5.124.372-.778 2.945 10.735-1.364 14.984 1.988-1.277 2.998-1.541 3.597-2.465.248-.649 5.116-5.481 1.147-17.027-1.094 1.663-2.563 3.321-3.194 4.054-.735-2.951-3.853-9.521-12.836-14.827z" fill="url(#ah)" fill-rule="evenodd"/><path d="M35.595 28.113l.146 2.946s10.271-6.465 23.864.69c.753-1.135 1.508-2.492 2.141-3.636h-26.151z" fill="#1f4a2a" fill-rule="evenodd"/><g fill-rule="evenodd"><path d="M21.589 62.866s-.199 3.614 3.526 7.532c-1.921-3.865-2.532-5.528-1.91-5.915-.373-.323-.621-2.069-1.615-1.616z" fill="url(#ai)"/><path d="M22.824 63.314c-.338.407-.629 1.826 1.499 6.2 1.211 1.457 1.404 1.58 3.212 3.259-.621-1.422-2.362-5.17-2.362-5.17s-.708-2.503-2.349-4.289z" fill="url(#aj)"/><path d="M23.959 64.721c-.338.407-.629 1.826 1.499 6.2 1.211 1.457 1.404 1.58 3.212 3.259-.621-1.422-2.362-5.17-2.362-5.17s-.708-2.503-2.349-4.289z" fill="url(#ak)"/><path d="M25.479 66.69c-.303.936-.416 3.073 2.291 6.832.735.667 1.75 1.296 2.672 1.97-.621-1.422-3.141-6.482-3.141-6.482s-.806-1.075-1.822-2.32z" fill="url(#al)"/></g><path d="M32.148 75.919s-1.403.275-1.842-.183c-.438-.459-2.894-3.669-3.069-6.054-1.14-1.559-5.174-5.687-5.613-6.605-.789-1.193-2.894-6.935 1.754-13.723 2.017 4.22 4.823 10.366 5.174 10.824.526-.367 1.403-3.394 8.594-7.614-.351-4.954-1.491-20.952-1.228-21.685.263-.734 10.699-6.605 23.678.917-3.683 9.448-5.086 13.026-5.262 14.035.088.183 7.454 2.568 11.05 12.292 2.105-2.385 2.894-3.578 4.385-5.32 1.228 3.486 2.105 11.833-1.491 15.594-3.771 3.027-8.594 5.32-9.033 5.963-.438.642-3.508 4.678-6.753 5.412 0-.092 2.105-1.926 2.28-2.66.175-.734.965-6.972.965-6.972l-6.84-6.972-10.436-.55s-5.613 3.669-6.928 5.32c-.175 1.559.614 7.981.614 7.981z" fill="url(#am)" fill-rule="evenodd"/><path d="M80.441 34.689c-.616 7.552-14.479 22.96-24.453 34.736l-.372.389c.124 0 9.187-7.82 15.1-9.53 14.595 4.528 18.968-20.896 9.725-25.595z" fill="url(#an)" fill-rule="evenodd"/><path d="M85.011 49.642s-12.402 11.676-23.936 17.124c-11.534 5.449-2.232 6.616-2.232 6.616s22.696-10.508 26.168-23.74z" opacity=".4" fill="url(#ao)" fill-rule="evenodd"/><path d="M81.293 29.833c0-2.018-5.737 14.244-22.884 24.83-11.534 5.449-5.916 11.753-2.759 13.771 7.542-8.623 24.45-24.084 25.642-38.601z" opacity=".4" fill="url(#ap)" fill-rule="evenodd"/><path d="M75.114 63.796s-11.41 9.211-16.867 11.027c10.08-.515 15.379-2.335 16.867-11.027z" opacity=".7" fill="url(#aq)" fill-rule="evenodd"/><path d="M32.282 75.922l2.43 2.3c.636.061 1.851-.121 2.777-.545 0 0 6.249 5.084 16.316 1.15-6.422 4.842-10.704 2.481-14.464 2.784-2.314-2.058-8.447-5.689-8.794-5.689h1.736z" fill-rule="evenodd"/><path d="M48.83 63.697c.463 6.254-2.083 18.802-2.083 18.761l-7.637-.484-5.091-3.994 7.174 9.199 13.076-9.078s.116-5.81 1.157-6.778l-.116-1.452s-4.86-3.631-6.48-6.173z" fill="url(#ar)" fill-rule="evenodd"/><path d="M46.863 82.579l9.026-12.467s-1.504 2.421-1.62 7.868l-7.406 4.6z" fill="url(#as)" fill-rule="evenodd"/><path d="M81.293 30.86c0-2.018-5.737 14.244-22.884 24.83-11.534 5.449-5.916 10.726-2.759 12.744 7.542-8.623 24.45-23.057 25.642-37.574z" opacity=".4" fill="url(#at)" fill-rule="evenodd"/><path d="M84.52 50.669s-11.911 11.676-23.445 17.124c-11.534 5.449-2.232 5.589-2.232 5.589s20.732-9.994 25.677-22.713z" opacity=".6" fill="url(#au)" fill-rule="evenodd"/><path d="M75.114 63.796s-11.41 9.211-16.867 11.027c8.771-1.371 15.379-2.335 16.867-11.027z" opacity=".7" fill="url(#av)" fill-rule="evenodd"/><path d="M-42.026 16.802v-2.562 2.562zm95.488-1.063v-2.022 2.022z" fill="#fff" fill-opacity=".757"/><path d="M73 63.5h43v22l-22.5 22.5h-20.5v-44.5z" opacity=".243" fill="url(#aw)"/><path clip-path="url(#ax)" d="M91.88 109.982l24.31-24.31s-9.353 2.913-19.603 2.913c0 10.25-4.706 21.396-4.706 21.396z" opacity=".4" filter="url(#ay)"/><path d="M89.172 114s11.914-9.914 17.414-15.414c5.5-5.5 15.414-17.414 15.414-17.414s-13.75 8.828-24 8.828c0 10.25-8.828 24-8.828 24z" fill="url(#az)"/></svg>