<svg xmlns="http://www.w3.org/2000/svg" xmlns:xlink="http://www.w3.org/1999/xlink" width="128" height="128" version="1"><defs><linearGradient id="a"><stop offset="0" stop-color="#ffdfbf"/><stop offset="1" stop-color="#ffdfbf" stop-opacity="0"/></linearGradient><linearGradient xlink:href="#a" id="ai" x1="52.25" y1="97.514" x2="52.25" y2="22.061" gradientUnits="userSpaceOnUse"/><linearGradient xlink:href="#b" id="ab" gradientUnits="userSpaceOnUse" x1="13.77" y1="5.454" x2="50.603" y2="26.35" gradientTransform="translate(100.964 -31.04)"/><linearGradient xlink:href="#c" id="aa" gradientUnits="userSpaceOnUse" x1="90.051" y1="4.599" x2="62.901" y2="21.152" gradientTransform="translate(100.964 -31.04)"/><linearGradient xlink:href="#d" id="Z" gradientUnits="userSpaceOnUse" gradientTransform="translate(100.964 -31.04)" x1="63.574" y1="16.737" x2="59.167" y2="24.58"/><filter x="-.074" width="1.148" y="-.176" height="1.353" id="V"><feGaussianBlur stdDeviation="3.157"/></filter><linearGradient xlink:href="#d" id="aj" gradientUnits="userSpaceOnUse" gradientTransform="matrix(1.002 0 0 1 -.216 0)" x1="64.25" y1="45.313" x2="73.563" y2="43.813"/><linearGradient xlink:href="#e" id="af" gradientUnits="userSpaceOnUse" x1=".602" y1="60.58" x2="1.102" y2="60.58"/><linearGradient xlink:href="#f" id="ae" gradientUnits="userSpaceOnUse" x1="2.2" y1="60.716" x2="3.198" y2="60.66"/><linearGradient xlink:href="#g" id="ad" gradientUnits="userSpaceOnUse" x1="103.898" y1="60.58" x2="103.398" y2="60.58"/><linearGradient xlink:href="#h" id="ac" gradientUnits="userSpaceOnUse" x1="101.303" y1="60.659" x2="102.301" y2="60.715"/><linearGradient xlink:href="#i" id="Y" gradientUnits="userSpaceOnUse" x1="45.358" y1="9.065" x2="45.358" y2="25.815"/><linearGradient xlink:href="#j" id="X" gradientUnits="userSpaceOnUse" x1=".25" y1="13.295" x2="104.25" y2="13.295"/><radialGradient xlink:href="#k" id="W" gradientUnits="userSpaceOnUse" cx="7.5" cy="8.33" r="126.413"/><linearGradient id="Q" gradientUnits="userSpaceOnUse" x1="63.106" y1="71.977" x2="65.106" y2="80.977"><stop offset=".051" stop-color="#fff"/><stop offset="1" stop-color="#D3D7CF"/></linearGradient><linearGradient id="P" gradientUnits="userSpaceOnUse" x1="62" y1="76" x2="66" y2="76"><stop offset=".051" stop-color="#fff"/><stop offset=".933" stop-color="#D3D7CF"/><stop offset="1" stop-color="#888A85"/></linearGradient><linearGradient id="O" gradientUnits="userSpaceOnUse" x1="61.706" y1="77.532" x2="67.762" y2="107.808"><stop offset="0" stop-color="#EEEEEC"/><stop offset="1" stop-color="#BABDB6"/></linearGradient><linearGradient id="N" gradientUnits="userSpaceOnUse" x1="61.316" y1="83.099" x2="68.316" y2="101.099"><stop offset=".006" stop-color="#fff"/><stop offset=".135" stop-color="#F0F0F0"/><stop offset=".384" stop-color="#CACAC9"/><stop offset=".723" stop-color="#8C8D8B"/><stop offset="1" stop-color="#555753"/></linearGradient><linearGradient id="M" gradientUnits="userSpaceOnUse" x1="63.542" y1="74.092" x2="64.542" y2="79.093"><stop offset="0" stop-color="#a9ada4"/><stop offset="1" stop-color="#3f403d"/></linearGradient><linearGradient id="L" gradientUnits="userSpaceOnUse" x1="62.05" y1="69.625" x2="67.05" y2="83.624"><stop offset="0" stop-color="#fff"/><stop offset=".133" stop-color="#FAFAFA"/><stop offset=".288" stop-color="#ECEDEC"/><stop offset=".453" stop-color="#D5D6D5"/><stop offset=".625" stop-color="#B5B6B4"/><stop offset=".803" stop-color="#8C8D8A"/><stop offset=".984" stop-color="#5A5C58"/><stop offset="1" stop-color="#555753"/></linearGradient><linearGradient id="K" gradientUnits="userSpaceOnUse" x1="56.891" y1="67.886" x2="68.891" y2="82.886"><stop offset="0" stop-color="#fff"/><stop offset="1" stop-color="#373836"/></linearGradient><linearGradient id="J" gradientUnits="userSpaceOnUse" x1="60.333" y1="67.612" x2="68.415" y2="103.983"><stop offset=".051" stop-color="#515151"/><stop offset="1" stop-color="#343633"/></linearGradient><linearGradient id="I" gradientUnits="userSpaceOnUse" x1="33.789" y1="57.999" x2="33.789" y2="119"><stop offset=".051" stop-color="#EEEEEC"/><stop offset="1" stop-color="#888A85"/></linearGradient><linearGradient id="H" gradientUnits="userSpaceOnUse" x1="84.012" y1="28.52" x2="85.344" y2="35.179" gradientTransform="matrix(-.256 .967 .967 .256 25.537 -35.914)"><stop offset=".051" stop-color="#EEEEEC"/><stop offset="1" stop-color="#888A85"/></linearGradient><linearGradient id="G" gradientUnits="userSpaceOnUse" x1="41.035" y1="58" x2="41.035" y2="119.001"><stop offset=".051" stop-color="#EEEEEC"/><stop offset="1" stop-color="#888A85"/></linearGradient><linearGradient id="F" gradientUnits="userSpaceOnUse" x1="83.388" y1="36.475" x2="84.72" y2="43.134" gradientTransform="matrix(-.424 .905 .905 .424 41.46 -36.33)"><stop offset=".051" stop-color="#EEEEEC"/><stop offset="1" stop-color="#888A85"/></linearGradient><linearGradient id="E" gradientUnits="userSpaceOnUse" x1="48.586" y1="57.999" x2="48.586" y2="119"><stop offset=".051" stop-color="#EEEEEC"/><stop offset="1" stop-color="#888A85"/></linearGradient><linearGradient id="D" gradientUnits="userSpaceOnUse" x1="83.064" y1="44.913" x2="84.395" y2="51.571" gradientTransform="matrix(-.596 .803 .803 .596 60.448 -34.831)"><stop offset=".051" stop-color="#EEEEEC"/><stop offset="1" stop-color="#888A85"/></linearGradient><linearGradient id="C" gradientUnits="userSpaceOnUse" x1="55.313" y1="57.999" x2="55.313" y2="119"><stop offset=".051" stop-color="#EEEEEC"/><stop offset="1" stop-color="#888A85"/></linearGradient><linearGradient id="B" gradientUnits="userSpaceOnUse" x1="54.889" y1="61.902" x2="55.889" y2="70.901"><stop offset=".051" stop-color="#EEEEEC"/><stop offset="1" stop-color="#888A85"/></linearGradient><linearGradient id="A" gradientUnits="userSpaceOnUse" x1="59.367" y1="57.999" x2="59.367" y2="119"><stop offset=".051" stop-color="#EEEEEC"/><stop offset="1" stop-color="#888A85"/></linearGradient><linearGradient id="z" gradientUnits="userSpaceOnUse" x1="81.427" y1="64.792" x2="82.758" y2="71.45" gradientTransform="matrix(-.894 .448 .448 .894 102.496 -24.378)"><stop offset=".051" stop-color="#EEEEEC"/><stop offset="1" stop-color="#888A85"/></linearGradient><linearGradient id="y"><stop offset="0" stop-color="#bbbecc" stop-opacity=".941"/><stop offset="1" stop-color="#363a52"/></linearGradient><linearGradient id="x" gradientUnits="userSpaceOnUse" x1="66.529" y1="114.649" x2="67.861" y2="121.31"><stop offset=".051" stop-color="#EEEEEC"/><stop offset="1" stop-color="#888A85"/></linearGradient><linearGradient id="w" gradientUnits="userSpaceOnUse" x1="72.53" y1="110.65" x2="73.862" y2="117.31" gradientTransform="matrix(-1 0 0 1 134 0)"><stop offset=".051" stop-color="#EEEEEC"/><stop offset="1" stop-color="#888A85"/></linearGradient><linearGradient id="v" gradientUnits="userSpaceOnUse" x1="66.53" y1="106.649" x2="67.862" y2="113.31"><stop offset=".051" stop-color="#EEEEEC"/><stop offset="1" stop-color="#888A85"/></linearGradient><linearGradient id="u" gradientUnits="userSpaceOnUse" x1="72.529" y1="102.648" x2="73.862" y2="109.311" gradientTransform="matrix(-1 0 0 1 134 0)"><stop offset=".051" stop-color="#EEEEEC"/><stop offset="1" stop-color="#888A85"/></linearGradient><linearGradient id="t" gradientUnits="userSpaceOnUse" x1="66.53" y1="98.649" x2="67.862" y2="105.31"><stop offset=".051" stop-color="#EEEEEC"/><stop offset="1" stop-color="#888A85"/></linearGradient><linearGradient id="s" gradientUnits="userSpaceOnUse" x1="72.53" y1="94.651" x2="73.862" y2="101.311" gradientTransform="matrix(-1 0 0 1 134 0)"><stop offset=".051" stop-color="#EEEEEC"/><stop offset="1" stop-color="#888A85"/></linearGradient><linearGradient id="r" gradientUnits="userSpaceOnUse" x1="67" y1="58.001" x2="67" y2="119.001"><stop offset=".051" stop-color="#bdbec4"/><stop offset="1" stop-color="#fff"/></linearGradient><linearGradient id="q" gradientUnits="userSpaceOnUse" x1="66.53" y1="90.649" x2="67.862" y2="97.31"><stop offset=".051" stop-color="#EEEEEC"/><stop offset="1" stop-color="#888A85"/></linearGradient><linearGradient id="p" gradientUnits="userSpaceOnUse" x1="60.999" y1="58.001" x2="60.999" y2="119.001"><stop offset=".051" stop-color="#EEEEEC"/><stop offset="1" stop-color="#f3f3f2"/></linearGradient><linearGradient id="o" gradientUnits="userSpaceOnUse" x1="72.529" y1="86.649" x2="73.861" y2="93.31" gradientTransform="matrix(-1 0 0 1 134 0)"><stop offset=".051" stop-color="#EEEEEC"/><stop offset="1" stop-color="#888A85"/></linearGradient><linearGradient id="n"><stop offset="0" stop-color="#616881" stop-opacity=".941"/><stop offset="1" stop-color="#c2c5d7"/></linearGradient><linearGradient y2="26.35" x2="50.603" y1="4.104" x1="12.071" gradientUnits="userSpaceOnUse" id="b"><stop offset=".012" stop-color="#AD9C80"/><stop offset=".044" stop-color="#FFE6BC"/><stop offset=".072" stop-color="#C4B091"/><stop offset=".103" stop-color="#DEC8A4"/><stop offset="1" stop-color="#B39E7C"/></linearGradient><linearGradient y2="21.152" x2="62.901" y1="4.599" x1="91.572" gradientUnits="userSpaceOnUse" id="c"><stop offset=".012" stop-color="#AD9C80"/><stop offset=".052" stop-color="#FFE6BC"/><stop offset=".068" stop-color="#C4B091"/><stop offset=".112" stop-color="#DEC8A4"/><stop offset="1" stop-color="#B39E7C"/></linearGradient><linearGradient id="d"><stop offset="0"/><stop offset="1" stop-opacity="0"/></linearGradient><linearGradient id="m"><stop offset="0"/><stop offset="1" stop-opacity=".498"/><stop offset="1" stop-opacity="0"/></linearGradient><clipPath id="ah"><path d="M53.057 56.968l.025-.129.018-.132.012-.133.003-.136-.003.136-.012.133-.018.132-.025.129z" enable-background="new"/></clipPath><linearGradient id="e" gradientUnits="userSpaceOnUse" x1=".602" y1="60.58" x2="1.102" y2="60.58"><stop offset="0" stop-color="#544C3E"/><stop offset="1"/></linearGradient><linearGradient id="f" gradientUnits="userSpaceOnUse" x1="2.2" y1="60.716" x2="3.198" y2="60.66"><stop offset="0" stop-color="#B39E7C"/><stop offset="1" stop-color="#544C3E"/></linearGradient><linearGradient id="g" gradientUnits="userSpaceOnUse" x1="103.898" y1="60.58" x2="103.398" y2="60.58"><stop offset="0" stop-color="#544C3E"/><stop offset=".216" stop-color="#50483B"/><stop offset=".436" stop-color="#443D32"/><stop offset=".657" stop-color="#2F2B23"/><stop offset=".877" stop-color="#13110E"/><stop offset="1"/></linearGradient><linearGradient id="h" gradientUnits="userSpaceOnUse" x1="101.303" y1="60.659" x2="102.301" y2="60.715"><stop offset="0" stop-color="#544C3E"/><stop offset="1" stop-color="#B39E7C"/></linearGradient><linearGradient id="i"><stop offset="0"/><stop offset="1" stop-opacity="0"/></linearGradient><linearGradient id="j" gradientUnits="userSpaceOnUse" x1=".25" y1="13.295" x2="104.25" y2="13.295"><stop offset="0" stop-color="#8F6B32"/><stop offset=".5" stop-color="#3e2e15"/><stop offset="1" stop-color="#8F6B32"/></linearGradient><radialGradient id="k" cx="7.5" cy="8.33" r="126.413" gradientUnits="userSpaceOnUse"><stop offset=".272" stop-color="#DBC298"/><stop offset=".455" stop-color="#C7B08A"/><stop offset=".718" stop-color="#b99c6f"/><stop offset=".882" stop-color="#b09469"/><stop offset="1" stop-color="#a48a5f"/></radialGradient><linearGradient id="R"><stop offset="0" stop-color="#a2a2a2"/><stop offset="1" stop-color="#fff"/></linearGradient><radialGradient id="l" cx="102" cy="112.305" r="139.559" gradientUnits="userSpaceOnUse"><stop offset="0" stop-color="#b7b8b9"/><stop offset=".189" stop-color="#ECECEC"/><stop offset=".257" stop-color="#FAFAFA"/><stop offset=".301" stop-color="#fff"/><stop offset=".531" stop-color="#FAFAFA"/><stop offset=".845" stop-color="#EBECEC"/><stop offset="1" stop-color="#E1E2E3"/></radialGradient><filter x="-.192" width="1.384" y="-.192" height="1.384" id="bx"><feGaussianBlur stdDeviation="1.945"/></filter><clipPath id="bw"><path d="M72 88l-32 32h-8v-40h40v8z" fill-rule="evenodd"/></clipPath><radialGradient xlink:href="#l" id="T" gradientUnits="userSpaceOnUse" gradientTransform="translate(0 .003)" cx="102" cy="112.305" r="139.559"/><filter id="S"><feGaussianBlur stdDeviation="2.079"/></filter><radialGradient xlink:href="#m" id="U" gradientUnits="userSpaceOnUse" gradientTransform="matrix(1 0 0 .216 0 82.353)" cx="64" cy="105" fx="64" fy="105" r="51"/><linearGradient xlink:href="#n" id="ak" gradientUnits="userSpaceOnUse" x1="68.326" y1="36" x2="64" y2="120"/><linearGradient xlink:href="#o" id="al" gradientUnits="userSpaceOnUse" gradientTransform="matrix(-.768 0 0 .768 117.653 -22.961)" x1="72.529" y1="86.649" x2="73.861" y2="93.31"/><linearGradient xlink:href="#p" id="am" gradientUnits="userSpaceOnUse" gradientTransform="matrix(.768 0 0 .768 14.706 -22.961)" x1="60.999" y1="58.001" x2="60.999" y2="119.001"/><linearGradient xlink:href="#q" id="an" gradientUnits="userSpaceOnUse" gradientTransform="matrix(.768 0 0 .768 14.706 -22.961)" x1="66.53" y1="90.649" x2="67.862" y2="97.31"/><linearGradient xlink:href="#r" id="ao" gradientUnits="userSpaceOnUse" gradientTransform="matrix(.768 0 0 .768 14.706 -22.961)" x1="67" y1="58.001" x2="67" y2="119.001"/><linearGradient xlink:href="#s" id="ap" gradientUnits="userSpaceOnUse" gradientTransform="matrix(-.768 0 0 .768 117.653 -22.961)" x1="72.53" y1="94.651" x2="73.862" y2="101.311"/><linearGradient xlink:href="#p" id="aq" gradientUnits="userSpaceOnUse" gradientTransform="matrix(.768 0 0 .768 14.706 -22.961)" x1="60.999" y1="58.001" x2="60.999" y2="119.001"/><linearGradient xlink:href="#t" id="ar" gradientUnits="userSpaceOnUse" gradientTransform="matrix(.768 0 0 .768 14.706 -22.961)" x1="66.53" y1="98.649" x2="67.862" y2="105.31"/><linearGradient xlink:href="#r" id="as" gradientUnits="userSpaceOnUse" gradientTransform="matrix(.768 0 0 .768 14.706 -22.961)" x1="67" y1="58.001" x2="67" y2="119.001"/><linearGradient xlink:href="#u" id="at" gradientUnits="userSpaceOnUse" gradientTransform="matrix(-.768 0 0 .768 117.653 -22.961)" x1="72.529" y1="102.648" x2="73.862" y2="109.311"/><linearGradient xlink:href="#p" id="au" gradientUnits="userSpaceOnUse" gradientTransform="matrix(.768 0 0 .768 14.706 -22.961)" x1="60.999" y1="58.001" x2="60.999" y2="119.001"/><linearGradient xlink:href="#v" id="av" gradientUnits="userSpaceOnUse" gradientTransform="matrix(.768 0 0 .768 14.706 -22.961)" x1="66.53" y1="106.649" x2="67.862" y2="113.31"/><linearGradient xlink:href="#r" id="aw" gradientUnits="userSpaceOnUse" gradientTransform="matrix(.768 0 0 .768 14.706 -22.961)" x1="67" y1="58.001" x2="67" y2="119.001"/><linearGradient xlink:href="#w" id="ax" gradientUnits="userSpaceOnUse" gradientTransform="matrix(-.768 0 0 .768 117.653 -22.961)" x1="72.53" y1="110.65" x2="73.862" y2="117.31"/><linearGradient xlink:href="#p" id="ay" gradientUnits="userSpaceOnUse" gradientTransform="matrix(.768 0 0 .768 14.706 -22.961)" x1="60.999" y1="58.001" x2="60.999" y2="119.001"/><linearGradient xlink:href="#x" id="az" gradientUnits="userSpaceOnUse" gradientTransform="matrix(.768 0 0 .768 14.706 -22.961)" x1="66.529" y1="114.649" x2="67.861" y2="121.31"/><linearGradient xlink:href="#r" id="aA" gradientUnits="userSpaceOnUse" gradientTransform="matrix(.768 0 0 .768 14.706 -22.961)" x1="67" y1="58.001" x2="67" y2="119.001"/><linearGradient xlink:href="#s" id="aB" gradientUnits="userSpaceOnUse" gradientTransform="matrix(-.768 0 0 .768 117.653 -3.961)" x1="72.53" y1="94.651" x2="73.862" y2="101.311"/><linearGradient xlink:href="#p" id="aC" gradientUnits="userSpaceOnUse" gradientTransform="matrix(.768 0 0 .768 14.706 -3.961)" x1="60.999" y1="58.001" x2="60.999" y2="119.001"/><linearGradient xlink:href="#t" id="aD" gradientUnits="userSpaceOnUse" gradientTransform="matrix(.768 0 0 .768 14.706 -3.961)" x1="66.53" y1="98.649" x2="67.862" y2="105.31"/><linearGradient xlink:href="#r" id="aE" gradientUnits="userSpaceOnUse" gradientTransform="matrix(.768 0 0 .768 14.706 -3.961)" x1="67" y1="58.001" x2="67" y2="119.001"/><linearGradient xlink:href="#u" id="aF" gradientUnits="userSpaceOnUse" gradientTransform="matrix(-.768 0 0 .768 117.653 -3.961)" x1="72.529" y1="102.648" x2="73.862" y2="109.311"/><linearGradient xlink:href="#p" id="aG" gradientUnits="userSpaceOnUse" gradientTransform="matrix(.768 0 0 .768 14.706 -3.961)" x1="60.999" y1="58.001" x2="60.999" y2="119.001"/><linearGradient xlink:href="#v" id="aH" gradientUnits="userSpaceOnUse" gradientTransform="matrix(.768 0 0 .768 14.706 -3.961)" x1="66.53" y1="106.649" x2="67.862" y2="113.31"/><linearGradient xlink:href="#r" id="aI" gradientUnits="userSpaceOnUse" gradientTransform="matrix(.768 0 0 .768 14.706 -3.961)" x1="67" y1="58.001" x2="67" y2="119.001"/><linearGradient xlink:href="#w" id="aJ" gradientUnits="userSpaceOnUse" gradientTransform="matrix(-.768 0 0 .768 117.653 -3.961)" x1="72.53" y1="110.65" x2="73.862" y2="117.31"/><linearGradient xlink:href="#p" id="aK" gradientUnits="userSpaceOnUse" gradientTransform="matrix(.768 0 0 .768 14.706 -3.961)" x1="60.999" y1="58.001" x2="60.999" y2="119.001"/><linearGradient xlink:href="#x" id="aL" gradientUnits="userSpaceOnUse" gradientTransform="matrix(.768 0 0 .768 14.706 -3.961)" x1="66.529" y1="114.649" x2="67.861" y2="121.31"/><linearGradient xlink:href="#r" id="aM" gradientUnits="userSpaceOnUse" gradientTransform="matrix(.768 0 0 .768 14.706 -3.961)" x1="67" y1="58.001" x2="67" y2="119.001"/><linearGradient xlink:href="#w" id="aN" gradientUnits="userSpaceOnUse" gradientTransform="matrix(-.768 0 0 .768 117.653 2.039)" x1="72.53" y1="110.65" x2="73.862" y2="117.31"/><linearGradient xlink:href="#p" id="aO" gradientUnits="userSpaceOnUse" gradientTransform="matrix(.768 0 0 .768 14.706 2.039)" x1="60.999" y1="58.001" x2="60.999" y2="119.001"/><linearGradient xlink:href="#x" id="aP" gradientUnits="userSpaceOnUse" gradientTransform="matrix(.768 0 0 .768 14.706 2.039)" x1="66.529" y1="114.649" x2="67.861" y2="121.31"/><linearGradient xlink:href="#r" id="aQ" gradientUnits="userSpaceOnUse" gradientTransform="matrix(.768 0 0 .768 14.706 2.039)" x1="67" y1="58.001" x2="67" y2="119.001"/><linearGradient xlink:href="#w" id="aR" gradientUnits="userSpaceOnUse" gradientTransform="matrix(-.768 0 0 .768 117.653 8.039)" x1="72.53" y1="110.65" x2="73.862" y2="117.31"/><linearGradient xlink:href="#p" id="aS" gradientUnits="userSpaceOnUse" gradientTransform="matrix(.768 0 0 .768 14.706 8.039)" x1="60.999" y1="58.001" x2="60.999" y2="119.001"/><linearGradient xlink:href="#y" id="aT" gradientUnits="userSpaceOnUse" gradientTransform="matrix(1 0 0 -1 0 140)" x1="64" y1="58.808" x2="64" y2="96.378"/><linearGradient xlink:href="#z" id="aU" gradientUnits="userSpaceOnUse" gradientTransform="matrix(-.687 .344 .344 .687 93.45 -41.69)" x1="81.427" y1="64.792" x2="82.758" y2="71.45"/><linearGradient xlink:href="#A" id="aV" gradientUnits="userSpaceOnUse" gradientTransform="matrix(.768 0 0 .768 14.706 -22.961)" x1="59.367" y1="57.999" x2="59.367" y2="119"/><linearGradient xlink:href="#B" id="aW" gradientUnits="userSpaceOnUse" gradientTransform="matrix(.768 0 0 .768 14.706 -22.961)" x1="54.889" y1="61.902" x2="55.889" y2="70.901"/><linearGradient xlink:href="#C" id="aX" gradientUnits="userSpaceOnUse" gradientTransform="matrix(.768 0 0 .768 14.706 -22.961)" x1="55.313" y1="57.999" x2="55.313" y2="119"/><linearGradient xlink:href="#D" id="aY" gradientUnits="userSpaceOnUse" gradientTransform="matrix(-.458 .617 .617 .458 61.146 -49.721)" x1="83.064" y1="44.913" x2="84.395" y2="51.571"/><linearGradient xlink:href="#E" id="aZ" gradientUnits="userSpaceOnUse" gradientTransform="matrix(.768 0 0 .768 14.706 -22.961)" x1="48.586" y1="57.999" x2="48.586" y2="119"/><linearGradient xlink:href="#F" id="ba" gradientUnits="userSpaceOnUse" gradientTransform="matrix(-.326 .696 .696 .326 46.558 -50.872)" x1="83.388" y1="36.475" x2="84.72" y2="43.134"/><linearGradient xlink:href="#G" id="bb" gradientUnits="userSpaceOnUse" gradientTransform="matrix(.768 0 0 .768 14.706 -22.961)" x1="41.035" y1="58" x2="41.035" y2="119.001"/><linearGradient xlink:href="#z" id="bc" gradientUnits="userSpaceOnUse" gradientTransform="matrix(-.687 .344 .344 .687 93.45 -41.69)" x1="81.427" y1="64.792" x2="82.758" y2="71.45"/><linearGradient xlink:href="#A" id="bd" gradientUnits="userSpaceOnUse" gradientTransform="matrix(.768 0 0 .768 14.706 -22.961)" x1="59.367" y1="57.999" x2="59.367" y2="119"/><linearGradient xlink:href="#B" id="be" gradientUnits="userSpaceOnUse" gradientTransform="matrix(.768 0 0 .768 14.706 -22.961)" x1="54.889" y1="61.902" x2="55.889" y2="70.901"/><linearGradient xlink:href="#C" id="bf" gradientUnits="userSpaceOnUse" gradientTransform="matrix(.768 0 0 .768 14.706 -22.961)" x1="55.313" y1="57.999" x2="55.313" y2="119"/><linearGradient xlink:href="#D" id="bg" gradientUnits="userSpaceOnUse" gradientTransform="matrix(-.458 .617 .617 .458 61.146 -49.721)" x1="83.064" y1="44.913" x2="84.395" y2="51.571"/><linearGradient xlink:href="#E" id="bh" gradientUnits="userSpaceOnUse" gradientTransform="matrix(.768 0 0 .768 14.706 -22.961)" x1="48.586" y1="57.999" x2="48.586" y2="119"/><linearGradient xlink:href="#F" id="bi" gradientUnits="userSpaceOnUse" gradientTransform="matrix(-.326 .696 .696 .326 46.558 -50.872)" x1="83.388" y1="36.475" x2="84.72" y2="43.134"/><linearGradient xlink:href="#G" id="bj" gradientUnits="userSpaceOnUse" gradientTransform="matrix(.768 0 0 .768 14.706 -22.961)" x1="41.035" y1="58" x2="41.035" y2="119.001"/><linearGradient xlink:href="#H" id="bk" gradientUnits="userSpaceOnUse" gradientTransform="matrix(-.196 .743 .743 .196 34.325 -50.553)" x1="84.012" y1="28.52" x2="85.344" y2="35.179"/><linearGradient xlink:href="#I" id="bl" gradientUnits="userSpaceOnUse" gradientTransform="matrix(.768 0 0 .768 14.706 -22.961)" x1="33.789" y1="57.999" x2="33.789" y2="119"/><linearGradient xlink:href="#J" id="bm" gradientUnits="userSpaceOnUse" gradientTransform="matrix(.768 0 0 .768 14.706 -22.961)" x1="60.333" y1="67.612" x2="68.415" y2="103.983"/><linearGradient xlink:href="#K" id="bo" gradientUnits="userSpaceOnUse" gradientTransform="matrix(.768 0 0 .768 14.706 -22.961)" x1="56.891" y1="67.886" x2="68.891" y2="82.886"/><linearGradient xlink:href="#L" id="bp" gradientUnits="userSpaceOnUse" gradientTransform="matrix(.768 0 0 .768 14.706 -22.961)" x1="62.05" y1="69.625" x2="67.05" y2="83.624"/><linearGradient xlink:href="#M" id="bq" gradientUnits="userSpaceOnUse" gradientTransform="matrix(.768 0 0 .768 14.706 -22.961)" x1="63.542" y1="74.092" x2="64.542" y2="79.093"/><linearGradient xlink:href="#N" id="bs" gradientUnits="userSpaceOnUse" gradientTransform="matrix(.768 0 0 .768 14.706 -22.961)" x1="61.316" y1="83.099" x2="68.316" y2="101.099"/><linearGradient xlink:href="#O" id="bt" gradientUnits="userSpaceOnUse" gradientTransform="matrix(.768 0 0 .768 14.706 -22.961)" x1="61.706" y1="77.532" x2="67.762" y2="107.808"/><linearGradient xlink:href="#P" id="bu" gradientUnits="userSpaceOnUse" gradientTransform="matrix(.768 0 0 .768 14.706 -22.961)" x1="62" y1="76" x2="66" y2="76"/><linearGradient xlink:href="#Q" id="bv" gradientUnits="userSpaceOnUse" gradientTransform="matrix(.768 0 0 .768 14.706 -22.961)" x1="63.106" y1="71.977" x2="65.106" y2="80.977"/><filter id="bn"><feGaussianBlur stdDeviation=".412"/></filter><filter x="-.059" width="1.119" y="-.356" height="1.712" id="br"><feGaussianBlur stdDeviation=".228"/></filter><linearGradient xlink:href="#R" id="by" gradientUnits="userSpaceOnUse" gradientTransform="translate(10)" x1="98.617" y1="106.414" x2="91.229" y2="99.255"/></defs><path d="M14 7v115h65.821s12.402-10.172 18.132-15.819c5.729-5.647 16.048-17.872 16.048-17.872v-81.309h-100z" opacity=".5" filter="url(#S)"/><path d="M16 8v112h63.146l32.854-32.854v-79.146h-96z" fill="#fff"/><path d="M18 9c-.551 0-1 .449-1 1v107.964c0 .552.449 1 1 1h59.172c.263 0 2.763.118 2.949-.069l30.586-30.8c.187-.187.293-2.685.293-2.948v-75.147c0-.551-.448-1-1-1h-92z" fill="url(#T)"/><path d="M18.521 73.665h90.958l5.521 39.085c0 1.8-1.57 3.25-3.521 3.25h-94.958c-1.951 0-3.521-1.45-3.521-3.25 0 0 3.57-39.085 5.521-39.085z" transform="matrix(.625 0 0 .349 23.99 50.422)" opacity=".6" fill="url(#U)" fill-rule="evenodd" stroke="#000" stroke-width=".5" stroke-linejoin="round" filter="url(#V)"/><path fill="url(#W)" d="M96.123 44.101l-2.464 43.932h-59.136l-2.464-43.932h64.064z"/><path d="M64.091 44.713l-32.032-.612 19.866-14.688h24.332l19.866 14.688-32.032.612z" fill="url(#X)"/><path d="M64.091 44.713l-32.032-.612 28.875-11.686h3.311l31.878 11.686-32.032.612z" fill="url(#Y)"/><path d="M64.091 37.93l22.081 2.356 9.951 3.682-32.032-1.661v-4.377z" fill="url(#Z)"/><path d="M64.091 26.925l22.081 2.356 9.951 14.688-32.032-3.662v-13.381z" fill="url(#aa)"/><path d="M64.091 37.382l-32.032 6.587 9.952-14.688 22.08-5.281v13.381z" fill="url(#ab)"/><g transform="matrix(.616 0 0 .612 31.905 28.927)"><linearGradient gradientUnits="userSpaceOnUse" x1="101.303" y1="60.659" x2="102.301" y2="60.715"><stop offset="0" stop-color="#544C3E"/><stop offset="1" stop-color="#B39E7C"/></linearGradient><path d="M99.36 95.555c-.03.549.169 1.011.443 1.025.274.014.524-.422.555-.971l3.889-69.788c.03-.549-.169-1.011-.443-1.026-.274-.015-.524.421-.555.971l-3.889 69.789z" fill="url(#ac)"/><linearGradient gradientUnits="userSpaceOnUse" x1="103.898" y1="60.58" x2="103.398" y2="60.58"><stop offset="0" stop-color="#544C3E"/><stop offset=".216" stop-color="#50483B"/><stop offset=".436" stop-color="#443D32"/><stop offset=".657" stop-color="#2F2B23"/><stop offset=".877" stop-color="#13110E"/><stop offset="1"/></linearGradient><path d="M101.281 65.58h.5l.111-2h-.5l-.111 2zm-.669 12h.501l.111-2h-.501l-.111 2zm.446-8h.501l.111-2h-.5l-.112 2zm-.223 4h.501l.111-2h-.501l-.111 2zm-.892 16h.501l.111-2h-.501l-.111 2zm-.222 4h.5l.111-2h-.5l-.111 2zm.445-8h.501l.111-2h-.501l-.111 2zm.224-4h.5l.111-2h-.5l-.111 2zm1.337-24h.5l.112-2h-.501l-.111 2zm-.223 4h.5l.111-2h-.5l-.111 2zm1.337-24h.501l.111-2h-.501l-.111 2zm.223-4h.5l.111-2h-.5l-.111 2zm.334-6l-.111 2h.5l.111-2h-.5zm-.78 14h.501l.111-2h-.501l-.111 2zm-.669 12h.501l.111-2h-.501l-.111 2zm.447-8h.5l.112-2h-.501l-.111 2zm-.224 4h.501l.111-2h-.501l-.111 2z" opacity=".5" fill="url(#ad)"/></g><g transform="matrix(.616 0 0 .612 31.905 28.927)"><linearGradient gradientUnits="userSpaceOnUse" x1="2.2" y1="60.716" x2="3.198" y2="60.66"><stop offset="0" stop-color="#B39E7C"/><stop offset="1" stop-color="#544C3E"/></linearGradient><path d="M5.14 95.555c.031.549-.169 1.011-.443 1.025-.274.014-.523-.422-.555-.971l-3.889-69.788c-.03-.549.169-1.011.443-1.026.274-.015.524.421.555.971l3.889 69.789z" fill="url(#ae)"/><linearGradient gradientUnits="userSpaceOnUse" x1=".602" y1="60.58" x2="1.102" y2="60.58"><stop offset="0" stop-color="#544C3E"/><stop offset="1"/></linearGradient><path d="M3.331 67.58h-.5l.111 2h.5l-.111-2zm.223 4h-.5l.112 2h.5l-.112-2zm-.446-8h-.5l.111 2h.5l-.111-2zm.668 12h-.5l.111 2h.5l-.111-2zm.224 4h-.5l.111 2h.5l-.111-2zm-1.115-20h-.5l.111 2h.5l-.111-2zm1.337 24h-.5l.112 2h.5l-.112-2zm.223 4h-.5l.111 2h.5l-.111-2zm.223 4h-.5l.111 2h.5l-.111-2zm-2.897-52h-.5l.111 2h.5l-.111-2zm.891 16h-.5l.112 2h.5l-.112-2zm-1.114-20h-.5l.111 2h.5l-.111-2zm-.446-8h-.5l.111 2h.5l-.111-2zm.223 4h-.5l.112 2h.5l-.112-2zm1.114 20h-.5l.111 2h.5l-.111-2zm-.446-8h-.5l.111 2h.5l-.111-2zm.223 4h-.5l.111 2h.5l-.111-2z" opacity=".5" fill="url(#af)"/></g><g enable-background="new" transform="matrix(.616 0 0 .612 31.905 28.927)"><defs><path id="ag" enable-background="new" d="M53.057 56.968l.025-.129.018-.132.012-.133.003-.136-.003.136-.012.133-.018.132-.025.129z"/></defs><clipPath><use xlink:href="#ag" width="128" height="128"/></clipPath><path d="M53.057 56.968l.025-.129.018-.132.012-.133.003-.136-.003.136-.012.133-.018.132-.025.129" fill="#828282" clip-path="url(#ah)" enable-background="new"/></g><path transform="matrix(.585 0 0 .581 33.523 31.357)" opacity=".5" stroke="url(#ai)" stroke-width="1.863" stroke-linejoin="round" d="M104.25 24.795l-4 71.785h-96l-4-71.785h104z" fill="none"/><path d="M64.014 27.009l13.188 1.308 4.936 15.234-18.201-3.154.077-13.387z" opacity=".6" fill="url(#aj)" fill-rule="evenodd"/><path d="M16 49.744v68.256c0 1.104.896 2 2 2h59.188c.53 0 1.031-.219 1.406-.594 0 0 9.406-13.156 9.406-23.406 10.25 0 23.406-9.406 23.406-9.406.375-.375.594-.876.594-1.406v-35.444s-29.876-3.036-50 17.088c-21.532-21.532-46-17.088-46-17.088z" opacity=".4" fill="url(#ak)"/><path d="M80.625 54.688c-4.841 1.953-9.758 4.607-14.344 8.281l31.063 31.063c2.668-.983 5.223-2.201 7.406-3.375l.344-.188c.572-.311 1.082-.611 1.594-.906l.5-.281c.767-.45 1.417-.851 2-1.219.454-.287.738-.473 1.063-.688l.563-.375.594-.406c.188-.188.336-.418.438-.656v-.031l-31.219-31.219z" opacity=".1" fill-rule="evenodd"/><path d="M61.774 64.445l-.09-.182c-.129-.258-.394-.422-.683-.422h-3.815c-.421 0-.763.341-.763.763v3.052c0 .422.342.763.763.763h7.631c.422 0 .763-.341.763-.763v-1.526c0-1.262-1.027-2.289-2.289-2.289-.588 0-1.111.238-1.516.604z" fill-opacity=".657"/><path d="M61.001 63.838l.763 1.526c0-.843.684-1.526 1.526-1.526.843 0 1.526.683 1.526 1.526v1.526h-7.631v-3.052h3.815z" fill="url(#al)"/><path d="M62.527 65.364c0 .354-.243.662-.588.743l-.176.02h2.289v-.763c0-.421-.343-.763-.763-.763s-.763.342-.763.763zm-4.578-.763v1.526h3.815c-.284 0-.551-.159-.682-.422l-.552-1.104h-2.581z" fill="url(#am)"/><path d="M65.579 66.893c-.289 0-.553.164-.683.422l-.09.182c-.406-.366-.929-.604-1.516-.604-1.262 0-2.289 1.027-2.289 2.289v1.526c0 .422.342.763.763.763h7.631c.422 0 .763-.341.763-.763v-3.052c0-.422-.341-.763-.763-.763h-3.815z" fill-opacity=".657"/><path d="M65.579 66.89l-.763 1.526c0-.843-.684-1.526-1.526-1.526-.843 0-1.526.683-1.526 1.526v1.526h7.631v-3.052h-3.815z" fill="url(#an)"/><path d="M66.051 67.653l-.552 1.104c-.13.262-.398.422-.681.422h3.815v-1.526h-2.581zm-3.524.763v.763h2.288l-.175-.02c-.344-.082-.588-.389-.588-.743 0-.421-.343-.763-.763-.763s-.763.342-.763.763z" fill="url(#ao)"/><path d="M61.774 70.549l-.09-.182c-.129-.258-.394-.422-.683-.422h-3.815c-.421 0-.763.341-.763.763v3.052c0 .422.342.763.763.763h7.631c.422 0 .763-.341.763-.763v-1.526c0-1.262-1.027-2.289-2.289-2.289-.588 0-1.111.238-1.516.604z" fill-opacity=".657"/><path d="M61.001 69.942l.763 1.526c0-.843.684-1.526 1.526-1.526.843 0 1.526.683 1.526 1.526v1.526h-7.631v-3.052h3.815z" fill="url(#ap)"/><path d="M62.527 71.468c0 .354-.243.662-.588.743l-.176.02h2.289v-.763c0-.421-.343-.763-.763-.763s-.763.342-.763.763zm-4.578-.763v1.526h3.815c-.284 0-.551-.159-.682-.422l-.552-1.104h-2.581z" fill="url(#aq)"/><path d="M65.579 72.998c-.289 0-.553.164-.683.422l-.09.182c-.406-.366-.929-.604-1.516-.604-1.262 0-2.289 1.027-2.289 2.289v1.526c0 .422.342.763.763.763h7.631c.422 0 .763-.341.763-.763v-3.052c0-.422-.341-.763-.763-.763h-3.815z" fill-opacity=".657"/><path d="M65.579 72.995l-.763 1.526c0-.843-.684-1.526-1.526-1.526-.843 0-1.526.683-1.526 1.526v1.526h7.631v-3.052h-3.815z" fill="url(#ar)"/><path d="M66.051 73.758l-.552 1.104c-.131.262-.398.422-.682.422h3.815v-1.526h-2.58zm-3.524.763v.763h2.288l-.175-.02c-.344-.082-.588-.389-.588-.743 0-.421-.343-.763-.763-.763s-.763.342-.763.763z" fill="url(#as)"/><path d="M61.774 76.653l-.09-.182c-.129-.258-.394-.422-.683-.422h-3.815c-.421 0-.763.341-.763.763v3.052c0 .422.342.763.763.763h7.631c.422 0 .763-.341.763-.763v-1.526c0-1.262-1.027-2.289-2.289-2.289-.588 0-1.111.238-1.516.604z" fill-opacity=".657"/><path d="M61.001 76.047l.763 1.526c0-.843.684-1.526 1.526-1.526.843 0 1.526.683 1.526 1.526v1.526h-7.631v-3.052h3.815z" fill="url(#at)"/><path d="M62.527 77.573c0 .354-.243.662-.588.743l-.176.02h2.289v-.763c0-.421-.343-.763-.763-.763s-.763.342-.763.763zm-4.578-.763v1.526h3.815c-.284 0-.551-.159-.682-.422l-.552-1.104h-2.581z" fill="url(#au)"/><path d="M65.579 79.102c-.289 0-.553.164-.683.422l-.09.182c-.406-.366-.929-.604-1.516-.604-1.262 0-2.289 1.027-2.289 2.289v1.526c0 .422.342.763.763.763h7.631c.422 0 .763-.341.763-.763v-3.052c0-.422-.341-.763-.763-.763h-3.815z" fill-opacity=".657"/><path d="M65.579 79.099l-.763 1.526c0-.843-.684-1.526-1.526-1.526-.843 0-1.526.683-1.526 1.526v1.526h7.631v-3.052h-3.815z" fill="url(#av)"/><path d="M66.051 79.862l-.552 1.104c-.131.262-.398.422-.682.422h3.815v-1.526h-2.58zm-3.524.763v.763h2.288l-.175-.02c-.344-.082-.588-.389-.588-.743 0-.421-.343-.763-.763-.763s-.763.342-.763.763z" fill="url(#aw)"/><path d="M61.774 82.758l-.09-.182c-.129-.258-.394-.422-.683-.422h-3.815c-.421 0-.763.341-.763.763v3.052c0 .422.342.763.763.763h7.631c.422 0 .763-.341.763-.763v-1.526c0-1.262-1.027-2.289-2.289-2.289-.588 0-1.111.238-1.516.604z" fill-opacity=".657"/><path d="M61.001 82.151l.763 1.526c0-.843.684-1.526 1.526-1.526.843 0 1.526.683 1.526 1.526v1.526h-7.631v-3.052h3.815z" fill="url(#ax)"/><path d="M62.527 83.677c0 .354-.243.662-.588.743l-.176.02h2.289v-.763c0-.421-.343-.763-.763-.763s-.763.342-.763.763zm-4.578-.763v1.526h3.815c-.284 0-.551-.159-.682-.422l-.552-1.104h-2.581z" fill="url(#ay)"/><path d="M65.579 85.207c-.289 0-.553.164-.683.422l-.09.182c-.406-.366-.929-.604-1.516-.604-1.262 0-2.289 1.027-2.289 2.289v1.526c0 .422.342.763.763.763h7.631c.422 0 .763-.341.763-.763v-3.052c0-.422-.341-.763-.763-.763h-3.815z" fill-opacity=".657"/><path d="M65.579 85.203l-.763 1.526c0-.843-.684-1.526-1.526-1.526-.843 0-1.526.683-1.526 1.526v1.526h7.631v-3.052h-3.815z" fill="url(#az)"/><path d="M66.051 85.967l-.552 1.104c-.131.262-.398.422-.682.422h3.815v-1.526h-2.58zm-3.524.763v.763h2.288l-.175-.02c-.344-.082-.588-.389-.588-.743 0-.421-.343-.763-.763-.763s-.763.342-.763.763z" fill="url(#aA)"/><path d="M61.774 89.42l-.09-.182c-.129-.258-.394-.422-.683-.422h-3.815c-.421 0-.763.341-.763.763v3.052c0 .422.342.763.763.763h7.631c.422 0 .763-.341.763-.763v-1.526c0-1.262-1.027-2.289-2.289-2.289-.588 0-1.111.238-1.516.604z" fill-opacity=".657"/><path d="M61.001 88.814l.763 1.526c0-.843.684-1.526 1.526-1.526.843 0 1.526.683 1.526 1.526v1.526h-7.631v-3.052h3.815z" fill="url(#aB)"/><path d="M62.527 90.34c0 .354-.243.662-.588.743l-.176.02h2.289v-.763c0-.421-.343-.763-.763-.763s-.763.342-.763.763zm-4.578-.763v1.526h3.815c-.284 0-.551-.159-.682-.422l-.552-1.104h-2.581z" fill="url(#aC)"/><path d="M65.579 91.869c-.289 0-.553.164-.683.422l-.09.182c-.406-.366-.929-.604-1.516-.604-1.262 0-2.289 1.027-2.289 2.289v1.526c0 .422.342.763.763.763h7.631c.422 0 .763-.341.763-.763v-3.052c0-.422-.341-.763-.763-.763h-3.815z" fill-opacity=".657"/><path d="M65.579 91.866l-.763 1.526c0-.843-.684-1.526-1.526-1.526-.843 0-1.526.683-1.526 1.526v1.526h7.631v-3.052h-3.815z" fill="url(#aD)"/><path d="M66.051 92.629l-.552 1.104c-.131.262-.398.422-.682.422h3.815v-1.526h-2.58zm-3.524.763v.763h2.288l-.175-.02c-.344-.082-.588-.389-.588-.743 0-.421-.343-.763-.763-.763s-.763.342-.763.763z" fill="url(#aE)"/><path d="M61.774 95.525l-.09-.182c-.129-.258-.394-.422-.683-.422h-3.815c-.421 0-.763.341-.763.763v3.052c0 .422.342.763.763.763h7.631c.422 0 .763-.341.763-.763v-1.526c0-1.262-1.027-2.289-2.289-2.289-.588 0-1.111.238-1.516.604z" fill-opacity=".657"/><path d="M61.001 94.918l.763 1.526c0-.843.684-1.526 1.526-1.526.843 0 1.526.683 1.526 1.526v1.526h-7.631v-3.052h3.815z" fill="url(#aF)"/><path d="M62.527 96.444c0 .354-.243.662-.588.743l-.176.02h2.289v-.763c0-.421-.343-.763-.763-.763s-.763.342-.763.763zm-4.578-.763v1.526h3.815c-.284 0-.551-.159-.682-.422l-.552-1.104h-2.581z" fill="url(#aG)"/><path d="M65.579 97.973c-.289 0-.553.164-.683.422l-.09.182c-.406-.365-.929-.604-1.516-.604-1.262 0-2.289 1.027-2.289 2.289v1.526c0 .422.342.763.763.763h7.631c.422 0 .763-.341.763-.763v-3.052c0-.422-.341-.763-.763-.763h-3.815z" fill-opacity=".657"/><path d="M65.579 97.97l-.763 1.526c0-.843-.684-1.526-1.526-1.526-.843 0-1.526.683-1.526 1.526v1.526h7.631v-3.052h-3.815z" fill="url(#aH)"/><path d="M66.051 98.733l-.552 1.104c-.131.262-.398.422-.682.422h3.815v-1.526h-2.58zm-3.524.763v.763h2.288l-.175-.02c-.344-.082-.588-.389-.588-.743 0-.421-.343-.763-.763-.763s-.763.342-.763.763z" fill="url(#aI)"/><path d="M61.774 101.629l-.09-.182c-.129-.258-.394-.422-.683-.422h-3.815c-.421 0-.763.341-.763.763v3.052c0 .422.342.763.763.763h7.631c.422 0 .763-.341.763-.763v-1.526c0-1.262-1.027-2.289-2.289-2.289-.588 0-1.111.238-1.516.604z" fill-opacity=".657"/><path d="M61.001 101.023l.763 1.526c0-.843.684-1.526 1.526-1.526.843 0 1.526.683 1.526 1.526v1.526h-7.631v-3.052h3.815z" fill="url(#aJ)"/><path d="M62.527 102.549c0 .354-.243.662-.588.743l-.176.02h2.289v-.763c0-.421-.343-.763-.763-.763s-.763.342-.763.763zm-4.578-.763v1.526h3.815c-.284 0-.551-.159-.682-.422l-.552-1.104h-2.581z" fill="url(#aK)"/><path d="M65.579 104.078c-.289 0-.553.164-.683.422l-.09.182c-.406-.365-.929-.604-1.516-.604-1.262 0-2.289 1.027-2.289 2.289v1.526c0 .422.342.763.763.763h7.631c.422 0 .763-.341.763-.763v-3.052c0-.422-.341-.763-.763-.763h-3.815z" fill-opacity=".657"/><path d="M65.579 104.075l-.763 1.526c0-.843-.684-1.526-1.526-1.526-.843 0-1.526.683-1.526 1.526v1.526h7.631v-3.052h-3.815z" fill="url(#aL)"/><path d="M66.051 104.838l-.552 1.104c-.131.262-.398.422-.682.422h3.815v-1.526h-2.58zm-3.524.763v.763h2.288l-.175-.02c-.344-.082-.588-.389-.588-.743 0-.421-.343-.763-.763-.763s-.763.342-.763.763z" fill="url(#aM)"/><path d="M61.774 107.589l-.09-.182c-.129-.258-.394-.422-.683-.422h-3.815c-.421 0-.763.341-.763.763v3.052c0 .422.342.763.763.763h7.631c.422 0 .763-.341.763-.763v-1.526c0-1.262-1.027-2.289-2.289-2.289-.588 0-1.111.238-1.516.604z" fill-opacity=".657"/><path d="M61.001 106.982l.763 1.526c0-.843.684-1.526 1.526-1.526.843 0 1.526.683 1.526 1.526v1.526h-7.631v-3.052h3.815z" fill="url(#aN)"/><path d="M62.527 108.508c0 .354-.243.662-.588.743l-.176.02h2.289v-.763c0-.421-.343-.763-.763-.763s-.763.342-.763.763zm-4.578-.763v1.526h3.815c-.284 0-.551-.159-.682-.422l-.552-1.104h-2.581z" fill="url(#aO)"/><path d="M65.579 110.037c-.289 0-.553.164-.683.422l-.09.182c-.406-.365-.929-.604-1.516-.604-1.262 0-2.289 1.027-2.289 2.289v1.526c0 .422.342.763.763.763h7.631c.422 0 .763-.341.763-.763v-3.052c0-.422-.341-.763-.763-.763h-3.815z" fill-opacity=".657"/><path d="M65.579 110.034l-.763 1.526c0-.843-.684-1.526-1.526-1.526-.843 0-1.526.683-1.526 1.526v1.526h7.631v-3.052h-3.815z" fill="url(#aP)"/><path d="M66.051 110.797l-.552 1.104c-.131.262-.398.422-.682.422h3.815v-1.526h-2.58zm-3.524.763v.763h2.288l-.175-.02c-.344-.082-.588-.389-.588-.743 0-.421-.343-.763-.763-.763s-.763.342-.763.763z" fill="url(#aQ)"/><path d="M61.774 113.548l-.09-.182c-.129-.258-.394-.422-.683-.422h-3.815c-.421 0-.763.341-.763.763v3.052c0 .422.342.763.763.763h7.631c.422 0 .763-.341.763-.763v-1.526c0-1.262-1.027-2.289-2.289-2.289-.588 0-1.111.238-1.516.604z" fill-opacity=".657"/><path d="M61.001 112.941l.763 1.526c0-.843.684-1.526 1.526-1.526.843 0 1.526.683 1.526 1.526v1.526h-7.631v-3.052h3.815z" fill="url(#aR)"/><path d="M62.527 114.467c0 .354-.243.662-.588.743l-.176.02h2.289v-.763c0-.421-.343-.763-.763-.763s-.763.342-.763.763zm-4.578-.763v1.526h3.815c-.284 0-.551-.159-.682-.422l-.552-1.104h-2.581z" fill="url(#aS)"/><path d="M107.031 49.594c-2.213.021-5.094.142-8.344.531l13.313 13.313v-13.688s-1.853-.186-4.969-.156zm-91.031 30.969v22.625l16.813 16.813h22.625l-39.438-39.438zm4.156-31.188c-2.63.08-4.156.375-4.156.375v8.188l61.906 61.906h.031c.238-.102.469-.25.656-.438l.406-.594.375-.563c.195-.298.437-.665.688-1.063l.156-.25c.4-.641.863-1.417 1.344-2.25.282-.487.61-1.053.906-1.594l.188-.344c1.174-2.183 2.392-4.738 3.375-7.406l-55.094-55.125h-.031c-4.39-.785-8.126-.924-10.75-.844z" opacity=".1" fill-rule="evenodd"/><path d="M20.156 49.375c-2.63.08-4.156.375-4.156.375v4s24.468-4.438 46 17.094c20.124-20.124 50-17.094 50-17.094v-4s-29.876-3.03-50 17.094c-16.149-16.149-33.953-17.709-41.844-17.469z" opacity=".5" fill="#fff"/><path d="M20.156 47.375c-2.63.08-4.156.375-4.156.375v4s24.468-4.438 46 17.094c20.124-20.124 50-17.094 50-17.094v-4s-29.876-3.03-50 17.094c-16.149-16.149-33.953-17.709-41.844-17.469z" fill="url(#aT)"/><path d="M57.257 63.289c-.42.255-.708.689-.868 1.183l-.129-.119c-.185-.168-.432-.194-.639-.068l-2.727 1.66c-.145.087-.254.242-.306.428-.051.187-.038.389.034.566l1.093 2.651c.151.365.517.514.819.33l5.455-3.321c.301-.184.423-.629.272-.995l-.547-1.326c-.219-.531-.596-.927-1.059-1.115-.464-.187-.96-.143-1.397.125z" fill-opacity=".655"/><path d="M55.894 64.203l1.093.993c-.302-.732-.058-1.622.544-1.99.603-.368 1.336-.073 1.638.661l.547 1.325-5.455 3.321-1.094-2.651 2.727-1.66z" fill="url(#aU)"/><path d="M57.805 63.869c-.301.183-.423.63-.273.995.127.308.063.68-.154.901-.217.22-.531.231-.757.024l-.791-.719-1.845 1.124.547 1.325 4.364-2.657-.273-.663c-.073-.178-.198-.31-.353-.372-.154-.062-.32-.047-.466.042z" fill="url(#aV)"/><path d="M54.275 58.24c-.372.354-.558.86-.631 1.385l-.171-.098c-.209-.12-.456-.086-.638.087l-2.398 2.289c-.265.254-.311.72-.103 1.041l1.508 2.332c.1.153.247.254.407.278.161.023.323-.032.45-.153l4.797-4.582c.127-.122.209-.299.229-.495.019-.196-.026-.391-.126-.546l-.754-1.165c-.303-.467-.736-.763-1.222-.834-.484-.07-.963.093-1.348.461z" fill-opacity=".657"/><path d="M53.213 59.452l1.234.707c-.417-.645-.325-1.576.205-2.082.53-.506 1.297-.395 1.714.25l.754 1.165-4.797 4.582-1.508-2.332 2.397-2.29z" fill="url(#aW)"/><path d="M55.03 58.66c-.265.253-.311.721-.103 1.042.175.271.173.651-.003.919-.176.269-.481.355-.737.208l-.893-.511-1.622 1.548.754 1.166 3.837-3.666-.377-.582c-.101-.156-.246-.255-.408-.279-.161-.023-.321.031-.449.153z" fill="url(#aX)"/><path d="M50.688 53.44c-.483.087-.91.397-1.202.874-.243.397-.361.862-.361 1.323l.04.213-.176-.038c-.228-.049-.458.062-.596.288l-1.819 2.974c-.201.328-.145.792.126 1.037l1.959 1.769c.13.117.293.168.453.139.16-.029.304-.133.401-.291l3.638-5.952c.096-.158.137-.356.114-.551-.024-.194-.11-.37-.24-.487l-.979-.883c-.392-.354-.874-.502-1.358-.415z" fill-opacity=".657"/><path d="M48.884 55.797l1.344.288c-.541-.49-.653-1.417-.251-2.074.402-.657 1.166-.795 1.707-.306l.979.883-3.638 5.952-1.959-1.769 1.819-2.974z" fill="url(#aY)"/><path d="M50.866 54.162c-.161.029-.303.132-.401.291-.201.328-.144.793.126 1.038.227.205.308.572.196.888-.112.315-.388.496-.666.436l-.973-.209-1.23 2.011.979.884 2.911-4.76-.489-.441c-.131-.117-.292-.167-.453-.138z" fill="url(#aZ)"/><path d="M45.408 50.109c-.459.202-.826.61-1.032 1.147-.117.304-.173.624-.173.939 0 .219.03.436.082.644l-.149.004c-.231.007-.439.172-.536.426l-1.295 3.355c-.039.102-.058.209-.058.314 0 .278.13.546.351.672l2.21 1.259c.146.084.314.093.467.026.153-.067.276-.205.345-.382l2.589-6.714c.068-.178.076-.382.021-.567-.056-.185-.168-.336-.315-.419l-1.104-.628c-.442-.252-.94-.279-1.401-.077z" fill-opacity=".657"/><path d="M44.151 52.841l1.364-.043c-.611-.348-.874-1.23-.587-1.972.286-.741 1.012-1.061 1.623-.712l1.104.628-2.589 6.714-2.21-1.259 1.294-3.356z" fill="url(#ba)"/><path d="M45.824 50.758c-.153.067-.275.202-.343.381l-.001.001c-.039.102-.057.208-.057.313 0 .279.13.547.352.674.217.124.35.388.35.67l-.013.153c-.058.337-.298.58-.581.589l-.988.031-.876 2.269 1.105.629 2.071-5.37-.552-.314c-.149-.085-.315-.093-.468-.026z" fill="url(#bb)"/><path d="M63.932 65.289c.42.255.708.689.868 1.183l.129-.119c.185-.168.432-.194.639-.068l2.727 1.66c.145.087.254.242.306.428.051.187.038.389-.034.566l-1.093 2.651c-.151.365-.517.514-.819.33l-5.455-3.321c-.301-.184-.423-.629-.272-.995l.547-1.326c.219-.531.596-.927 1.059-1.115.464-.187.96-.143 1.397.125z" fill-opacity=".655"/><path d="M65.295 66.203l-1.093.993c.302-.732.058-1.622-.544-1.99-.603-.368-1.336-.073-1.638.661l-.547 1.325 5.455 3.321 1.094-2.651-2.727-1.66z" fill="url(#bc)"/><path d="M63.384 65.869c.301.183.423.63.273.995-.127.308-.063.68.154.901.217.22.531.231.757.024l.791-.719 1.845 1.124-.547 1.325-4.364-2.657.273-.663c.073-.178.198-.31.353-.372.154-.062.32-.047.466.042z" fill="url(#bd)"/><path d="M66.914 60.24c.372.354.558.86.631 1.385l.171-.098c.209-.12.456-.086.638.087l2.398 2.289c.265.254.311.72.103 1.041l-1.508 2.332c-.1.153-.247.254-.407.278-.161.023-.323-.032-.45-.153l-4.797-4.582c-.127-.122-.209-.299-.229-.495-.019-.196.026-.391.126-.546l.754-1.165c.303-.467.736-.763 1.222-.834.484-.07.963.093 1.348.461z" fill-opacity=".657"/><path d="M67.976 61.452l-1.234.707c.417-.645.325-1.576-.205-2.082-.53-.506-1.297-.395-1.714.25l-.754 1.165 4.797 4.582 1.508-2.332-2.397-2.29z" fill="url(#be)"/><path d="M66.159 60.66c.265.253.311.721.103 1.042-.175.271-.173.651.003.919.176.269.481.355.737.208l.893-.511 1.622 1.548-.754 1.166-3.837-3.666.377-.582c.101-.156.246-.255.408-.279.161-.023.321.031.449.153z" fill="url(#bf)"/><path d="M70.501 55.44c.483.087.91.397 1.202.874.243.397.361.862.361 1.323l-.04.213.176-.038c.228-.049.458.062.596.288l1.819 2.974c.201.328.145.792-.126 1.037l-1.959 1.769c-.13.117-.293.168-.453.139-.16-.029-.304-.133-.401-.291l-3.638-5.952c-.096-.158-.137-.356-.114-.551.024-.194.11-.37.24-.487l.979-.883c.392-.354.874-.502 1.358-.415z" fill-opacity=".657"/><path d="M72.305 57.797l-1.344.288c.541-.49.653-1.417.251-2.074-.402-.657-1.166-.795-1.707-.306l-.979.883 3.638 5.952 1.959-1.769-1.819-2.974z" fill="url(#bg)"/><path d="M70.323 56.162c.161.029.303.132.401.291.201.328.144.793-.126 1.038-.227.205-.308.572-.196.888.112.315.388.496.666.436l.973-.209 1.23 2.011-.979.884-2.911-4.76.489-.441c.131-.117.292-.167.453-.138z" fill="url(#bh)"/><path d="M75.781 52.109c.459.202.826.61 1.032 1.147.117.304.173.624.173.939 0 .219-.03.436-.082.644l.149.004c.231.007.439.172.536.426l1.295 3.355c.039.102.058.209.058.314 0 .278-.13.546-.351.672l-2.21 1.259c-.146.084-.314.093-.467.026-.153-.067-.276-.205-.345-.382l-2.589-6.714c-.068-.178-.076-.382-.021-.567.056-.185.168-.336.315-.419l1.104-.628c.442-.252.94-.279 1.401-.077z" fill="#4a4a4a"/><path d="M77.038 54.841l-1.364-.043c.611-.348.874-1.23.587-1.972-.286-.741-1.012-1.061-1.623-.712l-1.104.628 2.589 6.714 2.21-1.259-1.294-3.356z" fill="url(#bi)"/><path d="M75.365 52.758c.153.067.275.202.343.381l.001.001c.039.102.057.208.057.313 0 .279-.13.547-.352.674-.217.124-.35.388-.35.67l.013.153c.058.337.298.58.581.589l.988.031.876 2.269-1.105.629-2.071-5.37.552-.314c.149-.085.315-.093.468-.026z" fill="url(#bj)"/><path d="M80.807 50.347c.422.299.724.779.849 1.354.041.19.062.382.062.573 0 .348-.09.684-.223 1l.165.042c.226.057.406.265.466.536l.78 3.582.021.19c0 .328-.181.629-.455.716l-2.36.758c-.156.05-.323.022-.463-.076-.14-.099-.242-.261-.283-.451l-1.56-7.167c-.041-.19-.019-.392.063-.562.082-.17.215-.294.372-.344l1.179-.378c.472-.151.967-.07 1.389.229z" fill="#4a4a4a"/><path d="M81.534 53.296l-1.336-.339c.652-.21 1.04-1.021.868-1.812-.171-.792-.839-1.264-1.492-1.053l-1.179.377 1.56 7.167 2.36-.758-.78-3.582z" fill="url(#bk)"/><path d="M80.193 50.883c.14.099.241.259.283.451v.001l.021.191c0 .129-.028.256-.083.371-.082.171-.214.294-.372.344-.268.087-.454.381-.454.716v.02c.007.343.208.635.485.706l.967.245.527 2.422-1.179.38-1.247-5.733.588-.189c.159-.051.323-.024.464.076z" fill="url(#bl)"/><path d="M64.011 55.982h-.011c-6.379 0-11.649 4.706-11.995 10.714l-.005.166c0 1.174.716 2.272 1.9 2.894.262.137.52.412.772.692v24.079c0 1.875 1.798 3.401 4.008 3.401h10.687c2.21 0 4.008-1.526 4.008-3.401v-24.129c.239-.257.481-.514.725-.642 1.185-.621 1.9-1.719 1.9-2.893l-.004-.164c-.322-5.585-5.015-10.171-10.919-10.666l-1.054-.05h-.012zm1.348 21.539v1.134h-2.672v-1.134h2.672z" fill="url(#bm)" filter="url(#bn)"/><path d="M53.339 66.752c-.047.825.438 1.605 1.264 2.039 1.626.853 2.717 2.995 2.717 5.329 0 1.25 1.198 2.267 2.672 2.267h8.016c1.475 0 2.672-1.017 2.672-2.267 0-2.335 1.093-4.477 2.719-5.329.827-.434 1.309-1.214 1.262-2.038-.31-5.405-4.992-9.637-10.659-9.637-5.667 0-10.349 4.232-10.662 9.636z" fill="url(#bo)"/><path d="M54.697 65.674c-.024.412.219.803.632 1.019 2.036 1.069 3.351 3.538 3.351 6.294 0 .627.598 1.134 1.336 1.134h8.016c.739 0 1.336-.507 1.336-1.134 0-2.756 1.315-5.225 3.352-6.294.414-.217.655-.608.632-1.019-.278-4.8-4.374-8.558-9.327-8.558-4.954 0-9.05 3.758-9.326 8.558z" fill="url(#bp)"/><path d="M71.291 67.319c.234-.166.473-.324.724-.456-.036-.627-.154-1.231-.329-1.812h-15.327c-.174.58-.293 1.185-.329 1.812.251.132.49.29.724.456h14.536z" fill="url(#bq)" filter="url(#br)"/><path d="M58.68 67.319c-1.474 0-2.672 1.017-2.672 2.267v24.94c0 1.25 1.198 2.267 2.672 2.267h10.687c1.474 0 2.672-1.017 2.672-2.267v-24.94c0-1.25-1.198-2.267-2.672-2.267h-10.687zm2.672 4.535h5.344v7.936h-5.344v-7.936zm5.344 18.138v1.134h-5.344v-1.134h5.344z" fill="url(#bs)"/><path d="M69.367 67.319h-10.687c-.737 0-1.336.507-1.336 1.134v24.94c0 .627.598 1.134 1.336 1.134h10.687c.739 0 1.336-.507 1.336-1.134v-24.94c0-.627-.597-1.134-1.336-1.134zm-1.336 24.09c0 .469-.449.85-1.002.85h-6.012c-.553 0-1.002-.381-1.002-.85v-1.7c0-.469.449-.85 1.002-.85h6.012c.553 0 1.002.381 1.002.85v1.7zm0-11.62c0 .627-.597 1.134-1.336 1.134h-5.344c-.737 0-1.336-.507-1.336-1.134v-9.069c0-.627.598-1.134 1.336-1.134h5.344c.739 0 1.336.507 1.336 1.134v9.069z" fill="url(#bt)"/><path d="M66.695 71.853c0 .627-.597 1.134-1.336 1.134h-2.672c-.737 0-1.336-.507-1.336-1.134v-11.336c0-.627.598-1.134 1.336-1.134h2.672c.739 0 1.336.507 1.336 1.134v11.336z" fill="url(#bu)"/><path fill="url(#bv)" d="M62.688 60.517h2.673v11.337h-2.673z"/><path clip-path="url(#bw)" d="M81.88 115.982l24.31-24.31s-9.353 2.913-19.603 2.913c0 10.25-4.706 21.396-4.706 21.396z" opacity=".4" filter="url(#bx)"/><path d="M79.172 120s11.914-9.914 17.414-15.414c5.5-5.5 15.414-17.414 15.414-17.414s-13.75 8.828-24 8.828c0 10.25-8.828 24-8.828 24z" fill="url(#by)"/></svg>