<svg xmlns="http://www.w3.org/2000/svg" xmlns:cc="http://web.resource.org/cc/" xmlns:svg="http://www.w3.org/2000/svg" xmlns:xlink="http://www.w3.org/1999/xlink" id="svg2606" width="128" height="128" version="1.0"><defs id="defs2608"><linearGradient id="linearGradient4360"><stop style="stop-color:#ffdfbf;stop-opacity:1" id="stop4362" offset="0"/><stop style="stop-color:#ffdfbf;stop-opacity:0" id="stop4364" offset="1"/></linearGradient><linearGradient id="linearGradient4366" x1="52.25" x2="52.25" y1="97.514" y2="22.061" gradientUnits="userSpaceOnUse" xlink:href="#linearGradient4360"/><linearGradient id="linearGradient2422" x1="13.77" x2="50.603" y1="5.454" y2="26.35" gradientTransform="translate(100.96362,-31.039526)" gradientUnits="userSpaceOnUse" xlink:href="#linearGradient6548"/><linearGradient id="linearGradient4378" x1="90.051" x2="62.901" y1="4.599" y2="21.152" gradientTransform="translate(100.96362,-31.039526)" gradientUnits="userSpaceOnUse" xlink:href="#linearGradient6534"/><linearGradient id="linearGradient3400" x1="63.574" x2="59.167" y1="16.737" y2="24.58" gradientTransform="translate(100.96362,-31.039526)" gradientUnits="userSpaceOnUse" xlink:href="#linearGradient6524"/><filter id="filter3400" width="1.148" height="1.353" x="-.074" y="-.176"><feGaussianBlur id="feGaussianBlur3402" stdDeviation="3.157"/></filter><linearGradient id="linearGradient9793" x1="64.25" x2="73.563" y1="45.313" y2="43.813" gradientTransform="matrix(1.0024038,0,0,1,-0.2163407,0)" gradientUnits="userSpaceOnUse" xlink:href="#linearGradient6524"/><linearGradient id="linearGradient9791" x1=".602" x2="1.102" y1="60.58" y2="60.58" gradientUnits="userSpaceOnUse" xlink:href="#XMLID_26_"/><linearGradient id="linearGradient9789" x1="2.2" x2="3.198" y1="60.716" y2="60.66" gradientUnits="userSpaceOnUse" xlink:href="#XMLID_25_"/><linearGradient id="linearGradient9787" x1="103.898" x2="103.398" y1="60.58" y2="60.58" gradientUnits="userSpaceOnUse" xlink:href="#XMLID_24_"/><linearGradient id="linearGradient9785" x1="101.303" x2="102.301" y1="60.659" y2="60.715" gradientUnits="userSpaceOnUse" xlink:href="#XMLID_23_"/><linearGradient id="linearGradient9779" x1="45.358" x2="45.358" y1="9.065" y2="25.815" gradientUnits="userSpaceOnUse" xlink:href="#linearGradient3329"/><linearGradient id="linearGradient9777" x1=".25" x2="104.25" y1="13.295" y2="13.295" gradientUnits="userSpaceOnUse" xlink:href="#XMLID_17_"/><radialGradient id="radialGradient9773" cx="7.5" cy="8.33" r="126.413" gradientUnits="userSpaceOnUse" xlink:href="#XMLID_15_"/><linearGradient id="XMLID_166_" x1="63.106" x2="65.106" y1="71.977" y2="80.977" gradientUnits="userSpaceOnUse"><stop style="stop-color:#fff" id="stop2629" offset=".051"/><stop style="stop-color:#d3d7cf" id="stop2631" offset="1"/></linearGradient><linearGradient id="XMLID_165_" x1="62" x2="66" y1="76" y2="76" gradientUnits="userSpaceOnUse"><stop style="stop-color:#fff" id="stop2620" offset=".051"/><stop style="stop-color:#d3d7cf" id="stop2622" offset=".933"/><stop style="stop-color:#888a85" id="stop2624" offset="1"/></linearGradient><linearGradient id="XMLID_164_" x1="61.706" x2="67.762" y1="77.532" y2="107.808" gradientUnits="userSpaceOnUse"><stop style="stop-color:#eeeeec" id="stop2613" offset="0"/><stop style="stop-color:#babdb6" id="stop2615" offset="1"/></linearGradient><linearGradient id="XMLID_163_" x1="61.316" x2="68.316" y1="83.099" y2="101.099" gradientUnits="userSpaceOnUse"><stop style="stop-color:#fff" id="stop2600" offset=".006"/><stop style="stop-color:#f0f0f0" id="stop2602" offset=".135"/><stop style="stop-color:#cacac9" id="stop2604" offset=".384"/><stop style="stop-color:#8c8d8b" id="stop2606" offset=".723"/><stop style="stop-color:#555753" id="stop2608" offset="1"/></linearGradient><linearGradient id="XMLID_162_" x1="63.542" x2="64.542" y1="74.092" y2="79.093" gradientUnits="userSpaceOnUse"><stop style="stop-color:#a9ada4;stop-opacity:1" id="stop2593" offset="0"/><stop style="stop-color:#3f403d;stop-opacity:1" id="stop2595" offset="1"/></linearGradient><linearGradient id="XMLID_161_" x1="62.05" x2="67.05" y1="69.625" y2="83.624" gradientUnits="userSpaceOnUse"><stop style="stop-color:#fff" id="stop2574" offset="0"/><stop style="stop-color:#fafafa" id="stop2576" offset=".133"/><stop style="stop-color:#ecedec" id="stop2578" offset=".288"/><stop style="stop-color:#d5d6d5" id="stop2580" offset=".453"/><stop style="stop-color:#b5b6b4" id="stop2582" offset=".625"/><stop style="stop-color:#8c8d8a" id="stop2584" offset=".803"/><stop style="stop-color:#5a5c58" id="stop2586" offset=".984"/><stop style="stop-color:#555753" id="stop2588" offset="1"/></linearGradient><linearGradient id="XMLID_160_" x1="56.891" x2="68.891" y1="67.886" y2="82.886" gradientUnits="userSpaceOnUse"><stop style="stop-color:#fff" id="stop2567" offset="0"/><stop style="stop-color:#373836;stop-opacity:1" id="stop2569" offset="1"/></linearGradient><linearGradient id="XMLID_159_" x1="60.333" x2="68.415" y1="67.612" y2="103.983" gradientUnits="userSpaceOnUse"><stop style="stop-color:#515151;stop-opacity:1" id="stop2560" offset=".051"/><stop style="stop-color:#343633;stop-opacity:1" id="stop2562" offset="1"/></linearGradient><linearGradient id="XMLID_143_" x1="33.789" x2="33.789" y1="57.999" y2="119" gradientUnits="userSpaceOnUse"><stop style="stop-color:#eeeeec" id="stop2497" offset=".051"/><stop style="stop-color:#888a85" id="stop2499" offset="1"/></linearGradient><linearGradient id="XMLID_115_" x1="84.012" x2="85.344" y1="28.52" y2="35.179" gradientTransform="matrix(-0.2556 0.9668 0.9668 0.2556 25.5372 -35.9141)" gradientUnits="userSpaceOnUse"><stop style="stop-color:#eeeeec" id="stop2301" offset=".051"/><stop style="stop-color:#888a85" id="stop2303" offset="1"/></linearGradient><linearGradient id="XMLID_142_" x1="41.035" x2="41.035" y1="58" y2="119.001" gradientUnits="userSpaceOnUse"><stop style="stop-color:#eeeeec" id="stop2490" offset=".051"/><stop style="stop-color:#888a85" id="stop2492" offset="1"/></linearGradient><linearGradient id="XMLID_114_" x1="83.388" x2="84.72" y1="36.475" y2="43.134" gradientTransform="matrix(-0.4243 0.9055 0.9055 0.4243 41.46 -36.3299)" gradientUnits="userSpaceOnUse"><stop style="stop-color:#eeeeec" id="stop2294" offset=".051"/><stop style="stop-color:#888a85" id="stop2296" offset="1"/></linearGradient><linearGradient id="XMLID_141_" x1="48.586" x2="48.586" y1="57.999" y2="119" gradientUnits="userSpaceOnUse"><stop style="stop-color:#eeeeec" id="stop2483" offset=".051"/><stop style="stop-color:#888a85" id="stop2485" offset="1"/></linearGradient><linearGradient id="XMLID_113_" x1="83.064" x2="84.395" y1="44.913" y2="51.571" gradientTransform="matrix(-0.5962 0.8028 0.8028 0.5962 60.4483 -34.8312)" gradientUnits="userSpaceOnUse"><stop style="stop-color:#eeeeec" id="stop2287" offset=".051"/><stop style="stop-color:#888a85" id="stop2289" offset="1"/></linearGradient><linearGradient id="XMLID_140_" x1="55.313" x2="55.313" y1="57.999" y2="119" gradientUnits="userSpaceOnUse"><stop style="stop-color:#eeeeec" id="stop2476" offset=".051"/><stop style="stop-color:#888a85" id="stop2478" offset="1"/></linearGradient><linearGradient id="XMLID_112_" x1="54.889" x2="55.889" y1="61.902" y2="70.901" gradientUnits="userSpaceOnUse"><stop style="stop-color:#eeeeec" id="stop2280" offset=".051"/><stop style="stop-color:#888a85" id="stop2282" offset="1"/></linearGradient><linearGradient id="XMLID_139_" x1="59.367" x2="59.367" y1="57.999" y2="119" gradientUnits="userSpaceOnUse"><stop style="stop-color:#eeeeec" id="stop2469" offset=".051"/><stop style="stop-color:#888a85" id="stop2471" offset="1"/></linearGradient><linearGradient id="XMLID_111_" x1="81.427" x2="82.758" y1="64.792" y2="71.45" gradientTransform="matrix(-0.894 0.4481 0.4481 0.894 102.4965 -24.3783)" gradientUnits="userSpaceOnUse"><stop style="stop-color:#eeeeec" id="stop2273" offset=".051"/><stop style="stop-color:#888a85" id="stop2275" offset="1"/></linearGradient><linearGradient id="linearGradient3567"><stop id="stop3569" offset="0" style="stop-color:#bbbecc;stop-opacity:.94117647"/><stop id="stop3571" offset="1" style="stop-color:#363a52;stop-opacity:1"/></linearGradient><linearGradient id="XMLID_123_" x1="66.529" x2="67.861" y1="114.649" y2="121.31" gradientUnits="userSpaceOnUse"><stop style="stop-color:#eeeeec" id="stop2357" offset=".051"/><stop style="stop-color:#888a85" id="stop2359" offset="1"/></linearGradient><linearGradient id="XMLID_120_" x1="72.53" x2="73.862" y1="110.65" y2="117.31" gradientTransform="matrix(-1 0 0 1 134 0)" gradientUnits="userSpaceOnUse"><stop style="stop-color:#eeeeec" id="stop2336" offset=".051"/><stop style="stop-color:#888a85" id="stop2338" offset="1"/></linearGradient><linearGradient id="XMLID_119_" x1="66.53" x2="67.862" y1="106.649" y2="113.31" gradientUnits="userSpaceOnUse"><stop style="stop-color:#eeeeec" id="stop2329" offset=".051"/><stop style="stop-color:#888a85" id="stop2331" offset="1"/></linearGradient><linearGradient id="XMLID_122_" x1="72.529" x2="73.862" y1="102.648" y2="109.311" gradientTransform="matrix(-1 0 0 1 134 0)" gradientUnits="userSpaceOnUse"><stop style="stop-color:#eeeeec" id="stop2350" offset=".051"/><stop style="stop-color:#888a85" id="stop2352" offset="1"/></linearGradient><linearGradient id="XMLID_121_" x1="66.53" x2="67.862" y1="98.649" y2="105.31" gradientUnits="userSpaceOnUse"><stop style="stop-color:#eeeeec" id="stop2343" offset=".051"/><stop style="stop-color:#888a85" id="stop2345" offset="1"/></linearGradient><linearGradient id="XMLID_130_" x1="72.53" x2="73.862" y1="94.651" y2="101.311" gradientTransform="matrix(-1 0 0 1 134 0)" gradientUnits="userSpaceOnUse"><stop style="stop-color:#eeeeec" id="stop2406" offset=".051"/><stop style="stop-color:#888a85" id="stop2408" offset="1"/></linearGradient><linearGradient id="XMLID_147_" x1="67" x2="67" y1="58.001" y2="119.001" gradientUnits="userSpaceOnUse"><stop style="stop-color:#bdbec4;stop-opacity:1" id="stop2525" offset=".051"/><stop style="stop-color:#fff;stop-opacity:1" id="stop2527" offset="1"/></linearGradient><linearGradient id="XMLID_129_" x1="66.53" x2="67.862" y1="90.649" y2="97.31" gradientUnits="userSpaceOnUse"><stop style="stop-color:#eeeeec" id="stop2399" offset=".051"/><stop style="stop-color:#888a85" id="stop2401" offset="1"/></linearGradient><linearGradient id="XMLID_148_" x1="60.999" x2="60.999" y1="58.001" y2="119.001" gradientUnits="userSpaceOnUse"><stop style="stop-color:#eeeeec" id="stop2532" offset=".051"/><stop style="stop-color:#f3f3f2;stop-opacity:1" id="stop2534" offset="1"/></linearGradient><linearGradient id="XMLID_126_" x1="72.529" x2="73.861" y1="86.649" y2="93.31" gradientTransform="matrix(-1 0 0 1 134 0)" gradientUnits="userSpaceOnUse"><stop style="stop-color:#eeeeec" id="stop2378" offset=".051"/><stop style="stop-color:#888a85" id="stop2380" offset="1"/></linearGradient><linearGradient id="linearGradient6642"><stop style="stop-color:#616881;stop-opacity:.94117647" id="stop6644" offset="0"/><stop style="stop-color:#c2c5d7;stop-opacity:1" id="stop6646" offset="1"/></linearGradient><linearGradient id="linearGradient6548" x1="12.071" x2="50.603" y1="4.104" y2="26.35" gradientUnits="userSpaceOnUse"><stop id="stop6550" offset=".012" style="stop-color:#ad9c80"/><stop id="stop6552" offset=".044" style="stop-color:#ffe6bc"/><stop id="stop6554" offset=".072" style="stop-color:#c4b091"/><stop id="stop6556" offset=".103" style="stop-color:#dec8a4"/><stop id="stop6558" offset="1" style="stop-color:#b39e7c"/></linearGradient><linearGradient id="linearGradient6534" x1="91.572" x2="62.901" y1="4.599" y2="21.152" gradientUnits="userSpaceOnUse"><stop id="stop6536" offset=".012" style="stop-color:#ad9c80"/><stop id="stop6538" offset=".052" style="stop-color:#ffe6bc"/><stop id="stop6540" offset=".068" style="stop-color:#c4b091"/><stop id="stop6542" offset=".112" style="stop-color:#dec8a4"/><stop id="stop6544" offset="1" style="stop-color:#b39e7c"/></linearGradient><linearGradient id="linearGradient6524"><stop style="stop-color:#000;stop-opacity:1" id="stop6526" offset="0"/><stop style="stop-color:#000;stop-opacity:0" id="stop6528" offset="1"/></linearGradient><linearGradient id="linearGradient6505"><stop style="stop-color:#000;stop-opacity:1" id="stop6507" offset="0"/><stop id="stop6513" offset="1" style="stop-color:#000;stop-opacity:.49803922"/><stop style="stop-color:#000;stop-opacity:0" id="stop6509" offset="1"/></linearGradient><clipPath id="XMLID_27_"><path id="use189" d="M 53.057,56.968 C 53.067,56.925 53.076,56.882 53.082,56.839 C 53.09,56.795 53.096,56.752 53.1,56.707 C 53.105,56.663 53.109,56.619 53.112,56.574 C 53.114,56.529 53.115,56.483 53.115,56.438 C 53.115,56.483 53.114,56.529 53.112,56.574 C 53.109,56.619 53.105,56.663 53.1,56.707 C 53.096,56.752 53.09,56.795 53.082,56.839 C 53.075,56.882 53.066,56.925 53.057,56.968 z" enable-background="new"/></clipPath><linearGradient id="XMLID_26_" x1=".602" x2="1.102" y1="60.58" y2="60.58" gradientUnits="userSpaceOnUse"><stop style="stop-color:#544c3e" id="stop175" offset="0"/><stop style="stop-color:#000" id="stop177" offset="1"/></linearGradient><linearGradient id="XMLID_25_" x1="2.2" x2="3.198" y1="60.716" y2="60.66" gradientUnits="userSpaceOnUse"><stop style="stop-color:#b39e7c" id="stop168" offset="0"/><stop style="stop-color:#544c3e" id="stop170" offset="1"/></linearGradient><linearGradient id="XMLID_24_" x1="103.898" x2="103.398" y1="60.58" y2="60.58" gradientUnits="userSpaceOnUse"><stop style="stop-color:#544c3e" id="stop151" offset="0"/><stop style="stop-color:#50483b" id="stop153" offset=".216"/><stop style="stop-color:#443d32" id="stop155" offset=".436"/><stop style="stop-color:#2f2b23" id="stop157" offset=".657"/><stop style="stop-color:#13110e" id="stop159" offset=".877"/><stop style="stop-color:#000" id="stop161" offset="1"/></linearGradient><linearGradient id="XMLID_23_" x1="101.303" x2="102.301" y1="60.659" y2="60.715" gradientUnits="userSpaceOnUse"><stop style="stop-color:#544c3e" id="stop144" offset="0"/><stop style="stop-color:#b39e7c" id="stop146" offset="1"/></linearGradient><linearGradient id="linearGradient3329"><stop style="stop-color:#000;stop-opacity:1" id="stop3331" offset="0"/><stop style="stop-color:#000;stop-opacity:0" id="stop3333" offset="1"/></linearGradient><linearGradient id="XMLID_17_" x1=".25" x2="104.25" y1="13.295" y2="13.295" gradientUnits="userSpaceOnUse"><stop style="stop-color:#8f6b32" id="stop28" offset="0"/><stop style="stop-color:#3e2e15;stop-opacity:1" id="stop30" offset=".5"/><stop style="stop-color:#8f6b32" id="stop32" offset="1"/></linearGradient><radialGradient id="XMLID_15_" cx="7.5" cy="8.33" r="126.413" gradientUnits="userSpaceOnUse"><stop style="stop-color:#dbc298" id="stop4" offset=".272"/><stop style="stop-color:#c7b08a" id="stop6" offset=".455"/><stop style="stop-color:#b99c6f;stop-opacity:1" id="stop8" offset=".718"/><stop style="stop-color:#b09469;stop-opacity:1" id="stop10" offset=".882"/><stop style="stop-color:#a48a5f;stop-opacity:1" id="stop12" offset="1"/></radialGradient><linearGradient id="linearGradient10207"><stop style="stop-color:#a2a2a2;stop-opacity:1" id="stop10209" offset="0"/><stop style="stop-color:#fff;stop-opacity:1" id="stop10211" offset="1"/></linearGradient><radialGradient id="XMLID_8_" cx="102" cy="112.305" r="139.559" gradientUnits="userSpaceOnUse"><stop style="stop-color:#b7b8b9;stop-opacity:1" id="stop41" offset="0"/><stop style="stop-color:#ececec" id="stop47" offset=".189"/><stop style="stop-color:#fafafa" id="stop49" offset=".257"/><stop style="stop-color:#fff" id="stop51" offset=".301"/><stop style="stop-color:#fafafa" id="stop53" offset=".531"/><stop style="stop-color:#ebecec" id="stop55" offset=".845"/><stop style="stop-color:#e1e2e3" id="stop57" offset="1"/></radialGradient><filter id="filter6697" width="1.384" height="1.384" x="-.192" y="-.192"><feGaussianBlur id="feGaussianBlur6699" stdDeviation="1.945"/></filter><clipPath id="clipPath7084" clipPathUnits="userSpaceOnUse"><path style="fill:#000;fill-opacity:1;fill-rule:evenodd;stroke:none;stroke-width:1px;stroke-linecap:butt;stroke-linejoin:miter;stroke-opacity:1" id="path7086" d="M 72,88 L 40,120 L 32,120 L 32,80 L 72,80 L 72,88 z"/></clipPath><radialGradient id="radialGradient9437" cx="102" cy="112.305" r="139.559" gradientTransform="matrix(1,0,0,0.9996653,2e-6,3.0160848e-3)" gradientUnits="userSpaceOnUse" xlink:href="#XMLID_8_"/><filter id="filter2770"><feGaussianBlur id="feGaussianBlur2772" stdDeviation="2.079"/></filter><radialGradient id="radialGradient6633" cx="64" cy="105" r="51" fx="64" fy="105" gradientTransform="matrix(1,0,0,0.2156863,0,82.352941)" gradientUnits="userSpaceOnUse" xlink:href="#linearGradient6505"/><linearGradient id="linearGradient8163" x1="68.326" x2="64" y1="36" y2="120" gradientUnits="userSpaceOnUse" xlink:href="#linearGradient6642"/><linearGradient id="linearGradient8165" x1="72.529" x2="73.861" y1="86.649" y2="93.31" gradientTransform="matrix(-0.768261,0,0,0.768261,117.6531,-22.96145)" gradientUnits="userSpaceOnUse" xlink:href="#XMLID_126_"/><linearGradient id="linearGradient8167" x1="60.999" x2="60.999" y1="58.001" y2="119.001" gradientTransform="matrix(0.768261,0,0,0.768261,14.7061,-22.96145)" gradientUnits="userSpaceOnUse" xlink:href="#XMLID_148_"/><linearGradient id="linearGradient8169" x1="66.53" x2="67.862" y1="90.649" y2="97.31" gradientTransform="matrix(0.768261,0,0,0.768261,14.7061,-22.96145)" gradientUnits="userSpaceOnUse" xlink:href="#XMLID_129_"/><linearGradient id="linearGradient8171" x1="67" x2="67" y1="58.001" y2="119.001" gradientTransform="matrix(0.768261,0,0,0.768261,14.7061,-22.96145)" gradientUnits="userSpaceOnUse" xlink:href="#XMLID_147_"/><linearGradient id="linearGradient8173" x1="72.53" x2="73.862" y1="94.651" y2="101.311" gradientTransform="matrix(-0.768261,0,0,0.768261,117.6531,-22.96145)" gradientUnits="userSpaceOnUse" xlink:href="#XMLID_130_"/><linearGradient id="linearGradient8175" x1="60.999" x2="60.999" y1="58.001" y2="119.001" gradientTransform="matrix(0.768261,0,0,0.768261,14.7061,-22.96145)" gradientUnits="userSpaceOnUse" xlink:href="#XMLID_148_"/><linearGradient id="linearGradient8177" x1="66.53" x2="67.862" y1="98.649" y2="105.31" gradientTransform="matrix(0.768261,0,0,0.768261,14.7061,-22.96145)" gradientUnits="userSpaceOnUse" xlink:href="#XMLID_121_"/><linearGradient id="linearGradient8179" x1="67" x2="67" y1="58.001" y2="119.001" gradientTransform="matrix(0.768261,0,0,0.768261,14.7061,-22.96145)" gradientUnits="userSpaceOnUse" xlink:href="#XMLID_147_"/><linearGradient id="linearGradient8181" x1="72.529" x2="73.862" y1="102.648" y2="109.311" gradientTransform="matrix(-0.768261,0,0,0.768261,117.6531,-22.96145)" gradientUnits="userSpaceOnUse" xlink:href="#XMLID_122_"/><linearGradient id="linearGradient8183" x1="60.999" x2="60.999" y1="58.001" y2="119.001" gradientTransform="matrix(0.768261,0,0,0.768261,14.7061,-22.96145)" gradientUnits="userSpaceOnUse" xlink:href="#XMLID_148_"/><linearGradient id="linearGradient8185" x1="66.53" x2="67.862" y1="106.649" y2="113.31" gradientTransform="matrix(0.768261,0,0,0.768261,14.7061,-22.96145)" gradientUnits="userSpaceOnUse" xlink:href="#XMLID_119_"/><linearGradient id="linearGradient8187" x1="67" x2="67" y1="58.001" y2="119.001" gradientTransform="matrix(0.768261,0,0,0.768261,14.7061,-22.96145)" gradientUnits="userSpaceOnUse" xlink:href="#XMLID_147_"/><linearGradient id="linearGradient8189" x1="72.53" x2="73.862" y1="110.65" y2="117.31" gradientTransform="matrix(-0.768261,0,0,0.768261,117.6531,-22.96145)" gradientUnits="userSpaceOnUse" xlink:href="#XMLID_120_"/><linearGradient id="linearGradient8191" x1="60.999" x2="60.999" y1="58.001" y2="119.001" gradientTransform="matrix(0.768261,0,0,0.768261,14.7061,-22.96145)" gradientUnits="userSpaceOnUse" xlink:href="#XMLID_148_"/><linearGradient id="linearGradient8193" x1="66.529" x2="67.861" y1="114.649" y2="121.31" gradientTransform="matrix(0.768261,0,0,0.768261,14.7061,-22.96145)" gradientUnits="userSpaceOnUse" xlink:href="#XMLID_123_"/><linearGradient id="linearGradient8195" x1="67" x2="67" y1="58.001" y2="119.001" gradientTransform="matrix(0.768261,0,0,0.768261,14.7061,-22.96145)" gradientUnits="userSpaceOnUse" xlink:href="#XMLID_147_"/><linearGradient id="linearGradient8197" x1="72.53" x2="73.862" y1="94.651" y2="101.311" gradientTransform="matrix(-0.768261,0,0,0.768261,117.6531,-3.96145)" gradientUnits="userSpaceOnUse" xlink:href="#XMLID_130_"/><linearGradient id="linearGradient8199" x1="60.999" x2="60.999" y1="58.001" y2="119.001" gradientTransform="matrix(0.768261,0,0,0.768261,14.7061,-3.96145)" gradientUnits="userSpaceOnUse" xlink:href="#XMLID_148_"/><linearGradient id="linearGradient8201" x1="66.53" x2="67.862" y1="98.649" y2="105.31" gradientTransform="matrix(0.768261,0,0,0.768261,14.7061,-3.96145)" gradientUnits="userSpaceOnUse" xlink:href="#XMLID_121_"/><linearGradient id="linearGradient8203" x1="67" x2="67" y1="58.001" y2="119.001" gradientTransform="matrix(0.768261,0,0,0.768261,14.7061,-3.96145)" gradientUnits="userSpaceOnUse" xlink:href="#XMLID_147_"/><linearGradient id="linearGradient8205" x1="72.529" x2="73.862" y1="102.648" y2="109.311" gradientTransform="matrix(-0.768261,0,0,0.768261,117.6531,-3.96145)" gradientUnits="userSpaceOnUse" xlink:href="#XMLID_122_"/><linearGradient id="linearGradient8207" x1="60.999" x2="60.999" y1="58.001" y2="119.001" gradientTransform="matrix(0.768261,0,0,0.768261,14.7061,-3.96145)" gradientUnits="userSpaceOnUse" xlink:href="#XMLID_148_"/><linearGradient id="linearGradient8209" x1="66.53" x2="67.862" y1="106.649" y2="113.31" gradientTransform="matrix(0.768261,0,0,0.768261,14.7061,-3.96145)" gradientUnits="userSpaceOnUse" xlink:href="#XMLID_119_"/><linearGradient id="linearGradient8211" x1="67" x2="67" y1="58.001" y2="119.001" gradientTransform="matrix(0.768261,0,0,0.768261,14.7061,-3.96145)" gradientUnits="userSpaceOnUse" xlink:href="#XMLID_147_"/><linearGradient id="linearGradient8213" x1="72.53" x2="73.862" y1="110.65" y2="117.31" gradientTransform="matrix(-0.768261,0,0,0.768261,117.6531,-3.96145)" gradientUnits="userSpaceOnUse" xlink:href="#XMLID_120_"/><linearGradient id="linearGradient8215" x1="60.999" x2="60.999" y1="58.001" y2="119.001" gradientTransform="matrix(0.768261,0,0,0.768261,14.7061,-3.96145)" gradientUnits="userSpaceOnUse" xlink:href="#XMLID_148_"/><linearGradient id="linearGradient8217" x1="66.529" x2="67.861" y1="114.649" y2="121.31" gradientTransform="matrix(0.768261,0,0,0.768261,14.7061,-3.96145)" gradientUnits="userSpaceOnUse" xlink:href="#XMLID_123_"/><linearGradient id="linearGradient8219" x1="67" x2="67" y1="58.001" y2="119.001" gradientTransform="matrix(0.768261,0,0,0.768261,14.7061,-3.96145)" gradientUnits="userSpaceOnUse" xlink:href="#XMLID_147_"/><linearGradient id="linearGradient8221" x1="72.53" x2="73.862" y1="110.65" y2="117.31" gradientTransform="matrix(-0.768261,0,0,0.768261,117.6531,2.03855)" gradientUnits="userSpaceOnUse" xlink:href="#XMLID_120_"/><linearGradient id="linearGradient8223" x1="60.999" x2="60.999" y1="58.001" y2="119.001" gradientTransform="matrix(0.768261,0,0,0.768261,14.7061,2.03855)" gradientUnits="userSpaceOnUse" xlink:href="#XMLID_148_"/><linearGradient id="linearGradient8225" x1="66.529" x2="67.861" y1="114.649" y2="121.31" gradientTransform="matrix(0.768261,0,0,0.768261,14.7061,2.03855)" gradientUnits="userSpaceOnUse" xlink:href="#XMLID_123_"/><linearGradient id="linearGradient8227" x1="67" x2="67" y1="58.001" y2="119.001" gradientTransform="matrix(0.768261,0,0,0.768261,14.7061,2.03855)" gradientUnits="userSpaceOnUse" xlink:href="#XMLID_147_"/><linearGradient id="linearGradient8229" x1="72.53" x2="73.862" y1="110.65" y2="117.31" gradientTransform="matrix(-0.768261,0,0,0.768261,117.6531,8.03855)" gradientUnits="userSpaceOnUse" xlink:href="#XMLID_120_"/><linearGradient id="linearGradient8231" x1="60.999" x2="60.999" y1="58.001" y2="119.001" gradientTransform="matrix(0.768261,0,0,0.768261,14.7061,8.03855)" gradientUnits="userSpaceOnUse" xlink:href="#XMLID_148_"/><linearGradient id="linearGradient8233" x1="64" x2="64" y1="58.808" y2="96.378" gradientTransform="matrix(1,0,0,-1,0,140)" gradientUnits="userSpaceOnUse" xlink:href="#linearGradient3567"/><linearGradient id="linearGradient8235" x1="81.427" x2="82.758" y1="64.792" y2="71.45" gradientTransform="matrix(-0.686825,0.344258,0.344258,0.686825,93.45016,-41.69035)" gradientUnits="userSpaceOnUse" xlink:href="#XMLID_111_"/><linearGradient id="linearGradient8237" x1="59.367" x2="59.367" y1="57.999" y2="119" gradientTransform="matrix(0.768261,0,0,0.768261,14.7061,-22.96145)" gradientUnits="userSpaceOnUse" xlink:href="#XMLID_139_"/><linearGradient id="linearGradient8239" x1="54.889" x2="55.889" y1="61.902" y2="70.901" gradientTransform="matrix(0.768261,0,0,0.768261,14.7061,-22.96145)" gradientUnits="userSpaceOnUse" xlink:href="#XMLID_112_"/><linearGradient id="linearGradient8241" x1="55.313" x2="55.313" y1="57.999" y2="119" gradientTransform="matrix(0.768261,0,0,0.768261,14.7061,-22.96145)" gradientUnits="userSpaceOnUse" xlink:href="#XMLID_140_"/><linearGradient id="linearGradient8243" x1="83.064" x2="84.395" y1="44.913" y2="51.571" gradientTransform="matrix(-0.458037,0.61676,0.61676,0.458037,61.14617,-49.7209)" gradientUnits="userSpaceOnUse" xlink:href="#XMLID_113_"/><linearGradient id="linearGradient8245" x1="48.586" x2="48.586" y1="57.999" y2="119" gradientTransform="matrix(0.768261,0,0,0.768261,14.7061,-22.96145)" gradientUnits="userSpaceOnUse" xlink:href="#XMLID_141_"/><linearGradient id="linearGradient8247" x1="83.388" x2="84.72" y1="36.475" y2="43.134" gradientTransform="matrix(-0.325973,0.69566,0.69566,0.325973,46.5582,-50.8723)" gradientUnits="userSpaceOnUse" xlink:href="#XMLID_114_"/><linearGradient id="linearGradient8249" x1="41.035" x2="41.035" y1="58" y2="119.001" gradientTransform="matrix(0.768261,0,0,0.768261,14.7061,-22.96145)" gradientUnits="userSpaceOnUse" xlink:href="#XMLID_142_"/><linearGradient id="linearGradient8251" x1="81.427" x2="82.758" y1="64.792" y2="71.45" gradientTransform="matrix(-0.686825,0.344258,0.344258,0.686825,93.45016,-41.69035)" gradientUnits="userSpaceOnUse" xlink:href="#XMLID_111_"/><linearGradient id="linearGradient8253" x1="59.367" x2="59.367" y1="57.999" y2="119" gradientTransform="matrix(0.768261,0,0,0.768261,14.7061,-22.96145)" gradientUnits="userSpaceOnUse" xlink:href="#XMLID_139_"/><linearGradient id="linearGradient8255" x1="54.889" x2="55.889" y1="61.902" y2="70.901" gradientTransform="matrix(0.768261,0,0,0.768261,14.7061,-22.96145)" gradientUnits="userSpaceOnUse" xlink:href="#XMLID_112_"/><linearGradient id="linearGradient8257" x1="55.313" x2="55.313" y1="57.999" y2="119" gradientTransform="matrix(0.768261,0,0,0.768261,14.7061,-22.96145)" gradientUnits="userSpaceOnUse" xlink:href="#XMLID_140_"/><linearGradient id="linearGradient8259" x1="83.064" x2="84.395" y1="44.913" y2="51.571" gradientTransform="matrix(-0.458037,0.61676,0.61676,0.458037,61.14617,-49.7209)" gradientUnits="userSpaceOnUse" xlink:href="#XMLID_113_"/><linearGradient id="linearGradient8261" x1="48.586" x2="48.586" y1="57.999" y2="119" gradientTransform="matrix(0.768261,0,0,0.768261,14.7061,-22.96145)" gradientUnits="userSpaceOnUse" xlink:href="#XMLID_141_"/><linearGradient id="linearGradient8263" x1="83.388" x2="84.72" y1="36.475" y2="43.134" gradientTransform="matrix(-0.325973,0.69566,0.69566,0.325973,46.5582,-50.8723)" gradientUnits="userSpaceOnUse" xlink:href="#XMLID_114_"/><linearGradient id="linearGradient8265" x1="41.035" x2="41.035" y1="58" y2="119.001" gradientTransform="matrix(0.768261,0,0,0.768261,14.7061,-22.96145)" gradientUnits="userSpaceOnUse" xlink:href="#XMLID_142_"/><linearGradient id="linearGradient8267" x1="84.012" x2="85.344" y1="28.52" y2="35.179" gradientTransform="matrix(-0.196368,0.742755,0.742755,0.196368,34.3253,-50.55285)" gradientUnits="userSpaceOnUse" xlink:href="#XMLID_115_"/><linearGradient id="linearGradient8269" x1="33.789" x2="33.789" y1="57.999" y2="119" gradientTransform="matrix(0.768261,0,0,0.768261,14.7061,-22.96145)" gradientUnits="userSpaceOnUse" xlink:href="#XMLID_143_"/><linearGradient id="linearGradient8271" x1="60.333" x2="68.415" y1="67.612" y2="103.983" gradientTransform="matrix(0.768261,0,0,0.768261,14.7061,-22.96145)" gradientUnits="userSpaceOnUse" xlink:href="#XMLID_159_"/><linearGradient id="linearGradient8273" x1="56.891" x2="68.891" y1="67.886" y2="82.886" gradientTransform="matrix(0.768261,0,0,0.768261,14.7061,-22.96145)" gradientUnits="userSpaceOnUse" xlink:href="#XMLID_160_"/><linearGradient id="linearGradient8275" x1="62.05" x2="67.05" y1="69.625" y2="83.624" gradientTransform="matrix(0.768261,0,0,0.768261,14.7061,-22.96145)" gradientUnits="userSpaceOnUse" xlink:href="#XMLID_161_"/><linearGradient id="linearGradient8277" x1="63.542" x2="64.542" y1="74.092" y2="79.093" gradientTransform="matrix(0.768261,0,0,0.768261,14.7061,-22.96145)" gradientUnits="userSpaceOnUse" xlink:href="#XMLID_162_"/><linearGradient id="linearGradient8279" x1="61.316" x2="68.316" y1="83.099" y2="101.099" gradientTransform="matrix(0.768261,0,0,0.768261,14.7061,-22.96145)" gradientUnits="userSpaceOnUse" xlink:href="#XMLID_163_"/><linearGradient id="linearGradient8281" x1="61.706" x2="67.762" y1="77.532" y2="107.808" gradientTransform="matrix(0.768261,0,0,0.768261,14.7061,-22.96145)" gradientUnits="userSpaceOnUse" xlink:href="#XMLID_164_"/><linearGradient id="linearGradient8283" x1="62" x2="66" y1="76" y2="76" gradientTransform="matrix(0.768261,0,0,0.768261,14.7061,-22.96145)" gradientUnits="userSpaceOnUse" xlink:href="#XMLID_165_"/><linearGradient id="linearGradient8285" x1="63.106" x2="65.106" y1="71.977" y2="80.977" gradientTransform="matrix(0.768261,0,0,0.768261,14.7061,-22.96145)" gradientUnits="userSpaceOnUse" xlink:href="#XMLID_166_"/><filter id="filter8342"><feGaussianBlur id="feGaussianBlur8344" stdDeviation=".412"/></filter><filter id="filter8354" width="1.119" height="1.712" x="-.059" y="-.356"><feGaussianBlur id="feGaussianBlur8356" stdDeviation=".228"/></filter><linearGradient id="linearGradient3416" x1="98.617" x2="91.229" y1="106.414" y2="99.255" gradientTransform="translate(10,0)" gradientUnits="userSpaceOnUse" xlink:href="#linearGradient10207"/></defs><metadata id="metadata2611"/><g id="layer1"><path style="opacity:.5;fill:#000;fill-opacity:1;filter:url(#filter2770)" id="path7865" d="M 16,8 L 16,120 C 16,120 79.15625,120 79.15625,120 L 79.1875,120 C 79.187503,120 91.09375,110.09375 96.59375,104.59375 C 102.09375,99.09375 112,87.1875 112,87.1875 L 112,87.15625 L 112,8 L 16,8 z" transform="matrix(1.0416667,0,0,1.0267857,-2.6666667,-1.2142891)"/><path style="fill:#fff;fill-opacity:1" id="path34" d="M 16.000001,8 L 16,120 C 16,120 79.146418,120 79.146418,120 L 112,87.14642 L 112,8 L 16.000001,8 z"/><path style="fill:url(#radialGradient9437);fill-opacity:1" id="path59" d="M 18.000002,9.0000034 C 17.449002,9.0000034 17.000002,9.4488534 17.000002,9.9996684 L 17.000002,117.96352 C 17.000002,118.51533 17.449002,118.96318 18.000002,118.96318 L 77.171999,118.96318 C 77.434999,118.96318 79.934679,119.08131 80.12068,118.89438 L 110.707,88.094202 C 110.894,87.907264 111,85.40942 111,85.146508 L 111,9.9996684 C 111,9.4488534 110.552,9.0000034 110,9.0000034 L 18.000002,9.0000034 z"/><g id="g3298" transform="translate(-7.2118459e-7,7.4211846e-6)"><path style="opacity:.6;fill:url(#radialGradient6633);fill-opacity:1;fill-rule:evenodd;stroke:#000;stroke-width:.5;stroke-linecap:butt;stroke-linejoin:round;stroke-miterlimit:4;stroke-opacity:1;filter:url(#filter3400)" id="rect4744" d="M 18.520833,73.665304 L 109.47917,73.665304 L 115,112.75 C 115,114.5505 113.42971,116 111.47917,116 L 16.520833,116 C 14.570292,116 13,114.5505 13,112.75 C 13,112.75 16.570292,73.665304 18.520833,73.665304 z" transform="matrix(0.6251619,0,0,0.3488041,23.989638,50.421975)"/><g id="g9722" transform="matrix(1.1428571,0,0,1.1428571,-11.42857,-12.571431)"><g id="g9650" transform="matrix(1.0769231,0,0,1.0769231,-2.9230769,-6.7692307)"><g id="g6413" transform="matrix(0.5,0,0,0.4969956,-12.60681,55.426509)"><polygon id="polygon14" points="104.25 24.795 100.25 96.58 4.25 96.58 .25 24.795 104.25 24.795" transform="translate(100.96362,-31.039526)" style="fill:url(#radialGradient9773)"/><path id="polygon34" d="M 52.25,25.795 L 0.25,24.795 L 32.5,0.795 L 72,0.795 L 104.25,24.795 L 52.25,25.795 z" transform="translate(100.96362,-31.039526)" style="fill:url(#linearGradient9777)"/><path id="polygon6516" d="M 52.25,25.795 L 0.25,24.795 L 47.125,5.6994701 L 52.499999,5.6994701 L 104.25,24.795 L 52.25,25.795 z" transform="translate(100.96362,-31.039526)" style="fill:url(#linearGradient9779);fill-opacity:1"/><path id="path2427" d="M 153.21362,-16.326115 L 189.05962,-12.476469 L 205.21362,-6.459526 L 153.21362,-9.1743493 L 153.21362,-16.326115 z" style="fill:url(#linearGradient3400);fill-opacity:1"/><path style="fill:url(#linearGradient4378)" id="polygon49" d="M 153.21362,-34.309172 L 189.05962,-30.459526 L 205.21362,-6.459526 L 153.21362,-12.443996 L 153.21362,-34.309172 z"/><path id="polygon69" d="M 153.21362,-17.22271 L 101.21362,-6.459526 L 117.36962,-30.459526 L 153.21362,-39.087885 L 153.21362,-17.22271 z" style="fill:url(#linearGradient2422)"/><path id="path71" style="fill:#eeeeec"/><g id="g141" transform="translate(100.96362,-31.039526)"><linearGradient id="linearGradient2496" x1="101.303" x2="102.301" y1="60.659" y2="60.715" gradientUnits="userSpaceOnUse"><stop style="stop-color:#544c3e" id="stop2498" offset="0"/><stop style="stop-color:#b39e7c" id="stop2500" offset="1"/></linearGradient><path id="path148" d="M 99.36,95.555 C 99.33,96.104 99.529,96.566 99.803,96.58 C 100.077,96.594 100.327,96.158 100.358,95.609 L 104.247,25.821 C 104.277,25.272 104.078,24.81 103.804,24.795 C 103.53,24.78 103.28,25.216 103.249,25.766 L 99.36,95.555 z" style="fill:url(#linearGradient9785)"/><linearGradient id="linearGradient2503" x1="103.898" x2="103.398" y1="60.58" y2="60.58" gradientUnits="userSpaceOnUse"><stop style="stop-color:#544c3e" id="stop2505" offset="0"/><stop style="stop-color:#50483b" id="stop2507" offset=".216"/><stop style="stop-color:#443d32" id="stop2509" offset=".436"/><stop style="stop-color:#2f2b23" id="stop2511" offset=".657"/><stop style="stop-color:#13110e" id="stop2513" offset=".877"/><stop style="stop-color:#000" id="stop2515" offset="1"/></linearGradient><path id="path163" d="M 101.281,65.58 L 101.781,65.58 C 101.818,64.915 101.855,64.248 101.892,63.58 L 101.392,63.58 L 101.281,65.58 z M 100.612,77.58 L 101.113,77.58 C 101.149,76.923 101.186,76.256 101.224,75.58 L 100.723,75.58 L 100.612,77.58 z M 101.058,69.58 L 101.559,69.58 C 101.596,68.917 101.633,68.25 101.67,67.58 L 101.17,67.58 L 101.058,69.58 z M 100.835,73.58 L 101.336,73.58 C 101.372,72.92 101.41,72.253 101.447,71.58 L 100.946,71.58 L 100.835,73.58 z M 99.943,89.58 L 100.444,89.58 C 100.478,88.952 100.515,88.285 100.555,87.58 L 100.054,87.58 L 99.943,89.58 z M 99.721,93.58 L 100.221,93.58 C 100.252,93.018 100.29,92.346 100.332,91.58 L 99.832,91.58 L 99.721,93.58 z M 100.166,85.58 L 100.667,85.58 C 100.703,84.935 100.74,84.268 100.778,83.58 L 100.277,83.58 L 100.166,85.58 z M 100.39,81.58 L 100.89,81.58 C 100.926,80.928 100.963,80.261 101.001,79.58 L 100.501,79.58 L 100.39,81.58 z M 101.727,57.58 L 102.227,57.58 C 102.265,56.911 102.302,56.244 102.339,55.58 L 101.838,55.58 L 101.727,57.58 z M 101.504,61.58 L 102.004,61.58 C 102.041,60.913 102.078,60.246 102.115,59.58 L 101.615,59.58 L 101.504,61.58 z M 102.841,37.58 L 103.342,37.58 C 103.38,36.891 103.417,36.223 103.453,35.58 L 102.952,35.58 L 102.841,37.58 z M 103.064,33.58 L 103.564,33.58 C 103.603,32.873 103.64,32.205 103.675,31.58 L 103.175,31.58 L 103.064,33.58 z M 103.398,27.58 L 103.287,29.58 L 103.787,29.58 C 103.83,28.802 103.868,28.132 103.898,27.58 L 103.398,27.58 z M 102.618,41.58 L 103.119,41.58 C 103.156,40.898 103.193,40.231 103.23,39.58 L 102.729,39.58 L 102.618,41.58 z M 101.949,53.58 L 102.45,53.58 C 102.487,52.909 102.524,52.242 102.561,51.58 L 102.06,51.58 L 101.949,53.58 z M 102.396,45.58 L 102.896,45.58 C 102.934,44.903 102.971,44.236 103.008,43.58 L 102.507,43.58 L 102.396,45.58 z M 102.172,49.58 L 102.673,49.58 C 102.711,48.906 102.748,48.24 102.784,47.58 L 102.283,47.58 L 102.172,49.58 z" style="opacity:.5;fill:url(#linearGradient9787)"/></g><g id="g165" transform="translate(100.96362,-31.039526)"><linearGradient id="linearGradient2519" x1="2.2" x2="3.198" y1="60.716" y2="60.66" gradientUnits="userSpaceOnUse"><stop style="stop-color:#b39e7c" id="stop2521" offset="0"/><stop style="stop-color:#544c3e" id="stop2523" offset="1"/></linearGradient><path id="path172" d="M 5.14,95.555 C 5.171,96.104 4.971,96.566 4.697,96.58 C 4.423,96.594 4.174,96.158 4.142,95.609 L 0.253,25.821 C 0.223,25.272 0.422,24.81 0.696,24.795 C 0.97,24.78 1.22,25.216 1.251,25.766 L 5.14,95.555 z" style="fill:url(#linearGradient9789)"/><linearGradient id="linearGradient2526" x1=".602" x2="1.102" y1="60.58" y2="60.58" gradientUnits="userSpaceOnUse"><stop style="stop-color:#544c3e" id="stop2528" offset="0"/><stop style="stop-color:#000" id="stop2530" offset="1"/></linearGradient><path id="path179" d="M 3.331,67.58 L 2.831,67.58 C 2.868,68.25 2.905,68.917 2.942,69.58 L 3.442,69.58 L 3.331,67.58 z M 3.554,71.58 L 3.054,71.58 C 3.092,72.253 3.129,72.92 3.166,73.58 L 3.666,73.58 L 3.554,71.58 z M 3.108,63.58 L 2.608,63.58 C 2.645,64.248 2.683,64.915 2.719,65.58 L 3.219,65.58 L 3.108,63.58 z M 3.776,75.58 L 3.276,75.58 C 3.314,76.256 3.351,76.923 3.387,77.58 L 3.887,77.58 L 3.776,75.58 z M 4,79.58 L 3.5,79.58 C 3.538,80.261 3.575,80.928 3.611,81.58 L 4.111,81.58 L 4,79.58 z M 2.885,59.58 L 2.385,59.58 C 2.422,60.246 2.459,60.913 2.496,61.58 L 2.996,61.58 L 2.885,59.58 z M 4.222,83.58 L 3.722,83.58 C 3.761,84.268 3.798,84.935 3.834,85.58 L 4.334,85.58 L 4.222,83.58 z M 4.445,87.58 L 3.945,87.58 C 3.985,88.285 4.022,88.952 4.056,89.58 L 4.556,89.58 L 4.445,87.58 z M 4.668,91.58 L 4.168,91.58 C 4.21,92.346 4.248,93.018 4.279,93.58 L 4.779,93.58 L 4.668,91.58 z M 1.771,39.58 L 1.271,39.58 C 1.307,40.231 1.344,40.898 1.382,41.58 L 1.882,41.58 L 1.771,39.58 z M 2.662,55.58 L 2.162,55.58 C 2.199,56.244 2.236,56.911 2.274,57.58 L 2.774,57.58 L 2.662,55.58 z M 1.548,35.58 L 1.048,35.58 C 1.084,36.223 1.121,36.891 1.159,37.58 L 1.659,37.58 L 1.548,35.58 z M 1.102,27.58 L 0.602,27.58 C 0.633,28.132 0.67,28.802 0.713,29.58 L 1.213,29.58 L 1.102,27.58 z M 1.325,31.58 L 0.825,31.58 C 0.86,32.205 0.897,32.873 0.937,33.58 L 1.437,33.58 L 1.325,31.58 z M 2.439,51.58 L 1.939,51.58 C 1.976,52.242 2.013,52.909 2.05,53.58 L 2.55,53.58 L 2.439,51.58 z M 1.993,43.58 L 1.493,43.58 C 1.53,44.236 1.567,44.903 1.604,45.58 L 2.104,45.58 L 1.993,43.58 z M 2.216,47.58 L 1.716,47.58 C 1.753,48.24 1.79,48.906 1.827,49.58 L 2.327,49.58 L 2.216,47.58 z" style="opacity:.5;fill:url(#linearGradient9791)"/></g><g id="g183" transform="translate(100.96362,-31.039526)"><defs id="defs185"><path id="XMLID_13_" d="M 53.057,56.968 C 53.067,56.925 53.076,56.882 53.082,56.839 C 53.09,56.795 53.096,56.752 53.1,56.707 C 53.105,56.663 53.109,56.619 53.112,56.574 C 53.114,56.529 53.115,56.483 53.115,56.438 C 53.115,56.483 53.114,56.529 53.112,56.574 C 53.109,56.619 53.105,56.663 53.1,56.707 C 53.096,56.752 53.09,56.795 53.082,56.839 C 53.075,56.882 53.066,56.925 53.057,56.968 z" enable-background="new"/></defs><clipPath id="clipPath2537"><use id="use2539" width="128" height="128" x="0" y="0" xlink:href="#XMLID_13_"/></clipPath><g id="g191" clip-path="url(#XMLID_27_)"><path id="path193" d="M 53.057,56.968 C 53.067,56.925 53.076,56.882 53.082,56.839 C 53.09,56.795 53.096,56.752 53.1,56.707 C 53.105,56.663 53.109,56.619 53.112,56.574 C 53.114,56.529 53.115,56.483 53.115,56.438 C 53.115,56.483 53.114,56.529 53.112,56.574 C 53.109,56.619 53.105,56.663 53.1,56.707 C 53.096,56.752 53.09,56.795 53.082,56.839 C 53.075,56.882 53.066,56.925 53.057,56.968" style="fill:#828282"/></g></g><polygon style="opacity:.5;fill:none;stroke:url(#linearGradient4366);stroke-width:1.86274767;stroke-linejoin:round;stroke-miterlimit:4;stroke-dasharray:none;stroke-opacity:1" id="polygon2416" points="104.25 24.795 100.25 96.58 4.25 96.58 .25 24.795 104.25 24.795" transform="matrix(0.9497077,0,0,0.9497077,103.5914,-27.069162)"/></g><path id="rect6520" d="M 64.00015,38.4375 L 74.713341,39.5 L 78.722956,51.875 L 63.9375,49.3125 L 64.00015,38.4375 z" style="opacity:.6;fill:url(#linearGradient9793);fill-opacity:1;fill-rule:evenodd;stroke:none;stroke-width:3;stroke-linecap:butt;stroke-linejoin:round;stroke-miterlimit:4;stroke-opacity:1"/></g></g></g><g id="g7919"><path id="path7921" d="M 16,49.743875 L 16,118 C 16,119.104 16.896,120 18,120 L 77.1875,120 C 77.7175,120 78.21875,119.78125 78.59375,119.40625 C 78.59375,119.40625 88,106.25 88,96 C 98.25,96 111.40625,86.593751 111.40625,86.59375 C 111.78125,86.218751 112,85.7175 112,85.1875 L 112,49.743875 C 112,49.743875 82.12374,46.708365 62,66.832106 C 40.46834,45.300451 16,49.743875 16,49.743875 z" style="opacity:.4;fill:url(#linearGradient8163);fill-opacity:1"/><path id="path7923" d="M 80.625,54.6875 C 75.78382,56.640966 70.86735,59.294441 66.28125,62.96875 L 97.34375,94.03125 C 100.01217,93.047758 102.56719,91.830207 104.75,90.65625 C 104.86778,90.592559 104.97821,90.53206 105.09375,90.46875 C 105.66574,90.157314 106.17527,89.858234 106.6875,89.5625 C 106.87456,89.454094 107.0093,89.386533 107.1875,89.28125 C 107.95471,88.830952 108.6041,88.430249 109.1875,88.0625 C 109.64167,87.775104 109.92588,87.589778 110.25,87.375 C 110.60575,87.141487 110.61832,87.132882 110.8125,87 C 111.19226,86.742798 111.40625,86.59375 111.40625,86.59375 C 111.59375,86.40625 111.74219,86.175938 111.84375,85.9375 C 111.84756,85.928559 111.84007,85.915245 111.84375,85.90625 L 80.625,54.6875 z" style="opacity:.1;fill:#000;fill-opacity:1;fill-rule:evenodd;stroke:none;stroke-width:4;stroke-linecap:round;stroke-linejoin:round;stroke-miterlimit:4;stroke-opacity:1"/><g id="g7925" transform="matrix(0.993226,0,0,0.993226,-0.15183,20.257852)"><path id="path7927" d="M 62.348269,44.488024 C 62.329831,44.448843 62.257615,44.305178 62.257615,44.305178 C 62.127778,44.045506 61.861192,43.88033 61.570021,43.88033 L 57.728716,43.88033 C 57.304636,43.88033 56.960455,44.223743 56.960455,44.648591 L 56.960455,47.721635 C 56.960455,48.146483 57.304636,48.489896 57.728716,48.489896 L 65.411326,48.489896 C 65.836174,48.489896 66.179587,48.146483 66.179587,47.721635 L 66.179587,46.185113 C 66.179587,44.914409 65.145508,43.88033 63.874804,43.88033 C 63.283243,43.88033 62.756216,44.120027 62.348269,44.488024 z" style="fill:#000;fill-opacity:.65680476;stroke:none"/><path id="path7929" d="M 61.570021,43.877257 L 62.338282,45.413779 C 62.338282,44.564851 63.026644,43.877257 63.874804,43.877257 C 64.723732,43.877257 65.411326,44.564851 65.411326,45.413779 L 65.411326,46.950301 L 57.728716,46.950301 L 57.728716,43.877257 L 61.570021,43.877257 z" style="fill:url(#linearGradient8165)"/><path id="path7931" d="M 63.106543,45.413779 C 63.106543,45.770252 62.861468,46.079861 62.514982,46.162065 C 62.455826,46.175126 62.397438,46.18204 62.338282,46.18204 C 63.444578,46.18204 64.227436,46.18204 64.643065,46.18204 C 64.643065,45.79791 64.643065,45.413779 64.643065,45.413779 C 64.643065,44.989699 64.298116,44.645518 63.874804,44.645518 C 63.451492,44.645518 63.106543,44.989699 63.106543,45.413779 z M 58.496977,44.645518 C 58.496977,45.221714 58.496977,45.605844 58.496977,46.18204 C 59.188412,46.18204 60.494456,46.18204 62.338282,46.18204 C 62.052489,46.18204 61.783598,46.021473 61.651457,45.757192 C 61.651457,45.757192 61.318031,45.090341 61.095236,44.645518 C 60.5321,44.645518 59.328235,44.645518 58.496977,44.645518 z" style="fill:url(#linearGradient8167)"/></g><g id="g7933" transform="matrix(0.993226,0,0,0.993226,-0.15183,20.257852)"><path id="path7935" d="M 66.179587,46.953374 C 65.888416,46.953374 65.622598,47.11855 65.491993,47.378222 C 65.491993,47.378222 65.419777,47.522655 65.401339,47.561068 C 64.992624,47.193071 64.465597,46.953374 63.874804,46.953374 C 62.6041,46.953374 61.570021,47.987453 61.570021,49.258157 L 61.570021,50.794679 C 61.570021,51.219527 61.914202,51.56294 62.338282,51.56294 L 70.020892,51.56294 C 70.44574,51.56294 70.789153,51.219527 70.789153,50.794679 L 70.789153,47.721635 C 70.789153,47.296787 70.44574,46.953374 70.020892,46.953374 L 66.179587,46.953374 z" style="fill:#000;fill-opacity:.65680476;stroke:none"/><path id="path7937" d="M 66.179587,46.950301 L 65.411326,48.486823 C 65.411326,47.637895 64.722964,46.950301 63.874804,46.950301 C 63.025876,46.950301 62.338282,47.637895 62.338282,48.486823 L 62.338282,50.023345 L 70.020892,50.023345 L 70.020892,46.950301 L 66.179587,46.950301 z" style="fill:url(#linearGradient8169)"/><path id="path7939" d="M 66.654372,47.718562 C 66.431577,48.163385 66.098151,48.830236 66.098151,48.830236 C 65.966779,49.094517 65.697887,49.255084 65.412094,49.255084 C 67.255152,49.255084 68.561964,49.255084 69.252631,49.255084 C 69.252631,48.678888 69.252631,48.294758 69.252631,47.718562 C 68.421373,47.718562 67.217508,47.718562 66.654372,47.718562 z M 63.106543,48.486823 C 63.106543,48.486823 63.106543,48.870953 63.106543,49.255084 C 63.521404,49.255084 64.30503,49.255084 65.410558,49.255084 C 65.352938,49.255084 65.293782,49.24817 65.234626,49.235109 C 64.88814,49.152905 64.643065,48.843296 64.643065,48.486823 C 64.643065,48.062743 64.298116,47.718562 63.874804,47.718562 C 63.451492,47.718562 63.106543,48.062743 63.106543,48.486823 z" style="fill:url(#linearGradient8171)"/></g><g id="g7941" transform="matrix(0.993226,0,0,0.993226,-0.15183,20.257852)"><path id="path7943" d="M 62.348269,50.634112 C 62.329831,50.594931 62.257615,50.451266 62.257615,50.451266 C 62.127778,50.191594 61.861192,50.026418 61.570021,50.026418 L 57.728716,50.026418 C 57.304636,50.026418 56.960455,50.369831 56.960455,50.794679 L 56.960455,53.867723 C 56.960455,54.292571 57.304636,54.635984 57.728716,54.635984 L 65.411326,54.635984 C 65.836174,54.635984 66.179587,54.292571 66.179587,53.867723 L 66.179587,52.331201 C 66.179587,51.060497 65.145508,50.026418 63.874804,50.026418 C 63.283243,50.026418 62.756216,50.266115 62.348269,50.634112 z" style="fill:#000;fill-opacity:.65680476;stroke:none"/><path id="path7945" d="M 61.570021,50.023345 L 62.338282,51.559867 C 62.338282,50.710939 63.026644,50.023345 63.874804,50.023345 C 64.723732,50.023345 65.411326,50.710939 65.411326,51.559867 L 65.411326,53.096389 L 57.728716,53.096389 L 57.728716,50.023345 L 61.570021,50.023345 z" style="fill:url(#linearGradient8173)"/><path id="path7947" d="M 63.106543,51.559867 C 63.106543,51.91634 62.861468,52.225949 62.514982,52.308153 C 62.455826,52.321214 62.397438,52.328128 62.338282,52.328128 C 63.444578,52.328128 64.227436,52.328128 64.643065,52.328128 C 64.643065,51.943997 64.643065,51.559867 64.643065,51.559867 C 64.643065,51.135787 64.298116,50.791606 63.874804,50.791606 C 63.451492,50.791606 63.106543,51.135787 63.106543,51.559867 z M 58.496977,50.791606 C 58.496977,51.367802 58.496977,51.751932 58.496977,52.328128 C 59.188412,52.328128 60.494456,52.328128 62.338282,52.328128 C 62.052489,52.328128 61.783598,52.167561 61.651457,51.90328 C 61.651457,51.90328 61.318031,51.236429 61.095236,50.791606 C 60.5321,50.791606 59.328235,50.791606 58.496977,50.791606 z" style="fill:url(#linearGradient8175)"/></g><g id="g7949" transform="matrix(0.993226,0,0,0.993226,-0.15183,20.257852)"><path id="path7951" d="M 66.179587,53.099462 C 65.888416,53.099462 65.622598,53.264638 65.491993,53.52431 C 65.491993,53.52431 65.419777,53.668743 65.401339,53.707156 C 64.992624,53.339159 64.465597,53.099462 63.874804,53.099462 C 62.6041,53.099462 61.570021,54.133541 61.570021,55.404245 L 61.570021,56.940767 C 61.570021,57.365615 61.914202,57.709028 62.338282,57.709028 L 70.020892,57.709028 C 70.44574,57.709028 70.789153,57.365615 70.789153,56.940767 L 70.789153,53.867723 C 70.789153,53.442875 70.44574,53.099462 70.020892,53.099462 L 66.179587,53.099462 z" style="fill:#000;fill-opacity:.65680476;stroke:none"/><path id="path7953" d="M 66.179587,53.096389 L 65.411326,54.632911 C 65.411326,53.783983 64.722964,53.096389 63.874804,53.096389 C 63.025876,53.096389 62.338282,53.783983 62.338282,54.632911 L 62.338282,56.169433 L 70.020892,56.169433 L 70.020892,53.096389 L 66.179587,53.096389 z" style="fill:url(#linearGradient8177)"/><path id="path7955" d="M 66.654372,53.86465 C 66.431577,54.309473 66.098151,54.976324 66.098151,54.976324 C 65.96601,55.240605 65.697887,55.401172 65.411326,55.401172 C 67.254384,55.401172 68.561196,55.401172 69.251863,55.401172 C 69.251863,54.824976 69.251863,54.440846 69.251863,53.86465 C 68.421373,53.86465 67.217508,53.86465 66.654372,53.86465 z M 63.106543,54.632911 C 63.106543,54.632911 63.106543,55.017042 63.106543,55.401172 C 63.521404,55.401172 64.30503,55.401172 65.410558,55.401172 C 65.352938,55.401172 65.293782,55.394258 65.234626,55.381197 C 64.88814,55.298993 64.643065,54.989384 64.643065,54.632911 C 64.643065,54.208831 64.298116,53.86465 63.874804,53.86465 C 63.451492,53.86465 63.106543,54.208831 63.106543,54.632911 z" style="fill:url(#linearGradient8179)"/></g><g id="g7957" transform="matrix(0.993226,0,0,0.993226,-0.15183,20.257852)"><path id="path7959" d="M 62.348269,56.7802 C 62.329831,56.741019 62.257615,56.597354 62.257615,56.597354 C 62.127778,56.337682 61.861192,56.172506 61.570021,56.172506 L 57.728716,56.172506 C 57.304636,56.172506 56.960455,56.515919 56.960455,56.940767 L 56.960455,60.013811 C 56.960455,60.438659 57.304636,60.782072 57.728716,60.782072 L 65.411326,60.782072 C 65.836174,60.782072 66.179587,60.438659 66.179587,60.013811 L 66.179587,58.477289 C 66.179587,57.206585 65.145508,56.172506 63.874804,56.172506 C 63.283243,56.172506 62.756216,56.412203 62.348269,56.7802 z" style="fill:#000;fill-opacity:.65680476;stroke:none"/><path id="path7961" d="M 61.570021,56.169433 L 62.338282,57.705955 C 62.338282,56.857027 63.026644,56.169433 63.874804,56.169433 C 64.723732,56.169433 65.411326,56.857027 65.411326,57.705955 L 65.411326,59.242477 L 57.728716,59.242477 L 57.728716,56.169433 L 61.570021,56.169433 z" style="fill:url(#linearGradient8181)"/><path id="path7963" d="M 63.106543,57.705955 C 63.106543,58.062428 62.861468,58.372037 62.514982,58.454241 C 62.455826,58.467302 62.397438,58.474216 62.338282,58.474216 C 63.444578,58.474216 64.227436,58.474216 64.643065,58.474216 C 64.643065,58.090086 64.643065,57.705955 64.643065,57.705955 C 64.643065,57.281875 64.298116,56.937694 63.874804,56.937694 C 63.451492,56.937694 63.106543,57.281875 63.106543,57.705955 z M 58.496977,56.937694 C 58.496977,57.51389 58.496977,57.89802 58.496977,58.474216 C 59.188412,58.474216 60.494456,58.474216 62.338282,58.474216 C 62.052489,58.474216 61.783598,58.313649 61.651457,58.049368 C 61.651457,58.049368 61.318031,57.382517 61.095236,56.937694 C 60.5321,56.937694 59.328235,56.937694 58.496977,56.937694 z" style="fill:url(#linearGradient8183)"/></g><g id="g7965" transform="matrix(0.993226,0,0,0.993226,-0.15183,20.257852)"><path id="path7967" d="M 66.179587,59.24555 C 65.888416,59.24555 65.622598,59.410726 65.491993,59.670398 C 65.491993,59.670398 65.419777,59.814831 65.401339,59.853244 C 64.992624,59.485247 64.465597,59.24555 63.874804,59.24555 C 62.6041,59.24555 61.570021,60.279629 61.570021,61.550333 L 61.570021,63.086855 C 61.570021,63.511703 61.914202,63.855116 62.338282,63.855116 L 70.020892,63.855116 C 70.44574,63.855116 70.789153,63.511703 70.789153,63.086855 L 70.789153,60.013811 C 70.789153,59.588963 70.44574,59.24555 70.020892,59.24555 L 66.179587,59.24555 z" style="fill:#000;fill-opacity:.65680476;stroke:none"/><path id="path7969" d="M 66.179587,59.242477 L 65.411326,60.778999 C 65.411326,59.930071 64.722964,59.242477 63.874804,59.242477 C 63.025876,59.242477 62.338282,59.930071 62.338282,60.778999 L 62.338282,62.315521 L 70.020892,62.315521 L 70.020892,59.242477 L 66.179587,59.242477 z" style="fill:url(#linearGradient8185)"/><path id="path7971" d="M 66.654372,60.010738 C 66.431577,60.455561 66.098151,61.122412 66.098151,61.122412 C 65.96601,61.386693 65.697887,61.54726 65.411326,61.54726 C 67.254384,61.54726 68.561196,61.54726 69.251863,61.54726 C 69.251863,60.971064 69.251863,60.586934 69.251863,60.010738 C 68.421373,60.010738 67.217508,60.010738 66.654372,60.010738 z M 63.106543,60.778999 C 63.106543,60.778999 63.106543,61.163129 63.106543,61.54726 C 63.521404,61.54726 64.30503,61.54726 65.410558,61.54726 C 65.352938,61.54726 65.293782,61.540346 65.234626,61.527285 C 64.88814,61.445081 64.643065,61.135472 64.643065,60.778999 C 64.643065,60.354919 64.298116,60.010738 63.874804,60.010738 C 63.451492,60.010738 63.106543,60.354919 63.106543,60.778999 z" style="fill:url(#linearGradient8187)"/></g><g id="g7973" transform="matrix(0.993226,0,0,0.993226,-0.15183,20.257852)"><path id="path7975" d="M 62.348269,62.926288 C 62.329831,62.887107 62.257615,62.743442 62.257615,62.743442 C 62.127778,62.48377 61.861192,62.318594 61.570021,62.318594 L 57.728716,62.318594 C 57.304636,62.318594 56.960455,62.662007 56.960455,63.086855 L 56.960455,66.159899 C 56.960455,66.584747 57.304636,66.92816 57.728716,66.92816 L 65.411326,66.92816 C 65.836174,66.92816 66.179587,66.584747 66.179587,66.159899 L 66.179587,64.623377 C 66.179587,63.352673 65.145508,62.318594 63.874804,62.318594 C 63.283243,62.318594 62.756216,62.558291 62.348269,62.926288 z" style="fill:#000;fill-opacity:.65680476;stroke:none"/><path id="path7977" d="M 61.570021,62.315521 L 62.338282,63.852043 C 62.338282,63.003115 63.026644,62.315521 63.874804,62.315521 C 64.723732,62.315521 65.411326,63.003115 65.411326,63.852043 L 65.411326,65.388565 L 57.728716,65.388565 L 57.728716,62.315521 L 61.570021,62.315521 z" style="fill:url(#linearGradient8189)"/><path id="path7979" d="M 63.106543,63.852043 C 63.106543,64.208516 62.861468,64.518125 62.514982,64.600329 C 62.455826,64.61339 62.397438,64.620304 62.338282,64.620304 C 63.444578,64.620304 64.227436,64.620304 64.643065,64.620304 C 64.643065,64.236173 64.643065,63.852043 64.643065,63.852043 C 64.643065,63.427963 64.298116,63.083782 63.874804,63.083782 C 63.451492,63.083782 63.106543,63.427963 63.106543,63.852043 z M 58.496977,63.083782 C 58.496977,63.659978 58.496977,64.044108 58.496977,64.620304 C 59.188412,64.620304 60.494456,64.620304 62.338282,64.620304 C 62.052489,64.620304 61.783598,64.459737 61.651457,64.195456 C 61.651457,64.195456 61.318031,63.528605 61.095236,63.083782 C 60.5321,63.083782 59.328235,63.083782 58.496977,63.083782 z" style="fill:url(#linearGradient8191)"/></g><g id="g7981" transform="matrix(0.993226,0,0,0.993226,-0.15183,20.257852)"><path id="path7983" d="M 66.179587,65.391638 C 65.888416,65.391638 65.622598,65.556814 65.491993,65.816486 C 65.491993,65.816486 65.419777,65.960919 65.401339,65.999332 C 64.992624,65.631335 64.465597,65.391638 63.874804,65.391638 C 62.6041,65.391638 61.570021,66.425717 61.570021,67.696421 L 61.570021,69.232943 C 61.570021,69.657791 61.914202,70.001204 62.338282,70.001204 L 70.020892,70.001204 C 70.44574,70.001204 70.789153,69.657791 70.789153,69.232943 L 70.789153,66.159899 C 70.789153,65.735051 70.44574,65.391638 70.020892,65.391638 L 66.179587,65.391638 z" style="fill:#000;fill-opacity:.65680476;stroke:none"/><path id="path7985" d="M 66.179587,65.388565 L 65.411326,66.925087 C 65.411326,66.076159 64.722964,65.388565 63.874804,65.388565 C 63.025876,65.388565 62.338282,66.076159 62.338282,66.925087 L 62.338282,68.461609 L 70.020892,68.461609 L 70.020892,65.388565 L 66.179587,65.388565 z" style="fill:url(#linearGradient8193)"/><path id="path7987" d="M 66.654372,66.156826 C 66.431577,66.601649 66.098151,67.2685 66.098151,67.2685 C 65.96601,67.532781 65.697887,67.693348 65.411326,67.693348 C 67.254384,67.693348 68.561196,67.693348 69.251863,67.693348 C 69.251863,67.117152 69.251863,66.733022 69.251863,66.156826 C 68.421373,66.156826 67.217508,66.156826 66.654372,66.156826 z M 63.106543,66.925087 C 63.106543,66.925087 63.106543,67.309218 63.106543,67.693348 C 63.521404,67.693348 64.30503,67.693348 65.410558,67.693348 C 65.352938,67.693348 65.293782,67.686434 65.234626,67.673373 C 64.88814,67.591169 64.643065,67.28156 64.643065,66.925087 C 64.643065,66.501007 64.298116,66.156826 63.874804,66.156826 C 63.451492,66.156826 63.106543,66.501007 63.106543,66.925087 z" style="fill:url(#linearGradient8195)"/></g><g id="g7989" transform="matrix(0.993226,0,0,0.993226,-0.15183,20.257852)"><path id="path7991" d="M 62.348269,69.63411 C 62.329831,69.59493 62.257615,69.45127 62.257615,69.45127 C 62.127778,69.19159 61.861192,69.02642 61.570021,69.02642 L 57.728716,69.02642 C 57.304636,69.02642 56.960455,69.36983 56.960455,69.79468 L 56.960455,72.86772 C 56.960455,73.29257 57.304636,73.63598 57.728716,73.63598 L 65.411326,73.63598 C 65.836174,73.63598 66.179587,73.29257 66.179587,72.86772 L 66.179587,71.3312 C 66.179587,70.0605 65.145508,69.02642 63.874804,69.02642 C 63.283243,69.02642 62.756216,69.26612 62.348269,69.63411 z" style="fill:#000;fill-opacity:.65680476;stroke:none"/><path id="path7993" d="M 61.570021,69.02335 L 62.338282,70.55987 C 62.338282,69.71094 63.026644,69.02335 63.874804,69.02335 C 64.723732,69.02335 65.411326,69.71094 65.411326,70.55987 L 65.411326,72.09639 L 57.728716,72.09639 L 57.728716,69.02335 L 61.570021,69.02335 z" style="fill:url(#linearGradient8197)"/><path id="path7995" d="M 63.106543,70.55987 C 63.106543,70.91634 62.861468,71.22595 62.514982,71.30815 C 62.455826,71.32121 62.397438,71.32813 62.338282,71.32813 C 63.444578,71.32813 64.227436,71.32813 64.643065,71.32813 C 64.643065,70.944 64.643065,70.55987 64.643065,70.55987 C 64.643065,70.13579 64.298116,69.79161 63.874804,69.79161 C 63.451492,69.79161 63.106543,70.13579 63.106543,70.55987 z M 58.496977,69.79161 C 58.496977,70.3678 58.496977,70.75193 58.496977,71.32813 C 59.188412,71.32813 60.494456,71.32813 62.338282,71.32813 C 62.052489,71.32813 61.783598,71.16756 61.651457,70.90328 C 61.651457,70.90328 61.318031,70.23643 61.095236,69.79161 C 60.5321,69.79161 59.328235,69.79161 58.496977,69.79161 z" style="fill:url(#linearGradient8199)"/></g><g id="g7997" transform="matrix(0.993226,0,0,0.993226,-0.15183,20.257852)"><path id="path7999" d="M 66.179587,72.09946 C 65.888416,72.09946 65.622598,72.26464 65.491993,72.52431 C 65.491993,72.52431 65.419777,72.66874 65.401339,72.70716 C 64.992624,72.33916 64.465597,72.09946 63.874804,72.09946 C 62.6041,72.09946 61.570021,73.13354 61.570021,74.40425 L 61.570021,75.94077 C 61.570021,76.36562 61.914202,76.70903 62.338282,76.70903 L 70.020892,76.70903 C 70.44574,76.70903 70.789153,76.36562 70.789153,75.94077 L 70.789153,72.86772 C 70.789153,72.44287 70.44574,72.09946 70.020892,72.09946 L 66.179587,72.09946 z" style="fill:#000;fill-opacity:.65680476;stroke:none"/><path id="path8001" d="M 66.179587,72.09639 L 65.411326,73.63291 C 65.411326,72.78398 64.722964,72.09639 63.874804,72.09639 C 63.025876,72.09639 62.338282,72.78398 62.338282,73.63291 L 62.338282,75.16943 L 70.020892,75.16943 L 70.020892,72.09639 L 66.179587,72.09639 z" style="fill:url(#linearGradient8201)"/><path id="path8003" d="M 66.654372,72.86465 C 66.431577,73.30947 66.098151,73.97632 66.098151,73.97632 C 65.96601,74.24061 65.697887,74.40117 65.411326,74.40117 C 67.254384,74.40117 68.561196,74.40117 69.251863,74.40117 C 69.251863,73.82498 69.251863,73.44085 69.251863,72.86465 C 68.421373,72.86465 67.217508,72.86465 66.654372,72.86465 z M 63.106543,73.63291 C 63.106543,73.63291 63.106543,74.01704 63.106543,74.40117 C 63.521404,74.40117 64.30503,74.40117 65.410558,74.40117 C 65.352938,74.40117 65.293782,74.39426 65.234626,74.3812 C 64.88814,74.29899 64.643065,73.98938 64.643065,73.63291 C 64.643065,73.20883 64.298116,72.86465 63.874804,72.86465 C 63.451492,72.86465 63.106543,73.20883 63.106543,73.63291 z" style="fill:url(#linearGradient8203)"/></g><g id="g8005" transform="matrix(0.993226,0,0,0.993226,-0.15183,20.257852)"><path id="path8007" d="M 62.348269,75.7802 C 62.329831,75.74102 62.257615,75.59735 62.257615,75.59735 C 62.127778,75.33768 61.861192,75.17251 61.570021,75.17251 L 57.728716,75.17251 C 57.304636,75.17251 56.960455,75.51592 56.960455,75.94077 L 56.960455,79.01381 C 56.960455,79.43866 57.304636,79.78207 57.728716,79.78207 L 65.411326,79.78207 C 65.836174,79.78207 66.179587,79.43866 66.179587,79.01381 L 66.179587,77.47729 C 66.179587,76.20659 65.145508,75.17251 63.874804,75.17251 C 63.283243,75.17251 62.756216,75.4122 62.348269,75.7802 z" style="fill:#000;fill-opacity:.65680476;stroke:none"/><path id="path8009" d="M 61.570021,75.16943 L 62.338282,76.70596 C 62.338282,75.85703 63.026644,75.16943 63.874804,75.16943 C 64.723732,75.16943 65.411326,75.85703 65.411326,76.70596 L 65.411326,78.24248 L 57.728716,78.24248 L 57.728716,75.16943 L 61.570021,75.16943 z" style="fill:url(#linearGradient8205)"/><path id="path8011" d="M 63.106543,76.70596 C 63.106543,77.06243 62.861468,77.37204 62.514982,77.45424 C 62.455826,77.4673 62.397438,77.47422 62.338282,77.47422 C 63.444578,77.47422 64.227436,77.47422 64.643065,77.47422 C 64.643065,77.09009 64.643065,76.70596 64.643065,76.70596 C 64.643065,76.28187 64.298116,75.93769 63.874804,75.93769 C 63.451492,75.93769 63.106543,76.28187 63.106543,76.70596 z M 58.496977,75.93769 C 58.496977,76.51389 58.496977,76.89802 58.496977,77.47422 C 59.188412,77.47422 60.494456,77.47422 62.338282,77.47422 C 62.052489,77.47422 61.783598,77.31365 61.651457,77.04937 C 61.651457,77.04937 61.318031,76.38252 61.095236,75.93769 C 60.5321,75.93769 59.328235,75.93769 58.496977,75.93769 z" style="fill:url(#linearGradient8207)"/></g><g id="g8013" transform="matrix(0.993226,0,0,0.993226,-0.15183,20.257852)"><path id="path8015" d="M 66.179587,78.24555 C 65.888416,78.24555 65.622598,78.41073 65.491993,78.6704 C 65.491993,78.6704 65.419777,78.81483 65.401339,78.85324 C 64.992624,78.48525 64.465597,78.24555 63.874804,78.24555 C 62.6041,78.24555 61.570021,79.27963 61.570021,80.55033 L 61.570021,82.08686 C 61.570021,82.5117 61.914202,82.85512 62.338282,82.85512 L 70.020892,82.85512 C 70.44574,82.85512 70.789153,82.5117 70.789153,82.08686 L 70.789153,79.01381 C 70.789153,78.58896 70.44574,78.24555 70.020892,78.24555 L 66.179587,78.24555 z" style="fill:#000;fill-opacity:.65680476;stroke:none"/><path id="path8017" d="M 66.179587,78.24248 L 65.411326,79.779 C 65.411326,78.93007 64.722964,78.24248 63.874804,78.24248 C 63.025876,78.24248 62.338282,78.93007 62.338282,79.779 L 62.338282,81.31552 L 70.020892,81.31552 L 70.020892,78.24248 L 66.179587,78.24248 z" style="fill:url(#linearGradient8209)"/><path id="path8019" d="M 66.654372,79.01074 C 66.431577,79.45556 66.098151,80.12241 66.098151,80.12241 C 65.96601,80.38669 65.697887,80.54726 65.411326,80.54726 C 67.254384,80.54726 68.561196,80.54726 69.251863,80.54726 C 69.251863,79.97106 69.251863,79.58693 69.251863,79.01074 C 68.421373,79.01074 67.217508,79.01074 66.654372,79.01074 z M 63.106543,79.779 C 63.106543,79.779 63.106543,80.16313 63.106543,80.54726 C 63.521404,80.54726 64.30503,80.54726 65.410558,80.54726 C 65.352938,80.54726 65.293782,80.54035 65.234626,80.52729 C 64.88814,80.44508 64.643065,80.13547 64.643065,79.779 C 64.643065,79.35492 64.298116,79.01074 63.874804,79.01074 C 63.451492,79.01074 63.106543,79.35492 63.106543,79.779 z" style="fill:url(#linearGradient8211)"/></g><g id="g8021" transform="matrix(0.993226,0,0,0.993226,-0.15183,20.257852)"><path id="path8023" d="M 62.348269,81.92629 C 62.329831,81.88711 62.257615,81.74344 62.257615,81.74344 C 62.127778,81.48377 61.861192,81.31859 61.570021,81.31859 L 57.728716,81.31859 C 57.304636,81.31859 56.960455,81.66201 56.960455,82.08686 L 56.960455,85.1599 C 56.960455,85.58475 57.304636,85.92816 57.728716,85.92816 L 65.411326,85.92816 C 65.836174,85.92816 66.179587,85.58475 66.179587,85.1599 L 66.179587,83.62338 C 66.179587,82.35267 65.145508,81.31859 63.874804,81.31859 C 63.283243,81.31859 62.756216,81.55829 62.348269,81.92629 z" style="fill:#000;fill-opacity:.65680476;stroke:none;display:inline"/><path id="path8025" d="M 61.570021,81.31552 L 62.338282,82.85204 C 62.338282,82.00311 63.026644,81.31552 63.874804,81.31552 C 64.723732,81.31552 65.411326,82.00311 65.411326,82.85204 L 65.411326,84.38856 L 57.728716,84.38856 L 57.728716,81.31552 L 61.570021,81.31552 z" style="fill:url(#linearGradient8213);display:inline"/><path id="path8027" d="M 63.106543,82.85204 C 63.106543,83.20852 62.861468,83.51813 62.514982,83.60033 C 62.455826,83.61339 62.397438,83.6203 62.338282,83.6203 C 63.444578,83.6203 64.227436,83.6203 64.643065,83.6203 C 64.643065,83.23617 64.643065,82.85204 64.643065,82.85204 C 64.643065,82.42796 64.298116,82.08378 63.874804,82.08378 C 63.451492,82.08378 63.106543,82.42796 63.106543,82.85204 z M 58.496977,82.08378 C 58.496977,82.65998 58.496977,83.04411 58.496977,83.6203 C 59.188412,83.6203 60.494456,83.6203 62.338282,83.6203 C 62.052489,83.6203 61.783598,83.45974 61.651457,83.19546 C 61.651457,83.19546 61.318031,82.52861 61.095236,82.08378 C 60.5321,82.08378 59.328235,82.08378 58.496977,82.08378 z" style="fill:url(#linearGradient8215);display:inline"/></g><g id="g8029" transform="matrix(0.993226,0,0,0.993226,-0.15183,20.257852)"><path id="path8031" d="M 66.179587,84.39164 C 65.888416,84.39164 65.622598,84.55681 65.491993,84.81649 C 65.491993,84.81649 65.419777,84.96092 65.401339,84.99933 C 64.992624,84.63134 64.465597,84.39164 63.874804,84.39164 C 62.6041,84.39164 61.570021,85.42572 61.570021,86.69642 L 61.570021,88.23294 C 61.570021,88.65779 61.914202,89.0012 62.338282,89.0012 L 70.020892,89.0012 C 70.44574,89.0012 70.789153,88.65779 70.789153,88.23294 L 70.789153,85.1599 C 70.789153,84.73505 70.44574,84.39164 70.020892,84.39164 L 66.179587,84.39164 z" style="fill:#000;fill-opacity:.65680476;stroke:none;display:inline"/><path id="path8033" d="M 66.179587,84.38856 L 65.411326,85.92509 C 65.411326,85.07616 64.722964,84.38856 63.874804,84.38856 C 63.025876,84.38856 62.338282,85.07616 62.338282,85.92509 L 62.338282,87.46161 L 70.020892,87.46161 L 70.020892,84.38856 L 66.179587,84.38856 z" style="fill:url(#linearGradient8217);display:inline"/><path id="path8035" d="M 66.654372,85.15683 C 66.431577,85.60165 66.098151,86.2685 66.098151,86.2685 C 65.96601,86.53278 65.697887,86.69335 65.411326,86.69335 C 67.254384,86.69335 68.561196,86.69335 69.251863,86.69335 C 69.251863,86.11715 69.251863,85.73302 69.251863,85.15683 C 68.421373,85.15683 67.217508,85.15683 66.654372,85.15683 z M 63.106543,85.92509 C 63.106543,85.92509 63.106543,86.30922 63.106543,86.69335 C 63.521404,86.69335 64.30503,86.69335 65.410558,86.69335 C 65.352938,86.69335 65.293782,86.68643 65.234626,86.67337 C 64.88814,86.59117 64.643065,86.28156 64.643065,85.92509 C 64.643065,85.50101 64.298116,85.15683 63.874804,85.15683 C 63.451492,85.15683 63.106543,85.50101 63.106543,85.92509 z" style="fill:url(#linearGradient8219);display:inline"/></g><g id="g8037" transform="matrix(0.993226,0,0,0.993226,-0.15183,20.257852)"><path id="path8039" d="M 62.348269,87.92629 C 62.329831,87.88711 62.257615,87.74344 62.257615,87.74344 C 62.127778,87.48377 61.861192,87.31859 61.570021,87.31859 L 57.728716,87.31859 C 57.304636,87.31859 56.960455,87.66201 56.960455,88.08686 L 56.960455,91.1599 C 56.960455,91.58475 57.304636,91.92816 57.728716,91.92816 L 65.411326,91.92816 C 65.836174,91.92816 66.179587,91.58475 66.179587,91.1599 L 66.179587,89.62338 C 66.179587,88.35267 65.145508,87.31859 63.874804,87.31859 C 63.283243,87.31859 62.756216,87.55829 62.348269,87.92629 z" style="fill:#000;fill-opacity:.65680476;stroke:none;display:inline"/><path id="path8041" d="M 61.570021,87.31552 L 62.338282,88.85204 C 62.338282,88.00311 63.026644,87.31552 63.874804,87.31552 C 64.723732,87.31552 65.411326,88.00311 65.411326,88.85204 L 65.411326,90.38856 L 57.728716,90.38856 L 57.728716,87.31552 L 61.570021,87.31552 z" style="fill:url(#linearGradient8221);display:inline"/><path id="path8043" d="M 63.106543,88.85204 C 63.106543,89.20852 62.861468,89.51813 62.514982,89.60033 C 62.455826,89.61339 62.397438,89.6203 62.338282,89.6203 C 63.444578,89.6203 64.227436,89.6203 64.643065,89.6203 C 64.643065,89.23617 64.643065,88.85204 64.643065,88.85204 C 64.643065,88.42796 64.298116,88.08378 63.874804,88.08378 C 63.451492,88.08378 63.106543,88.42796 63.106543,88.85204 z M 58.496977,88.08378 C 58.496977,88.65998 58.496977,89.04411 58.496977,89.6203 C 59.188412,89.6203 60.494456,89.6203 62.338282,89.6203 C 62.052489,89.6203 61.783598,89.45974 61.651457,89.19546 C 61.651457,89.19546 61.318031,88.52861 61.095236,88.08378 C 60.5321,88.08378 59.328235,88.08378 58.496977,88.08378 z" style="fill:url(#linearGradient8223);display:inline"/></g><g id="g8045" transform="matrix(0.993226,0,0,0.993226,-0.15183,20.257852)"><path id="path8047" d="M 66.179587,90.39164 C 65.888416,90.39164 65.622598,90.55681 65.491993,90.81649 C 65.491993,90.81649 65.419777,90.96092 65.401339,90.99933 C 64.992624,90.63134 64.465597,90.39164 63.874804,90.39164 C 62.6041,90.39164 61.570021,91.42572 61.570021,92.69642 L 61.570021,94.23294 C 61.570021,94.65779 61.914202,95.0012 62.338282,95.0012 L 70.020892,95.0012 C 70.44574,95.0012 70.789153,94.65779 70.789153,94.23294 L 70.789153,91.1599 C 70.789153,90.73505 70.44574,90.39164 70.020892,90.39164 L 66.179587,90.39164 z" style="fill:#000;fill-opacity:.65680476;stroke:none;display:inline"/><path id="path8049" d="M 66.179587,90.38856 L 65.411326,91.92509 C 65.411326,91.07616 64.722964,90.38856 63.874804,90.38856 C 63.025876,90.38856 62.338282,91.07616 62.338282,91.92509 L 62.338282,93.46161 L 70.020892,93.46161 L 70.020892,90.38856 L 66.179587,90.38856 z" style="fill:url(#linearGradient8225);display:inline"/><path id="path8051" d="M 66.654372,91.15683 C 66.431577,91.60165 66.098151,92.2685 66.098151,92.2685 C 65.96601,92.53278 65.697887,92.69335 65.411326,92.69335 C 67.254384,92.69335 68.561196,92.69335 69.251863,92.69335 C 69.251863,92.11715 69.251863,91.73302 69.251863,91.15683 C 68.421373,91.15683 67.217508,91.15683 66.654372,91.15683 z M 63.106543,91.92509 C 63.106543,91.92509 63.106543,92.30922 63.106543,92.69335 C 63.521404,92.69335 64.30503,92.69335 65.410558,92.69335 C 65.352938,92.69335 65.293782,92.68643 65.234626,92.67337 C 64.88814,92.59117 64.643065,92.28156 64.643065,91.92509 C 64.643065,91.50101 64.298116,91.15683 63.874804,91.15683 C 63.451492,91.15683 63.106543,91.50101 63.106543,91.92509 z" style="fill:url(#linearGradient8227);display:inline"/></g><g id="g8053" transform="matrix(0.993226,0,0,0.993226,-0.15183,20.257852)"><path id="path8055" d="M 62.348269,93.92629 C 62.329831,93.88711 62.257615,93.74344 62.257615,93.74344 C 62.127778,93.48377 61.861192,93.31859 61.570021,93.31859 L 57.728716,93.31859 C 57.304636,93.31859 56.960455,93.66201 56.960455,94.08686 L 56.960455,97.1599 C 56.960455,97.58475 57.304636,97.92816 57.728716,97.92816 L 65.411326,97.92816 C 65.836174,97.92816 66.179587,97.58475 66.179587,97.1599 L 66.179587,95.62338 C 66.179587,94.35267 65.145508,93.31859 63.874804,93.31859 C 63.283243,93.31859 62.756216,93.55829 62.348269,93.92629 z" style="fill:#000;fill-opacity:.65680476;stroke:none;display:inline"/><path id="path8057" d="M 61.570021,93.31552 L 62.338282,94.85204 C 62.338282,94.00311 63.026644,93.31552 63.874804,93.31552 C 64.723732,93.31552 65.411326,94.00311 65.411326,94.85204 L 65.411326,96.38856 L 57.728716,96.38856 L 57.728716,93.31552 L 61.570021,93.31552 z" style="fill:url(#linearGradient8229);display:inline"/><path id="path8059" d="M 63.106543,94.85204 C 63.106543,95.20852 62.861468,95.51813 62.514982,95.60033 C 62.455826,95.61339 62.397438,95.6203 62.338282,95.6203 C 63.444578,95.6203 64.227436,95.6203 64.643065,95.6203 C 64.643065,95.23617 64.643065,94.85204 64.643065,94.85204 C 64.643065,94.42796 64.298116,94.08378 63.874804,94.08378 C 63.451492,94.08378 63.106543,94.42796 63.106543,94.85204 z M 58.496977,94.08378 C 58.496977,94.65998 58.496977,95.04411 58.496977,95.6203 C 59.188412,95.6203 60.494456,95.6203 62.338282,95.6203 C 62.052489,95.6203 61.783598,95.45974 61.651457,95.19546 C 61.651457,95.19546 61.318031,94.52861 61.095236,94.08378 C 60.5321,94.08378 59.328235,94.08378 58.496977,94.08378 z" style="fill:url(#linearGradient8231);display:inline"/></g><path id="path8061" d="M 107.03125,49.59375 C 104.81868,49.614953 101.93733,49.735658 98.6875,50.125 L 112,63.4375 L 112,49.75 C 112,49.75 110.14658,49.563895 107.03125,49.59375 z" style="opacity:.1;fill:#000;fill-opacity:1;fill-rule:evenodd;stroke:none;stroke-width:4;stroke-linecap:round;stroke-linejoin:round;stroke-miterlimit:4;stroke-opacity:1"/><path id="path8063" d="M 16,80.5625 L 16,103.1875 L 32.8125,120 L 55.4375,120 L 16,80.5625 z" style="opacity:.1;fill:#000;fill-opacity:1;fill-rule:evenodd;stroke:none;stroke-width:4;stroke-linecap:round;stroke-linejoin:round;stroke-miterlimit:4;stroke-opacity:1"/><path id="path8065" d="M 20.15625,49.375 C 17.52591,49.455139 16,49.75 16,49.75 L 16,57.9375 L 77.90625,119.84375 L 77.9375,119.84375 C 78.17594,119.74219 78.40625,119.59375 78.59375,119.40625 C 78.59375,119.40625 78.85859,119.01914 79,118.8125 C 79.08955,118.68027 79.26027,118.42314 79.375,118.25 C 79.57047,117.9522 79.81163,117.58548 80.0625,117.1875 C 80.10708,117.11705 80.17271,117.01083 80.21875,116.9375 C 80.61846,116.29684 81.08169,115.52028 81.5625,114.6875 C 81.84462,114.20068 82.1723,113.63477 82.46875,113.09375 C 82.52778,112.98533 82.5969,112.86036 82.65625,112.75 C 83.83021,110.56719 85.04776,108.01217 86.03125,105.34375 L 30.9375,50.21875 C 30.92693,50.216854 30.91681,50.220638 30.90625,50.21875 C 26.51577,49.433564 22.78028,49.295053 20.15625,49.375 z" style="opacity:.1;fill:#000;fill-opacity:1;fill-rule:evenodd;stroke:none;stroke-width:4;stroke-linecap:round;stroke-linejoin:round;stroke-miterlimit:4;stroke-opacity:1"/><path style="opacity:.5;fill:#fff;fill-opacity:1" id="path8358" d="M 20.15625,49.375 C 17.52591,49.455139 16,49.75 16,49.75 L 16,53.75 C 16,53.75 40.46834,49.312093 62,70.84375 C 82.12374,50.720009 112,53.750001 112,53.75 L 112,49.75 C 112,49.750001 82.12374,46.720009 62,66.84375 C 45.85126,50.695008 28.04727,49.134583 20.15625,49.375 z"/><path id="path8067" d="M 20.15625,47.375 C 17.52591,47.455139 16,47.75 16,47.75 L 16,51.75 C 16,51.75 40.46834,47.312093 62,68.84375 C 82.12374,48.720009 112,51.750001 112,51.75 L 112,47.75 C 112,47.750001 82.12374,44.720009 62,64.84375 C 45.85126,48.695008 28.04727,47.134583 20.15625,47.375 z" style="opacity:1;fill:url(#linearGradient8233);fill-opacity:1"/><g id="g8069" transform="matrix(0.7942217,0,0,0.9648535,8.53772,34.056506)" style="display:inline"><g id="g8071"><path style="opacity:1;fill:#000;fill-opacity:.65490196" id="path8073" d="M 61.342616,30.297476 C 60.814052,30.561757 60.450665,31.011958 60.250149,31.52362 C 60.216345,31.498268 60.087277,31.400698 60.087277,31.400698 C 59.854494,31.226303 59.543348,31.199414 59.282908,31.330018 L 55.848781,33.050923 C 55.666703,33.14081 55.528416,33.301376 55.463883,33.494978 C 55.400117,33.68858 55.415482,33.898315 55.506137,34.081929 L 56.882861,36.829231 C 57.073389,37.207215 57.534346,37.361635 57.913867,37.171107 L 64.78212,33.729297 C 65.160873,33.538769 65.314525,33.077812 65.123996,32.698291 L 64.435635,31.323872 C 64.159829,30.773029 63.685812,30.363546 63.101933,30.168408 C 62.518055,29.974806 61.892691,30.020133 61.342616,30.297476 z"/><path style="fill:url(#linearGradient8235)" id="path8075" d="M 59.626321,31.244741 L 61.002276,32.274211 C 60.621987,31.515169 60.929291,30.593256 61.687565,30.212199 C 62.446607,29.831141 63.369288,30.136909 63.749577,30.897487 L 64.437939,32.271138 L 57.569686,35.712947 L 56.192194,32.965646 L 59.626321,31.244741 z"/><path style="fill:url(#linearGradient8237)" id="path8077" d="M 62.031746,30.898256 L 62.031746,30.898256 C 61.652993,31.088016 61.499341,31.551278 61.688333,31.929262 C 61.848131,32.24809 61.767464,32.634526 61.494731,32.863467 C 61.221231,33.091641 60.826344,33.102396 60.54132,32.88882 C 60.54132,32.88882 59.944381,32.441692 59.545653,32.143607 C 59.042442,32.395596 57.966109,32.934916 57.2232,33.30829 C 57.481336,33.823025 57.653426,34.166438 57.911562,34.681941 C 58.901082,34.185644 62.417413,32.424022 63.406165,31.927725 C 63.234074,31.585081 63.061984,31.2409 63.061984,31.2409 C 62.969793,31.056517 62.812299,30.919767 62.617929,30.855233 C 62.423559,30.791467 62.21536,30.806064 62.031746,30.898256 z"/></g><g id="g8079"><path id="path8081" d="M 57.588124,25.064082 C 57.120253,25.43131 56.885934,25.955264 56.793742,26.499961 C 56.742269,26.475377 56.577861,26.398551 56.577861,26.398551 C 56.314347,26.274093 56.00397,26.309433 55.775028,26.489206 L 52.755763,28.861596 C 52.422337,29.124341 52.364718,29.607577 52.626695,29.940234 L 54.525836,32.357183 C 54.651831,32.516213 54.836213,32.619929 55.038266,32.645281 C 55.241087,32.669097 55.444676,32.612246 55.604474,32.486251 L 61.643774,27.736862 C 61.803572,27.610867 61.907288,27.426484 61.931872,27.223663 C 61.955688,27.020842 61.898837,26.818021 61.772842,26.657455 L 60.823271,25.450517 C 60.442214,24.966512 59.89598,24.659208 59.285213,24.586223 C 58.675214,24.514007 58.072129,24.683024 57.588124,25.064082 z" style="fill:#000;fill-opacity:.65680476;stroke:none"/><path style="fill:url(#linearGradient8239)" id="path8083" d="M 56.250582,26.320957 L 57.804774,27.053878 C 57.280052,26.385491 57.395291,25.420555 58.06291,24.895832 C 58.72976,24.37111 59.695464,24.486349 60.220955,25.154736 L 61.170525,26.361674 L 55.131226,31.111064 L 53.232084,28.694115 L 56.250582,26.320957 z"/><path style="fill:url(#linearGradient8241)" id="path8085" d="M 58.537695,25.499686 C 58.537695,25.500454 58.537695,25.500454 58.537695,25.499686 C 58.20427,25.761663 58.14665,26.246435 58.408627,26.579861 C 58.62835,26.860276 58.626813,27.254394 58.404786,27.532504 C 58.182758,27.811383 57.798628,27.900501 57.476726,27.748386 C 57.476726,27.748386 56.802193,27.430326 56.351992,27.218285 C 55.909474,27.566308 54.963745,28.309984 54.309955,28.823183 C 54.665659,29.276457 54.903052,29.578383 55.259525,30.031657 C 56.129197,29.347137 59.221447,26.916359 60.091119,26.232607 C 59.853726,25.931448 59.616333,25.629522 59.616333,25.629522 C 59.488802,25.467419 59.306724,25.36524 59.103135,25.340656 C 58.900314,25.31684 58.69903,25.372923 58.537695,25.499686 z"/></g><g id="g8087"><path id="path8089" d="M 53.071518,20.089592 C 52.463055,20.179478 51.925272,20.50138 51.558044,20.995371 C 51.252276,21.407159 51.104001,21.888859 51.104001,22.366717 C 51.104001,22.442775 51.147792,22.51115 51.154707,22.587208 C 51.10477,22.577989 50.932679,22.548027 50.932679,22.548027 C 50.646118,22.497322 50.356483,22.612561 50.182088,22.84688 L 47.891902,25.929144 C 47.639144,26.269483 47.709824,26.750415 48.050164,27.003941 L 50.51705,28.837011 C 50.68069,28.958397 50.885815,29.011407 51.087868,28.981444 C 51.289152,28.951482 51.47123,28.843157 51.592615,28.679518 L 56.173756,22.510382 C 56.295141,22.346742 56.346614,22.141617 56.317421,21.939564 C 56.287458,21.73828 56.179134,21.556202 56.014726,21.434817 L 54.781667,20.519818 C 54.287675,20.152589 53.680749,19.999705 53.071518,20.089592 z" style="fill:#000;fill-opacity:.65680476;stroke:none"/><path style="fill:url(#linearGradient8243)" id="path8091" d="M 50.79977,22.532662 L 52.491481,22.831515 C 51.810033,22.323695 51.668673,21.3626 52.174957,20.681921 C 52.681241,20.000473 53.643104,19.858345 54.324552,20.364629 L 55.55761,21.279628 L 50.97647,27.447996 L 48.509584,25.614925 L 50.79977,22.532662 z"/><path style="fill:url(#linearGradient8245)" id="path8093" d="M 53.29585,20.837878 C 53.093029,20.86784 52.914024,20.974628 52.791103,21.139804 L 52.791103,21.139804 C 52.538345,21.479376 52.609793,21.961844 52.950133,22.21537 C 53.235926,22.428178 53.337336,22.808467 53.196744,23.135747 C 53.055384,23.462257 52.70813,23.649713 52.357803,23.587484 C 52.357803,23.587484 51.622578,23.457648 51.133195,23.370834 C 50.797465,23.822572 50.079909,24.788276 49.584381,25.455126 C 50.046874,25.798539 50.354947,26.028249 50.81744,26.371662 C 51.477376,25.483552 53.822109,22.325999 54.482045,21.43789 C 54.173972,21.209716 53.866668,20.980774 53.866668,20.980774 C 53.701492,20.859389 53.498671,20.807916 53.29585,20.837878 z"/></g><g id="g8095"><path id="path8097" d="M 46.422987,16.637027 C 45.844487,16.845994 45.382762,17.269306 45.12309,17.826295 C 44.975583,18.141282 44.904903,18.473171 44.904903,18.799681 C 44.904903,19.027087 44.942548,19.251419 45.00785,19.4673 C 44.970974,19.468069 44.819626,19.47191 44.819626,19.47191 C 44.529224,19.479592 44.267247,19.650146 44.144325,19.91366 L 42.514075,23.390809 C 42.464906,23.496061 42.44109,23.607459 42.44109,23.716552 C 42.44109,24.00465 42.60473,24.281992 42.883609,24.412596 L 45.66625,25.717103 C 45.850633,25.803917 46.061904,25.813136 46.25397,25.743993 C 46.446035,25.674849 46.601992,25.531953 46.688037,25.34757 L 49.947769,18.38943 C 50.033814,18.205047 50.043801,17.993007 49.974658,17.80171 C 49.904746,17.610413 49.762618,17.453688 49.577467,17.367643 L 48.186914,16.716926 C 47.629925,16.455717 47.003024,16.427291 46.422987,16.637027 z" style="fill:#000;fill-opacity:.65680476;stroke:none"/><path style="fill:url(#linearGradient8247)" id="path8099" d="M 44.840369,19.468837 L 46.558201,19.424278 C 45.789172,19.063195 45.458051,18.148964 45.819134,17.380703 C 46.17868,16.612442 47.092911,16.280554 47.862708,16.642405 L 49.253261,17.293122 L 45.993529,24.251261 L 43.210888,22.946754 L 44.840369,19.468837 z"/><path style="fill:url(#linearGradient8249)" id="path8101" d="M 46.946941,17.310023 C 46.754876,17.379935 46.601224,17.519759 46.515178,17.70491 C 46.515178,17.705678 46.515178,17.706446 46.51441,17.706446 C 46.465241,17.811698 46.442194,17.921559 46.442194,18.030652 C 46.442194,18.319518 46.605833,18.597629 46.88548,18.729001 C 47.158213,18.857301 47.326462,19.130802 47.326462,19.423509 C 47.326462,19.475751 47.321084,19.528761 47.310329,19.581771 C 47.237344,19.930562 46.934649,20.182551 46.578176,20.19177 C 46.578176,20.19177 45.831426,20.210977 45.334361,20.224037 C 45.095432,20.733394 44.584539,21.823557 44.231907,22.575684 C 44.753556,22.819991 45.10081,22.983631 45.623227,23.227938 C 46.092635,22.226125 47.761298,18.664468 48.230705,17.661887 C 47.883451,17.499784 47.536197,17.336912 47.536197,17.336912 C 47.348742,17.249331 47.139775,17.240112 46.946941,17.310023 z"/></g></g><g style="display:inline" id="g8103" transform="matrix(-0.7942217,0,0,0.9648535,112.65125,36.056506)"><g id="g8105"><path id="path8107" d="M 61.342616,30.297476 C 60.814052,30.561757 60.450665,31.011958 60.250149,31.52362 C 60.216345,31.498268 60.087277,31.400698 60.087277,31.400698 C 59.854494,31.226303 59.543348,31.199414 59.282908,31.330018 L 55.848781,33.050923 C 55.666703,33.14081 55.528416,33.301376 55.463883,33.494978 C 55.400117,33.68858 55.415482,33.898315 55.506137,34.081929 L 56.882861,36.829231 C 57.073389,37.207215 57.534346,37.361635 57.913867,37.171107 L 64.78212,33.729297 C 65.160873,33.538769 65.314525,33.077812 65.123996,32.698291 L 64.435635,31.323872 C 64.159829,30.773029 63.685812,30.363546 63.101933,30.168408 C 62.518055,29.974806 61.892691,30.020133 61.342616,30.297476 z" style="opacity:1;fill:#000;fill-opacity:.65490196"/><path id="path8109" d="M 59.626321,31.244741 L 61.002276,32.274211 C 60.621987,31.515169 60.929291,30.593256 61.687565,30.212199 C 62.446607,29.831141 63.369288,30.136909 63.749577,30.897487 L 64.437939,32.271138 L 57.569686,35.712947 L 56.192194,32.965646 L 59.626321,31.244741 z" style="fill:url(#linearGradient8251)"/><path id="path8111" d="M 62.031746,30.898256 L 62.031746,30.898256 C 61.652993,31.088016 61.499341,31.551278 61.688333,31.929262 C 61.848131,32.24809 61.767464,32.634526 61.494731,32.863467 C 61.221231,33.091641 60.826344,33.102396 60.54132,32.88882 C 60.54132,32.88882 59.944381,32.441692 59.545653,32.143607 C 59.042442,32.395596 57.966109,32.934916 57.2232,33.30829 C 57.481336,33.823025 57.653426,34.166438 57.911562,34.681941 C 58.901082,34.185644 62.417413,32.424022 63.406165,31.927725 C 63.234074,31.585081 63.061984,31.2409 63.061984,31.2409 C 62.969793,31.056517 62.812299,30.919767 62.617929,30.855233 C 62.423559,30.791467 62.21536,30.806064 62.031746,30.898256 z" style="fill:url(#linearGradient8253)"/></g><g id="g8113"><path style="fill:#000;fill-opacity:.65680476;stroke:none" id="path8115" d="M 57.588124,25.064082 C 57.120253,25.43131 56.885934,25.955264 56.793742,26.499961 C 56.742269,26.475377 56.577861,26.398551 56.577861,26.398551 C 56.314347,26.274093 56.00397,26.309433 55.775028,26.489206 L 52.755763,28.861596 C 52.422337,29.124341 52.364718,29.607577 52.626695,29.940234 L 54.525836,32.357183 C 54.651831,32.516213 54.836213,32.619929 55.038266,32.645281 C 55.241087,32.669097 55.444676,32.612246 55.604474,32.486251 L 61.643774,27.736862 C 61.803572,27.610867 61.907288,27.426484 61.931872,27.223663 C 61.955688,27.020842 61.898837,26.818021 61.772842,26.657455 L 60.823271,25.450517 C 60.442214,24.966512 59.89598,24.659208 59.285213,24.586223 C 58.675214,24.514007 58.072129,24.683024 57.588124,25.064082 z"/><path id="path8117" d="M 56.250582,26.320957 L 57.804774,27.053878 C 57.280052,26.385491 57.395291,25.420555 58.06291,24.895832 C 58.72976,24.37111 59.695464,24.486349 60.220955,25.154736 L 61.170525,26.361674 L 55.131226,31.111064 L 53.232084,28.694115 L 56.250582,26.320957 z" style="fill:url(#linearGradient8255)"/><path id="path8119" d="M 58.537695,25.499686 C 58.537695,25.500454 58.537695,25.500454 58.537695,25.499686 C 58.20427,25.761663 58.14665,26.246435 58.408627,26.579861 C 58.62835,26.860276 58.626813,27.254394 58.404786,27.532504 C 58.182758,27.811383 57.798628,27.900501 57.476726,27.748386 C 57.476726,27.748386 56.802193,27.430326 56.351992,27.218285 C 55.909474,27.566308 54.963745,28.309984 54.309955,28.823183 C 54.665659,29.276457 54.903052,29.578383 55.259525,30.031657 C 56.129197,29.347137 59.221447,26.916359 60.091119,26.232607 C 59.853726,25.931448 59.616333,25.629522 59.616333,25.629522 C 59.488802,25.467419 59.306724,25.36524 59.103135,25.340656 C 58.900314,25.31684 58.69903,25.372923 58.537695,25.499686 z" style="fill:url(#linearGradient8257)"/></g><g id="g8121"><path style="fill:#000;fill-opacity:.65680476;stroke:none" id="path8123" d="M 53.071518,20.089592 C 52.463055,20.179478 51.925272,20.50138 51.558044,20.995371 C 51.252276,21.407159 51.104001,21.888859 51.104001,22.366717 C 51.104001,22.442775 51.147792,22.51115 51.154707,22.587208 C 51.10477,22.577989 50.932679,22.548027 50.932679,22.548027 C 50.646118,22.497322 50.356483,22.612561 50.182088,22.84688 L 47.891902,25.929144 C 47.639144,26.269483 47.709824,26.750415 48.050164,27.003941 L 50.51705,28.837011 C 50.68069,28.958397 50.885815,29.011407 51.087868,28.981444 C 51.289152,28.951482 51.47123,28.843157 51.592615,28.679518 L 56.173756,22.510382 C 56.295141,22.346742 56.346614,22.141617 56.317421,21.939564 C 56.287458,21.73828 56.179134,21.556202 56.014726,21.434817 L 54.781667,20.519818 C 54.287675,20.152589 53.680749,19.999705 53.071518,20.089592 z"/><path id="path8125" d="M 50.79977,22.532662 L 52.491481,22.831515 C 51.810033,22.323695 51.668673,21.3626 52.174957,20.681921 C 52.681241,20.000473 53.643104,19.858345 54.324552,20.364629 L 55.55761,21.279628 L 50.97647,27.447996 L 48.509584,25.614925 L 50.79977,22.532662 z" style="fill:url(#linearGradient8259)"/><path id="path8127" d="M 53.29585,20.837878 C 53.093029,20.86784 52.914024,20.974628 52.791103,21.139804 L 52.791103,21.139804 C 52.538345,21.479376 52.609793,21.961844 52.950133,22.21537 C 53.235926,22.428178 53.337336,22.808467 53.196744,23.135747 C 53.055384,23.462257 52.70813,23.649713 52.357803,23.587484 C 52.357803,23.587484 51.622578,23.457648 51.133195,23.370834 C 50.797465,23.822572 50.079909,24.788276 49.584381,25.455126 C 50.046874,25.798539 50.354947,26.028249 50.81744,26.371662 C 51.477376,25.483552 53.822109,22.325999 54.482045,21.43789 C 54.173972,21.209716 53.866668,20.980774 53.866668,20.980774 C 53.701492,20.859389 53.498671,20.807916 53.29585,20.837878 z" style="fill:url(#linearGradient8261)"/></g><g id="g8129"><path style="fill:#4a4a4a;fill-opacity:1;stroke:none" id="path8131" d="M 46.422987,16.637027 C 45.844487,16.845994 45.382762,17.269306 45.12309,17.826295 C 44.975583,18.141282 44.904903,18.473171 44.904903,18.799681 C 44.904903,19.027087 44.942548,19.251419 45.00785,19.4673 C 44.970974,19.468069 44.819626,19.47191 44.819626,19.47191 C 44.529224,19.479592 44.267247,19.650146 44.144325,19.91366 L 42.514075,23.390809 C 42.464906,23.496061 42.44109,23.607459 42.44109,23.716552 C 42.44109,24.00465 42.60473,24.281992 42.883609,24.412596 L 45.66625,25.717103 C 45.850633,25.803917 46.061904,25.813136 46.25397,25.743993 C 46.446035,25.674849 46.601992,25.531953 46.688037,25.34757 L 49.947769,18.38943 C 50.033814,18.205047 50.043801,17.993007 49.974658,17.80171 C 49.904746,17.610413 49.762618,17.453688 49.577467,17.367643 L 48.186914,16.716926 C 47.629925,16.455717 47.003024,16.427291 46.422987,16.637027 z"/><path id="path8133" d="M 44.840369,19.468837 L 46.558201,19.424278 C 45.789172,19.063195 45.458051,18.148964 45.819134,17.380703 C 46.17868,16.612442 47.092911,16.280554 47.862708,16.642405 L 49.253261,17.293122 L 45.993529,24.251261 L 43.210888,22.946754 L 44.840369,19.468837 z" style="fill:url(#linearGradient8263)"/><path id="path8135" d="M 46.946941,17.310023 C 46.754876,17.379935 46.601224,17.519759 46.515178,17.70491 C 46.515178,17.705678 46.515178,17.706446 46.51441,17.706446 C 46.465241,17.811698 46.442194,17.921559 46.442194,18.030652 C 46.442194,18.319518 46.605833,18.597629 46.88548,18.729001 C 47.158213,18.857301 47.326462,19.130802 47.326462,19.423509 C 47.326462,19.475751 47.321084,19.528761 47.310329,19.581771 C 47.237344,19.930562 46.934649,20.182551 46.578176,20.19177 C 46.578176,20.19177 45.831426,20.210977 45.334361,20.224037 C 45.095432,20.733394 44.584539,21.823557 44.231907,22.575684 C 44.753556,22.819991 45.10081,22.983631 45.623227,23.227938 C 46.092635,22.226125 47.761298,18.664468 48.230705,17.661887 C 47.883451,17.499784 47.536197,17.336912 47.536197,17.336912 C 47.348742,17.249331 47.139775,17.240112 46.946941,17.310023 z" style="fill:url(#linearGradient8265)"/></g><g id="g8137"><path style="fill:#4a4a4a;fill-opacity:1;stroke:none" id="path8139" d="M 40.094821,14.81087 C 39.56318,15.12048 39.1829,15.618313 39.02617,16.213715 C 38.97393,16.41039 38.94858,16.609369 38.94858,16.807581 C 38.94858,17.168663 39.06151,17.516686 39.22976,17.843965 C 39.1852,17.853184 39.02233,17.886987 39.02233,17.886987 C 38.7373,17.946143 38.51067,18.161257 38.43615,18.44244 L 37.45431,22.154677 C 37.43741,22.220748 37.42819,22.286818 37.42819,22.351352 C 37.42819,22.691692 37.65559,23.002837 38.00054,23.093492 L 40.971407,23.879423 C 41.168082,23.931665 41.377817,23.902471 41.554517,23.800292 C 41.730449,23.698114 41.858749,23.529864 41.91099,23.332421 L 43.874665,15.904106 C 43.926907,15.707431 43.898481,15.497696 43.795535,15.321764 C 43.692588,15.145832 43.524338,15.017533 43.327664,14.965291 L 41.843383,14.573478 C 41.248749,14.416752 40.626458,14.500493 40.094821,14.81087 z"/><path id="path8141" d="M 39.17905,17.867781 L 40.860777,17.516686 C 40.039506,17.299268 39.55089,16.45879 39.76831,15.638287 C 39.98419,14.817785 40.824669,14.328402 41.646708,14.546589 L 43.131757,14.937633 L 41.168082,22.365949 L 38.19722,21.580018 L 39.17905,17.867781 z" style="fill:url(#linearGradient8267)"/><path id="path8143" d="M 40.867692,15.367091 C 40.690992,15.470038 40.564229,15.635983 40.511987,15.834194 L 40.511987,15.834962 C 40.494317,15.900264 40.485866,15.967103 40.485866,16.033174 C 40.485866,16.166851 40.521206,16.298992 40.59035,16.417304 C 40.693297,16.594772 40.860009,16.721535 41.058221,16.773777 C 41.395487,16.863664 41.629807,17.168663 41.629807,17.515917 C 41.629807,17.522832 41.629807,17.529746 41.629807,17.53666 C 41.620588,17.892365 41.36783,18.19506 41.019039,18.268045 C 41.019039,18.268045 40.288423,18.420161 39.80135,18.522339 C 39.65768,19.066268 39.34961,20.229415 39.13757,21.033016 C 39.69456,21.180522 40.065627,21.27886 40.622617,21.426366 C 40.905337,20.356178 41.910222,16.554055 42.192942,15.484635 C 41.82264,15.387066 41.452338,15.288729 41.452338,15.288729 C 41.251822,15.235719 41.04516,15.263376 40.867692,15.367091 z" style="fill:url(#linearGradient8269)"/></g></g><g id="g8145" transform="matrix(1.7389025,0,0,1.4755998,-47.048677,13.909947)"><path id="path8147" d="M 63.86789,28.512037 L 63.86789,28.512037 C 63.86789,28.512037 63.867121,28.512037 63.861744,28.512037 C 60.193297,28.512037 57.162508,31.701088 56.963528,35.772872 C 56.961223,35.810516 56.960455,35.847393 56.960455,35.885038 C 56.960455,36.680956 57.372243,37.424633 58.052922,37.846408 C 58.203501,37.939368 58.351776,38.125287 58.496977,38.315047 C 58.496977,38.871268 58.496977,54.632911 58.496977,54.632911 C 58.496977,55.903615 59.531056,56.937694 60.80176,56.937694 L 66.947848,56.937694 C 68.218552,56.937694 69.252631,55.903615 69.252631,54.632911 C 69.252631,54.632911 69.252631,38.844379 69.252631,38.281244 C 69.39015,38.106849 69.529205,37.933222 69.669797,37.846408 C 70.351244,37.425401 70.762264,36.681724 70.762264,35.885806 C 70.762264,35.84893 70.761496,35.811285 70.759959,35.774408 C 70.574808,31.989186 67.875907,28.881571 64.480962,28.54584 C 64.478657,28.54584 63.874804,28.512037 63.874804,28.512037 C 63.869426,28.512037 63.86789,28.511269 63.86789,28.512037 z M 64.643065,43.108996 C 64.643065,43.450104 64.643065,43.536149 64.643065,43.877257 C 64.066869,43.877257 63.682739,43.877257 63.106543,43.877257 C 63.106543,43.536149 63.106543,43.450104 63.106543,43.108996 C 63.682739,43.108996 64.066869,43.108996 64.643065,43.108996 z" style="fill:url(#linearGradient8271);filter:url(#filter8342)"/><path id="path8149" d="M 57.730253,35.810516 C 57.730253,35.810516 57.730253,35.810516 57.730253,35.810516 C 57.703363,36.369811 57.982242,36.898374 58.457027,37.192618 C 59.392001,37.77035 60.01967,39.222364 60.01967,40.804213 C 60.01967,41.651605 60.7088,42.340735 61.556192,42.340735 L 66.165758,42.340735 C 67.013918,42.340735 67.70228,41.651605 67.70228,40.804213 C 67.70228,39.221595 68.330718,37.77035 69.265691,37.192618 C 69.741245,36.898374 70.018587,36.369811 69.991698,35.811285 C 69.813462,32.148216 67.120707,29.280298 63.861744,29.280298 C 60.60278,29.280298 57.910026,32.148216 57.730253,35.810516 z" style="fill:url(#linearGradient8273)"/><path id="path8151" d="M 58.511574,35.0799 C 58.497745,35.358779 58.637569,35.623829 58.874961,35.770567 C 60.045791,36.495037 60.80176,38.16831 60.80176,40.035952 C 60.80176,40.4608 61.145941,40.804213 61.570021,40.804213 L 66.179587,40.804213 C 66.604435,40.804213 66.947848,40.4608 66.947848,40.035952 C 66.947848,38.16831 67.703817,36.495037 68.875415,35.770567 C 69.113576,35.623829 69.251863,35.358779 69.238802,35.0799 C 69.079004,31.827083 66.723516,29.280298 63.874804,29.280298 C 61.026092,29.280298 58.670604,31.827083 58.511574,35.0799 z" style="fill:url(#linearGradient8275)"/><path id="path8153" d="M 68.054144,36.194647 C 68.18859,36.082481 68.326108,35.974924 68.470541,35.885806 C 68.449798,35.460958 68.382191,35.051475 68.281549,34.658125 L 59.467291,34.658125 C 59.367417,35.051475 59.299041,35.460958 59.278298,35.885806 C 59.422732,35.974924 59.56025,36.082481 59.694696,36.194647 L 68.054144,36.194647 z" style="fill:url(#linearGradient8277);filter:url(#filter8354)"/><path id="path8155" d="M 60.80176,36.194647 C 59.954368,36.194647 59.265238,36.883777 59.265238,37.731169 L 59.265238,54.632911 C 59.265238,55.480303 59.954368,56.169433 60.80176,56.169433 L 66.947848,56.169433 C 67.79524,56.169433 68.48437,55.480303 68.48437,54.632911 L 68.48437,37.731169 C 68.48437,36.883777 67.79524,36.194647 66.947848,36.194647 L 60.80176,36.194647 z M 62.338282,39.267691 L 65.411326,39.267691 L 65.411326,44.645518 L 62.338282,44.645518 L 62.338282,39.267691 z M 65.411326,51.559867 C 65.411326,51.772675 65.411326,52.11532 65.411326,52.328128 C 65.088656,52.328128 62.660952,52.328128 62.338282,52.328128 C 62.338282,52.11532 62.338282,51.772675 62.338282,51.559867 C 62.660952,51.559867 65.088656,51.559867 65.411326,51.559867 z" style="fill:url(#linearGradient8279)"/><path id="path8157" d="M 66.947848,36.194647 L 60.80176,36.194647 C 60.37768,36.194647 60.033499,36.53806 60.033499,36.962908 L 60.033499,53.86465 C 60.033499,54.289498 60.37768,54.632911 60.80176,54.632911 L 66.947848,54.632911 C 67.372696,54.632911 67.716109,54.289498 67.716109,53.86465 L 67.716109,36.962908 C 67.716109,36.53806 67.372696,36.194647 66.947848,36.194647 z M 66.179587,52.520193 C 66.179587,52.838253 65.921451,53.096389 65.603391,53.096389 L 62.146217,53.096389 C 61.828157,53.096389 61.570021,52.838253 61.570021,52.520193 L 61.570021,51.367802 C 61.570021,51.049742 61.828157,50.791606 62.146217,50.791606 L 65.603391,50.791606 C 65.921451,50.791606 66.179587,51.049742 66.179587,51.367802 L 66.179587,52.520193 z M 66.179587,44.645518 C 66.179587,45.070366 65.836174,45.413779 65.411326,45.413779 L 62.338282,45.413779 C 61.914202,45.413779 61.570021,45.070366 61.570021,44.645518 L 61.570021,38.49943 C 61.570021,38.074582 61.914202,37.731169 62.338282,37.731169 L 65.411326,37.731169 C 65.836174,37.731169 66.179587,38.074582 66.179587,38.49943 L 66.179587,44.645518 z" style="fill:url(#linearGradient8281)"/><path id="path8159" d="M 65.411326,39.267691 C 65.411326,39.692539 65.067913,40.035952 64.643065,40.035952 L 63.106543,40.035952 C 62.682463,40.035952 62.338282,39.692539 62.338282,39.267691 L 62.338282,31.585081 C 62.338282,31.160233 62.682463,30.81682 63.106543,30.81682 L 64.643065,30.81682 C 65.067913,30.81682 65.411326,31.160233 65.411326,31.585081 L 65.411326,39.267691 z" style="fill:url(#linearGradient8283)"/><rect id="rect8161" width="1.537" height="7.683" x="63.107" y="31.585" style="fill:url(#linearGradient8285)"/></g></g><g id="g3412" transform="translate(-10,0)"><path style="opacity:.4;fill:#000;fill-opacity:1;filter:url(#filter6697)" id="path5540" d="M 41.879531,115.98249 C 41.879531,115.98249 66.18914,91.672876 66.18914,91.672876 C 66.18914,91.672876 56.836,94.586 46.586,94.586 C 46.586,104.836 41.879531,115.98249 41.879531,115.98249 z" clip-path="url(#clipPath7084)" transform="translate(50,0)"/><path id="path14523" d="M 89.172,120 C 89.172,120 101.086,110.086 106.586,104.586 C 112.086,99.086 122,87.172 122,87.172 C 122,87.172 108.25,96 98,96 C 98,106.25 89.172,120 89.172,120 z" style="fill:url(#linearGradient3416);fill-opacity:1"/></g></g></svg>