<svg xmlns="http://www.w3.org/2000/svg" xmlns:xlink="http://www.w3.org/1999/xlink" version="1" width="48" height="48"><defs><linearGradient id="a"><stop offset="0" stop-opacity="0"/><stop offset=".5"/><stop offset="1" stop-opacity="0"/></linearGradient><linearGradient x1="302.857" y1="366.648" x2="302.857" y2="609.505" id="n" xlink:href="#a" gradientUnits="userSpaceOnUse" gradientTransform="matrix(.067 0 0 .015 -.341 37.04)"/><radialGradient cx="605.714" cy="486.648" r="117.143" fx="605.714" fy="486.648" id="o" xlink:href="#b" gradientUnits="userSpaceOnUse" gradientTransform="matrix(-.023 0 0 .015 21.623 37.04)"/><linearGradient id="b"><stop offset="0"/><stop offset="1" stop-opacity="0"/></linearGradient><radialGradient cx="605.714" cy="486.648" r="117.143" fx="605.714" fy="486.648" id="p" xlink:href="#b" gradientUnits="userSpaceOnUse" gradientTransform="matrix(.023 0 0 .015 26.361 37.04)"/><linearGradient id="c"><stop offset="0" stop-color="#2e4a5a"/><stop offset="1" stop-color="#6e8796"/></linearGradient><linearGradient x1="-51.786" y1="53.624" x2="-51.786" y2="2.906" id="r" xlink:href="#c" gradientUnits="userSpaceOnUse" gradientTransform="matrix(.807 0 0 .895 59.41 -2.981)"/><linearGradient id="d"><stop offset="0" stop-color="#85c2cf"/><stop offset=".262" stop-color="#74a4be"/><stop offset=".705" stop-color="#5177a0"/><stop offset="1" stop-color="#2c5889"/></linearGradient><radialGradient cx="14.239" cy="11.49" r="18" fx="14.239" fy="11.49" id="q" xlink:href="#d" gradientUnits="userSpaceOnUse" gradientTransform="matrix(0 3.179 -5.299 0 74.191 -39.503)"/><linearGradient id="e"><stop offset="0"/><stop offset="1" stop-opacity="0"/></linearGradient><linearGradient x1="75.854" y1="28" x2="91" y2="12" id="s" xlink:href="#e" gradientUnits="userSpaceOnUse" gradientTransform="matrix(1.187 0 0 .919 -63.597 5.029)" spreadMethod="reflect"/><linearGradient id="f"><stop offset="0" stop-color="#fff"/><stop offset="1" stop-color="#fff" stop-opacity="0"/></linearGradient><linearGradient x1="75.854" y1="28" x2="91" y2="12" id="t" xlink:href="#f" gradientUnits="userSpaceOnUse" gradientTransform="matrix(1.187 0 0 .919 -63.468 3.918)" spreadMethod="reflect"/><radialGradient cx="102" cy="112.305" r="139.559" id="g" gradientUnits="userSpaceOnUse"><stop offset="0"/><stop offset=".189"/><stop offset=".257" stop-opacity="0"/><stop offset="1" stop-opacity="0"/></radialGradient><radialGradient cx="102" cy="112.305" r="139.559" id="u" xlink:href="#g" gradientUnits="userSpaceOnUse" gradientTransform="matrix(.362 0 0 -.391 .851 47.517)"/><linearGradient id="h"><stop offset="0"/><stop offset="1" stop-opacity="0"/></linearGradient><linearGradient x1="26.189" y1="30.455" x2="44.25" y2="16.135" id="v" xlink:href="#h" gradientUnits="userSpaceOnUse" spreadMethod="reflect"/><linearGradient id="i"><stop offset="0" stop-color="#fff"/><stop offset="1" stop-color="#fff" stop-opacity="0"/></linearGradient><linearGradient x1="16.626" y1="15.298" x2="20.055" y2="24.628" id="w" xlink:href="#i" gradientUnits="userSpaceOnUse" gradientTransform="matrix(.74 0 0 1.393 6.237 -7.317)"/><linearGradient id="j"><stop offset="0" stop-color="#fff"/><stop offset="1" stop-color="#fff" stop-opacity="0"/></linearGradient><linearGradient x1="24" y1="2" x2="24" y2="46.017" id="x" xlink:href="#j" gradientUnits="userSpaceOnUse" gradientTransform="matrix(1 0 0 .978 0 -.967)"/><linearGradient id="k"><stop offset="0" stop-color="#c4c4c4"/><stop offset="1" stop-color="#c4c4c4" stop-opacity="0"/></linearGradient><linearGradient x1="35.517" y1="4.858" x2="34.103" y2="6.544" id="y" xlink:href="#k" gradientUnits="userSpaceOnUse"/><filter id="z" color-interpolation-filters="sRGB" height="1.329" width="1.297" y="-.164" x="-.148"><feGaussianBlur stdDeviation=".774"/></filter><linearGradient id="l"><stop offset="0" stop-color="#fefefe"/><stop offset="1" stop-color="#cbcbcb"/></linearGradient><linearGradient x1="32.892" y1="8.059" x2="36.358" y2="5.457" id="A" xlink:href="#l" gradientUnits="userSpaceOnUse" gradientTransform="matrix(.998 0 0 1.041 .164 -1.106)"/><linearGradient id="m"><stop offset="0" stop-color="#294351"/><stop offset="1" stop-color="#637a87"/></linearGradient><linearGradient x1="24.239" y1="44.11" x2="24.239" y2=".191" id="B" xlink:href="#m" gradientUnits="userSpaceOnUse" gradientTransform="scale(.99 1.01)"/></defs><path opacity=".3" fill="url(#n)" overflow="visible" d="M7.738 42.43h32.508v3.57h-32.508z"/><path d="M7.738 42.43v3.57c-1.187.007-2.868-.8-2.868-1.785 0-.985 1.324-1.785 2.868-1.785z" opacity=".3" fill="url(#o)" overflow="visible"/><path d="M40.246 42.43v3.57c1.187.007 2.868-.8 2.868-1.785 0-.985-1.324-1.785-2.868-1.785z" opacity=".3" fill="url(#p)" overflow="visible"/><path d="M6.5.497h24.061c.525 1.96 6.133 6.852 10.939 9.626v34.379h-35v-44.006z" fill="url(#q)" stroke="url(#r)" stroke-linejoin="round"/><path d="M18.913 14l-11.913 15.36v15.64h28.301l5.699-7.338v-14.179c-7.795-3.348-17.025-7.309-22.087-9.483z" opacity=".1" fill="url(#s)" overflow="visible" enable-background="accumulate"/><path d="M18.913 13l-11.913 15.36v15.64h28.301l5.699-7.338v-14.179c-7.795-3.348-17.025-7.309-22.087-9.483z" opacity=".4" fill="url(#t)" overflow="visible" enable-background="accumulate"/><path d="M7.362 44c-.199 0-.362-.175-.362-.391v-42.204c0-.216.162-.391.362-.391 7.483.108 15.776-.162 23.25.027l10.283 8.866.106 33.702c0 .215-.162.391-.362.391h-33.277z" opacity=".1" fill="url(#u)"/><path d="M19.283 18.262l18.62 8.282-18.62-8.282zm-1.984 2.648l21.651 9.63-21.651-9.63zm-2.016 2.69l6.928 3.082-6.928-3.082zm-1.984 2.648l21.651 9.63-21.651-9.63zm-2.016 2.69l19.486 8.667-19.486-8.667zm-2 2.669l17.754 7.897-17.754-7.897zm-1.984 2.648l21.218 9.437-21.218-9.437z" opacity=".1" stroke="url(#v)" fill="none"/><path d="M8.619 1c-.894 0-1.619 1.364-1.619 3.048v22.295c.002.188.046.365.12.489.075.124.174.184.273.164l33.306-9.928c.171-.051.298-.327.301-.653v-6l-10.834-9.415h-21.547z" opacity=".2" fill="url(#w)" fill-rule="evenodd"/><path d="M40.5 10.259v33.263h-33v-42.045h22.866" opacity=".4" stroke="url(#x)" stroke-linejoin="round" fill="none"/><path d="M30.561.5c1.407.475 8.965 5.879 10.939 9.624v12.285c-40.446 15.729-35.236-21.909-10.939-21.909z" stroke="url(#y)" stroke-linejoin="round" fill="none"/><path d="M28.617.921c4.283 0 2.153 8.483 2.153 8.483s10.358-1.802 10.358 2.819c0-2.61-11.302-10.729-12.511-11.302z" opacity=".4" fill-rule="evenodd" filter="url(#z)"/><path d="M28.617.921c3.186 0 2.336 7.662 2.336 7.662s10.175-.981 10.175 3.64c0-1.126.086-1.932-.134-2.284-1.578-2.524-8.113-8.188-10.575-8.931-.184-.056-.875-.088-1.802-.088z" fill="url(#A)" fill-rule="evenodd"/><path d="M32.807 36h-5.193c-.954-3.973-1.98-7.93-2.884-11.914-.289-1.255-.593-3.402-.763-4.176-.552 4.3-1.754 8.464-2.738 12.671l-.83 3.419h-5.208l-5.193-22h4.499c1.203 6.043 2.562 12.056 3.511 18.148.402-2.877.909-5.739 1.65-8.546l2.333-9.601h4.013c1.021 4.245 2.081 8.48 3.078 12.731.355 1.797.636 3.608.92 5.417.895-5.99 2.259-11.892 3.431-17.829-.025-.577.695-.221 1.052-.318h3.512l-5.193 22z" style="-inkscape-font-specification:Droid Sans Bold" font-size="30.514" font-weight="bold" opacity=".4" fill="#fff" font-family="Droid Sans"/><path d="M32.807 35h-5.193c-.954-3.973-1.98-7.93-2.884-11.914-.289-1.255-.593-3.402-.763-4.176-.552 4.3-1.754 8.464-2.738 12.671l-.83 3.419h-5.208l-5.193-22h4.499c1.203 6.043 2.562 12.056 3.511 18.148.402-2.877.909-5.739 1.65-8.546l2.333-9.601h4.013c1.021 4.245 2.081 8.48 3.078 12.731.355 1.797.636 3.608.92 5.417.895-5.99 2.259-11.892 3.431-17.829-.025-.577.695-.221 1.052-.318h3.512l-5.193 22z" style="-inkscape-font-specification:Droid Sans Bold" font-size="30.514" font-weight="bold" fill="url(#B)" font-family="Droid Sans"/></svg>