<svg xmlns="http://www.w3.org/2000/svg" xmlns:xlink="http://www.w3.org/1999/xlink" width="128" height="128" version="1"><defs><linearGradient id="a" gradientUnits="userSpaceOnUse" x1="95.695" y1="67.52" x2="43.148" y2="67.52"><stop offset="0" stop-color="#EDE0FF"/><stop offset=".489" stop-color="#8000FF"/></linearGradient><linearGradient xlink:href="#a" id="i" gradientUnits="userSpaceOnUse" gradientTransform="matrix(1 0 0 -1 21 106.496)" x1="20.894" y1="76.07" x2="70.038" y2="8.739"/><linearGradient id="c"><stop offset="0" stop-color="#a2a2a2"/><stop offset="1" stop-color="#fff"/></linearGradient><linearGradient gradientUnits="userSpaceOnUse" x1="96" y1="104" x2="88" y2="96"><stop offset="0" stop-color="#888A85"/><stop offset=".007" stop-color="#8C8E89"/><stop offset=".067" stop-color="#ABACA9"/><stop offset=".135" stop-color="#C5C6C4"/><stop offset=".265" stop-color="#DBDBDA"/><stop offset=".376" stop-color="#EBEBEB"/><stop offset=".487" stop-color="#F7F7F6"/><stop offset=".632" stop-color="#FDFDFD"/><stop offset="1" stop-color="#fff"/></linearGradient><radialGradient id="b" cx="102" cy="112.305" r="139.559" gradientUnits="userSpaceOnUse"><stop offset="0" stop-color="#b7b8b9"/><stop offset=".189" stop-color="#ECECEC"/><stop offset=".257" stop-color="#FAFAFA"/><stop offset=".301" stop-color="#fff"/><stop offset=".531" stop-color="#FAFAFA"/><stop offset=".845" stop-color="#EBECEC"/><stop offset="1" stop-color="#E1E2E3"/></radialGradient><filter x="-.192" width="1.384" y="-.192" height="1.384" id="g"><feGaussianBlur stdDeviation="1.945"/></filter><clipPath id="f"><path d="M72 88l-32 32h-8v-40h40v8z" fill-rule="evenodd"/></clipPath><radialGradient xlink:href="#b" id="e" gradientUnits="userSpaceOnUse" gradientTransform="translate(0 .003)" cx="102" cy="112.305" r="139.559"/><linearGradient xlink:href="#c" id="h" x1="98.617" y1="106.414" x2="91.229" y2="99.255" gradientUnits="userSpaceOnUse"/><filter id="d"><feGaussianBlur stdDeviation="2.079"/></filter></defs><path d="M14 7v115h65.821s12.402-10.172 18.132-15.819c5.729-5.647 16.048-17.872 16.048-17.872v-81.309h-100z" opacity=".5" filter="url(#d)"/><path d="M16 8v112h63.146l32.854-32.854v-79.146h-96z" fill="#fff"/><path d="M18 9c-.551 0-1 .449-1 1v107.964c0 .552.449 1 1 1h59.172c.263 0 2.763.118 2.949-.069l30.586-30.8c.187-.187.293-2.685.293-2.948v-75.147c0-.551-.448-1-1-1h-92z" fill="url(#e)"/><path d="M81.88 115.982l24.31-24.31s-9.353 2.913-19.603 2.913c0 10.25-4.706 21.396-4.706 21.396z" clip-path="url(#f)" opacity=".4" filter="url(#g)"/><path d="M79.172 120s11.914-9.914 17.414-15.414c5.5-5.5 15.414-17.414 15.414-17.414s-13.75 8.828-24 8.828c0 10.25-8.828 24-8.828 24z" fill="url(#h)"/><path d="M45.777 102s47.505-.515 8.005-40.015 35.802-48.378 47.959-16.045" opacity=".2" fill="url(#i)"/><path d="M45.777 102s47.682-.515 8.182-40.015 35.802-47.318 47.959-14.985" opacity=".8" stroke="#5a00b3" stroke-width="3" fill="none"/><path d="M45.777 102s47.561-.637 8.061-40.137 35.802-47.196 47.959-14.863" stroke="#ff00bf" stroke-width=".5" fill="none"/><path d="M26.177 34.126l27.802 27.914 23.733 23.734" stroke="#ff00bf" stroke-width=".6" fill="none"/><circle transform="matrix(1.333 0 0 1.333 24.667 17.329)" r="1.5" cy="12.503" cx="1" fill="#e85290"/><circle transform="matrix(1.333 0 0 1.333 11.563 4.545)" r="1.5" cy="61.091" cx="49.828" fill="#e85290"/><path d="M52 60h4v4h-4zm48-16h4v4h-4zm-56 56h4v4h-4z" fill="#e85290"/></svg>