<svg xmlns="http://www.w3.org/2000/svg" xmlns:xlink="http://www.w3.org/1999/xlink" width="128" height="128" viewBox="0 0 128 128" overflow="visible"><defs><radialGradient id="b" cx="102" cy="112.305" r="139.559" gradientUnits="userSpaceOnUse"><stop offset="0" stop-color="#b7b8b9"/><stop offset=".189" stop-color="#ECECEC"/><stop offset=".257" stop-color="#FAFAFA"/><stop offset=".301" stop-color="#fff"/><stop offset=".531" stop-color="#FAFAFA"/><stop offset=".845" stop-color="#EBECEC"/><stop offset="1" stop-color="#E1E2E3"/></radialGradient><filter id="e"><feGaussianBlur stdDeviation="2.079"/></filter><filter x="-.192" width="1.384" y="-.192" height="1.384" id="q"><feGaussianBlur stdDeviation="1.945"/></filter><clipPath id="p"><path d="M72 88l-32 32h-8v-40h40v8z" fill-rule="evenodd"/></clipPath><linearGradient id="c"><stop offset="0" stop-color="#a2a2a2"/><stop offset="1" stop-color="#fff"/></linearGradient><linearGradient id="d" gradientUnits="userSpaceOnUse" x1="-78.872" y1="27.125" x2="75.753" y2="27.125"><stop offset=".101" stop-color="#2C72C7"/><stop offset=".347" stop-color="#417FCA"/><stop offset=".679" stop-color="#598ECE"/><stop offset=".888" stop-color="#6193CF"/></linearGradient><linearGradient id="a" gradientUnits="userSpaceOnUse" x1="172.217" y1="82.613" x2="169.74" y2="80.137" gradientTransform="translate(-143 -64)"><stop offset="0" stop-color="#bbb"/><stop offset="1" stop-color="#616161"/></linearGradient><linearGradient xlink:href="#a" id="g" x1="25.729" y1="63" x2="30.229" y2="63" gradientUnits="userSpaceOnUse"/><radialGradient xlink:href="#b" id="f" gradientUnits="userSpaceOnUse" gradientTransform="translate(0 .003)" cx="102" cy="112.305" r="139.559"/><linearGradient xlink:href="#c" id="r" gradientUnits="userSpaceOnUse" x1="98.617" y1="106.414" x2="91.229" y2="99.255"/><linearGradient xlink:href="#d" id="o" x1="32.005" y1="27.125" x2="102.537" y2="27.125" gradientUnits="userSpaceOnUse"/><linearGradient xlink:href="#d" id="n" x1="32.005" y1="27.125" x2="102.537" y2="27.125" gradientUnits="userSpaceOnUse"/><linearGradient xlink:href="#d" id="m" x1="32.005" y1="27.125" x2="102.537" y2="27.125" gradientUnits="userSpaceOnUse"/><linearGradient xlink:href="#d" id="l" x1="32.005" y1="27.125" x2="102.537" y2="27.125" gradientUnits="userSpaceOnUse"/><linearGradient xlink:href="#d" id="k" x1="32.005" y1="27.125" x2="102.537" y2="27.125" gradientUnits="userSpaceOnUse"/><linearGradient xlink:href="#d" id="j" x1="32.005" y1="27.125" x2="102.537" y2="27.125" gradientUnits="userSpaceOnUse"/><linearGradient xlink:href="#a" gradientUnits="userSpaceOnUse" x1="25.729" y1="63" x2="30.229" y2="63"/><linearGradient xlink:href="#a" gradientUnits="userSpaceOnUse" x1="25.729" y1="63" x2="30.229" y2="63"/><linearGradient xlink:href="#a" gradientUnits="userSpaceOnUse" x1="25.729" y1="63" x2="30.229" y2="63"/><linearGradient xlink:href="#a" gradientUnits="userSpaceOnUse" x1="25.729" y1="63" x2="30.229" y2="63"/><linearGradient xlink:href="#a" id="h" gradientUnits="userSpaceOnUse" x1="25.729" y1="63" x2="30.229" y2="63"/></defs><radialGradient cx="102" cy="112.305" r="139.559" gradientUnits="userSpaceOnUse"><stop offset="0" stop-color="#00537D"/><stop offset=".015" stop-color="#186389"/><stop offset=".056" stop-color="#558CA8"/><stop offset=".096" stop-color="#89AFC3"/><stop offset=".136" stop-color="#B3CCD8"/><stop offset=".174" stop-color="#D4E2E9"/><stop offset=".21" stop-color="#ECF2F5"/><stop offset=".243" stop-color="#FAFCFD"/><stop offset=".272" stop-color="#fff"/></radialGradient><linearGradient gradientUnits="userSpaceOnUse" x1="94.344" y1="102.345" x2="86.536" y2="94.537"><stop offset="0" stop-color="#fff"/><stop offset="1" stop-color="#555753"/></linearGradient><linearGradient gradientUnits="userSpaceOnUse" x1="95" y1="103" x2="86.587" y2="94.587"><stop offset="0" stop-color="#fff"/><stop offset="1" stop-color="#555753"/></linearGradient><linearGradient gradientUnits="userSpaceOnUse" x1="95" y1="103" x2="87.293" y2="95.293"><stop offset="0" stop-color="#fff"/><stop offset="1" stop-color="#393B38"/></linearGradient><linearGradient gradientUnits="userSpaceOnUse" x1="96" y1="104" x2="88" y2="96"><stop offset="0" stop-color="#888A85"/><stop offset=".007" stop-color="#8C8E89"/><stop offset=".067" stop-color="#ABACA9"/><stop offset=".135" stop-color="#C5C6C4"/><stop offset=".211" stop-color="#DBDBDA"/><stop offset=".301" stop-color="#EBEBEB"/><stop offset=".412" stop-color="#F7F7F6"/><stop offset=".568" stop-color="#FDFDFD"/><stop offset="1" stop-color="#fff"/></linearGradient><path d="M14 6.5v115h65.821s12.402-10.172 18.132-15.819c5.729-5.647 16.048-17.872 16.048-17.872v-81.309h-100z" opacity=".5" filter="url(#e)"/><path d="M16 7.5v112h63.146l32.854-32.854v-79.146h-96z" fill="#fff"/><path d="M18 8.5c-.551 0-1 .449-1 1v107.964c0 .552.449 1 1 1h59.172c.263 0 2.763.118 2.949-.069l30.586-30.8c.187-.187.293-2.685.293-2.948v-75.147c0-.551-.448-1-1-1h-92z" fill="url(#f)"/><g transform="translate(-1.729 1.125)" fill="url(#g)"><linearGradient gradientTransform="translate(-143 -64)" y2="89.763" x2="170.978" y1="93.265" x1="170.978" gradientUnits="userSpaceOnUse"><stop offset="0" stop-color="#fff" fill="url(#g)"/><stop offset="1" stop-color="#ddd" fill="url(#g)"/></linearGradient><linearGradient gradientTransform="translate(-143 -64)" y2="90.277" x2="169.74" y1="92.753" x1="172.217" gradientUnits="userSpaceOnUse"><stop offset="0" stop-color="#bbb" fill="url(#g)"/><stop offset="1" stop-color="#616161" fill="url(#g)"/></linearGradient><linearGradient gradientTransform="translate(-143 -64)" y2="99.904" x2="170.978" y1="103.405" x1="170.978" gradientUnits="userSpaceOnUse"><stop offset="0" stop-color="#fff" fill="url(#g)"/><stop offset="1" stop-color="#ddd" fill="url(#g)"/></linearGradient><linearGradient gradientTransform="translate(-143 -64)" y2="100.415" x2="169.741" y1="102.89" x1="172.216" gradientUnits="userSpaceOnUse"><stop offset="0" stop-color="#bbb" fill="url(#g)"/><stop offset="1" stop-color="#616161" fill="url(#g)"/></linearGradient><linearGradient gradientTransform="translate(-143 -64)" y2="110.041" x2="170.978" y1="113.543" x1="170.978" gradientUnits="userSpaceOnUse"><stop offset="0" stop-color="#fff" fill="url(#g)"/><stop offset="1" stop-color="#ddd" fill="url(#g)"/></linearGradient><linearGradient gradientTransform="translate(-143 -64)" y2="110.554" x2="169.74" y1="113.029" x1="172.216" gradientUnits="userSpaceOnUse"><stop offset="0" stop-color="#bbb" fill="url(#g)"/><stop offset="1" stop-color="#616161" fill="url(#g)"/></linearGradient><linearGradient gradientTransform="translate(-143 -64)" y2="120.181" x2="170.978" y1="123.683" x1="170.978" gradientUnits="userSpaceOnUse"><stop offset="0" stop-color="#fff" fill="url(#g)"/><stop offset="1" stop-color="#ddd" fill="url(#g)"/></linearGradient><linearGradient gradientTransform="translate(-143 -64)" y2="120.694" x2="169.741" y1="123.17" x1="172.217" gradientUnits="userSpaceOnUse"><stop offset="0" stop-color="#bbb" fill="url(#g)"/><stop offset="1" stop-color="#616161" fill="url(#g)"/></linearGradient><linearGradient gradientTransform="translate(-143 -64)" y2="130.319" x2="170.978" y1="133.82" x1="170.978" gradientUnits="userSpaceOnUse"><stop offset="0" stop-color="#fff" fill="url(#g)"/><stop offset="1" stop-color="#ddd" fill="url(#g)"/></linearGradient><linearGradient gradientTransform="translate(-143 -64)" y2="130.832" x2="169.742" y1="133.307" x1="172.217" gradientUnits="userSpaceOnUse"><stop offset="0" stop-color="#bbb" fill="url(#g)"/><stop offset="1" stop-color="#616161" fill="url(#g)"/></linearGradient><linearGradient gradientTransform="translate(-143 -64)" y2="140.458" x2="170.978" y1="143.96" x1="170.978" gradientUnits="userSpaceOnUse"><stop offset="0" stop-color="#fff" fill="url(#g)"/><stop offset="1" stop-color="#ddd" fill="url(#g)"/></linearGradient><linearGradient gradientTransform="translate(-143 -64)" y2="140.972" x2="169.742" y1="143.447" x1="172.217" gradientUnits="userSpaceOnUse"><stop offset="0" stop-color="#bbb" fill="url(#g)"/><stop offset="1" stop-color="#616161" fill="url(#g)"/></linearGradient><linearGradient gradientTransform="translate(-143 -64)" y2="150.596" x2="170.978" y1="154.098" x1="170.978" gradientUnits="userSpaceOnUse"><stop offset="0" stop-color="#fff" fill="url(#g)"/><stop offset="1" stop-color="#ddd" fill="url(#g)"/></linearGradient><linearGradient gradientTransform="translate(-143 -64)" y2="151.109" x2="169.74" y1="153.585" x1="172.216" gradientUnits="userSpaceOnUse"><stop offset="0" stop-color="#bbb" fill="url(#g)"/><stop offset="1" stop-color="#616161" fill="url(#g)"/></linearGradient><linearGradient gradientTransform="translate(-143 -64)" y2="160.735" x2="170.978" y1="164.238" x1="170.978" gradientUnits="userSpaceOnUse"><stop offset="0" stop-color="#fff" fill="url(#g)"/><stop offset="1" stop-color="#ddd" fill="url(#g)"/></linearGradient><linearGradient gradientTransform="translate(-143 -64)" y2="161.249" x2="169.741" y1="163.724" x1="172.216" gradientUnits="userSpaceOnUse"><stop offset="0" stop-color="#bbb" fill="url(#g)"/><stop offset="1" stop-color="#616161" fill="url(#g)"/></linearGradient><linearGradient gradientTransform="translate(-143 -64)" y2="79.624" x2="170.978" y1="83.125" x1="170.978" gradientUnits="userSpaceOnUse"><stop offset="0" stop-color="#fff" fill="url(#g)"/><stop offset="1" stop-color="#ddd" fill="url(#g)"/></linearGradient><linearGradient gradientTransform="translate(-143 -64)" y2="80.137" x2="169.74" y1="82.613" x1="172.217" gradientUnits="userSpaceOnUse"><stop offset="0" stop-color="#bbb" fill="url(#g)"/><stop offset="1" stop-color="#616161" fill="url(#g)"/></linearGradient><linearGradient gradientTransform="translate(-143 -64)" y2="170.875" x2="170.978" y1="174.376" x1="170.978" gradientUnits="userSpaceOnUse"><stop offset="0" stop-color="#fff" fill="url(#g)"/><stop offset="1" stop-color="#ddd" fill="url(#g)"/></linearGradient><linearGradient gradientTransform="translate(-143 -64)" y2="171.387" x2="169.74" y1="173.863" x1="172.217" gradientUnits="userSpaceOnUse"><stop offset="0" stop-color="#bbb" fill="url(#g)"/><stop offset="1" stop-color="#616161" fill="url(#g)"/></linearGradient><circle id="i" r="2.25" cy="17.375" cx="27.979" fill="url(#h)"/><use xlink:href="#i"/><use xlink:href="#i" transform="translate(0 10)"/><use xlink:href="#i" transform="translate(0 20)"/><use xlink:href="#i" transform="translate(0 30)"/><use xlink:href="#i" transform="translate(0 40)"/><use xlink:href="#i" transform="translate(0 50)"/><use xlink:href="#i" transform="translate(0 60)"/><use xlink:href="#i" transform="translate(0 70)"/><use xlink:href="#i" transform="translate(0 80)"/><use xlink:href="#i" transform="translate(0 90)"/></g><g transform="translate(2.287 .875)" opacity=".5"><linearGradient gradientUnits="userSpaceOnUse" x1="-39.64" y1="-54.535" x2="55.319" y2="40.425"><stop offset="0" stop-color="#888"/><stop offset="1" stop-color="#bbb"/></linearGradient><path d="M41.689 26.283c-.075.225-.164.389-.267.492-.103.103-.362.191-.778.269-.416.076-.854.114-1.317.114-.728 0-1.091-.248-1.091-.745 0-.14.039-.402.116-.79l.669-3.356c.039-.194.059-.333.059-.417 0-.078-.028-.149-.085-.216.306-.114.518-.171.637-.171.143 0 .214.081.214.243 0 .041-.038.241-.113.602l-.6 3c-.087.431-.131.731-.131.899 0 .285.315.428.947.428.563 0 1.143-.117 1.74-.352z"/><linearGradient gradientUnits="userSpaceOnUse" x1="-45.163" y1="-65.033" x2="65.384" y2="45.515"><stop offset="0" stop-color="#888"/><stop offset="1" stop-color="#bbb"/></linearGradient><path d="M45.982 24.518l.01.146c0 .658-.224 1.231-.67 1.721-.446.49-.969.734-1.568.734-.457 0-.83-.146-1.119-.438-.287-.292-.432-.672-.432-1.138 0-.531.187-.99.56-1.379.372-.39.812-.584 1.318-.584l.246.03c-.057-.103-.085-.19-.085-.261 0-.11.037-.216.112-.316.556.046 1.017.331 1.386.855.379.258.773.387 1.184.387.268 0 .556-.09.866-.271l.171.291c-.363.252-.735.378-1.116.378-.253.001-.541-.052-.863-.155zm-.774-.29c-.188-.058-.363-.148-.522-.274l-.289-.037c-.386.001-.729.175-1.026.522-.297.347-.447.744-.448 1.189.001.323.092.589.271.796.179.207.412.312.696.312.384-.001.714-.195.991-.582.276-.387.415-.849.416-1.385-.001-.186-.03-.367-.089-.541z"/><linearGradient gradientUnits="userSpaceOnUse" x1="-22.302" y1="-46.084" x2="66.291" y2="42.509"><stop offset="0" stop-color="#888"/><stop offset="1" stop-color="#bbb"/></linearGradient><path d="M47.846 27.01c-.155.072-.28.109-.373.109-.233 0-.35-.103-.35-.308 0-.105.041-.366.123-.784l.172-.852c.105-.506.158-.881.158-1.125 0-.133-.038-.243-.113-.332.242-.082.438-.123.59-.123.162 0 .242.102.242.305 0 .125-.059.455-.174.988l-.199.995c.431-.837.864-1.487 1.301-1.951.437-.464.833-.696 1.188-.696.126 0 .233.036.325.107.091.072.137.159.137.262 0 .159-.173.371-.519.636-.087-.181-.21-.271-.369-.271-.29 0-.66.309-1.109.924-.278.383-.521.779-.726 1.186-.206.408-.309.698-.309.871l.005.059z"/><linearGradient gradientUnits="userSpaceOnUse" x1="-26.578" y1="-54.579" x2="75.52" y2="47.519"><stop offset="0" stop-color="#888"/><stop offset="1" stop-color="#bbb"/></linearGradient><path d="M51.496 25.609c0 .668.282 1.002.848 1.002.489 0 1.028-.233 1.618-.701.59-.467 1.122-1.082 1.596-1.846l.29.16c-.446.836-1.027 1.526-1.741 2.074-.714.547-1.391.82-2.031.82-.41 0-.734-.133-.972-.396-.238-.265-.357-.627-.357-1.085 0-.661.216-1.227.647-1.696.433-.471.952-.705 1.562-.705.294 0 .529.074.706.223.177.149.265.346.265.595 0 .408-.245.77-.736 1.084-.493.315-1.057.471-1.695.471zm.027-.328c.477-.024.886-.161 1.227-.41.341-.248.512-.535.512-.861 0-.291-.13-.438-.391-.438-.31 0-.596.166-.858.499-.262.333-.426.737-.49 1.21z"/><linearGradient gradientUnits="userSpaceOnUse" x1="-22.682" y1="-56.429" x2="85.172" y2="51.425"><stop offset="0" stop-color="#888"/><stop offset="1" stop-color="#bbb"/></linearGradient><path d="M56.032 25.83c.823-1.729 1.551-2.594 2.182-2.594.276 0 .415.199.415.598 0 .17-.061.555-.183 1.153l-.21 1.034c.398-.838.813-1.512 1.246-2.021.433-.509.806-.764 1.12-.764.346 0 .519.203.519.607 0 .146-.051.48-.152 1.002l-.104.532c-.063.321-.095.56-.095.714 0 .273.097.41.29.41.438 0 1.109-.812 2.017-2.434l.287.16c-.988 1.927-1.852 2.891-2.59 2.891-.472 0-.707-.308-.707-.923 0-.205.045-.534.134-.988l.093-.472c.062-.319.094-.518.094-.596 0-.098-.05-.146-.15-.146-.246 0-.687.488-1.321 1.467-.576.891-.864 1.4-.864 1.527l.014.072-.167.043-.153.016c-.213 0-.318-.102-.318-.304 0-.062.034-.247.104-.557l.076-.358.146-.724c.106-.521.159-.833.159-.938 0-.152-.056-.229-.168-.229-.246 0-.607.44-1.086 1.322-.477.874-.715 1.396-.715 1.564l.054.14c-.126.056-.241.083-.346.083-.237 0-.356-.127-.356-.383l.101-.994.078-.728c.026-.255.04-.49.04-.707 0-.272-.055-.474-.165-.601.264-.096.45-.143.56-.143.2 0 .301.118.301.354 0 .084-.027.396-.081.937l-.099.978z"/><linearGradient gradientUnits="userSpaceOnUse" x1="-.722" y1="-42.566" x2="91.657" y2="49.813"><stop offset="0" stop-color="#888"/><stop offset="1" stop-color="#bbb"/></linearGradient><path d="M68.826 24.236c-.515.902-1.035 1.609-1.561 2.118-.526.51-.998.765-1.417.765-.255 0-.461-.083-.616-.25-.156-.166-.234-.385-.234-.656 0-.103.022-.266.068-.489l.076-.376c.111-.543.168-.924.168-1.143 0-.13-.039-.236-.117-.318.297-.068.483-.102.559-.102.169 0 .254.118.254.355 0 .175-.033.427-.101.755l-.135.667c-.067.32-.101.529-.101.625 0 .283.119.424.358.424.285 0 .664-.24 1.138-.72.474-.48.933-1.087 1.377-1.823l.284.168zm-3.038-1.722l.048.003c.152-.007.371-.083.658-.23.285-.146.51-.296.671-.448-.1.314-.278.577-.533.789-.388.322-.65.484-.787.484-.091 0-.137-.056-.137-.168 0-.16.026-.303.08-.43z"/><linearGradient gradientUnits="userSpaceOnUse" x1="4.952" y1="-38.01" x2="93.848" y2="50.886"><stop offset="0" stop-color="#888"/><stop offset="1" stop-color="#bbb"/></linearGradient><path d="M68.533 26.822l-.252 1.263c-.058.284-.086.532-.086.744 0 .134.03.256.09.364-.229.076-.405.113-.525.113-.188 0-.283-.107-.283-.32 0-.167.038-.438.113-.816l1.004-5.012c-.199.042-.366.062-.502.062-.199 0-.347-.048-.441-.144-.095-.095-.171-.272-.229-.533.167.112.421.169.762.169.424 0 .831-.078 1.223-.234l-.266 1.318c.387-.373.787-.561 1.202-.561.361 0 .663.138.904.412.241.275.362.617.362 1.027 0 .642-.223 1.194-.667 1.66-.445.465-.973.697-1.584.697-.331.002-.606-.068-.825-.209zm.108-.529c.23.27.514.404.849.404.401 0 .743-.169 1.025-.507.282-.338.423-.749.423-1.232 0-.35-.08-.633-.239-.85-.159-.217-.367-.325-.622-.325-.319 0-.665.181-1.039.541l-.397 1.969z"/><linearGradient gradientUnits="userSpaceOnUse" x1="11.06" y1="-37.306" x2="101.174" y2="52.808"><stop offset="0" stop-color="#888"/><stop offset="1" stop-color="#bbb"/></linearGradient><path d="M74.194 25.832c.077.174.116.339.116.496 0 .349-.146.652-.437.911-.291.259-.633.388-1.023.388-.229 0-.426-.06-.587-.178-.161-.119-.242-.261-.242-.428 0-.178.11-.357.332-.539.222-.183.593-.398 1.112-.65l-.273-.441c-.333-.535-.499-.954-.499-1.256 0-.434.252-.782.756-1.047.31.119.465.268.465.448 0 .256-.196.501-.588.735l.388.719.303.555c.436-.26.765-.482.985-.669.222-.186.502-.473.84-.86l.273.168c-.491.656-1.131 1.207-1.921 1.648zm-.581.309c-.666.36-.998.641-.998.838 0 .188.135.281.404.281.2 0 .362-.068.486-.203.125-.137.188-.312.188-.525 0-.129-.027-.259-.08-.391z"/><linearGradient gradientUnits="userSpaceOnUse" x1="7.331" y1="-45.698" x2="111.54" y2="58.511"><stop offset="0" stop-color="#888"/><stop offset="1" stop-color="#bbb"/></linearGradient><path d="M78.265 24.923c-.314.651-.666 1.181-1.053 1.587-.388.406-.735.609-1.043.609-.249 0-.45-.088-.605-.264-.155-.175-.232-.402-.232-.684 0-.359.12-1.021.362-1.982.065-.26.099-.424.099-.492l-.064-.223.476-.003c.205 0 .308.078.308.235 0 .098-.067.379-.2.843l-.08.286-.052.209c-.102.416-.152.733-.152.952 0 .337.116.505.349.505.381 0 .863-.471 1.449-1.412.479-.768.718-1.313.718-1.639l-.041-.137c.187-.052.345-.078.475-.078.2 0 .301.062.301.184l-.027.13-.065.249-.069.275-.065.266-.034.164c-.075.375-.113.727-.113 1.053 0 .5.121.75.362.75.533 0 1.21-.75 2.03-2.249l.287.171c-.934 1.797-1.787 2.695-2.562 2.695-.521 0-.782-.453-.782-1.357-.005-.171.004-.385.023-.643z"/><linearGradient gradientUnits="userSpaceOnUse" x1="14.352" y1="-45.132" x2="122.173" y2="62.689"><stop offset="0" stop-color="#888"/><stop offset="1" stop-color="#bbb"/></linearGradient><path d="M81.771 25.83c.823-1.729 1.551-2.594 2.182-2.594.276 0 .415.199.415.598 0 .17-.061.555-.183 1.153l-.21 1.034c.398-.838.813-1.512 1.246-2.021.433-.509.806-.764 1.12-.764.346 0 .519.203.519.607 0 .146-.051.48-.152 1.002l-.104.532c-.063.321-.095.56-.095.714 0 .273.097.41.29.41.438 0 1.109-.812 2.017-2.434l.287.16c-.988 1.927-1.852 2.891-2.59 2.891-.472 0-.707-.308-.707-.923 0-.205.045-.534.134-.988l.093-.472c.062-.319.094-.518.094-.596 0-.098-.05-.146-.15-.146-.246 0-.687.488-1.321 1.467-.576.891-.864 1.4-.864 1.527l.014.072-.167.043-.153.016c-.213 0-.318-.102-.318-.304 0-.062.034-.247.104-.557l.076-.358.146-.724c.106-.521.159-.833.159-.938 0-.152-.056-.229-.168-.229-.246 0-.607.44-1.086 1.322-.477.874-.715 1.396-.715 1.564l.054.14c-.126.056-.241.083-.346.083-.237 0-.356-.127-.356-.383l.101-.994.078-.728c.026-.255.04-.49.04-.707 0-.272-.055-.474-.165-.601.264-.096.45-.143.56-.143.2 0 .301.118.301.354 0 .084-.027.396-.081.937l-.099.978z"/><linearGradient gradientUnits="userSpaceOnUse" x1="-30.846" y1="-35.215" x2="63.298" y2="58.928"><stop offset="0" stop-color="#888"/><stop offset="1" stop-color="#bbb"/></linearGradient><path d="M40.932 37.032c-.355.641-.728 1.149-1.116 1.524-.388.375-.735.562-1.04.562-.244 0-.438-.106-.582-.32-.143-.213-.215-.498-.215-.856 0-.721.214-1.352.643-1.894.429-.541.927-.812 1.495-.812.339 0 .71.108 1.111.326l.368-1.841c-.201.041-.368.062-.501.062-.202 0-.35-.047-.443-.142-.093-.095-.169-.271-.227-.53.165.109.417.164.759.164.423 0 .831-.078 1.225-.234l-.748 3.748c-.085.419-.127.775-.127 1.07 0 .392.111.588.334.588.219 0 .582-.256 1.091-.77.509-.512.933-1.049 1.271-1.609l.28.178c-.405.743-.912 1.408-1.52 1.994-.608.586-1.092.879-1.454.879-.46 0-.69-.369-.69-1.108 0-.306.028-.632.086-.979zm.181-.905c-.475-.312-.869-.469-1.184-.469-.343 0-.639.209-.889.629-.25.419-.375.914-.375 1.486 0 .459.15.689.452.689.323 0 .946-.715 1.869-2.145l.127-.19z"/><linearGradient gradientUnits="userSpaceOnUse" x1="-35.637" y1="-44.746" x2="74.911" y2="65.801"><stop offset="0" stop-color="#888"/><stop offset="1" stop-color="#bbb"/></linearGradient><path d="M47.223 36.518l.01.146c0 .658-.224 1.231-.67 1.721-.446.49-.969.734-1.568.734-.457 0-.83-.146-1.119-.438-.287-.292-.432-.672-.432-1.138 0-.531.187-.99.56-1.379.372-.39.812-.584 1.318-.584l.246.03c-.057-.103-.085-.19-.085-.261 0-.11.037-.216.112-.316.556.046 1.017.331 1.386.855.379.258.773.387 1.184.387.268 0 .556-.09.866-.271l.171.291c-.363.252-.735.378-1.116.378-.254.001-.542-.052-.863-.155zm-.775-.29c-.188-.058-.363-.148-.522-.274l-.289-.037c-.386.001-.729.175-1.026.522-.297.347-.447.744-.448 1.189.001.323.092.589.271.796.179.207.412.312.696.312.384-.001.714-.195.991-.582.276-.387.415-.849.416-1.385-.001-.186-.03-.367-.089-.541z"/><linearGradient gradientUnits="userSpaceOnUse" x1="-18.869" y1="-32.324" x2="74.476" y2="61.021"><stop offset="0" stop-color="#888"/><stop offset="1" stop-color="#bbb"/></linearGradient><path d="M52.043 36.252c-.472.895-.945 1.596-1.422 2.104s-.897.763-1.265.763c-.267 0-.481-.104-.646-.309-.164-.207-.246-.477-.246-.809 0-.187.034-.451.103-.793l.679-3.423-.231.021c-.522 0-.784-.221-.784-.663v-.079c.273.156.582.234.926.234.344 0 .645-.086.902-.258l-.793 4.119c-.07.369-.105.624-.105.764 0 .385.141.578.424.578.273 0 .548-.154.824-.463.277-.31.73-.968 1.361-1.976l.273.19z"/><linearGradient gradientUnits="userSpaceOnUse" x1="-24.735" y1="-41.382" x2="85.841" y2="69.194"><stop offset="0" stop-color="#888"/><stop offset="1" stop-color="#bbb"/></linearGradient><path d="M54.76 36.518l.01.146c0 .658-.224 1.231-.67 1.721-.446.49-.969.734-1.568.734-.457 0-.83-.146-1.119-.438-.287-.292-.432-.672-.432-1.138 0-.531.187-.99.56-1.379.372-.39.812-.584 1.318-.584l.246.03c-.057-.103-.085-.19-.085-.261 0-.11.037-.216.112-.316.556.046 1.017.331 1.386.855.379.258.773.387 1.184.387.268 0 .556-.09.866-.271l.171.291c-.363.252-.735.378-1.116.378-.254.001-.542-.052-.863-.155zm-.775-.29c-.188-.058-.363-.148-.522-.274l-.289-.037c-.386.001-.729.175-1.026.522-.297.347-.447.744-.448 1.189.001.323.092.589.271.796.179.207.412.312.696.312.384-.001.714-.195.991-.582.276-.387.415-.849.416-1.385-.001-.186-.03-.367-.089-.541z"/><linearGradient gradientUnits="userSpaceOnUse" x1="-4.171" y1="-24.731" x2="84.421" y2="63.862"><stop offset="0" stop-color="#888"/><stop offset="1" stop-color="#bbb"/></linearGradient><path d="M56.623 39.01c-.155.072-.28.109-.373.109-.233 0-.35-.103-.35-.308 0-.105.041-.366.123-.784l.172-.852c.105-.506.158-.881.158-1.125 0-.133-.038-.243-.113-.332.242-.082.438-.123.59-.123.162 0 .242.102.242.305 0 .125-.059.455-.174.988l-.199.995c.431-.837.864-1.487 1.301-1.951.437-.464.833-.696 1.188-.696.126 0 .233.036.325.107.091.072.137.159.137.262 0 .159-.173.371-.519.636-.087-.181-.21-.271-.369-.271-.29 0-.66.309-1.109.924-.278.383-.521.779-.726 1.186-.206.408-.309.698-.309.871l.005.059z"/><linearGradient gradientUnits="userSpaceOnUse" x1="3.415" y1="-22.729" x2="93.502" y2="67.358"><stop offset="0" stop-color="#888"/><stop offset="1" stop-color="#bbb"/></linearGradient><path d="M63.972 37.832c.077.174.116.339.116.496 0 .349-.146.652-.437.911-.291.259-.633.388-1.023.388-.229 0-.426-.06-.587-.178-.161-.119-.242-.261-.242-.428 0-.178.11-.357.332-.539.222-.183.593-.398 1.112-.65l-.273-.441c-.333-.535-.499-.954-.499-1.256 0-.434.252-.782.756-1.047.31.119.465.268.465.448 0 .256-.196.501-.588.735l.388.719.303.555c.436-.26.765-.482.985-.669.222-.186.502-.473.84-.86l.273.168c-.492.656-1.131 1.207-1.921 1.648zm-.581.309c-.666.36-.998.641-.998.838 0 .188.135.281.404.281.2 0 .362-.068.486-.203.125-.137.188-.312.188-.525 0-.129-.028-.259-.08-.391z"/><linearGradient gradientUnits="userSpaceOnUse" x1="5.964" y1="-24.045" x2="98.343" y2="68.334"><stop offset="0" stop-color="#888"/><stop offset="1" stop-color="#bbb"/></linearGradient><path d="M68.99 36.236c-.515.902-1.035 1.609-1.561 2.118-.526.51-.998.765-1.417.765-.255 0-.461-.083-.616-.25-.156-.166-.234-.385-.234-.656 0-.103.022-.266.068-.489l.076-.376c.111-.543.168-.924.168-1.143 0-.13-.039-.236-.117-.318.297-.068.483-.102.559-.102.169 0 .254.118.254.355 0 .175-.033.427-.101.755l-.135.667c-.067.32-.101.529-.101.625 0 .283.119.424.358.424.285 0 .664-.24 1.138-.72.474-.48.933-1.087 1.377-1.823l.284.168zm-3.038-1.722l.048.003c.152-.007.371-.083.658-.23.285-.146.51-.296.671-.448-.1.314-.278.577-.533.789-.388.322-.65.484-.787.484-.091 0-.137-.056-.137-.168 0-.16.026-.303.08-.43z"/><linearGradient gradientUnits="userSpaceOnUse" x1="7.543" y1="-25.911" x2="103.986" y2="70.531"><stop offset="0" stop-color="#888"/><stop offset="1" stop-color="#bbb"/></linearGradient><path d="M70.632 37.687c.062.111.092.209.092.292 0 .223-.188.469-.565.737-.377.268-.72.403-1.029.403-.273 0-.496-.122-.668-.365-.172-.244-.258-.559-.258-.943 0-.428.111-1.037.334-1.828l.155-.574h-.573c-.239 0-.43.034-.572.103.131-.238.239-.388.325-.448.086-.062.231-.092.437-.092h.512l.068-.238c.105-.354.232-.596.379-.728s.367-.198.661-.198l.165.007c-.178.229-.363.615-.555 1.157h1.806c.317 0 .56-.041.726-.124-.057.232-.133.384-.228.455-.095.071-.271.106-.528.106h-1.924l-.052.168c-.278.941-.417 1.651-.417 2.131 0 .53.19.795.572.795.196 0 .41-.084.643-.25.23-.168.395-.357.494-.566z"/><linearGradient gradientUnits="userSpaceOnUse" x1="12.018" y1="-27.267" x2="116.82" y2="77.536"><stop offset="0" stop-color="#888"/><stop offset="1" stop-color="#bbb"/></linearGradient><path d="M76.42 36.945c-.292.604-.652 1.117-1.081 1.54-.428.423-.801.634-1.118.634-.242 0-.436-.107-.58-.323-.146-.216-.218-.503-.218-.86 0-.714.216-1.342.648-1.885.432-.543.934-.814 1.502-.814.345 0 .718.107 1.119.322.06-.213.301-.318.724-.318l.133.003c-.13.198-.229.47-.297.815l-.059.291c-.065.324-.099.703-.099 1.137 0 .5.116.75.349.75.246 0 .582-.206 1.009-.618.427-.411.847-.937 1.259-1.573l.267.186c-.421.753-.902 1.381-1.444 1.884-.542.503-1.007.755-1.396.755-.491 0-.737-.41-.737-1.232-.002-.173.005-.404.019-.694zm.16-.818c-.48-.312-.879-.469-1.197-.469-.346 0-.644.209-.896.627-.251.418-.377.914-.377 1.488 0 .459.151.689.453.689.327 0 .952-.715 1.876-2.145l.141-.19z"/><linearGradient gradientUnits="userSpaceOnUse" x1="19.581" y1="-26.297" x2="127.402" y2="81.524"><stop offset="0" stop-color="#888"/><stop offset="1" stop-color="#bbb"/></linearGradient><path d="M80.163 37.83c.823-1.729 1.551-2.594 2.182-2.594.276 0 .415.199.415.598 0 .17-.061.555-.183 1.153l-.21 1.034c.398-.838.813-1.512 1.246-2.021.433-.509.806-.764 1.12-.764.346 0 .519.203.519.607 0 .146-.051.48-.152 1.002l-.104.532c-.063.321-.095.56-.095.714 0 .273.097.41.29.41.438 0 1.109-.812 2.017-2.434l.287.16c-.988 1.927-1.852 2.891-2.59 2.891-.472 0-.707-.308-.707-.923 0-.205.045-.534.134-.988l.093-.472c.062-.319.094-.518.094-.596 0-.098-.05-.146-.15-.146-.246 0-.687.488-1.321 1.467-.576.891-.864 1.4-.864 1.527l.014.072-.167.043-.153.016c-.213 0-.318-.102-.318-.304 0-.062.034-.247.104-.557l.076-.358.146-.724c.106-.521.159-.833.159-.938 0-.152-.056-.229-.168-.229-.246 0-.607.44-1.086 1.322-.477.874-.715 1.396-.715 1.564l.054.14c-.126.056-.241.083-.346.083-.237 0-.356-.127-.356-.383l.101-.994.078-.728c.026-.255.04-.49.04-.707 0-.272-.055-.474-.165-.601.264-.096.45-.143.56-.143.2 0 .301.118.301.354 0 .084-.027.396-.081.937l-.099.978z"/><linearGradient gradientUnits="userSpaceOnUse" x1="31.133" y1="-20.616" x2="133.231" y2="81.481"><stop offset="0" stop-color="#888"/><stop offset="1" stop-color="#bbb"/></linearGradient><path d="M87.244 37.609c0 .668.282 1.002.848 1.002.489 0 1.028-.233 1.618-.701.59-.467 1.122-1.082 1.596-1.846l.29.16c-.446.836-1.027 1.526-1.741 2.074-.714.547-1.391.82-2.031.82-.41 0-.734-.133-.972-.396-.238-.265-.357-.627-.357-1.085 0-.661.216-1.227.647-1.696.433-.471.952-.705 1.562-.705.294 0 .529.074.706.223.177.149.265.346.265.595 0 .408-.245.77-.736 1.084-.493.315-1.057.471-1.695.471zm.027-.328c.477-.024.886-.161 1.227-.41.341-.248.512-.535.512-.861 0-.291-.13-.438-.391-.438-.31 0-.596.166-.858.499-.262.333-.426.737-.49 1.21z"/><linearGradient gradientUnits="userSpaceOnUse" x1="38.978" y1="-17.072" x2="135.443" y2="79.392"><stop offset="0" stop-color="#888"/><stop offset="1" stop-color="#bbb"/></linearGradient><path d="M93.229 37.687c.062.111.092.209.092.292 0 .223-.188.469-.565.737-.377.268-.72.403-1.029.403-.273 0-.496-.122-.668-.365-.172-.244-.258-.559-.258-.943 0-.428.111-1.037.334-1.828l.155-.574h-.573c-.239 0-.43.034-.572.103.131-.238.239-.388.325-.448.086-.062.231-.092.437-.092h.512l.069-.238c.105-.354.231-.596.378-.728s.367-.198.661-.198l.165.007c-.178.229-.363.615-.555 1.157h1.806c.317 0 .559-.041.726-.124-.058.232-.133.384-.228.455-.095.071-.271.106-.529.106h-1.923l-.052.168c-.278.941-.417 1.651-.417 2.131 0 .53.19.795.572.795.196 0 .41-.084.643-.25.23-.168.395-.357.494-.566z"/><linearGradient gradientUnits="userSpaceOnUse" x1="44.905" y1="-10.156" x2="137.889" y2="82.828"><stop offset="0" stop-color="#888"/><stop offset="1" stop-color="#bbb"/></linearGradient><path d="M93.47 39.752l.188.023c.162 0 .3-.069.414-.207.113-.139.171-.305.171-.498 0-.286-.142-.525-.425-.721.239-.164.454-.246.646-.246.316 0 .475.184.475.551 0 .352-.126.682-.378.992-.251.31-.52.465-.804.465-.159 0-.255-.12-.287-.359z"/><linearGradient gradientUnits="userSpaceOnUse" x1="-28.595" y1="-19.799" x2="71.037" y2="79.833"><stop offset="0" stop-color="#888"/><stop offset="1" stop-color="#bbb"/></linearGradient><path d="M42.986 48.242c-.552.926-1.136 1.655-1.754 2.188-.617.533-1.19.799-1.719.799-.44 0-.797-.15-1.07-.452-.273-.301-.41-.692-.41-1.175 0-.634.235-1.187.707-1.658.472-.471 1.025-.707 1.661-.707.258 0 .469.05.634.149.165.099.248.226.248.379 0 .252-.212.44-.636.566l.034-.157c0-.37-.196-.555-.59-.555-.34 0-.654.189-.941.57-.286.379-.43.795-.43 1.246 0 .368.096.668.285.898.191.232.438.348.744.348.84 0 1.822-.87 2.949-2.611l.288.172z"/><linearGradient gradientUnits="userSpaceOnUse" x1="-30.108" y1="-25.698" x2="80.439" y2="84.849"><stop offset="0" stop-color="#888"/><stop offset="1" stop-color="#bbb"/></linearGradient><path d="M45.701 48.518l.011.146c0 .658-.224 1.231-.67 1.721-.446.49-.969.734-1.568.734-.458 0-.831-.146-1.118-.438-.289-.292-.433-.672-.433-1.138 0-.531.187-.99.56-1.379.373-.39.812-.584 1.318-.584l.246.03c-.057-.103-.085-.19-.085-.261 0-.11.037-.216.112-.316.556.046 1.017.331 1.386.855.378.258.773.387 1.184.387.267 0 .556-.09.866-.271l.171.291c-.363.252-.735.378-1.116.378-.254.001-.542-.052-.864-.155zm-.773-.29c-.188-.058-.363-.148-.522-.274l-.289-.037c-.386.001-.729.175-1.026.522-.297.347-.447.744-.448 1.189.001.323.091.589.271.796.18.207.412.312.696.312.384-.001.714-.195.991-.582.276-.387.415-.849.416-1.385-.001-.186-.031-.367-.089-.541z"/><linearGradient gradientUnits="userSpaceOnUse" x1="-18.675" y1="-19.317" x2="86.095" y2="85.453"><stop offset="0" stop-color="#888"/><stop offset="1" stop-color="#bbb"/></linearGradient><path d="M47.865 49.801c.812-1.709 1.541-2.564 2.188-2.564.505 0 .758.5.758 1.501l.007.413c0 .478.024.808.073.991.049.183.139.274.269.274.196 0 .419-.155.669-.466.249-.31.655-.935 1.219-1.872l.287.166c-.502.945-.951 1.646-1.349 2.104-.396.457-.753.686-1.067.686-.29 0-.493-.14-.611-.42-.117-.279-.176-.764-.176-1.453v-.293c0-.373-.024-.636-.072-.787-.048-.15-.132-.227-.251-.227-.302 0-.789.6-1.46 1.798l-.319.566c-.177.305-.265.525-.265.662l.045.157c-.131.055-.242.082-.334.082-.229 0-.344-.127-.344-.383 0-.072.03-.4.09-.983l.077-.741c.034-.314.052-.559.052-.731 0-.241-.056-.432-.167-.57l.24-.084c.142-.052.255-.077.339-.077.179 0 .268.13.268.389 0 .137-.018.371-.053.703l-.021.208-.092.951z"/><linearGradient gradientUnits="userSpaceOnUse" x1="-3.345" y1="-7.928" x2="86.745" y2="82.161"><stop offset="0" stop-color="#888"/><stop offset="1" stop-color="#bbb"/></linearGradient><path d="M54.411 49.832c.077.174.116.339.116.496 0 .349-.146.652-.437.911-.291.259-.633.388-1.023.388-.229 0-.426-.06-.587-.178-.161-.119-.242-.261-.242-.428 0-.178.11-.357.332-.539.222-.183.593-.398 1.112-.65l-.273-.441c-.333-.535-.499-.954-.499-1.256 0-.434.252-.782.756-1.047.31.119.465.268.465.448 0 .256-.196.501-.588.735l.388.719.303.555c.436-.26.765-.482.985-.669.222-.186.502-.473.84-.86l.273.168c-.491.656-1.131 1.207-1.921 1.648zm-.581.309c-.666.36-.998.641-.998.838 0 .188.135.281.404.281.2 0 .362-.068.486-.203.125-.137.188-.312.188-.525 0-.129-.027-.259-.08-.391z"/><linearGradient gradientUnits="userSpaceOnUse" x1="-5.798" y1="-14.381" x2="96.271" y2="87.688"><stop offset="0" stop-color="#888"/><stop offset="1" stop-color="#bbb"/></linearGradient><path d="M56.079 49.609c0 .668.282 1.002.847 1.002.49 0 1.029-.233 1.619-.701.59-.467 1.122-1.082 1.596-1.846l.29.16c-.446.836-1.026 1.526-1.741 2.074-.714.547-1.391.82-2.031.82-.41 0-.734-.133-.972-.396-.238-.265-.357-.627-.357-1.085 0-.661.216-1.227.647-1.696.433-.471.953-.705 1.562-.705.294 0 .529.074.706.223.176.148.265.346.265.595 0 .408-.245.77-.736 1.084-.493.315-1.057.471-1.695.471zm.027-.328c.477-.024.886-.161 1.227-.41.341-.248.512-.535.512-.861 0-.291-.13-.438-.39-.438-.311 0-.597.166-.859.499-.262.333-.426.737-.49 1.21z"/><linearGradient gradientUnits="userSpaceOnUse" x1="1.534" y1="-11.108" x2="101.139" y2="88.497"><stop offset="0" stop-color="#888"/><stop offset="1" stop-color="#bbb"/></linearGradient><path d="M64.424 48.242c-.552.926-1.136 1.655-1.754 2.188-.617.533-1.19.799-1.719.799-.44 0-.797-.15-1.07-.452-.273-.301-.41-.692-.41-1.175 0-.634.235-1.187.707-1.658.472-.471 1.025-.707 1.661-.707.258 0 .469.05.634.149.165.099.248.226.248.379 0 .252-.212.44-.636.566l.034-.157c0-.37-.196-.555-.59-.555-.34 0-.654.189-.941.57-.286.379-.43.795-.43 1.246 0 .368.096.668.285.898.191.232.438.348.744.348.84 0 1.822-.87 2.949-2.611l.288.172z"/><linearGradient gradientUnits="userSpaceOnUse" x1="7.927" y1="-8.958" x2="104.369" y2="87.484"><stop offset="0" stop-color="#888"/><stop offset="1" stop-color="#bbb"/></linearGradient><path d="M66.062 49.687c.062.111.092.209.092.292 0 .223-.188.469-.565.737-.377.268-.72.403-1.029.403-.273 0-.496-.122-.668-.365-.172-.244-.258-.559-.258-.943 0-.428.111-1.037.334-1.828l.155-.574h-.573c-.239 0-.43.034-.572.103.131-.238.239-.388.325-.448.086-.062.231-.092.437-.092h.512l.069-.238c.105-.354.231-.596.378-.728s.367-.198.661-.198l.165.007c-.178.229-.363.615-.555 1.157h1.806c.317 0 .559-.041.726-.124-.058.232-.133.384-.228.455-.095.071-.271.106-.529.106h-1.923l-.052.168c-.278.941-.417 1.651-.417 2.131 0 .53.19.795.572.795.196 0 .41-.084.643-.25.231-.168.396-.357.494-.566z"/><linearGradient gradientUnits="userSpaceOnUse" x1="10.002" y1="-9.752" x2="112.072" y2="92.318"><stop offset="0" stop-color="#888"/><stop offset="1" stop-color="#bbb"/></linearGradient><path d="M67.249 49.609c0 .668.282 1.002.847 1.002.49 0 1.029-.233 1.619-.701.59-.467 1.122-1.082 1.596-1.846l.29.16c-.446.836-1.026 1.526-1.741 2.074-.714.547-1.391.82-2.031.82-.41 0-.734-.133-.972-.396-.238-.265-.357-.627-.357-1.085 0-.661.216-1.227.647-1.696.433-.471.953-.705 1.562-.705.294 0 .529.074.706.223.176.148.265.346.265.595 0 .408-.245.77-.736 1.084-.493.315-1.057.471-1.695.471zm.027-.328c.477-.024.886-.161 1.227-.41.341-.248.512-.535.512-.861 0-.291-.13-.438-.39-.438-.311 0-.597.166-.859.499-.262.333-.426.737-.49 1.21z"/><linearGradient gradientUnits="userSpaceOnUse" x1="17.907" y1="-6.149" x2="114.349" y2="90.293"><stop offset="0" stop-color="#888"/><stop offset="1" stop-color="#bbb"/></linearGradient><path d="M73.233 49.687c.062.111.092.209.092.292 0 .223-.188.469-.565.737-.377.268-.72.403-1.029.403-.273 0-.496-.122-.668-.365-.172-.244-.258-.559-.258-.943 0-.428.111-1.037.334-1.828l.155-.574h-.573c-.239 0-.43.034-.572.103.131-.238.239-.388.325-.448.086-.062.231-.092.437-.092h.512l.068-.238c.105-.354.232-.596.379-.728s.367-.198.661-.198l.165.007c-.178.229-.363.615-.555 1.157h1.806c.317 0 .56-.041.726-.124-.057.232-.133.384-.228.455-.095.071-.271.106-.528.106h-1.924l-.052.168c-.278.941-.417 1.651-.417 2.131 0 .53.19.795.572.795.196 0 .41-.084.643-.25.231-.168.396-.357.494-.566z"/><linearGradient gradientUnits="userSpaceOnUse" x1="19.863" y1="-7.724" x2="124.052" y2="96.466"><stop offset="0" stop-color="#888"/><stop offset="1" stop-color="#bbb"/></linearGradient><path d="M76.822 48.923c-.314.651-.666 1.181-1.053 1.587-.388.406-.735.609-1.043.609-.249 0-.45-.088-.605-.264-.155-.175-.232-.402-.232-.684 0-.359.121-1.021.362-1.982.065-.26.099-.424.099-.492l-.064-.223.476-.003c.205 0 .308.078.308.235 0 .098-.066.379-.201.843l-.079.286-.052.209c-.102.416-.152.733-.152.952 0 .337.116.505.349.505.381 0 .863-.471 1.449-1.412.479-.768.718-1.313.718-1.639l-.041-.137c.187-.052.345-.078.475-.078.2 0 .301.062.301.184l-.027.13-.065.249-.069.275-.064.266-.035.164c-.075.375-.113.727-.113 1.053 0 .5.121.75.362.75.533 0 1.21-.75 2.03-2.249l.287.171c-.934 1.797-1.787 2.695-2.562 2.695-.521 0-.782-.453-.782-1.357-.004-.171.005-.385.023-.643z"/><linearGradient gradientUnits="userSpaceOnUse" x1="27.862" y1="-4.528" x2="129.959" y2="97.569"><stop offset="0" stop-color="#888"/><stop offset="1" stop-color="#bbb"/></linearGradient><path d="M79.885 49.609c0 .668.282 1.002.848 1.002.489 0 1.028-.233 1.618-.701.59-.467 1.122-1.082 1.596-1.846l.29.16c-.446.836-1.027 1.526-1.741 2.074-.714.547-1.391.82-2.031.82-.41 0-.734-.133-.972-.396-.238-.265-.357-.627-.357-1.085 0-.661.216-1.227.647-1.696.433-.471.952-.705 1.562-.705.294 0 .529.074.706.223.177.149.265.346.265.595 0 .408-.245.77-.736 1.084-.493.315-1.058.471-1.695.471zm.027-.328c.477-.024.886-.161 1.227-.41.341-.248.512-.535.512-.861 0-.291-.13-.438-.391-.438-.31 0-.596.166-.858.499-.262.333-.426.737-.49 1.21z"/><linearGradient gradientUnits="userSpaceOnUse" x1="39.41" y1="3.357" x2="128.003" y2="91.95"><stop offset="0" stop-color="#888"/><stop offset="1" stop-color="#bbb"/></linearGradient><path d="M84.117 51.01c-.155.072-.28.109-.373.109-.233 0-.35-.103-.35-.308 0-.105.041-.366.123-.784l.172-.852c.105-.506.158-.881.158-1.125 0-.133-.038-.243-.113-.332.242-.082.438-.123.59-.123.162 0 .242.102.242.305 0 .125-.059.455-.174.988l-.199.995c.431-.837.864-1.487 1.301-1.951.437-.464.833-.696 1.188-.696.126 0 .233.036.325.107.091.072.137.159.137.262 0 .159-.173.371-.519.636-.087-.181-.21-.271-.369-.271-.29 0-.66.309-1.109.924-.278.383-.521.779-.726 1.186-.206.408-.309.698-.309.871l.005.059z"/><linearGradient gradientUnits="userSpaceOnUse" x1="-23.843" y1="-3.682" x2="80.938" y2="101.098"><stop offset="0" stop-color="#888"/><stop offset="1" stop-color="#bbb"/></linearGradient><path d="M40.976 60.945c-.292.604-.652 1.117-1.081 1.54-.428.423-.801.634-1.118.634-.242 0-.436-.107-.58-.323-.146-.216-.218-.503-.218-.86 0-.714.216-1.342.648-1.885.432-.543.934-.814 1.502-.814.345 0 .718.107 1.119.322.06-.213.301-.318.724-.318l.133.003c-.13.198-.229.47-.297.815l-.059.291c-.065.324-.099.703-.099 1.137 0 .5.116.75.349.75.245 0 .582-.206 1.009-.618.428-.411.847-.937 1.259-1.573l.267.186c-.421.753-.902 1.381-1.444 1.884-.542.503-1.007.755-1.396.755-.491 0-.737-.41-.737-1.232-.002-.173.005-.404.019-.694zm.16-.818c-.48-.312-.879-.469-1.197-.469-.345 0-.644.209-.896.627-.251.418-.377.914-.377 1.488 0 .459.15.689.453.689.326 0 .952-.715 1.876-2.145l.141-.19z"/><linearGradient gradientUnits="userSpaceOnUse" x1="-10.039" y1="4.05" x2="84.137" y2="98.227"><stop offset="0" stop-color="#888"/><stop offset="1" stop-color="#bbb"/></linearGradient><path d="M46.473 61.032c-.355.641-.728 1.149-1.116 1.524-.388.375-.735.562-1.04.562-.244 0-.438-.106-.582-.32-.143-.213-.215-.498-.215-.856 0-.721.214-1.352.643-1.894.429-.541.927-.812 1.495-.812.339 0 .71.108 1.111.326l.368-1.841c-.201.041-.368.062-.501.062-.202 0-.35-.047-.443-.142-.093-.095-.169-.271-.227-.53.165.109.417.164.759.164.423 0 .831-.078 1.225-.234l-.748 3.748c-.085.419-.127.775-.127 1.07 0 .392.111.588.334.588.219 0 .582-.256 1.091-.77.509-.512.933-1.049 1.271-1.609l.28.178c-.405.743-.912 1.408-1.52 1.994-.608.586-1.092.879-1.454.879-.46 0-.69-.369-.69-1.108 0-.306.028-.632.086-.979zm.181-.905c-.475-.312-.869-.469-1.184-.469-.343 0-.639.209-.889.629-.25.419-.375.914-.375 1.486 0 .459.15.689.452.689.323 0 .946-.715 1.869-2.145l.127-.19z"/><linearGradient gradientUnits="userSpaceOnUse" x1="-2.902" y1="6.931" x2="89.478" y2="99.311"><stop offset="0" stop-color="#888"/><stop offset="1" stop-color="#bbb"/></linearGradient><path d="M53.148 60.236c-.515.902-1.035 1.609-1.561 2.118-.526.51-.998.765-1.417.765-.255 0-.461-.083-.616-.25-.156-.166-.234-.385-.234-.656 0-.103.022-.266.068-.489l.076-.376c.111-.543.168-.924.168-1.143 0-.13-.039-.236-.117-.318.297-.068.483-.102.559-.102.169 0 .254.118.254.355 0 .175-.033.427-.101.755l-.135.667c-.067.32-.101.529-.101.625 0 .283.119.424.358.424.285 0 .664-.24 1.138-.72.474-.48.933-1.087 1.377-1.823l.284.168zm-3.038-1.722l.048.003c.152-.007.371-.083.658-.23.285-.146.51-.296.671-.448-.1.314-.278.577-.533.789-.388.322-.65.484-.787.484-.091 0-.137-.056-.137-.168 0-.16.027-.303.08-.43z"/><linearGradient gradientUnits="userSpaceOnUse" x1="2.254" y1="10.97" x2="91.165" y2="99.881"><stop offset="0" stop-color="#888"/><stop offset="1" stop-color="#bbb"/></linearGradient><path d="M52.855 62.822l-.252 1.263c-.058.284-.086.532-.086.744 0 .134.03.256.09.364-.229.076-.405.113-.525.113-.188 0-.283-.107-.283-.32 0-.167.038-.438.113-.816l1.004-5.012c-.199.042-.366.062-.502.062-.199 0-.347-.048-.441-.144-.095-.095-.171-.272-.229-.533.167.112.421.169.762.169.424 0 .831-.078 1.223-.234l-.266 1.318c.387-.373.787-.561 1.202-.561.361 0 .663.138.904.412.241.275.362.617.362 1.027 0 .642-.223 1.194-.667 1.66-.445.465-.973.697-1.584.697-.33.002-.606-.068-.825-.209zm.108-.529c.23.27.514.404.849.404.401 0 .743-.169 1.025-.507.282-.338.423-.749.423-1.232 0-.35-.08-.633-.239-.85-.159-.217-.367-.325-.622-.325-.319 0-.665.181-1.039.541l-.397 1.969z"/><linearGradient gradientUnits="userSpaceOnUse" x1="7.251" y1="9.701" x2="99.631" y2="102.081"><stop offset="0" stop-color="#888"/><stop offset="1" stop-color="#bbb"/></linearGradient><path d="M60.531 60.236c-.515.902-1.035 1.609-1.561 2.118-.526.51-.998.765-1.417.765-.255 0-.461-.083-.616-.25-.156-.166-.234-.385-.234-.656 0-.103.022-.266.068-.489l.076-.376c.111-.543.168-.924.168-1.143 0-.13-.039-.236-.117-.318.297-.068.483-.102.559-.102.169 0 .254.118.254.355 0 .175-.033.427-.101.755l-.135.667c-.067.32-.101.529-.101.625 0 .283.119.424.358.424.285 0 .664-.24 1.138-.72.474-.48.933-1.087 1.377-1.823l.284.168zm-3.038-1.722l.048.003c.152-.007.371-.083.658-.23.285-.146.51-.296.671-.448-.1.314-.278.577-.533.789-.388.322-.65.484-.787.484-.091 0-.137-.056-.137-.168 0-.16.026-.303.08-.43z"/><linearGradient gradientUnits="userSpaceOnUse" x1="12.789" y1="12.997" x2="102.902" y2="103.11"><stop offset="0" stop-color="#888"/><stop offset="1" stop-color="#bbb"/></linearGradient><path d="M61.62 61.832c.077.174.116.339.116.496 0 .349-.146.652-.437.911-.291.259-.633.388-1.023.388-.229 0-.426-.06-.587-.178-.161-.119-.242-.261-.242-.428 0-.178.11-.357.332-.539.222-.183.593-.398 1.112-.65l-.273-.441c-.333-.535-.499-.954-.499-1.256 0-.434.252-.782.756-1.047.31.119.465.268.465.448 0 .256-.196.501-.588.735l.388.719.303.555c.436-.26.765-.482.985-.669.222-.186.502-.473.84-.86l.273.168c-.491.656-1.131 1.207-1.921 1.648zm-.581.309c-.666.36-.998.641-.998.838 0 .188.135.281.404.281.2 0 .362-.068.486-.203.125-.137.188-.312.188-.525 0-.129-.027-.259-.08-.391z"/><linearGradient gradientUnits="userSpaceOnUse" x1="12.872" y1="9.117" x2="112.477" y2="108.722"><stop offset="0" stop-color="#888"/><stop offset="1" stop-color="#bbb"/></linearGradient><path d="M67.537 60.242c-.552.926-1.136 1.655-1.754 2.188-.617.533-1.19.799-1.719.799-.44 0-.797-.15-1.07-.452-.273-.301-.41-.692-.41-1.175 0-.634.235-1.187.707-1.658.472-.471 1.025-.707 1.661-.707.258 0 .469.05.634.149.165.099.248.226.248.379 0 .252-.212.44-.636.566l.034-.157c0-.37-.196-.555-.59-.555-.34 0-.654.189-.941.57-.286.379-.43.795-.43 1.246 0 .368.096.668.285.898.191.232.438.348.744.348.84 0 1.822-.87 2.949-2.611l.288.172z"/><linearGradient gradientUnits="userSpaceOnUse" x1="21.163" y1="13.505" x2="113.519" y2="105.861"><stop offset="0" stop-color="#888"/><stop offset="1" stop-color="#bbb"/></linearGradient><path d="M70.639 60.236c-.515.902-1.035 1.609-1.561 2.118-.526.51-.998.765-1.417.765-.255 0-.461-.083-.616-.25-.156-.166-.234-.385-.234-.656 0-.103.022-.266.068-.489l.076-.376c.111-.543.168-.924.168-1.143 0-.13-.039-.236-.117-.318.297-.068.483-.102.559-.102.169 0 .254.118.254.355 0 .175-.033.427-.101.755l-.135.667c-.067.32-.101.529-.101.625 0 .283.119.424.358.424.285 0 .664-.24 1.138-.72.474-.48.933-1.087 1.377-1.823l.284.168zm-3.038-1.722l.048.003c.152-.007.371-.083.658-.23.285-.146.51-.296.671-.448-.1.314-.278.577-.533.789-.388.322-.65.484-.787.484-.091 0-.137-.056-.137-.168 0-.16.026-.303.08-.43z"/><linearGradient gradientUnits="userSpaceOnUse" x1="21.394" y1="9.79" x2="126.145" y2="114.541"><stop offset="0" stop-color="#888"/><stop offset="1" stop-color="#bbb"/></linearGradient><path d="M70.828 61.801c.812-1.709 1.541-2.564 2.188-2.564.505 0 .758.5.758 1.501l.007.413c0 .478.024.808.073.991.049.183.139.274.269.274.196 0 .419-.155.669-.466.249-.31.655-.935 1.219-1.872l.287.166c-.502.945-.951 1.646-1.349 2.104-.396.457-.753.686-1.067.686-.29 0-.493-.14-.611-.42-.117-.279-.176-.764-.176-1.453v-.293c0-.373-.024-.636-.072-.787-.048-.15-.132-.227-.251-.227-.302 0-.789.6-1.46 1.798l-.319.566c-.177.305-.265.525-.265.662l.045.157c-.131.055-.242.082-.334.082-.229 0-.344-.127-.344-.383 0-.072.03-.4.09-.983l.077-.741c.034-.314.052-.559.052-.731 0-.241-.056-.432-.167-.57l.24-.084c.142-.052.255-.077.339-.077.179 0 .268.13.268.389 0 .137-.018.371-.053.703l-.021.208-.092.951z"/><linearGradient gradientUnits="userSpaceOnUse" x1="34.641" y1="18.847" x2="127.168" y2="111.374"><stop offset="0" stop-color="#888"/><stop offset="1" stop-color="#bbb"/></linearGradient><path d="M78.136 60.978c-.221.454-.541.854-.961 1.197-.42.343-.796.515-1.129.515-.248 0-.451-.084-.608-.253-.158-.168-.236-.387-.236-.655 0-.629.239-1.21.719-1.744.479-.533 1-.801 1.566-.801.291 0 .605.084.943.252.046-.22.111-.358.198-.416.087-.057.306-.104.659-.141-.176.357-.345 1.21-.505 2.557l-.044.35c.975-.588 1.726-1.188 2.255-1.799l.286.181c-.5.653-1.354 1.364-2.564 2.136l-.014.198c-.034.572-.095.994-.182 1.266-.087.271-.243.528-.469.772-.443.477-.982.715-1.616.715-.341 0-.616-.08-.829-.241-.212-.161-.318-.368-.318-.624 0-.248.092-.466.275-.652.184-.188.528-.416 1.035-.685.335-.175.808-.438 1.419-.786l.12-1.342zm.175-.888c-.297-.313-.623-.471-.979-.471-.338 0-.656.211-.955.633-.299.422-.448.871-.448 1.347 0 .337.124.505.373.505.242 0 .563-.201.964-.603.401-.402.748-.872 1.045-1.411zm-.329 2.681l-.8.458c-.784.444-1.177.836-1.177 1.175 0 .15.063.274.19.373.127.098.289.146.486.146.868.001 1.301-.717 1.301-2.152z"/><linearGradient gradientUnits="userSpaceOnUse" x1="39.98" y1="16.079" x2="142.049" y2="118.148"><stop offset="0" stop-color="#888"/><stop offset="1" stop-color="#bbb"/></linearGradient><path d="M83.396 61.609c0 .668.282 1.002.847 1.002.49 0 1.029-.233 1.619-.701.59-.467 1.122-1.082 1.596-1.846l.29.16c-.446.836-1.026 1.526-1.741 2.074-.714.547-1.391.82-2.031.82-.41 0-.734-.133-.972-.396-.238-.265-.357-.627-.357-1.085 0-.661.216-1.227.647-1.696.433-.471.953-.705 1.562-.705.294 0 .529.074.706.223.176.148.265.346.265.595 0 .408-.245.77-.736 1.084-.493.315-1.058.471-1.695.471zm.027-.328c.477-.024.886-.161 1.227-.41.341-.248.512-.535.512-.861 0-.291-.13-.438-.39-.438-.311 0-.597.166-.859.499-.262.333-.427.737-.49 1.21z"/><linearGradient gradientUnits="userSpaceOnUse" x1="47.345" y1="19.349" x2="140.674" y2="112.678"><stop offset="0" stop-color="#888"/><stop offset="1" stop-color="#bbb"/></linearGradient><path d="M90.584 60.252c-.472.895-.945 1.596-1.422 2.104s-.897.763-1.265.763c-.267 0-.481-.104-.646-.309-.164-.207-.246-.477-.246-.809 0-.187.034-.451.103-.793l.679-3.423-.231.021c-.522 0-.784-.221-.784-.663v-.079c.273.156.582.234.926.234.344 0 .645-.086.902-.258l-.793 4.119c-.07.369-.105.624-.105.764 0 .385.141.578.424.578.273 0 .548-.154.824-.463.277-.31.73-.968 1.361-1.976l.273.19z"/><linearGradient gradientUnits="userSpaceOnUse" x1="52.844" y1="22.14" x2="145.224" y2="114.52"><stop offset="0" stop-color="#888"/><stop offset="1" stop-color="#bbb"/></linearGradient><path d="M93.686 60.236c-.515.902-1.035 1.609-1.561 2.118-.526.51-.998.765-1.417.765-.255 0-.461-.083-.616-.25-.156-.166-.234-.385-.234-.656 0-.103.022-.266.068-.489l.076-.376c.111-.543.168-.924.168-1.143 0-.13-.039-.236-.117-.318.297-.068.483-.102.559-.102.169 0 .254.118.254.355 0 .175-.033.427-.101.755l-.135.667c-.067.32-.101.529-.101.625 0 .283.119.424.358.424.285 0 .664-.24 1.138-.72.474-.48.933-1.087 1.377-1.823l.284.168zm-3.039-1.722l.048.003c.152-.007.371-.083.658-.23.285-.146.51-.296.671-.448-.1.314-.278.577-.533.789-.388.322-.65.484-.787.484-.091 0-.137-.056-.137-.168 0-.16.027-.303.08-.43z"/><linearGradient gradientUnits="userSpaceOnUse" x1="55.39" y1="21.241" x2="151.854" y2="117.705"><stop offset="0" stop-color="#888"/><stop offset="1" stop-color="#bbb"/></linearGradient><path d="M95.327 61.687c.062.111.092.209.092.292 0 .223-.188.469-.565.737-.377.268-.72.403-1.029.403-.273 0-.496-.122-.668-.365-.172-.244-.258-.559-.258-.943 0-.428.111-1.037.334-1.828l.155-.574h-.573c-.239 0-.43.034-.572.103.131-.238.239-.388.325-.448.086-.062.231-.092.437-.092h.512l.068-.238c.105-.354.232-.596.379-.728s.367-.198.661-.198l.165.007c-.178.229-.363.615-.555 1.157h1.806c.317 0 .56-.041.726-.124-.057.232-.133.384-.228.455-.095.071-.271.106-.528.106h-1.924l-.052.168c-.278.941-.417 1.651-.417 2.131 0 .53.19.795.572.795.196 0 .41-.084.643-.25.23-.168.396-.357.494-.566z"/><linearGradient gradientUnits="userSpaceOnUse" x1="57.344" y1="23.468" x2="159.403" y2="125.527"><stop offset="0" stop-color="#888"/><stop offset="1" stop-color="#bbb"/></linearGradient><path d="M96.006 62.215l.247-.048.36-.048c.199 0 .299.104.299.311l-.034.298-.044.232-.156.027-.398.062c-.162 0-.242-.084-.242-.253l.014-.134.018-.088.014-.123c-.002-.094-.027-.172-.078-.236z"/><linearGradient gradientUnits="userSpaceOnUse" x1="-9.334" y1="34.788" x2="93.174" y2="137.296"><stop offset="0" stop-color="#888"/><stop offset="1" stop-color="#bbb"/></linearGradient><path d="M37.795 83.8c-.055-.118-.082-.24-.082-.366 0-.409.313-.776.939-1.102.627-.324 1.336-.486 2.129-.486.834 0 1.49.185 1.97.555.479.369.72.875.72 1.519 0 .854-.372 1.608-1.117 2.261-.395.345-.887.627-1.478.846-.591.219-1.157.328-1.696.328-.52 0-.779-.195-.779-.586 0-.141.044-.434.133-.876l.442-2.235c.038-.191.058-.33.058-.414 0-.08-.027-.153-.082-.22.305-.114.516-.171.635-.171.142 0 .213.082.213.246 0 .039-.037.238-.109.6l-.375 1.872c-.094.478-.141.777-.141.9 0 .137.046.229.139.278.092.049.266.073.521.074.828-.001 1.521-.254 2.079-.758.558-.504.838-1.129.839-1.875-.001-.577-.204-1.039-.609-1.385-.405-.347-.945-.521-1.619-.521-.55.001-1.062.134-1.537.398-.477.263-.874.636-1.193 1.118z"/><linearGradient gradientUnits="userSpaceOnUse" x1="-3.931" y1="34.418" x2="106.617" y2="144.966"><stop offset="0" stop-color="#888"/><stop offset="1" stop-color="#bbb"/></linearGradient><path d="M47.764 84.518l.01.146c0 .658-.224 1.231-.67 1.721-.446.49-.969.734-1.568.734-.457 0-.83-.146-1.119-.438-.287-.292-.432-.672-.432-1.138 0-.531.187-.99.56-1.379.372-.39.812-.584 1.318-.584l.246.03c-.057-.103-.085-.19-.085-.261 0-.11.037-.216.112-.316.556.046 1.017.331 1.386.855.379.258.773.387 1.184.387.268 0 .556-.09.866-.271l.171.291c-.363.252-.735.378-1.116.378-.254.001-.542-.052-.863-.155zm-.775-.29c-.188-.058-.363-.148-.522-.274l-.289-.037c-.386.001-.729.175-1.026.522-.297.347-.447.744-.448 1.189.001.323.092.589.271.796.179.207.412.312.696.312.384-.001.714-.195.991-.582.276-.387.415-.849.416-1.385-.001-.186-.03-.367-.089-.541z"/><linearGradient gradientUnits="userSpaceOnUse" x1="6.26" y1="39.557" x2="110.99" y2="144.287"><stop offset="0" stop-color="#888"/><stop offset="1" stop-color="#bbb"/></linearGradient><path d="M49.927 85.801c.812-1.709 1.54-2.564 2.188-2.564.505 0 .758.5.758 1.501l.007.413c0 .478.024.808.073.991.049.183.139.274.269.274.196 0 .419-.155.669-.466.249-.31.655-.935 1.219-1.872l.287.166c-.502.945-.951 1.646-1.349 2.104-.396.457-.753.686-1.067.686-.29 0-.493-.14-.61-.42-.118-.279-.177-.764-.177-1.453v-.293c0-.373-.024-.636-.072-.787-.048-.15-.132-.227-.251-.227-.302 0-.789.6-1.46 1.798l-.319.566c-.177.305-.265.525-.265.662l.046.157c-.133.055-.244.082-.334.082-.23 0-.345-.127-.345-.383 0-.072.03-.4.091-.983l.076-.741c.034-.314.052-.559.052-.731 0-.241-.056-.432-.167-.57l.24-.084c.142-.052.255-.077.339-.077.179 0 .268.13.268.389 0 .137-.018.371-.053.703l-.021.208-.092.951z"/><linearGradient gradientUnits="userSpaceOnUse" x1="14.28" y1="42.64" x2="116.349" y2="144.709"><stop offset="0" stop-color="#888"/><stop offset="1" stop-color="#bbb"/></linearGradient><path d="M55.136 85.609c0 .668.282 1.002.847 1.002.49 0 1.029-.233 1.619-.701.59-.467 1.122-1.082 1.596-1.846l.29.16c-.446.836-1.026 1.526-1.741 2.074-.714.547-1.391.82-2.031.82-.41 0-.734-.133-.972-.396-.238-.265-.357-.627-.357-1.085 0-.661.216-1.227.647-1.696.433-.471.953-.705 1.562-.705.294 0 .529.074.706.223.176.148.265.346.265.595 0 .408-.245.77-.736 1.084-.493.315-1.058.471-1.695.471zm.027-.328c.477-.024.886-.161 1.227-.41.341-.248.512-.535.512-.861 0-.291-.13-.438-.39-.438-.311 0-.597.166-.859.499-.262.333-.426.737-.49 1.21z"/><linearGradient gradientUnits="userSpaceOnUse" x1="21.093" y1="45.395" x2="120.726" y2="145.028"><stop offset="0" stop-color="#888"/><stop offset="1" stop-color="#bbb"/></linearGradient><path d="M63.48 84.242c-.552.926-1.136 1.655-1.754 2.188-.617.533-1.19.799-1.719.799-.44 0-.797-.15-1.07-.452-.273-.301-.41-.692-.41-1.175 0-.634.235-1.187.707-1.658.472-.471 1.025-.707 1.661-.707.258 0 .469.05.634.149.165.099.248.226.248.379 0 .252-.212.44-.636.566l.034-.157c0-.37-.196-.555-.59-.555-.34 0-.654.189-.941.57-.286.379-.43.795-.43 1.246 0 .368.096.668.285.898.191.232.438.348.744.348.84 0 1.822-.87 2.949-2.611l.288.172z"/><linearGradient gradientUnits="userSpaceOnUse" x1="29.087" y1="46.393" x2="133.89" y2="151.195"><stop offset="0" stop-color="#888"/><stop offset="1" stop-color="#bbb"/></linearGradient><path d="M67.831 84.945c-.292.604-.652 1.117-1.081 1.54-.428.423-.801.634-1.118.634-.242 0-.436-.107-.58-.323-.146-.216-.218-.503-.218-.86 0-.714.216-1.342.648-1.885.432-.543.934-.814 1.502-.814.345 0 .718.107 1.119.322.06-.213.301-.318.724-.318l.133.003c-.13.198-.229.47-.297.815l-.059.291c-.065.324-.099.703-.099 1.137 0 .5.116.75.349.75.245 0 .582-.206 1.009-.618.428-.411.847-.937 1.259-1.573l.267.186c-.421.753-.902 1.381-1.444 1.884-.542.503-1.007.755-1.396.755-.491 0-.737-.41-.737-1.232-.001-.173.005-.404.019-.694zm.16-.818c-.48-.312-.879-.469-1.197-.469-.345 0-.644.209-.896.627-.251.418-.377.914-.377 1.488 0 .459.15.689.453.689.326 0 .952-.715 1.876-2.145l.141-.19z"/><linearGradient gradientUnits="userSpaceOnUse" x1="37.839" y1="50.201" x2="131.168" y2="143.53"><stop offset="0" stop-color="#888"/><stop offset="1" stop-color="#bbb"/></linearGradient><path d="M74.226 84.252c-.472.895-.945 1.596-1.422 2.104-.476.509-.897.763-1.265.763-.267 0-.481-.104-.646-.309-.164-.207-.246-.477-.246-.809 0-.187.034-.451.103-.793l.679-3.423-.231.021c-.523 0-.784-.221-.784-.663v-.079c.273.156.582.234.926.234.345 0 .645-.086.902-.258l-.792 4.119c-.071.369-.106.624-.106.764 0 .385.142.578.424.578.272 0 .548-.154.824-.463.277-.31.73-.968 1.361-1.976l.273.19z"/><linearGradient gradientUnits="userSpaceOnUse" x1="43.276" y1="52.931" x2="135.632" y2="145.287"><stop offset="0" stop-color="#888"/><stop offset="1" stop-color="#bbb"/></linearGradient><path d="M77.327 84.236c-.515.902-1.035 1.609-1.561 2.118-.526.51-.998.765-1.417.765-.255 0-.461-.083-.617-.25-.155-.166-.233-.385-.233-.656 0-.103.022-.266.068-.489l.076-.376c.112-.543.168-.924.168-1.143 0-.13-.039-.236-.116-.318.297-.068.482-.102.558-.102.169 0 .254.118.254.355 0 .175-.033.427-.101.755l-.135.667c-.067.32-.101.529-.101.625 0 .283.119.424.358.424.285 0 .664-.24 1.138-.72.474-.48.933-1.087 1.377-1.823l.284.168zm-3.038-1.722l.048.003c.152-.007.372-.083.657-.23.286-.146.511-.296.672-.448-.1.314-.278.577-.533.789-.388.322-.65.484-.787.484-.091 0-.137-.056-.137-.168 0-.16.026-.303.08-.43z"/><linearGradient gradientUnits="userSpaceOnUse" x1="49.366" y1="56.077" x2="142.753" y2="149.464"><stop offset="0" stop-color="#888"/><stop offset="1" stop-color="#bbb"/></linearGradient><path d="M79.279 85.021c-.787 1.398-1.508 2.098-2.165 2.098-.241 0-.434-.107-.577-.323-.145-.216-.216-.503-.216-.864 0-.713.215-1.341.645-1.883.43-.541.929-.812 1.496-.812.338 0 .707.107 1.108.322.065-.209.322-.314.77-.314h.099c-.132.221-.229.486-.291.797l-.804 4.042c-.057.285-.085.533-.085.745 0 .135.029.256.089.365-.23.076-.406.113-.527.113-.187 0-.28-.107-.28-.321 0-.166.038-.438.113-.816l.625-3.149zm.178-.895c-.477-.312-.872-.468-1.185-.468-.343 0-.639.209-.889.629-.25.419-.375.914-.375 1.486 0 .459.149.689.448.689.327 0 .951-.715 1.873-2.146l.128-.19z"/><linearGradient gradientUnits="userSpaceOnUse" x1="51.831" y1="53.134" x2="156.04" y2="157.344"><stop offset="0" stop-color="#888"/><stop offset="1" stop-color="#bbb"/></linearGradient><path d="M83.932 84.923c-.314.651-.666 1.181-1.053 1.587-.388.406-.735.609-1.043.609-.249 0-.45-.088-.605-.264-.155-.175-.232-.402-.232-.684 0-.359.121-1.021.362-1.982.065-.26.099-.424.099-.492l-.064-.223.476-.003c.205 0 .308.078.308.235 0 .098-.066.379-.201.843l-.079.286-.052.209c-.102.416-.152.733-.152.952 0 .337.116.505.349.505.381 0 .863-.471 1.449-1.412.479-.768.718-1.313.718-1.639l-.041-.137c.187-.052.345-.078.475-.078.2 0 .301.062.301.184l-.027.13-.065.249-.069.275-.064.266-.035.164c-.075.375-.113.727-.113 1.053 0 .5.121.75.362.75.533 0 1.21-.75 2.03-2.249l.287.171c-.934 1.797-1.787 2.695-2.562 2.695-.521 0-.782-.453-.782-1.357-.005-.171.004-.385.023-.643z"/><linearGradient gradientUnits="userSpaceOnUse" x1="59.337" y1="55.838" x2="161.433" y2="157.934"><stop offset="0" stop-color="#888"/><stop offset="1" stop-color="#bbb"/></linearGradient><path d="M86.994 85.609c0 .668.282 1.002.848 1.002.489 0 1.028-.233 1.618-.701.59-.467 1.122-1.082 1.596-1.846l.29.16c-.446.836-1.027 1.526-1.741 2.074-.714.547-1.391.82-2.031.82-.41 0-.734-.133-.972-.396-.238-.265-.357-.627-.357-1.085 0-.661.216-1.227.647-1.696.433-.471.952-.705 1.562-.705.294 0 .529.074.706.223.177.149.265.346.265.595 0 .408-.245.77-.736 1.084-.493.315-1.057.471-1.695.471zm.027-.328c.477-.024.886-.161 1.227-.41.341-.248.512-.535.512-.861 0-.291-.13-.438-.391-.438-.31 0-.596.166-.858.499-.262.333-.426.737-.49 1.21z"/><linearGradient gradientUnits="userSpaceOnUse" x1="65.62" y1="57.818" x2="162.062" y2="154.26"><stop offset="0" stop-color="#888"/><stop offset="1" stop-color="#bbb"/></linearGradient><path d="M92.979 85.687c.062.111.092.209.092.292 0 .223-.188.469-.565.737-.377.268-.72.403-1.029.403-.273 0-.496-.122-.668-.365-.172-.244-.258-.559-.258-.943 0-.428.111-1.037.334-1.828l.155-.574h-.573c-.239 0-.43.034-.572.103.131-.238.239-.388.325-.448.086-.062.231-.092.437-.092h.512l.068-.238c.105-.354.232-.596.379-.728s.367-.198.661-.198l.165.007c-.178.229-.363.615-.555 1.157h1.806c.317 0 .56-.041.726-.124-.057.232-.133.384-.228.455-.095.071-.271.106-.528.106h-1.924l-.052.168c-.278.941-.417 1.651-.417 2.131 0 .53.19.795.572.795.196 0 .41-.084.643-.25.231-.168.396-.357.494-.566z"/><linearGradient gradientUnits="userSpaceOnUse" x1="2.064" y1="57.695" x2="96.223" y2="151.854"><stop offset="0" stop-color="#888"/><stop offset="1" stop-color="#bbb"/></linearGradient><path d="M40.932 97.032c-.355.641-.728 1.149-1.116 1.524-.388.375-.735.562-1.04.562-.244 0-.438-.106-.582-.32-.143-.213-.215-.498-.215-.856 0-.721.214-1.352.643-1.894.429-.541.927-.812 1.495-.812.339 0 .71.108 1.111.326l.368-1.841c-.201.041-.368.062-.501.062-.202 0-.35-.047-.443-.142-.093-.095-.169-.271-.227-.53.165.109.417.164.759.164.423 0 .831-.078 1.225-.234l-.748 3.748c-.085.419-.127.775-.127 1.07 0 .392.111.588.334.588.219 0 .582-.256 1.091-.77.509-.512.933-1.049 1.271-1.609l.28.178c-.405.743-.912 1.408-1.52 1.994-.608.586-1.092.879-1.454.879-.46 0-.69-.369-.69-1.108 0-.306.028-.632.086-.979zm.181-.905c-.475-.312-.869-.469-1.184-.469-.343 0-.639.209-.889.629-.25.419-.375.914-.375 1.486 0 .459.15.689.452.689.323 0 .946-.715 1.869-2.145l.127-.19z"/><linearGradient gradientUnits="userSpaceOnUse" x1="8.867" y1="60.241" x2="101.223" y2="152.597"><stop offset="0" stop-color="#888"/><stop offset="1" stop-color="#bbb"/></linearGradient><path d="M47.607 96.236c-.515.902-1.035 1.609-1.561 2.118-.526.51-.998.765-1.417.765-.255 0-.461-.083-.616-.25-.156-.166-.234-.385-.234-.656 0-.103.022-.266.068-.489l.076-.376c.111-.543.168-.924.168-1.143 0-.13-.039-.236-.117-.318.297-.068.483-.102.559-.102.169 0 .254.118.254.355 0 .175-.033.427-.101.755l-.135.667c-.067.32-.101.529-.101.625 0 .283.119.424.358.424.285 0 .664-.24 1.138-.72.474-.48.933-1.087 1.377-1.823l.284.168zm-3.038-1.722l.048.003c.152-.007.371-.083.658-.23.285-.146.51-.296.671-.448-.1.314-.278.577-.533.789-.388.322-.65.484-.787.484-.091 0-.137-.056-.137-.168 0-.16.027-.303.08-.43z"/><linearGradient gradientUnits="userSpaceOnUse" x1="10.431" y1="57.969" x2="115.21" y2="162.748"><stop offset="0" stop-color="#888"/><stop offset="1" stop-color="#bbb"/></linearGradient><path d="M49.599 96.945c-.292.604-.652 1.117-1.081 1.54-.428.423-.801.634-1.118.634-.242 0-.436-.107-.58-.323-.146-.216-.218-.503-.218-.86 0-.714.216-1.342.648-1.885.432-.543.934-.814 1.502-.814.345 0 .718.107 1.119.322.06-.213.301-.318.724-.318l.133.003c-.13.198-.229.47-.297.815l-.059.291c-.065.324-.099.703-.099 1.137 0 .5.116.75.349.75.245 0 .582-.206 1.009-.618.428-.411.847-.937 1.259-1.573l.267.186c-.421.753-.902 1.381-1.444 1.884-.542.503-1.007.755-1.396.755-.491 0-.737-.41-.737-1.232-.002-.173.005-.404.019-.694zm.16-.818c-.48-.312-.879-.469-1.197-.469-.345 0-.644.209-.896.627-.251.418-.377.914-.377 1.488 0 .459.15.689.453.689.326 0 .952-.715 1.876-2.145l.141-.19z"/><linearGradient gradientUnits="userSpaceOnUse" x1="18.707" y1="59.651" x2="126.546" y2="167.489"><stop offset="0" stop-color="#888"/><stop offset="1" stop-color="#bbb"/></linearGradient><path d="M53.343 97.83c.823-1.729 1.551-2.594 2.182-2.594.276 0 .415.199.415.598 0 .17-.061.555-.183 1.153l-.21 1.034c.398-.838.813-1.512 1.246-2.021.433-.509.806-.764 1.12-.764.346 0 .519.203.519.607 0 .146-.051.48-.152 1.002l-.104.532c-.063.321-.095.56-.095.714 0 .273.097.41.29.41.438 0 1.109-.812 2.017-2.434l.287.16c-.988 1.927-1.852 2.891-2.59 2.891-.472 0-.707-.308-.707-.923 0-.205.045-.534.134-.988l.093-.472c.062-.319.094-.518.094-.596 0-.098-.05-.146-.15-.146-.246 0-.687.488-1.321 1.467-.576.891-.864 1.4-.864 1.527l.014.072-.167.043-.153.016c-.213 0-.318-.102-.318-.304 0-.062.034-.247.104-.557l.076-.358.146-.724c.106-.521.159-.833.159-.938 0-.152-.056-.229-.168-.229-.246 0-.607.44-1.086 1.322-.477.874-.715 1.396-.715 1.564l.054.14c-.126.056-.241.083-.346.083-.237 0-.356-.127-.356-.383l.101-.994.078-.728c.026-.255.04-.49.04-.707 0-.272-.055-.474-.165-.601.264-.096.45-.143.56-.143.2 0 .301.118.301.354 0 .084-.027.396-.081.937l-.099.978z"/><linearGradient gradientUnits="userSpaceOnUse" x1="32.435" y1="64.483" x2="136.664" y2="168.712"><stop offset="0" stop-color="#888"/><stop offset="1" stop-color="#bbb"/></linearGradient><path d="M65.188 96.923c-.314.651-.666 1.181-1.053 1.587-.388.406-.735.609-1.043.609-.249 0-.45-.088-.605-.264-.155-.175-.232-.402-.232-.684 0-.359.121-1.021.362-1.982.065-.26.099-.424.099-.492l-.064-.223.476-.003c.205 0 .308.078.308.235 0 .098-.066.379-.201.843l-.079.286-.052.209c-.102.416-.152.733-.152.952 0 .337.116.505.349.505.381 0 .863-.471 1.449-1.412.479-.768.718-1.313.718-1.639l-.041-.137c.187-.052.345-.078.475-.078.2 0 .301.062.301.184l-.027.13-.065.249-.069.275-.064.266-.035.164c-.075.375-.113.727-.113 1.053 0 .5.121.75.362.75.533 0 1.21-.75 2.03-2.249l.287.171c-.934 1.797-1.787 2.695-2.562 2.695-.521 0-.782-.453-.782-1.357-.005-.171.004-.385.023-.643z"/><linearGradient gradientUnits="userSpaceOnUse" x1="40.578" y1="67.616" x2="137.02" y2="164.058"><stop offset="0" stop-color="#888"/><stop offset="1" stop-color="#bbb"/></linearGradient><path d="M70.14 97.687c.062.111.092.209.092.292 0 .223-.188.469-.565.737-.377.268-.72.403-1.029.403-.273 0-.496-.122-.668-.365-.172-.244-.258-.559-.258-.943 0-.428.111-1.037.334-1.828l.155-.574h-.573c-.239 0-.43.034-.572.103.131-.238.239-.388.325-.448.086-.062.231-.092.437-.092h.512l.068-.238c.105-.354.232-.596.379-.728s.367-.198.661-.198l.165.007c-.178.229-.363.615-.555 1.157h1.806c.317 0 .56-.041.726-.124-.057.232-.133.384-.228.455-.095.071-.271.106-.528.106h-1.924l-.052.168c-.278.941-.417 1.651-.417 2.131 0 .53.19.795.572.795.196 0 .41-.084.643-.25.23-.168.395-.357.494-.566z"/><linearGradient gradientUnits="userSpaceOnUse" x1="47.662" y1="69.469" x2="149.731" y2="171.538"><stop offset="0" stop-color="#888"/><stop offset="1" stop-color="#bbb"/></linearGradient><path d="M73.688 97.609c0 .668.282 1.002.847 1.002.49 0 1.029-.233 1.619-.701.59-.467 1.122-1.082 1.596-1.846l.29.16c-.446.836-1.026 1.526-1.741 2.074-.714.547-1.391.82-2.031.82-.41 0-.734-.133-.972-.396-.238-.265-.357-.627-.357-1.085 0-.661.216-1.227.647-1.696.433-.471.953-.705 1.562-.705.294 0 .529.074.706.223.176.148.265.346.265.595 0 .408-.245.77-.736 1.084-.492.315-1.057.471-1.695.471zm.028-.328c.477-.024.886-.161 1.227-.41.341-.248.512-.535.512-.861 0-.291-.13-.438-.39-.438-.311 0-.597.166-.859.499-.262.333-.427.737-.49 1.21z"/><linearGradient gradientUnits="userSpaceOnUse" x1="53.907" y1="70.91" x2="158.658" y2="175.661"><stop offset="0" stop-color="#888"/><stop offset="1" stop-color="#bbb"/></linearGradient><path d="M78.221 97.801c.812-1.709 1.541-2.564 2.188-2.564.505 0 .758.5.758 1.501l.007.413c0 .478.024.808.073.991.049.183.139.274.269.274.196 0 .419-.155.669-.466.249-.31.655-.935 1.219-1.872l.287.166c-.502.945-.951 1.646-1.349 2.104-.396.457-.753.686-1.067.686-.29 0-.493-.14-.611-.42-.117-.279-.176-.764-.176-1.453v-.293c0-.373-.024-.636-.072-.787-.048-.15-.132-.227-.251-.227-.302 0-.789.6-1.46 1.798l-.319.566c-.177.305-.265.525-.265.662l.045.157c-.131.055-.242.082-.334.082-.229 0-.344-.127-.344-.383 0-.072.03-.4.09-.983l.077-.741c.034-.314.052-.559.052-.731 0-.241-.056-.432-.167-.57l.24-.084c.142-.052.255-.077.339-.077.179 0 .268.13.268.389 0 .137-.018.371-.053.703l-.021.208-.092.951z"/><linearGradient gradientUnits="userSpaceOnUse" x1="62.734" y1="74.935" x2="155.089" y2="167.29"><stop offset="0" stop-color="#888"/><stop offset="1" stop-color="#bbb"/></linearGradient><path d="M86.781 96.236c-.515.902-1.035 1.609-1.561 2.118-.526.51-.998.765-1.417.765-.255 0-.461-.083-.616-.25-.156-.166-.234-.385-.234-.656 0-.103.022-.266.068-.489l.076-.376c.111-.543.168-.924.168-1.143 0-.13-.039-.236-.117-.318.297-.068.483-.102.559-.102.169 0 .254.118.254.355 0 .175-.033.427-.101.755l-.135.667c-.067.32-.101.529-.101.625 0 .283.119.424.358.424.285 0 .664-.24 1.138-.72.474-.48.933-1.087 1.377-1.823l.284.168zm-3.038-1.722l.048.003c.152-.007.371-.083.658-.23.285-.146.51-.296.671-.448-.1.314-.278.577-.533.789-.388.322-.65.484-.787.484-.091 0-.137-.056-.137-.168 0-.16.026-.303.08-.43z"/><linearGradient gradientUnits="userSpaceOnUse" x1="67.071" y1="74.382" x2="174.91" y2="182.22"><stop offset="0" stop-color="#888"/><stop offset="1" stop-color="#bbb"/></linearGradient><path d="M86.976 97.83c.823-1.729 1.551-2.594 2.182-2.594.276 0 .415.199.415.598 0 .17-.061.555-.183 1.153l-.21 1.034c.398-.838.813-1.512 1.246-2.021.433-.509.806-.764 1.12-.764.346 0 .519.203.519.607 0 .146-.051.48-.152 1.002l-.104.532c-.063.321-.095.56-.095.714 0 .273.097.41.29.41.438 0 1.109-.812 2.017-2.434l.287.16c-.988 1.927-1.852 2.891-2.59 2.891-.472 0-.707-.308-.707-.923 0-.205.045-.534.134-.988l.093-.472c.062-.319.094-.518.094-.596 0-.098-.05-.146-.15-.146-.246 0-.687.488-1.321 1.467-.576.891-.864 1.4-.864 1.527l.014.072-.167.043-.153.016c-.213 0-.318-.102-.318-.304 0-.062.034-.247.104-.557l.076-.358.146-.724c.106-.521.159-.833.159-.938 0-.152-.056-.229-.168-.229-.246 0-.607.44-1.086 1.322-.477.874-.715 1.396-.715 1.564l.054.14c-.126.056-.241.083-.346.083-.237 0-.356-.127-.356-.383l.101-.994.078-.728c.026-.255.04-.49.04-.707 0-.272-.055-.474-.165-.601.264-.096.45-.143.56-.143.2 0 .301.118.301.354 0 .084-.027.396-.081.937l-.099.978z"/><linearGradient gradientUnits="userSpaceOnUse" x1="75.279" y1="79.86" x2="177.338" y2="181.919"><stop offset="0" stop-color="#888"/><stop offset="1" stop-color="#bbb"/></linearGradient><path d="M93.549 98.215l.247-.048.36-.048c.199 0 .299.104.299.311l-.034.298-.044.232-.156.027-.398.062c-.162 0-.242-.084-.242-.253l.014-.134.018-.088.014-.123c-.002-.094-.027-.172-.078-.236z"/></g><g transform="matrix(1.021 0 0 1 -.671 .875)" opacity=".5"><linearGradient y2="27.125" x2="75.753" y1="27.125" x1="-78.872" gradientUnits="userSpaceOnUse"><stop offset=".101" stop-color="#2C72C7"/><stop offset=".347" stop-color="#417FCA"/><stop offset=".679" stop-color="#598ECE"/><stop offset=".888" stop-color="#6193CF"/></linearGradient><path fill="url(#j)" d="M32.005 26.859h70.532v.532h-70.532z"/></g><g transform="matrix(1.021 0 0 1 -.671 12.875)" opacity=".5" fill="url(#k)"><linearGradient gradientUnits="userSpaceOnUse" x1="-78.872" y1="27.125" x2="75.753" y2="27.125"><stop offset=".101" stop-color="#2C72C7" fill="url(#k)"/><stop offset=".347" stop-color="#417FCA" fill="url(#k)"/><stop offset=".679" stop-color="#598ECE" fill="url(#k)"/><stop offset=".888" stop-color="#6193CF" fill="url(#k)"/></linearGradient><path d="M32.005 26.859h70.532v.532h-70.532z"/></g><g transform="matrix(1.021 0 0 1 -.671 24.875)" opacity=".5" fill="url(#l)"><linearGradient y2="27.125" x2="75.753" y1="27.125" x1="-78.872" gradientUnits="userSpaceOnUse"><stop offset=".101" stop-color="#2C72C7" fill="url(#l)"/><stop offset=".347" stop-color="#417FCA" fill="url(#l)"/><stop offset=".679" stop-color="#598ECE" fill="url(#l)"/><stop offset=".888" stop-color="#6193CF" fill="url(#l)"/></linearGradient><path d="M32.005 26.859h70.532v.532h-70.532z"/></g><g transform="matrix(1.021 0 0 1 -.671 36.875)" opacity=".5" fill="url(#m)"><linearGradient gradientUnits="userSpaceOnUse" x1="-78.872" y1="27.125" x2="75.753" y2="27.125"><stop offset=".101" stop-color="#2C72C7" fill="url(#m)"/><stop offset=".347" stop-color="#417FCA" fill="url(#m)"/><stop offset=".679" stop-color="#598ECE" fill="url(#m)"/><stop offset=".888" stop-color="#6193CF" fill="url(#m)"/></linearGradient><path d="M32.005 26.859h70.532v.532h-70.532z"/></g><g transform="matrix(1.021 0 0 1 -.671 60.875)" opacity=".5" fill="url(#n)"><linearGradient y2="27.125" x2="75.753" y1="27.125" x1="-78.872" gradientUnits="userSpaceOnUse"><stop offset=".101" stop-color="#2C72C7" fill="url(#n)"/><stop offset=".347" stop-color="#417FCA" fill="url(#n)"/><stop offset=".679" stop-color="#598ECE" fill="url(#n)"/><stop offset=".888" stop-color="#6193CF" fill="url(#n)"/></linearGradient><path d="M32.005 26.859h70.532v.532h-70.532z"/></g><g transform="matrix(.851 0 0 1 4.774 72.875)" opacity=".5" fill="url(#o)"><linearGradient gradientUnits="userSpaceOnUse" x1="-78.872" y1="27.125" x2="75.753" y2="27.125"><stop offset=".101" stop-color="#2C72C7" fill="url(#o)"/><stop offset=".347" stop-color="#417FCA" fill="url(#o)"/><stop offset=".679" stop-color="#598ECE" fill="url(#o)"/><stop offset=".888" stop-color="#6193CF" fill="url(#o)"/></linearGradient><path d="M32.005 26.859h70.532v.532h-70.532z"/></g><path d="M81.88 115.482l24.31-24.31s-9.353 2.913-19.603 2.913c0 10.25-4.706 21.396-4.706 21.396z" clip-path="url(#p)" opacity=".4" filter="url(#q)"/><path d="M79.172 119.5s11.914-9.914 17.414-15.414c5.5-5.5 15.414-17.414 15.414-17.414s-13.75 8.828-24 8.828c0 10.25-8.828 24-8.828 24z" fill="url(#r)"/></svg>