<svg xmlns="http://www.w3.org/2000/svg" xmlns:cc="http://web.resource.org/cc/" xmlns:svg="http://www.w3.org/2000/svg" xmlns:xlink="http://www.w3.org/1999/xlink" id="svg2606" width="128" height="128" version="1.0"><defs id="defs2608"><linearGradient id="linearGradient2973" x1="28" x2="28" y1="57.5" y2="0" gradientUnits="userSpaceOnUse"><stop id="stop2975" offset="0" style="stop-color:#2c72c7;stop-opacity:1"/><stop id="stop2977" offset="1" style="stop-color:#0057ae;stop-opacity:1"/></linearGradient><linearGradient id="linearGradient2086" x1="86.435" x2="22.813" y1="76.831" y2="8.954" gradientUnits="userSpaceOnUse" xlink:href="#linearGradient2973"/><linearGradient id="linearGradient10207"><stop style="stop-color:#a2a2a2;stop-opacity:1" id="stop10209" offset="0"/><stop style="stop-color:#fff;stop-opacity:1" id="stop10211" offset="1"/></linearGradient><linearGradient id="XMLID_12_" x1="96" x2="88" y1="104" y2="96" gradientUnits="userSpaceOnUse"><stop style="stop-color:#888a85" id="stop83" offset="0"/><stop style="stop-color:#8c8e89" id="stop85" offset=".007"/><stop style="stop-color:#abaca9" id="stop87" offset=".067"/><stop style="stop-color:#c5c6c4" id="stop89" offset=".135"/><stop style="stop-color:#dbdbda" id="stop91" offset=".265"/><stop style="stop-color:#ebebeb" id="stop93" offset=".376"/><stop style="stop-color:#f7f7f6" id="stop95" offset=".487"/><stop style="stop-color:#fdfdfd" id="stop97" offset=".632"/><stop style="stop-color:#fff" id="stop99" offset="1"/></linearGradient><radialGradient id="XMLID_8_" cx="102" cy="112.305" r="139.559" gradientUnits="userSpaceOnUse"><stop style="stop-color:#b7b8b9;stop-opacity:1" id="stop41" offset="0"/><stop style="stop-color:#ececec" id="stop47" offset=".189"/><stop style="stop-color:#fafafa" id="stop49" offset=".257"/><stop style="stop-color:#fff" id="stop51" offset=".301"/><stop style="stop-color:#fafafa" id="stop53" offset=".531"/><stop style="stop-color:#ebecec" id="stop55" offset=".845"/><stop style="stop-color:#e1e2e3" id="stop57" offset="1"/></radialGradient><filter id="filter6697" width="1.384" height="1.384" x="-.192" y="-.192"><feGaussianBlur id="feGaussianBlur6699" stdDeviation="1.945"/></filter><clipPath id="clipPath7084" clipPathUnits="userSpaceOnUse"><path style="fill:#000;fill-opacity:1;fill-rule:evenodd;stroke:none;stroke-width:1px;stroke-linecap:butt;stroke-linejoin:miter;stroke-opacity:1" id="path7086" d="M 72,88 L 40,120 L 32,120 L 32,80 L 72,80 L 72,88 z"/></clipPath><radialGradient id="radialGradient9437" cx="102" cy="112.305" r="139.559" gradientTransform="matrix(1,0,0,0.9996653,2e-6,3.0160848e-3)" gradientUnits="userSpaceOnUse" xlink:href="#XMLID_8_"/><linearGradient id="linearGradient10213" x1="98.617" x2="91.229" y1="106.414" y2="99.255" gradientUnits="userSpaceOnUse" xlink:href="#linearGradient10207"/><filter id="filter2770"><feGaussianBlur id="feGaussianBlur2772" stdDeviation="2.079"/></filter></defs><metadata id="metadata2611"/><g id="layer1"><path style="opacity:.5;fill:#000;fill-opacity:1;filter:url(#filter2770)" id="path7865" d="M 16,8 L 16,120 C 16,120 79.15625,120 79.15625,120 L 79.1875,120 C 79.187503,120 91.09375,110.09375 96.59375,104.59375 C 102.09375,99.09375 112,87.1875 112,87.1875 L 112,87.15625 L 112,8 L 16,8 z" transform="matrix(1.0416667,0,0,1.0267857,-2.6666667,-1.2142891)"/><path style="fill:#fff;fill-opacity:1" id="path34" d="M 16.000001,8 L 16,120 C 16,120 79.146418,120 79.146418,120 L 112,87.14642 L 112,8 L 16.000001,8 z"/><path style="fill:url(#radialGradient9437);fill-opacity:1" id="path59" d="M 18.000002,9.0000034 C 17.449002,9.0000034 17.000002,9.4488534 17.000002,9.9996684 L 17.000002,117.96352 C 17.000002,118.51533 17.449002,118.96318 18.000002,118.96318 L 77.171999,118.96318 C 77.434999,118.96318 79.934679,119.08131 80.12068,118.89438 L 110.707,88.094202 C 110.894,87.907264 111,85.40942 111,85.146508 L 111,9.9996684 C 111,9.4488534 110.552,9.0000034 110,9.0000034 L 18.000002,9.0000034 z"/><path id="path5540" d="M 41.879531,115.98249 C 41.879531,115.98249 66.18914,91.672876 66.18914,91.672876 C 66.18914,91.672876 56.836,94.586 46.586,94.586 C 46.586,104.836 41.879531,115.98249 41.879531,115.98249 z" clip-path="url(#clipPath7084)" transform="translate(40,0)" style="opacity:.4;fill:#000;fill-opacity:1;filter:url(#filter6697)"/><path style="fill:url(#linearGradient10213);fill-opacity:1" id="path14523" d="M 79.172,120 C 79.172,120 91.086,110.086 96.586,104.586 C 102.086,99.086 112,87.172 112,87.172 C 112,87.172 98.25,96 88,96 C 88,106.25 79.172,120 79.172,120 z"/><path id="text2076" d="M 62.842105,28 C 69.438566,28.00007 74.631544,30.070244 78.421053,34.210526 C 80.947326,37.017606 82.210485,40.386024 82.210528,44.315789 C 82.210485,49.157946 79.894696,54.596537 75.263159,60.631581 C 74.421018,61.684251 73.052597,63.368459 71.157895,65.684214 C 67.789444,69.89477 65.57892,74.807045 64.526316,80.421056 C 64.456114,80.912302 64.38594,81.40353 64.315789,81.89474 L 62.526315,81.89474 C 62.666642,76.491254 63.719273,71.508803 65.68421,66.947371 L 68.631579,60.210528 C 71.228037,54.245661 72.526282,48.771981 72.526316,43.789473 C 72.526282,39.228131 70.806986,35.684274 67.36842,33.157894 C 65.543832,31.824628 63.473658,31.157962 61.157895,31.157894 C 57.508752,31.157962 54.631562,32.280768 52.526315,34.526317 C 51.614021,35.579011 51.15788,36.631642 51.157894,37.684211 C 51.15788,38.315851 51.894722,39.543919 53.36842,41.368421 C 54.561386,42.982513 55.157877,44.350934 55.157894,45.473685 C 55.157877,47.649175 54.175422,49.017596 52.210526,49.578948 C 51.789459,49.719349 51.33332,49.789525 50.842103,49.789475 C 47.473673,49.789525 45.789465,47.614088 45.789472,43.26316 C 45.789465,37.929885 48.070165,33.789539 52.631576,30.842104 C 55.578928,28.947438 58.982435,28.00007 62.842105,28 M 63.578947,88.736839 C 65.894709,88.736854 67.578918,89.82458 68.631579,92.00001 C 69.052602,92.77194 69.263127,93.61404 69.263159,94.52631 C 69.263127,97.05264 68.070146,98.73684 65.68421,99.57894 C 64.98243,99.85965 64.245588,100 63.473684,100 C 60.87717,100 59.157873,98.8772 58.315788,96.63158 C 58.105243,96.00001 57.99998,95.33335 57.999998,94.63158 C 57.99998,91.96492 59.122785,90.14037 61.36842,89.157906 C 62.070151,88.877214 62.806993,88.736854 63.578947,88.736839" style="font-size:74.98017883px;font-style:normal;font-weight:400;fill:url(#linearGradient2086);fill-opacity:1;stroke:none;stroke-width:1px;stroke-linecap:butt;stroke-linejoin:miter;stroke-opacity:1;font-family:Bitstream Vera Sans"/></g></svg>