<svg xmlns="http://www.w3.org/2000/svg" xmlns:xlink="http://www.w3.org/1999/xlink" width="128" height="128" version="1"><defs><linearGradient x2="28" y1="57.5" x1="28" gradientUnits="userSpaceOnUse" id="a"><stop offset="0" stop-color="#2c72c7"/><stop offset="1" stop-color="#0057ae"/></linearGradient><linearGradient xlink:href="#a" id="i" x1="86.435" y1="76.831" x2="22.813" y2="8.954" gradientUnits="userSpaceOnUse"/><linearGradient id="c"><stop offset="0" stop-color="#a2a2a2"/><stop offset="1" stop-color="#fff"/></linearGradient><linearGradient gradientUnits="userSpaceOnUse" x1="96" y1="104" x2="88" y2="96"><stop offset="0" stop-color="#888A85"/><stop offset=".007" stop-color="#8C8E89"/><stop offset=".067" stop-color="#ABACA9"/><stop offset=".135" stop-color="#C5C6C4"/><stop offset=".265" stop-color="#DBDBDA"/><stop offset=".376" stop-color="#EBEBEB"/><stop offset=".487" stop-color="#F7F7F6"/><stop offset=".632" stop-color="#FDFDFD"/><stop offset="1" stop-color="#fff"/></linearGradient><radialGradient id="b" cx="102" cy="112.305" r="139.559" gradientUnits="userSpaceOnUse"><stop offset="0" stop-color="#b7b8b9"/><stop offset=".189" stop-color="#ECECEC"/><stop offset=".257" stop-color="#FAFAFA"/><stop offset=".301" stop-color="#fff"/><stop offset=".531" stop-color="#FAFAFA"/><stop offset=".845" stop-color="#EBECEC"/><stop offset="1" stop-color="#E1E2E3"/></radialGradient><filter x="-.192" width="1.384" y="-.192" height="1.384" id="g"><feGaussianBlur stdDeviation="1.945"/></filter><clipPath id="f"><path d="M72 88l-32 32h-8v-40h40v8z" fill-rule="evenodd"/></clipPath><radialGradient xlink:href="#b" id="e" gradientUnits="userSpaceOnUse" gradientTransform="translate(0 .003)" cx="102" cy="112.305" r="139.559"/><linearGradient xlink:href="#c" id="h" x1="98.617" y1="106.414" x2="91.229" y2="99.255" gradientUnits="userSpaceOnUse"/><filter id="d"><feGaussianBlur stdDeviation="2.079"/></filter></defs><path d="M14 7v115h65.821s12.402-10.172 18.132-15.819c5.729-5.647 16.048-17.872 16.048-17.872v-81.309h-100z" opacity=".5" filter="url(#d)"/><path d="M16 8v112h63.146l32.854-32.854v-79.146h-96z" fill="#fff"/><path d="M18 9c-.551 0-1 .449-1 1v107.964c0 .552.449 1 1 1h59.172c.263 0 2.763.118 2.949-.069l30.586-30.8c.187-.187.293-2.685.293-2.948v-75.147c0-.551-.448-1-1-1h-92z" fill="url(#e)"/><path d="M81.88 115.982l24.31-24.31s-9.353 2.913-19.603 2.913c0 10.25-4.706 21.396-4.706 21.396z" clip-path="url(#f)" opacity=".4" filter="url(#g)"/><path d="M79.172 120s11.914-9.914 17.414-15.414c5.5-5.5 15.414-17.414 15.414-17.414s-13.75 8.828-24 8.828c0 10.25-8.828 24-8.828 24z" fill="url(#h)"/><path d="M62.842 28c6.596 0 11.789 2.07 15.579 6.211 2.526 2.807 3.789 6.175 3.789 10.105 0 4.842-2.316 10.281-6.947 16.316-.842 1.053-2.211 2.737-4.105 5.053-3.368 4.211-5.579 9.123-6.632 14.737l-.211 1.474h-1.789c.14-5.403 1.193-10.386 3.158-14.947l2.947-6.737c2.596-5.965 3.895-11.439 3.895-16.421 0-4.561-1.719-8.105-5.158-10.632-1.825-1.333-3.895-2-6.211-2-3.649 0-6.526 1.123-8.632 3.368-.912 1.053-1.368 2.105-1.368 3.158 0 .632.737 1.86 2.211 3.684 1.193 1.614 1.789 2.983 1.789 4.105 0 2.175-.982 3.544-2.947 4.105-.421.14-.877.211-1.368.211-3.368 0-5.053-2.175-5.053-6.526 0-5.333 2.281-9.474 6.842-12.421 2.947-1.895 6.351-2.842 10.211-2.842m.737 60.737c2.316 0 4 1.088 5.053 3.263.421.772.632 1.614.632 2.526 0 2.526-1.193 4.211-3.579 5.053-.702.281-1.439.421-2.211.421-2.597 0-4.316-1.123-5.158-3.368-.211-.632-.316-1.298-.316-2 0-2.667 1.123-4.491 3.368-5.474.702-.281 1.439-.421 2.211-.421" font-size="74.98" fill="url(#i)" font-family="Bitstream Vera Sans"/></svg>