<svg xmlns="http://www.w3.org/2000/svg" width="128" height="128" viewBox="0 0 128 128"><defs><filter id="a" color-interpolation-filters="sRGB"><feFlood flood-opacity=".498" flood-color="#000" result="flood"/><feComposite in="flood" in2="SourceGraphic" operator="out" result="composite1"/><feGaussianBlur in="composite1" stdDeviation="1" result="blur"/><feOffset dx="2" dy="2" result="offset"/><feComposite in="offset" in2="SourceGraphic" operator="atop" result="composite2"/></filter></defs><path d="M25.572 13.905c0 9.227 8.46 11.603 8.46 19.991 0 6.011-3.807 8.248-9.447 8.388-5.922 0-11.703-2.377-17.484-2.377h-.423c0 .839 0 1.678-.141 2.516-.705 7.689-2.115 15.518-2.115 23.486 0 5.312 2.115 10.904 8.46 10.904 8.319 0 10.857-8.388 20.163-8.388 8.319 0 12.831 6.571 12.831 14.26 0 7.969-4.371 15.238-13.254 15.238-9.729 0-13.818-7.27-19.176-7.27-2.679 0-5.076 1.678-6.768 3.495-2.256 2.377-2.679 5.732-2.679 8.807 0 6.151.846 12.442 1.833 18.593.282 1.398.423 2.796.564 4.194l.141.979c0 .14 0 .28.141.28h78.114c-.282-.28-.705-4.753-.846-5.452-.987-6.151-1.833-12.302-1.833-18.593 0-3.215.423-6.431 2.679-8.807 1.692-1.817 4.089-3.495 6.768-3.495 5.217 0 9.447 7.27 19.176 7.27 8.742 0 13.254-7.27 13.254-15.378 0-7.689-4.512-14.26-12.831-14.26-9.306 0-11.703 8.388-20.163 8.388-6.204 0-8.46-5.592-8.46-10.904 0-8.668 1.974-17.335 2.397-26.003h-.141c-.282.28-4.794.699-5.64.979-6.204.979-12.408 1.817-18.612 1.817-3.243 0-6.486-.419-8.883-2.656-1.833-1.678-3.525-4.054-3.525-6.71 0-5.173 7.332-9.367 7.332-19.013 0-8.668-7.332-13.141-15.369-13.141-7.896.14-14.523 4.613-14.523 12.862z" fill="#008000" filter="url(#a)"/><path d="M122.793 68.534c-.336 1.684-1.175 4.379-2.349 7.747-1.678 5.053-2.852 8.926-3.356 11.958-.671 2.863-1.007 5.726-1.175 8.758 0 1.01-.168 2.189-.839 3.031-.503.674-1.51 1.011-2.349.842-.671 0-1.51-.168-2.013-.674-.503-.674-.839-1.684-.839-2.526-.168-2.358-.336-4.042-.503-5.053-.168-1.011-.503-2.526-1.007-4.716-.839-3.368-2.013-6.905-3.356-10.779-1.678-4.547-2.685-7.579-3.02-9.263-.503-1.853-.671-3.705-.671-5.558 0-3.032 1.007-6.063 3.02-8.421 2.013-2.526 5.034-4.042 8.222-3.874 3.02 0 5.873 1.347 7.718 3.705 2.181 2.695 3.188 6.063 3.02 9.6 0 1.853-.168 3.537-.503 5.221zm-10.403 57.431c-5.705 0-10.403-4.716-10.403-10.442s4.698-10.442 10.403-10.442 10.403 4.716 10.403 10.442-4.698 10.442-10.403 10.442z" fill="#e5c634"/></svg>