<svg xmlns="http://www.w3.org/2000/svg" xmlns:svg="http://www.w3.org/2000/svg" id="svg2" width="128" height="128" version="1.1" viewBox="0 0 128 128"><defs id="defs4"><filter style="color-interpolation-filters:sRGB" id="filter4201"><feFlood id="feFlood4203" flood-color="#000" flood-opacity=".498" result="flood"/><feComposite id="feComposite4205" in="flood" in2="SourceGraphic" operator="out" result="composite1"/><feGaussianBlur id="feGaussianBlur4207" in="composite1" result="blur" stdDeviation="1"/><feOffset id="feOffset4209" dx="2" dy="2" result="offset"/><feComposite id="feComposite4211" in="offset" in2="SourceGraphic" operator="atop" result="composite2"/></filter></defs><metadata id="metadata7"/><g id="layer1" transform="translate(0,-924.36216)"><g id="g2640" transform="matrix(1.4101058,0,0,-1.3984462,-8.1269117,1059.7528)" style="fill:green;fill-opacity:1;filter:url(#filter4201)"><path id="path2642" d="m 23.9,86.9 c 0,-6.6 6,-8.3 6,-14.3 0,-4.3 -2.7,-5.9 -6.7,-6 -4.2,0 -8.3,1.7 -12.4,1.7 l -0.3,0 c 0,-0.6 0,-1.2 -0.1,-1.8 C 9.9,61 8.9,55.4 8.9,49.7 c 0,-3.8 1.5,-7.8 6,-7.8 5.9,0 7.7,6 14.3,6 5.9,0 9.1,-4.7 9.1,-10.2 C 38.3,32 35.2,26.8 28.9,26.8 22,26.8 19.1,32 15.3,32 13.4,32 11.7,30.8 10.5,29.5 8.9,27.8 8.6,25.4 8.6,23.2 c 0,-4.4 0.6,-8.9 1.3,-13.3 0.2,-1 0.3,-2 0.4,-3 l 0.1,-0.7 c 0,-0.1 0,-0.2 0.1,-0.2 l 55.4,0 c -0.2,0.2 -0.5,3.4 -0.6,3.9 -0.7,4.4 -1.3,8.8 -1.3,13.3 0,2.3 0.3,4.6 1.9,6.3 1.2,1.3 2.9,2.5 4.8,2.5 3.7,0 6.7,-5.2 13.6,-5.2 6.2,0 9.4,5.2 9.4,11 0,5.5 -3.2,10.2 -9.1,10.2 -6.6,0 -8.3,-6 -14.3,-6 -4.4,0 -6,4 -6,7.8 0,6.2 1.4,12.4 1.7,18.6 l -0.1,0 c -0.2,-0.2 -3.4,-0.5 -4,-0.7 -4.4,-0.7 -8.8,-1.3 -13.2,-1.3 -2.3,0 -4.6,0.3 -6.3,1.9 -1.3,1.2 -2.5,2.9 -2.5,4.8 0,3.7 5.2,6.7 5.2,13.6 0,6.2 -5.2,9.4 -10.9,9.4 C 28.6,96 23.9,92.8 23.9,86.9 Z" style="fill:green;fill-opacity:1"/></g><g id="g4163" transform="matrix(1.202086,0,0,1.2024725,35.544402,-172.27249)" style="fill:#e5c634;fill-opacity:1"><path id="path6" d="m 72.586855,969.35881 c -0.279183,1.40116 -0.977144,3.64304 -1.954288,6.44537 -1.395921,4.2035 -2.373065,7.42616 -2.791842,9.94824 -0.558368,2.38203 -0.837553,4.76396 -0.977146,7.28618 0,0.8406 -0.139591,1.8215 -0.69796,2.522 -0.418776,0.5605 -1.256328,0.8408 -1.954288,0.7006 -0.558369,0 -1.256329,-0.1401 -1.675105,-0.5605 -0.418777,-0.5604 -0.69796,-1.4011 -0.69796,-2.1017 -0.139593,-1.9617 -0.279184,-3.36283 -0.418777,-4.20347 -0.139592,-0.84072 -0.418776,-2.10181 -0.837552,-3.92332 -0.69796,-2.8023 -1.675106,-5.74474 -2.791843,-8.96745 -1.39592,-3.78315 -2.233472,-6.30525 -2.512657,-7.70641 -0.418776,-1.54129 -0.558368,-3.08258 -0.558368,-4.62386 0,-2.5221 0.837553,-5.0442 2.512657,-7.00583 1.675105,-2.10175 4.187763,-3.3628 6.840012,-3.22269 2.512658,0 4.885724,1.12094 6.421236,3.08258 1.814698,2.24186 2.652249,5.04419 2.512658,7.98664 0,1.54128 -0.139593,2.94245 -0.418777,4.34362 z" style="fill:#e5c634;fill-opacity:1"/><path id="path4155" d="m 63.932147,1017.1385 c -4.746131,0 -8.65471,-3.9232 -8.65471,-8.6871 0,-4.764 3.908579,-8.6873 8.65471,-8.6873 4.746131,0 8.654708,3.9233 8.654708,8.6873 0,4.7639 -3.908577,8.6871 -8.654708,8.6871 z" style="fill:#e5c634;fill-opacity:1"/></g></g></svg>