<svg xmlns="http://www.w3.org/2000/svg" xmlns:xlink="http://www.w3.org/1999/xlink" width="128" height="128" viewBox="0 0 128 128"><defs><filter id="b" color-interpolation-filters="sRGB"><feFlood flood-opacity=".498" flood-color="#000" result="flood"/><feComposite in="flood" in2="SourceGraphic" operator="out" result="composite1"/><feGaussianBlur in="composite1" stdDeviation="1" result="blur"/><feOffset dx="2" dy="2" result="offset"/><feComposite in="offset" in2="SourceGraphic" operator="atop" result="composite2"/></filter><radialGradient xlink:href="#a" id="c" cx="64" cy="988.362" fx="64" fy="988.362" r="52" gradientTransform="matrix(1 0 0 1.212 -83.911 -146.505)" gradientUnits="userSpaceOnUse"/><linearGradient id="a"><stop offset="0" stop-color="#7c0000"/><stop offset="1" stop-color="#e20000"/></linearGradient></defs><path d="M25.572 13.905c0 9.227 8.46 11.603 8.46 19.991 0 6.011-3.807 8.248-9.447 8.388-5.922 0-11.703-2.377-17.484-2.377h-.423c0 .839 0 1.678-.141 2.516-.705 7.689-2.115 15.518-2.115 23.486 0 5.312 2.115 10.904 8.46 10.904 8.319 0 10.857-8.388 20.163-8.388 8.319 0 12.831 6.571 12.831 14.26 0 7.969-4.371 15.238-13.254 15.238-9.729 0-13.818-7.27-19.176-7.27-2.679 0-5.076 1.678-6.768 3.495-2.256 2.377-2.679 5.732-2.679 8.807 0 6.151.846 12.442 1.833 18.593.282 1.398.423 2.796.564 4.194l.141.979c0 .14 0 .28.141.28h78.114c-.282-.28-.705-4.753-.846-5.452-.987-6.151-1.833-12.302-1.833-18.593 0-3.215.423-6.431 2.679-8.807 1.692-1.817 4.089-3.495 6.768-3.495 5.217 0 9.447 7.27 19.176 7.27 8.742 0 13.254-7.27 13.254-15.378 0-7.689-4.512-14.26-12.831-14.26-9.306 0-11.703 8.388-20.163 8.388-6.204 0-8.46-5.592-8.46-10.904 0-8.668 1.974-17.335 2.397-26.003h-.141c-.282.28-4.794.699-5.64.979-6.204.979-12.408 1.817-18.612 1.817-3.243 0-6.486-.419-8.883-2.656-1.833-1.678-3.525-4.054-3.525-6.71 0-5.173 7.332-9.367 7.332-19.013 0-8.668-7.332-13.141-15.369-13.141-7.896.14-14.523 4.613-14.523 12.862z" fill="#008000" filter="url(#b)"/><path d="M121.69 77.362l-18.737-4.672-18.737 4.672c-2.236.546-3.808 2.548-3.747 4.854v24.572c0 1.456.604 2.791 1.692 3.762l17.529 15.471c1.874 1.638 4.715 1.638 6.588 0l17.529-15.471c1.088-.971 1.692-2.305 1.692-3.762v-24.572c-.06-2.305-1.572-4.308-3.808-4.854z" fill="url(#c)"/><path d="M107.555 91.865c-.145.73-.509 1.898-1.018 3.358-.727 2.19-1.236 3.869-1.455 5.183-.291 1.241-.436 2.482-.509 3.796 0 .438-.073.949-.364 1.314-.218.292-.655.438-1.018.365-.291 0-.655-.073-.873-.292-.218-.292-.364-.73-.364-1.095-.073-1.022-.145-1.752-.218-2.19-.073-.438-.218-1.095-.436-2.044-.364-1.46-.873-2.993-1.455-4.672-.727-1.971-1.164-3.285-1.309-4.015-.218-.803-.291-1.606-.291-2.409 0-1.314.436-2.628 1.309-3.65.873-1.095 2.182-1.752 3.564-1.679 1.309 0 2.545.584 3.345 1.606.945 1.168 1.382 2.628 1.309 4.161 0 .803-.073 1.533-.218 2.263zm-4.509 24.893c-2.473 0-4.509-2.044-4.509-4.526 0-2.482 2.036-4.526 4.509-4.526 2.473 0 4.509 2.044 4.509 4.526 0 2.482-2.036 4.526-4.509 4.526z" fill="#fff"/></svg>