<?xml version="1.0" encoding="UTF-8" standalone="no"?>
<!-- Created with Inkscape (http://www.inkscape.org/) -->

<svg
   xmlns:dc="http://purl.org/dc/elements/1.1/"
   xmlns:cc="http://creativecommons.org/ns#"
   xmlns:rdf="http://www.w3.org/1999/02/22-rdf-syntax-ns#"
   xmlns:svg="http://www.w3.org/2000/svg"
   xmlns="http://www.w3.org/2000/svg"
   xmlns:sodipodi="http://sodipodi.sourceforge.net/DTD/sodipodi-0.dtd"
   xmlns:inkscape="http://www.inkscape.org/namespaces/inkscape"
   width="128"
   height="128"
   viewBox="0 0 128 128"
   id="svg2"
   version="1.1"
   inkscape:version="0.91 r13725"
   sodipodi:docname="plugin_updater.svg">
  <defs
     id="defs4">
    <filter
       style="color-interpolation-filters:sRGB;"
       inkscape:label="Drop Shadow"
       id="filter4201">
      <feFlood
         flood-opacity="0.498039"
         flood-color="rgb(0,0,0)"
         result="flood"
         id="feFlood4203" />
      <feComposite
         in="flood"
         in2="SourceGraphic"
         operator="out"
         result="composite1"
         id="feComposite4205" />
      <feGaussianBlur
         in="composite1"
         stdDeviation="1"
         result="blur"
         id="feGaussianBlur4207" />
      <feOffset
         dx="2"
         dy="2"
         result="offset"
         id="feOffset4209" />
      <feComposite
         in="offset"
         in2="SourceGraphic"
         operator="atop"
         result="composite2"
         id="feComposite4211" />
    </filter>
  </defs>
  <sodipodi:namedview
     id="base"
     pagecolor="#ffffff"
     bordercolor="#666666"
     borderopacity="1.0"
     inkscape:pageopacity="0.0"
     inkscape:pageshadow="2"
     inkscape:zoom="11.2"
     inkscape:cx="41.925141"
     inkscape:cy="69.707741"
     inkscape:document-units="px"
     inkscape:current-layer="layer1"
     showgrid="false"
     units="px"
     inkscape:window-width="3840"
     inkscape:window-height="2128"
     inkscape:window-x="0"
     inkscape:window-y="32"
     inkscape:window-maximized="0" />
  <metadata
     id="metadata7">
    <rdf:RDF>
      <cc:Work
         rdf:about="">
        <dc:format>image/svg+xml</dc:format>
        <dc:type
           rdf:resource="http://purl.org/dc/dcmitype/StillImage" />
        <dc:title />
        <dc:creator>
          <cc:Agent>
            <dc:title>Kovid Goyal</dc:title>
          </cc:Agent>
        </dc:creator>
        <dc:rights>
          <cc:Agent>
            <dc:title />
          </cc:Agent>
        </dc:rights>
        <dc:publisher>
          <cc:Agent>
            <dc:title />
          </cc:Agent>
        </dc:publisher>
        <cc:license
           rdf:resource="http://creativecommons.org/licenses/by-sa/3.0/" />
      </cc:Work>
      <cc:License
         rdf:about="http://creativecommons.org/licenses/by-sa/3.0/">
        <cc:permits
           rdf:resource="http://creativecommons.org/ns#Reproduction" />
        <cc:permits
           rdf:resource="http://creativecommons.org/ns#Distribution" />
        <cc:requires
           rdf:resource="http://creativecommons.org/ns#Notice" />
        <cc:requires
           rdf:resource="http://creativecommons.org/ns#Attribution" />
        <cc:permits
           rdf:resource="http://creativecommons.org/ns#DerivativeWorks" />
        <cc:requires
           rdf:resource="http://creativecommons.org/ns#ShareAlike" />
      </cc:License>
    </rdf:RDF>
  </metadata>
  <g
     inkscape:label="Layer 1"
     inkscape:groupmode="layer"
     id="layer1"
     transform="translate(0,-924.36216)">
    <g
       transform="matrix(1.4101058,0,0,-1.3984462,-8.1269117,1059.7528)"
       id="g2640"
       style="fill:#008000;fill-opacity:1;filter:url(#filter4201)">
      <path
         inkscape:connector-curvature="0"
         d="m 23.9,86.9 c 0,-6.6 6,-8.3 6,-14.3 0,-4.3 -2.7,-5.9 -6.7,-6 -4.2,0 -8.3,1.7 -12.4,1.7 l -0.3,0 c 0,-0.6 0,-1.2 -0.1,-1.8 C 9.9,61 8.9,55.4 8.9,49.7 c 0,-3.8 1.5,-7.8 6,-7.8 5.9,0 7.7,6 14.3,6 5.9,0 9.1,-4.7 9.1,-10.2 C 38.3,32 35.2,26.8 28.9,26.8 22,26.8 19.1,32 15.3,32 13.4,32 11.7,30.8 10.5,29.5 8.9,27.8 8.6,25.4 8.6,23.2 c 0,-4.4 0.6,-8.9 1.3,-13.3 0.2,-1 0.3,-2 0.4,-3 l 0.1,-0.7 c 0,-0.1 0,-0.2 0.1,-0.2 l 55.4,0 c -0.2,0.2 -0.5,3.4 -0.6,3.9 -0.7,4.4 -1.3,8.8 -1.3,13.3 0,2.3 0.3,4.6 1.9,6.3 1.2,1.3 2.9,2.5 4.8,2.5 3.7,0 6.7,-5.2 13.6,-5.2 6.2,0 9.4,5.2 9.4,11 0,5.5 -3.2,10.2 -9.1,10.2 -6.6,0 -8.3,-6 -14.3,-6 -4.4,0 -6,4 -6,7.8 0,6.2 1.4,12.4 1.7,18.6 l -0.1,0 c -0.2,-0.2 -3.4,-0.5 -4,-0.7 -4.4,-0.7 -8.8,-1.3 -13.2,-1.3 -2.3,0 -4.6,0.3 -6.3,1.9 -1.3,1.2 -2.5,2.9 -2.5,4.8 0,3.7 5.2,6.7 5.2,13.6 0,6.2 -5.2,9.4 -10.9,9.4 C 28.6,96 23.9,92.8 23.9,86.9 Z"
         id="path2642"
         style="fill:#008000;fill-opacity:1" />
    </g>
    <g
       id="g4150"
       transform="matrix(3.6116071,0,0,3.6116071,-307.71429,-2713.2584)"
       style="fill:#130f99;fill-opacity:1">
      <g
         transform="translate(104,1026.3622)"
         id="g4"
         style="fill:#130f99;fill-opacity:1">
        <path
           id="path6"
           d="m 16,16 -16,0 0,-6 2,0 0,4 12,0 0,-4 2,0 z M 8,12 C 7.744,12 7.488,11.902 7.293,11.707 l -4,-4 c -0.391,-0.391 -0.391,-1.023 0,-1.414 0.391,-0.391 1.023,-0.391 1.414,0 L 8,9.586 11.293,6.293 c 0.391,-0.391 1.023,-0.391 1.414,0 0.391,0.391 0.391,1.023 0,1.414 l -4,4 C 8.512,11.902 8.256,12 8,12 Z m 0,0 C 7.448,12 7,11.553 7,11 L 7,1 C 7,0.448 7.448,0 8,0 8.552,0 9,0.448 9,1 l 0,10 c 0,0.553 -0.448,1 -1,1 z"
           inkscape:connector-curvature="0"
           style="fill:#130f99;fill-opacity:1" />
      </g>
    </g>
  </g>
</svg>
