<?xml version="1.0" encoding="UTF-8" standalone="no"?>
<!-- Created with Inkscape (http://www.inkscape.org/) -->
<svg
   xmlns:dc="http://purl.org/dc/elements/1.1/"
   xmlns:cc="http://web.resource.org/cc/"
   xmlns:rdf="http://www.w3.org/1999/02/22-rdf-syntax-ns#"
   xmlns:svg="http://www.w3.org/2000/svg"
   xmlns="http://www.w3.org/2000/svg"
   xmlns:xlink="http://www.w3.org/1999/xlink"
   xmlns:sodipodi="http://sodipodi.sourceforge.net/DTD/sodipodi-0.dtd"
   xmlns:inkscape="http://www.inkscape.org/namespaces/inkscape"
   width="128"
   height="128"
   id="svg2811"
   sodipodi:version="0.32"
   inkscape:version="0.45.1"
   version="1.0"
   sodipodi:docname="folder-downloads.svgz"
   inkscape:output_extension="org.inkscape.output.svgz.inkscape"
   inkscape:export-filename="folder-downloads.png"
   inkscape:export-xdpi="11.25"
   inkscape:export-ydpi="11.25"
   sodipodi:docbase="/home/david/oxygen/trunk/scalable/places">
  <defs
     id="defs2813">
    <linearGradient
       gradientTransform="matrix(1.0033808,0,0,1,-8.2378002,8)"
       y2="20.043535"
       x2="122.39215"
       y1="96.721588"
       x1="122.74438"
       gradientUnits="userSpaceOnUse"
       id="linearGradient3067">
      <stop
         id="stop3069"
         style="stop-color:#88c4ff;stop-opacity:1;"
         offset="0" />
      <stop
         offset="0.13053299"
         style="stop-color:#b3d9ff;stop-opacity:1;"
         id="stop3077" />
      <stop
         id="stop3071"
         style="stop-color:#71A8F5"
         offset="0.72006166" />
      <stop
         id="stop3073"
         style="stop-color:#508ed9;stop-opacity:1;"
         offset="1" />
    </linearGradient>
    <linearGradient
       id="linearGradient2822">
      <stop
         style="stop-color:#ffffff;stop-opacity:1;"
         offset="0"
         id="stop2824" />
      <stop
         style="stop-color:#ffffff;stop-opacity:0;"
         offset="1"
         id="stop2826" />
    </linearGradient>
    <linearGradient
       id="XMLID_9_"
       gradientUnits="userSpaceOnUse"
       x1="71.9995"
       y1="14.2578"
       x2="71.9995"
       y2="19.9583"
       gradientTransform="matrix(1.0033404,0,0,1,-8.2374684,8)">
      <stop
         offset="0.25"
         style="stop-color:#71a8f5;stop-opacity:0;"
         id="stop46" />
      <stop
         offset="1"
         style="stop-color:#0057ae;stop-opacity:1"
         id="stop48" />
    </linearGradient>
    <linearGradient
       id="XMLID_8_"
       gradientUnits="userSpaceOnUse"
       x1="72.0005"
       y1="96"
       x2="72.0005"
       y2="20.0005"
       gradientTransform="matrix(1.0033876,0,0,1,1.7561237,8)">
      <stop
         offset="0"
         style="stop-color:#cfe7ff;stop-opacity:1;"
         id="stop35" />
      <stop
         offset="0.5917"
         style="stop-color:#71A8F5"
         id="stop37" />
      <stop
         offset="1"
         style="stop-color:#2C72C7"
         id="stop39" />
    </linearGradient>
    <filter
       inkscape:collect="always"
       x="-0.0256"
       width="1.0512"
       y="-0.384"
       height="1.768"
       id="filter2807">
      <feGaussianBlur
         inkscape:collect="always"
         stdDeviation="1.28"
         id="feGaussianBlur2809" />
    </filter>
    <linearGradient
       id="XMLID_6_"
       gradientUnits="userSpaceOnUse"
       x1="72.0005"
       y1="96"
       x2="72.0005"
       y2="4.882812e-04"
       gradientTransform="translate(-7.999995,8)">
      <stop
         offset="0"
         style="stop-color:#00479E"
         id="stop7" />
      <stop
         offset="0.0769"
         style="stop-color:#2C72C7"
         id="stop9" />
      <stop
         offset="0.58579999"
         style="stop-color:#6ea1df;stop-opacity:1;"
         id="stop11" />
      <stop
         offset="0.96450001"
         style="stop-color:#adcbee;stop-opacity:1;"
         id="stop13" />
    </linearGradient>
    <linearGradient
       inkscape:collect="always"
       xlink:href="#linearGradient2822"
       id="linearGradient2828"
       x1="22.413761"
       y1="28.5"
       x2="22.413761"
       y2="34.472866"
       gradientUnits="userSpaceOnUse"
       gradientTransform="translate(10,0)" />
    <linearGradient
       inkscape:collect="always"
       xlink:href="#XMLID_8_"
       id="linearGradient2838"
       gradientUnits="userSpaceOnUse"
       gradientTransform="matrix(1.0033876,0,0,1,-8.2438763,8)"
       x1="72.0005"
       y1="96"
       x2="72.0005"
       y2="20.0005" />
    <clipPath
       clipPathUnits="userSpaceOnUse"
       id="clipPath2844">
      <path
         style="fill:#ff00bf"
         d="M 133.86613,100.978 C 133.79288,102.369 132.59585,103.5 131.19913,103.5 L 16.812952,103.5 C 15.415236,103.5 14.2192,102.368 14.145947,100.979 C 14.145947,100.979 10.508666,30.967 10.508666,30.957 C 10.461513,30.301 10.673223,29.685 11.105684,29.22 C 11.539144,28.756 12.140172,28.501 12.799403,28.501 L 135.21268,28.501 C 135.8719,28.501 136.47293,28.756 136.90339,29.219 C 137.33384,29.682 137.54254,30.298 137.49137,30.966 L 133.86613,100.978 z"
         id="path2846" />
    </clipPath>
    <filter
       inkscape:collect="always"
       x="-0.012357198"
       width="1.0247144"
       y="-0.41513768"
       height="1.8302754"
       id="filter2848">
      <feGaussianBlur
         inkscape:collect="always"
         stdDeviation="0.65388509"
         id="feGaussianBlur2850" />
    </filter>
    <linearGradient
       inkscape:collect="always"
       xlink:href="#linearGradient3067"
       id="linearGradient3109"
       gradientUnits="userSpaceOnUse"
       gradientTransform="matrix(1.0033808,0,0,1,-8.2378,8)"
       x1="122.74438"
       y1="96.721588"
       x2="122.74438"
       y2="20" />
    <linearGradient
       y2="677.06049"
       x2="538.77338"
       y1="675.48541"
       x1="538.77338"
       gradientTransform="matrix(0.6024737,0,0,0.6890756,-188.17076,-522.43699)"
       gradientUnits="userSpaceOnUse"
       id="linearGradient9628"
       xlink:href="#XMLID_16_"
       inkscape:collect="always" />
    <radialGradient
       r="126.0234"
       fy="651.10352"
       fx="538.77338"
       cy="651.10352"
       cx="538.77338"
       gradientTransform="matrix(0.6015648,0,0,0.7971009,-187.68106,-594.06594)"
       gradientUnits="userSpaceOnUse"
       id="radialGradient9626"
       xlink:href="#XMLID_15_"
       inkscape:collect="always" />
    <linearGradient
       y2="789.12207"
       x2="538.77338"
       y1="677.87701"
       x1="538.77338"
       gradientTransform="matrix(0.6024737,0,0,0.6890756,-188.17074,-522.43699)"
       gradientUnits="userSpaceOnUse"
       id="linearGradient9624"
       xlink:href="#XMLID_14_"
       inkscape:collect="always" />
    <radialGradient
       r="121.5466"
       cy="792.99609"
       cx="538.77252"
       gradientTransform="matrix(0.6024737,0,0,0.6890756,-188.17076,-522.43699)"
       gradientUnits="userSpaceOnUse"
       id="radialGradient9622"
       xlink:href="#XMLID_13_"
       inkscape:collect="always" />
    <linearGradient
       y2="736.62341"
       x2="497.81451"
       y1="732.4082"
       x1="497.81451"
       gradientTransform="translate(-484,-674)"
       gradientUnits="userSpaceOnUse"
       id="linearGradient9620"
       xlink:href="#XMLID_12_"
       inkscape:collect="always" />
    <linearGradient
       y2="736.55688"
       x2="579.72852"
       y1="732.41022"
       x1="579.72852"
       gradientTransform="translate(-484,-674)"
       gradientUnits="userSpaceOnUse"
       id="linearGradient9618"
       xlink:href="#XMLID_11_"
       inkscape:collect="always" />
    <linearGradient
       y2="678.3681"
       x2="538.77338"
       y1="674"
       x1="538.77338"
       gradientTransform="translate(-484,-674)"
       gradientUnits="userSpaceOnUse"
       id="linearGradient9616"
       xlink:href="#XMLID_10_"
       inkscape:collect="always" />
    <linearGradient
       y2="674"
       x2="538.77338"
       y1="793"
       x1="538.77338"
       gradientTransform="matrix(0.6024737,0,0,0.6890756,-188.17076,-522.43699)"
       gradientUnits="userSpaceOnUse"
       id="linearGradient9614"
       xlink:href="#XMLID_9_"
       inkscape:collect="always" />
    <linearGradient
       y2="96.000198"
       x2="88.000198"
       y1="104"
       x1="96"
       gradientUnits="userSpaceOnUse"
       id="XMLID_12_">
      <stop
         id="stop83"
         style="stop-color:#888A85"
         offset="0" />
      <stop
         id="stop85"
         style="stop-color:#8C8E89"
         offset="0.0072" />
      <stop
         id="stop87"
         style="stop-color:#ABACA9"
         offset="0.0673" />
      <stop
         id="stop89"
         style="stop-color:#C5C6C4"
         offset="0.1347" />
      <stop
         id="stop91"
         style="stop-color:#DBDBDA"
         offset="0.2652576" />
      <stop
         id="stop93"
         style="stop-color:#EBEBEB"
         offset="0.37646064" />
      <stop
         id="stop95"
         style="stop-color:#F7F7F6"
         offset="0.48740286" />
      <stop
         id="stop97"
         style="stop-color:#FDFDFD"
         offset="0.6324091" />
      <stop
         id="stop99"
         style="stop-color:#FFFFFF"
         offset="1" />
    </linearGradient>
    <linearGradient
       gradientTransform="translate(-484,-674)"
       y2="677.06049"
       x2="538.77338"
       y1="675.48541"
       x1="538.77338"
       gradientUnits="userSpaceOnUse"
       id="XMLID_16_">
      <stop
         id="stop146"
         style="stop-color:#FFFFFF"
         offset="0" />
      <stop
         id="stop148"
         style="stop-color:#00BF00"
         offset="1" />
    </linearGradient>
    <radialGradient
       gradientUnits="userSpaceOnUse"
       gradientTransform="translate(-484,-674)"
       r="126.0234"
       cy="651.10352"
       cx="538.77338"
       id="XMLID_15_">
      <stop
         id="stop137"
         style="stop-color:#CCEAAC"
         offset="0" />
      <stop
         id="stop139"
         style="stop-color:#3BA42A"
         offset="0.5393" />
      <stop
         id="stop141"
         style="stop-color:#91E851"
         offset="1" />
    </radialGradient>
    <linearGradient
       gradientTransform="translate(-484,-674)"
       y2="789.12207"
       x2="538.77338"
       y1="677.87701"
       x1="538.77338"
       gradientUnits="userSpaceOnUse"
       id="XMLID_14_">
      <stop
         id="stop122"
         style="stop-color:#1E7D27"
         offset="0.0056" />
      <stop
         id="stop124"
         style="stop-color:#3BA42A"
         offset="0.1348" />
      <stop
         id="stop126"
         style="stop-color:#B8E57F"
         offset="0.4831" />
      <stop
         id="stop128"
         style="stop-color:#A9E66E"
         offset="0.6299" />
      <stop
         id="stop130"
         style="stop-color:#97E859"
         offset="0.8528" />
      <stop
         id="stop132"
         style="stop-color:#91E851"
         offset="1" />
    </linearGradient>
    <radialGradient
       gradientUnits="userSpaceOnUse"
       gradientTransform="translate(-484,-674)"
       r="121.5466"
       cy="792.99609"
       cx="538.77252"
       id="XMLID_13_">
      <stop
         id="stop9505"
         style="stop-color:#FFFAB3"
         offset="0" />
      <stop
         id="stop9507"
         style="stop-color:#DFEE9F"
         offset="0.0494" />
      <stop
         id="stop9509"
         style="stop-color:#C3E48D"
         offset="0.1049" />
      <stop
         id="stop9511"
         style="stop-color:#AEDC80"
         offset="0.1605" />
      <stop
         id="stop9513"
         style="stop-color:#A2D879"
         offset="0.2156" />
      <stop
         id="stop9515"
         style="stop-color:#9ED676"
         offset="0.2697" />
      <stop
         id="stop9517"
         style="stop-color:#3BA42A"
         offset="0.3989" />
      <stop
         id="stop9519"
         style="stop-color:#3BA42A"
         offset="0.3995" />
      <stop
         id="stop9521"
         style="stop-color:#258426"
         offset="0.4484" />
      <stop
         id="stop101"
         style="stop-color:#166D24"
         offset="0.4956" />
      <stop
         id="stop103"
         style="stop-color:#0C5F23"
         offset="0.54" />
      <stop
         id="stop105"
         style="stop-color:#095A22"
         offset="0.5787" />
      <stop
         id="stop107"
         style="stop-color:#166727"
         offset="0.5948" />
      <stop
         id="stop109"
         style="stop-color:#388B33"
         offset="0.6456" />
      <stop
         id="stop111"
         style="stop-color:#51A53C"
         offset="0.6932" />
      <stop
         id="stop113"
         style="stop-color:#61B542"
         offset="0.7359" />
      <stop
         id="stop115"
         style="stop-color:#66BA44"
         offset="0.7697" />
      <stop
         id="stop117"
         style="stop-color:#095A22"
         offset="1" />
    </radialGradient>
    <linearGradient
       gradientTransform="translate(-484,-674)"
       y2="678.3681"
       x2="538.77338"
       y1="674"
       x1="538.77338"
       gradientUnits="userSpaceOnUse"
       id="XMLID_10_">
      <stop
         id="stop54"
         style="stop-color:#094422"
         offset="0" />
      <stop
         id="stop56"
         style="stop-color:#9ED676"
         offset="1" />
    </linearGradient>
    <linearGradient
       gradientTransform="translate(-484,-674)"
       y2="736.55688"
       x2="579.72852"
       y1="732.41022"
       x1="579.72852"
       gradientUnits="userSpaceOnUse"
       id="XMLID_11_">
      <stop
         id="stop61"
         style="stop-color:#094422"
         offset="0" />
      <stop
         id="stop63"
         style="stop-color:#9ED676"
         offset="1" />
    </linearGradient>
    <radialGradient
       r="61.056499"
       fy="76.883453"
       fx="61.056499"
       cy="76.883453"
       cx="61.056499"
       gradientTransform="matrix(0.3930786,0,0,6.5513144e-2,40,98.96312)"
       gradientUnits="userSpaceOnUse"
       id="radialGradient4545"
       xlink:href="#linearGradient3291"
       inkscape:collect="always" />
    <linearGradient
       id="linearGradient3291">
      <stop
         id="stop3293"
         offset="0"
         style="stop-color:black;stop-opacity:1" />
      <stop
         id="stop3295"
         offset="1"
         style="stop-color:black;stop-opacity:0" />
    </linearGradient>
  </defs>
  <sodipodi:namedview
     id="base"
     pagecolor="#ffffff"
     bordercolor="#666666"
     borderopacity="1.0"
     inkscape:pageopacity="0.0"
     inkscape:pageshadow="2"
     inkscape:zoom="4.6875"
     inkscape:cx="64"
     inkscape:cy="64"
     inkscape:document-units="px"
     inkscape:current-layer="layer1"
     inkscape:window-width="748"
     inkscape:window-height="697"
     inkscape:window-x="0"
     inkscape:window-y="35"
     showborder="false"
     inkscape:showpageshadow="false" />
  <metadata
     id="metadata2816">
    <rdf:RDF>
      <cc:Work
         rdf:about="">
        <dc:format>image/svg+xml</dc:format>
        <dc:type
           rdf:resource="http://purl.org/dc/dcmitype/StillImage" />
      </cc:Work>
    </rdf:RDF>
  </metadata>
  <g
     inkscape:label="Livello 1"
     inkscape:groupmode="layer"
     id="layer1">
    <path
       d="M 117.983,19 C 117.992,17.35 116.64999,16 114.99999,16 L 44.961007,16 L 38.375006,9.414 C 37.597005,8.636 36.061006,8 34.961,8 L 13.999998,8 C 11.799996,8 9.999999,9.8 9.999999,12 L 9.999999,19 C 9.999999,19 10.999999,104 7,104 L 121,104 C 116.99999,104 117.983,19 117.983,19 z"
       id="path15"
       style="fill:url(#XMLID_6_)" />
    <g
       id="g17"
       style="opacity:0.6;filter:url(#filter2807)"
       transform="matrix(1.0033404,0,0,1,-8.2374684,8)">
      <path
         d="M 132,96 C 132,98.2 128.4,100 124,100 L 20,100 C 15.6,100 12,98.2 12,96 C 12,93.8 15.6,92 20,92 L 124,92 C 128.4,92 132,93.8 132,96 z"
         id="path19" />
    </g>
    <path
       d="M 124.36598,101.004 C 124.27969,102.652 122.85389,104 121.19831,104 L 6.812906,104 C 5.157329,104 3.731522,102.652 3.644228,101.004 L 0.007982,30.992 C -0.112423,29.347 1.143808,28 2.799384,28 L 125.21183,28 C 126.86741,28 128.11762,29.346 127.9912,30.991 L 124.36598,101.004 z"
       id="path30"
       style="opacity:0.9;fill:url(#linearGradient3109);fill-opacity:1" />
    <path
       d="M 10.580094,28 C 10.551086,23.609 10.516087,20.392 10.500078,19 L 10.500078,12 C 10.500078,10.07 12.07033,8.5 14.000627,8.5 L 34.964921,8.5 C 35.937077,8.5 37.339294,9.081 38.026407,9.768 L 44.759457,16.5 L 115.01648,16.5 C 115.68059,16.5 116.30469,16.76 116.77576,17.233 C 117.24683,17.706 117.50487,18.333 117.50087,18.997 C 117.50087,18.997 117.57288,18.925 117.60989,18.888 C 117.48787,19.495 117.47487,21.062 117.44687,25.161 L 117.43687,28 L 117.92894,28 C 117.95994,22.468 117.99995,19 117.99995,19 C 118.00896,17.35 116.66674,16 115.01648,16 L 44.966498,16 L 38.379463,9.414 C 37.60134,8.636 36.065099,8 34.964921,8 L 14.000627,8 C 11.80028,8 10,9.8 10,12 L 10,19 C 10,19 10.041009,22.468 10.073018,28 L 10.580094,28 z"
       id="path32"
       style="fill:#5293ee;fill-opacity:1" />
    <path
       d="M 9.8848616,22 C 9.8938916,23.75 9.9029216,25.755 9.9109516,28 L 118.09511,28 C 118.10414,25.755 118.11317,23.75 118.1212,22 L 9.8848616,22 z"
       id="path50"
       style="fill:url(#XMLID_9_);opacity:0.5" />
    <path
       style="fill:url(#linearGradient2828);fill-opacity:1;filter:url(#filter2848)"
       d="M 12.8125,28.5 C 12.153269,28.5 11.52721,28.754751 11.09375,29.21875 C 10.661289,29.68375 10.452847,30.312749 10.5,30.96875 C 10.5,30.968937 10.559992,32.232788 10.5625,32.28125 C 10.647737,31.886257 10.815287,31.518165 11.09375,31.21875 C 11.52721,30.754751 12.153269,30.5 12.8125,30.5 L 135.21875,30.5 C 135.87797,30.500001 136.47579,30.75575 136.90625,31.21875 C 137.18342,31.516877 137.35439,31.883216 137.4375,32.28125 L 137.5,30.96875 C 137.55117,30.30075 137.3367,29.68175 136.90625,29.21875 C 136.47579,28.75575 135.87797,28.500001 135.21875,28.5 L 12.8125,28.5 z"
       id="path2788"
       clip-path="url(#clipPath2844)"
       transform="translate(-10,0)" />
    <path
       style="fill:url(#linearGradient2838)"
       id="path2836"
       d="M 125.21268,28 L 2.799403,28 C 1.143815,28 -0.1124237,29.347 0.007982,30.992 L 3.645263,101.004 C 3.731547,102.652 5.157364,104 6.812952,104 L 121.19913,104 C 122.85472,104 124.28053,102.652 124.36682,101.004 L 127.99106,30.991 C 128.11849,29.346 126.86827,28 125.21268,28 z M 123.86613,100.978 C 123.79288,102.369 122.59585,103.5 121.19913,103.5 L 6.812952,103.5 C 5.415236,103.5 4.2192,102.368 4.145947,100.979 C 4.145947,100.979 0.508666,30.967 0.508666,30.957 C 0.461513,30.301 0.673223,29.685 1.105684,29.22 C 1.539144,28.756 2.140172,28.501 2.799403,28.501 L 125.21268,28.501 C 125.8719,28.501 126.47293,28.756 126.90339,29.219 C 127.33384,29.682 127.54254,30.298 127.49137,30.966 L 123.86613,100.978 z" />
    <g
       id="g2450"
       inkscape:label="Livello 1"
       transform="translate(-2.4797995e-7,16)">
      <path
         d="M 88,103.99999 C 88,106.20914 77.254827,108 63.999997,108 C 50.745166,108 40,106.20914 40,103.99999 C 40,101.79086 50.745166,100 63.999997,100 C 77.254827,100 88,101.79086 88,103.99999 L 88,103.99999 z "
         style="opacity:0.3;fill:url(#radialGradient4545);fill-opacity:1;fill-rule:nonzero;stroke:none;stroke-width:0;stroke-linecap:round;stroke-linejoin:round;stroke-miterlimit:4;stroke-dasharray:none;stroke-dashoffset:4;stroke-opacity:1"
         id="path4543" />
      <g
         transform="matrix(1,0,0,0.9756098,-72.426501,80.585366)"
         id="g9589">
        <path
           style="fill:url(#linearGradient9614)"
           d="M 122.40803,-58 C 121.11995,-58 120.07225,-56.801009 120.07225,-55.327765 C 120.07225,-55.327765 120.07225,-20.243475 120.07225,-17.752469 C 118.07565,-17.752469 105.76289,-17.752469 105.76289,-17.752469 C 104.82364,-17.752469 103.98018,-17.113701 103.61327,-16.125567 C 103.61266,-16.122801 103.4265,-15.080231 103.4265,-15.080231 C 103.4265,-14.384954 103.65845,-13.726198 104.08019,-13.22662 L 134.74308,23.18138 C 135.18048,23.70094 135.7944,24 136.42579,24 C 137.05778,24 137.6705,23.70094 138.1085,23.18138 L 168.772,-13.22662 C 169.42327,-14.000449 169.60703,-15.136741 169.23953,-16.125567 C 168.87081,-17.115074 168.02735,-17.751777 167.08929,-17.751777 C 167.08929,-17.751777 154.77654,-17.751777 152.77994,-17.751777 C 152.77994,-20.243475 152.77994,-55.327076 152.77994,-55.327076 C 152.77933,-56.801009 151.73164,-58 150.44355,-58 L 122.40803,-58 z "
           id="path49" />
        <g
           id="g51"
           transform="matrix(0.6024737,0,0,0.6890756,103.4265,-58)">
          <linearGradient
             id="linearGradient9265"
             gradientUnits="userSpaceOnUse"
             x1="538.77338"
             y1="674"
             x2="538.77338"
             y2="678.3681"
             gradientTransform="translate(-484,-674)">
            <stop
               offset="0"
               style="stop-color:#094422"
               id="stop9267" />
            <stop
               offset="1"
               style="stop-color:#9ED676"
               id="stop9269" />
          </linearGradient>
          <path
             style="fill:url(#linearGradient9616)"
             d="M 31.506,0.486 L 78.04,0.486 C 80.18,0.486 81.918,2.225 81.918,4.363 C 81.918,4.051 81.918,3.878 81.918,3.878 C 81.917,1.74 80.178,0 78.04,0 L 31.506,0 C 29.368,0 27.629,1.74 27.629,3.878 C 27.629,3.878 27.629,4.051 27.629,4.363 C 27.629,2.225 29.368,0.486 31.506,0.486 z "
             id="path58" />
          <linearGradient
             id="linearGradient9272"
             gradientUnits="userSpaceOnUse"
             x1="579.72852"
             y1="732.41022"
             x2="579.72852"
             y2="736.55688"
             gradientTransform="translate(-484,-674)">
            <stop
               offset="0"
               style="stop-color:#094422"
               id="stop9274" />
            <stop
               offset="1"
               style="stop-color:#9ED676"
               id="stop9276" />
          </linearGradient>
          <path
             style="fill:url(#linearGradient9618)"
             d="M 81.917,58.894 C 85.23,58.894 105.668,58.894 105.668,58.894 C 107.227,58.894 108.625,59.82 109.236,61.255 C 109.415,61.675 109.506,62.111 109.531,62.551 C 109.572,61.954 109.48,61.344 109.236,60.77 C 108.625,59.335 107.224,58.411 105.668,58.411 C 105.668,58.411 85.23,58.411 81.917,58.411 C 81.917,58.616 81.917,58.779 81.917,58.894 z "
             id="path65" />
          <linearGradient
             id="linearGradient9279"
             gradientUnits="userSpaceOnUse"
             x1="497.81451"
             y1="732.4082"
             x2="497.81451"
             y2="736.62341"
             gradientTransform="translate(-484,-674)">
            <stop
               offset="0"
               style="stop-color:#094422"
               id="stop9281" />
            <stop
               offset="1"
               style="stop-color:#9ED676"
               id="stop9283" />
          </linearGradient>
          <path
             style="fill:url(#linearGradient9620)"
             d="M 0.309,61.256 C 0.918,59.821 2.319,58.894 3.877,58.894 C 3.877,58.894 24.314,58.894 27.628,58.894 C 27.628,58.779 27.628,58.616 27.628,58.408 C 24.314,58.408 3.877,58.408 3.877,58.408 C 2.318,58.408 0.918,59.335 0.309,60.769 C 0.309,60.773 0,62.286 0,62.286 C 0,62.398 0.022,62.507 0.032,62.616 C 0.109,62.239 0.309,61.258 0.309,61.256 z "
             id="path72" />
        </g>
        <path
           style="opacity:0.5;fill:#ffffff"
           enable-background="new    "
           d="M 152.77933,-15.331057 C 154.77534,-15.331057 167.08869,-15.331057 167.08869,-15.331057 C 168.02794,-15.331057 168.87021,-14.692971 169.23832,-13.704155 C 169.2594,-13.646273 169.27387,-13.585625 169.29193,-13.527062 C 169.48051,-14.144468 169.47147,-14.830788 169.23832,-15.457162 C 168.87021,-16.445977 168.02614,-17.084064 167.08869,-17.084064 C 167.08869,-17.084064 154.77534,-17.084064 152.77933,-17.084064 C 152.77933,-16.201364 152.77933,-15.589458 152.77933,-15.331057 z "
           id="path74" />
        <path
           style="opacity:0.5;fill:#ffffff"
           enable-background="new    "
           d="M 103.61266,-13.703464 C 103.97957,-14.693662 104.82364,-15.331057 105.76229,-15.331057 C 105.76229,-15.331057 118.07504,-15.331057 120.07164,-15.331057 C 120.07164,-15.589458 120.07164,-16.201364 120.07164,-17.084064 C 118.07504,-17.084064 105.76229,-17.084064 105.76229,-17.084064 C 104.82304,-17.084064 103.97957,-16.445296 103.61266,-15.45647 C 103.61266,-15.454406 103.4265,-14.411826 103.4265,-14.411826 C 103.4265,-14.091416 103.48072,-13.783399 103.57471,-13.490541 C 103.597,-13.613189 103.61266,-13.702772 103.61266,-13.703464 z "
           id="path76" />
        <path
           style="fill:#ffffff"
           d="M 167.08869,-17.084064 C 167.08869,-17.084064 155.12718,-17.084064 152.19494,-17.084064 C 151.87201,-17.084064 151.60994,-17.383123 151.60994,-17.752469 L 151.60994,-17.084064 C 151.60994,-16.887684 151.60994,-16.196534 151.60994,-15.999462 C 152.68415,-15.999462 167.08688,-15.999462 167.08688,-15.999462 C 167.6014,-15.999462 168.08217,-16.490774 168.51174,-16.214449 C 168.19122,-16.745037 167.67008,-17.084064 167.08869,-17.084064 z "
           id="path78" />
        <path
           style="fill:#ffffff"
           d="M 120.65604,-17.084064 C 117.72381,-17.084064 105.76229,-17.084064 105.76229,-17.084064 C 105.1809,-17.084064 104.66037,-16.745728 104.33744,-16.213768 C 104.7664,-16.489392 105.24778,-15.998771 105.76229,-15.998771 C 105.76229,-15.998771 120.16563,-15.998771 121.23984,-15.998771 C 121.23984,-16.195853 121.23984,-16.886992 121.23984,-17.083372 L 121.23984,-17.751777 C 121.24044,-17.383123 120.97897,-17.084064 120.65604,-17.084064 z "
           id="path80" />
        <path
           style="fill:url(#radialGradient9622)"
           d="M 122.40803,-56.663883 C 121.76339,-56.663883 121.24044,-56.065765 121.24044,-55.327765 C 121.24044,-55.327765 121.24044,-18.913558 121.24044,-16.415659 C 119.22035,-16.415659 105.76289,-16.415659 105.76289,-16.415659 C 105.29477,-16.415659 104.87123,-16.095238 104.68808,-15.602553 C 104.62542,-15.434417 104.5947,-15.256633 104.5947,-15.078859 C 104.5947,-14.741204 104.70796,-14.404251 104.92124,-14.151362 L 135.58414,22.25664 C 135.80464,22.51918 136.10829,22.66733 136.42519,22.66733 C 136.74209,22.66733 137.04634,22.51918 137.26624,22.25664 L 167.92975,-14.151362 C 168.25448,-14.538622 168.34485,-15.109177 168.16351,-15.601181 C 167.97915,-16.093865 167.55682,-16.414286 167.08869,-16.414286 C 167.08869,-16.414286 153.63063,-16.414286 151.61174,-16.414286 C 151.61174,-18.912186 151.61174,-55.327076 151.61174,-55.327076 C 151.61174,-56.065076 151.08819,-56.663193 150.44415,-56.663193 L 122.40803,-56.663883 L 122.40803,-56.663883 z "
           id="path119" />
        <path
           style="fill:url(#linearGradient9624)"
           d="M 149.66237,-15.080231 L 149.66237,-55.327765 L 123.18921,-55.327765 L 123.18921,-15.080231 L 105.76229,-15.080231 L 136.42579,21.32776 L 167.08869,-15.080231 L 149.66237,-15.080231 z "
           id="polygon134"
           sodipodi:nodetypes="cccccccc" />
        <path
           style="fill:url(#radialGradient9626)"
           d="M 126.33071,-52.106113 C 126.33071,-46.18585 126.33071,-13.208265 126.33071,-13.208265 C 126.33071,-11.263404 125.14137,-9.68748 123.67415,-9.68748 C 123.67415,-9.68748 119.09054,-9.68748 114.77933,-9.68748 C 120.46129,-1.871013 133.66077,16.28485 136.4264,20.08959 C 139.19202,16.28485 152.39204,-1.871013 158.07347,-9.68748 C 153.7617,-9.68748 149.17863,-9.68748 149.17863,-9.68748 C 147.71087,-9.68748 146.52153,-11.263404 146.52153,-13.208265 C 146.52153,-13.208265 146.52153,-46.18585 146.52153,-52.106113 C 142.75237,-52.106113 130.09878,-52.106113 126.33071,-52.106113 z "
           id="path143" />
        <path
           style="fill:url(#linearGradient9628)"
           d="M 122.40803,-56.976034 C 121.80556,-56.976034 121.29949,-56.604621 120.98379,-56.073345 C 121.41155,-56.354488 121.88027,-55.89074 122.40803,-55.89074 L 150.44355,-55.89074 C 150.97131,-55.89074 151.43944,-56.354488 151.8678,-56.073345 C 151.5521,-56.604621 151.04602,-56.976034 150.44355,-56.976034 L 122.40803,-56.976034 L 122.40803,-56.976034 z "
           id="path150" />
        <path
           style="fill:#ffffff"
           d="M 137.26745,21.62407 C 137.04754,21.86318 136.74269,21.99617 136.42579,21.99617 C 136.10889,21.99617 135.80464,21.86318 135.58414,21.62407 L 129.83112,15.424454 L 135.58414,22.25526 C 135.80464,22.51711 136.10829,22.66526 136.42519,22.66526 C 136.74209,22.66526 137.04634,22.51711 137.26624,22.25526 L 143.01806,15.425837 L 137.26745,21.62407 z "
           id="path152" />
      </g>
    </g>
  </g>
</svg>
