<svg xmlns="http://www.w3.org/2000/svg" xmlns:svg="http://www.w3.org/2000/svg" id="svg2" width="128" height="128" version="1.1" viewBox="0 0 128 128"><metadata id="metadata7"/><g id="layer1" transform="translate(0,-924.36216)"><path style="fill:#6dc56d;fill-opacity:1;fill-rule:evenodd;stroke:#000;stroke-width:0;stroke-linecap:butt;stroke-linejoin:round;stroke-miterlimit:4;stroke-dasharray:none;stroke-opacity:1" id="path4221" d="m 16.582008,1046.8836 0,-107.68789 c 0.268678,-7.88583 2.821127,-11.47031 7.254326,-11.67513 l 83.521626,-0.15807 c 2.76636,-0.0342 3.22403,2.60341 3.22403,5.26085 L 110.405,1042.9681 c 0.20067,4.0092 -3.08981,3.9942 -3.08981,3.9942 l -6.90542,0.1083 c -0.18732,4.2167 -0.26937,4.387 -3.224141,4.2676 l -76.439105,0 c -3.907185,0 -4.164519,0.1998 -4.164519,-4.455 z"/><path style="fill:#fff;fill-opacity:1;fill-rule:evenodd;stroke:#000;stroke-width:0;stroke-linecap:round;stroke-linejoin:round;stroke-miterlimit:4;stroke-dasharray:none;stroke-opacity:1" id="path4258" d="m 22.29891,937.54569 73.639178,0 c 5.750212,0.0985 5.128952,2.68325 5.171952,9.6779 l 0.18187,94.28241 c 1.82365,0.1448 4.62079,-1.8836 4.58597,-5.1073 l -0.18187,-96.83984 c 0.15109,-6.45263 -1.3372,-6.45263 -4.30125,-6.71744 l -75.30503,0 c -2.867481,-0.1804 -3.639719,0.84201 -3.790797,4.70427 z"/><path id="path4" d="m 88,1008.4076 0,7.9091 q 0,1.6479 -1.153415,2.801 -1.1534,1.1535 -2.801125,1.1535 l -17.13637,0 0,17.1366 q 0,1.6475 -1.153401,2.8009 -1.153414,1.1535 -2.801139,1.1535 l -7.90909,0 q -1.647735,0 -2.801139,-1.1535 -1.153411,-1.1534 -1.153411,-2.8009 l 0,-17.1366 -17.13636,0 q -1.647725,0 -2.801135,-1.1535 Q 30,1017.9646 30,1016.3167 l 0,-7.9091 q 0,-1.6477 1.153415,-2.8011 1.15341,-1.1535 2.801135,-1.1535 l 17.13636,0 0,-17.13635 q 0,-1.64771 1.153411,-2.80112 1.153404,-1.15342 2.801139,-1.15342 l 7.90909,0 q 1.647725,0 2.801139,1.15342 1.153401,1.15341 1.153401,2.80112 l 0,17.13635 17.13637,0 q 1.647725,0 2.801125,1.1535 Q 88,1006.7599 88,1008.4076 Z" style="fill:#165016;fill-opacity:1"/><rect style="fill:#165016;fill-opacity:1;fill-rule:evenodd;stroke:none;stroke-width:0;stroke-linecap:round;stroke-linejoin:round;stroke-miterlimit:4;stroke-dasharray:none;stroke-opacity:1" id="rect4139" width="51.482" height="6" x="33.259" y="951.362" ry=".9"/></g></svg>