<svg xmlns="http://www.w3.org/2000/svg" viewBox="0 0 128 128" height="128" width="128"><g transform="translate(0 -924.362)"><path d="M16.582 1046.884v-107.688c.269-7.886 2.821-11.47 7.254-11.675l83.522-.158c2.766-.034 3.224 2.603 3.224 5.261l-.177 110.345c.201 4.009-3.09 3.994-3.09 3.994l-6.905.108c-.187 4.217-.269 4.387-3.224 4.268h-76.439c-3.907 0-4.165.2-4.165-4.455z" fill="#6dc56d" fill-rule="evenodd"/><path d="M22.299 937.546h73.639c5.75.099 5.129 2.683 5.172 9.678l.182 94.282c1.824.145 4.621-1.884 4.586-5.107l-.182-96.84c.151-6.453-1.337-6.453-4.301-6.717h-75.305c-2.867-.18-3.64.842-3.791 4.704z" fill="#fff" fill-rule="evenodd"/><path d="M88 1008.408v7.909q0 1.648-1.153 2.801-1.153 1.153-2.801 1.153h-17.136v17.137q0 1.647-1.153 2.801-1.153 1.153-2.801 1.153h-7.909q-1.648 0-2.801-1.153-1.153-1.153-1.153-2.801v-17.137h-17.136q-1.648 0-2.801-1.153-1.153-1.153-1.153-2.801v-7.909q0-1.648 1.153-2.801 1.153-1.153 2.801-1.153h17.136v-17.136q0-1.648 1.153-2.801 1.153-1.153 2.801-1.153h7.909q1.648 0 2.801 1.153 1.153 1.153 1.153 2.801v17.136h17.136q1.648 0 2.801 1.153 1.153 1.153 1.153 2.801z" fill="#165016"/><rect width="51.482" height="6" x="33.259" y="951.362" ry=".9" fill="#165016" fill-rule="evenodd"/></g></svg>