<?xml version="1.0" encoding="UTF-8" standalone="no"?>
<svg
   viewBox="0 0 64 64"
   version="1.1"
   id="svg2"
   sodipodi:docname="ai.svg"
   inkscape:version="1.4.2 (ebf0e940d0, 2025-05-08)"
   xmlns:inkscape="http://www.inkscape.org/namespaces/inkscape"
   xmlns:sodipodi="http://sodipodi.sourceforge.net/DTD/sodipodi-0.dtd"
   xmlns="http://www.w3.org/2000/svg"
   xmlns:svg="http://www.w3.org/2000/svg">
  <defs
     id="defs2" />
  <sodipodi:namedview
     id="namedview2"
     pagecolor="#505050"
     bordercolor="#eeeeee"
     borderopacity="1"
     inkscape:showpageshadow="0"
     inkscape:pageopacity="0"
     inkscape:pagecheckerboard="0"
     inkscape:deskcolor="#d1d1d1"
     inkscape:zoom="1.8561553"
     inkscape:cx="31.786133"
     inkscape:cy="31.516759"
     inkscape:window-width="976"
     inkscape:window-height="581"
     inkscape:window-x="0"
     inkscape:window-y="0"
     inkscape:window-maximized="1"
     inkscape:current-layer="svg2" />
  <!-- First (large) star -->
  <path
     d="M 26.222656 3.8691406 C 25.308656 3.8691406 24.394656 4.3789844 23.972656 5.3964844 L 21.697266 10.878906 C 19.732266 15.613906 16.068844 19.3935 11.464844 21.4375 L 5.4746094 24.097656 C 3.5086094 24.969656 3.5086094 27.828172 5.4746094 28.701172 L 11.658203 31.447266 C 16.146203 33.439266 19.745141 37.083109 21.744141 41.662109 L 23.990234 46.808594 C 24.530234 48.044844 25.802187 48.508281 26.890625 48.199219 C 27.543688 48.013781 28.131078 47.550344 28.455078 46.808594 L 30.701172 41.662109 C 32.700172 37.083109 36.298109 33.439266 40.787109 31.447266 L 46.970703 28.701172 C 47.462203 28.483172 47.830422 28.142672 48.076172 27.738281 C 48.199047 27.536086 48.292078 27.317299 48.353516 27.091797 C 48.414953 26.866295 48.445312 26.633672 48.445312 26.400391 C 48.445312 26.167109 48.414953 25.932564 48.353516 25.707031 C 48.169203 25.030432 47.707953 24.425031 46.970703 24.097656 L 40.980469 21.4375 C 36.376469 19.3935 32.713047 15.613906 30.748047 10.878906 L 28.472656 5.3964844 C 28.050656 4.3789844 27.136656 3.8691406 26.222656 3.8691406 z"
     id="path1"
     style="fill:#2caf45;fill-opacity:1" />
  <!-- Second (small) star -->
  <path
     d="M 49.75 39.640625 C 49.26 39.640625 48.770922 39.913484 48.544922 40.458984 L 47.894531 42.023438 C 46.787531 44.693438 44.722953 46.825516 42.126953 47.978516 L 40.289062 48.794922 C 39.237062 49.261922 39.237063 50.791766 40.289062 51.259766 L 42.234375 52.125 C 44.765375 53.25 46.795875 55.304719 47.921875 57.886719 L 48.552734 59.335938 C 48.842109 59.998438 49.523857 60.245703 50.107422 60.080078 C 50.457561 59.980703 50.772062 59.733438 50.945312 59.335938 L 51.578125 57.886719 C 52.704125 55.304719 54.732672 53.25 57.263672 52.125 L 59.210938 51.259766 C 59.474187 51.143016 59.671109 50.960563 59.802734 50.744141 C 59.868547 50.63593 59.918266 50.519115 59.951172 50.398438 C 60.016984 50.157082 60.016984 49.899621 59.951172 49.658203 C 59.885359 49.416785 59.752125 49.190699 59.554688 49.015625 C 59.455969 48.928088 59.342562 48.853422 59.210938 48.794922 L 57.373047 47.978516 C 56.399547 47.545766 55.500857 46.975572 54.699219 46.291016 C 54.432006 46.06283 54.174469 45.823031 53.929688 45.570312 C 53.195344 44.812156 52.566889 43.945994 52.064453 42.998047 C 51.896975 42.682064 51.743844 42.357062 51.605469 42.023438 L 50.955078 40.458984 C 50.729078 39.913484 50.24 39.640625 49.75 39.640625 z"
     id="path2"
     style="fill:#2271d5;fill-opacity:1" />
</svg>
