<svg xmlns="http://www.w3.org/2000/svg" xmlns:xlink="http://www.w3.org/1999/xlink" width="128" height="128" viewBox="0 0 128 128"><defs><linearGradient id="a"><stop offset="0" stop-color="#2ca2c5"/><stop offset=".474" stop-color="#2ca2c5"/><stop offset=".548" stop-color="#95c43c"/><stop offset="1" stop-color="#95c43c"/></linearGradient><linearGradient xlink:href="#a" id="b" x1="64.549" y1="1049.704" x2="63.54" y2="926.755" gradientUnits="userSpaceOnUse"/></defs><path d="M123.498 76.812q0 .4-.08.561-5.125 21.461-21.461 34.794-16.336 13.333-38.277 13.333-11.691 0-22.622-4.404t-19.499-12.572l-10.33 10.33q-1.521 1.521-3.604 1.521-2.082 0-3.604-1.521-1.521-1.522-1.521-3.604v-35.875q0-2.082 1.521-3.603 1.521-1.522 3.604-1.522h35.875q2.082 0 3.604 1.522 1.521 1.521 1.521 3.603 0 2.082-1.521 3.604l-10.971 10.971q5.686 5.285 12.893 8.168 7.207 2.883 14.975 2.883 10.73 0 20.02-5.205 9.289-5.205 14.895-14.334.881-1.361 4.244-9.369.641-1.842 2.402-1.842h15.375q1.041 0 1.802.761.761.761.761 1.802zm2.002-64.062v35.875q0 2.082-1.521 3.604-1.521 1.521-3.604 1.521h-35.875q-2.082 0-3.604-1.521-1.521-1.521-1.521-3.604 0-2.082 1.521-3.604l11.051-11.051q-11.852-10.971-27.947-10.971-10.73 0-20.02 5.205-9.289 5.205-14.895 14.334-.881 1.361-4.244 9.369-.641 1.842-2.402 1.842h-15.936q-1.041 0-1.802-.761-.761-.761-.761-1.802v-.561q5.205-21.461 21.621-34.794 16.416-13.333 38.438-13.333 11.691 0 22.742 4.444t19.619 12.532l10.41-10.33q1.521-1.521 3.604-1.521 2.082 0 3.604 1.521 1.521 1.521 1.521 3.604z" fill="url(#b)"/></svg>