<svg xmlns="http://www.w3.org/2000/svg" xmlns:xlink="http://www.w3.org/1999/xlink" width="128" height="128" viewBox="0 0 128 128"><defs><linearGradient id="a"><stop offset="0" stop-color="#116def"/><stop offset="1" stop-color="#041936" stop-opacity=".991"/></linearGradient><linearGradient xlink:href="#a" id="b" x1="96.92" y1="1049.862" x2="96.92" y2="926.612" gradientUnits="userSpaceOnUse"/></defs><path d="M51.849 101.643q0 .83-.692 1.661l-22.074 22.074q-.692.623-1.592.623-.83 0-1.592-.623l-22.143-22.143q-1.038-1.107-.484-2.422.554-1.384 2.076-1.384h13.286v-95.214q0-.969.623-1.592.623-.623 1.592-.623h13.286q.969 0 1.592.623.623.623.623 1.592v95.214h13.286q.969 0 1.592.623.623.623.623 1.591z" fill="#116def"/><path d="M85.063 110.5v13.286q0 .969-.623 1.591-.623.623-1.592.623h-17.714q-.969 0-1.592-.623-.623-.623-.623-1.591v-13.286q0-.969.623-1.591.623-.623 1.592-.623h17.714q.969 0 1.592.623.623.623.623 1.591zm13.286-35.429v13.286q0 .969-.623 1.591-.623.623-1.592.623h-31q-.969 0-1.592-.623-.623-.623-.623-1.591v-13.286q0-.969.623-1.592.623-.623 1.592-.623h31q.969 0 1.592.623.623.623.623 1.592zm13.285-35.428v13.286q0 .969-.623 1.592-.623.623-1.592.623h-44.286q-.969 0-1.592-.623-.623-.623-.623-1.592v-13.286q0-.969.623-1.592.623-.623 1.592-.623h44.286q.969 0 1.592.623.623.623.623 1.592zm13.286-35.429v13.286q0 .969-.623 1.592-.623.623-1.592.623h-57.571q-.969 0-1.592-.623-.623-.623-.623-1.592v-13.286q0-.969.623-1.592.623-.623 1.592-.623h57.571q.969 0 1.592.623.623.623.623 1.592z" fill="url(#b)"/></svg>