<svg xmlns="http://www.w3.org/2000/svg" xmlns:svg="http://www.w3.org/2000/svg" xmlns:xlink="http://www.w3.org/1999/xlink" id="svg2" width="128" height="128" version="1.1" viewBox="0 0 128 128"><defs id="defs4"><linearGradient id="linearGradient4139"><stop style="stop-color:#2ca2c5;stop-opacity:1" id="stop4141" offset="0"/><stop id="stop4149" offset=".474" style="stop-color:#2ca2c5;stop-opacity:1"/><stop style="stop-color:#95c43c;stop-opacity:1" id="stop4153" offset=".548"/><stop style="stop-color:#95c43c;stop-opacity:1" id="stop4143" offset="1"/></linearGradient><linearGradient id="linearGradient4145" x1="64.549" x2="63.54" y1="1049.704" y2="926.755" gradientUnits="userSpaceOnUse" xlink:href="#linearGradient4139"/></defs><metadata id="metadata7"/><g id="layer1" transform="translate(0,-924.36216)"><path id="path4" d="m 123.49806,1001.1746 q 0,0.4004 -0.0801,0.5606 -5.125,21.4609 -21.46094,34.7939 -16.33594,13.333 -38.27734,13.333 -11.69141,0 -22.62207,-4.4043 -10.93067,-4.4043 -19.49903,-12.5722 l -10.33007,10.3301 q -1.52149,1.5214 -3.60352,1.5214 -2.08203,0 -3.60352,-1.5214 -1.52148,-1.5215 -1.52148,-3.6036 l 0,-35.875 q 0,-2.082 1.52148,-3.6034 1.52149,-1.52151 3.60352,-1.52151 l 35.875,0 q 2.08203,0 3.60352,1.52151 1.52148,1.5214 1.52148,3.6034 0,2.0821 -1.52148,3.6036 l -10.97071,10.9707 q 5.68555,5.2851 12.89258,8.1679 7.20703,2.8828 14.97461,2.8828 10.73047,0 20.01953,-5.205 9.28906,-5.2051 14.89453,-14.334 0.88086,-1.3614 4.24414,-9.3691 0.64063,-1.84181 2.40235,-1.84181 l 15.375,0 q 1.04101,0 1.80175,0.76074 0.76075,0.76077 0.76075,1.80167 z m 2.00195,-64.06243 0,35.875 q 0,2.08203 -1.52148,3.60352 -1.52149,1.52148 -3.60352,1.52148 l -35.875,0 q -2.08203,0 -3.60352,-1.52148 -1.52148,-1.52149 -1.52148,-3.60352 0,-2.08203 1.52148,-3.60351 l 11.05079,-11.05078 q -11.85157,-10.97071 -27.94727,-10.97071 -10.73047,0 -20.01953,5.20508 -9.28906,5.20508 -14.89453,14.33399 -0.88086,1.36132 -4.24414,9.36914 -0.64063,1.84179 -2.40235,1.84179 l -15.93554,0 q -1.04102,0 -1.80176,-0.76074 -0.76074,-0.76074 -0.76074,-1.80176 l 0,-0.56054 q 5.20507,-21.46094 21.62109,-34.79395 16.41602,-13.33301 38.4375,-13.33301 11.69141,0 22.74219,4.44434 11.05078,4.44434 19.61914,12.53223 l 10.41015,-10.33008 q 1.52149,-1.52149 3.60352,-1.52149 2.08203,0 3.60352,1.52149 1.52148,1.52148 1.52148,3.60351 z" style="fill-opacity:1;fill:url(#linearGradient4145)"/></g></svg>