<?xml version="1.0" encoding="UTF-8" standalone="no"?>
<svg
   xmlns:dc="http://purl.org/dc/elements/1.1/"
   xmlns:cc="http://creativecommons.org/ns#"
   xmlns:rdf="http://www.w3.org/1999/02/22-rdf-syntax-ns#"
   xmlns:svg="http://www.w3.org/2000/svg"
   xmlns="http://www.w3.org/2000/svg"
   xmlns:sodipodi="http://sodipodi.sourceforge.net/DTD/sodipodi-0.dtd"
   xmlns:inkscape="http://www.inkscape.org/namespaces/inkscape"
   width="1792"
   height="1792"
   viewBox="0 0 1792 1792"
   version="1.1"
   id="svg4"
   sodipodi:docname="auto-scroll.svg"
   inkscape:version="0.92.4 5da689c313, 2019-01-14">
  <metadata
     id="metadata10">
    <rdf:RDF>
      <cc:Work
         rdf:about="">
        <dc:format>image/svg+xml</dc:format>
        <dc:type
           rdf:resource="http://purl.org/dc/dcmitype/StillImage" />
      </cc:Work>
    </rdf:RDF>
  </metadata>
  <defs
     id="defs8" />
  <sodipodi:namedview
     pagecolor="#ffffff"
     bordercolor="#666666"
     borderopacity="1"
     objecttolerance="10"
     gridtolerance="10"
     guidetolerance="10"
     inkscape:pageopacity="0"
     inkscape:pageshadow="2"
     inkscape:window-width="2560"
     inkscape:window-height="1400"
     id="namedview6"
     showgrid="false"
     inkscape:zoom="0.13169643"
     inkscape:cx="-1025.0847"
     inkscape:cy="896"
     inkscape:window-x="0"
     inkscape:window-y="40"
     inkscape:window-maximized="0"
     inkscape:current-layer="svg4" />
  <path
     d="m 1395,864 q 0,13 -10,23 l -466,466 q -10,10 -23,10 -13,0 -23,-10 L 407,887 q -10,-10 -10,-23 0,-13 10,-23 l 50,-50 q 10,-10 23,-10 13,0 23,10 l 393,393 393,-393 q 10,-10 23,-10 13,0 23,10 l 50,50 q 10,10 10,23 z"
     id="path823"
     style="fill:#2caf45;fill-opacity:1" />
  <path
     d="m 1395,480 q 0,13 -10,23 L 919,969 q -10,10 -23,10 -13,0 -23,-10 L 407,503 q -10,-10 -10,-23 0,-13 10,-23 l 50,-50 q 10,-10 23,-10 13,0 23,10 l 393,393 393,-393 q 10,-10 23,-10 13,0 23,10 l 50,50 q 10,10 10,23 z"
     id="path2"
     style="fill:#2271d5;fill-opacity:1" />
</svg>
