<svg xmlns="http://www.w3.org/2000/svg" xmlns:svg="http://www.w3.org/2000/svg" id="svg4" width="1792" height="1792" version="1.1" viewBox="0 0 1792 1792"><metadata id="metadata10"/><path id="path823" d="m 1395,864 q 0,13 -10,23 l -466,466 q -10,10 -23,10 -13,0 -23,-10 L 407,887 q -10,-10 -10,-23 0,-13 10,-23 l 50,-50 q 10,-10 23,-10 13,0 23,10 l 393,393 393,-393 q 10,-10 23,-10 13,0 23,10 l 50,50 q 10,10 10,23 z" style="fill:#2caf45;fill-opacity:1"/><path id="path2" d="m 1395,480 q 0,13 -10,23 L 919,969 q -10,10 -23,10 -13,0 -23,-10 L 407,503 q -10,-10 -10,-23 0,-13 10,-23 l 50,-50 q 10,-10 23,-10 13,0 23,10 l 393,393 393,-393 q 10,-10 23,-10 13,0 23,10 l 50,50 q 10,10 10,23 z" style="fill:#2271d5;fill-opacity:1"/></svg>