<?xml version="1.0" encoding="UTF-8" standalone="no"?>
<svg
   xmlns:dc="http://purl.org/dc/elements/1.1/"
   xmlns:cc="http://creativecommons.org/ns#"
   xmlns:rdf="http://www.w3.org/1999/02/22-rdf-syntax-ns#"
   xmlns:svg="http://www.w3.org/2000/svg"
   xmlns="http://www.w3.org/2000/svg"
   xmlns:xlink="http://www.w3.org/1999/xlink"
   xmlns:sodipodi="http://sodipodi.sourceforge.net/DTD/sodipodi-0.dtd"
   xmlns:inkscape="http://www.inkscape.org/namespaces/inkscape"
   version="1.1"
   width="128px"
   height="128px"
   viewBox="0 0 128 128"
   xml:space="preserve"
   id="svg2"
   inkscape:version="0.91 r13725"
   sodipodi:docname="beautify.svg"><metadata
     id="metadata72"><rdf:RDF><cc:Work
         rdf:about=""><dc:format>image/svg+xml</dc:format><dc:type
           rdf:resource="http://purl.org/dc/dcmitype/StillImage" /><dc:title /><dc:creator><cc:Agent><dc:title>Kovid Goyal</dc:title></cc:Agent></dc:creator><cc:license
           rdf:resource="http://creativecommons.org/licenses/by-sa/3.0/" /></cc:Work><cc:License
         rdf:about="http://creativecommons.org/licenses/by-sa/3.0/"><cc:permits
           rdf:resource="http://creativecommons.org/ns#Reproduction" /><cc:permits
           rdf:resource="http://creativecommons.org/ns#Distribution" /><cc:requires
           rdf:resource="http://creativecommons.org/ns#Notice" /><cc:requires
           rdf:resource="http://creativecommons.org/ns#Attribution" /><cc:permits
           rdf:resource="http://creativecommons.org/ns#DerivativeWorks" /><cc:requires
           rdf:resource="http://creativecommons.org/ns#ShareAlike" /></cc:License></rdf:RDF></metadata><defs
     id="defs70" /><sodipodi:namedview
     pagecolor="#ffffff"
     bordercolor="#666666"
     borderopacity="1"
     objecttolerance="10"
     gridtolerance="10"
     guidetolerance="10"
     inkscape:pageopacity="0"
     inkscape:pageshadow="2"
     inkscape:window-width="3840"
     inkscape:window-height="2128"
     id="namedview68"
     showgrid="false"
     inkscape:zoom="1.84375"
     inkscape:cx="-279.8644"
     inkscape:cy="64"
     inkscape:window-x="0"
     inkscape:window-y="32"
     inkscape:window-maximized="0"
     inkscape:current-layer="svg2" /><g
     id="g4"
     transform="matrix(0.97242339,0,0,0.97242339,1.7685795,1.7629612)"><g
       id="g6"><g
         id="g8"><defs
           id="defs10"><path
             id="SVGID_1_"
             d="M 41.16,18.55 C 41.71,15 47.23,1.92 55.67,1.38 61.46,1.01 68.26,6.3 69.97,14.49 71.62,22.39 73.8,30.61 70.03,38.04 66.91,44.22 59.79,51.51 52.22,46.99 43.73,41.92 39.51,29.12 41.16,18.55 Z"
             inkscape:connector-curvature="0" /></defs><clipPath
           id="SVGID_2_"><use
             xlink:href="#SVGID_1_"
             overflow="visible"
             id="use14"
             style="overflow:visible"
             x="0"
             y="0"
             width="100%"
             height="100%" /></clipPath><g
           clip-path="url(#SVGID_2_)"
           id="g16"><path
             d="m 37.54,21.33 c 0.68,-4.46 7.63,-20.91 18.25,-21.59 7.29,-0.47 15.83,6.19 17.98,16.49 2.07,9.93 4.82,20.27 0.09,29.61 C 69.92,53.61 60.98,62.78 51.46,57.1 40.78,50.72 35.47,34.63 37.54,21.33 Z"
             id="path18"
             inkscape:connector-curvature="0"
             style="fill:#f79329" /><path
             d="m 45.26,21.65 c 0.41,-2.64 4.52,-12.37 10.8,-12.78 4.32,-0.28 9.37,3.66 10.64,9.76 1.23,5.88 2.85,12 0.05,17.53 -2.33,4.6 -7.62,10.03 -13.26,6.67 -6.32,-3.79 -9.45,-13.31 -8.23,-21.18 z"
             id="path20"
             inkscape:connector-curvature="0"
             style="fill:#ed6c30" /></g></g><g
         id="g22"><path
           d="m 64.13,114.2 c -0.13,0.47 -0.3,0.93 -0.48,1.38 -0.33,0.83 -0.66,1.66 -1.01,2.49 -0.3,0.68 -0.6,1.52 -1.37,1.81 -0.97,0.37 -2.19,0.2 -3.16,-0.08 -4.03,-1.18 -2.61,-4.96 -1.96,-7.89 1.3,-5.91 2.54,-11.89 2.96,-17.92 0.44,-6.23 0.02,-12.47 0.02,-18.71 0,-0.12 0.01,-2.65 -0.09,-2.65 l 7.95,0 c 0,0.97 0,1.95 0,2.92 0,4.52 0.01,9.03 -0.09,13.54 -0.19,8.35 -0.36,17 -2.77,25.11 z"
           id="path24"
           inkscape:connector-curvature="0"
           style="fill:#757f3f" /></g><g
         id="g26"><defs
           id="defs28"><path
             id="SVGID_3_"
             d="M 25.8,49.14 C 22.43,23.55 27.24,11.35 31.08,6.93 32.84,4.9 35.1,4.11 37.66,5.09 49.33,9.57 61.56,34.42 64.83,43.2 65.92,46.13 73.6,72.34 62.2,79.4 59.75,80.91 56.89,80.79 54.09,80.79 51.56,80.79 37.47,79.47 30.68,65.7 29.73,63.79 27,58.31 25.8,49.14 Z"
             inkscape:connector-curvature="0" /></defs><clipPath
           id="SVGID_4_"><use
             xlink:href="#SVGID_3_"
             overflow="visible"
             id="use32"
             style="overflow:visible"
             x="0"
             y="0"
             width="100%"
             height="100%" /></clipPath><g
           clip-path="url(#SVGID_4_)"
           id="g34"><path
             d="m 20.47,46.36 c -3.69,-32.3 4.02,-48.03 9.9,-53.83 2.71,-2.67 6.08,-3.78 9.81,-2.66 17.01,5.1 33.83,36.02 38.2,47 1.47,3.66 11.51,36.55 -5.67,46.07 -3.69,2.04 -7.92,2.02 -12.06,2.16 C 56.93,85.23 36.19,84.25 26.84,67.11 25.56,64.76 21.79,57.93 20.47,46.36 Z"
             id="path36"
             inkscape:connector-curvature="0"
             style="fill:#f79329" /><path
             d="M 25.24,52.89 C 21.76,32.76 25.11,21.88 28.07,17.4 31,12.95 34,13.5 36.5,14.05 c 11.45,2.52 25.64,26.08 28.9,32.8 1.08,2.24 8.82,26.02 -2.25,32.7 -2.39,1.42 -5.19,1.59 -7.93,1.84 C 52.76,81.63 38.99,81.85 32.25,71.47 31.31,70.04 26.48,60.1 25.24,52.89 Z"
             id="path38"
             inkscape:connector-curvature="0"
             style="fill:#ed6c30" /></g></g><g
         id="g40"><defs
           id="defs42"><path
             id="SVGID_5_"
             d="M 94.65,41.39 C 92.24,15.7 84.83,4.87 80.11,1.41 77.94,-0.18 75.56,-0.44 73.29,1.08 62.9,8.05 55.76,27.07 54,44.04 c -0.32,3.1 -0.8,30.61 11.88,34.95 2.72,0.93 5.49,0.17 8.23,-0.46 2.46,-0.56 15.91,-4.98 19.47,-19.92 0.48,-2.06 1.93,-8.02 1.07,-17.22 z"
             inkscape:connector-curvature="0" /></defs><clipPath
           id="SVGID_6_"><use
             xlink:href="#SVGID_5_"
             overflow="visible"
             id="use46"
             style="overflow:visible"
             x="0"
             y="0"
             width="100%"
             height="100%" /></clipPath><g
           clip-path="url(#SVGID_6_)"
           id="g48"><path
             d="M 99.22,37.5 C 95.63,5.19 84.62,-8.43 77.6,-12.79 c -3.23,-2 -6.77,-2.33 -10.15,-0.41 -15.45,8.77 -24.98,42.65 -26.8,54.33 -0.61,3.89 -3.09,38.19 15.78,43.65 4.06,1.17 8.17,0.21 12.24,-0.57 3.65,-0.7 23.66,-6.26 28.96,-25.05 0.71,-2.59 2.87,-10.08 1.59,-21.66 z"
             id="path50"
             inkscape:connector-curvature="0"
             style="fill:#f79329" /><path
             d="M 99.06,46.59 C 97.83,26.19 91.02,17.5 89.16,13.42 82.58,-1.07 75.38,5.28 72.01,8.74 66.72,14.17 60.16,23.88 56.72,34.01 c -0.63,1.87 -2.89,10.23 -3.34,18.91 -0.64,12.36 1.99,25.72 10.23,28.1 3.01,0.86 6.17,0.39 9.29,0.03 2.8,-0.32 18.19,-3.16 23.06,-14.78 0.69,-1.6 3.55,-12.38 3.1,-19.68 z"
             id="path52"
             inkscape:connector-curvature="0"
             style="fill:#ed6c30" /></g></g><g
         id="g54"><defs
           id="defs56"><path
             id="SVGID_7_"
             d="m 48.9,121.96 c 1.85,-5.69 17.57,-21.96 42.58,-38.9 0.97,-0.66 6.47,-4.1 9.61,-4.95 1.88,-0.51 2.94,-0.05 1.72,2.59 -6,13.01 -14.59,34.23 -29.23,43.27 -6.15,3.8 -11.94,3.55 -15.8,3.91 -2.38,0.22 -10.83,0.07 -8.88,-5.92 z"
             inkscape:connector-curvature="0" /></defs><use
           xlink:href="#SVGID_7_"
           overflow="visible"
           id="use59"
           style="overflow:visible;fill:#757f3f"
           x="0"
           y="0"
           width="100%"
           height="100%" /><clipPath
           id="SVGID_8_"><use
             xlink:href="#SVGID_7_"
             overflow="visible"
             id="use62"
             style="overflow:visible"
             x="0"
             y="0"
             width="100%"
             height="100%" /></clipPath><path
           clip-path="url(#SVGID_8_)"
           d="m 54.11,127.79 c 0,0 0.64,-3.29 4,-7.99 8.64,-12.11 40.26,-40.64 46.35,-40.86 l -0.27,-5.8 c 0,0 -27.95,8.7 -51.7,37.72 0,0 -7.38,3.96 -7.38,18.46 l 9,-1.53 z"
           id="path64"
           inkscape:connector-curvature="0"
           style="fill:#bdcf46" /></g></g><path
       d="m 74.1,78.53 c 0,0 -8,3.71 -20.01,2.26 0,0 -14.64,-28.46 -0.2,-33 l 22,2.49 -1.79,28.25 z"
       id="path66"
       inkscape:connector-curvature="0"
       style="fill:#ed6c30" /></g></svg>