<svg xmlns="http://www.w3.org/2000/svg" xmlns:xlink="http://www.w3.org/1999/xlink" width="128" height="128" viewBox="0 0 128 128"><g transform="matrix(.972 0 0 .972 1.769 1.763)"><defs><path id="a" d="M41.16 18.55c.55-3.55 6.07-16.63 14.51-17.17 5.79-.37 12.59 4.92 14.3 13.11 1.65 7.9 3.83 16.12.06 23.55-3.12 6.18-10.24 13.47-17.81 8.95-8.49-5.07-12.71-17.87-11.06-28.44z"/></defs><clipPath id="b"><use xlink:href="#a" overflow="visible" width="100%" height="100%"/></clipPath><g clip-path="url(#b)"><path d="M37.54 21.33c.68-4.46 7.63-20.91 18.25-21.59 7.29-.47 15.83 6.19 17.98 16.49 2.07 9.93 4.82 20.27.09 29.61-3.94 7.77-12.88 16.94-22.4 11.26-10.68-6.38-15.99-22.47-13.92-35.77z" fill="#f79329"/><path d="M45.26 21.65c.41-2.64 4.52-12.37 10.8-12.78 4.32-.28 9.37 3.66 10.64 9.76 1.23 5.88 2.85 12 .05 17.53-2.33 4.6-7.62 10.03-13.26 6.67-6.32-3.79-9.45-13.31-8.23-21.18z" fill="#ed6c30"/></g></g><path d="M64.103 112.765c-.126.457-.292.904-.467 1.341-.321.807-.642 1.614-.982 2.42-.292.661-.583 1.477-1.332 1.759-.943.36-2.129.194-3.072-.078-3.917-1.147-2.537-4.821-1.905-7.669 1.264-5.745 2.469-11.557 2.877-17.418.428-6.056.019-12.121.019-18.186 0-.117.01-2.576-.087-2.576h7.727v2.838c0 4.393.01 8.777-.087 13.161-.185 8.116-.35 16.524-2.692 24.407z" fill="#757f3f"/><g transform="matrix(.972 0 0 .972 1.769 1.763)"><defs><path id="c" d="M25.8 49.14c-3.37-25.59 1.44-37.79 5.28-42.21 1.76-2.03 4.02-2.82 6.58-1.84 11.67 4.48 23.9 29.33 27.17 38.11 1.09 2.93 8.77 29.14-2.63 36.2-2.45 1.51-5.31 1.39-8.11 1.39-2.53 0-16.62-1.32-23.41-15.09-.95-1.91-3.68-7.39-4.88-16.56z"/></defs><clipPath id="d"><use xlink:href="#c" overflow="visible" width="100%" height="100%"/></clipPath><g clip-path="url(#d)"><path d="M20.47 46.36c-3.69-32.3 4.02-48.03 9.9-53.83 2.71-2.67 6.08-3.78 9.81-2.66 17.01 5.1 33.83 36.02 38.2 47 1.47 3.66 11.51 36.55-5.67 46.07-3.69 2.04-7.92 2.02-12.06 2.16-3.72.13-24.46-.85-33.81-17.99-1.28-2.35-5.05-9.18-6.37-20.75z" fill="#f79329"/><path d="M25.24 52.89c-3.48-20.13-.13-31.01 2.83-35.49 2.93-4.45 5.93-3.9 8.43-3.35 11.45 2.52 25.64 26.08 28.9 32.8 1.08 2.24 8.82 26.02-2.25 32.7-2.39 1.42-5.19 1.59-7.93 1.84-2.46.24-16.23.46-22.97-9.92-.94-1.43-5.77-11.37-7.01-18.58z" fill="#ed6c30"/></g></g><g transform="matrix(.972 0 0 .972 1.769 1.763)"><defs><path id="e" d="M94.65 41.39c-2.41-25.69-9.82-36.52-14.54-39.98-2.17-1.59-4.55-1.85-6.82-.33-10.39 6.97-17.53 25.99-19.29 42.96-.32 3.1-.8 30.61 11.88 34.95 2.72.93 5.49.17 8.23-.46 2.46-.56 15.91-4.98 19.47-19.92.48-2.06 1.93-8.02 1.07-17.22z"/></defs><clipPath id="f"><use xlink:href="#e" overflow="visible" width="100%" height="100%"/></clipPath><g clip-path="url(#f)"><path d="M99.22 37.5c-3.59-32.31-14.6-45.93-21.62-50.29-3.23-2-6.77-2.33-10.15-.41-15.45 8.77-24.98 42.65-26.8 54.33-.61 3.89-3.09 38.19 15.78 43.65 4.06 1.17 8.17.21 12.24-.57 3.65-.7 23.66-6.26 28.96-25.05.71-2.59 2.87-10.08 1.59-21.66z" fill="#f79329"/><path d="M99.06 46.59c-1.23-20.4-8.04-29.09-9.9-33.17-6.58-14.49-13.78-8.14-17.15-4.68-5.29 5.43-11.85 15.14-15.29 25.27-.63 1.87-2.89 10.23-3.34 18.91-.64 12.36 1.99 25.72 10.23 28.1 3.01.86 6.17.39 9.29.03 2.8-.32 18.19-3.16 23.06-14.78.69-1.6 3.55-12.38 3.1-19.68z" fill="#ed6c30"/></g></g><g transform="matrix(.972 0 0 .972 1.769 1.763)"><defs><path id="g" d="M48.9 121.96c1.85-5.69 17.57-21.96 42.58-38.9.97-.66 6.47-4.1 9.61-4.95 1.88-.51 2.94-.05 1.72 2.59-6 13.01-14.59 34.23-29.23 43.27-6.15 3.8-11.94 3.55-15.8 3.91-2.38.22-10.83.07-8.88-5.92z"/></defs><use xlink:href="#g" overflow="visible" width="100%" height="100%" fill="#757f3f"/><clipPath id="h"><use xlink:href="#g" overflow="visible" width="100%" height="100%"/></clipPath><path clip-path="url(#h)" d="M54.11 127.79s.64-3.29 4-7.99c8.64-12.11 40.26-40.64 46.35-40.86l-.27-5.8s-27.95 8.7-51.7 37.72c0 0-7.38 3.96-7.38 18.46l9-1.53z" fill="#bdcf46"/></g><path d="M73.794 78.094s-7.776 3.606-19.45 2.197c0 0-14.23-27.663-.194-32.076l21.384 2.42-1.74 27.459z" fill="#ed6c30"/></svg>