<svg xmlns="http://www.w3.org/2000/svg" xmlns:svg="http://www.w3.org/2000/svg" id="svg2" width="128" height="128" version="1.1" viewBox="0 0 128 128"><metadata id="metadata7"/><g id="layer1" transform="translate(0,-924.36216)"><path id="path4157" d="m 122.15695,958.23344 q 2.8831,4.10846 1.29741,9.29805 l -19.82154,65.30301 q -1.36949,4.613 -5.513993,7.7483 -4.1445,3.1355 -8.82959,3.1355 l -66.528284,0 q -5.550032,0 -10.703629,-3.8562 -5.153605,-3.8562 -7.171795,-9.4784 -1.729881,-4.8292 -0.144157,-9.1538 0,-0.2884 0.216237,-1.9462 0.216231,-1.6577 0.288311,-2.6668 0.07208,-0.5766 -0.216236,-1.5497 -0.288312,-0.9731 -0.216231,-1.4056 0.144156,-0.7928 0.576624,-1.5137 0.432469,-0.7206 1.18929,-1.6938 0.756827,-0.973 1.189296,-1.6938 1.657798,-2.739 3.243521,-6.5951 1.585723,-3.85628 2.162348,-6.59528 0.216237,-0.7207 0.03601,-2.1622 -0.180196,-1.44168 -0.03601,-2.01826 0.216237,-0.79287 1.225336,-2.01816 1.009093,-1.22538 1.22533,-1.6578 1.513642,-2.59483 3.02729,-6.63125 1.513643,-4.03639 1.801956,-6.487 0.07208,-0.64876 -0.180197,-2.30654 -0.252272,-1.65785 0.03601,-2.01817 0.288312,-0.93705 1.585723,-2.19842 1.297411,-1.26136 1.585724,-1.62176 1.369486,-1.87403 3.06333,-6.09062 1.693839,-4.21652 1.982152,-6.95556 0.07208,-0.57658 -0.216238,-1.83802 -0.288311,-1.26136 -0.144156,-1.91005 0.144156,-0.57665 0.648706,-1.29737 0.504549,-0.72081 1.297411,-1.65779 0.792861,-0.93705 1.22533,-1.5137 0.576625,-0.86494 1.189296,-2.19841 0.612665,-1.3334 1.081173,-2.52272 0.468509,-1.18933 1.153249,-2.59476 0.684746,-1.40558 1.405527,-2.30654 0.720787,-0.90104 1.910076,-1.69387 1.189296,-0.79283 2.594823,-0.82885 1.405527,-0.0356 3.423718,0.39642 l -0.07207,0.21625 q 2.738972,-0.64876 3.675989,-0.64876 l 54.85159,0 q 5.33381,0 8.21694,4.03643 2.88313,4.03635 1.29741,9.37015 L 92.3165,1011.7155 q -2.59482,8.5773 -5.153603,11.0641 -2.558781,2.4867 -9.262063,2.4867 l -62.636055,0 q -1.946111,0 -2.738973,1.0811 -0.792861,1.1533 -0.07208,3.0994 1.729879,5.0455 10.379277,5.0455 l 66.52828,0 q 2.09028,0 4.03638,-1.1172 1.94611,-1.1173 2.52275,-2.9914 L 117.5439,959.24252 q 0.50455,-1.58566 0.3604,-4.10846 2.73898,1.0812 4.25262,3.09938 z" style="fill:#a8854c;fill-opacity:1"/><path id="path4" d="m 39.483118,976.82961 q -0.288312,0.93705 0.144162,1.62184 0.432468,0.6847 1.441561,0.6847 l 43.823618,0 q 0.937017,0 1.837996,-0.6847 0.900982,-0.68479 1.189292,-1.62184 l 1.51365,-4.61301 q 0.28831,-0.93698 -0.14416,-1.62175 -0.43248,-0.68471 -1.44157,-0.68471 l -43.82361,0 q -0.937018,0 -1.838001,0.68471 -0.900977,0.68477 -1.18929,1.62175 z" style="fill:#4e3f1f;fill-opacity:1"/><path id="path4155" d="m 45.465618,958.37758 q -0.288313,0.93705 0.144162,1.62176 0.432468,0.68478 1.441561,0.68478 l 43.823616,0 q 0.93702,0 1.83799,-0.68478 0.90098,-0.68471 1.18929,-1.62176 l 1.51366,-4.613 q 0.28831,-0.93698 -0.14416,-1.62176 -0.43247,-0.68471 -1.44157,-0.68471 l -43.82361,0 q -0.937018,0 -1.838001,0.68471 -0.900978,0.68478 -1.18929,1.62176 z" style="fill:#4e3f1f;fill-opacity:1"/></g></svg>