<svg xmlns="http://www.w3.org/2000/svg" width="128" height="128" viewBox="0 0 128 128"><path d="M122.157 33.871q2.883 4.108 1.297 9.298l-19.822 65.303q-1.369 4.613-5.514 7.748-4.144 3.135-8.83 3.135h-66.528q-5.55 0-10.704-3.856-5.154-3.856-7.172-9.478-1.73-4.829-.144-9.154 0-.288.216-1.946t.288-2.667q.072-.577-.216-1.55-.288-.973-.216-1.406.144-.793.577-1.514.432-.721 1.189-1.694.757-.973 1.189-1.694 1.658-2.739 3.244-6.595 1.586-3.856 2.162-6.595.216-.721.036-2.162-.18-1.442-.036-2.018.216-.793 1.225-2.018 1.009-1.225 1.225-1.658 1.514-2.595 3.027-6.631 1.514-4.036 1.802-6.487.072-.649-.18-2.307t.036-2.018q.288-.937 1.586-2.198 1.297-1.261 1.586-1.622 1.369-1.874 3.063-6.091 1.694-4.217 1.982-6.956.072-.577-.216-1.838-.288-1.261-.144-1.91.144-.577.649-1.297.505-.721 1.297-1.658.793-.937 1.225-1.514.577-.865 1.189-2.198.613-1.333 1.081-2.523.469-1.189 1.153-2.595.685-1.406 1.406-2.307.721-.901 1.91-1.694 1.189-.793 2.595-.829 1.406-.036 3.424.396l-.072.216q2.739-.649 3.676-.649h54.852q5.334 0 8.217 4.036 2.883 4.036 1.297 9.37l-19.749 65.303q-2.595 8.577-5.154 11.064-2.559 2.487-9.262 2.487h-62.636q-1.946 0-2.739 1.081-.793 1.153-.072 3.099 1.73 5.045 10.379 5.045h66.528q2.09 0 4.036-1.117 1.946-1.117 2.523-2.991l21.623-71.141q.505-1.586.36-4.108 2.739 1.081 4.253 3.099z" fill="#a8854c"/><path d="M39.483 52.467q-.288.937.144 1.622.432.685 1.442.685h43.824q.937 0 1.838-.685t1.189-1.622l1.514-4.613q.288-.937-.144-1.622-.432-.685-1.442-.685h-43.824q-.937 0-1.838.685t-1.189 1.622zm5.983-18.452q-.288.937.144 1.622.432.685 1.442.685h43.824q.937 0 1.838-.685t1.189-1.622l1.514-4.613q.288-.937-.144-1.622-.432-.685-1.442-.685h-43.824q-.937 0-1.838.685t-1.189 1.622z" fill="#4e3f1f"/></svg>