<?xml version="1.0" encoding="UTF-8"?>
<svg xmlns="http://www.w3.org/2000/svg" width="128" height="128" viewBox="0 0 128 128">
  <!-- Shelf boards (brown wood) -->
  <rect x="4" y="58" width="120" height="8" rx="1" fill="#8B4513" opacity="0.94"/>
  <rect x="4" y="118" width="120" height="8" rx="1" fill="#8B4513" opacity="0.94"/>
  
  <!-- Top shelf books -->
  <!-- Book 1 - tall blue -->
  <rect x="8" y="14" width="16" height="44" rx="1" fill="#2E5C8A"/>
  <rect x="8" y="14" width="3.2" height="44" fill="#4E7CAA" opacity="0.8"/>
  <line x1="13.6" y1="16" x2="13.6" y2="56" stroke="#3E6C9A" stroke-width="1" opacity="0.6"/>
  
  <!-- Book 2 - medium-tall red -->
  <rect x="26" y="20" width="14" height="38" rx="1" fill="#C84848"/>
  <rect x="26" y="20" width="2.8" height="38" fill="#E86868" opacity="0.8"/>
  <line x1="30.9" y1="22" x2="30.9" y2="56" stroke="#D85858" stroke-width="1" opacity="0.6"/>
  
  <!-- Book 3 - medium green -->
  <rect x="42" y="26" width="13" height="32" rx="1" fill="#4A8A4A"/>
  <rect x="42" y="26" width="2.6" height="32" fill="#6AAA6A" opacity="0.8"/>
  <line x1="46.55" y1="28" x2="46.55" y2="56" stroke="#5A9A5A" stroke-width="1" opacity="0.6"/>
  
  <!-- Book 4 - tall purple -->
  <rect x="57" y="18" width="15" height="40" rx="1" fill="#7A4A9A"/>
  <rect x="57" y="18" width="3" height="40" fill="#9A6ABA" opacity="0.8"/>
  <line x1="62.25" y1="20" x2="62.25" y2="56" stroke="#8A5AAA" stroke-width="1" opacity="0.6"/>
  
  <!-- Book 5 - medium orange -->
  <rect x="74" y="24" width="14" height="34" rx="1" fill="#D87A38"/>
  <rect x="74" y="24" width="2.8" height="34" fill="#F89A58" opacity="0.8"/>
  <line x1="78.9" y1="26" x2="78.9" y2="56" stroke="#E88A48" stroke-width="1" opacity="0.6"/>
  
  <!-- Book 6 - short teal -->
  <rect x="90" y="28" width="12" height="30" rx="1" fill="#3A8A8A"/>
  <rect x="90" y="28" width="2.4" height="30" fill="#5AAAAA" opacity="0.8"/>
  <line x1="94.2" y1="30" x2="94.2" y2="56" stroke="#4A9A9A" stroke-width="1" opacity="0.6"/>
  
  <!-- Book 7 - tall yellow -->
  <rect x="104" y="16" width="16" height="42" rx="1" fill="#C8A848"/>
  <rect x="104" y="16" width="3.2" height="42" fill="#E8C868" opacity="0.8"/>
  <line x1="109.6" y1="18" x2="109.6" y2="56" stroke="#D8B858" stroke-width="1" opacity="0.6"/>
  
  <!-- Bottom shelf books -->
  <!-- Book 8 - tall blue -->
  <rect x="8" y="72" width="15" height="46" rx="1" fill="#4A6A9A"/>
  <rect x="8" y="72" width="3" height="46" fill="#6A8ABA" opacity="0.8"/>
  <line x1="13.25" y1="74" x2="13.25" y2="116" stroke="#5A7AAA" stroke-width="1" opacity="0.6"/>
  
  <!-- Book 9 - medium-tall red -->
  <rect x="25" y="78" width="13" height="40" rx="1" fill="#B84A4A"/>
  <rect x="25" y="78" width="2.6" height="40" fill="#D86A6A" opacity="0.8"/>
  <line x1="29.55" y1="80" x2="29.55" y2="116" stroke="#C85A5A" stroke-width="1" opacity="0.6"/>
  
  <!-- Book 10 - tall green -->
  <rect x="40" y="74" width="16" height="44" rx="1" fill="#5A9A5A"/>
  <rect x="40" y="74" width="3.2" height="44" fill="#7ABA7A" opacity="0.8"/>
  <line x1="45.6" y1="76" x2="45.6" y2="116" stroke="#6AAA6A" stroke-width="1" opacity="0.6"/>
  
  <!-- Book 11 - medium purple -->
  <rect x="58" y="80" width="14" height="38" rx="1" fill="#8A5AAA"/>
  <rect x="58" y="80" width="2.8" height="38" fill="#AA7ACA" opacity="0.8"/>
  <line x1="62.9" y1="82" x2="62.9" y2="116" stroke="#9A6ABA" stroke-width="1" opacity="0.6"/>
  
  <!-- Book 12 - short orange -->
  <rect x="74" y="84" width="12" height="34" rx="1" fill="#E89A58"/>
  <rect x="74" y="84" width="2.4" height="34" fill="#FFBA78" opacity="0.8"/>
  <line x1="78.2" y1="86" x2="78.2" y2="116" stroke="#F8AA68" stroke-width="1" opacity="0.6"/>
  
  <!-- Book 13 - tall teal -->
  <rect x="88" y="76" width="15" height="42" rx="1" fill="#4A9A9A"/>
  <rect x="88" y="76" width="3" height="42" fill="#6ABABA" opacity="0.8"/>
  <line x1="93.25" y1="78" x2="93.25" y2="116" stroke="#5AAAAA" stroke-width="1" opacity="0.6"/>
  
  <!-- Book 14 - medium pink -->
  <rect x="105" y="82" width="14" height="36" rx="1" fill="#D87AAA"/>
  <rect x="105" y="82" width="2.8" height="36" fill="#F89ACA" opacity="0.8"/>
  <line x1="109.9" y1="84" x2="109.9" y2="116" stroke="#E88ABA" stroke-width="1" opacity="0.6"/>
</svg>
