<svg xmlns="http://www.w3.org/2000/svg" xmlns:xlink="http://www.w3.org/1999/xlink" width="128" height="128" viewBox="0 0 128 128"><defs><linearGradient id="a"><stop offset="0" stop-color="#6971cf"/><stop offset="1" stop-color="#1c2057" stop-opacity=".992"/></linearGradient><linearGradient xlink:href="#a" id="b" x1="61.521" y1="925.112" x2="61.521" y2="1052.487" gradientUnits="userSpaceOnUse" gradientTransform="matrix(.724 0 0 1 17.685 0)"/></defs><path d="M95.761.638q1.394 0 2.667.754 2 1.089 3.182 3.434t1.182 5.193v107.962q0 2.848-1.182 5.193-1.182 2.345-3.182 3.434-1.152.67-2.667.67-2.909 0-5.031-2.68l-26.73-35.513-26.73 35.513q-2.182 2.764-5.031 2.764-1.394 0-2.667-.754-2-1.089-3.182-3.434t-1.182-5.193v-107.962q0-2.848 1.182-5.193 1.182-2.345 3.182-3.434 1.273-.754 2.667-.754h63.521z" fill="url(#b)"/></svg>