<svg xmlns="http://www.w3.org/2000/svg" xmlns:xlink="http://www.w3.org/1999/xlink" viewBox="0 0 1024 1024" enable-background="new 0 0 1024 1024"><style type="text/css">.st0{fill:#5B757B;} .st1{fill:#4D1E00;} .st2{fill:url(#SVGID_1_);} .st3{fill:url(#SVGID_2_);} .st4{fill:url(#SVGID_3_);} .st5{fill:url(#SVGID_4_);} .st6{fill:url(#SVGID_5_);} .st7{fill:url(#SVGID_6_);} .st8{fill:#79ABFF;} .st9{fill:#D6B865;} .st10{fill:url(#SVGID_7_);} .st11{fill:url(#SVGID_8_);} .st12{fill:#0003D0;}</style><path class="st0" d="M300.2 134.9h170.3c7.6 0 13.7 6.1 13.7 13.7v779c0 7.6-6.1 13.7-13.7 13.7h-170.3c-7.6 0-13.7-6.1-13.7-13.7v-779c0-7.6 6.2-13.7 13.7-13.7z"/><path class="st1" d="M77.7 51h185.3c10.3 0 18.7 8.4 18.7 18.7v852.9c0 10.3-8.4 18.7-18.7 18.7h-185.3c-10.3 0-18.7-8.4-18.7-18.7v-852.9c0-10.3 8.4-18.7 18.7-18.7z"/><linearGradient id="SVGID_1_" gradientUnits="userSpaceOnUse" x1="-789.789" y1="486.895" x2="-148.49" y2="488.35" gradientTransform="matrix(1 0 0 -1 0 995.638)"><stop offset="0" stop-color="#FFA900"/><stop offset="1" stop-color="#FFEDA0"/></linearGradient><path class="st2" d="M143.1 742.4l.4 3-19 5.5c-1.5 6.2-2.2 11.8-2.2 16.8 0 12.2 4.1 21.8 12.4 28.7 8.2 7 18.9 10.4 32 10.4 14 0 25.2-4 33.6-12 8.4-8 12.5-19 12.5-33.1 0-7.9-1.5-16.3-4.4-25l3.2-.8c6.5 9.8 9.8 20.9 9.8 33.3 0 16.1-4.7 29.1-14.2 38.9-9.5 9.9-21.9 14.8-37.4 14.8-16.5 0-29.5-5.4-39.2-16.2-9.6-10.8-14.4-25-14.5-42.6 0-8.4 1-17 2.9-25.8l.6-.5 23.5 4.6zm-26.7-73.2l88.2-33.3c3.3-1.2 5.6-2.4 6.8-3.4 1.2-1 2-2.5 2.6-4.4l2-7 3.1-.2c-.1 6.5-.2 12.6-.2 18.1 0 5.7.1 12.4.2 20.1l-3.1.3-2-7.1c-.3-1-.7-1.7-1.1-2.1-.4-.4-1.1-.7-1.9-.7-1 0-2.2.3-3.7.8-1.6.5-3.7 1.2-6.3 2.2l-19.3 7v36l19.3 7.8c2.7 1 4.8 1.9 6.4 2.5 1.6.6 2.8.9 3.8.9.8 0 1.4-.2 1.9-.7.4-.5.7-1.2 1-2.2l1.9-6.9 3.2-.2c-.1 7.1-.2 12.8-.2 17.3s.1 9.5.2 15l-3.1.4-2.2-7.5c-.6-1.9-1.5-3.3-2.7-4.2-1.2-.9-3.1-1.9-5.6-3l-88-38.1-1.2-7.4zm58.6 23.8v-30.8l-39.7 14.6 39.7 16.2zm-37.2-109l58.6-.1c5.3 0 10.6-.1 15.8-.2v-36.4l-19.1-9.5-.5-3.4 25.8 1.6.5.4c-.1 12.9-.2 24.8-.2 35.8v18.7c0 6 .1 12.2.2 18.5l-3.1.3-2.7-9.2c-.3-1.2-1.1-1.9-2.2-2-1.9 0-4.1-.1-6.4-.1-2.4 0-5-.1-7.9-.1l-58.5.1c-2.5 0-4.7 0-6.6.1-2 0-3.8 0-5.3.1-1.2.1-2.1.6-2.4 1.8l-2.8 9.3-3.1.2c.2-6.4.3-12.6.3-18.5 0-6-.1-12.1-.3-18.5l3.1-.3 2.7 9.3c.3 1.2 1 1.8 2.2 1.9 1.7 0 4.1.1 7.4.1l4.5.1zm58.7-90.3h7.9c2.4-.1 4.5-.1 6.4-.2 1.2-.1 2-.9 2.4-2.6l2.5-8.4 3.1-.2c-.1 6.4-.2 12.6-.2 18.5 0 6 .1 12.2.2 18.5l-3.1.3-2.7-9.2c-.3-1.2-1.1-1.9-2.2-2-1.9 0-4.1-.1-6.4-.1-2.4 0-5-.1-7.9-.1l-58.5.1c-2.5 0-4.7 0-6.6.1-2 0-3.8 0-5.3.1-1.3.1-2.1.6-2.4 1.8l-2.8 9.3-3.1.2c.2-6.4.3-12.6.3-18.5 0-6-.1-12.1-.3-18.5l3.1-.3 2.7 9.3c.3 1.2 1 1.8 2.2 1.9 1.7 0 3.5.1 5.6.1h6.5l58.6-.1zm-78.8-31c.2-6.4.3-12.7.3-18.7-.1-2.3-.2-6-.4-11.1s-.3-8.6-.3-10.4c0-10.8 2-18.9 5.9-24.4 3.9-5.5 9.5-8.3 16.9-8.3 11.8 0 19.9 6.6 24.2 19.8 1.2-7.7 4-13.8 8.3-18.2 4.3-4.4 9.7-6.7 16.4-6.7 9.6 0 17.1 3.6 22.4 10.8 5.2 7.2 7.9 17.2 7.9 30 0 2.5-.1 5.3-.2 8.3-.1 2.9-.2 6.2-.2 9.9 0 6 .1 12.2.2 18.5l-3.1.3-2.7-9.2c-.3-1.2-1.1-1.9-2.2-2-1.9 0-4.1-.1-6.4-.1-2.4 0-5-.1-7.9-.1l-58.5.1c-2.5 0-4.7 0-6.6.1-2 0-3.8 0-5.3.1-1.2.1-2.1.6-2.4 1.8l-2.8 9.3-3.5.2zm50.7-25.9l43.8-.1c.5-1.5.9-3.2 1-5.2.1-2 .2-3.8.2-5.5 0-8.3-2-14.5-5.9-18.8-3.9-4.3-9.7-6.5-17.2-6.5s-13 2.2-16.6 6.6c-3.6 4.3-5.5 11.4-5.5 21.1 0 3 0 5.8.2 8.4zm-5.8.1c0-3.1.1-6.2.1-9.4 0-7.4-1.7-12.9-5.1-16.6-3.5-3.8-8.5-5.7-15-5.7-6.9 0-11.8 2-14.8 5.8s-4.5 9.4-4.5 16.7c0 1.3.1 2.7.1 4.3.1 1.5.2 3.2.4 5l38.8-.1zm33.7-96.7h7.8c2.3-.1 4.4-.1 6.3-.2 1.5-.1 2.4-.7 2.8-1.9l2.4-8.3 3.1-.2c-.1 5.9-.2 11.9-.2 17.8 0 6 .1 12.2.2 18.5l-3.1.3-2.7-9.2c-.3-1.2-1.1-1.9-2.2-2-1.9 0-4.1-.1-6.4-.1-2.4 0-5-.1-7.9-.1l-58.5.1c-2.5 0-4.7 0-6.6.1-2 0-3.8 0-5.3.1-1.3.1-2.1.6-2.4 1.8l-2.8 9.3-3.1.2c.2-6.4.3-12.7.3-18.7 0-1.2 0-2.7-.1-4.6-.1-1.8-.2-4.1-.3-6.7-.1-2.7-.2-4.9-.2-6.7-.1-1.8-.1-3.2-.1-4.3 0-11.4 2-19.9 6.2-25.5 4.1-5.7 10.2-8.5 18.1-8.5 7.2 0 13 1.9 17.5 5.8 4.4 3.9 7.8 9.8 10.3 17.8 4.6-3.1 9.1-6 13.4-8.7 4.3-2.6 8.2-5.1 11.8-7.3 3.6-2.3 6.7-4.4 9.4-6.3 2.7-1.9 4.9-3.7 6.5-5.3.8-.8 1.5-1.7 2.2-2.5.6-.8 1.1-1.7 1.4-2.6.4-.9.7-1.9 1-2.9.3-1 .6-2.2.9-3.4l3.2-.2c.4 3.6.7 6.6.7 9 0 2 0 3.8-.1 5.4-.1 1.5-.3 2.9-.6 4.1-.3 1.2-.6 2.3-1.1 3.3-.5.9-1.1 1.9-1.8 2.8-1.5 2-3.6 4.1-6.4 6.1-2.8 1.9-6 4-9.6 6.1-3.6 2.1-7.3 4.3-11.3 6.6-4 2.3-8 4.7-11.8 7.3-1.2.7-2.1 1.4-2.7 1.9-.7.5-1.2 1.1-1.6 1.7-.4.6-.6 1.3-.8 2.2-.1.8-.2 1.8-.3 3.1l-.1 5.2 24.6-.4zm-30.4 0c.1-3 .2-5.9.2-8.4 0-8.6-1.8-14.9-5.3-18.9-3.6-4-9.1-6-16.7-6-7.3 0-12.6 1.9-16 5.8-3.4 3.8-5 9.8-5 18 0 1.4.1 2.9.1 4.5s.2 3.3.4 5.2l42.3-.2zm-48.2-94.1v-18.1c0-11.2-.1-22.9-.3-35.3l.6-.4 22.3 4.3.5 3-16.7 4.6v34.5h39.7v-6.8c0-5.2-.1-11-.2-17.3 0-1.3-.7-2.1-1.9-2.5l-9.7-2.6-.1-4c6.7.1 11.7.2 14.9.2 3.1 0 8-.1 14.7-.2l.3 4-9.9 2.7c-1.2.4-1.9 1.2-1.9 2.3-.1 6.5-.1 12.3-.1 17.6v6.7h26.2c5.3 0 10.6-.1 15.8-.2v-35.8l-18.3-9.1-.6-3.4 25.1 1.6.5.5c-.1 12.9-.2 24.8-.2 35.7v17.8c0 6 .1 12.2.2 18.5l-3.1.3-2.7-9.2c-.3-1.2-1.1-1.9-2.2-2-1.9 0-4.1-.1-6.4-.1-2.4 0-5-.1-7.9-.1l-58.5.1c-2.5 0-4.7 0-6.6.1-2 0-3.8 0-5.3.1-1.3.1-2.1.6-2.4 1.8l-2.8 9.3-3.1.2c0-6.7.1-12.8.1-18.8z"/><linearGradient id="SVGID_2_" gradientUnits="userSpaceOnUse" x1="170.325" y1="855.209" x2="170.325" y2="889.495" gradientTransform="matrix(1 0 0 -1 0 995.638)"><stop offset="0" stop-color="#000001" stop-opacity="0"/><stop offset=".5"/><stop offset="1" stop-opacity="0"/></linearGradient><path class="st3" d="M58 105.5h224.6v35.6h-224.6v-35.6z"/><linearGradient id="SVGID_3_" gradientUnits="userSpaceOnUse" x1="169.643" y1="855.209" x2="169.643" y2="889.495" gradientTransform="matrix(1 0 0 -1 -.714 1733.495)"><stop offset="0" stop-color="#000001" stop-opacity="0"/><stop offset=".5"/><stop offset="1" stop-opacity="0"/></linearGradient><path class="st4" d="M57.9 843.3h222.1v35.7h-222.1v-35.7z"/><radialGradient id="SVGID_4_" cx="481.939" cy="1959.668" r="111.788" gradientTransform="matrix(1.746 -.004 0 -.089 -456.108 400.364)" gradientUnits="userSpaceOnUse"><stop offset="0" stop-color="#fff"/><stop offset="1" stop-color="#5B757B" stop-opacity="0"/></radialGradient><path class="st5" d="M285.7 214h199.3v20h-199.3v-20z"/><radialGradient id="SVGID_5_" cx="481.164" cy="1959.708" r="111.746" gradientTransform="matrix(1.733 -.004 0 -.089 -448.5 1032.507)" gradientUnits="userSpaceOnUse"><stop offset="0" stop-color="#fff"/><stop offset="1" stop-color="#5B757B" stop-opacity="0"/></radialGradient><path class="st6" d="M286.4 846.1h197.9v20h-197.9v-20z"/><radialGradient id="SVGID_6_" cx="-543.303" cy="694.852" r="204.886" gradientTransform="matrix(1.194 .041 .022 -.642 -32.034 819.83)" gradientUnits="userSpaceOnUse"><stop offset="0" stop-color="#fff"/><stop offset="1" stop-color="#fff" stop-opacity=".392"/></radialGradient><path class="st7" d="M408.6 760.5c5.1 3.5 6.6 5.3 6.7 8.4.1 3.1-2.5 6.4-7.2 9.1-4.8 2.7-8 4.1-20.6 9-5.1 2-7.9 3.1-13.6 5.4-12-13.5-14.7-17.4-14.8-21.3 0-1.6.2-2.8 1.2-5.3l-6.7-3.2c-.8 2.3-1.1 3.4-1 5.1.1 2.2.6 3.8 2.2 5.9.9 1.3.9 1.3 10.5 12.6l7.8 8.8c.3.3 1.1 1.3 2.3 2.8l-18.9-4.2c-.8-2.6-1.3-3.3-2.9-4.6-.2 4.1-.2 6-.2 8.3.2 7.1 1.3 12.8 3.3 16.7 3.5 6.7 8.9 10.2 15.4 10.1 2.3-.1 3.8-.5 6.7-1.7l-3.3-7.3c-3.5 1.5-5.6 2.1-8.5 2.2-6.3.2-9.8-4.3-10-12.6 0-.9 0-2.4.2-4.3l3.5.8c22.6 4.8 27.2 6.1 33.3 8.7 5.7 2.8 8.2 6.2 8 11.3l.1 3.4 4 3.9-.3-12.3c-.2-6.3-.2-6.7-.9-8.3-.9-1.8-2-3.7-3.3-5.8l.3 10.9c-11.2-10.7-13.6-12.1-24.9-14.7l2-.7c1.5-.6 1.6-.6 4.9-1.7l5.4-1.8c12.5-4.2 18.6-7 22.3-10.4 4.4-4.1 6.6-9.6 6.4-16.3-.1-3-.4-4.6-1.7-7.9l-7.7 1zm-41.6-11.2c.1 3.6 2.8 9.3 6.9 14.5 4.5 5.7 13.9 9.5 22.9 9.2 5.4-.1 8.8-3.3 8.7-8-.1-2.5-1-5.1-3.3-9.1-2.6-4.4-5-7.3-7.1-8.9-5-3.5-13.9-6.1-20.1-6-4.8.1-8.1 3.5-8 8.3zm4.4 4.6c-.1-3.6 3.3-5.9 8.8-6.1 3.9-.1 8.5 1.1 13 3.1 5.2 2.5 8.1 5.7 8.1 9.1.1 3.7-3.2 6.1-8.3 6.2-10.5.3-21.5-6-21.6-12.3zm12.9-18.7c-8.2-2.4-9-3-9.2-6.3-.2-5-.3-6.4-.9-8.6 6.1 5.2 7.9 6.6 10 7.8 4.4 2.5 9.5 3.9 14 3.8 4.1-.1 6.6-2.1 6.5-5-.2-7.1-7.9-16.3-18.6-22.2-6.1-3.5-13.2-5.6-17.7-5.5-2.2.1-3.3.7-4.8 2.5.7 2.1 1.1 3.1 2.6 6 2.4-1.1 3.7-1.5 6.3-1.6 5.5-.1 11.2 1.3 16.5 4.3 6 3.4 10.5 8.2 10.5 11.5.1 2.1-2.2 3.7-5.3 3.7-4.1.1-9.1-1.2-13.7-3.6-3.3-1.7-5.8-3.5-10.6-7.5h-.6c-.2 0-.5 0-1 .1v.9c1.3 1 1.6 1.9 1.6 4.7 0 1.2.1 2.2-.1 5 0 2.3-.1 3.8-.1 4.4 0 1.8.3 2.6 1.1 3.1 1.5 1.1 5.2 2.5 11.7 4.1l1.8-1.6zm-37.4-54.5c2 2.5 3.7 4.5 4.8 6.1 1.9-.7 3.4-1.5 6.2-3.6-2.3-2.5-2.6-2.7-5-5.7-.5.3-.9.5-2 1.2-1.1.6-1.1.7-2.8 1.4l-1.2.6zm44.9-4.5l.8 1.5c3.6 6.1 4 7.2 4.1 8.3 0 1-1 1.6-2.5 1.7-1.5 0-1.5 0-13.5-2.6-13.8-3-13.8-3-14.5-3-.5 0-.9.5-.9 1.1 0 1.5 3.1 6.8 8.3 14l2.5.1c-3.1-5.4-3.2-5.7-3.2-6.5 0-.7.5-1.1 1.5-1.1 1.3 0 2.5.2 7.7 1.4 15.8 3.8 15.8 3.8 18.1 3.8 2.2-.1 3.6-.9 3.5-2.2 0-1.5-1.3-3.9-4.4-8.6-1.1-1.7-2.2-3.4-3.5-5-.5-.8-.9-1.4-1.6-2.5l-2.4-.4zm-2.3-38.4l1.7 2.5c1.6 2.2 2.7 3.7 3 4.2 1.2 1.9 2.1 3.5 2.1 4 0 .7-1 1.3-2.3 1.3-3 .1-35.7-6.6-41.4-8.4-5.4-1.8-7.6-3.8-7.6-7 0-1.3.1-2.1.6-4.2l-5.1-3c-.2 1.4-.3 2-.3 2.9.1 2.2.4 3.4 1.7 5.4 1.3 2.2 3.7 5.2 6.1 7.7 4.3 4.3 5 4.6 14.3 6.7.4.1 1.6.3 2.9.6-.3 1.6-.5 2.9-.4 3.7.1 2.8 5.1 10.4 9.2 13.9 3.6 3 16.4 6.7 22.6 6.6 3.4-.1 6.9-2 6.8-3.6 0-1.7-2.7-5.8-9.6-14.9 2.4.4 4.8.6 6.5.6 1.8 0 2.8-.7 2.7-2 0-1.4-5-9.1-10.6-16.5l-2.9-.5zm.8 17.7c5.6 7.5 6.8 9.5 6.8 10.7 0 1.3-1.2 1.9-3.9 2-3 .1-6.3-.4-10.4-1.4-9.1-2.3-13.7-5.8-13.9-10.4 0-1.7.6-2.9 2.3-4.7l19.1 3.8zm-12.3-84.5v-1.9l-2.6-4.1c-.2 3.5-.2 11.1 0 20.3l2.9 5.4h.7c-.4-4.6-.7-9-.9-13.1l13 2.9c3.7 3.8 6.3 9 6.4 13.2.2 6.7-5 10.9-13.1 11.1-17.5.4-34.2-10.9-34.5-23.6-.1-3.7 1.4-6.9 4-8.7 1.8-1.2 3.3-1.7 7.1-2.3l-7.6-6.5c-5.1 1.8-7 5.1-6.8 12.1.2 9.9 4.5 18.6 12.4 25.6 8 7.1 19.1 11.4 28.6 11.2 8.7-.2 14-5.1 13.8-12.9-.1-5.6-1.6-10.2-5.9-18.2 5.4 1.2 11.3 2.7 13.3 3.5 4.9 1.7 6.9 4.2 7.1 9 .1 2.6-.2 6.9-.6 9.7l6 3.6c.3-3.2.3-4.6.3-6.5-.2-7.2-3.6-13.2-10.6-19-4.6-3.8-8.4-5.3-18.9-7.6l-14.1-3.2zm-16.2-33.5c.1 3.6 2.8 9.3 6.9 14.5 4.5 5.7 13.9 9.5 22.9 9.2 5.4-.1 8.8-3.3 8.7-8-.1-2.5-1-5.1-3.3-9.1-2.6-4.4-5-7.3-7.1-8.9-5-3.5-13.9-6.1-20.1-6-4.8.1-8.1 3.6-8 8.3zm4.3 4.6c-.1-3.6 3.3-5.9 8.8-6.1 3.9-.1 8.5 1.1 13 3.1 5.2 2.5 8.1 5.7 8.1 9.1.1 3.7-3.2 6.1-8.3 6.2-10.5.3-21.4-6-21.6-12.3zm54.2-11.4c.3-2.9.5-6.7.4-9.9-.2-6.3-2-9.8-7.6-14.8-5.8-5.1-6.7-5.4-21.4-8.2-14.5-2.8-21.2-4.3-31.4-7.1.7 1.2 1.2 2.1 1.4 2.5l1.6 3.1c.4.8.7 1.3 1 2l3.3.7 7.4 1.7 7.4 1.6 3.9.9c5.8 8.9 6.1 9.3 6.1 10.9 0 1.1-1.1 1.9-2.8 2-2.5.1-5.8-.6-17.7-3.4-9.1-1.9-9.1-1.9-9.7-1.9-.6 0-1.1.5-1.1 1 0 1 3.1 6.6 7.8 14.1l2.4.2c-2.4-4.4-2.6-5.2-2.7-6.1 0-.9.4-1.4 1.3-1.4 1.6 0 4.2.5 12.3 2.5 8.2 2 9.8 2.4 12.2 2.3 3-.1 5-1.5 5-3.3 0-1.1-.7-2.3-2.7-5.3-5-7.6-5-7.6-7.8-11.3l4.8.9c12.9 2.4 14.6 2.8 16.9 3.8 3.2 1.5 4.6 4.2 4.7 9.2.1 2.7-.2 4.7-1.4 10l6.4 3.3zm-35.4-79.2c4.7 6.5 5.6 8 5.6 8.9 0 .6-.7 1.1-1.8 1.1-2.4.1-11.9-1.8-24.3-4.8-1.5-1-1.6-1.1-3.3-2.5-.9 4.3-1.2 7.4-1.1 11.4.1 3.7.5 5.5 2 7.7 2 3.2 4.9 6.9 6.1 8 3.9 3.3 16.1 6.7 23.4 6.5 4.3-.1 7.2-1.6 7.1-3.9 0-2-1.9-4.9-10.3-16 4.6.9 6.9 1.2 8 1.2 1.3 0 1.9-.6 1.9-1.5 0-1.2-.4-1.9-4.8-8.2-2.1-3-3.4-4.7-5.9-8l-2.6.1zm-.3 15.8c2.4 3.1 3.6 4.7 3.7 4.8 2 2.9 3.2 5.2 3.2 6.4 0 1.5-1.6 2.4-4.4 2.5-4.6.1-10.6-1.1-15.8-3.3-5-2-6.9-4-7-7 0-1.6.3-4.7 1-7.7 6.5 1.6 9 2.2 9.4 2.3 2.3.5 4.5.9 6.9 1.4.4 0 1.5.2 3 .6zm-.1-37c1.1 1.9 1.1 1.9 3.7 5.7 1.7 2.6 2.4 4.1 2.5 5.1 0 .9-1 1.6-2.3 1.7h-1.6c-1.6 0-19.2-3.6-31.9-6.6-13.4-3.2-15-4-15-7.9 0-1.4 0-2.3.5-4.4l-4.9-3.8c-.4 1.9-.5 2.8-.4 4.1.1 3.6 1.5 6.4 5.6 10.7 3.6 3.9 5.1 4.8 8.3 5.9 2.2.7 9.5 2.5 13.5 3.3l28.3 5.8c.5.1 1.1.2 1.6.1 2.8-.1 5.5-1.7 5.4-3.1v-.8c.3-.5-1.8-3.4-11.2-15.7l-2.1-.1z"/><path class="st8" d="M661.5 358.6l190.9-34.3c7.3-1.3 14.4 3.5 15.9 10.8l110.6 556.2c1.5 7.3-3.3 14.3-10.6 15.6l-190.9 34.3c-7.3 1.3-14.4-3.5-15.9-10.8l-110.7-556.2c-1.4-7.3 3.3-14.3 10.7-15.6z"/><path xlink:href="#rect6833" class="st9" d="M594.5 32.6c-.8-.1-1.7 0-2.6.1l-106 13.6c-6.9.9-11.8 7.2-10.9 14.1l111.6 870.1c.9 6.9 7.2 11.8 14.1 10.9l106.1-13.6c6.9-.9 11.8-7.2 10.9-14.1l-111.6-870.1c-.8-6.1-5.7-10.6-11.6-11z"/><radialGradient id="SVGID_7_" cx="810.856" cy="-14.406" r="41.081" gradientTransform="matrix(11.938 -1.444 -.09 -.744 -9021.961 2082.63)" gradientUnits="userSpaceOnUse"><stop offset="0" stop-color="#601A22"/><stop offset=".867" stop-color="#45181D"/><stop offset="1" stop-color="#A13642" stop-opacity="0"/></radialGradient><path xlink:href="#rect6833" class="st10" d="M594.5 32.6c-.8-.1-1.7 0-2.6.1l-106 13.6c-6.9.9-11.8 7.2-10.9 14.1l111.6 870.1c.9 6.9 7.2 11.8 14.1 10.9l106.1-13.6c6.9-.9 11.8-7.2 10.9-14.1l-111.6-870.1c-.8-6.1-5.7-10.6-11.6-11z"/><radialGradient id="SVGID_8_" cx="808.94" cy="1121.594" r="41.081" gradientTransform="matrix(10.936 -1.297 -.088 -.744 -8174.219 1958.535)" gradientUnits="userSpaceOnUse"><stop offset="0" stop-color="#601A22"/><stop offset=".867" stop-color="#45181D"/><stop offset="1" stop-color="#A13642" stop-opacity="0"/></radialGradient><path xlink:href="#rect6833" class="st11" d="M594.5 32.6c-.8-.1-1.7 0-2.6.1l-106 13.6c-6.9.9-11.8 7.2-10.9 14.1l111.6 870.1c.9 6.9 7.2 11.8 14.1 10.9l106.1-13.6c6.9-.9 11.8-7.2 10.9-14.1l-111.6-870.1c-.8-6.1-5.7-10.6-11.6-11z"/><path class="st12" d="M736.5 346.6l39.3-7.3 41.7 223.1-23.7-18-15.6 25.3z"/></svg>