<svg xmlns="http://www.w3.org/2000/svg" xmlns:xlink="http://www.w3.org/1999/xlink" width="128" height="128" viewBox="0 0 128 128"><defs><linearGradient id="a"><stop offset="0" stop-color="#116def"/><stop offset="1" stop-color="#020e1e"/></linearGradient><linearGradient xlink:href="#a" id="b" x1="77.171" y1="944.391" x2="77.171" y2="1032.337" gradientUnits="userSpaceOnUse"/></defs><path d="M28.258 113.218q0 5.472-3.728 8.619-3.728 3.147-9.269 3.147-7.251 0-11.766-4.515l3.899-6.02q3.352 3.078 7.251 3.078 1.984 0 3.454-.992 1.471-.992 1.471-2.907 0-4.378-7.183-3.831l-1.778-3.831q.547-.684 2.223-2.976 1.676-2.292 2.907-3.694 1.231-1.402 2.531-2.634v-.068q-1.094 0-3.318.068-2.223.068-3.318.068v3.625h-7.251v-10.398h22.779v6.02l-6.498 7.867q3.489.821 5.541 3.352 2.052 2.531 2.052 6.02zm.137-42.89v10.876h-24.763q-.41-2.463-.41-3.694 0-3.489 1.608-6.362t3.865-4.652q2.257-1.779 4.515-3.249 2.257-1.471 3.865-2.976t1.608-3.078q0-1.71-.992-2.634-.992-.924-2.702-.924-3.147 0-5.541 3.968l-5.814-4.036q1.642-3.489 4.891-5.438 3.249-1.95 7.217-1.95 4.994 0 8.414 2.839t3.42 7.696q0 3.42-2.326 6.259-2.326 2.839-5.13 4.412-2.805 1.573-5.165 3.454-2.36 1.881-2.428 3.591h8.687v-4.104h7.183zm.069-39.675v6.772h-22.916v-6.772h7.319q0-2.805.034-8.345.034-5.541.034-8.277v-.821h-.137q-.547 1.163-3.42 3.694l-4.857-5.199 9.303-8.688h7.251v27.636h7.388z" fill="#116def"/><path d="M124.778 92.149v13.134q0 .889-.65 1.539-.65.65-1.539.65h-83.181q-.889 0-1.539-.65-.65-.65-.65-1.539v-13.134q0-.958.616-1.573.616-.616 1.573-.616h83.181q.889 0 1.539.65.65.65.65 1.539zm0-35.024v13.134q0 .889-.65 1.539-.65.65-1.539.65h-83.181q-.889 0-1.539-.65-.65-.65-.65-1.539v-13.134q0-.958.616-1.573.616-.616 1.573-.616h83.181q.889 0 1.539.65.65.65.65 1.539zm0-35.023v13.134q0 .889-.65 1.539-.65.65-1.539.65h-83.181q-.889 0-1.539-.65-.65-.65-.65-1.539v-13.134q0-.889.65-1.539.65-.65 1.539-.65h83.181q.889 0 1.539.65.65.65.65 1.539z" fill="url(#b)"/></svg>