<svg xmlns="http://www.w3.org/2000/svg" xmlns:svg="http://www.w3.org/2000/svg" id="svg2" width="128" height="128" version="1.1" viewBox="0 0 128 128"><metadata id="metadata7"/><g id="layer1" transform="translate(0,-924.36216)"><path id="path4136" d="m 64.700502,946.17683 44.598118,14.32125 0,-29.57645 z"/><path id="path4" d="m 123.77552,965.16804 0,83.98146 -60.242509,-19.1468 c -0.726444,0.3114 -10.455534,3.6192 -29.187275,9.9237 -18.73173,6.3044 -28.2792085,9.4566 -28.6424355,9.4566 -0.674551,0 -1.141546,-0.3373 -1.400986,-1.0118 0,-0.051 -0.02594,-0.1295 -0.07783,-0.2335 l 0,-83.90369 c 0.155662,-0.46698 0.259439,-0.72641 0.31133,-0.77828 0.25945,-0.31133 0.778339,-0.59672 1.556666,-0.8562 5.5001675,-1.8161 9.3658565,-3.1133 11.5970695,-3.89159 l 0,-29.88775 43.430639,15.41085 c 0.103774,0 4.267827,-1.42693 12.49215,-4.28081 8.224324,-2.85388 16.422697,-5.66883 24.595121,-8.44487 8.17243,-2.77599 12.36243,-4.16399 12.56999,-4.16399 1.03777,0 1.55666,0.54482 1.55666,1.63447 l 0,32.53401 z" style="fill:#0d1890;fill-opacity:1"/><path id="path4138" d="m 103.85034,1021.0518 7.93893,2.413 -14.087725,-51.13614 -7.783252,-2.41286 -16.811878,41.7183 7.93895,2.413 3.502477,-8.5617 16.422698,5.0591 z" style="fill:#919af2;fill-opacity:1"/><path id="path4142" d="m 93.498596,983.45868 4.90346,17.66812 -10.818752,-3.26903 z" style="fill:#1421a7;fill-opacity:1"/><path id="path4140" d="m 7.2599505,1045.7249 54.0159045,-18.0571 0,-80.32347 -54.0159045,18.13501 z" style="fill:#919af2;fill-opacity:1"/><g id="g4154" style="fill:#0d1890;fill-opacity:1"><path id="path4146" d="m 55.127072,1011.245 c -0.05189,0.1556 -0.376187,0.1427 -0.972912,-0.039 -0.596722,-0.1816 -1.413966,-0.48 -2.451733,-0.8951 l -1.556645,-0.7004 c -2.283097,-1.0378 -4.54025,-2.3091 -6.771458,-3.8139 -0.363216,-0.2594 -1.426925,-1.0766 -3.191128,-2.4516 -1.764209,-1.3751 -2.75009,-2.1145 -2.957637,-2.2183 -3.476538,5.3445 -6.953068,10.0405 -10.429591,14.0878 -4.202964,4.9294 -6.927106,7.7831 -8.172427,8.5615 -0.207559,0.1037 -0.713477,0.2075 -1.517753,0.3114 -0.804271,0.1037 -1.284237,0.1037 -1.4399,0 0.311342,-0.2077 2.438769,-2.5945 6.382283,-7.1606 1.089665,-1.2454 3.307901,-4.2289 6.654708,-8.9508 3.346803,-4.7219 5.383426,-7.7833 6.109868,-9.18433 0.882099,-1.55661 2.205253,-4.11211 3.969462,-7.66653 1.764205,-3.55435 2.698195,-5.56502 2.801972,-6.032 -0.415101,-0.0519 -3.268969,0.80431 -8.561602,2.56844 -0.415102,0.10375 -1.128571,0.29841 -2.140406,0.5838 -1.011817,0.28539 -1.906892,0.53186 -2.685218,0.73941 -0.778329,0.20756 -1.219381,0.33727 -1.323158,0.38914 -0.103775,0.10375 -0.155665,0.37614 -0.155665,0.81722 0,0.44108 -0.02594,0.68755 -0.07782,0.73941 -0.25944,0.51892 -1.063711,0.9081 -2.412812,1.16751 -1.193429,0.36324 -2.41281,0.36324 -3.658143,0 -0.933989,-0.20755 -1.660429,-0.75236 -2.179318,-1.63445 -0.207553,-0.31136 -0.337272,-0.90808 -0.389158,-1.79015 0.311324,-0.10376 0.946961,-0.23349 1.90691,-0.38924 0.959933,-0.15569 1.725283,-0.31133 2.296047,-0.46693 3.009535,-0.83022 5.733682,-1.66043 8.172443,-2.49064 5.188846,-1.81609 7.835154,-2.72414 7.938926,-2.72414 0.518889,-0.10375 1.634493,-0.60974 3.346812,-1.51779 1.712318,-0.90804 2.853867,-1.46584 3.424647,-1.67339 0.466986,-0.15569 1.024784,-0.36324 1.673393,-0.62266 0.648608,-0.25942 1.0248,-0.40212 1.128577,-0.42809 0.103775,-0.0259 0.25944,-0.013 0.466987,0.0389 0.103787,0.62265 0.07785,1.47882 -0.07782,2.56853 0,0.10375 -0.324299,0.8042 -0.972897,2.10138 -0.648607,1.29726 -1.33613,2.6853 -2.062567,4.16413 -0.726442,1.47877 -1.167494,2.34786 -1.323158,2.60728 -1.297216,2.5945 -3.294924,5.9932 -5.993124,10.19609 l 4.981298,2.1794 c 0.622665,0.3113 2.555511,1.1415 5.798538,2.4907 3.243031,1.3491 4.994267,2.0755 5.253704,2.1793 0.207549,0.052 0.479965,0.7134 0.817248,1.9847 0.337274,1.2713 0.454023,2.0625 0.350243,2.3739 z" style="fill:#0d1890;fill-opacity:1"/><path id="path4144" d="m 39.171369,973.41833 c 0.155661,0.77829 0.05189,1.50471 -0.311331,2.17928 -0.622665,1.19343 -1.919876,2.1793 -3.891634,2.95762 -1.55665,0.62273 -3.113304,0.93409 -4.669959,0.93409 -1.349109,-0.15575 -2.620377,-0.83034 -3.813806,-2.02375 -0.726437,-0.77833 -1.193433,-1.84204 -1.400987,-3.19113 l 0.07783,-0.23348 c 0.155663,0.15566 0.661572,0.28537 1.517728,0.38914 0.856162,0.10375 1.543687,0.10375 2.062576,0 0.518879,-0.10376 2.023641,-0.51888 4.514287,-1.24534 1.867991,-0.62262 3.294925,-0.98582 4.280801,-1.0896 0.882105,0 1.426934,0.44106 1.634487,1.32317 z" style="fill:#0d1890;fill-opacity:1"/></g></g></svg>