<svg xmlns="http://www.w3.org/2000/svg" width="128" height="128" viewBox="0 0 128 128"><path d="M64.701 21.815l44.598 14.321v-29.576z"/><path d="M123.776 40.806v83.981l-60.243-19.147c-.726.311-10.456 3.619-29.187 9.924-18.732 6.304-28.279 9.457-28.642 9.457-.675 0-1.142-.337-1.401-1.012 0-.051-.026-.13-.078-.234v-83.904c.156-.467.259-.726.311-.778.259-.311.778-.597 1.557-.856 5.5-1.816 9.366-3.113 11.597-3.892v-29.888l43.431 15.411c.104 0 4.268-1.427 12.492-4.281 8.224-2.854 16.423-5.669 24.595-8.445 8.172-2.776 12.362-4.164 12.57-4.164 1.038 0 1.557.545 1.557 1.634v32.534z" fill="#0d1890"/><path d="M103.85 96.69l7.939 2.413-14.088-51.136-7.783-2.413-16.812 41.718 7.939 2.413 3.502-8.562 16.423 5.059z" fill="#919af2"/><path d="M93.499 59.097l4.903 17.668-10.819-3.269z" fill="#1421a7"/><path d="M7.26 121.363l54.016-18.057v-80.323l-54.016 18.135z" fill="#919af2"/><path d="M55.127 86.883c-.052.156-.376.143-.973-.039s-1.414-.48-2.452-.895l-1.557-.7c-2.283-1.038-4.54-2.309-6.771-3.814-.363-.259-1.427-1.077-3.191-2.452-1.764-1.375-2.75-2.115-2.958-2.218-3.477 5.345-6.953 10.04-10.43 14.088-4.203 4.929-6.927 7.783-8.172 8.562-.208.104-.713.207-1.518.311-.804.104-1.284.104-1.44 0 .311-.208 2.439-2.595 6.382-7.161 1.09-1.245 3.308-4.229 6.655-8.951 3.347-4.722 5.383-7.783 6.11-9.184.882-1.557 2.205-4.112 3.969-7.667 1.764-3.554 2.698-5.565 2.802-6.032-.415-.052-3.269.804-8.562 2.568-.415.104-1.129.298-2.14.584-1.012.285-1.907.532-2.685.739-.778.208-1.219.337-1.323.389-.104.104-.156.376-.156.817 0 .441-.026.688-.078.739-.259.519-1.064.908-2.413 1.168-1.193.363-2.413.363-3.658 0-.934-.208-1.66-.752-2.179-1.634-.208-.311-.337-.908-.389-1.79.311-.104.947-.233 1.907-.389.96-.156 1.725-.311 2.296-.467 3.01-.83 5.734-1.66 8.172-2.491 5.189-1.816 7.835-2.724 7.939-2.724.519-.104 1.634-.61 3.347-1.518 1.712-.908 2.854-1.466 3.425-1.673.467-.156 1.025-.363 1.673-.623.649-.259 1.025-.402 1.129-.428.104-.026.259-.013.467.039.104.623.078 1.479-.078 2.569 0 .104-.324.804-.973 2.101s-1.336 2.685-2.063 4.164c-.726 1.479-1.167 2.348-1.323 2.607-1.297 2.595-3.295 5.993-5.993 10.196l4.981 2.179c.623.311 2.556 1.141 5.799 2.491 3.243 1.349 4.994 2.075 5.254 2.179.208.052.48.713.817 1.985.337 1.271.454 2.063.35 2.374zm-15.956-37.827c.156.778.052 1.505-.311 2.179-.623 1.193-1.92 2.179-3.892 2.958-1.557.623-3.113.934-4.67.934-1.349-.156-2.62-.83-3.814-2.024-.726-.778-1.193-1.842-1.401-3.191l.078-.233c.156.156.662.285 1.518.389.856.104 1.544.104 2.063 0 .519-.104 2.024-.519 4.514-1.245 1.868-.623 3.295-.986 4.281-1.09.882 0 1.427.441 1.634 1.323z" fill="#0d1890"/></svg>