<svg xmlns="http://www.w3.org/2000/svg" xmlns:svg="http://www.w3.org/2000/svg" id="svg2" width="128" height="128" version="1.1" viewBox="0 0 128 128"><metadata id="metadata7"/><g id="layer1" transform="translate(0,-924.36216)"><path style="fill:#fff;fill-opacity:1;fill-rule:evenodd;stroke:none;stroke-width:0;stroke-linecap:round;stroke-linejoin:round;stroke-miterlimit:4;stroke-dasharray:none;stroke-opacity:1" id="rect4136" d="m 35.867427,943.98718 75.818713,0 c 5.63473,0 10.171,7.60988 10.171,17.0625 l 0,54.62492 c 0,9.4526 -4.53627,17.0625 -10.171,17.0625 l -75.818713,0 c -5.634734,0 -8.656898,-7.5269 -13.206714,-15.8125 L 5.8749987,988.36219 22.30357,959.26397 c 4.647321,-8.23132 7.929123,-15.27679 13.563857,-15.27679 z"/><path id="path4" d="m 104,1006.3403 q 0,1.9865 -1.39057,3.3771 l -6.75421,6.7542 q -1.39057,1.3905 -3.37711,1.3905 -1.98653,0 -3.3771,-1.3905 L 74.5,1001.8706 l -14.60101,14.601 q -1.39057,1.3905 -3.3771,1.3905 -1.98654,0 -3.37711,-1.3905 l -6.75421,-6.7542 Q 45,1008.3268 45,1006.3403 q 0,-1.9866 1.39057,-3.3771 L 60.99158,988.36216 46.39057,973.76115 Q 45,972.37058 45,970.38405 q 0,-1.98653 1.39057,-3.37711 l 6.75421,-6.75421 q 1.39057,-1.39057 3.37711,-1.39057 1.98653,0 3.3771,1.39057 L 74.5,974.85374 89.10101,960.25273 q 1.39057,-1.39057 3.3771,-1.39057 1.98654,0 3.37711,1.39057 l 6.75421,6.75421 Q 104,968.39752 104,970.38405 q 0,1.98653 -1.39057,3.3771 l -14.60101,14.60101 14.60101,14.60094 Q 104,1004.3537 104,1006.3403 Z" style="fill:#000;fill-opacity:1"/></g></svg>