<svg xmlns="http://www.w3.org/2000/svg" width="128" height="128" viewBox="0 0 128 128"><path d="M35.867 19.625h75.819c5.635 0 10.171 7.61 10.171 17.063v54.625c0 9.453-4.536 17.063-10.171 17.063h-75.819c-5.635 0-8.657-7.527-13.207-15.813l-16.786-28.562 16.429-29.098c4.647-8.231 7.929-15.277 13.564-15.277z" fill-rule="evenodd"/><path d="M104 81.978q0 1.986-1.391 3.377l-6.754 6.754q-1.391 1.391-3.377 1.391-1.987 0-3.377-1.391l-14.601-14.601-14.601 14.601q-1.391 1.391-3.377 1.391-1.987 0-3.377-1.391l-6.754-6.754q-1.391-1.391-1.391-3.377 0-1.987 1.391-3.377l14.601-14.601-14.601-14.601q-1.391-1.391-1.391-3.377 0-1.987 1.391-3.377l6.754-6.754q1.391-1.391 3.377-1.391 1.987 0 3.377 1.391l14.601 14.601 14.601-14.601q1.391-1.391 3.377-1.391 1.987 0 3.377 1.391l6.754 6.754q1.391 1.391 1.391 3.377 0 1.987-1.391 3.377l-14.601 14.601 14.601 14.601q1.391 1.391 1.391 3.377z" fill="#fff"/></svg>