<?xml version="1.0" encoding="UTF-8" standalone="no"?>
<!-- Created with Inkscape (http://www.inkscape.org/) -->

<svg
   xmlns:dc="http://purl.org/dc/elements/1.1/"
   xmlns:cc="http://creativecommons.org/ns#"
   xmlns:rdf="http://www.w3.org/1999/02/22-rdf-syntax-ns#"
   xmlns:svg="http://www.w3.org/2000/svg"
   xmlns="http://www.w3.org/2000/svg"
   xmlns:sodipodi="http://sodipodi.sourceforge.net/DTD/sodipodi-0.dtd"
   xmlns:inkscape="http://www.inkscape.org/namespaces/inkscape"
   width="128"
   height="128"
   viewBox="0 0 128 128"
   id="svg2"
   version="1.1"
   inkscape:version="0.92.4 5da689c313, 2019-01-14"
   sodipodi:docname="code.svg">
  <defs
     id="defs4" />
  <sodipodi:namedview
     id="base"
     pagecolor="#ffffff"
     bordercolor="#666666"
     borderopacity="1.0"
     inkscape:pageopacity="0.0"
     inkscape:pageshadow="2"
     inkscape:zoom="5.6568542"
     inkscape:cx="19.843024"
     inkscape:cy="69.707741"
     inkscape:document-units="px"
     inkscape:current-layer="layer1"
     showgrid="false"
     units="px"
     inkscape:window-width="2560"
     inkscape:window-height="1400"
     inkscape:window-x="0"
     inkscape:window-y="40"
     inkscape:window-maximized="0" />
  <metadata
     id="metadata7">
    <rdf:RDF>
      <cc:Work
         rdf:about="">
        <dc:format>image/svg+xml</dc:format>
        <dc:type
           rdf:resource="http://purl.org/dc/dcmitype/StillImage" />
        <dc:title />
        <dc:creator>
          <cc:Agent>
            <dc:title>Kovid Goyal</dc:title>
          </cc:Agent>
        </dc:creator>
        <dc:rights>
          <cc:Agent>
            <dc:title />
          </cc:Agent>
        </dc:rights>
        <dc:publisher>
          <cc:Agent>
            <dc:title />
          </cc:Agent>
        </dc:publisher>
        <cc:license
           rdf:resource="http://creativecommons.org/licenses/by-sa/3.0/" />
      </cc:Work>
      <cc:License
         rdf:about="http://creativecommons.org/licenses/by-sa/3.0/">
        <cc:permits
           rdf:resource="http://creativecommons.org/ns#Reproduction" />
        <cc:permits
           rdf:resource="http://creativecommons.org/ns#Distribution" />
        <cc:requires
           rdf:resource="http://creativecommons.org/ns#Notice" />
        <cc:requires
           rdf:resource="http://creativecommons.org/ns#Attribution" />
        <cc:permits
           rdf:resource="http://creativecommons.org/ns#DerivativeWorks" />
        <cc:requires
           rdf:resource="http://creativecommons.org/ns#ShareAlike" />
      </cc:License>
    </rdf:RDF>
  </metadata>
  <g
     inkscape:label="Layer 1"
     inkscape:groupmode="layer"
     id="layer1"
     transform="translate(0,-924.36216)">
    <path
       inkscape:connector-curvature="0"
       d="m 41.265039,1017.4603 -3.314134,3.3141 q -0.662836,0.6629 -1.524529,0.6629 -0.861692,0 -1.524481,-0.6629 L 4.0141368,989.88668 Q 3.3513,989.22388 3.3513,988.3622 q 0,-0.86167 0.6628368,-1.52454 L 34.901895,955.94989 q 0.662789,-0.66273 1.524481,-0.66273 0.861693,0 1.524529,0.66273 l 3.314134,3.31417 q 0.662789,0.66281 0.662789,1.52455 0,0.86167 -0.662789,1.52448 l -26.049143,26.04911 26.049143,26.0491 q 0.662789,0.6628 0.662789,1.5245 0,0.8616 -0.662789,1.5245 z m 39.173095,-70.72369 -24.723471,85.57099 q -0.265123,0.8617 -1.02741,1.2926 -0.76224,0.4307 -1.557621,0.1656 l -4.109552,-1.1268 q -0.861648,-0.2651 -1.292492,-1.0273 -0.430844,-0.7623 -0.165722,-1.624 l 24.723471,-85.57098 q 0.265123,-0.86167 1.027363,-1.29251 0.762287,-0.43084 1.557668,-0.1657 l 4.109505,1.12681 q 0.861695,0.26514 1.292539,1.02738 0.430844,0.7623 0.165722,1.62391 z m 43.547726,43.15007 -30.887755,30.88772 q -0.66284,0.6629 -1.524481,0.6629 -0.861695,0 -1.524528,-0.6629 l -3.314137,-3.3141 q -0.662833,-0.6629 -0.662833,-1.5245 0,-0.8617 0.662833,-1.5245 L 112.78411,988.3622 86.734959,962.31309 q -0.662833,-0.66281 -0.662833,-1.52448 0,-0.86174 0.662833,-1.52455 l 3.314137,-3.31417 q 0.662833,-0.66273 1.524528,-0.66273 0.861641,0 1.524481,0.66273 l 30.887755,30.88777 q 0.66284,0.66287 0.66284,1.52454 0,0.86168 -0.66284,1.52448 z"
       id="path4"
       style="fill:#2271d5;fill-opacity:1" />
  </g>
</svg>
