<svg xmlns="http://www.w3.org/2000/svg" width="128" height="128" viewBox="0 0 128 128"><path d="M41.265 93.098l-3.314 3.314q-.663.663-1.525.663-.862 0-1.524-.663l-30.888-30.888q-.663-.663-.663-1.524 0-.862.663-1.525l30.888-30.888q.663-.663 1.524-.663.862 0 1.525.663l3.314 3.314q.663.663.663 1.525 0 .862-.663 1.524l-26.049 26.049 26.049 26.049q.663.663.663 1.524 0 .862-.663 1.524zm39.173-70.724l-24.723 85.571q-.265.862-1.027 1.293-.762.431-1.558.166l-4.11-1.127q-.862-.265-1.292-1.027-.431-.762-.166-1.624l24.723-85.571q.265-.862 1.027-1.293.762-.431 1.558-.166l4.11 1.127q.862.265 1.293 1.027.431.762.166 1.624zm43.548 43.15l-30.888 30.888q-.663.663-1.524.663-.862 0-1.525-.663l-3.314-3.314q-.663-.663-.663-1.524 0-.862.663-1.524l26.049-26.049-26.049-26.049q-.663-.663-.663-1.524 0-.862.663-1.525l3.314-3.314q.663-.663 1.525-.663.862 0 1.524.663l30.888 30.888q.663.663.663 1.525 0 .862-.663 1.524z"/></svg>