<svg xmlns="http://www.w3.org/2000/svg" xmlns:svg="http://www.w3.org/2000/svg" id="svg2" width="128" height="128" version="1.1" viewBox="0 0 128 128"><metadata id="metadata7"/><g id="layer1" transform="translate(0,-924.36216)"><path id="path4" d="m 41.265039,1017.4603 -3.314134,3.3141 q -0.662836,0.6629 -1.524529,0.6629 -0.861692,0 -1.524481,-0.6629 L 4.0141368,989.88668 Q 3.3513,989.22388 3.3513,988.3622 q 0,-0.86167 0.6628368,-1.52454 L 34.901895,955.94989 q 0.662789,-0.66273 1.524481,-0.66273 0.861693,0 1.524529,0.66273 l 3.314134,3.31417 q 0.662789,0.66281 0.662789,1.52455 0,0.86167 -0.662789,1.52448 l -26.049143,26.04911 26.049143,26.0491 q 0.662789,0.6628 0.662789,1.5245 0,0.8616 -0.662789,1.5245 z m 39.173095,-70.72369 -24.723471,85.57099 q -0.265123,0.8617 -1.02741,1.2926 -0.76224,0.4307 -1.557621,0.1656 l -4.109552,-1.1268 q -0.861648,-0.2651 -1.292492,-1.0273 -0.430844,-0.7623 -0.165722,-1.624 l 24.723471,-85.57098 q 0.265123,-0.86167 1.027363,-1.29251 0.762287,-0.43084 1.557668,-0.1657 l 4.109505,1.12681 q 0.861695,0.26514 1.292539,1.02738 0.430844,0.7623 0.165722,1.62391 z m 43.547726,43.15007 -30.887755,30.88772 q -0.66284,0.6629 -1.524481,0.6629 -0.861695,0 -1.524528,-0.6629 l -3.314137,-3.3141 q -0.662833,-0.6629 -0.662833,-1.5245 0,-0.8617 0.662833,-1.5245 L 112.78411,988.3622 86.734959,962.31309 q -0.662833,-0.66281 -0.662833,-1.52448 0,-0.86174 0.662833,-1.52455 l 3.314137,-3.31417 q 0.662833,-0.66273 1.524528,-0.66273 0.861641,0 1.524481,0.66273 l 30.887755,30.88777 q 0.66284,0.66287 0.66284,1.52454 0,0.86168 -0.66284,1.52448 z" style="fill:#2271d5;fill-opacity:1"/></g></svg>