<?xml version="1.0" ?><!DOCTYPE svg  PUBLIC '-//W3C//DTD SVG 1.1//EN'  'http://www.w3.org/Graphics/SVG/1.1/DTD/svg11.dtd'><svg height="32px" id="Layer_1" style="enable-background:new 0 0 32 32;" version="1.1" viewBox="0 0 32 32" width="32px" xml:space="preserve" xmlns="http://www.w3.org/2000/svg" xmlns:xlink="http://www.w3.org/1999/xlink"><path d="M14,6c0-0.984-0.813-2-2-2c-0.531,0-0.994,0.193-1.38,0.58l-9.958,9.958C0.334,14.866,0,15.271,0,16s0.279,1.08,0.646,1.447  l9.974,9.973C11.006,27.807,11.469,28,12,28c1.188,0,2-1.016,2-2c0-0.516-0.186-0.986-0.58-1.38L4.8,16l8.62-8.62  C13.814,6.986,14,6.516,14,6z M31.338,14.538L21.38,4.58C20.994,4.193,20.531,4,20,4c-1.188,0-2,1.016-2,2  c0,0.516,0.186,0.986,0.58,1.38L27.2,16l-8.62,8.62C18.186,25.014,18,25.484,18,26c0,0.984,0.813,2,2,2  c0.531,0,0.994-0.193,1.38-0.58l9.974-9.973C31.721,17.08,32,16.729,32,16S31.666,14.866,31.338,14.538z"/></svg>