<svg xmlns="http://www.w3.org/2000/svg" viewBox="0 0 277.4 277.4" enable-background="new 0 0 277.4 277.4"><style type="text/css">.st0{fill:#5E5E5E;} .st1{fill:#E3E3E3;} .st2{fill:#808080;} .st3{fill:#BFBFBF;}</style><path d="M270 29.4c11.5 10.5 7.7 33.3 1.7 45.7-9.6 19.5-32.8 21.5-51.8 19-2 22.6-2.4 45.4-2.4 68.1v48.800000000000004c0 4.4 1.1 5.4 5.5 5.1 3-.2 12.6-3.2 12.9 1.7.2 3.2-2.2 9 0 11.7 2 2.4 5.8 3.2 8.7 4 3.7 1.1 7.8 3 11.7 3.3 3 .2 1.4 5.4 1.4 7.5-.1 4.7.1 9.3.3 13.9.2 4.6-1.4 4.2-5.5 4.6-22 2.1-44.5.3-66.6.3-22.8-.1-45.6.1-68.4 1-22.1.9-44.2.8-66.3 1.5-9 .3-18.1.8-27.1.8-3.3 0-3.4-1.3-2.9-4.1.7-4.4.5-8.9.5-13.4 0-2.4-1.1-7.7 1.3-9.4 2.9-2.1 7.2-2.7 10.4-4.3 9.1-4.3 6.4-7.8 6.6-16.3.1-4.1 5.4-1.1 8.4-1.2 4.4-.1 2.6-4.4 2.6-7.9-.1-6.3-.2-12.7-.4-19-.6-23-1.2-46.1-2-69.1-.2-5.4-.4-10.8-.5-16.2-.1-2.6 1.5-11.4-2.1-11.3-8.7.3-17.1-.7-25-4.6-33.7-16.1-24.6-68.3 11.6-74.2 9.3-1.5 19-.6 28.4-.5 11.8.1 23.6.2 35.3.1 23.1 0 46.2-.1 69.4-.6 20.2-.4 40.5-1.6 60.7-1.6 16.3.1 33.2 3.1 43.6 16.6"/><path class="st0" d="M217 35c-4.2 1.5-6.9 5.1-10 8-3.9 3.7-7.8 3.5-12.9 3.1-13.8-1.1-28 0-41.8.1-14.8.1-29.4.7-44.2 1.6-7.4.5-14.7 1-22.1 1.3-3.4.2-7.7 1.9-8.4-1.7-.5-2.7-2.2-4.9-3.4-7.2 26-.5 51.9-1.5 77.9-3 12.7-.7 25.6-1.7 38.4-1.9 5.2-.1 10.3.2 15.4-.4 3.2-.2 7.9-1.4 11.1.1"/><path class="st1" d="M202.6 48.2c-3.1 6.7-6.1 13.1-5.9 20.7.1 2.5.4 5.2 1.7 7.4 1.5 2.5 4.2 4 4.9 6.9 1.4 5.6-.5 12.1-.7 17.8l-.7 24.8c-.4 16.3-.5 32.6-.6 48.9l-.3 24.4c-.1 3.2 1.9 16.3-2.6 17.4-4.2 1-9 1.3-9.2-3.8-.2-7.4.1-14.8.2-22.2.3-17.3.1-34.6.4-51.8.3-16.4.7-32.8 1-49.1l.4-23c.2-6.5-5.2-11.8-7.5-17.8 6.1-2.1 12.6-.1 18.9-.6m-52.7.4c-1.2 5.1-7.8 6.2-9 11-1.6 6.8-.6 15.1-.7 22-.4 17.4-.9 34.8-.6 52.2.3 17.1.7 34.1.7 51.2v24c0 7.2.1 8-7.1 7.5-6.9-.5-3.7-15.8-3.7-20.8l.2-50.8c.1-17.4-.1-34.8.4-52.2.2-8 .7-16 .6-24.1-.1-8.6-2.8-11.9-8-18.3 9-1.2 18.2-.7 27.2-1.7m31 0c-1 4.9-5.5 7.6-8.6 11.1-4.4 5-2.3 12.5-2.4 18.5-.2 17-1.5 34-1.3 51.1.2 16.6.6 33.2.7 49.7.1 8.3 0 16.6-.1 24.8-.1 3.7.2 7.5-.3 11.2-.4 3-5.5 2-7.7 2.1-1.8.1-1.4-80.1-1.4-87.2.1-16.1.1-32.2.6-48.3.2-5.8.5-11.6 1.2-17.3.8-6.4-3.3-10.8-7.9-15.2 3.3-1.8 8.1-.7 11.7-.4 5 .2 10.4.4 15.5-.1m-62.6 2.1c-1.3 2.2-3 4.1-5 5.6-1.6 1.2-3.9 1.6-5 3.4-1.5 2.3.6 5.2.6 7.7 0 4.2-.6 8.4-.7 12.6-.4 16.3-.5 32.7-.3 49 .2 16.6.6 33.1 1.7 49.6.4 5.9 5.1 37.9-2.6 38.9-3.5.4-8.8 1.3-9.1-3.2-.5-7.6-.5-15.2-.8-22.8-.6-16.6-1.1-33.1-1.4-49.7-.3-16.3-.3-32.6.2-48.9.3-8.2.6-16.3 1.2-24.5.5-7.2-4-10.5-5.7-17 9-.1 17.9-1.1 26.9-.7M86.1 53c-1.8 4.4-6.4 6.8-8.8 10.8.1-3.2-1.1-7.1.5-10.2 1-1.7 8.8-3.2 8.3-.6"/><path class="st2" d="M258.7 44.2c3 11.9-.6 27-11.7 33.6-10.3 6.1-28.4 4.5-33.8-7.6-4.5-10 2.4-26 14.8-24.7 6.9.7 10.9 5.8 10.6 12.6-.2 3.3-.9 6.6-4.6 7.4-3.4.8-7-1.5-4.9-5.2 4 5.5 5.1-6.8-1.4-8.3-6.2-1.5-10.8 3.9-11 9.6-.5 13.9 14.4 23.4 26.4 15.3 11.6-7.9 13.9-28.3 3.3-37.9-6.3-5.7-15.6-6.5-23.7-6.9-11.1-.6-22.2.5-33.3 1l-67 3.1c-10.5.5-21 .8-31.6 1.1l-15.2.4c-5.1.1-9.6-3.3-14.1-5.3-13.7-6.2-33.4-2.3-40.3 12-5.6 11.7-1.7 30.1 12.2 33.7 10.8 2.8 31.2-5.5 25.1-19.7-2.5-5.4-9.9-7.5-15-4.4-1.5.9-5.7 8.2-1.7 6.9 1-.3 1.8-1.7 3.1-1.5 2 .3 1.9 1.7.5 2.7-6.2 4.4-9.4-4-7.9-9 2.5-7.9 13.2-10.2 19.8-6.5 13.5 7.4 8.7 25.6-2.4 32.5-14.4 8.9-34.8 3-41.5-12.8-5.9-14 1.9-34.3 17.5-37.8 9.5-2.1 20.5-.5 30.1-.4 12.1.1 24.2.1 36.2 0 23.1-.1 46.2-.6 69.2-1.7 19.2-.9 38.8-2.4 57.9-1.2 12.9.8 31.7 3.7 34.4 19m-100.3 14.9c-.5 31.9-1.2 63.8-1.2 95.7v45.9c0 4.6.8 9.2.7 13.8-.1 3.4-8.2 3.7-8.3.4-1.4-32.2-1.8-64.5-1.6-96.8.1-15.9.8-31.8 1.2-47.7.1-4.8-1.5-13.9 1-18.2 2.3-4 6.9 5.8 8.2 6.9m-30.5 1.5c-.9 29.1-.9 58.3-1 87.4l-.1 44.5c0 6.9.2 13.9-.1 20.9-.1 3.5-2.1 3.2-5.1 3.3-3.2.1-2-5.5-2.1-8.2-.2-3.7-.4-7.4-.5-11.1-.4-7.4-.7-14.8-1-22.2-.6-14.8-1-29.5-1.1-44.3-.1-14.7.9-29.4 1.1-44.1.1-7-.2-14.1-.2-21.1 0-5.3-1-9.6 2.8-13.5 2.6 2.7 4.7 5.8 7.3 8.4m60.6 35.3c-.9 27.8-1.5 55.6-1.8 83.4-.1 11.4.6 23.1-.2 34.4-.2 2.9-4 4.9-6.6 2.7-2.8-2.3-2.1-11.7-2.2-14.7-.2-13 1-25.9.5-38.9-.4-13 0-26 .3-38.9l.9-39c.2-10.6-2.3-22.8 2.7-32.6 10.4 11.9 7.2 29.2 6.4 43.6m-93.5-31.2c-1.8 28.6-2.2 57.2-1.7 85.8.2 13.6.7 27.1 1.2 40.7l.7 20.8c.2 6.5-2.4 4.7-7.4 5.2-1.6-28.6-2.8-57.1-3-85.8-.1-13.3-.1-26.7.2-40 .1-6.7.4-13.4.6-20.1.1-6 .1-12.2 3.4-17.5l6 10.9"/><path class="st3" d="M145.2 100.4c1 25.1 1.2 50.1 1.2 75.2v34.1c0 1.8.7 5-.4 6.6-2.2 3.2-2.4-2.3-2.4-3-.2-6.1-.3-12.2-.4-18.3-.2-24.2-.4-48.3-1-72.4-.3-11.7.1-23.4.5-35.2l.7-18.9c.1-4.1-.9-8.6 3-11.4.2 14.4-.1 28.9-1.2 43.3m-29.8-36.5c-1.2 28.4-1.4 56.8-.8 85.3.3 13.7.7 27.4 1.1 41.1l.7 20.9c.1 3.7.9 5.6-3.4 6-.9-29.5-2.2-59.1-2.7-88.6-.2-13.9-.5-27.9.3-41.7.4-6.3 1.4-12.6.7-18.8-.5-4.3-1.1-7.5 3.3-9.7.4 1.7.7 3.6.8 5.5m62.2-3.7c-1.1 29.4-2.3 58.8-1.9 88.3.2 14.5-.3 29.1-.4 43.6-.1 6.6 0 13.3.2 19.9 0 1.4.7 3.4-.1 4.7-1 1.5-3 .3-3.4-.9-1.2-4-.1-9.8-.2-14l-.4-21.9c-.2-14.6-.4-29.2-.3-43.9.1-14.6.2-29.3.6-43.9.3-10.1-2.2-25.5 5.2-33 .2.3.6.8.7 1.1m-95.4 37.8c.2 25-.1 50 .6 75.1.3 12.8 1.2 25.6 1.4 38.4 0 2.2 1.5 6.3-2.1 5.5-1.7-.4-1.3-14.7-1.3-16.8-1-24.3-2.4-48.6-2.7-73-.1-12.2-.5-24.4.3-36.6.6-9.6-1.5-21.7 4.7-29.4-1 12.2-.1 24.5-.9 36.8M207.8 86.8c.3 21.8-.8 43.5-.8 65.3v48.7c0 2.6 1.7 12.8-.6 14.7-4.1 3.2-2.5-8.9-2.5-10.8.1-5.5.1-11 .1-16.6l.2-33.1c.2-23 .6-46 1.6-68.9l2 .7m-144.1 80.6c.8 16.7 1.8 33.4 2.1 50.2l-7.2-.4c4.1-2.8.4-18 .2-22.3-.5-14.3-.9-28.5-1.3-42.8-.4-14.2-1.1-28.4-1.7-42.5-.1-3.2-2.5-15.3-.6-17.6 1.9-2.3 5.6-3.4 8.2-4.8l.2 40.1c0 13.3 1.3 26.8.1 40.1"/><path class="st1" d="M76.6 161.4c.2 10.3.5 20.5 1 30.7.3 7.1 2.5 16.3 1.1 23.3-.7 3.8-10 3.7-10.1-.1-.3-10.9-.9-21.7-1.4-32.5-.9-21.4-1.1-42.7-1.1-64.1 0-9.4-.5-18.9-.3-28.3.1-5 2.8-7.5 5.2-11.6 2.3-4.1 3.5-8.7 5.6-12.9-1.1 31.8-1.1 63.7 0 95.5m140.4-68.2c.4 21.7-.7 43.3-1.3 65-.3 10.7-.4 21.3-.4 32 0 3.5 1.6 25.2-2 25.5-5.9.5-3.4-20.4-3.4-24 .1-10.9.1-21.7.2-32.5.1-23.1.1-46.3.6-69.4 2.4.4 3.8 2.8 6.3 3.4m-164.6-.4c.9 22.4 1.9 44.8 2.7 67.2.4 11.7.8 23.4 1 35.2.1 4.3-2.5 18.7 1.1 22-4.7 0-3.8-2.2-4-6.4-.4-7.7-.8-15.4-.8-23.1-.1-14.9-.1-29.8-.7-44.7-.1-2.7-4.9-50.6.7-50.2M249.1 237.2c-37.7 2.2-75.7-.5-113.3 2.4-36.5 2.8-73.6 2.1-110.2 1.2 14.8-9.4 31.4-6.5 47.9-6.1 20.1.5 40.2-2.3 60.3-2.4 20.5-.1 41 .5 61.4.3 10-.1 20-.5 30-1.2 9.1-.6 15.5 3.2 23.9 5.8"/><path class="st3" d="M263.5 25.7c17.2 17.2 13.4 52.8-9.9 63.1-11.1 4.9-29.5 6.7-39.8-.8-4.8-3.4-10.6-8.2-13.2-13.6-2.8-5.9-.7-14.7 2-20.3 5.1-10.8 16-19.1 28.2-18.2 13.1 1 21.4 10.2 19.2 23.4-1.7 10.4-13 22.8-24.3 16-5-3-8.3-9.5-6.4-15.3 1.1-3.3 8.4-8.8 10.1-3-3.6-.9-3.5 5.6-2.9 7.5 1.7 5.5 8.5 5.3 12.1 1.7 10.9-10.9-4.8-28.5-17.8-22.1-15.3 7.5-15.5 28-1.2 36.5 13.5 8 31.8 1.4 39.3-11.7 6.8-11.8 4.5-29.6-6-38.5-6.4-5.5-16.1-5.8-24.1-6.6-11.4-1.2-22.8-1.3-34.2-1-45.7 1.1-91.3 2.6-136.9 2.9-10.5 0-26.7-3.1-35.7 3.6-9 6.6-14.4 18.6-13.1 29.6 2.5 21.3 26.9 34.4 45.8 23.9 8.4-4.7 14.6-13.7 13.5-23.6-1-9.3-8.7-17.3-18.3-17.3-10.4 0-18.8 10.5-13.6 20.2 2.1 3.9 8.5 5.7 11.6 2 2.2-2.6 1.3-8-2.9-7.4 4.8-5.2 11.9 1.5 11.4 7.1-.6 6.6-7.6 11.1-13.6 12-15.2 2.3-23.8-11.6-20.5-25.3 4-16.8 21.4-21.5 36.6-17 17.9 5.3 19.5 20.8 13.5 36.3-12.6 32.6-65.2 27.8-70.2-7.4-2.4-16.7 6.4-36.3 22.8-42.6 7.1-2.7 14.8-2.8 22.2-2.7l32.8.3c32.6.2 65.3.1 97.9-.7 16.4-.4 32.7-1.3 49.1-.8 12.3.3 27.1.5 36.5 9.8m-30.5 192.3c2.5 9.1-2.4 10.5-9.9 11.1-9.5.7-19.2.7-28.7.8l-60.9.1c-19.4.1-38.6 1.3-57.9 1.9-9.1.3-18.4.3-27.4-.8-4-.5-5 .1-5.2-3.8l-.1-6.9c31.9 0 63.8-1.9 95.7-1.3 16.2.3 32.4.4 48.6.4 15.3.1 30.5-1.5 45.8-1.5m22.1 40.9c-1.3.1-1.5 1.7-2.8 1.7h-6.6l-17.8.1-35.6.1c-24 .1-47.9.1-71.8.8-24 .6-48 1.3-72 1.6-6.7.1-13.3.2-20 .2-3.3 0-4.6 1.1-4.6-2.6l-.3-17.4c23.3 2.3 47.1 1 70.4 1.1 23.8.1 47.6-2.4 71.5-3 23.8-.6 47.5-.9 71.3-.9 3.7 0 17.2-3.5 18.4 1.1 1.4 5.5-.1 11.5-.1 17.2"/></svg>