<svg xmlns="http://www.w3.org/2000/svg" xmlns:svg="http://www.w3.org/2000/svg" style="overflow:visible" id="svg2" width="277.43" height="277.43" version="1.0" viewBox="0 0 277.43 277.43" xml:space="preserve"><metadata id="metadata32"/><g id="g3" transform="translate(2.4435697e-4,12.927759)"><path id="path5" d="m 269.987,16.446 c 11.514,10.547 7.726,33.31 1.663,45.651 -9.559,19.459 -32.822,21.546 -51.841,19.009 -2.021,22.636 -2.369,45.377 -2.399,68.09 -0.015,10.891 0.025,21.781 0.025,32.672 0,5.381 0,10.762 0,16.143 0,4.35 1.145,5.354 5.544,5.098 2.975,-0.172 12.557,-3.239 12.893,1.706 0.221,3.245 -2.241,9.014 -0.016,11.713 1.997,2.421 5.807,3.181 8.67,3.993 3.729,1.058 7.776,3.027 11.667,3.265 2.984,0.182 1.435,5.441 1.368,7.535 -0.148,4.68 0.078,9.268 0.319,13.928 0.24,4.638 -1.359,4.189 -5.543,4.594 -21.966,2.125 -44.538,0.341 -66.583,0.291 -22.807,-0.052 -45.619,0.078 -68.409,1.014 -22.082,0.906 -44.168,0.835 -66.252,1.523 -9,0.28 -18.09,0.771 -27.071,0.831 -3.313,0.022 -3.382,-1.347 -2.935,-4.079 0.726,-4.434 0.467,-8.914 0.467,-13.398 0,-2.373 -1.074,-7.706 1.34,-9.398 2.938,-2.061 7.151,-2.742 10.401,-4.265 9.135,-4.276 6.441,-7.791 6.591,-16.34 0.073,-4.137 5.426,-1.096 8.395,-1.154 4.361,-0.087 2.593,-4.402 2.559,-7.859 -0.064,-6.333 -0.206,-12.665 -0.382,-18.995 -0.639,-23.031 -1.182,-46.073 -2.019,-69.097 -0.196,-5.4 -0.352,-10.801 -0.472,-16.204 C 47.909,90.124 49.419,81.294 45.835,81.438 37.113,81.787 28.722,80.754 20.785,76.878 -12.651,60.547 -3.602,8.372 32.616,2.474 41.925,0.958 51.633,1.862 61.015,1.963 72.788,2.089 84.561,2.126 96.335,2.12 119.454,2.107 142.573,2.005 165.689,1.564 185.921,1.177 206.175,-0.019 226.411,0 c 16.244,0.015 33.185,3.013 43.576,16.446"/><path id="path7" d="m 263.497,12.805 c 17.229,17.231 13.408,52.826 -9.883,63.111 -11.111,4.906 -29.468,6.652 -39.829,-0.784 -4.768,-3.42 -10.636,-8.188 -13.193,-13.588 -2.79,-5.893 -0.708,-14.659 1.955,-20.272 5.144,-10.839 15.963,-19.15 28.248,-18.245 13.067,0.963 21.35,10.229 19.214,23.444 -1.684,10.42 -12.965,22.841 -24.252,15.978 -4.984,-3.032 -8.286,-9.521 -6.396,-15.307 1.08,-3.303 8.425,-8.779 10.105,-2.996 -3.617,-0.933 -3.468,5.562 -2.88,7.464 1.694,5.481 8.471,5.282 12.069,1.689 10.924,-10.907 -4.807,-28.457 -17.827,-22.066 -15.255,7.487 -15.464,27.982 -1.153,36.475 13.494,8.008 31.806,1.371 39.313,-11.699 6.751,-11.753 4.543,-29.552 -5.98,-38.545 -6.412,-5.48 -16.133,-5.78 -24.13,-6.6 C 217.514,9.7 206.07,9.611 194.659,9.88 149.005,10.957 103.407,12.515 57.729,12.745 47.213,12.798 31.023,9.677 22.029,16.335 13.072,22.966 7.624,34.89 8.907,45.965 11.372,67.235 35.759,80.404 54.671,69.819 63.05,65.13 69.272,56.151 68.154,46.26 67.106,36.994 59.444,28.964 49.82,28.982 39.383,29.002 31.016,39.451 36.198,49.171 c 2.062,3.867 8.494,5.687 11.636,1.998 2.241,-2.63 1.254,-7.959 -2.931,-7.419 4.833,-5.223 11.914,1.513 11.38,7.142 C 55.66,57.458 48.635,62.027 42.69,62.916 27.531,65.183 18.913,51.291 22.158,37.645 26.156,20.836 43.517,16.103 58.731,20.631 76.633,25.96 78.215,41.391 72.271,56.926 59.813,89.49 7.194,84.666 2.164,49.499 -0.236,32.723 8.584,13.175 24.986,6.871 32.044,4.158 39.756,4.103 47.211,4.179 58.154,4.29 69.098,4.427 80.042,4.491 c 32.615,0.19 65.303,0.147 97.908,-0.728 16.363,-0.439 32.709,-1.273 49.082,-0.806 12.315,0.352 27.114,0.55 36.465,9.848" style="fill:#bfbfbf"/><path id="path9" d="m 258.749,31.246 c 3.035,11.892 -0.551,27.027 -11.674,33.584 -10.348,6.101 -28.37,4.505 -33.847,-7.551 -4.545,-10.002 2.436,-25.982 14.791,-24.727 6.887,0.7 10.927,5.838 10.588,12.623 -0.167,3.326 -0.945,6.588 -4.631,7.439 -3.448,0.796 -6.992,-1.519 -4.906,-5.223 4.045,5.535 5.103,-6.75 -1.358,-8.312 -6.246,-1.511 -10.79,3.854 -10.992,9.564 -0.493,13.941 14.36,23.351 26.353,15.28 11.628,-7.826 13.93,-28.233 3.285,-37.841 -6.293,-5.681 -15.592,-6.508 -23.673,-6.923 -11.101,-0.57 -22.227,0.536 -33.31,1.041 -22.333,1.019 -44.661,2.149 -66.996,3.14 -10.522,0.466 -21.048,0.829 -31.577,1.124 -5.074,0.142 -10.148,0.27 -15.223,0.378 C 70.441,24.951 65.957,21.591 61.472,19.571 47.751,13.39 28.034,17.224 21.131,31.523 15.485,43.219 19.412,61.653 33.349,65.265 44.105,68.053 64.562,59.806 58.417,45.557 56.033,40.03 48.582,37.993 43.52,41.027 c -1.53,0.917 -5.698,8.159 -1.748,6.881 1.042,-0.337 1.828,-1.721 3.053,-1.544 2.031,0.294 1.867,1.657 0.453,2.672 -6.196,4.449 -9.433,-4.01 -7.865,-8.951 2.52,-7.944 13.175,-10.17 19.805,-6.519 13.573,7.474 8.818,25.74 -2.296,32.597 C 40.478,75.075 20.134,69.208 13.385,53.372 7.439,39.422 15.236,19.093 30.86,15.584 40.366,13.448 51.317,15.118 60.989,15.2 c 12.077,0.103 24.155,0.117 36.232,0.044 23.102,-0.14 46.172,-0.626 69.248,-1.748 19.153,-0.93 38.758,-2.352 57.946,-1.18 12.759,0.779 31.539,3.641 34.334,18.93" style="fill:gray"/><path id="path11" d="m 216.96,22.065 c -4.189,1.457 -6.926,5.1 -10.035,8.035 -3.926,3.706 -7.758,3.477 -12.894,3.057 -13.75,-1.124 -27.989,-0.009 -41.786,0.081 -14.754,0.095 -29.439,0.667 -44.163,1.609 -7.355,0.471 -14.71,0.961 -22.071,1.337 -3.388,0.173 -7.721,1.855 -8.424,-1.65 -0.532,-2.656 -2.151,-4.901 -3.401,-7.245 25.986,-0.478 51.909,-1.521 77.857,-2.958 12.748,-0.706 25.585,-1.691 38.35,-1.883 5.152,-0.078 10.293,0.221 15.423,-0.352 3.282,-0.367 8.002,-1.54 11.144,-0.031" style="fill:#5e5e5e"/><path id="path13" d="m 202.556,35.282 c -3.06,6.708 -6.111,13.132 -5.917,20.674 0.065,2.534 0.354,5.179 1.679,7.404 1.462,2.459 4.185,3.993 4.92,6.893 1.413,5.582 -0.519,12.133 -0.678,17.817 -0.233,8.271 -0.503,16.542 -0.691,24.813 -0.373,16.291 -0.483,32.586 -0.646,48.88 -0.081,8.149 -0.175,16.3 -0.321,24.449 -0.058,3.206 1.931,16.342 -2.582,17.381 -4.207,0.97 -9.048,1.308 -9.19,-3.83 -0.206,-7.431 0.059,-14.804 0.187,-22.237 0.296,-17.278 0.149,-34.562 0.442,-51.841 0.278,-16.383 0.703,-32.763 1.037,-49.146 0.156,-7.656 0.222,-15.316 0.411,-22.972 0.161,-6.488 -5.237,-11.803 -7.485,-17.813 6.072,-2.028 12.615,0.038 18.834,-0.472" style="fill:#e3e3e3"/><path id="path15" d="m 149.926,35.678 c -1.179,5.098 -7.83,6.24 -8.979,10.95 -1.648,6.761 -0.583,15.063 -0.745,22.007 -0.406,17.411 -0.884,34.822 -0.57,52.239 0.308,17.057 0.717,34.095 0.717,51.156 0,8.01 0,16.02 0,24.028 0,7.207 0.133,7.996 -7.093,7.5 -6.914,-0.475 -3.747,-15.828 -3.729,-20.809 0.059,-16.925 0.119,-33.849 0.178,-50.773 0.061,-17.404 -0.096,-34.828 0.439,-52.226 0.247,-8.041 0.696,-16.035 0.593,-24.084 -0.11,-8.56 -2.827,-11.851 -8.037,-18.326 9.035,-1.159 18.184,-0.623 27.226,-1.662" style="fill:#e3e3e3"/><path id="path17" d="m 180.872,35.678 c -0.979,4.869 -5.544,7.579 -8.596,11.063 -4.358,4.976 -2.346,12.479 -2.414,18.523 -0.192,17.04 -1.516,33.989 -1.317,51.069 0.191,16.582 0.597,33.16 0.705,49.742 0.054,8.282 0.034,16.565 -0.123,24.847 -0.069,3.652 0.211,7.544 -0.281,11.169 -0.41,3.021 -5.537,2.033 -7.736,2.147 -1.793,0.094 -1.443,-80.056 -1.404,-87.238 0.085,-16.094 0.108,-32.21 0.636,-48.297 0.19,-5.829 0.481,-11.56 1.162,-17.345 0.758,-6.434 -3.308,-10.796 -7.856,-15.206 3.301,-1.833 8.131,-0.664 11.682,-0.447 5.102,0.312 10.446,0.418 15.542,-0.027" style="fill:#e3e3e3"/><path id="path19" d="m 118.269,37.735 c -1.283,2.154 -2.983,4.106 -4.986,5.619 -1.565,1.183 -3.853,1.641 -4.952,3.395 -1.47,2.347 0.599,5.242 0.599,7.685 0,4.216 -0.604,8.428 -0.717,12.647 -0.438,16.338 -0.463,32.68 -0.272,49.021 0.194,16.553 0.592,33.098 1.683,49.619 0.389,5.881 5.109,37.916 -2.616,38.886 -3.479,0.438 -8.817,1.344 -9.113,-3.157 -0.499,-7.577 -0.5,-15.216 -0.751,-22.806 -0.55,-16.556 -1.148,-33.111 -1.437,-49.675 -0.284,-16.31 -0.281,-32.628 0.23,-48.934 0.255,-8.16 0.637,-16.315 1.172,-24.461 0.475,-7.23 -3.972,-10.534 -5.669,-17.048 8.945,-0.177 17.875,-1.168 26.829,-0.791" style="fill:#e3e3e3"/><path id="path21" d="m 158.395,46.125 c -0.533,31.886 -1.188,63.758 -1.188,95.65 0,15.317 0,30.634 0,45.95 0,4.617 0.757,9.24 0.664,13.833 -0.068,3.371 -8.199,3.735 -8.344,0.423 -1.413,-32.226 -1.844,-64.548 -1.556,-96.803 0.143,-15.907 0.771,-31.809 1.218,-47.709 0.135,-4.806 -1.466,-13.862 1.021,-18.2 2.31,-4.026 6.924,5.849 8.185,6.856" style="fill:#969696"/><path id="path23" d="M 86.137,40.11 C 84.335,44.554 79.786,46.944 77.352,50.953 77.47,47.72 76.277,43.814 77.873,40.791 78.82,38.997 86.6,37.518 86.137,40.11" style="fill:#e3e3e3"/><path id="path25" d="m 127.924,47.708 c -0.864,29.137 -0.867,58.291 -0.963,87.438 -0.048,14.845 -0.097,29.689 -0.146,44.534 -0.023,6.938 0.175,13.919 -0.089,20.853 -0.133,3.509 -2.079,3.183 -5.074,3.256 -3.186,0.077 -1.998,-5.488 -2.133,-8.231 -0.182,-3.69 -0.362,-7.381 -0.538,-11.071 -0.351,-7.383 -0.684,-14.767 -0.974,-22.152 -0.581,-14.771 -0.985,-29.548 -1.057,-44.33 -0.071,-14.73 0.919,-29.391 1.103,-44.1 0.088,-7.041 -0.18,-14.086 -0.18,-21.128 0,-5.268 -1.026,-9.582 2.85,-13.457 2.508,2.7 4.572,5.795 7.201,8.388" style="fill:#969696"/><path id="path27" d="m 188.469,83.005 c -0.868,27.782 -1.484,55.573 -1.786,83.367 -0.124,11.389 0.632,23.096 -0.191,34.44 -0.213,2.944 -4.001,4.863 -6.649,2.729 -2.821,-2.274 -2.137,-11.711 -2.193,-14.737 -0.244,-12.991 0.978,-25.921 0.54,-38.927 -0.438,-12.993 -0.009,-25.956 0.292,-38.947 0.301,-13.003 0.601,-26.007 0.907,-39.01 0.25,-10.571 -2.265,-22.762 2.749,-32.602 10.379,11.976 7.135,29.258 6.331,43.687" style="fill:#969696"/><path id="path29" d="m 95.001,51.744 c -1.75,28.572 -2.194,57.212 -1.738,85.831 0.216,13.561 0.746,27.112 1.23,40.665 0.248,6.934 0.492,13.867 0.735,20.801 0.229,6.533 -2.363,4.685 -7.43,5.211 -1.578,-28.564 -2.779,-57.147 -2.978,-85.757 -0.093,-13.326 -0.059,-26.656 0.183,-39.98 0.121,-6.69 0.447,-13.376 0.565,-20.066 0.106,-6.027 0.059,-12.19 3.418,-17.468 2.005,3.587 4.01,7.175 6.015,10.763" style="fill:#969696"/><path id="path31" d="m 145.177,87.437 c 0.988,25.058 1.155,50.139 1.183,75.214 0.013,11.358 0.005,22.718 0.005,34.077 0,1.782 0.651,4.979 -0.428,6.579 -2.152,3.19 -2.427,-2.293 -2.446,-2.981 -0.175,-6.101 -0.312,-12.202 -0.37,-18.306 -0.233,-24.164 -0.411,-48.273 -0.979,-72.433 -0.275,-11.732 0.069,-23.448 0.522,-35.172 0.243,-6.293 0.513,-12.586 0.71,-18.882 0.128,-4.116 -0.891,-8.615 2.99,-11.388 0.276,14.436 -0.041,28.898 -1.187,43.292" style="fill:#bfbfbf"/><path id="path33" d="m 115.42,50.953 c -1.174,28.427 -1.397,56.849 -0.762,85.292 0.306,13.686 0.66,27.37 1.144,41.051 0.247,6.976 0.493,13.949 0.709,20.926 0.113,3.651 0.938,5.553 -3.386,6.031 -0.947,-29.533 -2.22,-59.063 -2.748,-88.608 -0.248,-13.869 -0.502,-27.894 0.314,-41.748 0.369,-6.252 1.427,-12.552 0.738,-18.821 -0.473,-4.301 -1.087,-7.463 3.278,-9.742 0.263,1.865 0.633,3.731 0.713,5.619" style="fill:#bfbfbf"/><path id="path35" d="m 177.626,47.312 c -1.061,29.439 -2.265,58.83 -1.941,88.295 0.16,14.534 -0.268,29.064 -0.391,43.597 -0.057,6.632 -0.034,13.265 0.191,19.893 0.047,1.372 0.716,3.423 -0.136,4.674 -0.996,1.462 -2.972,0.332 -3.359,-0.947 -1.224,-4.041 -0.131,-9.819 -0.212,-13.987 -0.144,-7.308 -0.277,-14.616 -0.389,-21.924 -0.224,-14.616 -0.359,-29.235 -0.309,-43.853 0.051,-14.634 0.195,-29.277 0.585,-43.906 0.269,-10.124 -2.24,-25.542 5.248,-33.028 0.223,0.338 0.599,0.853 0.713,1.186" style="fill:#bfbfbf"/><path id="path37" d="m 82.18,85.063 c 0.151,25.021 -0.078,50.047 0.583,75.063 0.338,12.787 1.207,25.561 1.396,38.35 0.032,2.203 1.505,6.316 -2.127,5.501 -1.73,-0.388 -1.261,-14.663 -1.35,-16.759 -1.034,-24.321 -2.365,-48.646 -2.663,-72.991 -0.149,-12.221 -0.477,-24.412 0.259,-36.618 0.576,-9.556 -1.54,-21.67 4.694,-29.426 -0.857,12.277 0.009,24.6 -0.792,36.88" style="fill:#bfbfbf"/><path id="path39" d="m 76.56,148.457 c 0.157,10.251 0.532,20.496 0.961,30.738 0.296,7.057 2.459,16.297 1.102,23.311 -0.727,3.755 -9.991,3.729 -10.081,-0.096 -0.255,-10.852 -0.904,-21.675 -1.379,-32.518 -0.936,-21.354 -1.054,-42.732 -1.057,-64.104 -10e-4,-9.405 -0.544,-18.909 -0.314,-28.295 0.123,-5.044 2.847,-7.453 5.167,-11.591 2.299,-4.102 3.548,-8.677 5.603,-12.893 -1.095,31.804 -1.104,63.645 -0.002,95.448" style="fill:#e3e3e3"/><path id="path41" d="m 207.781,73.825 c 0.317,21.825 -0.792,43.493 -0.792,65.278 0,10.738 0,21.478 0,32.216 0,5.481 0,10.963 0,16.445 0,2.65 1.686,12.848 -0.612,14.655 -4.082,3.21 -2.532,-8.896 -2.516,-10.782 0.052,-5.517 0.092,-11.034 0.129,-16.552 0.074,-11.035 0.133,-22.071 0.23,-33.106 0.202,-22.987 0.569,-45.978 1.582,-68.945 0.659,0.263 1.32,0.527 1.979,0.791" style="fill:#bfbfbf"/><path id="path43" d="m 63.66,154.472 c 0.783,16.721 1.787,33.437 2.058,50.177 -2.401,-0.132 -4.802,-0.265 -7.203,-0.396 4.111,-2.813 0.355,-17.984 0.207,-22.342 C 58.236,167.647 57.8,153.384 57.428,139.117 57.057,124.928 56.298,110.762 55.762,96.58 55.641,93.385 53.237,81.312 55.129,79.014 c 1.9,-2.309 5.626,-3.449 8.214,-4.792 0.066,13.375 0.132,26.75 0.198,40.125 0.066,13.366 1.35,26.777 0.119,40.125" style="fill:#bfbfbf"/><path id="path45" d="m 216.96,80.235 c 0.446,21.664 -0.711,43.313 -1.313,64.962 -0.296,10.651 -0.357,21.305 -0.45,31.959 -0.03,3.503 1.627,25.193 -1.97,25.515 -5.911,0.527 -3.371,-20.418 -3.351,-24.031 0.063,-10.85 0.132,-21.698 0.181,-32.548 0.104,-23.14 0.117,-46.282 0.571,-69.418 2.448,0.58 3.891,3.023 6.332,3.561" style="fill:#e3e3e3"/><path id="path47" d="m 52.421,79.84 c 0.88,22.406 1.916,44.805 2.742,67.213 0.432,11.725 0.802,23.45 1.042,35.18 0.088,4.317 -2.453,18.714 1.124,22.02 -4.652,0 -3.771,-2.246 -3.999,-6.369 -0.426,-7.703 -0.767,-15.425 -0.831,-23.14 -0.122,-14.887 -0.063,-29.809 -0.743,-44.682 -0.125,-2.733 -4.914,-50.56 0.665,-50.222" style="fill:#e3e3e3"/><path id="path49" d="m 233.027,205.044 c 2.539,9.07 -2.377,10.524 -9.861,11.079 -9.534,0.707 -19.151,0.729 -28.707,0.77 -20.313,0.088 -40.627,0.037 -60.94,0.133 -19.374,0.091 -38.575,1.29 -57.922,1.899 -9.106,0.287 -18.38,0.342 -27.438,-0.75 -3.971,-0.479 -5.018,0.146 -5.204,-3.817 -0.107,-2.286 -0.019,-4.574 -0.109,-6.859 31.892,0 63.831,-1.94 95.708,-1.301 16.213,0.325 32.394,0.372 48.607,0.431 15.326,0.054 30.517,-1.585 45.866,-1.585" style="fill:#bfbfbf"/><path id="path51" d="m 249.092,224.275 c -37.66,2.193 -75.668,-0.496 -113.257,2.421 -36.526,2.834 -73.583,2.146 -110.243,1.22 14.839,-9.382 31.379,-6.451 47.913,-6.075 20.089,0.457 40.228,-2.287 60.35,-2.391 20.478,-0.105 40.953,0.454 61.432,0.33 10.018,-0.061 19.98,-0.497 29.972,-1.229 9.033,-0.66 15.479,3.161 23.833,5.724" style="fill:#e3e3e3"/><path id="path53" d="m 255.108,245.961 c -1.281,0.09 -1.54,1.658 -2.793,1.662 -2.189,0.008 -4.379,0.015 -6.568,0.022 -5.926,0.021 -11.852,0.04 -17.777,0.061 -11.854,0.041 -23.707,0.08 -35.561,0.121 -23.952,0.081 -47.894,0.144 -71.839,0.773 -23.992,0.63 -47.979,1.343 -71.98,1.604 -6.661,0.072 -13.326,0.174 -19.988,0.186 -3.327,0.005 -4.571,1.054 -4.644,-2.605 -0.115,-5.806 -0.229,-11.61 -0.344,-17.415 23.308,2.299 47.056,0.97 70.449,1.107 23.82,0.141 47.644,-2.438 71.469,-3.03 23.765,-0.591 47.532,-0.933 71.303,-0.928 3.688,0.001 17.249,-3.522 18.395,1.103 1.387,5.601 -0.122,11.666 -0.122,17.339" style="fill:#bfbfbf"/></g></svg>