<svg xmlns="http://www.w3.org/2000/svg" xmlns:svg="http://www.w3.org/2000/svg" id="svg2" width="256" height="256" x="0" y="0" style="overflow:visible" enable-background="new 0 0 76.11 100" overflow="visible" version="1.0" viewBox="0 0 256 256" xml:space="preserve"><metadata id="metadata16"/><path id="path4" d="m 222.1275,226.88826 c -3.9632,0 -7.44761,1.92415 -9.44305,4.82059 l -28.9242,0 0,-11.26929 c 0,-0.82683 -0.71958,-1.49543 -1.59414,-1.49543 l -2.40782,0 0,-6.35429 8.80374,0 c 1.31185,0 2.40505,-0.99269 2.40505,-2.21762 l 0,-27.53524 c 0,-1.23002 -1.09597,-2.23803 -2.40505,-2.23803 l -8.80374,0 0,-4.85886 2.89492,0 2.41888,-8.18402 3.48718,0 c 1.31184,0 2.40781,-1.0029 2.40781,-2.23293 l 0,-6.86212 c 0,-1.21727 -1.09597,-2.22272 -2.40781,-2.22272 l -38.53332,0 c -1.32844,0 -2.39674,1.00801 -2.39674,2.22272 l 0,6.86212 c 0,1.23003 1.0683,2.23293 2.39674,2.23293 l 3.48441,0 2.40505,8.18402 3.0499,0 0,4.85886 -63.950964,0 c -3.965973,0 -7.192996,-2.99596 -7.192996,-6.65797 l 0,-123.484967 c 0,-3.672216 3.229791,-6.675829 7.192996,-6.675829 l 52.612094,0 0,5.126812 c 0,1.217267 1.0683,2.21762 2.39675,2.21762 l 38.53331,0 c 1.31184,0 2.40781,-1.002905 2.40781,-2.21762 l 0,-6.864671 c 0,-1.227475 -1.09597,-2.220172 -2.40781,-2.220172 l -4.58038,0 C 144.32193,3.4138771 87.923751,0.48937416 87.923751,0.48937416 86.833316,0.43323187 85.737346,0.40516072 84.644144,0.40516072 50.41722,0.40516072 22.677553,26.138745 22.677553,57.892314 l 0,113.004226 c 0,31.74336 27.739667,51.62539 61.966591,51.62539 1.093202,0 2.189172,-0.0255 3.279607,-0.0689 0,0 28.796889,-1.48521 59.702689,-15.62542 l 0,3.54462 c 0,1.22493 1.0683,2.21762 2.39675,2.21762 l 8.93658,0 0,6.35429 -2.54619,0 c -0.88563,0 -1.59414,0.6686 -1.59414,1.49543 l 0,11.26929 -29.05151,0 c -1.99544,-2.89644 -5.48262,-4.82059 -9.44582,-4.82059 -6.18836,0 -11.19495,4.65981 -11.19495,10.38633 0,5.72651 5.00659,10.37611 11.19495,10.37611 3.9632,0 7.44761,-1.92414 9.44582,-4.82568 l 29.05705,0 0,11.2795 c 0,0.83192 0.7085,1.49032 1.59413,1.49032 l 25.74976,0 c 0.8718,0 1.59414,-0.6584 1.59414,-1.49032 l 0,-11.2795 28.9242,0 c 1.99544,2.90154 5.47985,4.82568 9.44306,4.82568 6.18835,0 11.19218,-4.6496 11.19218,-10.37611 0,-5.72652 -5.00383,-10.38633 -11.19495,-10.38633 z" style="fill:#2caf45;fill-opacity:1"/><path id="path7" d="m 223.19745,54.706661 -123.986485,0 c -4.890824,0 -8.856178,3.643725 -8.856178,8.137856 l 0,81.378573 c 0,4.49413 3.965354,8.13785 8.856178,8.13785 l 123.986485,0 c 4.89083,0 8.85618,-3.64372 8.85618,-8.13785 l 0,-81.378573 c 0,-4.494131 -3.96535,-8.137856 -8.85618,-8.137856 z m 0,89.516429 -123.986485,0 0,-81.378573 123.986485,0 0,81.378573 z" style="fill:#2271d5;fill-opacity:1"/><path id="path9" d="m 125.7795,79.120231 c 4.89525,0 8.85617,3.639656 8.85617,8.137857 0,4.4982 -3.96092,8.137857 -8.85617,8.137857 -4.89525,0 -8.85618,-3.639657 -8.85618,-8.137857 0,-4.498201 3.96093,-8.137857 8.85618,-8.137857 m 0,-8.137857 c -9.76837,0 -17.71236,7.299658 -17.71236,16.275714 0,8.976056 7.94399,16.275712 17.71236,16.275712 9.76836,0 17.71235,-7.299656 17.71235,-16.275712 0,-8.976056 -7.94399,-16.275714 -17.71235,-16.275714 l 0,0 z" style="fill:#ffa000"/><path id="path11" d="m 121.35141,136.08523 c -1.13249,0 -2.26608,-0.39774 -3.13066,-1.1922 -1.73028,-1.58993 -1.73028,-4.16455 0,-5.75346 L 144.78928,104.726 c 1.35832,-1.24001 3.41627,-1.5462 5.11112,-0.76293 l 14.40901,6.62015 24.35006,-29.833383 c 0.85572,-1.056904 2.27493,-1.673347 3.66313,-1.629606 1.44024,0.03967 2.76756,0.711045 3.56351,1.81169 l 17.71235,24.413569 c 1.35832,1.87171 0.80813,4.39444 -1.22769,5.64259 -2.04135,1.23594 -4.79119,0.73953 -6.14065,-1.12811 l -14.24073,-19.62953 -22.81573,27.94947 c -1.27972,1.57773 -3.60668,2.08227 -5.52183,1.20033 l -14.85845,-6.82664 -24.31131,22.33943 c -0.86459,0.79446 -1.99818,1.1922 -3.13066,1.1922 z" style="fill:#b0bec5"/></svg>