<svg xmlns="http://www.w3.org/2000/svg" xmlns:xlink="http://www.w3.org/1999/xlink" version="1" viewBox="0 0 256 256" overflow="visible" enable-background="new 0 0 76.11 100" width="256" height="256"><defs><linearGradient id="a"><stop offset="0" stop-color="#0d57c1"/><stop offset="1" stop-color="#031125"/></linearGradient><linearGradient xlink:href="#a" id="b" x1="3.979" y1="253" x2="252.39" y2="6.178" gradientUnits="userSpaceOnUse"/></defs><path d="M222.127 226.888c-3.963 0-7.448 1.924-9.443 4.821h-28.924v-11.269c0-.827-.72-1.495-1.594-1.495h-2.408v-6.354h8.804c1.312 0 2.405-.993 2.405-2.218v-27.535c0-1.23-1.096-2.238-2.405-2.238h-8.804v-4.859h2.895l2.419-8.184h3.487c1.312 0 2.408-1.003 2.408-2.233v-6.862c0-1.217-1.096-2.223-2.408-2.223h-38.533c-1.328 0-2.397 1.008-2.397 2.223v6.862c0 1.23 1.068 2.233 2.397 2.233h3.484l2.405 8.184h3.05v4.859h-63.951c-3.966 0-7.193-2.996-7.193-6.658v-123.485c0-3.672 3.23-6.676 7.193-6.676h52.612v5.127c0 1.217 1.068 2.218 2.397 2.218h38.533c1.312 0 2.408-1.003 2.408-2.218v-6.865c0-1.227-1.096-2.22-2.408-2.22h-4.58c-39.654-36.408-96.052-39.333-96.052-39.333-1.09-.056-2.186-.084-3.28-.084-34.227 0-61.967 25.734-61.967 57.487v113.004c0 31.743 27.74 51.625 61.967 51.625 1.093 0 2.189-.025 3.28-.069 0 0 28.797-1.485 59.703-15.625v3.545c0 1.225 1.068 2.218 2.397 2.218h8.937v6.354h-2.546c-.886 0-1.594.669-1.594 1.495v11.269h-29.052c-1.995-2.896-5.483-4.821-9.446-4.821-6.188 0-11.195 4.66-11.195 10.386 0 5.727 5.007 10.376 11.195 10.376 3.963 0 7.448-1.924 9.446-4.826h29.057v11.28c0 .832.709 1.49 1.594 1.49h25.75c.872 0 1.594-.658 1.594-1.49v-11.28h28.924c1.995 2.902 5.48 4.826 9.443 4.826 6.188 0 11.192-4.65 11.192-10.376 0-5.727-5.004-10.386-11.195-10.386z" fill="url(#b)"/><path d="M223.197 54.707h-123.986c-4.891 0-8.856 3.644-8.856 8.138v81.379c0 4.494 3.965 8.138 8.856 8.138h123.986c4.891 0 8.856-3.644 8.856-8.138v-81.379c0-4.494-3.965-8.138-8.856-8.138zm0 89.516h-123.986v-81.379h123.986v81.379z" fill="#546e7a"/><path d="M125.779 79.12c4.895 0 8.856 3.64 8.856 8.138 0 4.498-3.961 8.138-8.856 8.138s-8.856-3.64-8.856-8.138c0-4.498 3.961-8.138 8.856-8.138m0-8.138c-9.768 0-17.712 7.3-17.712 16.276 0 8.976 7.944 16.276 17.712 16.276s17.712-7.3 17.712-16.276c0-8.976-7.944-16.276-17.712-16.276z" fill="#ffa000"/><path d="M121.351 136.085c-1.132 0-2.266-.398-3.131-1.192-1.73-1.59-1.73-4.165 0-5.753l26.569-24.414c1.358-1.24 3.416-1.546 5.111-.763l14.409 6.62 24.35-29.833c.856-1.057 2.275-1.673 3.663-1.63 1.44.04 2.768.711 3.564 1.812l17.712 24.414c1.358 1.872.808 4.394-1.228 5.643-2.041 1.236-4.791.74-6.141-1.128l-14.241-19.63-22.816 27.949c-1.28 1.578-3.607 2.082-5.522 1.2l-14.858-6.827-24.311 22.339c-.865.794-1.998 1.192-3.131 1.192z" fill="#b0bec5"/></svg>