<?xml version="1.0" encoding="UTF-8" standalone="no"?>
<!-- Created with Inkscape (http://www.inkscape.org/) -->

<svg
   xmlns:dc="http://purl.org/dc/elements/1.1/"
   xmlns:cc="http://creativecommons.org/ns#"
   xmlns:rdf="http://www.w3.org/1999/02/22-rdf-syntax-ns#"
   xmlns:svg="http://www.w3.org/2000/svg"
   xmlns="http://www.w3.org/2000/svg"
   xmlns:xlink="http://www.w3.org/1999/xlink"
   xmlns:sodipodi="http://sodipodi.sourceforge.net/DTD/sodipodi-0.dtd"
   xmlns:inkscape="http://www.inkscape.org/namespaces/inkscape"
   width="128"
   height="128"
   viewBox="0 0 128 128"
   id="svg2"
   version="1.1"
   inkscape:version="0.91 r13725"
   sodipodi:docname="config.svg">
  <defs
     id="defs4">
    <linearGradient
       inkscape:collect="always"
       id="linearGradient4237">
      <stop
         style="stop-color:#000000;stop-opacity:1;"
         offset="0"
         id="stop4239" />
      <stop
         style="stop-color:#909090;stop-opacity:1"
         offset="1"
         id="stop4241" />
    </linearGradient>
    <linearGradient
       inkscape:collect="always"
       id="linearGradient4225">
      <stop
         style="stop-color:#597000;stop-opacity:1"
         offset="0"
         id="stop4227" />
      <stop
         id="stop4233"
         offset="0.36725798"
         style="stop-color:#aad400;stop-opacity:1" />
      <stop
         style="stop-color:#000002;stop-opacity:1"
         offset="0.36935705"
         id="stop4235" />
      <stop
         style="stop-color:#909090;stop-opacity:1"
         offset="1"
         id="stop4229" />
    </linearGradient>
    <linearGradient
       inkscape:collect="always"
       xlink:href="#linearGradient4225"
       id="linearGradient4231"
       x1="6.131043"
       y1="1047.0419"
       x2="122.78024"
       y2="930.3927"
       gradientUnits="userSpaceOnUse" />
    <linearGradient
       inkscape:collect="always"
       xlink:href="#linearGradient4237"
       id="linearGradient4243"
       x1="1.6634698"
       y1="987.70612"
       x2="63.799381"
       y2="925.65753"
       gradientUnits="userSpaceOnUse" />
    <linearGradient
       inkscape:collect="always"
       xlink:href="#linearGradient4237"
       id="linearGradient4251"
       x1="74.41713"
       y1="1037.5803"
       x2="116.9572"
       y2="993.82806"
       gradientUnits="userSpaceOnUse" />
  </defs>
  <sodipodi:namedview
     id="base"
     pagecolor="#ffffff"
     bordercolor="#666666"
     borderopacity="1.0"
     inkscape:pageopacity="0.0"
     inkscape:pageshadow="2"
     inkscape:zoom="11.313708"
     inkscape:cx="20.718024"
     inkscape:cy="69.707741"
     inkscape:document-units="px"
     inkscape:current-layer="layer1"
     showgrid="false"
     units="px"
     inkscape:window-width="3840"
     inkscape:window-height="2128"
     inkscape:window-x="0"
     inkscape:window-y="32"
     inkscape:window-maximized="0" />
  <metadata
     id="metadata7">
    <rdf:RDF>
      <cc:Work
         rdf:about="">
        <dc:format>image/svg+xml</dc:format>
        <dc:type
           rdf:resource="http://purl.org/dc/dcmitype/StillImage" />
        <dc:title />
        <dc:creator>
          <cc:Agent>
            <dc:title>Kovid Goyal</dc:title>
          </cc:Agent>
        </dc:creator>
        <dc:rights>
          <cc:Agent>
            <dc:title />
          </cc:Agent>
        </dc:rights>
        <dc:publisher>
          <cc:Agent>
            <dc:title />
          </cc:Agent>
        </dc:publisher>
        <cc:license
           rdf:resource="http://creativecommons.org/licenses/by-sa/3.0/" />
      </cc:Work>
      <cc:License
         rdf:about="http://creativecommons.org/licenses/by-sa/3.0/">
        <cc:permits
           rdf:resource="http://creativecommons.org/ns#Reproduction" />
        <cc:permits
           rdf:resource="http://creativecommons.org/ns#Distribution" />
        <cc:requires
           rdf:resource="http://creativecommons.org/ns#Notice" />
        <cc:requires
           rdf:resource="http://creativecommons.org/ns#Attribution" />
        <cc:permits
           rdf:resource="http://creativecommons.org/ns#DerivativeWorks" />
        <cc:requires
           rdf:resource="http://creativecommons.org/ns#ShareAlike" />
      </cc:License>
    </rdf:RDF>
  </metadata>
  <g
     inkscape:label="Layer 1"
     inkscape:groupmode="layer"
     id="layer1"
     transform="translate(0,-924.36216)">
    <path
       inkscape:connector-curvature="0"
       d="m 31.508175,978.41101 c 3.502987,-0.47055 7.005974,0.73197 9.489435,3.21543 l 6.274007,6.274 5.934164,-5.90802 -8.574475,-8.54833 c -1.333227,-1.33323 -1.333227,-3.50299 0,-4.83622 1.333226,-1.33322 3.502987,-1.33322 4.836213,0 l 8.574476,8.57448 5.934164,-5.90802 -6.300148,-6.30015 c -2.483461,-2.48346 -3.685979,-6.01259 -3.215428,-9.48944 1.045667,-7.94707 -1.490077,-16.26013 -7.581092,-22.37729 -6.221723,-6.22172 -14.743915,-8.73132 -22.821698,-7.52881 -1.280943,0.183 -1.803777,1.77764 -0.888818,2.6926 l 8.077783,8.07778 c 3.842829,3.84283 3.842829,10.06455 0,13.88124 l -4.966921,4.96692 c -3.842829,3.84283 -10.064553,3.84283 -13.88124,0 L 4.2946719,947.1194 c -0.9149592,-0.91496 -2.4834609,-0.39213 -2.6925944,0.88882 -1.20251796,8.07778 1.3070847,16.59997 7.5288078,22.8217 6.1171567,6.09101 14.4302147,8.62676 22.3772897,7.58109 z"
       id="path7"
       style="fill-opacity:1.0;fill:url(#linearGradient4243)" />
    <path
       inkscape:connector-curvature="0"
       d="m 81.752511,989.05068 -5.934164,5.90802 35.239003,35.239 c 1.33323,1.3332 1.33323,3.503 0,4.8362 -1.33323,1.3332 -3.50299,1.3332 -4.83621,0 l -35.239007,-35.23899 -5.934164,5.90799 36.310811,36.3108 c 4.60094,4.601 12.05132,4.5748 16.65226,-0.026 4.60094,-4.6009 4.60094,-12.0513 0.0261,-16.6523 L 81.752511,989.05068 Z"
       id="path9"
       style="fill-opacity:1;fill:url(#linearGradient4251)" />
    <path
       d="m 95.372334,965.52315 15.658876,0 15.65887,-31.29161 -7.81636,-7.81636 -31.317753,15.63273 0,15.65888 -42.558677,42.42801 -7.659517,-7.63342 -30.8471988,30.84722 c -6.43085668,6.4308 -6.43085668,16.8352 0,23.2661 6.4308568,6.4308 16.8352508,6.4308 23.2661078,0 l 30.847199,-30.8472 -7.816367,-7.8164 42.58482,-42.42795 z"
       id="path11"
       style="fill-opacity:1;fill:url(#linearGradient4231)" />
  </g>
</svg>
