<svg xmlns="http://www.w3.org/2000/svg" xmlns:xlink="http://www.w3.org/1999/xlink" width="128" height="128" viewBox="0 0 128 128"><defs><linearGradient id="b"><stop offset="0"/><stop offset="1" stop-color="#909090"/></linearGradient><linearGradient id="a"><stop offset="0" stop-color="#597000"/><stop offset=".367" stop-color="#aad400"/><stop offset=".369" stop-color="#000002"/><stop offset="1" stop-color="#909090"/></linearGradient><linearGradient xlink:href="#a" id="e" x1="6.131" y1="1047.042" x2="122.78" y2="930.393" gradientUnits="userSpaceOnUse"/><linearGradient xlink:href="#b" id="c" x1="1.663" y1="987.706" x2="63.799" y2="925.658" gradientUnits="userSpaceOnUse"/><linearGradient xlink:href="#b" id="d" x1="74.417" y1="1037.58" x2="116.957" y2="993.828" gradientUnits="userSpaceOnUse"/></defs><path d="M31.508 54.049c3.503-.471 7.006.732 9.489 3.215l6.274 6.274 5.934-5.908-8.574-8.548c-1.333-1.333-1.333-3.503 0-4.836 1.333-1.333 3.503-1.333 4.836 0l8.574 8.574 5.934-5.908-6.3-6.3c-2.483-2.483-3.686-6.013-3.215-9.489 1.046-7.947-1.49-16.26-7.581-22.377-6.222-6.222-14.744-8.731-22.822-7.529-1.281.183-1.804 1.778-.889 2.693l8.078 8.078c3.843 3.843 3.843 10.065 0 13.881l-4.967 4.967c-3.843 3.843-10.065 3.843-13.881 0l-8.104-8.078c-.915-.915-2.483-.392-2.693.889-1.203 8.078 1.307 16.6 7.529 22.822 6.117 6.091 14.43 8.627 22.377 7.581z" fill="url(#c)"/><path d="M81.753 64.689l-5.934 5.908 35.239 35.239c1.333 1.333 1.333 3.503 0 4.836-1.333 1.333-3.503 1.333-4.836 0l-35.239-35.239-5.934 5.908 36.311 36.311c4.601 4.601 12.051 4.575 16.652-.026 4.601-4.601 4.601-12.051.026-16.652l-36.285-36.285z" fill="url(#d)"/><path d="M95.372 41.161h15.659l15.659-31.292-7.816-7.816-31.318 15.633v15.659l-42.559 42.428-7.66-7.633-30.847 30.847c-6.431 6.431-6.431 16.835 0 23.266 6.431 6.431 16.835 6.431 23.266 0l30.847-30.847-7.816-7.816 42.585-42.428z" fill="url(#e)"/></svg>