<?xml version="1.0" encoding="UTF-8" standalone="no"?>
<!-- Created with Inkscape (http://www.inkscape.org/) -->

<svg
   xmlns:dc="http://purl.org/dc/elements/1.1/"
   xmlns:cc="http://creativecommons.org/ns#"
   xmlns:rdf="http://www.w3.org/1999/02/22-rdf-syntax-ns#"
   xmlns:svg="http://www.w3.org/2000/svg"
   xmlns="http://www.w3.org/2000/svg"
   xmlns:xlink="http://www.w3.org/1999/xlink"
   xmlns:sodipodi="http://sodipodi.sourceforge.net/DTD/sodipodi-0.dtd"
   xmlns:inkscape="http://www.inkscape.org/namespaces/inkscape"
   width="128"
   height="128"
   viewBox="0 0 128 128"
   id="svg2"
   version="1.1"
   inkscape:version="0.92.4 5da689c313, 2019-01-14"
   sodipodi:docname="connect_share.svg">
  <defs
     id="defs4">
    <linearGradient
       inkscape:collect="always"
       id="linearGradient4151">
      <stop
         style="stop-color:#5280e7;stop-opacity:1"
         offset="0"
         id="stop4153" />
      <stop
         id="stop4159"
         offset="0.53151304"
         style="stop-color:#123380;stop-opacity:1" />
      <stop
         style="stop-color:#405151;stop-opacity:1"
         offset="0.53151304"
         id="stop4161" />
      <stop
         style="stop-color:#848484;stop-opacity:1"
         offset="1"
         id="stop4155" />
    </linearGradient>
    <linearGradient
       inkscape:collect="always"
       xlink:href="#linearGradient4151"
       id="linearGradient4157"
       x1="1"
       y1="988.36218"
       x2="127"
       y2="988.36218"
       gradientUnits="userSpaceOnUse" />
  </defs>
  <sodipodi:namedview
     id="base"
     pagecolor="#ffffff"
     bordercolor="#666666"
     borderopacity="1.0"
     inkscape:pageopacity="0.0"
     inkscape:pageshadow="2"
     inkscape:zoom="11.313708"
     inkscape:cx="47.960126"
     inkscape:cy="65.565605"
     inkscape:document-units="px"
     inkscape:current-layer="layer1"
     showgrid="false"
     units="px"
     inkscape:window-width="2560"
     inkscape:window-height="1400"
     inkscape:window-x="0"
     inkscape:window-y="40"
     inkscape:window-maximized="0" />
  <metadata
     id="metadata7">
    <rdf:RDF>
      <cc:Work
         rdf:about="">
        <dc:format>image/svg+xml</dc:format>
        <dc:type
           rdf:resource="http://purl.org/dc/dcmitype/StillImage" />
        <dc:title />
        <dc:creator>
          <cc:Agent>
            <dc:title>Kovid Goyal</dc:title>
          </cc:Agent>
        </dc:creator>
        <dc:rights>
          <cc:Agent>
            <dc:title />
          </cc:Agent>
        </dc:rights>
        <dc:publisher>
          <cc:Agent>
            <dc:title />
          </cc:Agent>
        </dc:publisher>
        <cc:license
           rdf:resource="http://creativecommons.org/licenses/by-sa/3.0/" />
      </cc:Work>
      <cc:License
         rdf:about="http://creativecommons.org/licenses/by-sa/3.0/">
        <cc:permits
           rdf:resource="http://creativecommons.org/ns#Reproduction" />
        <cc:permits
           rdf:resource="http://creativecommons.org/ns#Distribution" />
        <cc:requires
           rdf:resource="http://creativecommons.org/ns#Notice" />
        <cc:requires
           rdf:resource="http://creativecommons.org/ns#Attribution" />
        <cc:permits
           rdf:resource="http://creativecommons.org/ns#DerivativeWorks" />
        <cc:requires
           rdf:resource="http://creativecommons.org/ns#ShareAlike" />
      </cc:License>
    </rdf:RDF>
  </metadata>
  <g
     inkscape:label="Layer 1"
     inkscape:groupmode="layer"
     id="layer1"
     transform="translate(0,-924.36216)">
    <path
       inkscape:connector-curvature="0"
       d="m 105.588,956.04926 12.13183,0 c 5.12741,0 9.28017,-4.1547 9.28017,-9.2797 l 0,-12.1269 c 0,-5.1261 -4.15276,-9.2805 -9.28017,-9.2805 l -12.13183,0 c -5.12845,0 -9.28792,4.1544 -9.28792,9.2805 l 0,2.8882 -7.88249,0 c -4.61426,0 -8.37757,3.7582 -8.37757,8.3744 l 0,39.2807 -11.94641,0 c -1.60816,-17.055 -15.99482,-30.444 -33.46687,-30.444 C 16.08525,954.74196 1,969.82136 1,988.36066 c 0,18.53904 15.08525,33.61764 33.62674,33.61764 17.47205,0 31.85871,-13.3882 33.46687,-30.44374 l 11.94641,0 0,39.28484 c 0,4.6175 3.76331,8.3744 8.37757,8.3744 l 7.88249,0 0,2.8894 c 0,5.1254 4.15921,9.279 9.28792,9.279 l 12.13183,0 c 5.12741,0 9.28017,-4.1536 9.28017,-9.279 l 0,-12.1273 c 0,-5.1258 -4.15276,-9.2805 -9.28017,-9.2805 l -12.13183,0 c -5.12845,0 -9.28792,4.1547 -9.28792,9.2805 l 0,2.8884 -7.88249,0 c -1.11618,0 -2.02628,-0.9089 -2.02628,-2.0255 l 0,-39.28374 9.90851,0 0,2.8888 c 0,5.1274 4.15921,9.28054 9.28792,9.28054 l 12.13183,0 c 5.12741,0 9.28017,-4.15314 9.28017,-9.28054 l 0,-12.1264 c 0,-5.1256 -4.15276,-9.2803 -9.28017,-9.2803 l -12.13157,0 c -5.12845,0 -9.28792,4.1547 -9.28792,9.2803 l 0,2.8885 -9.90851,0 0,-39.2804 c 0,-1.115 0.90984,-2.0252 2.02628,-2.0252 l 7.88249,0 0,2.8889 c -2.6e-4,5.1253 4.15895,9.28 9.28766,9.28 z m -81.44671,6.4037 c -1.97669,2.6285 -3.63108,5.989 -4.85522,9.8951 -3.83355,1.0582 -7.21154,2.4958 -9.99063,4.2407 2.97743,-6.3903 8.2864,-11.4709 14.84585,-14.1358 z m -17.21974,22.249 c 1.9191,-2.9298 5.8965,-5.4638 11.08254,-7.2244 -0.5506,2.7937 -0.89305,5.775 -1.00823,8.8951 l -10.23959,0 c 0.0411,-0.5623 0.0953,-1.1204 0.16528,-1.6707 z m 0.11544,8.0411 c -0.0979,-0.6127 -0.1986,-1.2195 -0.25541,-1.844 l 10.21428,0 c 0.11518,3.1161 0.45763,6.1006 1.00823,8.8995 -5.08661,-1.7278 -9.01417,-4.2038 -10.9671,-7.0555 z m 2.6306,8.16754 c 2.70471,1.6403 5.95486,3.0091 9.61848,4.0133 1.10379,3.5206 2.55157,6.6057 4.27595,9.1057 -6.02873,-2.6086 -10.94644,-7.2827 -13.89443,-13.119 z m 22.69373,15.0871 c -2.97331,-1.2038 -5.85131,-4.709 -7.90599,-9.9202 2.50998,0.4216 5.16434,0.6727 7.90599,0.7647 l 0,9.1555 z m 0,-13.6742 c -3.32376,-0.1265 -6.50883,-0.537 -9.45321,-1.1733 -0.75152,-3.05954 -1.24918,-6.49844 -1.38915,-10.25114 l 10.84236,0 0,11.42444 z m 0,-15.95084 -10.84262,0 c 0.13997,-3.7528 0.63763,-7.1875 1.38916,-10.2509 2.94437,-0.6361 6.12944,-1.0411 9.4532,-1.1733 l 0,11.4242 z m 0,-15.9429 c -2.74165,0.095 -5.39626,0.347 -7.90599,0.7685 2.05468,-5.2123 4.93294,-8.722 7.90599,-9.9162 l 0,9.1477 z m 27.59801,6.1587 c -2.7791,-1.7448 -6.15709,-3.1824 -9.99064,-4.2406 -1.22413,-3.9061 -2.87826,-7.2667 -4.85392,-9.8951 6.55841,2.6651 11.86712,7.7457 14.84456,14.1357 z m -23.06588,-15.3064 c 2.97356,1.1942 5.85131,4.7039 7.90625,9.9162 -2.50999,-0.4217 -5.1646,-0.6732 -7.90625,-0.7685 l 0,-9.1477 z m 0,13.6664 c 3.3253,0.1322 6.50908,0.5372 9.45346,1.1733 0.75695,3.0634 1.24738,6.4981 1.38916,10.2509 l -10.84262,0 0,-11.4242 z m 0,15.9506 10.84262,0 c -0.14178,3.7527 -0.63221,7.1916 -1.38916,10.25114 -2.94438,0.6363 -6.12816,1.0468 -9.45346,1.1733 l 0,-11.42444 z m 0,25.09864 0,-9.1555 c 2.74165,-0.092 5.39626,-0.3431 7.90625,-0.7647 -2.05469,5.211 -4.93269,8.7164 -7.90625,9.9202 z m 8.79981,-1.9679 c 1.728,-2.5002 3.17604,-5.5853 4.27569,-9.1057 3.66388,-1.008 6.91377,-2.3729 9.61875,-4.0132 -2.94851,5.836 -7.86597,10.5101 -13.89444,13.1189 z m 16.52348,-21.28674 c -1.95061,2.852 -5.87945,5.3238 -10.95806,7.0519 0.5426,-2.7953 0.88943,-5.7798 1.00178,-8.8959 l 10.21273,0 c -0.0579,0.6245 -0.15573,1.2313 -0.25645,1.844 z m -9.95628,-6.3704 c -0.11235,-3.1201 -0.45918,-6.1014 -1.00178,-8.8951 5.17803,1.7644 9.15569,4.2949 11.07479,7.2244 0.07,0.5503 0.12397,1.1084 0.16529,1.6707 l -10.2383,0 z"
       id="path3"
       style="fill-opacity:1;fill:url(#linearGradient4157)" />
  </g>
</svg>
