<svg xmlns="http://www.w3.org/2000/svg" xmlns:xlink="http://www.w3.org/1999/xlink" width="128" height="128" viewBox="0 0 128 128"><defs><linearGradient id="a"><stop offset="0" stop-color="#3d70e4"/><stop offset=".532" stop-color="#123380"/><stop offset=".532" stop-color="#161c1c"/><stop offset="1" stop-color="#848484"/></linearGradient><linearGradient xlink:href="#a" id="b" x1="1" y1="988.362" x2="127" y2="988.362" gradientUnits="userSpaceOnUse"/></defs><path d="M105.588 31.687h12.132c5.127 0 9.28-4.155 9.28-9.28v-12.127c0-5.126-4.153-9.28-9.28-9.28h-12.132c-5.128 0-9.288 4.154-9.288 9.28v2.888h-7.882c-4.614 0-8.378 3.758-8.378 8.374v39.281h-11.946c-1.608-17.055-15.995-30.444-33.467-30.444-18.541 0-33.627 15.079-33.627 33.619 0 18.539 15.085 33.618 33.627 33.618 17.472 0 31.859-13.388 33.467-30.444h11.946v39.285c0 4.617 3.763 8.374 8.378 8.374h7.882v2.889c0 5.125 4.159 9.279 9.288 9.279h12.132c5.127 0 9.28-4.154 9.28-9.279v-12.127c0-5.126-4.153-9.28-9.28-9.28h-12.132c-5.128 0-9.288 4.155-9.288 9.28v2.888h-7.882c-1.116 0-2.026-.909-2.026-2.026v-39.284h9.909v2.889c0 5.127 4.159 9.281 9.288 9.281h12.132c5.127 0 9.28-4.153 9.28-9.281v-12.126c0-5.126-4.153-9.28-9.28-9.28h-12.132c-5.128 0-9.288 4.155-9.288 9.28v2.889h-9.909v-39.28c0-1.115.91-2.025 2.026-2.025h7.882v2.889c0 5.125 4.159 9.28 9.288 9.28zm-81.447 6.404c-1.977 2.628-3.631 5.989-4.855 9.895-3.834 1.058-7.212 2.496-9.991 4.241 2.977-6.39 8.286-11.471 14.846-14.136zm-17.22 22.249c1.919-2.93 5.896-5.464 11.083-7.224-.551 2.794-.893 5.775-1.008 8.895h-10.24c.041-.562.095-1.12.165-1.671zm.115 8.041c-.098-.613-.199-1.22-.255-1.844h10.214c.115 3.116.458 6.101 1.008 8.899-5.087-1.728-9.014-4.204-10.967-7.056zm2.631 8.168c2.705 1.64 5.955 3.009 9.618 4.013 1.104 3.521 2.552 6.606 4.276 9.106-6.029-2.609-10.946-7.283-13.894-13.119zm22.694 15.087c-2.973-1.204-5.851-4.709-7.906-9.92 2.51.422 5.164.673 7.906.765v9.155zm0-13.674c-3.324-.127-6.509-.537-9.453-1.173-.752-3.06-1.249-6.498-1.389-10.251h10.842v11.424zm0-15.951h-10.843c.14-3.753.638-7.188 1.389-10.251 2.944-.636 6.129-1.041 9.453-1.173v11.424zm0-15.943c-2.742.095-5.396.347-7.906.768 2.055-5.212 4.933-8.722 7.906-9.916v9.148zm27.598 6.159c-2.779-1.745-6.157-3.182-9.991-4.241-1.224-3.906-2.878-7.267-4.854-9.895 6.558 2.665 11.867 7.746 14.845 14.136zm-23.066-15.306c2.974 1.194 5.851 4.704 7.906 9.916-2.51-.422-5.165-.673-7.906-.768v-9.148zm0 13.666c3.325.132 6.509.537 9.453 1.173.757 3.063 1.247 6.498 1.389 10.251h-10.843v-11.424zm0 15.951h10.843c-.142 3.753-.632 7.192-1.389 10.251-2.944.636-6.128 1.047-9.453 1.173v-11.424zm0 25.099v-9.155c2.742-.092 5.396-.343 7.906-.765-2.055 5.211-4.933 8.716-7.906 9.92zm8.8-1.968c1.728-2.5 3.176-5.585 4.276-9.106 3.664-1.008 6.914-2.373 9.619-4.013-2.949 5.836-7.866 10.51-13.894 13.119zm16.523-21.287c-1.951 2.852-5.879 5.324-10.958 7.052.543-2.795.889-5.78 1.002-8.896h10.213c-.058.625-.156 1.231-.256 1.844zm-9.956-6.37c-.112-3.12-.459-6.101-1.002-8.895 5.178 1.764 9.156 4.295 11.075 7.224.07.55.124 1.108.165 1.671h-10.238z" fill="url(#b)"/></svg>