<?xml version="1.0" encoding="UTF-8" standalone="no"?>
<svg
   width="752"
   height="752"
   version="1.1"
   viewBox="0 0 752 752"
   id="svg14"
   sodipodi:docname="context_menu.svg"
   inkscape:version="1.2.1 (9c6d41e410, 2022-07-14, custom)"
   xmlns:inkscape="http://www.inkscape.org/namespaces/inkscape"
   xmlns:sodipodi="http://sodipodi.sourceforge.net/DTD/sodipodi-0.dtd"
   xmlns="http://www.w3.org/2000/svg"
   xmlns:svg="http://www.w3.org/2000/svg">
  <defs
     id="defs18" />
  <sodipodi:namedview
     id="namedview16"
     pagecolor="#505050"
     bordercolor="#eeeeee"
     borderopacity="1"
     inkscape:showpageshadow="0"
     inkscape:pageopacity="0"
     inkscape:pagecheckerboard="0"
     inkscape:deskcolor="#505050"
     showgrid="false"
     inkscape:zoom="2.5106383"
     inkscape:cx="376"
     inkscape:cy="376"
     inkscape:window-width="3840"
     inkscape:window-height="2101"
     inkscape:window-x="0"
     inkscape:window-y="59"
     inkscape:window-maximized="1"
     inkscape:current-layer="svg14" />
  <g
     id="g2444"
     style="fill:#2271d5;fill-opacity:1">
    <path
       d="m 376.48,286.97 h 0.47266 c 13.734,0 25.102,11.367 25.102,25.102 v 72.457 c 0,13.734 -11.367,25.102 -25.102,25.102 H 376.48 c -13.734,0 -25.102,-11.367 -25.102,-25.102 v -72.934 c 0,-13.734 11.367,-24.625 25.102,-24.625 z"
       id="path2"
       style="fill:#2271d5;fill-opacity:1" />
    <path
       d="m 259.97,311.12 v 159.6 c 0,31.258 12.312,61.094 34.098,83.352 22.258,22.73 51.621,35.52 82.402,35.52 h 2.3672 c 62.988,-0.47656 114.14,-52.57 114.14,-116.03 v -162.44 c 0,-54.934 -44.988,-99.926 -99.926,-99.926 h -33.625 c -54.461,0 -99.453,44.988 -99.453,99.926 z m 25.102,0 c 0,-41.203 33.625,-74.824 74.824,-74.824 h 4.2617 v 37.414 c 3.7891,-1.4219 8.0508,-1.8945 12.312,-1.8945 h 0.47266 c 4.2617,0 8.5234,0.47266 12.312,1.8945 v -37.414 h 4.2617 c 41.203,0 74.824,33.625 74.824,74.824 v 35.52 h -51.613 v 25.102 h 51.621 v 101.82 c 0,49.727 -40.254,90.453 -89.98,91.402 h -1.8945 c -24.152,0 -47.359,-9.9453 -64.879,-27.941 -17.523,-17.996 -26.992,-41.203 -26.992,-66.301 v -99.453 h 51.621 v -25.102 l -51.152,-0.004 z"
       id="path4"
       style="fill:#2271d5;fill-opacity:1" />
  </g>
  <g
     id="g863"
     style="fill:#2caf45;fill-opacity:1">
    <path
       d="m 495.82,241.03 24.152,-13.734 c 4.2617,-2.3672 9.4727,-0.94531 11.84,3.3164 2.3672,4.2617 0.94531,9.4727 -3.3164,11.84 l -23.68,13.734 c -2.3672,1.4219 -5.6836,0.47266 -7.1055,-1.8945 -0.94531,-1.8945 -2.3672,-3.7891 -3.3164,-5.6836 -1.8867,-2.3711 -1.4141,-5.6836 1.4258,-7.5781 z"
       id="path6"
       style="fill:#2caf45;fill-opacity:1" />
    <path
       d="m 472.14,223.04 c -1.8945,-1.4219 -3.3164,-2.8398 -5.2109,-4.2617 -2.3672,-1.8945 -2.8398,-5.2109 -0.94531,-7.5781 l 17.996,-21.312 c 3.3164,-3.7891 8.5234,-4.2617 12.312,-0.94531 3.7891,3.3164 4.2617,8.5234 0.94531,12.312 l -17.523,21.312 c -2.3633,2.3672 -5.6797,2.3672 -7.5742,0.47266 z"
       id="path8"
       style="fill:#2caf45;fill-opacity:1" />
    <path
       d="m 437.57,202.2 c -1.8945,-0.94531 -4.2617,-1.4219 -6.1562,-2.3672 -2.8398,-0.94531 -4.2617,-3.7891 -3.3164,-6.6289 l 9.4727,-26.047 c 1.4219,-4.7344 6.6289,-6.6289 10.891,-5.2109 4.7344,1.4219 6.6289,6.6289 5.2109,10.891 l -9.4727,26.047 c -0.94531,3.3164 -4.2617,4.7383 -6.6289,3.3164 z"
       id="path10"
       style="fill:#2caf45;fill-opacity:1" />
  </g>
</svg>
