<svg width="512" height="512" version="1.1" viewBox="0 0 512 512" xmlns="http://www.w3.org/2000/svg">
 <g fill="#2271d5">
  <path d="m140 191.1v159.6c0 31.26 12.31 61.09 34.1 83.35 22.26 22.73 51.62 35.52 82.4 35.52h2.367c62.99-0.4766 114.1-52.57 114.1-116v-162.4c0-54.93-44.99-99.93-99.93-99.93h-33.62c-54.46 0-99.45 44.99-99.45 99.93zm25.1 0c0-41.2 33.62-74.82 74.82-74.82h4.262v37.41c3.789-1.422 8.051-1.894 12.31-1.894h0.4727c4.262 0 8.523 0.4727 12.31 1.894v-37.41h4.262c41.2 0 74.82 33.62 74.82 74.82v35.52h-51.61v25.1h51.62v101.8c0 49.73-40.25 90.45-89.98 91.4h-1.894c-24.15 0-47.36-9.945-64.88-27.94-17.52-18-26.99-41.2-26.99-66.3v-99.45h51.62v-25.1l-51.15-4e-3z" fill="#2271d5"/>
  <path d="m256.7 166.3c-13.99 3.4e-4 -25.34 11.34-25.34 25.34 0.4409 0.4239 0 72.7 0 72.7 3.4e-4 13.99 11.34 25.34 25.34 25.34 13.99-3.4e-4 25.34-11.34 25.34-25.34v-72.7c-3.4e-4 -13.99-11.34-25.34-25.34-25.34z"/>
 </g>
 <g fill="#2caf45">
  <path d="m375.8 121 24.15-13.73c4.262-2.367 9.473-0.9453 11.84 3.316 2.367 4.262 0.9453 9.473-3.316 11.84l-23.68 13.73c-2.367 1.422-5.684 0.4727-7.106-1.894-0.9453-1.894-2.367-3.789-3.316-5.684-1.887-2.371-1.414-5.684 1.426-7.578z"/>
  <path d="m352.1 103c-1.894-1.422-3.316-2.84-5.211-4.262-2.367-1.894-2.84-5.211-0.9453-7.578l18-21.31c3.316-3.789 8.523-4.262 12.31-0.9453 3.789 3.316 4.262 8.523 0.9453 12.31l-17.52 21.31c-2.363 2.367-5.68 2.367-7.574 0.4727z"/>
  <path d="m317.6 82.2c-1.894-0.9453-4.262-1.422-6.156-2.367-2.84-0.9453-4.262-3.789-3.316-6.629l9.473-26.05c1.422-4.734 6.629-6.629 10.89-5.211 4.734 1.422 6.629 6.629 5.211 10.89l-9.473 26.05c-0.9453 3.316-4.262 4.738-6.629 3.316z"/>
 </g>
</svg>
