<?xml version="1.0" encoding="UTF-8" standalone="no"?>
<!-- Generator: Adobe Illustrator 15.0.0, SVG Export Plug-In . SVG Version: 6.00 Build 0)  -->

<svg
   xmlns:dc="http://purl.org/dc/elements/1.1/"
   xmlns:cc="http://creativecommons.org/ns#"
   xmlns:rdf="http://www.w3.org/1999/02/22-rdf-syntax-ns#"
   xmlns:svg="http://www.w3.org/2000/svg"
   xmlns="http://www.w3.org/2000/svg"
   xmlns:sodipodi="http://sodipodi.sourceforge.net/DTD/sodipodi-0.dtd"
   xmlns:inkscape="http://www.inkscape.org/namespaces/inkscape"
   version="1.1"
   id="Isolation_Mode"
   x="0px"
   y="0px"
   width="149.5"
   height="201"
   viewBox="0 0 149.49999 201"
   enable-background="new 0 0 595.28 841.89"
   xml:space="preserve"
   inkscape:version="0.47 r22583"
   sodipodi:docname="convert.svg"><metadata
   id="metadata44"><rdf:RDF><cc:Work
       rdf:about=""><dc:format>image/svg+xml</dc:format><dc:type
         rdf:resource="http://purl.org/dc/dcmitype/StillImage" /></cc:Work></rdf:RDF></metadata><defs
   id="defs42"><inkscape:perspective
     sodipodi:type="inkscape:persp3d"
     inkscape:vp_x="0 : 420.94501 : 1"
     inkscape:vp_y="0 : 1000 : 0"
     inkscape:vp_z="595.28003 : 420.94501 : 1"
     inkscape:persp3d-origin="297.64001 : 280.63 : 1"
     id="perspective46" /></defs><sodipodi:namedview
   pagecolor="#ffffff"
   bordercolor="#666666"
   borderopacity="1"
   objecttolerance="10"
   gridtolerance="10"
   guidetolerance="10"
   inkscape:pageopacity="0"
   inkscape:pageshadow="2"
   inkscape:window-width="640"
   inkscape:window-height="489"
   id="namedview40"
   showgrid="false"
   inkscape:zoom="0.28032165"
   inkscape:cx="75.583001"
   inkscape:cy="99.722002"
   inkscape:window-x="0"
   inkscape:window-y="41"
   inkscape:window-maximized="0"
   inkscape:current-layer="Isolation_Mode" />
<g
   id="g3"
   transform="translate(-222.05701,-319.667)">
	<path
   d="m 245.666,356.667 c -6.627,0 -12,-5.373 -12,-12 v -2 c 0,-6.627 5.373,-12 12,-12 h 125.891 v -8 h -137.5 c -6.627,0 -12,5.373 -12,12 v 174 c 0,6.627 5.373,12 12,12 h 137.5 v -164 H 245.666 z"
   id="path5"
   style="fill:#ffffff" />
	<linearGradient
   id="SVGID_1_"
   gradientUnits="userSpaceOnUse"
   x1="296.80621"
   y1="320.16699"
   x2="296.80621"
   y2="516.81891">
		<stop
   offset="0"
   style="stop-color:#CFAC65"
   id="stop8" />
		<stop
   offset="1"
   style="stop-color:#80561B"
   id="stop10" />
	</linearGradient>
	<path
   d="m 245.666,353.667 c -6.627,0 -12,-5.373 -12,-12 v -2 c 0,-6.627 5.373,-12 12,-12 h 125.891 v -8 h -137.5 c -6.627,0 -12,5.373 -12,12 v 174 c 0,6.627 5.373,12 12,12 h 137.5 v -164 H 245.666 z"
   id="path12"
   style="fill:url(#SVGID_1_)" />
	<path
   d="m 371.416,346.167 h -123 c -2.348,0 -4.25,-1.903 -4.25,-4.25 l 0,0 c 0,-2.347 1.902,-4.25 4.25,-4.25 h 123"
   id="path14"
   style="fill:#ffffff" />
	<path
   d="m 371.416,344.167 h -123 c -2.348,0 -4.25,-1.903 -4.25,-4.25 l 0,0 c 0,-2.347 1.902,-4.25 4.25,-4.25 h 123"
   id="path16"
   style="fill:#939598" />
	<g
   id="g18">
		<path
   d="m 349.43,413.575 c 2.286,-15.708 -4.977,-28.632 -4.977,-28.632 -30.619,-33.521 -56.727,0 -56.727,0 -7.413,13.214 0,13.859 0,13.859 5.479,-12.892 17.728,-7.413 17.728,-7.413 7.146,0.511 5.804,15.768 4.935,22.099 -7.254,0.01 -12.399,0.05 -12.67,0.14 l 31.748,39 31.748,-39 c -10e-4,0 -4.815,-0.024 -11.785,-0.053 z"
   id="path20"
   style="fill:#d0b964" />
		<path
   d="m 315.212,459.646 c -5.479,12.894 -17.728,7.414 -17.728,7.414 -7.146,-0.511 -5.805,-15.769 -4.936,-22.101 7.254,-0.009 12.399,-0.049 12.671,-0.14 l -31.747,-38.999 -31.748,38.999 c 0,0 4.813,0.024 11.784,0.055 -2.286,15.708 4.977,28.632 4.977,28.632 30.62,33.52 56.727,0 56.727,0 7.412,-13.214 0,-13.86 0,-13.86 z"
   id="path22"
   style="fill:#d0b964" />
	</g>
	<g
   id="g24">
		<linearGradient
   id="SVGID_2_"
   gradientUnits="userSpaceOnUse"
   x1="322.82321"
   y1="376.07959"
   x2="322.82321"
   y2="502.4274">
			<stop
   offset="0"
   style="stop-color:#2A2A2A"
   id="stop27" />
			<stop
   offset="1"
   style="stop-color:#000000"
   id="stop29" />
		</linearGradient>
		<path
   d="m 349.43,420.022 c 2.286,-15.709 -4.977,-28.633 -4.977,-28.633 -30.619,-33.52 -56.727,0 -56.727,0 -7.413,13.215 0,13.859 0,13.859 5.479,-12.893 17.728,-7.413 17.728,-7.413 7.146,0.51 5.804,15.768 4.935,22.099 -7.254,0.009 -12.399,0.05 -12.67,0.14 l 31.748,39 31.748,-39 c -10e-4,0 -4.815,-0.025 -11.785,-0.052 z"
   id="path31"
   style="fill:url(#SVGID_2_)" />
		<linearGradient
   id="SVGID_3_"
   gradientUnits="userSpaceOnUse"
   x1="280.1152"
   y1="376.07959"
   x2="280.1152"
   y2="502.4259">
			<stop
   offset="0"
   style="stop-color:#2A2A2A"
   id="stop34" />
			<stop
   offset="1"
   style="stop-color:#000000"
   id="stop36" />
		</linearGradient>
		<path
   d="m 315.212,466.093 c -5.479,12.894 -17.728,7.414 -17.728,7.414 -7.146,-0.51 -5.805,-15.769 -4.936,-22.101 7.254,-0.01 12.399,-0.049 12.671,-0.14 l -31.747,-38.999 -31.748,38.999 c 0,0 4.813,0.024 11.784,0.055 -2.286,15.708 4.977,28.631 4.977,28.631 30.62,33.521 56.727,0 56.727,0 7.412,-13.214 0,-13.859 0,-13.859 z"
   id="path38"
   style="fill:url(#SVGID_3_)" />
	</g>
</g>
</svg>