<svg xmlns="http://www.w3.org/2000/svg" xmlns:svg="http://www.w3.org/2000/svg" id="svg2" width="128" height="128" version="1.1" viewBox="0 0 128 128"><metadata id="metadata7"/><g id="layer1" transform="translate(0,-924.36216)"><path style="fill:#a8854c;fill-opacity:1;fill-rule:evenodd;stroke:#000;stroke-width:0;stroke-linecap:butt;stroke-linejoin:round;stroke-miterlimit:4;stroke-dasharray:none;stroke-opacity:1" id="path4221" d="m 16.582008,1046.8836 0,-107.68789 c 0.268678,-7.88583 2.821127,-11.47031 7.254326,-11.67513 l 83.521626,-0.15807 c 2.76636,-0.0342 3.22403,2.60341 3.22403,5.26085 L 110.405,1042.9681 c 0.20067,4.0092 -3.08981,3.9942 -3.08981,3.9942 l -6.90542,0.1083 c -0.18732,4.2167 -0.26937,4.387 -3.224141,4.2676 l -76.439105,0 c -3.907185,0 -4.164519,0.1998 -4.164519,-4.455 z"/><path style="fill:#fff;fill-opacity:1;fill-rule:evenodd;stroke:#000;stroke-width:0;stroke-linecap:round;stroke-linejoin:round;stroke-miterlimit:4;stroke-dasharray:none;stroke-opacity:1" id="path4258" d="m 22.29891,937.54569 73.639178,0 c 5.750212,0.0985 5.128952,2.68325 5.171952,9.6779 l 0.18187,94.28241 c 1.82365,0.1448 4.62079,-1.8836 4.58597,-5.1073 l -0.18187,-96.83984 c 0.15109,-6.45263 -1.3372,-6.45263 -4.30125,-6.71744 l -75.30503,0 c -2.867481,-0.1804 -3.639719,0.84201 -3.790797,4.70427 z"/><rect style="fill:#4e3f1f;fill-opacity:1;fill-rule:evenodd;stroke:none;stroke-width:0;stroke-linecap:round;stroke-linejoin:round;stroke-miterlimit:4;stroke-dasharray:none;stroke-opacity:1" id="rect4139" width="51.482" height="6" x="33.259" y="951.362" ry=".9"/><path id="path4" d="m 88.023398,1014.6468 q 0,0.1953 -0.039,0.2734 -2.5,10.4688 -10.4688,16.9727 -7.9687,6.5039 -18.6719,6.5039 -5.7031,0 -11.0351,-2.1484 -5.332,-2.1485 -9.5117,-6.1328 l -5.0391,5.039 q -0.7422,0.7422 -1.7578,0.7422 -1.0156,0 -1.7578,-0.7422 -0.7422,-0.7422 -0.7422,-1.7578 l 0,-17.5 q 0,-1.0156 0.7422,-1.7578 0.7422,-0.7422 1.7578,-0.7422 l 17.5,0 q 1.0156,0 1.7578,0.7422 0.7422,0.7422 0.7422,1.7578 0,1.0156 -0.7422,1.7578 l -5.3516,5.3516 q 2.7735,2.5781 6.2891,3.9844 3.5156,1.4062 7.3047,1.4062 5.2344,0 9.7656,-2.5391 4.5313,-2.539 7.2656,-6.9921 0.4297,-0.6641 2.0704,-4.5704 0.3125,-0.8984 1.1718,-0.8984 l 7.5,0 q 0.5078,0 0.8789,0.3711 0.3711,0.3711 0.3711,0.8789 z m 0.9766,-31.25 0,17.5 q 0,1.0156 -0.7422,1.7578 -0.7422,0.7422 -1.7578,0.7422 l -17.5,0 q -1.0156,0 -1.7578,-0.7422 -0.7422,-0.7422 -0.7422,-1.7578 0,-1.01556 0.7422,-1.75776 l 5.3906,-5.3906 q -5.7812,-5.3516 -13.6328,-5.3516 -5.2344,0 -9.7656,2.5391 -4.5313,2.539 -7.2657,6.9922 -0.4296,0.664 -2.0703,4.57026 -0.3125,0.8984 -1.1718,0.8984 l -7.7735,0 q -0.5078,0 -0.8789,-0.3711 -0.3711,-0.3711 -0.3711,-0.8789 l 0,-0.2734 q 2.5391,-10.46876 10.5469,-16.9727 8.0078,-6.5039 18.75,-6.5039 5.7031,0 11.0937,2.168 5.3907,2.1679 9.5704,6.11334 l 5.0781,-5.03914 q 0.7422,-0.7422 1.7578,-0.7422 1.0156,0 1.7578,0.7422 0.7422,0.7422 0.7422,1.7578 z" style="fill:#4e3f1f;fill-opacity:1"/></g></svg>