<svg xmlns="http://www.w3.org/2000/svg" viewBox="0 0 128 128" height="128" width="128"><g transform="translate(0 -924.362)"><path d="M16.582 1046.884v-107.688c.269-7.886 2.821-11.47 7.254-11.675l83.522-.158c2.766-.034 3.224 2.603 3.224 5.261l-.177 110.345c.201 4.009-3.09 3.994-3.09 3.994l-6.905.108c-.187 4.217-.269 4.387-3.224 4.268h-76.439c-3.907 0-4.165.2-4.165-4.455z" fill="#a8854c" fill-rule="evenodd"/><path d="M22.299 937.546h73.639c5.75.099 5.129 2.683 5.172 9.678l.182 94.282c1.824.145 4.621-1.884 4.586-5.107l-.182-96.84c.151-6.453-1.337-6.453-4.301-6.717h-75.305c-2.867-.18-3.64.842-3.791 4.704z" fill="#fff" fill-rule="evenodd"/><rect width="51.482" height="6" x="33.259" y="951.362" ry=".9" fill="#4e3f1f" fill-rule="evenodd"/><path d="M88.023 1014.647q0 .195-.039.273-2.5 10.469-10.469 16.973-7.969 6.504-18.672 6.504-5.703 0-11.035-2.148t-9.512-6.133l-5.039 5.039q-.742.742-1.758.742t-1.758-.742q-.742-.742-.742-1.758v-17.5q0-1.016.742-1.758t1.758-.742h17.5q1.016 0 1.758.742t.742 1.758q0 1.016-.742 1.758l-5.352 5.352q2.773 2.578 6.289 3.984 3.516 1.406 7.305 1.406 5.234 0 9.766-2.539 4.531-2.539 7.266-6.992.43-.664 2.07-4.57.313-.898 1.172-.898h7.5q.508 0 .879.371t.371.879zm.977-31.25v17.5q0 1.016-.742 1.758t-1.758.742h-17.5q-1.016 0-1.758-.742t-.742-1.758q0-1.016.742-1.758l5.391-5.391q-5.781-5.352-13.633-5.352-5.234 0-9.766 2.539-4.531 2.539-7.266 6.992-.43.664-2.07 4.57-.313.898-1.172.898h-7.774q-.508 0-.879-.371t-.371-.879v-.273q2.539-10.469 10.547-16.973 8.008-6.504 18.75-6.504 5.703 0 11.094 2.168 5.391 2.168 9.57 6.113l5.078-5.039q.742-.742 1.758-.742t1.758.742q.742.742.742 1.758z" fill="#4e3f1f"/></g></svg>