<?xml version="1.0" encoding="UTF-8" standalone="no"?>
<!-- Created with Inkscape (http://www.inkscape.org/) -->

<svg
   xmlns:dc="http://purl.org/dc/elements/1.1/"
   xmlns:cc="http://creativecommons.org/ns#"
   xmlns:rdf="http://www.w3.org/1999/02/22-rdf-syntax-ns#"
   xmlns:svg="http://www.w3.org/2000/svg"
   xmlns="http://www.w3.org/2000/svg"
   xmlns:xlink="http://www.w3.org/1999/xlink"
   xmlns:sodipodi="http://sodipodi.sourceforge.net/DTD/sodipodi-0.dtd"
   xmlns:inkscape="http://www.inkscape.org/namespaces/inkscape"
   width="128"
   height="128"
   viewBox="0 0 128 128"
   id="svg2"
   version="1.1"
   inkscape:version="0.91 r13725"
   sodipodi:docname="copy-to-library.svg">
  <defs
     id="defs4">
    <marker
       inkscape:stockid="Arrow1Lend"
       orient="auto"
       refY="0"
       refX="0"
       id="marker5884"
       style="overflow:visible"
       inkscape:isstock="true">
      <path
         inkscape:connector-curvature="0"
         id="path5886"
         d="M 0,0 5,-5 -12.5,0 5,5 0,0 Z"
         style="fill:#8eea00;fill-opacity:1;fill-rule:evenodd;stroke:none;stroke-width:1pt;stroke-opacity:1"
         transform="matrix(-0.8,0,0,-0.8,-10,0)" />
    </marker>
  </defs>
  <sodipodi:namedview
     id="base"
     pagecolor="#ffffff"
     bordercolor="#666666"
     borderopacity="1.0"
     inkscape:pageopacity="0.0"
     inkscape:pageshadow="2"
     inkscape:zoom="8"
     inkscape:cx="25.233026"
     inkscape:cy="36.549082"
     inkscape:document-units="px"
     inkscape:current-layer="layer1"
     showgrid="false"
     units="px"
     inkscape:window-width="3840"
     inkscape:window-height="2128"
     inkscape:window-x="0"
     inkscape:window-y="32"
     inkscape:window-maximized="0" />
  <metadata
     id="metadata7">
    <rdf:RDF>
      <cc:Work
         rdf:about="">
        <dc:format>image/svg+xml</dc:format>
        <dc:type
           rdf:resource="http://purl.org/dc/dcmitype/StillImage" />
        <dc:title />
        <dc:creator>
          <cc:Agent>
            <dc:title>Kovid Goyal</dc:title>
          </cc:Agent>
        </dc:creator>
        <dc:rights>
          <cc:Agent>
            <dc:title />
          </cc:Agent>
        </dc:rights>
        <dc:publisher>
          <cc:Agent>
            <dc:title />
          </cc:Agent>
        </dc:publisher>
        <cc:license
           rdf:resource="http://creativecommons.org/licenses/by-sa/3.0/" />
      </cc:Work>
      <cc:License
         rdf:about="http://creativecommons.org/licenses/by-sa/3.0/">
        <cc:permits
           rdf:resource="http://creativecommons.org/ns#Reproduction" />
        <cc:permits
           rdf:resource="http://creativecommons.org/ns#Distribution" />
        <cc:requires
           rdf:resource="http://creativecommons.org/ns#Notice" />
        <cc:requires
           rdf:resource="http://creativecommons.org/ns#Attribution" />
        <cc:permits
           rdf:resource="http://creativecommons.org/ns#DerivativeWorks" />
        <cc:requires
           rdf:resource="http://creativecommons.org/ns#ShareAlike" />
      </cc:License>
    </rdf:RDF>
  </metadata>
  <image
     sodipodi:absref="/home/kovid/work/calibre/imgsrc/new/calibre.svg"
     xlink:href="calibre.svg"
     width="100%"
     height="100%"
     id="image7" />
  <g
     inkscape:label="Layer 1"
     inkscape:groupmode="layer"
     id="layer1"
     transform="translate(0,-924.36216)">
    <path
       inkscape:connector-curvature="0"
       d="m 127.35998,951.6386 q 0,1.2023 -0.87854,2.0808 l -23.67428,23.6743 q -0.87854,0.8785 -2.08075,0.8785 -1.202207,0 -2.080745,-0.8785 -0.878538,-0.8786 -0.878538,-2.0808 l 0,-11.8371 -10.357497,0 q -4.531401,0 -8.114911,0.2774 -3.58351,0.2774 -7.120781,0.9941 -3.537271,0.7168 -6.149764,1.9652 -2.612494,1.2485 -4.878195,3.2136 -2.265706,1.9651 -3.699107,4.6701 -1.433402,2.705 -2.242581,6.4041 -0.80918,3.6991 -0.80918,8.3692 0,2.5431 0.231191,5.6874 0,0.2774 0.115597,1.0866 0.115598,0.8092 0.115598,1.2253 0,0.6936 -0.393032,1.156 -0.393027,0.4624 -1.086609,0.4624 -0.73982,0 -1.29469,-0.7861 -0.323668,-0.4161 -0.601103,-1.0172 -0.277434,-0.6011 -0.624222,-1.3872 -0.346794,-0.786 -0.485511,-1.1097 Q 44.5,981.5089 44.5,973.8333 q 0,-9.2015 2.450657,-15.3976 7.490688,-18.6342 40.458973,-18.6342 l 10.357497,0 0,-11.8372 q 0,-1.2021 0.878538,-2.0807 0.878538,-0.8785 2.080745,-0.8785 1.20221,0 2.08075,0.8785 l 23.67428,23.6743 q 0.87854,0.8786 0.87854,2.0807 z"
       id="path4"
       style="fill:#58ab21;fill-opacity:0.75720167" />
  </g>
</svg>
