<svg xmlns="http://www.w3.org/2000/svg" xmlns:xlink="http://www.w3.org/1999/xlink" width="128" height="128" viewBox="0 0 128 128"><defs><marker orient="auto" overflow="visible"><path d="M-10 0l-4 4 14-4-14-4 4 4z" fill="#8eea00" fill-rule="evenodd"/></marker></defs><image xlink:href="calibre.svg" width="100%" height="100%"/><path d="M127.36 27.276q0 1.202-.879 2.081l-23.674 23.674q-.879.878-2.081.878t-2.081-.878q-.879-.879-.879-2.081v-11.837h-10.357q-4.531 0-8.115.277-3.584.277-7.121.994-3.537.717-6.15 1.965-2.612 1.248-4.878 3.214-2.266 1.965-3.699 4.67-1.433 2.705-2.243 6.404-.809 3.699-.809 8.369 0 2.543.231 5.687 0 .277.116 1.087.116.809.116 1.225 0 .694-.393 1.156-.393.462-1.087.462-.74 0-1.295-.786-.324-.416-.601-1.017-.277-.601-.624-1.387l-.486-1.11q-5.872-13.178-5.872-20.854 0-9.201 2.451-15.398 7.491-18.634 40.459-18.634h10.357v-11.837q0-1.202.879-2.081.879-.878 2.081-.878t2.081.878l23.674 23.674q.879.879.879 2.081z" fill="#58ab21" fill-opacity=".757"/></svg>