<svg xmlns="http://www.w3.org/2000/svg" xmlns:xlink="http://www.w3.org/1999/xlink" width="128" height="128" viewBox="0 0 128 128"><defs><linearGradient id="a"><stop offset="0" stop-color="#c11c29"/><stop offset="1" stop-color="#731119"/></linearGradient><radialGradient xlink:href="#a" id="b" cx="63.994" cy="1007.085" fx="63.994" fy="1007.085" r="37.513" gradientTransform="matrix(1 0 0 1.18 0 -181.578)" gradientUnits="userSpaceOnUse"/></defs><path d="M27.985 18.041c.581 0 1.168-.127 1.721-.395l16.014-7.755 1.88 4.445c2.169-1.327 4.507-2.416 6.992-3.191l-3.313-7.83-.064-.12-.051-.127-.134-.205-.208-.325-.247-.285-.255-.26-.304-.24-.283-.195-.35-.18-.311-.137-.376-.112-.337-.072-.391-.045-.352-.01-.391.035-.363.055-.381.11-.237.068-.126.063-.131.05-19.726 9.554c-1.906.922-2.683 3.173-1.731 5.027.677 1.319 2.037 2.079 3.455 2.079zm21.097-.197c-1.775 1.149-3.398 2.501-4.849 4.01l-.234.252c-.641.687-1.248 1.409-1.811 2.159l-.19.247c-1.217 1.659-2.238 3.46-3.036 5.367l-.196.515c-.291.75-.551 1.514-.774 2.296-.08.282-.157.572-.229.864-.178.712-.319 1.439-.435 2.176l-.139.879c-.123 1.009-.203 2.034-.203 3.078v.005c0 2.016.275 4.007.754 5.959.262-.255.551-.47.818-.712.692-.63 1.381-1.259 2.104-1.831.502-.402 1.032-.757 1.551-1.129.545-.395 1.086-.799 1.646-1.164.553-.36 1.127-.68 1.693-1.012.558-.325 1.114-.65 1.682-.944.581-.3 1.17-.572 1.767-.842.592-.267 1.188-.527 1.79-.767.589-.23 1.183-.447 1.783-.65.653-.22 1.312-.41 1.978-.59.571-.155 1.137-.312 1.716-.442.779-.172 1.564-.297 2.354-.417.484-.072.962-.17 1.448-.225 1.291-.142 2.588-.227 3.897-.23h.029c1.322 0 2.627.087 3.928.232.471.052.929.145 1.397.212.808.122 1.618.255 2.416.43.561.127 1.111.277 1.662.43.684.185 1.363.385 2.037.61.587.195 1.16.407 1.734.632.62.245 1.232.51 1.844.785.581.265 1.158.53 1.726.822.584.302 1.15.635 1.721.967.558.327 1.122.645 1.664.994.566.37 1.114.78 1.662 1.177.512.372 1.037.725 1.536 1.122.7.557 1.371 1.167 2.045 1.776.288.262.599.497.885.772.476-1.951.751-3.948.751-5.964 0-1.039-.08-2.059-.201-3.071-.051-.41-.136-.804-.203-1.209-.098-.572-.203-1.144-.34-1.704-.095-.405-.203-.802-.319-1.197-.183-.627-.394-1.242-.623-1.846-.105-.28-.196-.565-.311-.837-.368-.874-.779-1.721-1.235-2.546l-.332-.552c-.406-.69-.839-1.364-1.309-2.014l-.376-.517c-1.222-1.614-2.619-3.091-4.178-4.395l-.17-.137c-.746-.612-1.531-1.189-2.344-1.719-2.215-1.454-4.654-2.606-7.267-3.373-.34-.097-.687-.18-1.026-.265-.401-.1-.803-.197-1.212-.28-.322-.065-.648-.127-.975-.18-.476-.077-.954-.145-1.441-.2l-.818-.087c-.769-.063-1.543-.107-2.328-.107h-.005c-.826 0-1.644.05-2.452.122-.27.022-.538.055-.805.087-.543.063-1.08.147-1.613.24-.298.052-.594.102-.89.165-.61.127-1.214.282-1.806.45l-.368.097v-.005c-2.506.747-4.849 1.839-6.984 3.218l.005.013zm33.203-7.95l16.014 7.755c.553.267 1.14.395 1.718.395 1.417 0 2.781-.762 3.457-2.074.949-1.854.175-4.105-1.734-5.027l-19.726-9.554-.129-.048-.126-.065-.239-.068-.381-.11-.36-.055-.391-.035-.36.013-.381.043-.35.077-.363.107-.329.145-.332.17-.301.205-.288.23-.265.265-.239.277-.211.327-.134.205-.051.127-.064.12-3.321 7.845c2.485.777 4.844 1.826 7.013 3.156l1.873-4.427zm-56.646 54.955c.849-2.446 1.878-4.767 3.046-6.993-6.555-1.816-12.577-6.091-16.891-9.554-1.646-1.319-4.077-1.094-5.433.497-1.358 1.597-1.127 3.958.514 5.274 4.715 3.793 11.244 8.462 18.764 10.776zm76.719.005c7.522-2.314 14.053-6.988 18.771-10.778 1.644-1.317 1.873-3.683.512-5.274-1.353-1.597-3.792-1.819-5.431-.497-4.319 3.47-10.341 7.745-16.896 9.559 1.165 2.224 2.194 4.55 3.043 6.991zm0 35.845c-.846 2.441-1.875 4.767-3.046 6.993 6.557 1.811 12.582 6.086 16.896 9.554.718.58 1.59.86 2.457.86 1.111 0 2.212-.465 2.976-1.357 1.356-1.597 1.127-3.958-.514-5.279-4.718-3.788-11.247-8.462-18.769-10.771zm20.783-21.674h-17.935c.082 1.244.162 2.488.162 3.753 0 1.264-.08 2.503-.162 3.743h17.935c2.13 0 3.859-1.679 3.859-3.748s-1.729-3.748-3.859-3.748z"/><path d="M90.661 51.61l-.27-.322c-.769-.902-1.569-1.761-2.403-2.581l-.316-.302c-.849-.819-1.724-1.599-2.632-2.329l-.224-.17c-1.886-1.494-3.895-2.781-5.999-3.853l-.337-.175c-.998-.495-2.019-.929-3.059-1.324l-.494-.182c-1.026-.367-2.076-.69-3.141-.954l-.525-.122c-1.083-.255-2.181-.46-3.295-.595l-.401-.04c-1.173-.132-2.362-.215-3.568-.215-1.25 0-2.488.077-3.707.22-.509.06-1.006.175-1.513.26-.689.115-1.381.215-2.061.37-.659.155-1.297.362-1.94.557-.496.15-1.001.28-1.487.455-.738.26-1.461.572-2.181.884-.363.155-.728.302-1.088.47-.792.377-1.559.799-2.323 1.237l-.779.445c-.813.495-1.605 1.029-2.382 1.591l-.553.395c-.808.61-1.595 1.254-2.362 1.926l-.401.357c-.777.707-1.531 1.447-2.256 2.221l-.314.337c-.872.944-1.7 1.941-2.498 2.978-.296.387-.61.762-.895 1.164-.862 1.197-1.659 2.456-2.41 3.76-4.018 7.061-6.367 15.56-6.367 24.709 0 12.21 4.18 23.263 10.938 31.28l.126.147c1.598 1.874 3.342 3.578 5.202 5.089l.525.42c.885.697 1.788 1.352 2.724 1.956l.45.272c.823.517 1.67.994 2.529 1.439.221.117.442.24.669.347.96.472 1.94.897 2.94 1.274l.718.25c.9.317 1.814.6 2.742.835l.538.147c1.057.25 2.133.44 3.221.58l.785.092c.486.05.99.052 1.482.087v-61.077c0-1.034.864-1.874 1.929-1.874s1.929.839 1.929 1.874v61.069c.496-.04 1.003-.04 1.495-.092l.749-.082c1.104-.147 2.194-.337 3.267-.59l.432-.117c.98-.25 1.942-.542 2.891-.879l.607-.215c1.029-.385 2.043-.824 3.033-1.307l.527-.272c.934-.482 1.855-.999 2.745-1.567l.273-.165c.978-.63 1.924-1.312 2.843-2.039l.373-.297c9.865-7.987 16.346-21.392 16.346-36.59.005-12.16-4.139-23.163-10.846-31.17z" fill="url(#b)"/><path d="M22.624 82.778c0-1.264.08-2.508.165-3.753h-17.93c-2.13 0-3.859 1.679-3.859 3.748s1.729 3.748 3.859 3.748h17.933c-.087-1.239-.167-2.481-.167-3.743zm-15.751 28.692c-1.644 1.322-1.875 3.685-.514 5.279.761.892 1.868 1.357 2.976 1.357.864 0 1.736-.282 2.457-.86 4.317-3.47 10.336-7.74 16.891-9.554-1.168-2.226-2.197-4.552-3.046-6.993-7.517 2.314-14.048 6.983-18.764 10.771z"/></svg>