<?xml version="1.0" encoding="UTF-8" standalone="no"?>
<!-- Created with Inkscape (http://www.inkscape.org/) -->

<svg
   xmlns:dc="http://purl.org/dc/elements/1.1/"
   xmlns:cc="http://creativecommons.org/ns#"
   xmlns:rdf="http://www.w3.org/1999/02/22-rdf-syntax-ns#"
   xmlns:svg="http://www.w3.org/2000/svg"
   xmlns="http://www.w3.org/2000/svg"
   xmlns:xlink="http://www.w3.org/1999/xlink"
   xmlns:sodipodi="http://sodipodi.sourceforge.net/DTD/sodipodi-0.dtd"
   xmlns:inkscape="http://www.inkscape.org/namespaces/inkscape"
   width="128"
   height="128"
   viewBox="0 0 128 128"
   id="svg2"
   version="1.1"
   inkscape:version="0.92.4 5da689c313, 2019-01-14"
   sodipodi:docname="debug.svg">
  <defs
     id="defs4">
    <linearGradient
       inkscape:collect="always"
       id="linearGradient4162">
      <stop
         style="stop-color:#c11c29;stop-opacity:1;"
         offset="0"
         id="stop4164" />
      <stop
         style="stop-color:#731119;stop-opacity:1"
         offset="1"
         id="stop4166" />
    </linearGradient>
    <radialGradient
       inkscape:collect="always"
       xlink:href="#linearGradient4162"
       id="radialGradient4168"
       cx="63.993572"
       cy="1007.0849"
       fx="63.993572"
       fy="1007.0849"
       r="37.513173"
       gradientTransform="matrix(1,0,0,1.1803007,0,-181.57813)"
       gradientUnits="userSpaceOnUse" />
  </defs>
  <sodipodi:namedview
     id="base"
     pagecolor="#ffffff"
     bordercolor="#666666"
     borderopacity="1.0"
     inkscape:pageopacity="0.0"
     inkscape:pageshadow="2"
     inkscape:zoom="7.919596"
     inkscape:cx="41.906986"
     inkscape:cy="63.245904"
     inkscape:document-units="px"
     inkscape:current-layer="layer1"
     showgrid="false"
     units="px"
     inkscape:window-width="2560"
     inkscape:window-height="1400"
     inkscape:window-x="0"
     inkscape:window-y="40"
     inkscape:window-maximized="0" />
  <metadata
     id="metadata7">
    <rdf:RDF>
      <cc:Work
         rdf:about="">
        <dc:format>image/svg+xml</dc:format>
        <dc:type
           rdf:resource="http://purl.org/dc/dcmitype/StillImage" />
        <dc:title />
        <dc:creator>
          <cc:Agent>
            <dc:title>Kovid Goyal</dc:title>
          </cc:Agent>
        </dc:creator>
        <dc:rights>
          <cc:Agent>
            <dc:title />
          </cc:Agent>
        </dc:rights>
        <dc:publisher>
          <cc:Agent>
            <dc:title />
          </cc:Agent>
        </dc:publisher>
        <cc:license
           rdf:resource="http://creativecommons.org/licenses/by-sa/3.0/" />
      </cc:Work>
      <cc:License
         rdf:about="http://creativecommons.org/licenses/by-sa/3.0/">
        <cc:permits
           rdf:resource="http://creativecommons.org/ns#Reproduction" />
        <cc:permits
           rdf:resource="http://creativecommons.org/ns#Distribution" />
        <cc:requires
           rdf:resource="http://creativecommons.org/ns#Notice" />
        <cc:requires
           rdf:resource="http://creativecommons.org/ns#Attribution" />
        <cc:permits
           rdf:resource="http://creativecommons.org/ns#DerivativeWorks" />
        <cc:requires
           rdf:resource="http://creativecommons.org/ns#ShareAlike" />
      </cc:License>
    </rdf:RDF>
  </metadata>
  <g
     inkscape:label="Layer 1"
     inkscape:groupmode="layer"
     id="layer1"
     transform="translate(0,-924.36216)">
    <path
       d="m 90.66117,975.97232 c -0.09,-0.10744 -0.1775,-0.21487 -0.27011,-0.3223 -0.76917,-0.90194 -1.56922,-1.7614 -2.4027,-2.58088 -0.10547,-0.10244 -0.21094,-0.20238 -0.31641,-0.30231 -0.84892,-0.81949 -1.72356,-1.599 -2.63165,-2.32855 -0.072,-0.0575 -0.15178,-0.11243 -0.2238,-0.16989 -1.88563,-1.49406 -3.89474,-2.78076 -5.99902,-3.85258 -0.11319,-0.055 -0.22381,-0.11993 -0.337,-0.1749 -0.99812,-0.49469 -2.01939,-0.92941 -3.05868,-1.32417 -0.16463,-0.06 -0.32927,-0.12492 -0.49391,-0.18238 -1.02642,-0.36727 -2.07599,-0.68957 -3.141,-0.9544 -0.17235,-0.045 -0.34986,-0.0824 -0.52478,-0.12243 -1.08302,-0.25484 -2.18147,-0.45971 -3.29535,-0.59462 -0.13377,-0.0175 -0.26754,-0.025 -0.40131,-0.04 -1.17305,-0.13242 -2.361531,-0.21486 -3.568023,-0.21486 -1.250225,0 -2.487587,0.0774 -3.706942,0.21986 -0.509351,0.06 -1.005839,0.17489 -1.512617,0.25984 -0.689425,0.11492 -1.381421,0.21486 -2.060556,0.36976 -0.658554,0.15491 -1.296529,0.36228 -1.939649,0.55715 -0.496488,0.14991 -1.000694,0.27983 -1.486892,0.45472 -0.738302,0.25984 -1.461168,0.57214 -2.181462,0.88445 -0.36272,0.1549 -0.728012,0.30231 -1.088159,0.4697 -0.792323,0.37726 -1.558922,0.7995 -2.322948,1.23673 -0.25982,0.1524 -0.522213,0.28732 -0.779461,0.44472 -0.812903,0.49469 -1.605226,1.02935 -2.382115,1.5915 -0.185218,0.13242 -0.373009,0.25984 -0.553083,0.39475 -0.807758,0.60962 -1.594936,1.25422 -2.361535,1.9263 -0.133769,0.11992 -0.267538,0.23735 -0.401307,0.35727 -0.776888,0.70706 -1.530624,1.44659 -2.256063,2.22111 -0.105472,0.11243 -0.210944,0.22236 -0.313843,0.33729 -0.87207,0.94441 -1.700408,1.94128 -2.497876,2.97813 -0.295835,0.38726 -0.609678,0.76202 -0.895223,1.16427 -0.86178,1.19675 -1.659249,2.45596 -2.410412,3.76015 -4.018212,7.06057 -6.366885,15.56024 -6.366885,24.70945 0,12.21 4.180278,23.263 10.938179,31.2805 0.04116,0.05 0.08232,0.097 0.126051,0.1474 1.59751,1.8738 3.34165,3.5778 5.201552,5.0893 0.172356,0.1424 0.349857,0.2823 0.524786,0.4198 0.884932,0.697 1.787872,1.3516 2.724255,1.9562 0.149203,0.097 0.30098,0.1799 0.450183,0.2724 0.823193,0.5171 1.669539,0.9943 2.528747,1.4391 0.221233,0.1174 0.442466,0.2398 0.668844,0.3472 0.959535,0.4723 1.939649,0.897 2.940343,1.2742 0.236668,0.087 0.478481,0.1649 0.717722,0.2499 0.900367,0.3173 1.813597,0.5996 2.742262,0.8345 0.180073,0.05 0.357574,0.1024 0.537648,0.1474 1.057289,0.2498 2.132585,0.4397 3.220743,0.5796 0.262393,0.035 0.522213,0.062 0.784606,0.092 0.486198,0.05 0.990404,0.052 1.481748,0.087 l 0,-61.07677 c 0,-1.03436 0.864352,-1.87383 1.929359,-1.87383 1.065006,0 1.929363,0.83947 1.929363,1.87383 l 0,61.06927 c 0.49648,-0.04 1.00326,-0.04 1.49461,-0.092 0.24953,-0.025 0.49906,-0.053 0.74859,-0.082 1.10359,-0.1474 2.19432,-0.3373 3.26704,-0.5896 0.14664,-0.035 0.28812,-0.077 0.43218,-0.1174 0.98012,-0.2499 1.94222,-0.5422 2.89147,-0.8795 0.20065,-0.072 0.40645,-0.1374 0.6071,-0.2149 1.02899,-0.3847 2.04255,-0.8244 3.03295,-1.3066 0.17751,-0.088 0.35243,-0.1849 0.52736,-0.2724 0.93381,-0.4822 1.85476,-0.9993 2.74484,-1.5665 0.09,-0.053 0.18264,-0.1074 0.27268,-0.1649 0.97754,-0.6296 1.92421,-1.3117 2.84259,-2.0387 0.12605,-0.097 0.24953,-0.1999 0.37301,-0.2973 9.86545,-7.9875 16.34553,-21.3916 16.34553,-36.5897 0.005,-12.15982 -4.13912,-23.16292 -10.84557,-31.1704 z"
       id="path4146"
       style="fill:url(#radialGradient4168);fill-opacity:1" />
    <g
       id="g835"
       style="fill:#dd8808;fill-opacity:1">
      <path
         id="path4160"
         d="m 27.985299,942.40335 c 0.58138,0 1.167905,-0.12742 1.720988,-0.39475 l 16.013679,-7.75514 1.880482,4.44472 c 2.1686,-1.32667 4.506983,-2.41599 6.991997,-3.19051 l -3.313352,-7.83009 c -0.01801,-0.0425 -0.04631,-0.0749 -0.06431,-0.11992 -0.02058,-0.0425 -0.03087,-0.0874 -0.05145,-0.12742 -0.03859,-0.075 -0.09004,-0.13742 -0.133769,-0.20487 -0.06688,-0.11243 -0.133769,-0.22237 -0.208371,-0.3248 -0.07717,-0.0999 -0.159493,-0.19238 -0.246958,-0.28482 -0.07975,-0.0899 -0.162066,-0.17739 -0.254675,-0.25984 -0.09775,-0.0874 -0.198081,-0.1649 -0.303552,-0.23985 -0.09261,-0.0675 -0.185219,-0.13741 -0.282973,-0.19488 -0.113189,-0.0675 -0.231523,-0.12742 -0.349857,-0.17988 -0.105472,-0.05 -0.205798,-0.0974 -0.31127,-0.13742 -0.126052,-0.045 -0.252103,-0.0774 -0.375582,-0.11243 -0.113189,-0.03 -0.223806,-0.055 -0.336995,-0.0725 -0.131196,-0.025 -0.25982,-0.035 -0.391016,-0.045 -0.115762,-0.005 -0.231523,-0.015 -0.35243,-0.01 -0.131196,0.003 -0.262393,0.0175 -0.391017,0.035 -0.120906,0.015 -0.241813,0.03 -0.362719,0.055 -0.128624,0.0275 -0.257248,0.0699 -0.380727,0.10993 -0.07975,0.0275 -0.159494,0.04 -0.236668,0.0675 -0.04631,0.02 -0.07975,0.0475 -0.126051,0.0625 -0.04116,0.02 -0.08746,0.03 -0.131197,0.05 L 26.26174,935.2979 c -1.906206,0.92192 -2.683095,3.17301 -1.731278,5.02685 0.676562,1.31917 2.037403,2.07869 3.454839,2.07869 z"
         style="fill:#dd8808;fill-opacity:1" />
      <path
         id="path4158"
         d="m 49.082196,942.20598 c -1.77501,1.14928 -3.398244,2.50093 -4.849122,4.00998 -0.07717,0.0824 -0.156921,0.1674 -0.234096,0.25235 -0.640547,0.68707 -1.247652,1.40911 -1.811025,2.15864 -0.06174,0.0824 -0.131196,0.1624 -0.190363,0.24735 -1.216783,1.65896 -2.238056,3.46033 -3.035525,5.36664 -0.06946,0.16989 -0.128624,0.34728 -0.195508,0.51467 -0.29069,0.74953 -0.550511,1.51405 -0.774316,2.29606 -0.07975,0.28233 -0.156921,0.57215 -0.228951,0.86446 -0.177501,0.71206 -0.318987,1.4391 -0.434749,2.17614 -0.0463,0.29231 -0.100326,0.57963 -0.138914,0.87945 -0.123479,1.00936 -0.203225,2.03372 -0.203225,3.07807 l 0,0.005 c 0,2.01624 0.275255,4.00749 0.753736,5.95877 0.262393,-0.25484 0.55051,-0.46971 0.818048,-0.71205 0.691997,-0.62961 1.381421,-1.25921 2.104287,-1.83136 0.501634,-0.40224 1.031564,-0.75702 1.551205,-1.12929 0.545366,-0.39475 1.085586,-0.7995 1.646386,-1.16427 0.553083,-0.35977 1.126746,-0.67957 1.692691,-1.01186 0.558228,-0.3248 1.113883,-0.6496 1.682401,-0.94441 0.58138,-0.29981 1.170478,-0.57214 1.767293,-0.84197 0.59167,-0.26734 1.188485,-0.52717 1.790445,-0.76702 0.589098,-0.22986 1.18334,-0.44722 1.782728,-0.6496 0.653409,-0.21986 1.311964,-0.40974 1.978236,-0.58963 0.57109,-0.1549 1.137035,-0.3123 1.715843,-0.44222 0.779461,-0.17239 1.564067,-0.29731 2.353818,-0.41724 0.483626,-0.0725 0.962107,-0.16989 1.448305,-0.22486 1.291384,-0.14241 2.587914,-0.22736 3.897305,-0.22985 0.0077,0 0.01801,0 0.02315,0 0.0026,0 0.0026,0 0.0026,0 0.0026,0 0.0026,0 0.0026,0 1.322254,0 2.626501,0.0874 3.928171,0.23235 0.47076,0.0525 0.92867,0.14491 1.39686,0.21237 0.80776,0.12242 1.61809,0.25484 2.41555,0.42973 0.5608,0.12742 1.11132,0.27732 1.66183,0.42973 0.68427,0.18488 1.36341,0.38476 2.0374,0.60962 0.58652,0.19487 1.16019,0.40724 1.73385,0.6321 0.61997,0.24485 1.23222,0.50968 1.84447,0.78451 0.58138,0.26483 1.15761,0.52967 1.72613,0.82198 0.58395,0.30231 1.1499,0.63461 1.72099,0.9669 0.55823,0.32729 1.1216,0.64459 1.66439,0.99437 0.56595,0.36977 1.11388,0.77952 1.66182,1.17677 0.51193,0.37226 1.03671,0.72454 1.53577,1.12179 0.69972,0.55716 1.37113,1.16677 2.04512,1.77639 0.28812,0.26234 0.59939,0.49719 0.88494,0.77202 0.4759,-1.95128 0.75116,-3.94753 0.75116,-5.96377 0,-1.03934 -0.0798,-2.05871 -0.20065,-3.07057 -0.0515,-0.40974 -0.13635,-0.8045 -0.20323,-1.20924 -0.0978,-0.57214 -0.20323,-1.14429 -0.33957,-1.70394 -0.0952,-0.40474 -0.20322,-0.80199 -0.31898,-1.19675 -0.18265,-0.6271 -0.39359,-1.24172 -0.62254,-1.84634 -0.10548,-0.27982 -0.19551,-0.56464 -0.31127,-0.83697 -0.36787,-0.87446 -0.77947,-1.72142 -1.23479,-2.54591 -0.1029,-0.18738 -0.22124,-0.36727 -0.33185,-0.55215 -0.40646,-0.68957 -0.83863,-1.36415 -1.3094,-2.01374 -0.12347,-0.17489 -0.24953,-0.34728 -0.37558,-0.51718 -1.22192,-1.61398 -2.61878,-3.09056 -4.1777,-4.39474 -0.054,-0.0475 -0.11319,-0.09 -0.16979,-0.13742 -0.74601,-0.61211 -1.53062,-1.18925 -2.34352,-1.71892 -2.21491,-1.45409 -4.65362,-2.60587 -7.26726,-3.37288 -0.33956,-0.0974 -0.68685,-0.17989 -1.02641,-0.26484 -0.40131,-0.0999 -0.80262,-0.19738 -1.21164,-0.27982 -0.32156,-0.065 -0.64827,-0.12742 -0.97497,-0.17989 -0.47591,-0.0774 -0.95439,-0.14491 -1.44059,-0.19988 -0.27011,-0.03 -0.54279,-0.065 -0.81805,-0.0874 -0.769167,-0.0625 -1.543483,-0.10743 -2.328089,-0.10743 l -0.0051,0 c -0.825766,0 -1.643814,0.05 -2.451572,0.12242 -0.27011,0.0225 -0.537648,0.055 -0.805186,0.0874 -0.542793,0.0625 -1.080441,0.1474 -1.612944,0.23984 -0.298407,0.0525 -0.594242,0.10244 -0.890077,0.1649 -0.609678,0.12742 -1.21421,0.28232 -1.80588,0.44972 -0.120907,0.035 -0.246958,0.0575 -0.367865,0.0974 l 0,-0.005 c -2.505594,0.74703 -4.849122,1.83885 -6.984279,3.21799 l 0.0051,0.0125 z"
         style="fill:#dd8808;fill-opacity:1" />
      <path
         id="path4156"
         d="m 82.28518,934.25596 16.01368,7.75514 c 0.55308,0.26733 1.139601,0.39475 1.71841,0.39475 1.41744,0 2.78085,-0.76202 3.45741,-2.0737 0.94925,-1.85384 0.17493,-4.10493 -1.73385,-5.02685 l -19.72576,-9.55401 c -0.0437,-0.02 -0.0849,-0.0275 -0.12863,-0.0475 -0.0437,-0.0175 -0.0797,-0.0475 -0.12605,-0.065 -0.0772,-0.03 -0.15949,-0.0425 -0.23924,-0.0675 -0.12862,-0.0425 -0.25467,-0.0824 -0.38073,-0.10993 -0.1209,-0.0275 -0.23924,-0.0425 -0.36014,-0.055 -0.1312,-0.015 -0.2624,-0.03 -0.39102,-0.035 -0.12091,-0.003 -0.23924,0.005 -0.36015,0.0125 -0.12862,0.007 -0.25467,0.02 -0.38072,0.0425 -0.11834,0.02 -0.2341,0.05 -0.34986,0.0774 -0.12348,0.0325 -0.24181,0.0625 -0.36272,0.10744 -0.11319,0.045 -0.22123,0.0924 -0.32928,0.14491 -0.11319,0.0525 -0.2238,0.10743 -0.33185,0.16989 -0.10547,0.06 -0.20322,0.13492 -0.30098,0.20487 -0.10032,0.0725 -0.19551,0.14741 -0.28812,0.22986 -0.0952,0.0824 -0.1775,0.17239 -0.26496,0.26483 -0.0823,0.0924 -0.16207,0.17989 -0.23924,0.27733 -0.0746,0.10243 -0.14406,0.21486 -0.21094,0.32729 -0.0437,0.0675 -0.0952,0.13242 -0.13377,0.20487 -0.0232,0.04 -0.0309,0.085 -0.0514,0.12742 -0.0206,0.045 -0.0489,0.0775 -0.0643,0.11993 l -3.32107,7.84508 c 2.48501,0.77702 4.84397,1.82636 7.01257,3.15552 l 1.87277,-4.42722 z"
         style="fill:#dd8808;fill-opacity:1" />
      <path
         id="path4154"
         d="m 25.639199,989.21152 c 0.848918,-2.44597 1.877909,-4.76701 3.045814,-6.99312 -6.554675,-1.81636 -12.576847,-6.09118 -16.890894,-9.55401 -1.646386,-1.31917 -4.0773782,-1.09431 -5.4330752,0.49719 -1.358268,1.5965 -1.126745,3.95752 0.514496,5.27419 4.7153532,3.79263 11.2443042,8.4622 18.7636592,10.77575 z"
         style="fill:#dd8808;fill-opacity:1" />
      <path
         id="path4152"
         d="m 102.35823,989.21652 c 7.52192,-2.31355 14.05345,-6.98812 18.77137,-10.77825 1.64382,-1.31667 1.87277,-3.68269 0.51193,-5.27419 -1.35313,-1.5965 -3.79184,-1.81886 -5.43051,-0.49719 -4.31919,3.47032 -10.34136,7.74514 -16.896039,9.55901 1.165339,2.2236 2.194329,4.54965 3.043249,6.99062 z"
         style="fill:#dd8808;fill-opacity:1" />
      <path
         id="path4150"
         d="m 102.35823,1025.0616 c -0.84635,2.441 -1.87534,4.767 -3.045819,6.9931 6.557249,1.8114 12.581989,6.0862 16.896039,9.554 0.71772,0.5796 1.58979,0.8595 2.45672,0.8595 1.11131,0 2.21233,-0.4647 2.97636,-1.3567 1.35569,-1.5965 1.12674,-3.9575 -0.5145,-5.2791 -4.71793,-3.7877 -11.24688,-8.4622 -18.7688,-10.7708 z"
         style="fill:#dd8808;fill-opacity:1" />
      <path
         id="path4148"
         d="m 123.14128,1003.3876 -17.93532,0 c 0.0823,1.2442 0.16207,2.4884 0.16207,3.7526 0,1.2642 -0.0797,2.5035 -0.16207,3.7427 l 17.93532,0 c 2.13001,0 3.85872,-1.679 3.85872,-3.7477 0,-2.0687 -1.72871,-3.7476 -3.85872,-3.7476 z"
         style="fill:#dd8808;fill-opacity:1" />
      <path
         id="path4144"
         d="m 22.624254,1007.1402 c 0,-1.2642 0.07975,-2.5084 0.164638,-3.7526 l -17.9301752,0 c -2.130012,0 -3.858718,1.6789 -3.858718,3.7476 0,2.0687 1.728706,3.7477 3.858718,3.7477 l 17.9327482,0 c -0.08746,-1.2392 -0.167211,-2.481 -0.167211,-3.7427 z"
         style="fill:#dd8808;fill-opacity:1" />
      <path
         id="path4"
         d="m 6.8729678,1035.8324 c -1.643814,1.3216 -1.875337,3.6851 -0.514496,5.2791 0.761454,0.892 1.867619,1.3567 2.9763584,1.3567 0.8643518,0 1.7364228,-0.2823 2.4567168,-0.8595 4.316619,-3.4703 10.336218,-7.7401 16.890894,-9.554 -1.167905,-2.2261 -2.196897,-4.5521 -3.045815,-6.9931 -7.516782,2.3136 -14.048305,6.9831 -18.7636582,10.7708 z"
         style="fill:#dd8808;fill-opacity:1" />
    </g>
  </g>
</svg>
