<svg xmlns="http://www.w3.org/2000/svg" xmlns:xlink="http://www.w3.org/1999/xlink" width="600" height="800" viewBox="0 0 600 800"><defs><linearGradient id="a"><stop offset="0" stop-color="#d3dcf2"/><stop offset="1" stop-color="#829fe4"/></linearGradient><radialGradient xlink:href="#a" id="b" cx="66.339" cy="64.964" fx="66.339" fy="64.964" r="39.911" gradientTransform="matrix(1.128 0 0 1.503 -10.799 118.336)" gradientUnits="userSpaceOnUse"/></defs><g transform="matrix(6.667 0 0 6.667 -126.667 -1040)"><rect ry=".892" y="156" x="19" height="120" width="90" fill="url(#b)" fill-rule="evenodd"/><path d="M36.831 177.19c-1.182-.658-1.122-2.626.092-2.977 1.131-.327 2.396 1.599 1.48 2.252-.151.108-.274.33-.274.493 0 .504.713.331 1.472-.358.549-.498.723-.939.723-1.829 0-3.025-2.697-4.251-6.705-3.047-.883.265-1.621.443-1.639.396-.018-.048-.244-.378-.502-.734-.459-.634-.449-.645.46-.522.511.069 1.835-.113 2.942-.404 3.37-.886 5.542-.008 6.27 2.535.875 3.057-1.763 5.618-4.319 4.195zm13.689-6.501c-.876-.855-1.024-2.112-.34-2.9.681-.786 1.469-.848 2.062-.163.51.589.568 2.067.102 2.605-.56.646.901.458 1.9-.245 2.654-1.866.243-5.768-3.589-5.81-1.451-.016-2.83.597-3.915 1.741-.546.575-.594.578-.767.059-.112-.338.033-.893.374-1.425.676-1.055.46-1.27-.794-.791-.785.3-1.046.65-1.536 2.062-.325.935-.918 2.174-1.319 2.753-.4.579-.728 1.273-.728 1.544 0 1.028-1.219.187-1.612-1.111-.374-1.236.112-2.734 1.209-3.729 1.415-1.284.442-1.083-2.535.524-3.535 1.908-4.628 2.273-6.805 2.273-2.325 0-3.674-.52-4.839-1.864-.777-.896-1.056-1.524-1.212-2.723-.534-4.108 2.204-6.621 5.425-4.978 1.522.777 1.919 1.939 1.098 3.215-1.501 2.329-4.368-.062-2.925-2.439.408-.672.396-.703-.27-.703-.384 0-1.101.416-1.594.924-.761.784-.896 1.139-.896 2.351 0 1.617.619 2.799 2.056 3.927 2.448 1.922 5.293 1.777 10.187-.519 4.213-1.976 5.844-2.35 9.574-2.194 3.23.135 5.312.967 6.68 2.668 1.366 1.699.697 4.299-1.336 5.191-1.145.502-3.021.379-3.655-.241zm7.273-.025c-.621-.792-.57-2.331.11-3.328.736-1.079 2.879-1.802 5.18-1.749l1.803.042-2.152.262c-2.327.283-3.504.893-4.4 2.28-.528.817-.54.951-.157 1.741.275.568.687.892 1.225.963.804.106.806.102.297-.548-.422-.537-.452-.742-.168-1.136.781-1.085 1.961-.158 1.383 1.088-.512 1.104-2.375 1.334-3.12.385zm-1.146-4.496c-.107-.199-.065-.511.093-.693.369-.425 1.229-.054 1.079.465-.153.529-.929.68-1.172.227zm-2.327-2.907c-3.42-1.301-3.441-1.305-6.998-1.193-6.592.207-8.874.101-10.176-.473-1.403-.618-2.248-2.015-1.78-2.942.156-.308.28-.374.285-.151.005.219.348.396.77.396.463 0 1.336.497 2.223 1.266 1.158 1.004 1.697 1.266 2.6 1.265l1.139-.001-.892-.627c-.839-.59-1.112-1.227-.72-1.679.218-.251 1.698.602 2.488 1.434.51.538.95.627 2.898.589 3.104-.061 5.733.409 8.776 1.567 2.096.798 3.161 1.002 6.051 1.156 1.929.103 3.573.309 3.652.458.08.149-1.437.264-3.37.256-3.364-.014-3.662-.071-6.945-1.319zm36.896 13.929c1.182-.658 1.122-2.626-.092-2.977-1.131-.327-2.396 1.599-1.48 2.252.151.108.274.33.274.493 0 .504-.713.331-1.472-.358-.549-.498-.723-.939-.723-1.829 0-3.025 2.697-4.251 6.705-3.047.883.265 1.621.443 1.639.396.018-.048.244-.378.502-.734.459-.634.449-.645-.46-.522-.511.069-1.835-.113-2.942-.404-3.37-.886-5.542-.008-6.27 2.535-.875 3.057 1.763 5.618 4.319 4.195zm-13.689-6.501c.876-.855 1.024-2.112.34-2.9-.681-.786-1.469-.848-2.062-.163-.51.589-.568 2.067-.102 2.605.56.646-.901.458-1.9-.245-2.654-1.866-.243-5.768 3.589-5.81 1.451-.016 2.83.597 3.915 1.741.546.575.594.578.767.059.112-.338-.033-.893-.374-1.425-.676-1.055-.46-1.27.794-.791.785.3 1.046.65 1.536 2.062.325.935.918 2.174 1.319 2.753.4.579.728 1.273.728 1.544 0 1.028 1.219.187 1.612-1.111.374-1.236-.112-2.734-1.209-3.729-1.415-1.284-.442-1.083 2.535.524 3.535 1.908 4.628 2.273 6.805 2.273 2.325 0 3.674-.52 4.839-1.864.777-.896 1.056-1.524 1.212-2.723.534-4.108-2.204-6.621-5.425-4.978-1.522.777-1.919 1.939-1.098 3.215 1.501 2.329 4.368-.062 2.925-2.439-.408-.672-.396-.703.27-.703.384 0 1.101.416 1.594.924.761.784.896 1.139.896 2.351 0 1.617-.619 2.799-2.056 3.927-2.448 1.922-5.293 1.777-10.187-.519-4.213-1.976-5.844-2.35-9.574-2.194-3.23.135-5.312.967-6.68 2.668-1.366 1.699-.697 4.299 1.336 5.191 1.145.502 3.021.379 3.655-.241zm-7.273-.025c.621-.792.57-2.331-.11-3.328-.736-1.079-2.879-1.802-5.18-1.749l-1.803.042 2.152.262c2.327.283 3.504.893 4.4 2.28.528.817.54.951.157 1.741-.275.568-.687.892-1.225.963-.804.106-.806.102-.297-.548.422-.537.452-.742.168-1.136-.781-1.085-1.961-.158-1.383 1.088.512 1.104 2.375 1.334 3.12.385zm1.146-4.496c.107-.199.065-.511-.093-.693-.369-.425-1.229-.054-1.079.465.153.529.929.68 1.172.227zm2.327-2.907c3.42-1.301 3.441-1.305 6.998-1.193 6.592.207 8.874.101 10.176-.473 1.403-.618 2.248-2.015 1.78-2.942-.156-.308-.28-.374-.285-.151-.005.219-.348.396-.77.396-.463 0-1.336.497-2.223 1.266-1.158 1.004-1.697 1.266-2.6 1.265l-1.139-.001.892-.627c.839-.59 1.112-1.227.72-1.679-.218-.251-1.698.602-2.488 1.434-.51.538-.95.627-2.898.589-3.104-.061-5.733.409-8.776 1.567-2.096.798-3.161 1.002-6.051 1.156-1.929.103-3.573.309-3.652.458-.08.149 1.437.264 3.37.256 3.364-.014 3.662-.071 6.945-1.319zm-36.896 91.549c-1.182.658-1.122 2.626.092 2.977 1.131.327 2.396-1.599 1.48-2.252-.151-.108-.274-.33-.274-.493 0-.504.713-.331 1.472.358.549.498.723.939.723 1.829 0 3.025-2.697 4.251-6.705 3.047-.883-.265-1.621-.443-1.639-.396-.018.048-.244.378-.502.734-.459.634-.449.645.46.522.511-.069 1.835.113 2.942.404 3.37.886 5.542.008 6.27-2.535.875-3.057-1.763-5.618-4.319-4.195zm13.689 6.501c-.876.855-1.024 2.112-.34 2.9.681.786 1.469.848 2.062.163.51-.589.568-2.067.102-2.605-.56-.646.901-.458 1.9.245 2.654 1.866.243 5.768-3.589 5.81-1.451.016-2.83-.597-3.915-1.741-.546-.575-.594-.578-.767-.059-.112.338.033.893.374 1.425.676 1.055.46 1.27-.794.791-.785-.3-1.046-.65-1.536-2.062-.325-.935-.918-2.174-1.319-2.753-.4-.579-.728-1.273-.728-1.544 0-1.028-1.219-.187-1.612 1.111-.374 1.236.112 2.734 1.209 3.729 1.415 1.284.442 1.083-2.535-.524-3.535-1.908-4.628-2.273-6.805-2.273-2.325 0-3.674.52-4.839 1.864-.777.896-1.056 1.524-1.212 2.723-.534 4.108 2.204 6.621 5.425 4.978 1.522-.777 1.919-1.939 1.098-3.215-1.501-2.329-4.368.062-2.925 2.439.408.672.396.703-.27.703-.384 0-1.101-.416-1.594-.924-.761-.784-.896-1.139-.896-2.351 0-1.617.619-2.799 2.056-3.927 2.448-1.922 5.293-1.777 10.187.519 4.213 1.976 5.844 2.35 9.574 2.194 3.23-.135 5.312-.967 6.68-2.668 1.366-1.699.697-4.299-1.336-5.191-1.145-.502-3.021-.379-3.655.241zm7.273.025c-.621.792-.57 2.331.11 3.328.736 1.079 2.879 1.802 5.18 1.749l1.803-.042-2.152-.262c-2.327-.283-3.504-.893-4.4-2.28-.528-.817-.54-.951-.157-1.741.275-.568.687-.892 1.225-.963.804-.106.806-.102.297.548-.422.537-.452.742-.168 1.136.781 1.085 1.961.157 1.383-1.088-.512-1.104-2.375-1.334-3.12-.385zm-1.146 4.496c-.107.199-.065.511.093.693.369.425 1.229.054 1.079-.465-.153-.529-.929-.68-1.172-.227zm-2.327 2.907c-3.42 1.301-3.441 1.305-6.998 1.193-6.592-.207-8.874-.101-10.176.473-1.403.618-2.248 2.015-1.78 2.942.156.308.28.374.285.151.005-.219.348-.396.77-.396.463 0 1.336-.497 2.223-1.266 1.158-1.004 1.697-1.266 2.6-1.265l1.139.001-.892.627c-.839.59-1.112 1.227-.72 1.679.218.251 1.698-.602 2.488-1.434.51-.538.95-.627 2.898-.589 3.104.061 5.733-.409 8.776-1.567 2.096-.798 3.161-1.002 6.051-1.156 1.929-.103 3.573-.309 3.652-.458.08-.149-1.437-.264-3.37-.256-3.364.014-3.662.071-6.945 1.319zm36.896-13.929c1.182.658 1.122 2.626-.092 2.977-1.131.327-2.396-1.599-1.48-2.252.151-.108.274-.33.274-.493 0-.504-.713-.331-1.472.358-.549.498-.723.939-.723 1.829 0 3.025 2.697 4.251 6.705 3.047.883-.265 1.621-.443 1.639-.396.018.048.244.378.502.734.459.634.449.645-.46.522-.511-.069-1.835.113-2.942.404-3.37.886-5.542.008-6.27-2.535-.875-3.057 1.763-5.618 4.319-4.195zm-13.689 6.501c.876.855 1.024 2.112.34 2.9-.681.786-1.469.848-2.062.163-.51-.589-.568-2.067-.102-2.605.56-.646-.901-.458-1.9.245-2.654 1.866-.243 5.768 3.589 5.81 1.451.016 2.83-.597 3.915-1.741.546-.575.594-.578.767-.059.112.338-.033.893-.374 1.425-.676 1.055-.46 1.27.794.791.785-.3 1.046-.65 1.536-2.062.325-.935.918-2.174 1.319-2.753.4-.579.728-1.273.728-1.544 0-1.028 1.219-.187 1.612 1.111.374 1.236-.112 2.734-1.209 3.729-1.415 1.284-.442 1.083 2.535-.524 3.535-1.908 4.628-2.273 6.805-2.273 2.325 0 3.674.52 4.839 1.864.777.896 1.056 1.524 1.212 2.723.534 4.108-2.204 6.621-5.425 4.978-1.522-.777-1.919-1.939-1.098-3.215 1.501-2.329 4.368.062 2.925 2.439-.408.672-.396.703.27.703.384 0 1.101-.416 1.594-.924.761-.784.896-1.139.896-2.351 0-1.617-.619-2.799-2.056-3.927-2.448-1.922-5.293-1.777-10.187.519-4.213 1.976-5.844 2.35-9.574 2.194-3.23-.135-5.312-.967-6.68-2.668-1.366-1.699-.697-4.299 1.336-5.191 1.145-.502 3.021-.379 3.655.241zm-7.273.025c.621.792.57 2.331-.11 3.328-.736 1.079-2.879 1.802-5.18 1.749l-1.803-.042 2.152-.262c2.327-.283 3.504-.893 4.4-2.28.528-.817.54-.951.157-1.741-.275-.568-.687-.892-1.225-.963-.804-.106-.806-.102-.297.548.422.537.452.742.168 1.136-.781 1.085-1.961.157-1.383-1.088.512-1.104 2.375-1.334 3.12-.385zm1.146 4.496c.107.199.065.511-.093.693-.369.425-1.229.054-1.079-.465.153-.529.929-.68 1.172-.227zm2.327 2.907c3.42 1.301 3.441 1.305 6.998 1.193 6.592-.207 8.874-.101 10.176.473 1.403.618 2.248 2.015 1.78 2.942-.156.308-.28.374-.285.151-.005-.219-.348-.396-.77-.396-.463 0-1.336-.497-2.223-1.266-1.158-1.004-1.697-1.266-2.6-1.265l-1.139.001.892.627c.839.59 1.112 1.227.72 1.679-.218.251-1.698-.602-2.488-1.434-.51-.538-.95-.627-2.898-.589-3.104.061-5.733-.409-8.776-1.567-2.096-.798-3.161-1.002-6.051-1.156-1.929-.103-3.573-.309-3.652-.458-.08-.149 1.437-.264 3.37-.256 3.364.014 3.662.071 6.945 1.319zm-37.089-14.063c-.571 1.364-2.277 1.294-2.581-.106-.284-1.304 1.387-2.764 1.953-1.707.093.174.286.317.428.317.437 0 .287-.822-.311-1.698-.432-.633-.814-.834-1.585-.834-2.623 0-3.685 3.111-2.642 7.733.23 1.019.384 1.869.343 1.89-.041.021-.328.281-.637.579-.549.529-.559.518-.453-.53.06-.589-.098-2.116-.35-3.393-.768-3.887-.007-6.392 2.198-7.232 2.65-1.009 4.871 2.033 3.637 4.982zm-5.637-15.789c-.741 1.01-1.831 1.181-2.515.393-.681-.786-.735-1.694-.141-2.379.51-.589 1.792-.655 2.258-.118.56.646.397-1.04-.212-2.191-1.618-3.061-5.001-.28-5.037 4.139-.014 1.673.518 3.264 1.509 4.516.498.629.501.685.051.884-.293.13-.774-.038-1.235-.431-.914-.78-1.101-.53-.686.915.26.905.564 1.206 1.788 1.772.811.375 1.885 1.059 2.387 1.521.502.462 1.104.839 1.338.839.891 0 .162 1.406-.963 1.859-1.072.431-2.371-.129-3.233-1.394-1.113-1.632-.939-.51.454 2.923 1.654 4.078 1.97 5.338 1.97 7.849 0 2.682-.45 4.238-1.616 5.582-.777.896-1.321 1.219-2.361 1.398-3.562.616-5.74-2.542-4.316-6.257.673-1.756 1.681-2.214 2.787-1.266 2.02 1.731-.053 5.038-2.114 3.373-.582-.47-.61-.456-.61.312 0 .442.36 1.269.801 1.838.68.878.987 1.034 2.038 1.034 1.402 0 2.426-.713 3.405-2.372 1.666-2.824 1.541-6.105-.45-11.75-1.713-4.859-2.037-6.74-1.902-11.042.117-3.726.838-6.127 2.313-7.704 1.473-1.576 3.727-.804 4.5 1.541.435 1.321.328 3.484-.209 4.216zm-.022-8.388c-.686.716-2.021.658-2.885-.127-.935-.849-1.563-3.32-1.516-5.975l.037-8.735.227 9.137c.067 2.698.775 4.042 1.976 5.075.708.609.825.623 1.509.181.493-.317.773-.793.835-1.413.092-.927.088-.93-.475-.342-.466.486-.643.521-.985.194-.941-.901-.137-2.262.943-1.595.957.591 1.157 2.74.334 3.599zm-3.898 1.321c-.172.123-.443.075-.6-.107-.369-.425-.047-1.417.404-1.244.459.176.589 1.072.197 1.352zm-2.52 2.684c-1.128 3.945-1.131 3.969-1.034 8.071.179 7.603.087 10.236-.41 11.738-.536 1.619-1.747 2.593-2.551 2.053-.267-.179-.324-.323-.131-.328.19-.005.343-.402.343-.889 0-.534.431-1.541 1.098-2.564.87-1.336 1.097-1.957 1.097-2.998l-.001-1.313-.544 1.029c-.511.967-1.064 1.282-1.456.83-.218-.251.522-1.959 1.243-2.869.466-.588.544-1.096.51-3.342-.053-3.58.354-6.612 1.359-10.122.692-2.418.868-3.646 1.002-6.98.089-2.225.268-10.954.397-11.046.129-.092.229 8.49.222 10.72-.012 3.88-.061 4.224-1.144 8.011zm12.077-57.092c-.571-1.364-2.277-1.294-2.581.106-.284 1.304 1.387 2.764 1.953 1.707.093-.174.286-.317.428-.317.437 0 .287.822-.311 1.698-.432.633-.814.834-1.585.834-2.623 0-3.685-3.111-2.642-7.733.23-1.019.384-1.869.343-1.89-.041-.021-.328-.281-.637-.579-.549-.529-.559-.518-.453.53.06.589-.098 2.116-.35 3.393-.768 3.887-.007 6.392 2.198 7.232 2.65 1.009 4.871-2.033 3.637-4.982zm-5.637 15.789c-.741-1.01-1.831-1.181-2.515-.393-.681.786-.735 1.694-.141 2.379.51.589 1.792.655 2.258.118.56-.646.397 1.04-.212 2.191-1.618 3.061-5.001.28-5.037-4.139-.014-1.673.518-3.264 1.509-4.516.498-.629.501-.685.051-.884-.293-.13-.774.038-1.235.431-.914.78-1.101.53-.686-.915.26-.905.564-1.206 1.788-1.772.811-.375 1.885-1.059 2.387-1.521.502-.462 1.104-.839 1.338-.839.891 0 .162-1.406-.963-1.859-1.072-.431-2.371.129-3.233 1.394-1.113 1.632-.939.51.454-2.923 1.654-4.078 1.97-5.338 1.97-7.848 0-2.682-.45-4.238-1.616-5.582-.777-.896-1.321-1.219-2.361-1.398-3.562-.616-5.74 2.542-4.316 6.257.673 1.756 1.681 2.214 2.787 1.266 2.02-1.731-.053-5.038-2.114-3.373-.582.47-.61.456-.61-.312 0-.442.36-1.269.801-1.838.68-.878.987-1.034 2.038-1.034 1.402 0 2.426.713 3.405 2.372 1.666 2.824 1.541 6.105-.45 11.75-1.713 4.859-2.037 6.74-1.902 11.042.117 3.726.838 6.127 2.313 7.704 1.473 1.576 3.727.804 4.5-1.541.435-1.321.328-3.484-.209-4.216zm-.022 8.388c-.686-.716-2.021-.658-2.885.127-.935.849-1.563 3.32-1.516 5.975l.037 8.025.227-8.427c.073-2.698.775-4.042 1.976-5.075.708-.609.825-.623 1.509-.181.493.317.773.793.835 1.413.092.927.088.93-.475.342-.466-.486-.643-.521-.985-.194-.941.901-.137 2.262.943 1.595.957-.591 1.157-2.74.334-3.599zm-3.898-1.321c-.172-.123-.443-.075-.6.107-.369.425-.047 1.417.404 1.244.459-.176.589-1.072.197-1.352zm-2.52-2.684c-1.128-3.945-1.131-3.969-1.034-8.071.179-7.603.087-10.236-.41-11.738-.536-1.619-1.747-2.593-2.551-2.053-.267.179-.324.323-.131.328.19.005.343.402.343.889 0 .534.431 1.541 1.098 2.564.87 1.336 1.097 1.957 1.097 2.998l-.001 1.313-.544-1.029c-.511-.967-1.064-1.282-1.456-.83-.218.251.522 1.959 1.243 2.869.466.588.544 1.096.51 3.342-.053 3.58.354 6.612 1.359 10.122.692 2.418.868 3.646 1.002 6.98.089 2.225.268 10.244.397 10.336.129.092.229-7.78.222-10.01-.012-3.88-.061-4.224-1.144-8.011zm66.791 57.105c.571 1.364 2.277 1.294 2.582-.106.284-1.304-1.387-2.764-1.954-1.707-.093.174-.286.317-.428.317-.437 0-.287-.822.311-1.698.432-.633.814-.834 1.586-.834 2.624 0 3.687 3.111 2.642 7.734-.23 1.019-.385 1.87-.343 1.89.041.021.328.281.637.579.55.53.559.518.453-.53-.06-.589.098-2.117.351-3.394.768-3.888.007-6.393-2.199-7.233-2.651-1.009-4.873 2.033-3.638 4.983zm5.639-15.791c.742 1.01 1.832 1.181 2.516.393.681-.786.735-1.694.141-2.379-.511-.589-1.793-.655-2.259-.118-.56.646-.397-1.04.212-2.192 1.619-3.061 5.003-.28 5.039 4.14.014 1.673-.518 3.264-1.51 4.517-.498.629-.502.685-.052.884.293.13.775-.038 1.236-.431.915-.78 1.102-.53.686.915-.26.905-.564 1.206-1.789 1.772-.811.375-1.886 1.059-2.387 1.521-.502.462-1.104.839-1.339.839-.891 0-.162 1.406.964 1.859 1.072.431 2.372-.129 3.234-1.394 1.113-1.632.939-.51-.454 2.924-1.655 4.078-1.971 5.339-1.971 7.849 0 2.682.451 4.238 1.616 5.583.778.897 1.322 1.219 2.362 1.399 3.563.616 5.742-2.543 4.317-6.258-.674-1.756-1.682-2.214-2.788-1.266-2.02 1.731.053 5.039 2.115 3.374.583-.471.61-.456.61.312 0 .442-.36 1.27-.801 1.838-.68.878-.988 1.034-2.039 1.034-1.403 0-2.427-.714-3.406-2.372-1.667-2.824-1.541-6.106.45-11.751 1.714-4.859 2.038-6.741 1.902-11.044-.117-3.726-.839-6.128-2.314-7.705-1.474-1.576-3.729-.804-4.502 1.541-.436 1.321-.329 3.484.209 4.217zm.022-8.39c.687.717 2.021.658 2.886-.127.936-.849 1.563-3.321 1.517-5.976l-.037-8.736-.227 9.138c-.067 2.698-.775 4.043-1.977 5.076-.708.609-.825.623-1.51.181-.493-.318-.774-.793-.835-1.414-.092-.927-.088-.93.475-.342.466.486.644.521.985.194.941-.901.137-2.262-.943-1.595-.958.591-1.157 2.74-.334 3.599zm3.899 1.322c.173.123.443.075.601-.107.369-.425.047-1.417-.404-1.244-.459.176-.59 1.072-.197 1.352zm2.521 2.685c1.128 3.945 1.131 3.97 1.035 8.072-.179 7.604-.087 10.237.41 11.739.536 1.619 1.747 2.593 2.551 2.053.267-.179.324-.323.131-.328-.19-.005-.343-.402-.343-.889 0-.534-.431-1.541-1.098-2.564-.871-1.336-1.098-1.957-1.097-2.999l.001-1.314.544 1.029c.512.968 1.064 1.283 1.456.83.218-.251-.522-1.959-1.243-2.87-.466-.588-.544-1.096-.511-3.343.053-3.58-.354-6.613-1.359-10.124-.692-2.418-.869-3.647-1.002-6.981-.089-2.225-.268-10.955-.397-11.047-.129-.092-.229 8.491-.222 10.721.012 3.881.061 4.225 1.144 8.012zm-12.082-57.1c.571-1.364 2.277-1.294 2.582.106.284 1.304-1.387 2.764-1.954 1.707-.093-.174-.286-.317-.428-.317-.437 0-.287.822.311 1.698.432.633.814.834 1.586.834 2.624 0 3.687-3.111 2.642-7.734-.23-1.019-.385-1.87-.343-1.89.041-.021.328-.281.637-.579.55-.53.559-.518.453.53-.06.589.098 2.117.351 3.394.768 3.888.007 6.393-2.199 7.233-2.651 1.009-4.873-2.033-3.638-4.983zm5.639 15.791c.742-1.01 1.832-1.181 2.516-.393.681.786.735 1.694.141 2.379-.511.589-1.793.655-2.259.118-.56-.646-.397 1.04.212 2.192 1.619 3.061 5.003.28 5.039-4.14.014-1.673-.518-3.264-1.51-4.517-.498-.629-.502-.685-.052-.884.293-.13.775.038 1.236.431.915.78 1.102.53.686-.915-.26-.905-.564-1.206-1.789-1.772-.811-.375-1.886-1.059-2.387-1.521-.502-.462-1.104-.839-1.339-.839-.891 0-.162-1.406.964-1.859 1.072-.431 2.372.129 3.234 1.394 1.113 1.632.939.51-.454-2.924-1.655-4.078-1.971-5.339-1.971-7.849 0-2.682.451-4.238 1.616-5.583.778-.897 1.322-1.219 2.362-1.399 3.563-.616 5.742 2.543 4.317 6.258-.674 1.756-1.682 2.214-2.788 1.266-2.02-1.731.053-5.039 2.115-3.374.583.471.61.456.61-.312 0-.442-.36-1.27-.801-1.838-.68-.878-.988-1.034-2.039-1.034-1.403 0-2.427.714-3.406 2.372-1.667 2.824-1.541 6.106.45 11.751 1.714 4.859 2.038 6.741 1.902 11.044-.117 3.726-.839 6.128-2.314 7.705-1.474 1.576-3.729.804-4.502-1.541-.436-1.321-.329-3.484.209-4.217zm.022 8.39c.687-.717 2.021-.658 2.886.127.936.849 1.563 3.321 1.517 5.976l-.037 8.026-.227-8.428c-.073-2.698-.775-4.043-1.977-5.076-.708-.609-.825-.623-1.51-.181-.493.318-.774.793-.835 1.414-.092.927-.088.93.475.342.466-.486.644-.521.985-.194.941.901.137 2.262-.943 1.595-.958-.591-1.157-2.74-.334-3.599zm3.899-1.322c.173-.123.443-.075.601.107.369.425.047 1.417-.404 1.244-.459-.176-.59-1.072-.197-1.352zm2.521-2.685c1.128-3.945 1.131-3.97 1.035-8.072-.179-7.604-.087-10.237.41-11.739.536-1.619 1.747-2.593 2.551-2.053.267.179.324.323.131.328-.19.005-.343.402-.343.889 0 .534-.431 1.541-1.098 2.564-.871 1.336-1.098 1.957-1.097 2.999l.001 1.314.544-1.029c.512-.968 1.064-1.283 1.456-.83.218.251-.522 1.959-1.243 2.87-.466.588-.544 1.096-.511 3.343.053 3.58-.354 6.613-1.359 10.124-.692 2.418-.869 3.647-1.002 6.981-.089 2.225-.268 10.245-.397 10.337-.129.092-.229-7.781-.222-10.011.012-3.881.061-4.225 1.144-8.012z" fill="#00294d"/></g></svg>