<svg xmlns="http://www.w3.org/2000/svg" xmlns:svg="http://www.w3.org/2000/svg" xmlns:xlink="http://www.w3.org/1999/xlink" id="svg2" width="1200" height="1600" version="1.1" viewBox="0 0 1200 1600"><defs id="defs4"><linearGradient id="linearGradient4136"><stop style="stop-color:#d3dcf2;stop-opacity:1" id="stop4138" offset="0"/><stop style="stop-color:#829fe4;stop-opacity:1" id="stop4140" offset="1"/></linearGradient><radialGradient id="radialGradient4142" cx="66.339" cy="64.964" r="39.911" fx="66.339" fy="64.964" gradientTransform="matrix(1.1275168,0,0,1.5033557,-10.798659,118.33557)" gradientUnits="userSpaceOnUse" xlink:href="#linearGradient4136"/></defs><metadata id="metadata7"/><g id="g4150" transform="matrix(13.333333,0,0,13.333333,-253.33334,-2080)"><rect id="rect4134" width="90" height="120" x="19" y="156" ry=".892" style="fill:url(#radialGradient4142);fill-opacity:1;fill-rule:evenodd;stroke:none;stroke-width:0;stroke-linecap:round;stroke-linejoin:round;stroke-miterlimit:4;stroke-dasharray:none;stroke-opacity:1"/><g style="fill:#00294d;fill-opacity:1" id="g4270" transform="matrix(0.86168,0,0,0.99387587,8.8757109,152.74714)"><g style="fill:#00294d;fill-opacity:1" id="g4262"><path style="fill:#00294d;fill-opacity:1" id="path6" d="m 32.442578,24.593566 c -1.372036,-0.662197 -1.301533,-2.642019 0.106666,-2.995456 1.312055,-0.329304 2.781071,1.609077 1.717573,2.266357 -0.175163,0.108261 -0.318479,0.331686 -0.318479,0.496514 0,0.507438 0.827224,0.332963 1.708682,-0.36039 0.636771,-0.500884 0.839146,-0.944636 0.839146,-1.84001 0,-3.043977 -3.129847,-4.277043 -7.781135,-3.065534 -1.025126,0.267009 -1.880829,0.446153 -1.901557,0.398097 -0.02075,-0.04806 -0.282685,-0.380559 -0.582115,-0.738892 -0.532718,-0.637511 -0.521251,-0.64881 0.533662,-0.525654 0.592951,0.06922 2.129307,-0.113753 3.414127,-0.406628 3.911161,-0.891529 6.43183,-0.0079 7.276258,2.550758 1.015078,3.075717 -2.045683,5.652899 -5.012834,4.220838 z m 15.886161,-6.541333 c -1.016596,-0.860211 -1.187819,-2.125449 -0.394942,-2.918327 0.790578,-0.790578 1.704309,-0.85322 2.393439,-0.16409 0.592262,0.592262 0.659393,2.079519 0.118292,2.620623 -0.649775,0.649773 1.045998,0.460504 2.204879,-0.246094 3.079557,-1.877682 0.282111,-5.804022 -4.164967,-5.845723 -1.683458,-0.0158 -3.283826,0.601035 -4.543937,1.751343 -0.633247,0.578067 -0.689359,0.581835 -0.889702,0.05975 -0.130489,-0.340052 0.03867,-0.898736 0.434022,-1.433483 0.78457,-1.061187 0.533656,-1.278052 -0.92097,-0.796 -0.910843,0.301845 -1.213525,0.654085 -1.782961,2.074872 -0.377228,0.941218 -1.065891,2.187571 -1.530359,2.76967 -0.46447,0.582103 -0.844491,1.280994 -0.844491,1.553099 0,1.034081 -1.414894,0.188202 -1.870283,-1.11813 -0.433537,-1.243644 0.130003,-2.751238 1.402593,-3.75226 1.642025,-1.291615 0.513507,-1.089447 -2.941445,0.526944 -4.102928,1.91955 -5.371126,2.286798 -7.896853,2.286798 -2.698033,0 -4.2638,-0.522806 -5.616249,-1.875254 -0.902005,-0.902006 -1.226068,-1.533084 -1.40707,-2.740124 -0.619853,-4.1334628 2.558105,-6.6616574 6.295578,-5.0083933 1.766674,0.7814836 2.227324,1.9511712 1.273776,3.2343854 -1.741605,2.3437279 -5.069506,-0.061883 -3.39428,-2.453596 0.473354,-0.6758074 0.459173,-0.7078206 -0.313457,-0.7078206 -0.44508,0 -1.277265,0.4181904 -1.849312,0.9293115 -0.883255,0.7891897 -1.040079,1.1458221 -1.040079,2.3652353 0,1.6272437 0.717887,2.8159777 2.386358,3.9515157 2.84125,1.933721 6.142388,1.787925 11.822203,-0.522133 4.888764,-1.988328 6.782,-2.364409 11.110481,-2.207052 3.74864,0.136277 6.165118,0.973069 7.75194,2.684384 1.585253,1.709625 0.808741,4.325801 -1.55014,5.222644 -1.329206,0.505365 -3.5055,0.381158 -4.242064,-0.242102 z m 8.440178,-0.02506 c -0.720866,-0.79655 -0.661964,-2.344992 0.127376,-3.348477 0.853949,-1.08562 3.340951,-1.813445 6.011779,-1.759358 L 65,12.961695 62.503035,13.225289 c -2.700461,0.285072 -4.066963,0.898852 -5.106693,2.293724 -0.612415,0.821597 -0.626517,0.956967 -0.182482,1.751631 0.319421,0.571654 0.797557,0.897539 1.422052,0.969236 0.932671,0.107083 0.935654,0.102297 0.3441,-0.551363 -0.489189,-0.540546 -0.524388,-0.746549 -0.195304,-1.143071 0.906278,-1.091998 2.27552,-0.158471 1.605055,1.094303 -0.594682,1.11118 -2.75652,1.342489 -3.620846,0.387419 z m -1.329527,-4.52336 c -0.123684,-0.200126 -0.07503,-0.513722 0.108135,-0.696882 0.428003,-0.428001 1.425872,-0.05468 1.251741,0.468306 -0.177266,0.532395 -1.078487,0.683876 -1.359878,0.228576 z M 52.738574,10.579257 C 48.769695,9.2702784 48.745007,9.2666288 44.617378,9.3787842 36.96723,9.5866518 34.318349,9.4799205 32.807503,8.9029229 31.178804,8.2809184 30.198367,6.8758893 30.742023,5.9429605 30.922545,5.6331792 31.0669,5.5666949 31.072352,5.7908229 c 0.0054,0.2205801 0.404047,0.3980981 0.894072,0.3980981 0.536895,0 1.550547,0.5005442 2.579806,1.2739145 1.344452,1.0102018 1.968997,1.2736667 3.016976,1.2727239 l 1.321554,-0.00126 -1.035054,-0.6310845 c -0.973352,-0.5934656 -1.290337,-1.234443 -0.835438,-1.6893423 0.252871,-0.2528719 1.970816,0.6055922 2.886842,1.4425687 0.591947,0.5408628 1.102386,0.6307536 3.362973,0.5922495 3.601941,-0.061358 6.653183,0.4111403 10.184641,1.5771322 2.432797,0.803244 3.668653,1.007891 7.022688,1.162895 2.238684,0.103461 4.146067,0.310654 4.238637,0.460427 0.09256,0.149778 -1.667427,0.265726 -3.911095,0.25767 -3.904362,-0.01401 -4.250213,-0.07099 -8.06038,-1.327627 z"/><path style="fill:#00294d;fill-opacity:1" id="path4150" d="m 95.557419,24.593566 c 1.372036,-0.662197 1.301533,-2.642019 -0.106666,-2.995456 -1.312055,-0.329304 -2.781071,1.609077 -1.717573,2.266357 0.175163,0.108261 0.318479,0.331686 0.318479,0.496514 0,0.507438 -0.827224,0.332963 -1.708682,-0.36039 -0.636771,-0.500884 -0.839146,-0.944636 -0.839146,-1.84001 0,-3.043977 3.129847,-4.277043 7.78113,-3.065534 1.025139,0.267009 1.880839,0.446153 1.901569,0.398097 0.0207,-0.04806 0.28268,-0.380559 0.58211,-0.738892 0.53272,-0.637511 0.52125,-0.64881 -0.53366,-0.525654 -0.59295,0.06922 -2.129309,-0.113753 -3.414131,-0.406628 -3.911161,-0.891529 -6.43183,-0.0079 -7.276258,2.550758 -1.015078,3.075717 2.045683,5.652899 5.012834,4.220838 z M 79.671258,18.052233 c 1.016596,-0.860211 1.187819,-2.125449 0.394942,-2.918327 -0.790578,-0.790578 -1.704309,-0.85322 -2.393439,-0.16409 -0.592262,0.592262 -0.659393,2.079519 -0.118292,2.620623 0.649775,0.649773 -1.045998,0.460504 -2.204879,-0.246094 -3.079557,-1.877682 -0.282111,-5.804023 4.164967,-5.845724 1.683458,-0.0158 3.283826,0.601036 4.543937,1.751344 0.633247,0.578067 0.689359,0.581835 0.889702,0.05975 0.130489,-0.340052 -0.03867,-0.898736 -0.434022,-1.433484 -0.78457,-1.061186 -0.533656,-1.278051 0.92097,-0.795999 0.910843,0.301844 1.213525,0.654084 1.782961,2.074872 0.377228,0.941218 1.065891,2.187571 1.530359,2.76967 0.46447,0.582103 0.844491,1.280994 0.844491,1.553099 0,1.034081 1.414894,0.188202 1.870283,-1.11813 0.433537,-1.243644 -0.130003,-2.751238 -1.402593,-3.75226 -1.642025,-1.291616 -0.513507,-1.089448 2.941445,0.526944 4.102928,1.91955 5.371126,2.286798 7.89686,2.286798 2.69803,0 4.2638,-0.522806 5.61625,-1.875254 0.902,-0.902006 1.22606,-1.533084 1.40707,-2.740124 0.61985,-4.1334632 -2.55811,-6.6616578 -6.29558,-5.0083937 -1.76668,0.7814836 -2.227329,1.9511712 -1.27378,3.2343854 1.74161,2.3437273 5.06951,-0.061883 3.39428,-2.453596 -0.47335,-0.6758074 -0.45917,-0.7078206 0.31346,-0.7078206 0.44508,0 1.27726,0.4181904 1.84931,0.9293115 0.88326,0.7891897 1.04008,1.1458221 1.04008,2.3652353 0,1.6272441 -0.71789,2.8159771 -2.38636,3.9515161 -2.84125,1.933721 -6.14239,1.787925 -11.822205,-0.522133 -4.888764,-1.988328 -6.782,-2.364409 -11.110481,-2.207053 -3.74864,0.136277 -6.165118,0.973069 -7.75194,2.684385 -1.585253,1.709625 -0.808741,4.325801 1.55014,5.222644 1.329206,0.505365 3.5055,0.381158 4.242064,-0.242102 z m -8.440178,-0.02506 c 0.720866,-0.79655 0.661964,-2.344992 -0.12738,-3.348477 -0.85394,-1.08562 -3.34095,-1.813445 -6.01177,-1.759358 L 63,12.961698 l 2.49696,0.263594 c 2.70046,0.285072 4.06697,0.898852 5.1067,2.293724 0.61241,0.821597 0.626512,0.956967 0.18248,1.751631 -0.31942,0.571654 -0.79756,0.897539 -1.42205,0.969236 -0.93268,0.107083 -0.93566,0.102297 -0.3441,-0.551363 0.48918,-0.540546 0.52438,-0.746549 0.1953,-1.143071 -0.90628,-1.091998 -2.27552,-0.158471 -1.60506,1.094303 0.59469,1.11118 2.75652,1.342489 3.62085,0.387419 z m 1.329527,-4.52336 c 0.123684,-0.200126 0.07503,-0.513722 -0.108135,-0.696882 -0.428003,-0.428001 -1.425872,-0.05468 -1.251741,0.468306 0.177266,0.532395 1.078487,0.683876 1.359878,0.228576 z m 2.700816,-2.924556 C 79.230302,9.270278 79.25499,9.2666284 83.382619,9.3787838 91.032767,9.5866514 93.681648,9.4799201 95.192494,8.9029225 96.821193,8.280918 97.80163,6.8758889 97.257974,5.9429601 97.077452,5.6331788 96.933097,5.5666945 96.927645,5.7908225 c -0.0054,0.2205801 -0.404047,0.3980981 -0.894072,0.3980981 -0.536895,0 -1.550547,0.5005442 -2.579806,1.2739145 -1.344452,1.0102018 -1.968997,1.2736667 -3.016976,1.2727239 l -1.321554,-0.00126 1.035054,-0.6310845 c 0.973352,-0.5934656 1.290337,-1.234443 0.835438,-1.6893423 -0.252871,-0.2528719 -1.970816,0.6055922 -2.886842,1.4425687 -0.591947,0.5408628 -1.102386,0.6307536 -3.362973,0.5922495 -3.601941,-0.061358 -6.653183,0.4111403 -10.184641,1.5771316 -2.432797,0.803244 -3.668653,1.007892 -7.022683,1.162895 -2.23869,0.103461 -4.14607,0.310654 -4.23864,0.460427 -0.0926,0.149778 1.66743,0.265726 3.91109,0.25767 3.90437,-0.01401 4.250216,-0.07099 8.060383,-1.327626 z"/></g><g style="fill:#00294d;fill-opacity:1" id="g4266"><path style="fill:#00294d;fill-opacity:1" id="path4152" d="m 32.442578,102.69161 c -1.372036,0.66219 -1.301533,2.64202 0.106666,2.99545 1.312055,0.32931 2.781071,-1.60907 1.717573,-2.26635 -0.175163,-0.10827 -0.318479,-0.33169 -0.318479,-0.49652 0,-0.50744 0.827224,-0.33296 1.708682,0.36039 0.636771,0.50089 0.839146,0.94464 0.839146,1.84001 0,3.04398 -3.129847,4.27704 -7.781135,3.06554 -1.025126,-0.26701 -1.880829,-0.44616 -1.901557,-0.3981 -0.02075,0.0481 -0.282685,0.38056 -0.582115,0.73889 -0.532718,0.63751 -0.521251,0.64881 0.533662,0.52565 0.592951,-0.0692 2.129307,0.11376 3.414127,0.40663 3.911161,0.89153 6.43183,0.008 7.276258,-2.55076 1.015078,-3.07571 -2.045683,-5.65289 -5.012834,-4.22083 z m 15.886161,6.54133 c -1.016596,0.86021 -1.187819,2.12545 -0.394942,2.91833 0.790578,0.79057 1.704309,0.85322 2.393439,0.16409 0.592262,-0.59227 0.659393,-2.07952 0.118292,-2.62063 -0.649775,-0.64977 1.045998,-0.4605 2.204879,0.2461 3.079557,1.87768 0.282111,5.80402 -4.164967,5.84572 -1.683458,0.0158 -3.283826,-0.60103 -4.543937,-1.75134 -0.633247,-0.57807 -0.689359,-0.58184 -0.889702,-0.0597 -0.130489,0.34005 0.03867,0.89873 0.434022,1.43348 0.78457,1.06119 0.533656,1.27805 -0.92097,0.796 -0.910843,-0.30184 -1.213525,-0.65408 -1.782961,-2.07487 -0.377228,-0.94122 -1.065891,-2.18757 -1.530359,-2.76967 -0.46447,-0.5821 -0.844491,-1.281 -0.844491,-1.5531 0,-1.03408 -1.414894,-0.1882 -1.870283,1.11813 -0.433537,1.24364 0.130003,2.75124 1.402593,3.75226 1.642025,1.29161 0.513507,1.08945 -2.941445,-0.52694 -4.102928,-1.91955 -5.371126,-2.2868 -7.896853,-2.2868 -2.698033,0 -4.2638,0.5228 -5.616249,1.87525 -0.902005,0.90201 -1.226068,1.53309 -1.40707,2.74013 -0.619853,4.13346 2.558105,6.66165 6.295578,5.00839 1.766674,-0.78148 2.227324,-1.95117 1.273776,-3.23439 -1.741605,-2.34372 -5.069506,0.0619 -3.39428,2.4536 0.473354,0.67581 0.459173,0.70782 -0.313457,0.70782 -0.44508,0 -1.277265,-0.41819 -1.849312,-0.92931 -0.883255,-0.78919 -1.040079,-1.14582 -1.040079,-2.36524 0,-1.62724 0.717887,-2.81597 2.386358,-3.95151 2.84125,-1.93372 6.142388,-1.78793 11.822203,0.52213 4.888764,1.98833 6.782,2.36441 11.110481,2.20705 3.74864,-0.13627 6.165118,-0.97307 7.75194,-2.68438 1.585253,-1.70963 0.808741,-4.3258 -1.55014,-5.22265 -1.329206,-0.50536 -3.5055,-0.38115 -4.242064,0.24211 z m 8.440178,0.0251 c -0.720866,0.79655 -0.661964,2.34499 0.127376,3.34848 0.853949,1.08562 3.340951,1.81344 6.011779,1.75935 L 65,114.32357 l -2.496965,-0.2636 c -2.700461,-0.28507 -4.066963,-0.89885 -5.106693,-2.29372 -0.612415,-0.8216 -0.626517,-0.95697 -0.182482,-1.75163 0.319421,-0.57166 0.797557,-0.89754 1.422052,-0.96924 0.932671,-0.10708 0.935654,-0.10229 0.3441,0.55137 -0.489189,0.54054 -0.524388,0.74654 -0.195304,1.14307 0.906278,1.09199 2.27552,0.15847 1.605055,-1.09431 -0.594682,-1.11118 -2.75652,-1.34249 -3.620846,-0.38742 z m -1.329527,4.52336 c -0.123684,0.20013 -0.07503,0.51372 0.108135,0.69688 0.428003,0.428 1.425872,0.0547 1.251741,-0.4683 -0.177266,-0.5324 -1.078487,-0.68388 -1.359878,-0.22858 z m -2.700816,2.92456 c -3.968879,1.30897 -3.993567,1.31262 -8.121196,1.20047 -7.650148,-0.20787 -10.299029,-0.10114 -11.809875,0.47586 -1.628699,0.622 -2.609136,2.02703 -2.06548,2.95996 0.180522,0.30978 0.324877,0.37627 0.330329,0.15214 0.0054,-0.22058 0.404047,-0.3981 0.894072,-0.3981 0.536895,0 1.550547,-0.50054 2.579806,-1.27391 1.344452,-1.0102 1.968997,-1.27367 3.016976,-1.27273 l 1.321554,0.001 -1.035054,0.63109 c -0.973352,0.59346 -1.290337,1.23444 -0.835438,1.68934 0.252871,0.25287 1.970816,-0.60559 2.886842,-1.44257 0.591947,-0.54086 1.102386,-0.63075 3.362973,-0.59225 3.601941,0.0614 6.653183,-0.41114 10.184641,-1.57713 2.432797,-0.80324 3.668653,-1.00789 7.022688,-1.1629 2.238684,-0.10346 4.146067,-0.31065 4.238637,-0.46042 0.09256,-0.14978 -1.667427,-0.26573 -3.911095,-0.25767 -3.904362,0.014 -4.250213,0.071 -8.06038,1.32762 z"/><path style="fill:#00294d;fill-opacity:1" id="path4154" d="m 95.557419,102.69161 c 1.372036,0.66219 1.301533,2.64202 -0.106666,2.99545 -1.312055,0.32931 -2.781071,-1.60907 -1.717573,-2.26635 0.175163,-0.10827 0.318479,-0.33169 0.318479,-0.49652 0,-0.50744 -0.827224,-0.33296 -1.708682,0.36039 -0.636771,0.50089 -0.839146,0.94464 -0.839146,1.84001 0,3.04398 3.129847,4.27704 7.78113,3.06554 1.025139,-0.26701 1.880839,-0.44616 1.901569,-0.3981 0.0207,0.0481 0.28268,0.38056 0.58211,0.73889 0.53272,0.63751 0.52125,0.64881 -0.53366,0.52565 -0.59295,-0.0692 -2.129309,0.11376 -3.414131,0.40663 -3.911161,0.89153 -6.43183,0.008 -7.276258,-2.55076 -1.015078,-3.07571 2.045683,-5.65289 5.012834,-4.22083 z m -15.886161,6.54133 c 1.016596,0.86021 1.187819,2.12545 0.394942,2.91833 -0.790578,0.79057 -1.704309,0.85322 -2.393439,0.16409 -0.592262,-0.59227 -0.659393,-2.07952 -0.118292,-2.62063 0.649775,-0.64977 -1.045998,-0.4605 -2.204879,0.2461 -3.079557,1.87768 -0.282111,5.80402 4.164967,5.84572 1.683458,0.0158 3.283826,-0.60103 4.543937,-1.75134 0.633247,-0.57807 0.689359,-0.58184 0.889702,-0.0597 0.130489,0.34005 -0.03867,0.89873 -0.434022,1.43348 -0.78457,1.06119 -0.533656,1.27805 0.92097,0.796 0.910843,-0.30184 1.213525,-0.65408 1.782961,-2.07487 0.377228,-0.94122 1.065891,-2.18757 1.530359,-2.76967 0.46447,-0.5821 0.844491,-1.281 0.844491,-1.5531 0,-1.03408 1.414894,-0.1882 1.870283,1.11813 0.433537,1.24364 -0.130003,2.75124 -1.402593,3.75226 -1.642025,1.29162 -0.513507,1.08945 2.941445,-0.52694 4.102928,-1.91955 5.371126,-2.2868 7.89686,-2.2868 2.69803,0 4.2638,0.5228 5.61625,1.87525 0.902,0.90201 1.22606,1.53309 1.40707,2.74013 0.61985,4.13346 -2.55811,6.66165 -6.29558,5.00839 -1.76668,-0.78148 -2.227329,-1.95117 -1.27378,-3.23439 1.74161,-2.34372 5.06951,0.0619 3.39428,2.4536 -0.47335,0.67581 -0.45917,0.70782 0.31346,0.70782 0.44508,0 1.27726,-0.41819 1.84931,-0.92931 0.88326,-0.78919 1.04008,-1.14582 1.04008,-2.36524 0,-1.62724 -0.71789,-2.81597 -2.38636,-3.95151 -2.84125,-1.93372 -6.14239,-1.78793 -11.822205,0.52213 -4.888764,1.98833 -6.782,2.36441 -11.110481,2.20705 -3.74864,-0.13627 -6.165118,-0.97307 -7.75194,-2.68438 -1.585253,-1.70963 -0.808741,-4.3258 1.55014,-5.22265 1.329206,-0.50536 3.5055,-0.38115 4.242064,0.24211 z m -8.440178,0.0251 c 0.720866,0.79655 0.661964,2.34499 -0.12738,3.34848 -0.85394,1.08562 -3.34095,1.81344 -6.01177,1.75935 L 63,114.32347 l 2.49696,-0.26359 c 2.70046,-0.28507 4.06697,-0.89885 5.1067,-2.29372 0.61241,-0.8216 0.626512,-0.95697 0.18248,-1.75163 -0.31942,-0.57166 -0.79756,-0.89754 -1.42205,-0.96924 -0.93268,-0.10708 -0.93566,-0.1023 -0.3441,0.55136 0.48918,0.54055 0.52438,0.74655 0.1953,1.14307 -0.90628,1.092 -2.27552,0.15847 -1.60506,-1.0943 0.59469,-1.11118 2.75652,-1.34249 3.62085,-0.38742 z m 1.329527,4.52336 c 0.123684,0.20013 0.07503,0.51372 -0.108135,0.69688 -0.428003,0.428 -1.425872,0.0547 -1.251741,-0.4683 0.177266,-0.5324 1.078487,-0.68388 1.359878,-0.22858 z m 2.700816,2.92456 c 3.968879,1.30897 3.993567,1.31262 8.121196,1.20047 7.650148,-0.20787 10.299029,-0.10114 11.809875,0.47586 1.628699,0.622 2.609136,2.02703 2.06548,2.95996 -0.180522,0.30978 -0.324877,0.37627 -0.330329,0.15214 -0.0054,-0.22058 -0.404047,-0.3981 -0.894072,-0.3981 -0.536895,0 -1.550547,-0.50054 -2.579806,-1.27391 -1.344452,-1.0102 -1.968997,-1.27367 -3.016976,-1.27273 l -1.321554,0.001 1.035054,0.63109 c 0.973352,0.59346 1.290337,1.23444 0.835438,1.68934 -0.252871,0.25287 -1.970816,-0.60559 -2.886842,-1.44257 -0.591947,-0.54086 -1.102386,-0.63075 -3.362973,-0.59225 -3.601941,0.0614 -6.653183,-0.41114 -10.184641,-1.57713 -2.432797,-0.80324 -3.668653,-1.00789 -7.022683,-1.16289 -2.23869,-0.10347 -4.14607,-0.31066 -4.23864,-0.46043 -0.0926,-0.14978 1.66743,-0.26573 3.91109,-0.25767 3.90437,0.014 4.250216,0.071 8.060383,1.32762 z"/></g><g style="fill:#00294d;fill-opacity:1" id="g4252"><path id="path4248" d="m 32.218344,102.55742 c -0.662197,1.37204 -2.642019,1.30153 -2.995456,-0.10667 -0.329304,-1.31205 1.609077,-2.781074 2.266357,-1.71757 0.108261,0.17516 0.331686,0.31848 0.496514,0.31848 0.507438,0 0.332963,-0.82723 -0.36039,-1.708689 -0.500884,-0.636771 -0.944636,-0.839146 -1.84001,-0.839146 -3.043977,0 -4.277043,3.129855 -3.065534,7.781145 0.267009,1.02512 0.446153,1.88083 0.398097,1.90156 -0.04806,0.0208 -0.380559,0.28268 -0.738892,0.58211 -0.637511,0.53272 -0.64881,0.52125 -0.525654,-0.53366 0.06922,-0.59295 -0.113753,-2.12931 -0.406628,-3.41413 -0.891529,-3.91116 -0.0079,-6.431837 2.550758,-7.276265 3.075717,-1.015078 5.652899,2.045683 4.220838,5.012845 z M 25.677011,86.671252 c -0.860211,1.016596 -2.125449,1.187819 -2.918327,0.394942 -0.790578,-0.790578 -0.85322,-1.704309 -0.16409,-2.393439 0.592262,-0.592262 2.079519,-0.659393 2.620623,-0.118292 0.649773,0.649775 0.460504,-1.045998 -0.246094,-2.204879 -1.877682,-3.079557 -5.804022,-0.282111 -5.845723,4.164967 -0.0158,1.683458 0.601035,3.283826 1.751343,4.543937 0.578067,0.633247 0.581835,0.689359 0.05975,0.889702 -0.340052,0.130489 -0.898736,-0.03867 -1.433483,-0.434022 -1.061187,-0.78457 -1.278052,-0.533656 -0.796,0.92097 0.301845,0.910843 0.654085,1.213525 2.074872,1.782961 0.941218,0.377228 2.187571,1.065891 2.76967,1.530359 0.582103,0.46447 1.280994,0.844491 1.553099,0.844491 1.034081,0 0.188202,1.414894 -1.11813,1.870283 -1.243644,0.433537 -2.751238,-0.130003 -3.75226,-1.402593 -1.291615,-1.642025 -1.089447,-0.513507 0.526944,2.941441 1.91955,4.10294 2.286798,5.37114 2.286798,7.89687 0,2.69803 -0.522806,4.2638 -1.875254,5.61625 -0.902006,0.902 -1.533084,1.22606 -2.740124,1.40707 -4.133463,0.61985 -6.661658,-2.55811 -5.008394,-6.29558 0.781484,-1.76668 1.951172,-2.22733 3.234386,-1.27378 2.343728,1.74161 -0.06188,5.06951 -2.453596,3.39428 -0.675808,-0.47335 -0.707821,-0.45917 -0.707821,0.31346 0,0.44508 0.418191,1.27726 0.929312,1.84931 0.789189,0.88326 1.145822,1.04008 2.365235,1.04008 1.627244,0 2.815978,-0.71789 3.951516,-2.38636 1.933721,-2.84125 1.787925,-6.14239 -0.522133,-11.822211 -1.988328,-4.888764 -2.364409,-6.782 -2.207052,-11.110481 0.136277,-3.74864 0.973069,-6.165118 2.684384,-7.75194 1.709625,-1.585253 4.325801,-0.808741 5.222644,1.55014 0.505365,1.329206 0.381158,3.5055 -0.242095,4.242064 z m -0.02506,-8.440178 c -0.79655,0.720866 -2.344992,0.661964 -3.348477,-0.127376 -1.08562,-0.853949 -1.813445,-3.340949 -1.759358,-6.011779 l 0.04236,-8.788359 0.263594,9.193399 c 0.07783,2.71435 0.898852,4.06696 2.293724,5.10669 0.821597,0.612415 0.956967,0.626517 1.751631,0.182482 0.571654,-0.319421 0.897539,-0.797552 0.969236,-1.422052 0.107083,-0.93267 0.102297,-0.93565 -0.551363,-0.3441 -0.540546,0.48919 -0.746549,0.52439 -1.143071,0.1953 -1.091998,-0.90627 -0.158471,-2.27552 1.094303,-1.60505 1.11118,0.59468 1.342489,2.756519 0.387421,3.620845 z m -4.52336,1.329527 c -0.200126,0.123684 -0.513722,0.07503 -0.696882,-0.108135 -0.428001,-0.428003 -0.05468,-1.425872 0.468306,-1.251741 0.532395,0.177266 0.683876,1.078487 0.228576,1.359876 z m -2.924556,2.700816 c -1.308979,3.968879 -1.312628,3.993567 -1.200473,8.121196 0.207868,7.650148 0.101136,10.299027 -0.475861,11.809887 -0.622005,1.62869 -2.027034,2.60913 -2.959963,2.06548 -0.309781,-0.18053 -0.376265,-0.32488 -0.152137,-0.33033 0.22058,-0.005 0.398098,-0.40405 0.398098,-0.89408 0,-0.53689 0.500544,-1.55054 1.273914,-2.57981 1.010202,-1.344451 1.273667,-1.968996 1.272724,-3.016975 l -0.0013,-1.321554 -0.631084,1.035054 c -0.593466,0.973352 -1.234443,1.290337 -1.689343,0.835438 -0.252872,-0.252871 0.605593,-1.970816 1.442569,-2.886842 0.540863,-0.591947 0.630754,-1.102386 0.59225,-3.362973 -0.06136,-3.601941 0.41114,-6.653183 1.577132,-10.184641 0.803244,-2.432797 1.007891,-3.668653 1.162895,-7.022688 0.103461,-2.23868 0.310654,-11.02107 0.460427,-11.11364 0.149778,-0.0926 0.265726,8.54243 0.25767,10.7861 -0.01401,3.90436 -0.07099,4.250211 -1.327627,8.060378 z" style="fill:#00294d;fill-opacity:1"/><path style="fill:#00294d;fill-opacity:1" id="path4250" d="m 32.218812,24.817331 c -0.662197,-1.372036 -2.642019,-1.301533 -2.995456,0.106666 -0.329304,1.312055 1.609077,2.781071 2.266357,1.717573 0.108261,-0.175163 0.331686,-0.318479 0.496514,-0.318479 0.507438,0 0.332963,0.827224 -0.36039,1.708682 -0.500884,0.636771 -0.944636,0.839146 -1.84001,0.839146 -3.043977,0 -4.277043,-3.129847 -3.065534,-7.781135 0.267009,-1.025126 0.446153,-1.880829 0.398097,-1.901557 -0.04806,-0.02075 -0.380559,-0.282685 -0.738892,-0.582115 -0.637511,-0.532718 -0.64881,-0.521251 -0.525654,0.533662 0.06922,0.592951 -0.113753,2.129307 -0.406628,3.414127 -0.891529,3.911161 -0.0079,6.43183 2.550758,7.276258 3.075717,1.015078 5.652899,-2.045683 4.220838,-5.012828 z m -6.541333,15.886161 c -0.860211,-1.016596 -2.125449,-1.187819 -2.918327,-0.394942 -0.790578,0.790578 -0.85322,1.704309 -0.16409,2.393439 0.592262,0.592262 2.079519,0.659393 2.620623,0.118292 0.649773,-0.649775 0.460504,1.045998 -0.246094,2.204879 -1.877682,3.079557 -5.804022,0.282111 -5.845723,-4.164967 -0.0158,-1.683458 0.601035,-3.283826 1.751343,-4.543937 0.578067,-0.633247 0.581835,-0.689359 0.05975,-0.889702 -0.340052,-0.130489 -0.898736,0.03867 -1.433483,0.434022 -1.061187,0.78457 -1.278052,0.533656 -0.796,-0.92097 0.301845,-0.910843 0.654085,-1.213525 2.074872,-1.782961 0.941218,-0.377228 2.187571,-1.065891 2.76967,-1.530359 0.582103,-0.46447 1.280994,-0.844491 1.553099,-0.844491 1.034081,0 0.188202,-1.414894 -1.11813,-1.870283 -1.243644,-0.433537 -2.751238,0.130003 -3.75226,1.402593 -1.291615,1.642025 -1.089447,0.513507 0.526944,-2.941445 1.91955,-4.102928 2.286798,-5.371126 2.286798,-7.896853 0,-2.698033 -0.522806,-4.2638 -1.875254,-5.616249 -0.902006,-0.902005 -1.533084,-1.226068 -2.740124,-1.40707 -4.133463,-0.619853 -6.661658,2.558105 -5.008394,6.295578 0.781484,1.766674 1.951172,2.227324 3.234386,1.273776 2.343728,-1.741605 -0.06188,-5.069506 -2.453596,-3.39428 -0.675808,0.473354 -0.707821,0.459173 -0.707821,-0.313457 0,-0.44508 0.418191,-1.277265 0.929312,-1.849312 0.789189,-0.883255 1.145822,-1.040079 2.365235,-1.040079 1.627244,0 2.815978,0.717887 3.951516,2.386358 1.933721,2.84125 1.787925,6.142388 -0.522133,11.822203 -1.988328,4.888764 -2.364409,6.782 -2.207052,11.110481 0.136277,3.74864 0.973069,6.165118 2.684384,7.75194 1.709625,1.585253 4.325801,0.808741 5.222644,-1.55014 0.505365,-1.329206 0.381158,-3.5055 -0.242095,-4.242064 z m -0.02506,8.440178 c -0.79655,-0.720866 -2.344992,-0.661964 -3.348477,0.127376 -1.08562,0.853949 -1.813445,3.340951 -1.759358,6.011779 l 0.04236,8.074071 0.263594,-8.479108 c 0.08438,-2.714155 0.898852,-4.066963 2.293724,-5.106693 0.821597,-0.612415 0.956967,-0.626517 1.751631,-0.182482 0.571654,0.319421 0.897539,0.797557 0.969236,1.422052 0.107083,0.932671 0.102297,0.935654 -0.551363,0.3441 -0.540546,-0.489189 -0.746549,-0.524388 -1.143071,-0.195304 -1.091998,0.906278 -0.158471,2.27552 1.094303,1.605055 1.11118,-0.594682 1.342489,-2.75652 0.387421,-3.620846 z m -4.52336,-1.329527 c -0.200126,-0.123684 -0.513722,-0.07503 -0.696882,0.108135 -0.428001,0.428003 -0.05468,1.425872 0.468306,1.251741 0.532395,-0.177266 0.683876,-1.078487 0.228576,-1.359876 z m -2.924556,-2.700816 c -1.308979,-3.968879 -1.312628,-3.993567 -1.200473,-8.121196 0.207868,-7.650148 0.101136,-10.299029 -0.475861,-11.809875 -0.622005,-1.628699 -2.027034,-2.609136 -2.959963,-2.06548 -0.309781,0.180522 -0.376265,0.324877 -0.152137,0.330329 0.22058,0.0054 0.398098,0.404047 0.398098,0.894072 0,0.536895 0.500544,1.550547 1.273914,2.579806 1.010202,1.344452 1.273667,1.968997 1.272724,3.016976 l -0.0013,1.321554 -0.631084,-1.035054 c -0.593466,-0.973352 -1.234443,-1.290337 -1.689343,-0.835438 -0.252872,0.252871 0.605593,1.970816 1.442569,2.886842 0.540863,0.591947 0.630754,1.102386 0.59225,3.362973 -0.06136,3.601941 0.41114,6.653183 1.577132,10.184641 0.803244,2.432797 1.007891,3.668653 1.162895,7.022688 0.103461,2.238684 0.310654,10.306781 0.460427,10.399351 0.149778,0.09256 0.265726,-7.828141 0.25767,-10.071809 -0.01401,-3.904362 -0.07099,-4.250213 -1.327627,-8.06038 z"/></g><g style="fill:#00294d;fill-opacity:1" id="g4256" transform="matrix(-1,0,0,1,127.94608,0)"><path style="fill:#00294d;fill-opacity:1" id="path4258" d="m 32.218344,102.55742 c -0.662197,1.37204 -2.642019,1.30153 -2.995456,-0.10667 -0.329304,-1.31205 1.609077,-2.781074 2.266357,-1.71757 0.108261,0.17516 0.331686,0.31848 0.496514,0.31848 0.507438,0 0.332963,-0.82723 -0.36039,-1.708689 -0.500884,-0.636771 -0.944636,-0.839146 -1.84001,-0.839146 -3.043977,0 -4.277043,3.129855 -3.065534,7.781145 0.267009,1.02512 0.446153,1.88083 0.398097,1.90156 -0.04806,0.0208 -0.380559,0.28268 -0.738892,0.58211 -0.637511,0.53272 -0.64881,0.52125 -0.525654,-0.53366 0.06922,-0.59295 -0.113753,-2.12931 -0.406628,-3.41413 -0.891529,-3.91116 -0.0079,-6.431837 2.550758,-7.276265 3.075717,-1.015078 5.652899,2.045683 4.220838,5.012845 z M 25.677011,86.671252 c -0.860211,1.016596 -2.125449,1.187819 -2.918327,0.394942 -0.790578,-0.790578 -0.85322,-1.704309 -0.16409,-2.393439 0.592262,-0.592262 2.079519,-0.659393 2.620623,-0.118292 0.649773,0.649775 0.460504,-1.045998 -0.246094,-2.204879 -1.877682,-3.079557 -5.804022,-0.282111 -5.845723,4.164967 -0.0158,1.683458 0.601035,3.283826 1.751343,4.543937 0.578067,0.633247 0.581835,0.689359 0.05975,0.889702 -0.340052,0.130489 -0.898736,-0.03867 -1.433483,-0.434022 -1.061187,-0.78457 -1.278052,-0.533656 -0.796,0.92097 0.301845,0.910843 0.654085,1.213525 2.074872,1.782961 0.941218,0.377228 2.187571,1.065891 2.76967,1.530359 0.582103,0.46447 1.280994,0.844491 1.553099,0.844491 1.034081,0 0.188202,1.414894 -1.11813,1.870283 -1.243644,0.433537 -2.751238,-0.130003 -3.75226,-1.402593 -1.291615,-1.642025 -1.089447,-0.513507 0.526944,2.941441 1.91955,4.10294 2.286798,5.37114 2.286798,7.89687 0,2.69803 -0.522806,4.2638 -1.875254,5.61625 -0.902006,0.902 -1.533084,1.22606 -2.740124,1.40707 -4.133463,0.61985 -6.661658,-2.55811 -5.008394,-6.29558 0.781484,-1.76668 1.951172,-2.22733 3.234386,-1.27378 2.343728,1.74161 -0.06188,5.06951 -2.453596,3.39428 -0.675808,-0.47335 -0.707821,-0.45917 -0.707821,0.31346 0,0.44508 0.418191,1.27726 0.929312,1.84931 0.789189,0.88326 1.145822,1.04008 2.365235,1.04008 1.627244,0 2.815978,-0.71789 3.951516,-2.38636 1.933721,-2.84125 1.787925,-6.14239 -0.522133,-11.822211 -1.988328,-4.888764 -2.364409,-6.782 -2.207052,-11.110481 0.136277,-3.74864 0.973069,-6.165118 2.684384,-7.75194 1.709625,-1.585253 4.325801,-0.808741 5.222644,1.55014 0.505365,1.329206 0.381158,3.5055 -0.242095,4.242064 z m -0.02506,-8.440178 c -0.79655,0.720866 -2.344992,0.661964 -3.348477,-0.127376 -1.08562,-0.853949 -1.813445,-3.340949 -1.759358,-6.011779 l 0.04236,-8.788359 0.263594,9.193399 c 0.07783,2.71435 0.898852,4.06696 2.293724,5.10669 0.821597,0.612415 0.956967,0.626517 1.751631,0.182482 0.571654,-0.319421 0.897539,-0.797552 0.969236,-1.422052 0.107083,-0.93267 0.102297,-0.93565 -0.551363,-0.3441 -0.540546,0.48919 -0.746549,0.52439 -1.143071,0.1953 -1.091998,-0.90627 -0.158471,-2.27552 1.094303,-1.60505 1.11118,0.59468 1.342489,2.756519 0.387421,3.620845 z m -4.52336,1.329527 c -0.200126,0.123684 -0.513722,0.07503 -0.696882,-0.108135 -0.428001,-0.428003 -0.05468,-1.425872 0.468306,-1.251741 0.532395,0.177266 0.683876,1.078487 0.228576,1.359876 z m -2.924556,2.700816 c -1.308979,3.968879 -1.312628,3.993567 -1.200473,8.121196 0.207868,7.650148 0.101136,10.299027 -0.475861,11.809887 -0.622005,1.62869 -2.027034,2.60913 -2.959963,2.06548 -0.309781,-0.18053 -0.376265,-0.32488 -0.152137,-0.33033 0.22058,-0.005 0.398098,-0.40405 0.398098,-0.89408 0,-0.53689 0.500544,-1.55054 1.273914,-2.57981 1.010202,-1.344451 1.273667,-1.968996 1.272724,-3.016975 l -0.0013,-1.321554 -0.631084,1.035054 c -0.593466,0.973352 -1.234443,1.290337 -1.689343,0.835438 -0.252872,-0.252871 0.605593,-1.970816 1.442569,-2.886842 0.540863,-0.591947 0.630754,-1.102386 0.59225,-3.362973 -0.06136,-3.601941 0.41114,-6.653183 1.577132,-10.184641 0.803244,-2.432797 1.007891,-3.668653 1.162895,-7.022688 0.103461,-2.23868 0.310654,-11.02107 0.460427,-11.11364 0.149778,-0.0926 0.265726,8.54243 0.25767,10.7861 -0.01401,3.90436 -0.07099,4.250211 -1.327627,8.060378 z"/><path id="path4260" d="m 32.218812,24.817331 c -0.662197,-1.372036 -2.642019,-1.301533 -2.995456,0.106666 -0.329304,1.312055 1.609077,2.781071 2.266357,1.717573 0.108261,-0.175163 0.331686,-0.318479 0.496514,-0.318479 0.507438,0 0.332963,0.827224 -0.36039,1.708682 -0.500884,0.636771 -0.944636,0.839146 -1.84001,0.839146 -3.043977,0 -4.277043,-3.129847 -3.065534,-7.781135 0.267009,-1.025126 0.446153,-1.880829 0.398097,-1.901557 -0.04806,-0.02075 -0.380559,-0.282685 -0.738892,-0.582115 -0.637511,-0.532718 -0.64881,-0.521251 -0.525654,0.533662 0.06922,0.592951 -0.113753,2.129307 -0.406628,3.414127 -0.891529,3.911161 -0.0079,6.43183 2.550758,7.276258 3.075717,1.015078 5.652899,-2.045683 4.220838,-5.012828 z m -6.541333,15.886161 c -0.860211,-1.016596 -2.125449,-1.187819 -2.918327,-0.394942 -0.790578,0.790578 -0.85322,1.704309 -0.16409,2.393439 0.592262,0.592262 2.079519,0.659393 2.620623,0.118292 0.649773,-0.649775 0.460504,1.045998 -0.246094,2.204879 -1.877682,3.079557 -5.804022,0.282111 -5.845723,-4.164967 -0.0158,-1.683458 0.601035,-3.283826 1.751343,-4.543937 0.578067,-0.633247 0.581835,-0.689359 0.05975,-0.889702 -0.340052,-0.130489 -0.898736,0.03867 -1.433483,0.434022 -1.061187,0.78457 -1.278052,0.533656 -0.796,-0.92097 0.301845,-0.910843 0.654085,-1.213525 2.074872,-1.782961 0.941218,-0.377228 2.187571,-1.065891 2.76967,-1.530359 0.582103,-0.46447 1.280994,-0.844491 1.553099,-0.844491 1.034081,0 0.188202,-1.414894 -1.11813,-1.870283 -1.243644,-0.433537 -2.751238,0.130003 -3.75226,1.402593 -1.291615,1.642025 -1.089447,0.513507 0.526944,-2.941445 1.91955,-4.102928 2.286798,-5.371126 2.286798,-7.896853 0,-2.698033 -0.522806,-4.2638 -1.875254,-5.616249 -0.902006,-0.902005 -1.533084,-1.226068 -2.740124,-1.40707 -4.133463,-0.619853 -6.661658,2.558105 -5.008394,6.295578 0.781484,1.766674 1.951172,2.227324 3.234386,1.273776 2.343728,-1.741605 -0.06188,-5.069506 -2.453596,-3.39428 -0.675808,0.473354 -0.707821,0.459173 -0.707821,-0.313457 0,-0.44508 0.418191,-1.277265 0.929312,-1.849312 0.789189,-0.883255 1.145822,-1.040079 2.365235,-1.040079 1.627244,0 2.815978,0.717887 3.951516,2.386358 1.933721,2.84125 1.787925,6.142388 -0.522133,11.822203 -1.988328,4.888764 -2.364409,6.782 -2.207052,11.110481 0.136277,3.74864 0.973069,6.165118 2.684384,7.75194 1.709625,1.585253 4.325801,0.808741 5.222644,-1.55014 0.505365,-1.329206 0.381158,-3.5055 -0.242095,-4.242064 z m -0.02506,8.440178 c -0.79655,-0.720866 -2.344992,-0.661964 -3.348477,0.127376 -1.08562,0.853949 -1.813445,3.340951 -1.759358,6.011779 l 0.04236,8.074071 0.263594,-8.479108 c 0.08438,-2.714155 0.898852,-4.066963 2.293724,-5.106693 0.821597,-0.612415 0.956967,-0.626517 1.751631,-0.182482 0.571654,0.319421 0.897539,0.797557 0.969236,1.422052 0.107083,0.932671 0.102297,0.935654 -0.551363,0.3441 -0.540546,-0.489189 -0.746549,-0.524388 -1.143071,-0.195304 -1.091998,0.906278 -0.158471,2.27552 1.094303,1.605055 1.11118,-0.594682 1.342489,-2.75652 0.387421,-3.620846 z m -4.52336,-1.329527 c -0.200126,-0.123684 -0.513722,-0.07503 -0.696882,0.108135 -0.428001,0.428003 -0.05468,1.425872 0.468306,1.251741 0.532395,-0.177266 0.683876,-1.078487 0.228576,-1.359876 z m -2.924556,-2.700816 c -1.308979,-3.968879 -1.312628,-3.993567 -1.200473,-8.121196 0.207868,-7.650148 0.101136,-10.299029 -0.475861,-11.809875 -0.622005,-1.628699 -2.027034,-2.609136 -2.959963,-2.06548 -0.309781,0.180522 -0.376265,0.324877 -0.152137,0.330329 0.22058,0.0054 0.398098,0.404047 0.398098,0.894072 0,0.536895 0.500544,1.550547 1.273914,2.579806 1.010202,1.344452 1.273667,1.968997 1.272724,3.016976 l -0.0013,1.321554 -0.631084,-1.035054 c -0.593466,-0.973352 -1.234443,-1.290337 -1.689343,-0.835438 -0.252872,0.252871 0.605593,1.970816 1.442569,2.886842 0.540863,0.591947 0.630754,1.102386 0.59225,3.362973 -0.06136,3.601941 0.41114,6.653183 1.577132,10.184641 0.803244,2.432797 1.007891,3.668653 1.162895,7.022688 0.103461,2.238684 0.310654,10.306781 0.460427,10.399351 0.149778,0.09256 0.265726,-7.828141 0.25767,-10.071809 -0.01401,-3.904362 -0.07099,-4.250213 -1.327627,-8.06038 z" style="fill:#00294d;fill-opacity:1"/></g></g></g></svg>