<?xml version="1.0" encoding="UTF-8" standalone="no"?>
<!-- Created with Inkscape (http://www.inkscape.org/) -->

<svg
   xmlns:dc="http://purl.org/dc/elements/1.1/"
   xmlns:cc="http://creativecommons.org/ns#"
   xmlns:rdf="http://www.w3.org/1999/02/22-rdf-syntax-ns#"
   xmlns:svg="http://www.w3.org/2000/svg"
   xmlns="http://www.w3.org/2000/svg"
   xmlns:xlink="http://www.w3.org/1999/xlink"
   xmlns:sodipodi="http://sodipodi.sourceforge.net/DTD/sodipodi-0.dtd"
   xmlns:inkscape="http://www.inkscape.org/namespaces/inkscape"
   width="128"
   height="128"
   viewBox="0 0 128 128"
   id="svg2"
   version="1.1"
   inkscape:version="0.91 r13725"
   sodipodi:docname="dialog_information.svg">
  <defs
     id="defs4">
    <linearGradient
       inkscape:collect="always"
       id="linearGradient4463">
      <stop
         style="stop-color:#060686;stop-opacity:1"
         offset="0"
         id="stop4465" />
      <stop
         style="stop-color:#0000ff;stop-opacity:1"
         offset="1"
         id="stop4467" />
    </linearGradient>
    <filter
       style="color-interpolation-filters:sRGB;"
       inkscape:label="Drop Shadow"
       id="filter4389">
      <feFlood
         flood-opacity="0.498039"
         flood-color="rgb(255,255,255)"
         result="flood"
         id="feFlood4391" />
      <feComposite
         in="SourceGraphic"
         in2="flood"
         operator="in"
         result="composite1"
         id="feComposite4393" />
      <feGaussianBlur
         in="composite1"
         stdDeviation="2"
         result="blur"
         id="feGaussianBlur4395" />
      <feOffset
         dx="1"
         dy="1"
         result="offset"
         id="feOffset4397" />
      <feComposite
         in="SourceGraphic"
         in2="offset"
         operator="over"
         result="fbSourceGraphic"
         id="feComposite4399" />
      <feColorMatrix
         result="fbSourceGraphicAlpha"
         in="fbSourceGraphic"
         values="0 0 0 -1 0 0 0 0 -1 0 0 0 0 -1 0 0 0 0 1 0"
         id="feColorMatrix4401" />
      <feFlood
         id="feFlood4403"
         flood-opacity="0.498039"
         flood-color="rgb(255,255,255)"
         result="flood"
         in="fbSourceGraphic" />
      <feComposite
         id="feComposite4405"
         in2="flood"
         in="fbSourceGraphic"
         operator="in"
         result="composite1" />
      <feGaussianBlur
         id="feGaussianBlur4407"
         in="composite1"
         stdDeviation="2"
         result="blur" />
      <feOffset
         id="feOffset4409"
         dx="1"
         dy="1"
         result="offset" />
      <feComposite
         id="feComposite4411"
         in2="offset"
         in="fbSourceGraphic"
         operator="over"
         result="composite2" />
    </filter>
    <radialGradient
       inkscape:collect="always"
       xlink:href="#linearGradient4463"
       id="radialGradient4469"
       cx="64"
       cy="988.36218"
       fx="64"
       fy="988.36218"
       r="63"
       gradientUnits="userSpaceOnUse" />
  </defs>
  <sodipodi:namedview
     id="base"
     pagecolor="#ffffff"
     bordercolor="#666666"
     borderopacity="1.0"
     inkscape:pageopacity="0.0"
     inkscape:pageshadow="2"
     inkscape:zoom="11.2"
     inkscape:cx="21.80731"
     inkscape:cy="69.707741"
     inkscape:document-units="px"
     inkscape:current-layer="layer1"
     showgrid="false"
     units="px"
     inkscape:window-width="3840"
     inkscape:window-height="2128"
     inkscape:window-x="0"
     inkscape:window-y="32"
     inkscape:window-maximized="0" />
  <metadata
     id="metadata7">
    <rdf:RDF>
      <cc:Work
         rdf:about="">
        <dc:format>image/svg+xml</dc:format>
        <dc:type
           rdf:resource="http://purl.org/dc/dcmitype/StillImage" />
        <dc:title />
        <dc:creator>
          <cc:Agent>
            <dc:title>Kovid Goyal</dc:title>
          </cc:Agent>
        </dc:creator>
        <dc:rights>
          <cc:Agent>
            <dc:title />
          </cc:Agent>
        </dc:rights>
        <dc:publisher>
          <cc:Agent>
            <dc:title />
          </cc:Agent>
        </dc:publisher>
        <cc:license
           rdf:resource="http://creativecommons.org/licenses/by-sa/3.0/" />
      </cc:Work>
      <cc:License
         rdf:about="http://creativecommons.org/licenses/by-sa/3.0/">
        <cc:permits
           rdf:resource="http://creativecommons.org/ns#Reproduction" />
        <cc:permits
           rdf:resource="http://creativecommons.org/ns#Distribution" />
        <cc:requires
           rdf:resource="http://creativecommons.org/ns#Notice" />
        <cc:requires
           rdf:resource="http://creativecommons.org/ns#Attribution" />
        <cc:permits
           rdf:resource="http://creativecommons.org/ns#DerivativeWorks" />
        <cc:requires
           rdf:resource="http://creativecommons.org/ns#ShareAlike" />
      </cc:License>
    </rdf:RDF>
  </metadata>
  <g
     inkscape:label="Layer 1"
     inkscape:groupmode="layer"
     id="layer1"
     transform="translate(0,-924.36216)">
    <circle
       style="fill:url(#radialGradient4469);fill-opacity:1;fill-rule:evenodd;stroke:none;stroke-width:0;stroke-linecap:round;stroke-linejoin:round;stroke-miterlimit:4;stroke-dasharray:none;stroke-opacity:1"
       id="path4135"
       cx="64"
       cy="988.36218"
       r="63" />
    <g
       id="g4145"
       transform="matrix(1.7284095,0,0,1.6986424,29.703129,-680.81629)"
       style="fill:#ffffff;fill-opacity:1">
      <path
         id="path6"
         d="m 28.165024,1000.6284 c 0,0.811 -1.913,2.711 -5.738,5.7 -3.826,2.989 -7.283,4.484 -10.374,4.484 -2.1280001,0 -3.6730001,-0.545 -4.6360001,-1.634 -0.963,-1.089 -1.444,-2.318 -1.444,-3.686 0,-0.861 0.126,-1.659 0.38,-2.394 0.253,-0.734 0.532,-1.482 0.836,-2.242 l 7.2200001,-14.97198 c 0.405,-0.861 0.697,-1.558 0.874,-2.09 0.177,-0.532 0.266,-1 0.266,-1.406 0,-0.405 -0.076,-0.696 -0.228,-0.874 -0.152,-0.177 -0.355,-0.266 -0.608,-0.266 -0.659,0 -1.938,1.001 -3.838,3.002 -1.9000001,2.001 -3.0280001,3.002 -3.3820001,3.002 -0.405,0 -0.811,-0.279 -1.216,-0.836 -0.406,-0.557 -0.608,-0.912 -0.608,-1.064 0,-0.507 0.481,-1.33 1.444,-2.47 0.962,-1.14 2.179,-2.343 3.6480001,-3.61 1.317,-1.165 2.9,-2.254 4.75,-3.268 1.849,-1.013 3.483,-1.52 4.902,-1.52 2.28,0 3.99,0.646 5.13,1.938 1.14,1.292 1.71,2.85 1.71,4.674 0,0.76 -0.076,1.571 -0.228,2.432 -0.152,0.861 -0.481,1.748 -0.988,2.66 l -5.776,12.692 c -0.456,1.064 -0.786,1.92498 -0.988,2.58398 -0.203,0.659 -0.304,1.115 -0.304,1.368 0,0.304 0.076,0.494 0.228,0.57 0.152,0.076 0.304,0.114 0.456,0.114 1.114,0 2.419,-0.798 3.914,-2.394 1.495,-1.59598 2.444,-2.39398 2.85,-2.39398 0.354,0 0.734,0.266 1.14,0.798 0.405,0.53198 0.608,0.89998 0.608,1.10198 z"
         style="fill:#ffffff;fill-opacity:1"
         inkscape:connector-curvature="0" />
      <path
         id="path8"
         d="m 34.017024,961.41242 c 0,1.875 -0.671,3.496 -2.014,4.864 -1.343,1.368 -2.977,2.052 -4.902,2.052 -1.875,0 -3.496,-0.684 -4.864,-2.052 -1.368,-1.368 -2.052,-2.989 -2.052,-4.864 0,-1.875 0.684,-3.496 2.052,-4.864 1.368,-1.368 2.989,-2.052 4.864,-2.052 1.925,0 3.559,0.684 4.902,2.052 1.343,1.369 2.014,2.99 2.014,4.864 z"
         style="fill:#ffffff;fill-opacity:1"
         inkscape:connector-curvature="0" />
    </g>
  </g>
</svg>
