<svg xmlns="http://www.w3.org/2000/svg" xmlns:svg="http://www.w3.org/2000/svg" id="svg2" width="128" height="128" version="1.1" viewBox="0 0 128 128"><metadata id="metadata7"/><g id="layer1" transform="translate(0,-924.36216)"><g id="g4166" transform="matrix(1.0435863,0,0,1.047718,0.85829209,-47.397949)"><g style="fill:#ea8404;fill-opacity:1" id="g16" transform="matrix(2.3027177,0,0,2.3027177,0.13401703,927.56323)"><path style="fill:#ea8404;fill-opacity:1" id="path18" d="M 47.251,20.643 35.367,18.155 C 35.313,18.15 35.26,18.138 35.206,18.13 c -0.838,-0.106 -1.637,0.169 -2.222,0.687 l -6.208,5.92 -6.196,-5.704 8.591,-8.604 C 29.59,10.067 29.873,9.541 29.921,8.943 30.01,7.745 29.113,6.703 27.917,6.611 27.271,6.564 26.674,6.8 26.245,7.214 L 13.966,18.518 c 0.097,-0.312 0.166,-0.635 0.195,-0.974 0.208,-2.5 -1.649,-4.693 -4.152,-4.901 -2.5,-0.208 -4.693,1.645 -4.904,4.145 -0.208,2.507 1.647,4.697 4.15,4.904 1.034,0.087 2.006,-0.192 2.816,-0.712 l -4.103,9.04 -6.92,3.975 c -0.502,0.302 -0.881,0.808 -1.005,1.426 -0.234,1.176 0.528,2.326 1.703,2.561 C 2.244,38.08 2.739,38 3.158,37.783 l 7.065,-4.05 c 0.29,-0.188 0.533,-0.445 0.71,-0.756 l 2.998,-5.045 6.327,5.147 c 1.479,1.154 2.267,1.79 3.872,2.202 l 7.595,0.93 3.034,8.727 c 0.355,0.953 1.771,1.487 2.487,1.457 1.305,-0.057 2.074,-0.791 2.271,-2.335 0.061,-0.483 -0.003,-0.95 -0.167,-1.371 L 35.685,32.375 c -0.323,-0.753 -0.96,-1.339 -1.768,-1.587 l -3.562,-1.657 5.307,-5.127 10.428,2.149 c 0.064,0.016 0.131,0.027 0.191,0.032 1.548,0.194 2.956,-0.895 3.15,-2.44 0.185,-1.451 -0.773,-2.787 -2.18,-3.102 z"/></g><g style="fill:#ea0418;fill-opacity:1" id="g4" transform="matrix(2.6529507,0,0,2.6529507,-12.570134,918.3996)"><g style="fill:#ea0418;fill-opacity:1" id="g8"><path style="fill:#ea0418;fill-opacity:1" id="path10" d="m 42.508,39.232 -0.469,-1.651 0.234,0.826 -0.238,-0.825 c 0.021,-0.007 2.092,-0.637 4.02,-2.974 2.074,-2.527 2.56,-4.722 2.566,-4.743 l 1.679,0.348 c -0.02,0.105 -0.556,2.607 -2.922,5.484 -2.289,2.779 -4.766,3.506 -4.87,3.535 l 0,0 z"/></g><g style="fill:#ea0418;fill-opacity:1" id="g12"><path style="fill:#ea0418;fill-opacity:1" id="path14" d="m 40.537,35.772 -0.474,-1.65 c 0.014,-0.003 1.347,-0.417 2.599,-1.935 1.364,-1.657 1.688,-3.095 1.69,-3.11 l 1.679,0.351 c -0.014,0.075 -0.393,1.841 -2.046,3.851 -1.611,1.956 -3.374,2.472 -3.448,2.493 l 0,0 z"/></g></g></g></g></svg>