<svg xmlns="http://www.w3.org/2000/svg" xmlns:xlink="http://www.w3.org/1999/xlink" width="128" height="128" viewBox="0 0 128 128"><defs><linearGradient id="a"><stop offset="0" stop-color="#232323"/><stop offset="1" stop-color="#686767"/></linearGradient><radialGradient xlink:href="#a" id="b" cx="64" cy="988.362" fx="64" fy="988.362" r="63" gradientTransform="matrix(1 0 0 .857 0 141.195)" gradientUnits="userSpaceOnUse"/></defs><path d="M111.908 101.463c-2.99-3.414-2.705-8.677.712-11.806 8.969-8.392 14.38-19.203 14.38-31.009-.142-26.884-28.332-48.648-63.071-48.648s-62.929 21.906-62.929 48.79 28.19 48.648 62.929 48.648c3.559 0 7.119-.284 10.678-.711 1.993-.284 3.986.142 5.695 1.28 7.973 5.405 17.085 8.819 26.624 9.957 4.698.427 8.827-2.987 9.397-7.681.285-2.418-.57-4.836-2.278-6.685-.854-.711-1.424-1.423-2.136-2.134z" fill="url(#b)"/><path d="M63.016 75.022q-1.804 0-3.167-1.36-1.364-1.403-1.364-3.158 0-3.026 5.631-7.456l10.513-7.894q5.675-4.868 5.675-8.903 0-5.087-4.795-9.385-4.619-4.166-9.81-4.166-2.771 0-7.038 2.851-4.267 2.807-5.279 2.807-1.804 0-3.123-1.447-1.276-1.447-1.276-3.245 0-3.465 6.73-6.886 6.027-3.07 9.986-3.07 8.842 0 16.056 6.886t7.214 15.657q0 6.403-4.135 11.359-2.463 2.982-9.15 7.719-6.73 4.868-9.37 7.894-1.54 1.798-3.299 1.798zm-2.419 16.666q-1.936 0-3.519-1.316-1.54-1.272-1.54-3.114 0-2.719 1.452-4.912 1.628-2.456 4.179-2.456 4.223 0 4.223 5.175 0 2.412-1.144 4.342-1.408 2.281-3.651 2.281z" style="line-height:125%;-inkscape-font-specification:'Comic Sans MS'" font-size="90" font-family="Comic Sans MS" letter-spacing="0" word-spacing="0" fill="#fff"/></svg>