<svg xmlns="http://www.w3.org/2000/svg" xmlns:xlink="http://www.w3.org/1999/xlink" width="128" height="128" viewBox="0 0 128 128"><defs><linearGradient id="a"><stop offset="0" stop-color="#060686"/><stop offset="1" stop-color="#00f"/></linearGradient><filter color-interpolation-filters="sRGB"><feFlood flood-opacity=".498" flood-color="#fff" result="flood"/><feComposite in="SourceGraphic" in2="flood" operator="in" result="composite1"/><feGaussianBlur in="composite1" stdDeviation="2" result="blur"/><feOffset dx="1" dy="1" result="offset"/><feComposite in="SourceGraphic" in2="offset" result="fbSourceGraphic"/><feColorMatrix result="fbSourceGraphicAlpha" in="fbSourceGraphic" values="0 0 0 -1 0 0 0 0 -1 0 0 0 0 -1 0 0 0 0 1 0"/><feFlood flood-opacity=".498" flood-color="#fff" result="flood"/><feComposite in2="flood" in="fbSourceGraphic" operator="in" result="composite1"/><feGaussianBlur in="composite1" stdDeviation="2" result="blur"/><feOffset dx="1" dy="1" result="offset"/><feComposite in2="offset" in="fbSourceGraphic" result="composite2"/></filter><radialGradient xlink:href="#a" id="b" cx="64" cy="988.362" fx="64" fy="988.362" r="63" gradientUnits="userSpaceOnUse"/></defs><g transform="translate(0 -924.362)"><circle cx="64" cy="988.362" r="63" fill="url(#b)" fill-rule="evenodd"/><path d="M78.384 1018.894c0 1.378-3.306 4.605-9.918 9.682-6.613 5.077-12.588 7.617-17.931 7.617-3.678 0-6.348-.926-8.013-2.776-1.664-1.85-2.496-3.937-2.496-6.261 0-1.463.218-2.818.657-4.067.437-1.247.92-2.517 1.445-3.808l12.479-25.432c.7-1.463 1.205-2.646 1.511-3.55.306-.904.46-1.699.46-2.388 0-.688-.131-1.182-.394-1.485-.263-.301-.614-.452-1.051-.452-1.139 0-3.35 1.7-6.634 5.099-3.284 3.399-5.234 5.099-5.845 5.099-.7 0-1.402-.474-2.102-1.42-.702-.946-1.051-1.549-1.051-1.807 0-.861.831-2.259 2.496-4.196 1.663-1.936 3.766-3.98 6.305-6.132 2.276-1.979 5.012-3.829 8.21-5.551 3.196-1.721 6.02-2.582 8.473-2.582 3.941 0 6.896 1.097 8.867 3.292 1.97 2.195 2.956 4.841 2.956 7.939 0 1.291-.131 2.669-.394 4.131-.263 1.463-.831 2.969-1.708 4.518l-9.983 21.559c-.788 1.807-1.359 3.27-1.708 4.389-.351 1.119-.525 1.894-.525 2.324 0 .516.131.839.394.968s.525.194.788.194c1.925 0 4.181-1.356 6.765-4.067 2.584-2.711 4.224-4.067 4.926-4.067.612 0 1.269.452 1.97 1.356.7.904 1.051 1.529 1.051 1.872zm10.114-66.614c0 3.185-1.16 5.938-3.481 8.262-2.321 2.324-5.145 3.486-8.473 3.486-3.241 0-6.043-1.162-8.407-3.486-2.364-2.324-3.547-5.077-3.547-8.262 0-3.185 1.182-5.938 3.547-8.262 2.364-2.324 5.166-3.486 8.407-3.486 3.327 0 6.151 1.162 8.473 3.486 2.321 2.325 3.481 5.079 3.481 8.262z" fill="#fff"/></g></svg>