<svg xmlns="http://www.w3.org/2000/svg" xmlns:xlink="http://www.w3.org/1999/xlink" width="128" height="128" viewBox="0 0 128 128"><defs><linearGradient id="a"><stop offset="0" stop-color="#7c0000"/><stop offset="1" stop-color="#e20000"/></linearGradient><radialGradient xlink:href="#a" id="b" cx="64" cy="988.362" fx="64" fy="988.362" r="52" gradientTransform="matrix(1 0 0 1.212 0 -209.076)" gradientUnits="userSpaceOnUse"/></defs><path d="M107.206 11.789l-43.274-10.789-43.274 10.789c-5.165 1.261-8.794 5.885-8.655 11.209v56.747c0 3.363 1.396 6.445 3.909 8.687l40.482 35.73c4.327 3.783 10.888 3.783 15.216 0l40.482-35.73c2.513-2.242 3.909-5.324 3.909-8.687v-56.747c-.14-5.324-3.629-9.948-8.794-11.209z" fill="url(#b)"/><path d="M74.472 44.088c-.336 1.684-1.175 4.379-2.349 7.747-1.678 5.053-2.852 8.926-3.356 11.958-.671 2.863-1.007 5.726-1.175 8.758 0 1.01-.168 2.189-.839 3.031-.503.674-1.51 1.011-2.349.842-.671 0-1.51-.168-2.013-.674-.503-.674-.839-1.684-.839-2.526-.168-2.358-.336-4.042-.503-5.053-.168-1.011-.503-2.526-1.007-4.716-.839-3.368-2.013-6.905-3.356-10.779-1.678-4.547-2.685-7.579-3.02-9.263-.503-1.853-.671-3.705-.671-5.558 0-3.032 1.007-6.063 3.02-8.421 2.013-2.526 5.034-4.042 8.222-3.874 3.02 0 5.873 1.347 7.718 3.705 2.181 2.695 3.188 6.063 3.02 9.6 0 1.853-.168 3.537-.503 5.221zm-10.403 57.431c-5.705 0-10.403-4.716-10.403-10.442s4.698-10.442 10.403-10.442 10.403 4.716 10.403 10.442-4.698 10.442-10.403 10.442z" fill="#fff"/></svg>