<svg xmlns="http://www.w3.org/2000/svg" width="128" height="128" viewBox="0 0 128 128"><path d="M114.589 50.138l-28.569-6.004-.387-.06c-2.015-.256-3.935.408-5.342 1.658l-14.924 14.285-14.895-13.764 20.653-20.761c1.007-.874 1.688-2.143 1.803-3.586.214-2.891-1.942-5.405-4.818-5.627-1.553-.113-2.988.456-4.019 1.455l-29.519 27.277c.233-.753.399-1.532.469-2.35.5-6.032-3.964-11.324-9.981-11.826-6.01-.502-11.282 3.969-11.789 10.002-.5 6.049 3.959 11.334 9.977 11.833 2.486.21 4.822-.463 6.77-1.718l-9.864 21.814-16.636 9.592c-1.207.729-2.118 1.95-2.416 3.441-.563 2.838 1.269 5.613 4.094 6.18 1.197.236 2.387.043 3.394-.48l16.984-9.773c.697-.454 1.281-1.074 1.707-1.824l7.207-12.174 15.21 12.42c3.556 2.785 5.45 4.319 9.308 5.313l18.258 2.244 7.294 21.058c.853 2.3 4.257 3.588 5.979 3.516 3.137-.138 4.986-1.909 5.459-5.634.147-1.165-.007-2.292-.401-3.308l-8.811-24.888c-.776-1.817-2.308-3.231-4.25-3.829l-8.563-3.998 12.758-12.371 25.069 5.186c.154.039.315.065.459.077 3.721.468 7.106-2.16 7.573-5.888.445-3.501-1.858-6.725-5.241-7.485z" fill="#ea8404"/><path d="M105.482 99.788l-1.299-4.59.648 2.296-.659-2.293c.058-.019 5.795-1.771 11.135-8.268 5.745-7.025 7.091-13.127 7.108-13.186l4.651.967c-.055.292-1.54 7.247-8.094 15.246-6.341 7.726-13.202 9.747-13.49 9.827zm-5.46-9.619l-1.313-4.587c.039-.008 3.731-1.159 7.199-5.379 3.778-4.606 4.676-8.604 4.681-8.646l4.651.976c-.039.208-1.089 5.118-5.667 10.706-4.462 5.438-9.346 6.872-9.551 6.931z" fill="#ea0418"/></svg>