<svg xmlns="http://www.w3.org/2000/svg" viewBox="0 0 128 128" height="128" width="128"><g transform="translate(0 -924.362)"><path d="M16.582 1046.884v-107.688c.269-7.886 2.821-11.47 7.254-11.675l83.522-.158c2.766-.034 3.224 2.603 3.224 5.261l-.177 110.345c.201 4.009-3.09 3.994-3.09 3.994l-6.905.108c-.187 4.217-.269 4.387-3.224 4.268h-76.439c-3.907 0-4.165.2-4.165-4.455z" fill="#a8854c" fill-rule="evenodd"/><path d="M22.299 937.546h73.639c5.75.099 5.129 2.683 5.172 9.678l.182 94.282c1.824.145 4.621-1.884 4.586-5.107l-.182-96.84c.151-6.453-1.337-6.453-4.301-6.717h-75.305c-2.867-.18-3.64.842-3.791 4.704z" fill="#fff" fill-rule="evenodd"/><rect width="51.482" height="6" x="33.259" y="951.362" ry=".9" fill="#4e3f1f" fill-rule="evenodd"/><path d="M40.093 1032.757v-1.435q1.443-.293 2.136-.645.722-.351 1.068-.967.346-.644.346-1.699 0-.996-.231-2.139-.231-1.172-.664-2.607l-1.068-3.779h-13.452l-.981 2.871q-.751 2.168-.981 3.281-.231 1.113-.231 2.022 0 1.758.866 2.578.895.82 2.714 1.084v1.435h-12.326v-1.435q1.617-.264 2.8-1.904 1.212-1.641 2.338-4.688l12.038-32.432h4.561l9.815 32.666q.693 2.285 1.212 3.486.548 1.201 1.299 1.875.751.674 2.05.996v1.435h-13.308zm-11.085-15.82h12.066l-5.485-18.896-6.582 18.896zm40.299 2.666h-13.394v-4.541h13.394v4.541zm11.172 10.459h10.421q1.934 0 2.858-.352.953-.381 1.559-1.143.606-.791 1.097-2.197.491-1.406 1.184-4.365h2.829v10.752h-26.673v-1.435l19.774-35.859h-10.479q-1.126 0-1.79.205-.635.176-1.155.586-.52.381-1.039 1.143-.491.762-1.01 2.109-.491 1.318-1.039 3.311h-2.829v-10.049h26.038v1.406l-19.745 35.889z" style="line-height:125%;-inkscape-font-specification:Cambria" font-size="60" font-family="Cambria" letter-spacing="0" word-spacing="0" fill="#4e3f1f"/></g></svg>