<svg xmlns="http://www.w3.org/2000/svg" xmlns:svg="http://www.w3.org/2000/svg" id="svg2" width="128" height="128" version="1.1" viewBox="0 0 128 128"><metadata id="metadata7"/><g id="layer1" transform="translate(0,-924.36216)"><path style="fill:#a8854c;fill-opacity:1;fill-rule:evenodd;stroke:#000;stroke-width:0;stroke-linecap:butt;stroke-linejoin:round;stroke-miterlimit:4;stroke-dasharray:none;stroke-opacity:1" id="path4221" d="m 16.582008,1046.8836 0,-107.68789 c 0.268678,-7.88583 2.821127,-11.47031 7.254326,-11.67513 l 83.521626,-0.15807 c 2.76636,-0.0342 3.22403,2.60341 3.22403,5.26085 L 110.405,1042.9681 c 0.20067,4.0092 -3.08981,3.9942 -3.08981,3.9942 l -6.90542,0.1083 c -0.18732,4.2167 -0.26937,4.387 -3.224141,4.2676 l -76.439105,0 c -3.907185,0 -4.164519,0.1998 -4.164519,-4.455 z"/><path style="fill:#fff;fill-opacity:1;fill-rule:evenodd;stroke:#000;stroke-width:0;stroke-linecap:round;stroke-linejoin:round;stroke-miterlimit:4;stroke-dasharray:none;stroke-opacity:1" id="path4258" d="m 22.29891,937.54569 73.639178,0 c 5.750212,0.0985 5.128952,2.68325 5.171952,9.6779 l 0.18187,94.28241 c 1.82365,0.1448 4.62079,-1.8836 4.58597,-5.1073 l -0.18187,-96.83984 c 0.15109,-6.45263 -1.3372,-6.45263 -4.30125,-6.71744 l -75.30503,0 c -2.867481,-0.1804 -3.639719,0.84201 -3.790797,4.70427 z"/><rect style="fill:#4e3f1f;fill-opacity:1;fill-rule:evenodd;stroke:none;stroke-width:0;stroke-linecap:round;stroke-linejoin:round;stroke-miterlimit:4;stroke-dasharray:none;stroke-opacity:1" id="rect4139" width="51.482" height="6" x="33.259" y="951.362" ry=".9"/><g style="font-style:normal;font-variant:normal;font-weight:400;font-stretch:normal;font-size:60px;line-height:125%;font-family:Cambria;-inkscape-font-specification:Cambria;letter-spacing:0;word-spacing:0;fill:#4e3f1f;fill-opacity:1;stroke:none;stroke-width:1px;stroke-linecap:butt;stroke-linejoin:miter;stroke-opacity:1" id="text4139" transform="matrix(0.98533408,0,0,1,0.7761031,0)"><path id="path4144" d="m 39.902603,1032.7573 0,-1.4355 q 1.464844,-0.293 2.167969,-0.6446 0.732422,-0.3515 1.083984,-0.9668 0.351563,-0.6445 0.351563,-1.6992 0,-0.9961 -0.234375,-2.1386 -0.234375,-1.1719 -0.673828,-2.6075 l -1.083985,-3.7793 -13.652343,0 -0.996094,2.8711 q -0.761719,2.168 -0.996094,3.2813 -0.234375,1.1133 -0.234375,2.0215 0,1.7578 0.878906,2.5781 0.908203,0.8203 2.753907,1.084 l 0,1.4355 -12.509766,0 0,-1.4355 q 1.640625,-0.2637 2.841797,-1.9043 1.230469,-1.6406 2.373047,-4.6875 l 12.216797,-32.43166 4.628906,0 9.960937,32.66606 q 0.703125,2.2851 1.230469,3.4863 0.556641,1.2012 1.318359,1.875 0.761719,0.6738 2.080079,0.9961 l 0,1.4355 -13.50586,0 z m -11.25,-15.8203 12.246094,0 -5.566406,-18.89647 -6.679688,18.89647 z"/><path id="path4146" d="m 69.551041,1019.603 -13.59375,0 0,-4.541 13.59375,0 0,4.541 z"/><path id="path4148" d="m 80.888931,1030.062 10.576172,0 q 1.962891,0 2.900391,-0.3516 0.966797,-0.3808 1.582031,-1.1425 0.615234,-0.791 1.113281,-2.1973 0.498047,-1.4062 1.201172,-4.3652 l 2.871092,0 0,10.7519 -27.070311,0 0,-1.4355 20.06836,-35.8594 -10.634766,0 q -1.142578,0 -1.816406,0.20508 -0.644531,0.17578 -1.171875,0.58594 -0.527344,0.38086 -1.054688,1.14258 -0.498046,0.76171 -1.02539,2.10937 -0.498047,1.31833 -1.054688,3.31053 l -2.871093,0 0,-10.04881 26.425777,0 0,1.40625 -20.039059,35.88866 z"/></g></g></svg>