<svg xmlns="http://www.w3.org/2000/svg" xmlns:svg="http://www.w3.org/2000/svg" id="svg2" width="128" height="128" version="1.1" viewBox="0 0 128 128"><metadata id="metadata7"/><g id="layer1" transform="translate(0,-924.36216)"><path id="path8" d="m 97.75685,950.20353 -29.611681,0 -23.709931,-24.84123 -23.747868,0 c -10.8726981,0 -19.6873739,8.81466 -19.6873739,19.68737 l 0,61.78533 c 0,10.8728 8.8146758,19.6875 19.6873739,19.6875 l 33.305003,0 c 0.111101,0 0.218131,-0.015 0.327874,-0.018 l 0,5.1701 c 0,10.8714 8.814675,19.6874 19.687373,19.6874 l 33.30501,0 c 10.87269,0 19.68737,-8.816 19.68737,-19.6874 l 0,-50.83407 -29.24315,-30.63734 z m -76.576314,66.70757 c -5.435672,0 -9.844363,-4.4073 -9.844363,-9.8444 l 0,-61.85172 c 0,-5.43703 4.407337,-9.84437 9.844363,-9.84437 l 18.210583,0 c 2.717835,0 4.922182,2.20299 4.922182,4.92219 l 0,9.31731 c 0,2.71784 2.202991,4.92218 4.922181,4.92218 l 9.844365,0 c 2.717835,0 4.922181,2.20299 4.922181,4.92218 l 0,35.40507 0,12.20856 c 0,5.437 -4.407337,9.8444 -9.844364,9.8444 l -32.977128,0 z m 96.140394,14.9969 c 0,5.4384 -4.40734,9.8444 -9.84437,9.8444 l -32.975775,0 c -5.437026,0 -9.844364,-4.406 -9.844364,-9.8444 l 0,-8.5383 c 5.423479,-3.5077 9.021969,-9.5951 9.021969,-16.5333 l 0,-46.57986 c 0.270971,-0.023 0.543297,-0.0447 0.821041,-0.0447 l 18.209228,0 c 2.719191,0 4.922181,2.20299 4.922181,4.92218 l 0,9.31868 c 0,2.71784 2.204354,4.92218 4.92218,4.92218 l 9.84438,0 c 2.71918,0 4.92217,2.20304 4.92217,4.92223 l 0,47.61089 z" style="fill:#2271d5;fill-opacity:1"/><polygon id="polygon4" points="29.216 60.143 46.291 46.943 29.216 33.744 29.216 43.31 18.439 43.31 18.439 50.333 29.216 50.333" transform="matrix(1.3284504,0,0,1.4015682,2.5047034,916.06764)" style="fill:#2caf45;fill-opacity:1"/><polygon style="fill:#2caf45;fill-opacity:1" id="polygon4153" points="18.439 43.31 18.439 50.333 29.216 50.333 29.216 60.143 46.291 46.943 29.216 33.744 29.216 43.31" transform="matrix(-1.3284504,0,0,1.4015682,134.4953,948.06764)"/></g></svg>