<svg xmlns="http://www.w3.org/2000/svg" xmlns:xlink="http://www.w3.org/1999/xlink" width="128" height="128" viewBox="0 0 128 128"><defs><linearGradient id="a"><stop offset="0" stop-color="#34ae3d"/><stop offset="1" stop-color="#27812d"/></linearGradient><linearGradient xlink:href="#a" id="b" x1="18.439" y1="46.944" x2="46.291" y2="46.944" gradientUnits="userSpaceOnUse"/><linearGradient xlink:href="#a" id="c" x1="18.439" y1="46.944" x2="46.291" y2="46.944" gradientUnits="userSpaceOnUse"/></defs><path d="M97.757 25.841h-29.612l-23.71-24.841h-23.748c-10.873 0-19.687 8.815-19.687 19.687v61.785c0 10.873 8.815 19.688 19.687 19.688h33.305l.328-.018v5.17c0 10.871 8.815 19.687 19.687 19.687h33.305c10.873 0 19.687-8.816 19.687-19.687v-50.834l-29.243-30.637zm-76.576 66.708c-5.436 0-9.844-4.407-9.844-9.844v-61.852c0-5.437 4.407-9.844 9.844-9.844h18.211c2.718 0 4.922 2.203 4.922 4.922v9.317c0 2.718 2.203 4.922 4.922 4.922h9.844c2.718 0 4.922 2.203 4.922 4.922v47.614c0 5.437-4.407 9.844-9.844 9.844h-32.977zm96.14 14.997c0 5.438-4.407 9.844-9.844 9.844h-32.976c-5.437 0-9.844-4.406-9.844-9.844v-8.538c5.423-3.508 9.022-9.595 9.022-16.533v-46.58c.271-.023.543-.045.821-.045h18.209c2.719 0 4.922 2.203 4.922 4.922v9.319c0 2.718 2.204 4.922 4.922 4.922h9.844c2.719 0 4.922 2.203 4.922 4.922v47.611z" fill="#3027dd"/><path fill="url(#b)" d="M41.304 76.025l22.676-18.506-22.676-18.505v13.412h-14.312v9.846h14.312z"/><path fill="url(#c)" d="M110.008 84.426v9.846h-14.312v13.754l-22.676-18.506 22.676-18.505v13.412z"/></svg>