<svg xmlns="http://www.w3.org/2000/svg" xmlns:xlink="http://www.w3.org/1999/xlink" width="128" height="128" viewBox="0 0 128 128"><defs><linearGradient id="a"><stop offset="0" stop-color="#d33845"/><stop offset="1" stop-color="#882029"/></linearGradient><radialGradient xlink:href="#a" id="b" cx="64" cy="997.862" fx="64" fy="997.862" r="23" gradientTransform="matrix(1 0 0 1.457 0 -455.547)" gradientUnits="userSpaceOnUse"/></defs><path d="M20 956.362c-1.949.01-3.013 1.69-3 3v86c0 1.571 1.429 3 3 3h60c1.571 0 3-1.429 3-3v-70c.002-.786-.32-1.568-.875-2.125l-16-16c-.557-.555-1.339-.877-2.125-.875h-44zm3 6h38v13a3 3 0 0 0 3 3h13v64h-54v-80zm44 4.219l5.781 5.781h-5.781v-5.781z" style="text-indent:0;text-transform:none;block-progression:tb" overflow="visible" color="#000" enable-background="accumulate" transform="matrix(1.394 0 0 1.37 -5.697 -1308.8)" fill="#3027dd"/><path d="M52.629 52.586c0-4.164 3.4-7.551 7.581-7.551h7.581c4.181 0 7.581 3.387 7.581 7.551v7.206c1.724.458 3.411 1.018 5.054 1.672v-8.878c0-6.94-5.667-12.586-12.635-12.586h-7.581c-6.967 0-12.635 5.645-12.635 12.586v8.879c1.643-.654 3.33-1.215 5.054-1.673v-7.206zm11.371 9.08c-8.537 0-16.457 2.793-23.001 7.557 1.187 21.219 11.031 37.777 23.001 37.777 11.969 0 21.814-16.557 22.999-37.777-6.543-4.764-14.462-7.557-22.999-7.557zm2.779 19.547v7.251c0 1.528-1.244 2.769-2.78 2.769-1.535 0-2.78-1.24-2.78-2.769v-7.251c-1.169-.856-1.938-2.224-1.938-3.781 0-2.594 2.113-4.698 4.717-4.698 2.605 0 4.717 2.104 4.717 4.698 0 1.557-.768 2.925-1.938 3.781z" fill="url(#b)"/></svg>