<svg xmlns="http://www.w3.org/2000/svg" xmlns:svg="http://www.w3.org/2000/svg" id="svg2" width="128" height="128" version="1.1" viewBox="0 0 128 128"><metadata id="metadata7"/><g id="layer1" transform="translate(0,-924.36216)"><path id="path6-6" d="m 125.24493,1000.8422 c -1.58744,-2.02755 -4.0872,-3.04529 -6.68579,-3.04529 H 26.428127 c -4.627058,0 -8.133024,2.79579 -9.368384,7.20509 0,0 0,-0.1661 0,-0.1655 l -12.79591,46.5257 H 111.48791 c 2.20513,0 4.13539,-1.6265 4.69439,-3.7283 l 10.54507,-39.6145 c 0.65969,-2.4768 0.10562,-5.1496 -1.48244,-7.1772 z" style="fill:#3027dd;fill-opacity:1"/><path id="path8" d="m 26.428127,993.53604 h 16.838636 3.520788 2.391666 v -60.52687 c 0,-2.32704 3.251479,-2.16878 3.657297,-2.16878 h 42.324205 c 1.229805,0.6087 1.580031,0.36096 1.580031,1.59235 v 8.90765 c 0,2.83531 2.821573,6.54348 5.73703,6.54348 h 7.43875 c 1.36137,0 2.26628,-0.39322 2.26628,1.14922 v 44.50295 h 4.94145 v -47.44478 c 0,-1.92165 -0.19518,-4.36922 -2.03155,-6.2513 l -12.0899,-12.17818 c -1.59732,-1.63739 -3.665941,-2.29965 -6.366448,-2.29965 H 52.836514 c -4.601733,0 -9.216437,2.75861 -9.216437,7.64704 v 31.42757 c -4.323776,-0.5387 -8.42951,-1.9107 -10.14852,-6.02791 -1.030294,-2.46887 -3.200211,-4.438 -5.909366,-4.438 H 6.509723 C 3.588093,953.97083 1,956.23944 1,959.11857 v 7.03104 1.13583 76.97326 L 11.921863,1004.1 c 1.71777,-6.44126 7.748202,-10.56396 14.506264,-10.56396 z" style="fill:#2271d5;fill-opacity:1"/></g></svg>