<svg xmlns="http://www.w3.org/2000/svg" width="128" height="128" viewBox="0 0 128 128"><path d="M125.245 76.481c-1.587-2.028-4.087-3.045-6.686-3.045h-92.131c-4.627 0-8.133 2.796-9.368 7.205v-.166l-12.796 46.526h107.224c2.205 0 4.135-1.627 4.694-3.728l10.545-39.615c.66-2.477.106-5.15-1.482-7.177z" fill="#3027dd"/><path d="M26.429 69.174h22.752v-60.527c0-2.327 3.251-2.169 3.657-2.169h42.324c1.23.609 1.58.361 1.58 1.592v8.908c0 2.835 2.822 6.543 5.737 6.543h7.439c1.361 0 2.266-.393 2.266 1.149v44.503h4.941v-47.445c0-1.922-.195-4.369-2.032-6.251l-12.09-12.178c-1.597-1.637-3.666-2.3-6.366-2.3h-43.8c-4.602 0-9.216 2.759-9.216 7.647v31.428c-4.324-.539-8.43-1.911-10.149-6.028-1.03-2.469-3.2-4.438-5.909-4.438h-21.052c-2.922 0-5.51 2.269-5.51 5.148v85.14l10.922-40.159c1.718-6.441 7.748-10.564 14.506-10.564z" fill="#1c168e"/></svg>