<?xml version="1.0" encoding="UTF-8" standalone="no"?>
<!-- Created with Inkscape (http://www.inkscape.org/) -->

<svg
   xmlns:dc="http://purl.org/dc/elements/1.1/"
   xmlns:cc="http://creativecommons.org/ns#"
   xmlns:rdf="http://www.w3.org/1999/02/22-rdf-syntax-ns#"
   xmlns:svg="http://www.w3.org/2000/svg"
   xmlns="http://www.w3.org/2000/svg"
   xmlns:xlink="http://www.w3.org/1999/xlink"
   xmlns:sodipodi="http://sodipodi.sourceforge.net/DTD/sodipodi-0.dtd"
   xmlns:inkscape="http://www.inkscape.org/namespaces/inkscape"
   width="128"
   height="128"
   viewBox="0 0 128 128"
   id="svg2"
   version="1.1"
   inkscape:version="0.92.4 5da689c313, 2019-01-14"
   sodipodi:docname="document-encrypt.svg">
  <defs
     id="defs4">
    <linearGradient
       inkscape:collect="always"
       id="linearGradient4136">
      <stop
         style="stop-color:#d33845;stop-opacity:1;"
         offset="0"
         id="stop4138" />
      <stop
         style="stop-color:#882029;stop-opacity:1"
         offset="1"
         id="stop4140" />
    </linearGradient>
    <radialGradient
       inkscape:collect="always"
       xlink:href="#linearGradient4136"
       id="radialGradient4142"
       cx="64"
       cy="997.86218"
       fx="64"
       fy="997.86218"
       r="23"
       gradientTransform="matrix(1,0,0,1.4565226,0,-455.54665)"
       gradientUnits="userSpaceOnUse" />
  </defs>
  <sodipodi:namedview
     id="base"
     pagecolor="#ffffff"
     bordercolor="#666666"
     borderopacity="1.0"
     inkscape:pageopacity="0.0"
     inkscape:pageshadow="2"
     inkscape:zoom="7.919596"
     inkscape:cx="38.332091"
     inkscape:cy="69.707741"
     inkscape:document-units="px"
     inkscape:current-layer="layer1"
     showgrid="false"
     units="px"
     inkscape:window-width="2560"
     inkscape:window-height="1400"
     inkscape:window-x="0"
     inkscape:window-y="40"
     inkscape:window-maximized="0" />
  <metadata
     id="metadata7">
    <rdf:RDF>
      <cc:Work
         rdf:about="">
        <dc:format>image/svg+xml</dc:format>
        <dc:type
           rdf:resource="http://purl.org/dc/dcmitype/StillImage" />
        <dc:title />
        <dc:creator>
          <cc:Agent>
            <dc:title>Kovid Goyal</dc:title>
          </cc:Agent>
        </dc:creator>
        <dc:rights>
          <cc:Agent>
            <dc:title />
          </cc:Agent>
        </dc:rights>
        <dc:publisher>
          <cc:Agent>
            <dc:title />
          </cc:Agent>
        </dc:publisher>
        <cc:license
           rdf:resource="http://creativecommons.org/licenses/by-sa/3.0/" />
      </cc:Work>
      <cc:License
         rdf:about="http://creativecommons.org/licenses/by-sa/3.0/">
        <cc:permits
           rdf:resource="http://creativecommons.org/ns#Reproduction" />
        <cc:permits
           rdf:resource="http://creativecommons.org/ns#Distribution" />
        <cc:requires
           rdf:resource="http://creativecommons.org/ns#Notice" />
        <cc:requires
           rdf:resource="http://creativecommons.org/ns#Attribution" />
        <cc:permits
           rdf:resource="http://creativecommons.org/ns#DerivativeWorks" />
        <cc:requires
           rdf:resource="http://creativecommons.org/ns#ShareAlike" />
      </cc:License>
    </rdf:RDF>
  </metadata>
  <g
     inkscape:label="Layer 1"
     inkscape:groupmode="layer"
     id="layer1"
     transform="translate(0,-924.36216)">
    <g
       transform="matrix(1.3939367,0,0,1.3695651,-5.6968353,-384.43812)"
       id="g4"
       style="fill:#2271d5;fill-opacity:1">
      <path
         inkscape:connector-curvature="0"
         d="m 20.000054,956.3622 c -1.94862,0.01 -3.01295,1.69 -3,3 l 0,86 c 1.6e-4,1.5708 1.42925,2.9998 3,3 l 60,0 c 1.57075,-2e-4 2.99984,-1.4292 3,-3 l 0,-70 c 0.002,-0.7861 -0.32012,-1.5681 -0.875,-2.125 l -16,-16 c -0.55685,-0.5549 -1.33889,-0.8769 -2.125,-0.875 l -44,0 z m 3,6 38,0 0,13 a 3.0003,3.0003 0 0 0 3,3 l 13,0 0,64 -54,0 0,-80 z m 44,4.2188 5.78125,5.7812 -5.78125,0 0,-5.7812 z"
         style="color:#000000;text-indent:0;text-transform:none;direction:ltr;block-progression:tb;baseline-shift:baseline;display:inline;overflow:visible;visibility:visible;fill:#2271d5;fill-opacity:1;fill-rule:nonzero;stroke:none;marker:none;enable-background:accumulate"
         visibility="visible"
         display="inline"
         overflow="visible"
         id="path6" />
    </g>
    <path
       inkscape:connector-curvature="0"
       d="m 52.629128,976.9478 c 0,-4.16433 3.400295,-7.55138 7.580918,-7.55138 l 7.580918,0 c 4.180624,0 7.580918,3.38705 7.580918,7.55138 l 0,7.20605 c 1.724407,0.45811 3.411414,1.01793 5.053946,1.67238 l 0,-8.87843 c 0,-6.94022 -5.667494,-12.58564 -12.634864,-12.58564 l -7.580918,0 c -6.967369,0 -12.634863,5.64542 -12.634863,12.58564 l 0,8.87943 c 1.642532,-0.65445 3.329539,-1.21527 5.053945,-1.67338 l 0,-7.20605 z m 11.371377,9.0798 c -8.537124,0 -16.456657,2.79301 -23.000505,7.55743 1.186666,21.21947 11.030741,37.77717 23.000505,37.77717 11.968754,0 21.813839,-16.5567 22.999495,-37.77717 -6.542838,-4.76442 -14.46237,-7.55743 -22.999495,-7.55743 z m 2.77866,19.5471 0,7.2514 c 0,1.5284 -1.244282,2.7688 -2.77967,2.7688 -1.535389,0 -2.77967,-1.2404 -2.77967,-2.7688 l 0,-7.2514 c -1.169483,-0.8559 -1.937683,-2.2242 -1.937683,-3.7808 0,-2.59366 2.112549,-4.69798 4.717353,-4.69798 2.604803,0 4.717352,2.10432 4.717352,4.69798 0,1.5566 -0.768199,2.9249 -1.937682,3.7808 z"
       id="path4"
       style="fill:url(#radialGradient4142);fill-opacity:1" />
  </g>
</svg>
