<svg xmlns="http://www.w3.org/2000/svg" xmlns:xlink="http://www.w3.org/1999/xlink" width="128" height="128" viewBox="0 0 128 128"><defs><linearGradient xlink:href="#a" id="b" x1="64.402" y1="1023.187" x2="63.598" y2="953.272" gradientUnits="userSpaceOnUse" gradientTransform="matrix(.327 0 0 -.327 43.102 1283.843)"/><linearGradient id="a"><stop offset="0" stop-color="#016324"/><stop offset="1" stop-color="#16fb67"/></linearGradient><linearGradient xlink:href="#a" id="c" gradientUnits="userSpaceOnUse" gradientTransform="matrix(.327 0 0 .327 43.102 691.953)" x1="64.402" y1="1023.187" x2="63.598" y2="953.272"/></defs><path overflow="visible" style="text-indent:0;text-transform:none;block-progression:tb" d="M22.182.286c-2.716.014-4.2 2.315-4.182 4.109v53.229c0 2.151 1.992 4.109 4.182 4.109h83.636c2.19 0 4.182-1.957 4.182-4.109v-31.316c.003-1.077-.446-2.148-1.22-2.91l-22.303-21.913c-.776-.76-1.866-1.201-2.962-1.198zm4.182 8.217h52.97v17.804c0 2.269 1.872 4.108 4.182 4.109h18.121v23.099h-75.273zm61.333 5.778l8.059 7.918h-8.059zm-65.515 51.63c-2.716.014-4.2 2.315-4.182 4.109v53.229c0 2.151 1.992 4.109 4.182 4.109h83.636c2.19 0 4.182-1.957 4.182-4.109l-.219-53.193c-.005-1.888-.903-4.043-3.141-4.056zm4.182 8.217h74.666l.607 45.012h-75.273z" color="#000" fill="#3027dd" enable-background="accumulate"/><path d="M84.245 45.639q0-1.032-.751-1.786l-17.714-17.778q-.751-.754-1.779-.754t-1.779.754l-17.714 17.778q-.751.754-.751 1.786t.751 1.786q.751.754 1.779.754h35.429q1.028 0 1.779-.754.751-.754.751-1.786z" fill="url(#b)"/><path d="M84.245 81.433q0 1.032-.751 1.786l-17.714 17.778q-.751.754-1.779.754t-1.779-.754l-17.714-17.778q-.751-.754-.751-1.786t.751-1.786q.751-.754 1.779-.754h35.429q1.028 0 1.779.754.751.754.751 1.786z" fill="url(#c)"/></svg>