<svg xmlns="http://www.w3.org/2000/svg" xmlns:xlink="http://www.w3.org/1999/xlink" width="128" height="128" viewBox="0 0 128 128"><defs><linearGradient xlink:href="#a" id="b" x1="25.761" y1="988.362" x2="102.239" y2="988.362" gradientUnits="userSpaceOnUse" gradientTransform="matrix(.628 0 0 .639 23.832 368.14)"/><linearGradient id="a"><stop offset="0" stop-color="#557022"/><stop offset="1" stop-color="#95c43c"/></linearGradient></defs><path d="M20 956.362c-1.949.01-3.013 1.69-3 3v86c0 1.571 1.429 3 3 3h60c1.571 0 3-1.429 3-3v-70c.002-.786-.32-1.568-.875-2.125l-16-16c-.557-.555-1.339-.877-2.125-.875h-44zm3 6h38v13a3 3 0 0 0 3 3h13v64h-54v-80zm44 4.219l5.781 5.781h-5.781v-5.781z" style="text-indent:0;text-transform:none;block-progression:tb" overflow="visible" color="#000" enable-background="accumulate" transform="matrix(1.394 0 0 1.37 -5.697 -1308.8)" fill="#3027dd"/><path d="M87.12 49.965l-24.602 25.035 24.602 25.035q.88.896.88 2.122t-.88 2.122l-7.691 7.826q-.88.896-2.085.896t-2.085-.896l-34.378-34.983q-.88-.896-.88-2.122t.88-2.122l34.378-34.983q.88-.896 2.085-.896t2.085.896l7.691 7.826q.88.896.88 2.122t-.88 2.122z" fill="url(#b)"/></svg>