<svg xmlns="http://www.w3.org/2000/svg" xmlns:svg="http://www.w3.org/2000/svg" id="svg2" width="128" height="128" version="1.1" viewBox="0 0 128 128"><metadata id="metadata7"/><g id="layer1" transform="translate(0,-924.36216)"><path id="path6" d="m 22.181976,924.64788 c -2.716253,0.0137 -4.199861,2.31457 -4.18181,4.1087 l 0,53.22899 c 2.23e-4,2.1513 1.992284,4.1085 4.18181,4.1087 l 83.636194,0 c 2.18953,-2e-4 4.18159,-1.9574 4.18181,-4.1087 l 0,-31.31595 c 0.003,-1.07662 -0.44623,-2.14762 -1.21969,-2.91033 L 86.477307,925.84625 c -0.77621,-0.75997 -1.86633,-1.20097 -2.96212,-1.19837 z m 4.18181,8.21739 52.969595,0 0,17.80435 c 2.34e-4,2.26907 1.872355,4.10846 4.181806,4.10869 l 18.121173,0 0,23.09856 -75.272574,0 z m 61.333211,5.77792 8.0587,7.91773 -8.0587,0 z" display="inline" overflow="visible" visibility="visible" style="color:#000;text-indent:0;text-transform:none;direction:ltr;block-progression:tb;baseline-shift:baseline;display:inline;overflow:visible;visibility:visible;fill:#2271d5;fill-opacity:1;fill-rule:nonzero;stroke:none;marker:none;enable-background:accumulate"/><path style="color:#000;text-indent:0;text-transform:none;direction:ltr;block-progression:tb;baseline-shift:baseline;display:inline;overflow:visible;visibility:visible;fill:#2271d5;fill-opacity:1;fill-rule:nonzero;stroke:none;marker:none;enable-background:accumulate" id="path4139" d="m 22.18198,990.27288 c -2.716253,0.0137 -4.199861,2.31457 -4.18181,4.1087 l 0,53.22902 c 2.23e-4,2.1513 1.992284,4.1085 4.18181,4.1087 l 83.6362,0 c 2.18953,-2e-4 4.18159,-1.9574 4.18181,-4.1087 l -0.21907,-53.19292 c -0.005,-1.88755 -0.90332,-4.04296 -3.14069,-4.05551 z m 4.18181,8.21739 74.66602,0 0.60656,45.01163 -75.27258,0 z" display="inline" overflow="visible" visibility="visible"/><path id="path4" d="m 84.244916,970.00105 q 0,-1.03174 -0.751276,-1.7857 L 65.779338,950.43753 Q 65.028063,949.68357 64,949.68357 q -1.028062,0 -1.779338,0.75396 L 44.50636,968.21535 q -0.751276,0.75396 -0.751276,1.7857 0,1.03177 0.751276,1.7857 0.751277,0.75399 1.779339,0.75399 l 35.428602,0 q 1.028063,0 1.779339,-0.75399 0.751275,-0.75393 0.751275,-1.7857 z" style="fill:#2caf45;fill-opacity:1"/><path style="fill:#2caf45;fill-opacity:1" id="path4155" d="m 84.244916,1005.7947 q 0,1.0317 -0.751276,1.7857 l -17.714302,17.7778 q -0.751275,0.754 -1.779338,0.754 -1.028062,0 -1.779338,-0.754 L 44.50636,1007.5804 q -0.751276,-0.754 -0.751276,-1.7857 0,-1.0318 0.751276,-1.7857 0.751277,-0.754 1.779339,-0.754 l 35.428602,0 q 1.028063,0 1.779339,0.754 0.751275,0.7539 0.751275,1.7857 z"/></g></svg>