<?xml version="1.0" encoding="UTF-8" standalone="no"?>
<!-- Created with Inkscape (http://www.inkscape.org/) -->

<svg
   xmlns:dc="http://purl.org/dc/elements/1.1/"
   xmlns:cc="http://creativecommons.org/ns#"
   xmlns:rdf="http://www.w3.org/1999/02/22-rdf-syntax-ns#"
   xmlns:svg="http://www.w3.org/2000/svg"
   xmlns="http://www.w3.org/2000/svg"
   xmlns:sodipodi="http://sodipodi.sourceforge.net/DTD/sodipodi-0.dtd"
   xmlns:inkscape="http://www.inkscape.org/namespaces/inkscape"
   width="128"
   height="128"
   viewBox="0 0 128 128"
   id="svg2"
   version="1.1"
   inkscape:version="0.92.4 5da689c313, 2019-01-14"
   sodipodi:docname="document-split.svg">
  <defs
     id="defs4" />
  <sodipodi:namedview
     id="base"
     pagecolor="#ffffff"
     bordercolor="#666666"
     borderopacity="1.0"
     inkscape:pageopacity="0.0"
     inkscape:pageshadow="2"
     inkscape:zoom="11.2"
     inkscape:cx="50.5602"
     inkscape:cy="69.707741"
     inkscape:document-units="px"
     inkscape:current-layer="layer1"
     showgrid="false"
     units="px"
     inkscape:window-width="2560"
     inkscape:window-height="1400"
     inkscape:window-x="0"
     inkscape:window-y="40"
     inkscape:window-maximized="0" />
  <metadata
     id="metadata7">
    <rdf:RDF>
      <cc:Work
         rdf:about="">
        <dc:format>image/svg+xml</dc:format>
        <dc:type
           rdf:resource="http://purl.org/dc/dcmitype/StillImage" />
        <dc:title />
        <dc:creator>
          <cc:Agent>
            <dc:title>Kovid Goyal</dc:title>
          </cc:Agent>
        </dc:creator>
        <dc:rights>
          <cc:Agent>
            <dc:title />
          </cc:Agent>
        </dc:rights>
        <dc:publisher>
          <cc:Agent>
            <dc:title />
          </cc:Agent>
        </dc:publisher>
        <cc:license
           rdf:resource="http://creativecommons.org/licenses/by-sa/3.0/" />
      </cc:Work>
      <cc:License
         rdf:about="http://creativecommons.org/licenses/by-sa/3.0/">
        <cc:permits
           rdf:resource="http://creativecommons.org/ns#Reproduction" />
        <cc:permits
           rdf:resource="http://creativecommons.org/ns#Distribution" />
        <cc:requires
           rdf:resource="http://creativecommons.org/ns#Notice" />
        <cc:requires
           rdf:resource="http://creativecommons.org/ns#Attribution" />
        <cc:permits
           rdf:resource="http://creativecommons.org/ns#DerivativeWorks" />
        <cc:requires
           rdf:resource="http://creativecommons.org/ns#ShareAlike" />
      </cc:License>
    </rdf:RDF>
  </metadata>
  <g
     inkscape:label="Layer 1"
     inkscape:groupmode="layer"
     id="layer1"
     transform="translate(0,-924.36216)">
    <path
       id="path6"
       overflow="visible"
       display="inline"
       visibility="visible"
       style="color:#000000;text-indent:0;text-transform:none;direction:ltr;block-progression:tb;baseline-shift:baseline;display:inline;overflow:visible;visibility:visible;fill:#2271d5;fill-opacity:1;fill-rule:nonzero;stroke:none;marker:none;enable-background:accumulate"
       d="m 22.181976,924.64788 c -2.716253,0.0137 -4.199861,2.31457 -4.18181,4.1087 l 0,53.22899 c 2.23e-4,2.1513 1.992284,4.1085 4.18181,4.1087 l 83.636194,0 c 2.18953,-2e-4 4.18159,-1.9574 4.18181,-4.1087 l 0,-31.31595 c 0.003,-1.07662 -0.44623,-2.14762 -1.21969,-2.91033 L 86.477307,925.84625 c -0.77621,-0.75997 -1.86633,-1.20097 -2.96212,-1.19837 z m 4.18181,8.21739 52.969595,0 0,17.80435 c 2.34e-4,2.26907 1.872355,4.10846 4.181806,4.10869 l 18.121173,0 0,23.09856 -75.272574,0 z m 61.333211,5.77792 8.0587,7.91773 -8.0587,0 z"
       inkscape:connector-curvature="0"
       sodipodi:nodetypes="ccccccccccccccccccccccc" />
    <path
       sodipodi:nodetypes="cccccccccccccc"
       inkscape:connector-curvature="0"
       d="m 22.18198,990.27288 c -2.716253,0.0137 -4.199861,2.31457 -4.18181,4.1087 l 0,53.22902 c 2.23e-4,2.1513 1.992284,4.1085 4.18181,4.1087 l 83.6362,0 c 2.18953,-2e-4 4.18159,-1.9574 4.18181,-4.1087 l -0.21907,-53.19292 c -0.005,-1.88755 -0.90332,-4.04296 -3.14069,-4.05551 z m 4.18181,8.21739 74.66602,0 0.60656,45.01163 -75.27258,0 z"
       style="color:#000000;text-indent:0;text-transform:none;direction:ltr;block-progression:tb;baseline-shift:baseline;display:inline;overflow:visible;visibility:visible;fill:#2271d5;fill-opacity:1;fill-rule:nonzero;stroke:none;marker:none;enable-background:accumulate"
       visibility="visible"
       display="inline"
       overflow="visible"
       id="path4139" />
    <path
       inkscape:connector-curvature="0"
       d="m 84.244916,970.00105 q 0,-1.03174 -0.751276,-1.7857 L 65.779338,950.43753 Q 65.028063,949.68357 64,949.68357 q -1.028062,0 -1.779338,0.75396 L 44.50636,968.21535 q -0.751276,0.75396 -0.751276,1.7857 0,1.03177 0.751276,1.7857 0.751277,0.75399 1.779339,0.75399 l 35.428602,0 q 1.028063,0 1.779339,-0.75399 0.751275,-0.75393 0.751275,-1.7857 z"
       id="path4"
       style="fill:#2caf45;fill-opacity:1" />
    <path
       style="fill:#2caf45;fill-opacity:1"
       id="path4155"
       d="m 84.244916,1005.7947 q 0,1.0317 -0.751276,1.7857 l -17.714302,17.7778 q -0.751275,0.754 -1.779338,0.754 -1.028062,0 -1.779338,-0.754 L 44.50636,1007.5804 q -0.751276,-0.754 -0.751276,-1.7857 0,-1.0318 0.751276,-1.7857 0.751277,-0.754 1.779339,-0.754 l 35.428602,0 q 1.028063,0 1.779339,0.754 0.751275,0.7539 0.751275,1.7857 z"
       inkscape:connector-curvature="0" />
  </g>
</svg>
