<svg xmlns="http://www.w3.org/2000/svg" xmlns:xlink="http://www.w3.org/1999/xlink" width="128" height="128" viewBox="0 0 128 128"><defs><linearGradient id="a"><stop offset="0" stop-color="#34ae3d"/><stop offset="1" stop-color="#26822e"/></linearGradient><radialGradient xlink:href="#a" id="b" cx="64" cy="999.362" fx="64" fy="999.362" r="29" gradientTransform="translate(0 -.002)" gradientUnits="userSpaceOnUse"/></defs><path d="M20 956.362c-1.949.01-3.013 1.69-3 3v86c0 1.571 1.429 3 3 3h60c1.571 0 3-1.429 3-3v-70c.002-.786-.32-1.568-.875-2.125l-16-16c-.557-.555-1.339-.877-2.125-.875h-44zm3 6h38v13a3 3 0 0 0 3 3h13v64h-54v-80zm44 4.219l5.781 5.781h-5.781v-5.781z" style="text-indent:0;text-transform:none;block-progression:tb" overflow="visible" color="#000" enable-background="accumulate" transform="matrix(1.394 0 0 1.37 -5.697 -1308.8)" fill="#3027dd"/><path d="M93 71.045v7.909q0 1.648-1.153 2.801-1.153 1.153-2.801 1.153h-17.136v17.137q0 1.647-1.153 2.801-1.153 1.153-2.801 1.153h-7.909q-1.648 0-2.801-1.153-1.153-1.153-1.153-2.801v-17.137h-17.136q-1.648 0-2.801-1.153-1.153-1.153-1.153-2.801v-7.909q0-1.648 1.153-2.801 1.153-1.153 2.801-1.153h17.136v-17.136q0-1.648 1.153-2.801 1.153-1.153 2.801-1.153h7.909q1.648 0 2.801 1.153 1.153 1.153 1.153 2.801v17.136h17.136q1.648 0 2.801 1.153 1.153 1.153 1.153 2.801z" fill="url(#b)"/></svg>