<svg xmlns="http://www.w3.org/2000/svg" xmlns:xlink="http://www.w3.org/1999/xlink" width="128" height="128" viewBox="0 0 128 128"><defs><linearGradient id="a"><stop offset="0" stop-color="#535353"/><stop offset="1" stop-color="#585858" stop-opacity="0"/></linearGradient><linearGradient xlink:href="#a" id="b" x1="64.946" y1="1010.899" x2="66.821" y2="925.185" gradientUnits="userSpaceOnUse"/></defs><path d="M56.125 1c-18.506 0-33.77 14.368-35.345 32.592-11.32 2.971-19.78 13.464-19.78 25.845 0 14.461 11.419 26.149 25.594 26.743h23.625v-7.027c-2.362-2.179-3.938-5.355-3.938-8.821 0-6.537 5.316-11.886 11.813-11.886 6.497 0 11.813 5.349 11.813 11.886 0 3.467-1.575 6.642-3.938 8.821v7.027h43.312c9.745 0 17.719-8.023 17.719-17.829 0-9.806-7.973-17.828-17.719-17.828l-2.061.093c-.886-8.32-7.481-14.956-15.75-15.848-.886-18.819-16.445-33.769-35.345-33.769z" fill="url(#b)"/><path d="M58.094 62.409c-4.349 0-7.875 3.548-7.875 7.924 0 2.929 1.589 5.469 3.938 6.84v26.247h-8.183c-.886 0-1.163.576-.769 1.269l12.212 21.79c.394.693 1.083.693 1.477 0l12.182-21.79c.394-.693.013-1.269-.677-1.269h-8.367v-26.247c2.349-1.372 3.938-3.911 3.938-6.84 0-4.376-3.526-7.924-7.875-7.924z" fill="#2cbb38"/></svg>