<svg xmlns="http://www.w3.org/2000/svg" xmlns:svg="http://www.w3.org/2000/svg" xmlns:xlink="http://www.w3.org/1999/xlink" id="svg2" width="128" height="128" version="1.1" viewBox="0 0 128 128"><defs id="defs4"><radialGradient id="radialGradient4142" cx="64" cy="997.862" r="23" fx="64" fy="997.862" gradientTransform="matrix(1.5220295,0,0,2.7142189,3.5891658,-1714.6272)" gradientUnits="userSpaceOnUse" xlink:href="#linearGradient4136"/><linearGradient id="linearGradient4136"><stop style="stop-color:#2f9f33;stop-opacity:1" id="stop4138" offset="0"/><stop style="stop-color:#1a5920;stop-opacity:1" id="stop4140" offset="1"/></linearGradient><radialGradient id="radialGradient4169" cx="64" cy="997.862" r="23" fx="64" fy="997.862" gradientTransform="matrix(1.9130438,0,0,2.76303,-77.434796,-1769.3107)" gradientUnits="userSpaceOnUse" xlink:href="#linearGradient4136"/></defs><metadata id="metadata7"/><g id="layer1" transform="translate(0,-924.36216)"><path style="fill:url(#radialGradient4142);fill-opacity:1" id="path4163" d="m 83.692253,954.81541 c 0,-7.7602 5.17535,-14.07194 11.53838,-14.07194 l 11.538437,0 c 6.36333,0 11.53867,6.31174 11.53867,14.07194 l 0,13.42842 c 2.6246,0.85368 5.19228,1.8969 7.69226,3.11647 l 0,-16.54489 c 0,-12.93305 -8.62609,-23.45325 -19.23093,-23.45325 l -11.538437,0 C 84.626094,931.36216 76,941.88236 76,954.81541 l 0,16.54675 c 2.499982,-1.21957 5.067657,-2.26465 7.692253,-3.11833 l 0,-13.42842 z"/><path style="fill:url(#radialGradient4169);fill-opacity:1" id="path4161" d="m 45.000971,965.36224 c -16.331889,0 -31.482303,5.29835 -44.000971,14.33648 2.270144,40.25358 21.102291,71.66348 44.000971,71.66348 22.896744,0 41.730832,-31.4081 43.999032,-71.66348 C 76.48329,970.66059 61.332865,965.36224 45.000971,965.36224 Z"/><path style="fill:#fff;fill-opacity:.69135803" id="path4" d="m 50.316674,1002.4432 0,13.7559 c 0,2.8995 -2.380365,5.2525 -5.317636,5.2525 -2.93726,0 -5.317625,-2.353 -5.317625,-5.2525 l 0,-13.7559 c -2.237278,-1.6236 -3.706874,-4.21932 -3.706874,-7.1722 0,-4.92026 4.041398,-8.9121 9.024499,-8.9121 4.983101,0 9.0245,3.99184 9.0245,8.9121 0,2.95288 -1.469597,5.5486 -3.706864,7.1722 z"/></g></svg>