<?xml version="1.0" encoding="UTF-8" standalone="no"?>
<!-- Created with Inkscape (http://www.inkscape.org/) -->

<svg
   xmlns:dc="http://purl.org/dc/elements/1.1/"
   xmlns:cc="http://creativecommons.org/ns#"
   xmlns:rdf="http://www.w3.org/1999/02/22-rdf-syntax-ns#"
   xmlns:svg="http://www.w3.org/2000/svg"
   xmlns="http://www.w3.org/2000/svg"
   xmlns:xlink="http://www.w3.org/1999/xlink"
   xmlns:sodipodi="http://sodipodi.sourceforge.net/DTD/sodipodi-0.dtd"
   xmlns:inkscape="http://www.inkscape.org/namespaces/inkscape"
   width="128"
   height="128"
   viewBox="0 0 128 128"
   id="svg2"
   version="1.1"
   inkscape:version="0.91 r13725"
   sodipodi:docname="drm-locked.svg">
  <defs
     id="defs4">
    <radialGradient
       inkscape:collect="always"
       xlink:href="#linearGradient4136"
       id="radialGradient4142"
       cx="64"
       cy="997.86218"
       fx="64"
       fy="997.86218"
       r="23"
       gradientTransform="matrix(1.9130438,0,0,2.73913,-57.688489,-1744.9121)"
       gradientUnits="userSpaceOnUse" />
    <linearGradient
       inkscape:collect="always"
       id="linearGradient4136">
      <stop
         style="stop-color:#d33845;stop-opacity:1;"
         offset="0"
         id="stop4138" />
      <stop
         style="stop-color:#882029;stop-opacity:1"
         offset="1"
         id="stop4140" />
    </linearGradient>
  </defs>
  <sodipodi:namedview
     id="base"
     pagecolor="#ffffff"
     bordercolor="#666666"
     borderopacity="1.0"
     inkscape:pageopacity="0.0"
     inkscape:pageshadow="2"
     inkscape:zoom="11.2"
     inkscape:cx="-10.424833"
     inkscape:cy="69.707741"
     inkscape:document-units="px"
     inkscape:current-layer="layer1"
     showgrid="false"
     units="px"
     inkscape:window-width="3840"
     inkscape:window-height="2128"
     inkscape:window-x="0"
     inkscape:window-y="32"
     inkscape:window-maximized="0" />
  <metadata
     id="metadata7">
    <rdf:RDF>
      <cc:Work
         rdf:about="">
        <dc:format>image/svg+xml</dc:format>
        <dc:type
           rdf:resource="http://purl.org/dc/dcmitype/StillImage" />
        <dc:title />
        <dc:creator>
          <cc:Agent>
            <dc:title>Kovid Goyal</dc:title>
          </cc:Agent>
        </dc:creator>
        <dc:rights>
          <cc:Agent>
            <dc:title />
          </cc:Agent>
        </dc:rights>
        <dc:publisher>
          <cc:Agent>
            <dc:title />
          </cc:Agent>
        </dc:publisher>
        <cc:license
           rdf:resource="http://creativecommons.org/licenses/by-sa/3.0/" />
      </cc:Work>
      <cc:License
         rdf:about="http://creativecommons.org/licenses/by-sa/3.0/">
        <cc:permits
           rdf:resource="http://creativecommons.org/ns#Reproduction" />
        <cc:permits
           rdf:resource="http://creativecommons.org/ns#Distribution" />
        <cc:requires
           rdf:resource="http://creativecommons.org/ns#Notice" />
        <cc:requires
           rdf:resource="http://creativecommons.org/ns#Attribution" />
        <cc:permits
           rdf:resource="http://creativecommons.org/ns#DerivativeWorks" />
        <cc:requires
           rdf:resource="http://creativecommons.org/ns#ShareAlike" />
      </cc:License>
    </rdf:RDF>
  </metadata>
  <g
     inkscape:label="Layer 1"
     inkscape:groupmode="layer"
     id="layer1"
     transform="translate(0,-924.36216)">
    <path
       style="fill:url(#radialGradient4142);fill-opacity:1"
       d="m 42.993338,949.03066 c 0,-7.83142 6.504914,-14.20109 14.502626,-14.20109 l 14.502628,0 c 7.997723,0 14.502627,6.36967 14.502627,14.20109 l 0,13.55167 c 3.298864,0.86152 6.526184,1.91431 9.668421,3.14507 l 0,-16.69674 c 0,-13.05175 -10.84216,-23.6685 -24.171048,-23.6685 l -14.502628,0 c -13.328879,0 -24.171044,10.61675 -24.171044,23.6685 l 0,16.69862 c 3.142236,-1.23076 6.369554,-2.28543 9.668418,-3.14695 l 0,-13.55167 z"
       id="path4142" />
    <path
       style="fill:url(#radialGradient4142);fill-opacity:1"
       d="m 64.747278,966.10609 c -16.331889,0 -31.482303,5.25252 -44.000971,14.21247 2.270144,39.90534 21.102291,71.04364 44.000971,71.04364 22.896744,0 41.730832,-31.1365 43.999032,-71.04364 -12.516713,-8.95995 -27.667138,-14.21247 -43.999032,-14.21247 z"
       id="path4140" />
    <path
       style="fill:#ffffff;fill-opacity:0.6901961"
       d="m 70.062981,1002.8663 0,13.6369 c 0,2.8744 -2.380365,5.2071 -5.317636,5.2071 -2.93726,0 -5.317625,-2.3327 -5.317625,-5.2071 l 0,-13.6369 c -2.237278,-1.6096 -3.706874,-4.18282 -3.706874,-7.11016 0,-4.8777 4.041398,-8.83501 9.024499,-8.83501 4.983101,0 9.0245,3.95731 9.0245,8.83501 0,2.92734 -1.469597,5.50056 -3.706864,7.11016 z"
       id="path4" />
  </g>
</svg>
