<svg xmlns="http://www.w3.org/2000/svg" xmlns:xlink="http://www.w3.org/1999/xlink" width="128" height="128" viewBox="0 0 128 128"><defs><radialGradient xlink:href="#a" id="b" cx="64" cy="997.862" fx="64" fy="997.862" r="23" gradientTransform="matrix(1.522 0 0 2.714 3.589 -1714.627)" gradientUnits="userSpaceOnUse"/><linearGradient id="a"><stop offset="0" stop-color="#2f9f33"/><stop offset="1" stop-color="#1a5920"/></linearGradient><radialGradient xlink:href="#a" id="c" gradientUnits="userSpaceOnUse" gradientTransform="matrix(1.913 0 0 2.763 -77.435 -1769.311)" cx="64" cy="997.862" fx="64" fy="997.862" r="23"/></defs><path d="M83.692 30.453c0-7.76 5.175-14.072 11.538-14.072h11.538c6.363 0 11.539 6.312 11.539 14.072v13.428c2.625.854 5.192 1.897 7.692 3.116v-16.545c0-12.933-8.626-23.453-19.231-23.453h-11.538c-10.605 0-19.231 10.52-19.231 23.453v16.547c2.5-1.22 5.068-2.265 7.692-3.118v-13.428z" fill="url(#b)"/><path d="M45.001 41c-16.332 0-31.482 5.298-44.001 14.336 2.27 40.254 21.102 71.663 44.001 71.663 22.897 0 41.731-31.408 43.999-71.663-12.517-9.038-27.667-14.336-43.999-14.336z" fill="url(#c)"/><path d="M50.317 78.081v13.756c0 2.9-2.38 5.253-5.318 5.253-2.937 0-5.318-2.353-5.318-5.253v-13.756c-2.237-1.624-3.707-4.219-3.707-7.172 0-4.92 4.041-8.912 9.024-8.912 4.983 0 9.024 3.992 9.024 8.912 0 2.953-1.47 5.549-3.707 7.172z" fill="#fff" fill-opacity=".691"/></svg>