<svg xmlns="http://www.w3.org/2000/svg" xmlns:xlink="http://www.w3.org/1999/xlink" width="128" height="128" viewBox="0 0 128 128"><defs><radialGradient xlink:href="#a" id="b" cx="64" cy="997.862" fx="64" fy="997.862" r="23" gradientTransform="matrix(1.913 0 0 2.739 -57.688 -1744.912)" gradientUnits="userSpaceOnUse"/><linearGradient id="a"><stop offset="0" stop-color="#d33845"/><stop offset="1" stop-color="#882029"/></linearGradient></defs><path d="M42.993 24.668c0-7.831 6.505-14.201 14.503-14.201h14.503c7.998 0 14.503 6.37 14.503 14.201v13.552c3.299.862 6.526 1.914 9.668 3.145v-16.697c0-13.052-10.842-23.669-24.171-23.669h-14.503c-13.329 0-24.171 10.617-24.171 23.669v16.699c3.142-1.231 6.37-2.285 9.668-3.147v-13.552zm21.754 17.076c-16.332 0-31.482 5.253-44.001 14.212 2.27 39.905 21.102 71.044 44.001 71.044 22.897 0 41.731-31.137 43.999-71.044-12.517-8.96-27.667-14.212-43.999-14.212z" fill="url(#b)"/><path d="M70.063 78.504v13.637c0 2.874-2.38 5.207-5.318 5.207-2.937 0-5.318-2.333-5.318-5.207v-13.637c-2.237-1.61-3.707-4.183-3.707-7.11 0-4.878 4.041-8.835 9.024-8.835 4.983 0 9.024 3.957 9.024 8.835 0 2.927-1.47 5.501-3.707 7.11z" fill="#fff" fill-opacity=".69"/></svg>