<?xml version="1.0" encoding="UTF-8" standalone="no"?>
<!-- Created with Inkscape (http://www.inkscape.org/) -->

<svg
   xmlns:dc="http://purl.org/dc/elements/1.1/"
   xmlns:cc="http://creativecommons.org/ns#"
   xmlns:rdf="http://www.w3.org/1999/02/22-rdf-syntax-ns#"
   xmlns:svg="http://www.w3.org/2000/svg"
   xmlns="http://www.w3.org/2000/svg"
   xmlns:sodipodi="http://sodipodi.sourceforge.net/DTD/sodipodi-0.dtd"
   xmlns:inkscape="http://www.inkscape.org/namespaces/inkscape"
   inkscape:version="0.91 r13725"
   version="1.1"
   id="svg2"
   viewBox="0 0 128 128"
   height="128"
   width="128"
   sodipodi:docname="edit_book.svg">
  <defs
     id="defs4">
    <inkscape:perspective
       sodipodi:type="inkscape:persp3d"
       inkscape:vp_x="-198.49498 : 62.232233 : 1"
       inkscape:vp_y="0 : 1000 : 0"
       inkscape:vp_z="128 : 64 : 1"
       inkscape:persp3d-origin="64 : 42.666667 : 1"
       id="perspective4203" />
  </defs>
  <sodipodi:namedview
     inkscape:window-maximized="0"
     inkscape:window-y="32"
     inkscape:window-x="0"
     inkscape:window-height="2128"
     inkscape:window-width="3840"
     units="px"
     showgrid="true"
     inkscape:current-layer="layer1"
     inkscape:document-units="px"
     inkscape:cy="54.689889"
     inkscape:cx="7.7410719"
     inkscape:zoom="11.2"
     inkscape:pageshadow="2"
     inkscape:pageopacity="0.0"
     borderopacity="1.0"
     bordercolor="#666666"
     pagecolor="#ffffff"
     id="base">
    <inkscape:grid
       type="xygrid"
       id="grid4260" />
  </sodipodi:namedview>
  <metadata
     id="metadata7">
    <rdf:RDF>
      <cc:Work
         rdf:about="">
        <dc:format>image/svg+xml</dc:format>
        <dc:type
           rdf:resource="http://purl.org/dc/dcmitype/StillImage" />
        <dc:title />
        <dc:creator>
          <cc:Agent>
            <dc:title>Kovid Goyal</dc:title>
          </cc:Agent>
        </dc:creator>
        <dc:rights>
          <cc:Agent>
            <dc:title />
          </cc:Agent>
        </dc:rights>
        <dc:publisher>
          <cc:Agent>
            <dc:title />
          </cc:Agent>
        </dc:publisher>
        <cc:license
           rdf:resource="http://creativecommons.org/licenses/by-sa/3.0/" />
      </cc:Work>
      <cc:License
         rdf:about="http://creativecommons.org/licenses/by-sa/3.0/">
        <cc:permits
           rdf:resource="http://creativecommons.org/ns#Reproduction" />
        <cc:permits
           rdf:resource="http://creativecommons.org/ns#Distribution" />
        <cc:requires
           rdf:resource="http://creativecommons.org/ns#Notice" />
        <cc:requires
           rdf:resource="http://creativecommons.org/ns#Attribution" />
        <cc:permits
           rdf:resource="http://creativecommons.org/ns#DerivativeWorks" />
        <cc:requires
           rdf:resource="http://creativecommons.org/ns#ShareAlike" />
      </cc:License>
    </rdf:RDF>
  </metadata>
  <g
     inkscape:label="Layer 1"
     inkscape:groupmode="layer"
     id="layer1"
     transform="translate(0,-924.36216)">
    <path
       style="fill:#9f74e0;fill-opacity:1;fill-rule:evenodd;stroke:#000000;stroke-width:0;stroke-linecap:butt;stroke-linejoin:round;stroke-miterlimit:4;stroke-dasharray:none;stroke-opacity:1"
       d="m 16.582008,1046.8836 0,-107.68789 c 0.268678,-7.88583 2.821127,-11.47031 7.254326,-11.67513 l 83.521626,-0.15807 c 2.76636,-0.0342 3.22403,2.60341 3.22403,5.26085 L 110.405,1042.9681 c 0.20067,4.0092 -3.08981,3.9942 -3.08981,3.9942 l -6.90542,0.1083 c -0.18732,4.2167 -0.26937,4.387 -3.224141,4.2676 l -76.439105,0 c -3.907185,0 -4.164519,0.1998 -4.164519,-4.455 z"
       id="path4221"
       inkscape:connector-curvature="0"
       sodipodi:nodetypes="cccccccccccc" />
    <path
       style="fill:#ffffff;fill-opacity:1;fill-rule:evenodd;stroke:#000000;stroke-width:0;stroke-linecap:round;stroke-linejoin:round;stroke-miterlimit:4;stroke-dasharray:none;stroke-opacity:1"
       d="m 22.29891,937.54569 73.639178,0 c 5.750212,0.0985 5.128952,2.68325 5.171952,9.6779 l 0.18187,94.28241 c 1.82365,0.1448 4.62079,-1.8836 4.58597,-5.1073 l -0.18187,-96.83984 c 0.15109,-6.45263 -1.3372,-6.45263 -4.30125,-6.71744 l -75.30503,0 c -2.867481,-0.1804 -3.639719,0.84201 -3.790797,4.70427 z"
       id="path4258"
       inkscape:connector-curvature="0"
       sodipodi:nodetypes="cccccccccc" />
    <rect
       style="fill:#4700b3;fill-opacity:1;fill-rule:evenodd;stroke:none;stroke-width:0;stroke-linecap:round;stroke-linejoin:round;stroke-miterlimit:4;stroke-dasharray:none;stroke-opacity:1"
       id="rect4139"
       width="51.482143"
       height="6"
       x="33.258926"
       y="951.36218"
       ry="0.89999998" />
    <path
       id="path6"
       d="m 42.832038,1024.073 c -2.092323,5.5917 -3.682226,-17.0977 0.897337,-21.55 0.09068,2.3439 0.879784,2.7812 1.469965,4.8465 1.192792,-3.9389 1.29664,-8.34146 2.889468,-12.18756 1.514576,-3.65952 3.394083,-6.44514 6.409339,-8.84681 0.552883,0.92805 0.892949,1.92558 1.431205,2.8273 3.314367,-11.51911 15.544327,-10.51207 23.760777,-15.71253 0.27205,2.05941 -0.87248,4.36016 -1.08968,6.40861 -0.24207,2.27296 -0.29326,4.45304 -1.12624,6.53805 -2.0872,5.22608 -6.00418,6.47808 -10.020623,9.60008 1.865613,-0.1857 3.522063,-0.4578 5.424973,-0.5185 -3.12861,0.7467 -3.310709,3.8973 -4.468399,6.01656 -1.719349,3.1469 -3.881878,3.5367 -6.732589,5.082 1.736171,-0.3569 4.152471,0.5105 5.363547,1.598 -4.139304,2.7951 -4.843573,7.8559 -8.464368,10.9362 -2.955286,2.5158 -10.362885,4.5606 -11.283625,8.5031 l -6.772808,11.8753 c 0,0 12.439852,-41.56196 26.743854,-51.81804 0,-5.5e-4 -10.661999,-0.40735 -24.432133,36.40174 z"
       inkscape:connector-curvature="0"
       style="fill:#4700b3;fill-opacity:1" />
  </g>
</svg>
