<svg xmlns="http://www.w3.org/2000/svg" xmlns:svg="http://www.w3.org/2000/svg" xmlns:xlink="http://www.w3.org/1999/xlink" id="svg2" width="128" height="128" version="1.1" viewBox="0 0 128 128"><defs id="defs4"><linearGradient id="linearGradient4172"><stop style="stop-color:#5b3619;stop-opacity:1" id="stop4174" offset="0"/><stop style="stop-color:#975a2a;stop-opacity:1" id="stop4176" offset="1"/></linearGradient><linearGradient id="linearGradient4164"><stop style="stop-color:#ddd;stop-opacity:1" id="stop4166" offset="0"/><stop style="stop-color:#969696;stop-opacity:.99794239" id="stop4168" offset="1"/></linearGradient><linearGradient id="linearGradient4170" x1="53.244" x2="120.854" y1="1009.874" y2="1009.874" gradientUnits="userSpaceOnUse" xlink:href="#linearGradient4164"/><linearGradient id="linearGradient4178" x1="46.7" x2="46.7" y1="934.894" y2="1030.073" gradientUnits="userSpaceOnUse" xlink:href="#linearGradient4172"/></defs><metadata id="metadata7"/><g id="layer1" transform="translate(0,-924.36216)"><path id="path4" d="m 55,1897.4872 63,0 0,-45 -29.25,0 q -2.8125,0 -4.78125,-1.9687 Q 82,1848.5497 82,1845.7372 l 0,-29.25 -27,0 0,81 z m 18,-101.25 0,-4.5 q 0,-0.9141 -0.66797,-1.582 -0.66797,-0.668 -1.58203,-0.668 l -49.5,0 q -0.91406,0 -1.58203,0.668 Q 19,1790.8231 19,1791.7372 l 0,4.5 q 0,0.9141 0.66797,1.582 0.66797,0.668 1.58203,0.668 l 49.5,0 q 0.91406,0 1.58203,-0.668 Q 73,1797.1513 73,1796.2372 Z m 18,47.25 21.02344,0 L 91,1822.4638 l 0,21.0234 z m 36,9 0,47.25 q 0,2.8125 -1.96875,4.7813 -1.96875,1.9687 -4.78125,1.9687 l -67.5,0 q -2.8125,0 -4.78125,-1.9687 Q 46,1902.5497 46,1899.7372 l 0,-11.25 -38.25,0 q -2.8125,0 -4.78125,-1.9687 Q 1,1884.5497 1,1881.7372 l 0,-94.5 q 0,-2.8125 1.96875,-4.7813 1.96875,-1.9687 4.78125,-1.9687 l 76.5,0 q 2.8125,0 4.78125,1.9687 Q 91,1784.4247 91,1787.2372 l 0,23.0625 q 1.47656,0.9141 2.53125,1.9687 l 28.6875,28.6875 q 1.96875,1.9688 3.375,5.3438 1.40625,3.375 1.40625,6.1875 z"/><path style="color:#000;display:inline;overflow:visible;visibility:visible;opacity:1;fill:#b3b3b3;fill-opacity:1;stroke:none;stroke-width:4;stroke-linecap:round;stroke-linejoin:round;stroke-miterlimit:4;stroke-dasharray:none;stroke-dashoffset:0;stroke-opacity:1;marker:none;enable-background:accumulate" id="path4162" d="m 35.477134,925.36215 -4.081555,12.29269 34.477134,0 -4.081555,-12.29269 -26.314024,0 z"/><path style="color:#000;display:inline;overflow:visible;visibility:visible;opacity:1;fill:url(#linearGradient4178);fill-opacity:1;stroke:none;stroke-width:4;stroke-linecap:round;stroke-linejoin:round;stroke-miterlimit:4;stroke-dasharray:none;stroke-dashoffset:0;stroke-opacity:1;marker:none;enable-background:accumulate" id="path4160" d="m 7.1463402,934.58167 0,95.26833 39.9512208,0 0,-64.53663 c 1.61e-4,-1.60906 1.464106,-3.07301 3.07317,-3.07317 l 39.951221,0 0,-27.65853 -18.775153,0 1.728659,5.13795 a 3.0734781,3.0734781 0 0 1 -2.929116,4.08156 l -43.024392,0 a 3.0734781,3.0734781 0 0 1 -2.929116,-4.08156 l 1.728659,-5.13795 -18.7751528,0 z"/><path style="color:#000;display:inline;overflow:visible;visibility:visible;opacity:1;fill:url(#linearGradient4170);fill-opacity:1;stroke:none;stroke-width:4;stroke-linecap:round;stroke-linejoin:round;stroke-miterlimit:4;stroke-dasharray:none;stroke-dashoffset:0;stroke-opacity:1;marker:none;enable-background:accumulate" id="path4158" d="m 53.243902,968.38655 0,82.97565 67.609758,0 0,-55.31712 -24.585367,0 a 3.0734781,3.0734781 0 0 1 -3.07317,-3.07317 l 0,-24.58536 -39.951221,0 z"/><path style="color:#000;display:inline;overflow:visible;visibility:visible;opacity:1;fill:#686868;fill-opacity:1;stroke:none;stroke-width:4;stroke-linecap:round;stroke-linejoin:round;stroke-miterlimit:4;stroke-dasharray:none;stroke-dashoffset:0;stroke-opacity:1;marker:none;enable-background:accumulate" id="path6" d="m 99.341464,968.38655 0,21.51219 21.512196,0 -21.512196,-21.51219 z"/></g></svg>