<svg xmlns="http://www.w3.org/2000/svg" width="128" height="128" viewBox="0 0 128 128"><path d="M60.953 76.903l-14.292 4.643 4.203-14.773zm4.625-4.218l-9.248-10.132 45.823-47.275 10.299 10.344zm61.463-61.382l-11.927 11.163-9.863-10.15 11.771-11.324" fill="#ea8404"/><path d="M83.466 39.503v43.009c0 3.3-2.7 6-6 6h-59.955c-3.3 0-6-2.7-6-6v-59.672c0-3.3 2.7-6 6-6h43.575" transform="matrix(1.484 0 0 1.49 -11.621 -9.392)" stroke="#3244c4" fill="none"/><path stroke="#000" stroke-width="4.461" d="M24.725 94.197h68.241m-68.241 11.924h68.241" fill="none"/></svg>