<svg xmlns="http://www.w3.org/2000/svg" xmlns:xlink="http://www.w3.org/1999/xlink" width="128" height="128" viewBox="0 0 128 128"><defs><linearGradient id="b"><stop offset="0" stop-color="#5b3619"/><stop offset="1" stop-color="#975a2a"/></linearGradient><linearGradient id="a"><stop offset="0" stop-color="#ddd"/><stop offset="1" stop-color="#969696" stop-opacity=".998"/></linearGradient><linearGradient xlink:href="#a" id="d" x1="53.244" y1="1009.874" x2="120.854" y2="1009.874" gradientUnits="userSpaceOnUse"/><linearGradient xlink:href="#b" id="c" x1="46.7" y1="934.894" x2="46.7" y2="1030.073" gradientUnits="userSpaceOnUse"/></defs><path d="M55 973.125h63v-45h-29.25q-2.813 0-4.781-1.969-1.969-1.969-1.969-4.781v-29.25h-27v81zm18-101.25v-4.5q0-.914-.668-1.582t-1.582-.668h-49.5q-.914 0-1.582.668t-.668 1.582v4.5q0 .914.668 1.582t1.582.668h49.5q.914 0 1.582-.668t.668-1.582zm18 47.25h21.023l-21.023-21.023v21.023zm36 9v47.25q0 2.813-1.969 4.781-1.969 1.969-4.781 1.969h-67.5q-2.813 0-4.781-1.969-1.969-1.969-1.969-4.781v-11.25h-38.25q-2.813 0-4.781-1.969-1.969-1.969-1.969-4.781v-94.5q0-2.813 1.969-4.781 1.969-1.969 4.781-1.969h76.5q2.813 0 4.781 1.969 1.969 1.969 1.969 4.781v23.063q1.477.914 2.531 1.969l28.688 28.688q1.969 1.969 3.375 5.344t1.406 6.188z"/><path d="M35.477 1l-4.082 12.293h34.477l-4.082-12.293h-26.314z" color="#000" overflow="visible" fill="#3c3c3c" enable-background="accumulate"/><path d="M7.146 934.582v95.268h39.951v-64.537c0-1.609 1.464-3.073 3.073-3.073h39.951v-27.659h-18.775l1.729 5.138a3.073 3.073 0 0 1-2.929 4.082h-43.024a3.073 3.073 0 0 1-2.929-4.082l1.729-5.138h-18.775z" color="#000" overflow="visible" fill="url(#c)" enable-background="accumulate" transform="translate(0 -924.362)"/><path d="M53.244 968.387v82.976h67.61v-55.317h-24.585a3.073 3.073 0 0 1-3.073-3.073v-24.585h-39.951z" color="#000" overflow="visible" fill="url(#d)" enable-background="accumulate" transform="translate(0 -924.362)"/><path d="M99.341 44.025v21.512h21.512l-21.512-21.512z" color="#000" overflow="visible" fill="#3c3c3c" enable-background="accumulate"/></svg>