<svg xmlns="http://www.w3.org/2000/svg" width="128" height="128" viewBox="0 0 128 128"><path d="M-874.998 636.586q1.828 0 3.163 1.336 1.336 1.336 1.336 3.163 0 1.828-1.336 3.163-1.336 1.336-3.163 1.336-1.828 0-3.163-1.336-1.336-1.336-1.336-3.163 0-1.828 1.336-3.163 1.336-1.336 3.163-1.336zm21.088 4.499l35.639 27.977q1.968 1.406 1.757 3.937-.351 2.46-2.46 3.585l-8.998 4.499q-.914.492-2.039.492-1.195 0-2.179-.562l-48.502-27.203-7.732 4.639q-.562.281-.844.351.984 3.444.703 6.819-.492 5.413-3.936 10.368-3.444 4.956-9.279 8.681-9.279 5.905-19.471 5.905-9.56 0-15.605-5.483-6.326-5.905-5.553-14.551.492-5.342 3.936-10.333 3.444-4.991 9.208-8.716 9.279-5.905 19.542-5.905 5.834 0 10.614 2.179.633-.914 1.546-1.546l8.576-5.131-8.576-5.131q-.914-.633-1.546-1.546-4.78 2.179-10.614 2.179-10.263 0-19.542-5.905-5.764-3.726-9.208-8.716-3.444-4.991-3.936-10.333-.351-4.147 1.09-7.943 1.441-3.796 4.464-6.537 5.975-5.553 15.605-5.553 10.193 0 19.471 5.905 5.834 3.655 9.279 8.646 3.444 4.991 3.936 10.403.281 3.374-.703 6.819.281.07.844.351l7.732 4.639 48.502-27.203q.984-.562 2.179-.562 1.125 0 2.039.492l8.998 4.499q2.109 1.125 2.46 3.585.211 2.531-1.757 3.936zm-47.87-18.276q3.233-2.952 1.476-7.592-1.757-4.639-7.451-8.224-6.467-4.147-13.496-4.147-5.202 0-7.943 2.531-3.233 2.952-1.476 7.592 1.757 4.639 7.451 8.224 6.467 4.147 13.496 4.147 5.202 0 7.943-2.531zm-5.975 52.369q5.694-3.585 7.451-8.224 1.757-4.639-1.476-7.592-2.741-2.531-7.943-2.531-7.029 0-13.496 4.147-5.694 3.585-7.451 8.224-1.757 4.639 1.476 7.592 2.741 2.531 7.943 2.531 7.029 0 13.496-4.147zm12.512-43.09l6.748 4.077v-.773q0-2.53 2.32-3.936l.984-.562-5.553-3.304-1.828 1.828q-.211.211-.703.773t-.844.844l-.281.246-.211.176zm15.746 15.746l6.748 2.249 51.736-40.489-8.998-4.499-53.985 30.296v7.943l-11.247 6.748.633.562q.141.141.492.422.281.281.773.844.492.562.773.844l1.828 1.828zm49.487 29.242l8.998-4.499-36.553-28.68-12.442 9.7q-.141.211-.914.492z"/><path d="M68.496 59.501q1.828 0 3.163 1.336 1.336 1.336 1.336 3.163 0 1.828-1.336 3.163-1.336 1.336-3.163 1.336-1.828 0-3.163-1.336-1.336-1.336-1.336-3.163 0-1.828 1.336-3.163 1.336-1.336 3.163-1.336zm21.088 4.499l35.639 27.977q1.968 1.406 1.757 3.937-.351 2.46-2.46 3.585l-8.998 4.499q-.914.492-2.039.492-1.195 0-2.179-.562l-48.502-27.203-7.732 4.639q-.562.281-.844.351.984 3.444.703 6.819-.492 5.413-3.936 10.368-3.444 4.956-9.279 8.681-9.279 5.905-19.471 5.905-9.56 0-15.605-5.483-6.326-5.905-5.553-14.551.492-5.342 3.936-10.333 3.444-4.991 9.208-8.716 9.279-5.905 19.542-5.905 5.834 0 10.614 2.179.633-.914 1.546-1.546l8.576-5.131-8.576-5.131q-.914-.633-1.546-1.546-4.78 2.179-10.614 2.179-10.263 0-19.542-5.905-5.764-3.726-9.208-8.716-3.444-4.991-3.936-10.333-.351-4.147 1.09-7.943 1.441-3.796 4.464-6.537 5.975-5.553 15.605-5.553 10.193 0 19.471 5.905 5.834 3.655 9.279 8.646 3.444 4.991 3.936 10.403.281 3.374-.703 6.819.281.07.844.351l7.732 4.639 48.502-27.203q.984-.562 2.179-.562 1.125 0 2.039.492l8.998 4.499q2.109 1.125 2.46 3.585.211 2.531-1.757 3.936zm-47.87-18.276q3.233-2.952 1.476-7.592-1.757-4.639-7.451-8.224-6.467-4.147-13.496-4.147-5.202 0-7.943 2.531-3.233 2.952-1.476 7.592 1.757 4.639 7.451 8.224 6.467 4.147 13.496 4.147 5.202 0 7.943-2.531zm-5.975 52.369q5.694-3.585 7.451-8.224 1.757-4.639-1.476-7.592-2.741-2.531-7.943-2.531-7.029 0-13.496 4.147-5.694 3.585-7.451 8.224-1.757 4.639 1.476 7.592 2.741 2.531 7.943 2.531 7.029 0 13.496-4.147zm12.512-43.09l6.748 4.077v-.773q0-2.53 2.32-3.936l.984-.562-5.553-3.304-1.828 1.828q-.211.211-.703.773t-.844.844l-.281.246-.211.176zm15.746 15.746l6.748 2.249 51.736-40.489-8.998-4.499-53.985 30.296v7.943l-11.247 6.748.633.562q.141.141.492.422.281.281.773.844.492.562.773.844l1.828 1.828zm49.487 29.242l8.998-4.499-36.553-28.68-12.442 9.701q-.141.211-.914.492z" fill="#160a02"/><path d="M47.595 55.687c-.844.679-1.615 1.403-2.696 1.812-3.058 1.159-7.255 1.914-11.145 1.914-6.842 0-13.356-1.968-19.542-5.905-3.843-2.484-6.912-5.389-9.208-8.716-2.296-3.327-3.608-6.772-3.936-10.333-.234-2.765.129-5.413 1.09-7.943.961-2.531 2.449-4.71 4.464-6.537 3.983-3.702 9.185-5.553 15.605-5.553 6.795 0 13.285 1.968 19.471 5.905 3.89 2.437 6.982 5.319 9.279 8.646 2.296 3.327 3.608 6.795 3.936 10.403.187 2.249-.108 4.613-.703 6.819-.53 1.966-1.339 3.904-2.515 5.566-1.093 1.544-2.626 2.737-4.1 3.923zm-5.897-10.051c2.156-1.968 2.648-4.499 1.476-7.592-1.172-3.093-3.655-5.834-7.451-8.224-4.311-2.765-8.81-4.147-13.496-4.147-3.468 0-6.116.844-7.943 2.531-2.156 1.968-2.648 4.499-1.476 7.592 1.172 3.093 3.655 5.834 7.451 8.224 4.311 2.765 8.81 4.147 13.496 4.147 3.468 0 6.116-.844 7.943-2.531zm5.986 26.167c-.844-.576-1.703-.872-2.784-1.282-3.058-1.159-7.432-2.091-11.321-2.091-6.842 0-13.179 2.145-19.365 6.081-3.843 2.484-6.912 5.389-9.208 8.716-2.296 3.327-3.608 6.772-3.936 10.333-.234 2.765.129 5.413 1.09 7.943.961 2.531 2.449 4.71 4.464 6.537 3.983 3.702 9.185 5.553 15.605 5.553 6.795 0 13.285-1.968 19.471-5.905 3.89-2.437 6.982-5.319 9.279-8.646 2.296-3.327 3.608-6.795 3.936-10.403.187-2.249.395-4.655-.084-6.907-.394-1.851-1.173-3.657-2.25-5.213-1.29-1.863-3.024-3.44-4.895-4.718zm-5.985 10.582c2.156 1.968 2.648 4.499 1.476 7.592-1.172 3.093-3.744 5.569-7.539 7.959-4.311 2.765-8.191 4.324-12.878 4.324-3.468 0-6.204-.755-8.032-2.442-2.156-1.968-3.09-4.499-1.918-7.592s3.655-5.834 7.451-8.224c4.311-2.765 8.81-4.147 13.496-4.147 3.468 0 6.116.844 7.943 2.531z" fill="#ea8404"/></svg>