<?xml version="1.0" encoding="UTF-8" standalone="no"?>
<!-- Created with Inkscape (http://www.inkscape.org/) -->

<svg
   xmlns:dc="http://purl.org/dc/elements/1.1/"
   xmlns:cc="http://creativecommons.org/ns#"
   xmlns:rdf="http://www.w3.org/1999/02/22-rdf-syntax-ns#"
   xmlns:svg="http://www.w3.org/2000/svg"
   xmlns="http://www.w3.org/2000/svg"
   xmlns:xlink="http://www.w3.org/1999/xlink"
   xmlns:sodipodi="http://sodipodi.sourceforge.net/DTD/sodipodi-0.dtd"
   xmlns:inkscape="http://www.inkscape.org/namespaces/inkscape"
   width="128"
   height="128"
   viewBox="0 0 128 128"
   id="svg2"
   version="1.1"
   inkscape:version="0.92.4 5da689c313, 2019-01-14"
   sodipodi:docname="edit-paste.svg">
  <defs
     id="defs4">
    <linearGradient
       inkscape:collect="always"
       id="linearGradient4172">
      <stop
         style="stop-color:#5b3619;stop-opacity:1"
         offset="0"
         id="stop4174" />
      <stop
         style="stop-color:#975a2a;stop-opacity:1"
         offset="1"
         id="stop4176" />
    </linearGradient>
    <linearGradient
       inkscape:collect="always"
       id="linearGradient4164">
      <stop
         style="stop-color:#dddddd;stop-opacity:1;"
         offset="0"
         id="stop4166" />
      <stop
         style="stop-color:#969696;stop-opacity:0.99794239"
         offset="1"
         id="stop4168" />
    </linearGradient>
    <linearGradient
       inkscape:collect="always"
       xlink:href="#linearGradient4164"
       id="linearGradient4170"
       x1="53.243902"
       y1="1009.8744"
       x2="120.85366"
       y2="1009.8744"
       gradientUnits="userSpaceOnUse" />
    <linearGradient
       inkscape:collect="always"
       xlink:href="#linearGradient4172"
       id="linearGradient4178"
       x1="46.699913"
       y1="934.89441"
       x2="46.699913"
       y2="1030.073"
       gradientUnits="userSpaceOnUse" />
  </defs>
  <sodipodi:namedview
     id="base"
     pagecolor="#ffffff"
     bordercolor="#666666"
     borderopacity="1.0"
     inkscape:pageopacity="0.0"
     inkscape:pageshadow="2"
     inkscape:zoom="5.6"
     inkscape:cx="19.843024"
     inkscape:cy="69.707741"
     inkscape:document-units="px"
     inkscape:current-layer="layer1"
     showgrid="false"
     units="px"
     inkscape:window-width="2560"
     inkscape:window-height="1400"
     inkscape:window-x="0"
     inkscape:window-y="40"
     inkscape:window-maximized="0" />
  <metadata
     id="metadata7">
    <rdf:RDF>
      <cc:Work
         rdf:about="">
        <dc:format>image/svg+xml</dc:format>
        <dc:type
           rdf:resource="http://purl.org/dc/dcmitype/StillImage" />
        <dc:title />
        <dc:creator>
          <cc:Agent>
            <dc:title>Kovid Goyal</dc:title>
          </cc:Agent>
        </dc:creator>
        <dc:rights>
          <cc:Agent>
            <dc:title />
          </cc:Agent>
        </dc:rights>
        <dc:publisher>
          <cc:Agent>
            <dc:title />
          </cc:Agent>
        </dc:publisher>
        <cc:license
           rdf:resource="http://creativecommons.org/licenses/by-sa/3.0/" />
      </cc:Work>
      <cc:License
         rdf:about="http://creativecommons.org/licenses/by-sa/3.0/">
        <cc:permits
           rdf:resource="http://creativecommons.org/ns#Reproduction" />
        <cc:permits
           rdf:resource="http://creativecommons.org/ns#Distribution" />
        <cc:requires
           rdf:resource="http://creativecommons.org/ns#Notice" />
        <cc:requires
           rdf:resource="http://creativecommons.org/ns#Attribution" />
        <cc:permits
           rdf:resource="http://creativecommons.org/ns#DerivativeWorks" />
        <cc:requires
           rdf:resource="http://creativecommons.org/ns#ShareAlike" />
      </cc:License>
    </rdf:RDF>
  </metadata>
  <g
     inkscape:label="Layer 1"
     inkscape:groupmode="layer"
     id="layer1"
     transform="translate(0,-924.36216)">
    <path
       inkscape:connector-curvature="0"
       d="m 55,1897.4872 63,0 0,-45 -29.25,0 q -2.8125,0 -4.78125,-1.9687 Q 82,1848.5497 82,1845.7372 l 0,-29.25 -27,0 0,81 z m 18,-101.25 0,-4.5 q 0,-0.9141 -0.66797,-1.582 -0.66797,-0.668 -1.58203,-0.668 l -49.5,0 q -0.91406,0 -1.58203,0.668 Q 19,1790.8231 19,1791.7372 l 0,4.5 q 0,0.9141 0.66797,1.582 0.66797,0.668 1.58203,0.668 l 49.5,0 q 0.91406,0 1.58203,-0.668 Q 73,1797.1513 73,1796.2372 Z m 18,47.25 21.02344,0 L 91,1822.4638 l 0,21.0234 z m 36,9 0,47.25 q 0,2.8125 -1.96875,4.7813 -1.96875,1.9687 -4.78125,1.9687 l -67.5,0 q -2.8125,0 -4.78125,-1.9687 Q 46,1902.5497 46,1899.7372 l 0,-11.25 -38.25,0 q -2.8125,0 -4.78125,-1.9687 Q 1,1884.5497 1,1881.7372 l 0,-94.5 q 0,-2.8125 1.96875,-4.7813 1.96875,-1.9687 4.78125,-1.9687 l 76.5,0 q 2.8125,0 4.78125,1.9687 Q 91,1784.4247 91,1787.2372 l 0,23.0625 q 1.47656,0.9141 2.53125,1.9687 l 28.6875,28.6875 q 1.96875,1.9688 3.375,5.3438 1.40625,3.375 1.40625,6.1875 z"
       id="path4" />
    <path
       style="color:#000000;display:inline;overflow:visible;visibility:visible;opacity:1;fill:#b3b3b3;fill-opacity:1;stroke:none;stroke-width:4;stroke-linecap:round;stroke-linejoin:round;stroke-miterlimit:4;stroke-dasharray:none;stroke-dashoffset:0;stroke-opacity:1;marker:none;enable-background:accumulate"
       d="m 35.477134,925.36215 -4.081555,12.29269 34.477134,0 -4.081555,-12.29269 -26.314024,0 z"
       id="path4162" />
    <path
       style="color:#000000;display:inline;overflow:visible;visibility:visible;opacity:1;fill:url(#linearGradient4178);fill-opacity:1;stroke:none;stroke-width:4;stroke-linecap:round;stroke-linejoin:round;stroke-miterlimit:4;stroke-dasharray:none;stroke-dashoffset:0;stroke-opacity:1;marker:none;enable-background:accumulate"
       d="m 7.1463402,934.58167 0,95.26833 39.9512208,0 0,-64.53663 c 1.61e-4,-1.60906 1.464106,-3.07301 3.07317,-3.07317 l 39.951221,0 0,-27.65853 -18.775153,0 1.728659,5.13795 a 3.0734781,3.0734781 0 0 1 -2.929116,4.08156 l -43.024392,0 a 3.0734781,3.0734781 0 0 1 -2.929116,-4.08156 l 1.728659,-5.13795 -18.7751528,0 z"
       id="path4160" />
    <path
       style="color:#000000;display:inline;overflow:visible;visibility:visible;opacity:1;fill:url(#linearGradient4170);fill-opacity:1;stroke:none;stroke-width:4;stroke-linecap:round;stroke-linejoin:round;stroke-miterlimit:4;stroke-dasharray:none;stroke-dashoffset:0;stroke-opacity:1;marker:none;enable-background:accumulate"
       d="m 53.243902,968.38655 0,82.97565 67.609758,0 0,-55.31712 -24.585367,0 a 3.0734781,3.0734781 0 0 1 -3.07317,-3.07317 l 0,-24.58536 -39.951221,0 z"
       id="path4158" />
    <path
       style="color:#000000;display:inline;overflow:visible;visibility:visible;opacity:1;fill:#686868;fill-opacity:1;stroke:none;stroke-width:4;stroke-linecap:round;stroke-linejoin:round;stroke-miterlimit:4;stroke-dasharray:none;stroke-dashoffset:0;stroke-opacity:1;marker:none;enable-background:accumulate"
       d="m 99.341464,968.38655 0,21.51219 21.512196,0 -21.512196,-21.51219 z"
       id="path6" />
  </g>
</svg>
