<?xml version="1.0" encoding="UTF-8" standalone="no"?>
<!-- Created with Inkscape (http://www.inkscape.org/) -->

<svg
   xmlns:dc="http://purl.org/dc/elements/1.1/"
   xmlns:cc="http://creativecommons.org/ns#"
   xmlns:rdf="http://www.w3.org/1999/02/22-rdf-syntax-ns#"
   xmlns:svg="http://www.w3.org/2000/svg"
   xmlns="http://www.w3.org/2000/svg"
   xmlns:xlink="http://www.w3.org/1999/xlink"
   xmlns:sodipodi="http://sodipodi.sourceforge.net/DTD/sodipodi-0.dtd"
   xmlns:inkscape="http://www.inkscape.org/namespaces/inkscape"
   width="128"
   height="128"
   viewBox="0 0 128 128"
   id="svg2"
   version="1.1"
   inkscape:version="0.92.4 5da689c313, 2019-01-14"
   sodipodi:docname="edit-select-all.svg">
  <defs
     id="defs4">
    <linearGradient
       inkscape:collect="always"
       id="linearGradient4142">
      <stop
         style="stop-color:#b2cffa;stop-opacity:1"
         offset="0"
         id="stop4144" />
      <stop
         style="stop-color:#0b59bd;stop-opacity:1"
         offset="1"
         id="stop4146" />
    </linearGradient>
    <linearGradient
       inkscape:collect="always"
       xlink:href="#linearGradient4142"
       id="linearGradient4148"
       x1="71.01786"
       y1="1031.5764"
       x2="71.01786"
       y2="946.57642"
       gradientUnits="userSpaceOnUse" />
  </defs>
  <sodipodi:namedview
     id="base"
     pagecolor="#ffffff"
     bordercolor="#666666"
     borderopacity="1.0"
     inkscape:pageopacity="0.0"
     inkscape:pageshadow="2"
     inkscape:zoom="5.6"
     inkscape:cx="19.843024"
     inkscape:cy="69.707741"
     inkscape:document-units="px"
     inkscape:current-layer="layer1"
     showgrid="false"
     units="px"
     inkscape:window-width="2560"
     inkscape:window-height="1400"
     inkscape:window-x="0"
     inkscape:window-y="40"
     inkscape:window-maximized="0" />
  <metadata
     id="metadata7">
    <rdf:RDF>
      <cc:Work
         rdf:about="">
        <dc:format>image/svg+xml</dc:format>
        <dc:type
           rdf:resource="http://purl.org/dc/dcmitype/StillImage" />
        <dc:title />
        <dc:creator>
          <cc:Agent>
            <dc:title>Kovid Goyal</dc:title>
          </cc:Agent>
        </dc:creator>
        <dc:rights>
          <cc:Agent>
            <dc:title />
          </cc:Agent>
        </dc:rights>
        <dc:publisher>
          <cc:Agent>
            <dc:title />
          </cc:Agent>
        </dc:publisher>
        <cc:license
           rdf:resource="http://creativecommons.org/licenses/by-sa/3.0/" />
      </cc:Work>
      <cc:License
         rdf:about="http://creativecommons.org/licenses/by-sa/3.0/">
        <cc:permits
           rdf:resource="http://creativecommons.org/ns#Reproduction" />
        <cc:permits
           rdf:resource="http://creativecommons.org/ns#Distribution" />
        <cc:requires
           rdf:resource="http://creativecommons.org/ns#Notice" />
        <cc:requires
           rdf:resource="http://creativecommons.org/ns#Attribution" />
        <cc:permits
           rdf:resource="http://creativecommons.org/ns#DerivativeWorks" />
        <cc:requires
           rdf:resource="http://creativecommons.org/ns#ShareAlike" />
      </cc:License>
    </rdf:RDF>
  </metadata>
  <g
     inkscape:label="Layer 1"
     inkscape:groupmode="layer"
     id="layer1"
     transform="translate(0,-924.36216)">
    <path
       inkscape:connector-curvature="0"
       d="m 117,1018.6479 0,7.5714 q 0,1.5379 -1.12388,2.6618 -1.12389,1.1239 -2.66183,1.1239 l -98.428576,0 q -1.537946,0 -2.66183,-1.1239 Q 11,1027.7572 11,1026.2193 l 0,-7.5714 q 0,-1.538 1.123884,-2.6619 1.123884,-1.1239 2.66183,-1.1239 l 98.428576,0 q 1.53794,0 2.66183,1.1239 1.12388,1.1239 1.12388,2.6619 z m -22.714286,-22.71433 0,7.57143 q 0,1.5379 -1.123884,2.6618 -1.123884,1.1239 -2.66183,1.1239 l -53,0 q -1.537946,0 -2.66183,-1.1239 -1.123884,-1.1239 -1.123884,-2.6618 l 0,-7.57143 q 0,-1.53795 1.123884,-2.66183 1.123884,-1.12388 2.66183,-1.12388 l 53,0 q 1.537946,0 2.66183,1.12388 1.123884,1.12388 1.123884,2.66183 z m 15.142856,-22.71428 0,7.57142 q 0,1.53795 -1.12388,2.66183 -1.12389,1.12388 -2.66183,1.12388 l -83.285717,0 q -1.537947,0 -2.661831,-1.12388 -1.123883,-1.12388 -1.123883,-2.66183 l 0,-7.57142 q 0,-1.53796 1.123883,-2.66184 1.123884,-1.12388 2.661831,-1.12388 l 83.285717,0 q 1.53794,0 2.66183,1.12388 1.12388,1.12388 1.12388,2.66184 z m -22.714284,-22.7143 0,7.57143 q 0,1.53795 -1.123884,2.66183 -1.123884,1.12389 -2.661831,1.12389 l -37.857142,0 q -1.537947,0 -2.661831,-1.12389 -1.123884,-1.12388 -1.123884,-2.66183 l 0,-7.57143 q 0,-1.53794 1.123884,-2.66183 1.123884,-1.12387 2.661831,-1.12387 l 37.857142,0 q 1.537947,0 2.661831,1.12387 1.123884,1.12389 1.123884,2.66183 z"
       id="path4"
       style="fill:url(#linearGradient4148);fill-opacity:1" />
    <path
       style="fill:none;fill-opacity:1;fill-rule:evenodd;stroke:#2caf45;stroke-width:3.94074321;stroke-linecap:round;stroke-linejoin:round;stroke-miterlimit:4;stroke-dasharray:3.94074312, 11.82222935000000064;stroke-dashoffset:0;stroke-opacity:1"
       d="m 2.970371,927.33253 122.059259,0 0,122.05927 -122.059259,0 z"
       id="rect4139"
       inkscape:connector-curvature="0" />
  </g>
</svg>
