<svg xmlns="http://www.w3.org/2000/svg" viewBox="0 0 128 128" height="128" width="128"><g transform="translate(0 -924.362)"><path d="M16.582 1046.884v-107.688c.269-7.886 2.821-11.47 7.254-11.675l83.522-.158c2.766-.034 3.224 2.603 3.224 5.261l-.177 110.345c.201 4.009-3.09 3.994-3.09 3.994l-6.905.108c-.187 4.217-.269 4.387-3.224 4.268h-76.439c-3.907 0-4.165.2-4.165-4.455z" fill="#9f74e0" fill-rule="evenodd"/><path d="M22.299 937.546h73.639c5.75.099 5.129 2.683 5.172 9.678l.182 94.282c1.824.145 4.621-1.884 4.586-5.107l-.182-96.84c.151-6.453-1.337-6.453-4.301-6.717h-75.305c-2.867-.18-3.64.842-3.791 4.704z" fill="#fff" fill-rule="evenodd"/><rect width="51.482" height="6" x="33.259" y="951.362" ry=".9" fill="#4700b3" fill-rule="evenodd"/><path d="M42.832 1024.073c-2.092 5.592-3.682-17.098.897-21.55.091 2.344.88 2.781 1.47 4.846 1.193-3.939 1.297-8.341 2.889-12.188 1.515-3.66 3.394-6.445 6.409-8.847l1.431 2.827c3.314-11.519 15.544-10.512 23.761-15.713.272 2.059-.872 4.36-1.09 6.409-.242 2.273-.293 4.453-1.126 6.538-2.087 5.226-6.004 6.478-10.021 9.6 1.866-.186 3.522-.458 5.425-.518-3.129.747-3.311 3.897-4.468 6.017-1.719 3.147-3.882 3.537-6.733 5.082 1.736-.357 4.152.51 5.364 1.598-4.139 2.795-4.844 7.856-8.464 10.936-2.955 2.516-10.363 4.561-11.284 8.503l-6.773 11.875s12.44-41.562 26.744-51.818c0-.001-10.662-.407-24.432 36.402z" fill="#4700b3"/></g></svg>