<svg xmlns="http://www.w3.org/2000/svg" xmlns:svg="http://www.w3.org/2000/svg" xmlns:xlink="http://www.w3.org/1999/xlink" id="svg2" width="128" height="128" version="1.1" viewBox="0 0 128 128"><defs id="defs4"><linearGradient id="linearGradient4142"><stop style="stop-color:#b2cffa;stop-opacity:1" id="stop4144" offset="0"/><stop style="stop-color:#0b59bd;stop-opacity:1" id="stop4146" offset="1"/></linearGradient><linearGradient id="linearGradient4148" x1="71.018" x2="71.018" y1="1031.576" y2="946.576" gradientUnits="userSpaceOnUse" xlink:href="#linearGradient4142"/></defs><metadata id="metadata7"/><g id="layer1" transform="translate(0,-924.36216)"><path id="path4" d="m 117,1018.6479 0,7.5714 q 0,1.5379 -1.12388,2.6618 -1.12389,1.1239 -2.66183,1.1239 l -98.428576,0 q -1.537946,0 -2.66183,-1.1239 Q 11,1027.7572 11,1026.2193 l 0,-7.5714 q 0,-1.538 1.123884,-2.6619 1.123884,-1.1239 2.66183,-1.1239 l 98.428576,0 q 1.53794,0 2.66183,1.1239 1.12388,1.1239 1.12388,2.6619 z m -22.714286,-22.71433 0,7.57143 q 0,1.5379 -1.123884,2.6618 -1.123884,1.1239 -2.66183,1.1239 l -53,0 q -1.537946,0 -2.66183,-1.1239 -1.123884,-1.1239 -1.123884,-2.6618 l 0,-7.57143 q 0,-1.53795 1.123884,-2.66183 1.123884,-1.12388 2.66183,-1.12388 l 53,0 q 1.537946,0 2.66183,1.12388 1.123884,1.12388 1.123884,2.66183 z m 15.142856,-22.71428 0,7.57142 q 0,1.53795 -1.12388,2.66183 -1.12389,1.12388 -2.66183,1.12388 l -83.285717,0 q -1.537947,0 -2.661831,-1.12388 -1.123883,-1.12388 -1.123883,-2.66183 l 0,-7.57142 q 0,-1.53796 1.123883,-2.66184 1.123884,-1.12388 2.661831,-1.12388 l 83.285717,0 q 1.53794,0 2.66183,1.12388 1.12388,1.12388 1.12388,2.66184 z m -22.714284,-22.7143 0,7.57143 q 0,1.53795 -1.123884,2.66183 -1.123884,1.12389 -2.661831,1.12389 l -37.857142,0 q -1.537947,0 -2.661831,-1.12389 -1.123884,-1.12388 -1.123884,-2.66183 l 0,-7.57143 q 0,-1.53794 1.123884,-2.66183 1.123884,-1.12387 2.661831,-1.12387 l 37.857142,0 q 1.537947,0 2.661831,1.12387 1.123884,1.12389 1.123884,2.66183 z" style="fill:url(#linearGradient4148);fill-opacity:1"/><path style="fill:none;fill-opacity:1;fill-rule:evenodd;stroke:#2caf45;stroke-width:3.94074321;stroke-linecap:round;stroke-linejoin:round;stroke-miterlimit:4;stroke-dasharray:3.94074312,11.82222935000000064;stroke-dashoffset:0;stroke-opacity:1" id="rect4139" d="m 2.970371,927.33253 122.059259,0 0,122.05927 -122.059259,0 z"/></g></svg>