<svg xmlns="http://www.w3.org/2000/svg" xmlns:xlink="http://www.w3.org/1999/xlink" width="128" height="128" viewBox="0 0 128 128"><defs><linearGradient id="a"><stop offset="0" stop-color="#545ada"/><stop offset="1" stop-color="#23289f"/></linearGradient><linearGradient xlink:href="#a" id="b" x1="71.018" y1="1031.576" x2="71.018" y2="946.576" gradientUnits="userSpaceOnUse"/></defs><path d="M117 94.286v7.571q0 1.538-1.124 2.662-1.124 1.124-2.662 1.124h-98.429q-1.538 0-2.662-1.124-1.124-1.124-1.124-2.662v-7.571q0-1.538 1.124-2.662 1.124-1.124 2.662-1.124h98.429q1.538 0 2.662 1.124 1.124 1.124 1.124 2.662zm-22.714-22.714v7.571q0 1.538-1.124 2.662-1.124 1.124-2.662 1.124h-53q-1.538 0-2.662-1.124-1.124-1.124-1.124-2.662v-7.571q0-1.538 1.124-2.662 1.124-1.124 2.662-1.124h53q1.538 0 2.662 1.124 1.124 1.124 1.124 2.662zm15.143-22.714v7.571q0 1.538-1.124 2.662-1.124 1.124-2.662 1.124h-83.286q-1.538 0-2.662-1.124-1.124-1.124-1.124-2.662v-7.571q0-1.538 1.124-2.662 1.124-1.124 2.662-1.124h83.286q1.538 0 2.662 1.124 1.124 1.124 1.124 2.662zm-22.714-22.714v7.571q0 1.538-1.124 2.662-1.124 1.124-2.662 1.124h-37.857q-1.538 0-2.662-1.124-1.124-1.124-1.124-2.662v-7.571q0-1.538 1.124-2.662 1.124-1.124 2.662-1.124h37.857q1.538 0 2.662 1.124 1.124 1.124 1.124 2.662z" fill="url(#b)"/><path d="M2.97 2.97h122.059v122.059h-122.059z" stroke="#30a82d" stroke-width="3.941" stroke-linecap="round" stroke-linejoin="round" stroke-dasharray="3.94074312, 11.82222935" fill="none"/></svg>