<?xml version="1.0" encoding="UTF-8" standalone="no"?>
<!-- Created with Inkscape (http://www.inkscape.org/) -->

<svg
   xmlns:dc="http://purl.org/dc/elements/1.1/"
   xmlns:cc="http://creativecommons.org/ns#"
   xmlns:rdf="http://www.w3.org/1999/02/22-rdf-syntax-ns#"
   xmlns:svg="http://www.w3.org/2000/svg"
   xmlns="http://www.w3.org/2000/svg"
   xmlns:sodipodi="http://sodipodi.sourceforge.net/DTD/sodipodi-0.dtd"
   xmlns:inkscape="http://www.inkscape.org/namespaces/inkscape"
   width="128"
   height="128"
   viewBox="0 0 128 128"
   id="svg2"
   version="1.1"
   inkscape:version="0.92.4 5da689c313, 2019-01-14"
   sodipodi:docname="edit-cut.svg">
  <defs
     id="defs4" />
  <sodipodi:namedview
     id="base"
     pagecolor="#ffffff"
     bordercolor="#666666"
     borderopacity="1.0"
     inkscape:pageopacity="0.0"
     inkscape:pageshadow="2"
     inkscape:zoom="5.656854"
     inkscape:cx="102.11588"
     inkscape:cy="95.08399"
     inkscape:document-units="px"
     inkscape:current-layer="layer1"
     showgrid="false"
     units="px"
     inkscape:window-width="2560"
     inkscape:window-height="1400"
     inkscape:window-x="0"
     inkscape:window-y="40"
     inkscape:window-maximized="0" />
  <metadata
     id="metadata7">
    <rdf:RDF>
      <cc:Work
         rdf:about="">
        <dc:format>image/svg+xml</dc:format>
        <dc:type
           rdf:resource="http://purl.org/dc/dcmitype/StillImage" />
        <dc:title />
        <dc:creator>
          <cc:Agent>
            <dc:title>Kovid Goyal</dc:title>
          </cc:Agent>
        </dc:creator>
        <dc:rights>
          <cc:Agent>
            <dc:title />
          </cc:Agent>
        </dc:rights>
        <dc:publisher>
          <cc:Agent>
            <dc:title />
          </cc:Agent>
        </dc:publisher>
        <cc:license
           rdf:resource="http://creativecommons.org/licenses/by-sa/3.0/" />
      </cc:Work>
      <cc:License
         rdf:about="http://creativecommons.org/licenses/by-sa/3.0/">
        <cc:permits
           rdf:resource="http://creativecommons.org/ns#Reproduction" />
        <cc:permits
           rdf:resource="http://creativecommons.org/ns#Distribution" />
        <cc:requires
           rdf:resource="http://creativecommons.org/ns#Notice" />
        <cc:requires
           rdf:resource="http://creativecommons.org/ns#Attribution" />
        <cc:permits
           rdf:resource="http://creativecommons.org/ns#DerivativeWorks" />
        <cc:requires
           rdf:resource="http://creativecommons.org/ns#ShareAlike" />
      </cc:License>
    </rdf:RDF>
  </metadata>
  <g
     inkscape:label="Layer 1"
     inkscape:groupmode="layer"
     id="layer1"
     transform="translate(0,-924.36216)">
    <path
       d="m -874.99847,1560.9483 q 1.82763,0 3.1632,1.3356 1.33557,1.3356 1.33557,3.1632 0,1.8276 -1.33557,3.1632 -1.33557,1.3356 -3.1632,1.3356 -1.82763,0 -3.1632,-1.3356 -1.33557,-1.3356 -1.33557,-3.1632 0,-1.8276 1.33557,-3.1632 1.33557,-1.3356 3.1632,-1.3356 z m 21.088,4.4988 35.63873,27.9767 q 1.96821,1.4059 1.75733,3.9365 -0.35146,2.4602 -2.46026,3.5849 l -8.99755,4.4988 q -0.91382,0.4921 -2.03851,0.4921 -1.19499,0 -2.17909,-0.5624 l -48.50241,-27.2035 -7.73227,4.6393 q -0.56235,0.2812 -0.84352,0.3515 0.98411,3.4444 0.70294,6.8185 -0.49206,5.4126 -3.93643,10.3682 -3.44438,4.9557 -9.27872,8.6813 -9.27873,5.9046 -19.47126,5.9046 -9.5599,0 -15.60512,-5.4829 -6.3264,-5.9046 -5.55318,-14.5507 0.49206,-5.3423 3.93643,-10.3331 3.44437,-4.9909 9.20843,-8.7164 9.27872,-5.9046 19.54155,-5.9046 5.83435,0 10.61429,2.1791 0.63264,-0.9139 1.54646,-1.5465 l 8.57578,-5.1314 -8.57578,-5.1314 q -0.91382,-0.6327 -1.54646,-1.5465 -4.77994,2.1791 -10.61429,2.1791 -10.26283,0 -19.54155,-5.9046 -5.76406,-3.7256 -9.20843,-8.7164 -3.44437,-4.9908 -3.93643,-10.3331 -0.35146,-4.1473 1.08955,-7.9432 1.44101,-3.7958 4.46363,-6.5373 5.97493,-5.5531 15.60512,-5.5531 10.19253,0 19.47126,5.9046 5.83434,3.6553 9.27872,8.6461 3.44437,4.9908 3.93643,10.4034 0.28117,3.3741 -0.70294,6.8185 0.28117,0.07 0.84352,0.3514 l 7.73227,4.6394 48.50241,-27.2035 q 0.9841,-0.5624 2.17909,-0.5624 1.12469,0 2.03851,0.4921 l 8.99755,4.4987 q 2.1088,1.1247 2.46026,3.585 0.21088,2.5306 -1.75733,3.9364 z m -47.86976,-18.2763 q 3.23349,-2.9523 1.47616,-7.5917 -1.75734,-4.6393 -7.4511,-8.2243 -6.46699,-4.1473 -13.49632,-4.1473 -5.20171,0 -7.94315,2.5306 -3.23349,2.9523 -1.47616,7.5916 1.75734,4.6394 7.4511,8.2244 6.46698,4.1473 13.49632,4.1473 5.20171,0 7.94315,-2.5306 z m -5.97494,52.3686 q 5.69376,-3.585 7.4511,-8.2244 1.75733,-4.6393 -1.47616,-7.5916 -2.74144,-2.5306 -7.94315,-2.5306 -7.02934,0 -13.49632,4.1473 -5.69376,3.585 -7.4511,8.2243 -1.75733,4.6394 1.47616,7.5917 2.74144,2.5306 7.94315,2.5306 7.02933,0 13.49632,-4.1473 z m 12.51222,-43.0899 6.74816,4.0771 0,-0.7733 q 0,-2.5305 2.31968,-3.9364 l 0.98411,-0.5623 -5.55318,-3.3038 -1.82763,1.8276 q -0.21088,0.2109 -0.70293,0.7732 -0.49205,0.5624 -0.84352,0.8435 -0.14059,0.1406 -0.28117,0.2461 -0.14059,0.1054 -0.21088,0.1757 z m 15.74571,15.7457 6.74816,2.2494 51.7359,-40.4889 -8.99755,-4.4988 -53.98529,30.2964 0,7.9432 -11.24693,6.7481 0.63264,0.5624 q 0.14058,0.1406 0.49205,0.4217 0.28117,0.2812 0.77323,0.8436 0.49205,0.5623 0.77322,0.8435 l 1.82763,1.8276 z m 49.48651,29.2421 8.99755,-4.4988 -36.55254,-28.6797 -12.44192,9.7005 q -0.14059,0.2109 -0.91382,0.4921 z"
       id="path4"
       inkscape:connector-curvature="0" />
    <path
       d="m 68.495532,983.86336 q 1.82763,0 3.1632,1.3356 1.33557,1.3356 1.33557,3.1632 0,1.8276 -1.33557,3.1632 -1.33557,1.3356 -3.1632,1.3356 -1.82763,0 -3.1632,-1.3356 -1.33557,-1.3356 -1.33557,-3.1632 0,-1.8276 1.33557,-3.1632 1.33557,-1.3356 3.1632,-1.3356 z m 21.088,4.4988 35.638728,27.97674 q 1.96821,1.4059 1.75733,3.9365 -0.35146,2.4602 -2.46026,3.5849 l -8.99755,4.4988 q -0.91382,0.4921 -2.03851,0.4921 -1.19499,0 -2.17909,-0.5624 l -48.502408,-27.2035 -7.73227,4.6393 q -0.56234,0.2812 -0.84352,0.3515 0.98411,3.4444 0.70294,6.8185 -0.49206,5.4126 -3.93643,10.3682 -3.44438,4.9557 -9.27872,8.6813 -9.27873,5.9046 -19.47126,5.9046 -9.5599,0 -15.6051202,-5.4829 -6.32639997,-5.9046 -5.55318,-14.5507 0.49206,-5.3423 3.93643,-10.3331 3.44437,-4.9909 9.2084302,-8.71644 9.27872,-5.9046 19.54155,-5.9046 5.83435,0 10.61429,2.1791 0.63264,-0.9139 1.54646,-1.5465 l 8.57579,-5.1314 -8.57579,-5.1314 q -0.91382,-0.6327 -1.54646,-1.5465 -4.77994,2.1791 -10.61429,2.1791 -10.26283,0 -19.54155,-5.9046 -5.7640602,-3.7256 -9.2084302,-8.7164 -3.44437,-4.9908 -3.93643,-10.3331 -0.35145997,-4.1473 1.08955,-7.9432 1.44101,-3.7958 4.46363,-6.5373 5.9749302,-5.5531 15.6051202,-5.5531 10.19253,0 19.47126,5.9046 5.83434,3.6553 9.27872,8.6461 3.44437,4.9908 3.93643,10.4034 0.28117,3.3741 -0.70294,6.8185 0.28118,0.07 0.84352,0.3514 l 7.73227,4.6394 48.502408,-27.2035 q 0.9841,-0.5624 2.17909,-0.5624 1.12469,0 2.03851,0.4921 l 8.99755,4.4987 q 2.1088,1.1247 2.46026,3.585 0.21088,2.5306 -1.75733,3.9364 z m -47.86976,-18.2763 q 3.23349,-2.9523 1.47616,-7.5917 -1.75734,-4.6393 -7.4511,-8.2243 -6.46699,-4.1473 -13.49632,-4.1473 -5.20171,0 -7.94315,2.5306 -3.23349,2.9523 -1.47616,7.5916 1.75734,4.6394 7.4511,8.2244 6.46698,4.1473 13.49632,4.1473 5.20171,0 7.94315,-2.5306 z m -5.97494,52.36864 q 5.69376,-3.585 7.4511,-8.2244 1.75733,-4.6393 -1.47616,-7.5916 -2.74144,-2.5306 -7.94315,-2.5306 -7.02934,0 -13.49632,4.1473 -5.69376,3.585 -7.4511,8.2243 -1.75733,4.6394 1.47616,7.5917 2.74144,2.5306 7.94315,2.5306 7.02933,0 13.49632,-4.1473 z m 12.51222,-43.08994 6.74816,4.0771 0,-0.7733 q 0,-2.5305 2.31968,-3.9364 l 0.98411,-0.5623 -5.55318,-3.3038 -1.82763,1.8276 q -0.21088,0.2109 -0.70293,0.7732 -0.49205,0.5624 -0.84352,0.8435 -0.14059,0.1406 -0.28117,0.2461 -0.14059,0.1054 -0.21088,0.1757 z m 15.74571,15.7457 6.74816,2.2494 51.735898,-40.4889 -8.99755,-4.4988 -53.985288,30.2964 0,7.9432 -11.24693,6.7481 0.63264,0.5624 q 0.14058,0.1406 0.49205,0.4217 0.28117,0.2812 0.77323,0.8436 0.49205,0.5623 0.77322,0.84354 l 1.82763,1.8276 z m 49.486508,29.24214 8.99755,-4.4988 -36.552538,-28.67974 -12.44192,9.70054 q -0.14059,0.2109 -0.91382,0.4921 z"
       id="path4-3"
       inkscape:connector-curvature="0"
       style="fill:#888888;fill-opacity:1" />
    <path
       style="fill:#ea8404;fill-opacity:1"
       inkscape:connector-curvature="0"
       id="path4165"
       d="m 47.595456,980.04878 c -0.843507,0.67877 -1.614974,1.40266 -2.695512,1.81226 -3.057588,1.15903 -7.25505,1.91393 -11.14462,1.91393 -6.84189,0 -13.35574,-1.9682 -19.54155,-5.9046 -3.84271,-2.48373 -6.9121802,-5.3892 -9.2084302,-8.7164 -2.29625,-3.3272 -3.60839,-6.77157 -3.93643,-10.3331 -0.23431004,-2.76487 0.12888,-5.4126 1.08955,-7.9432 0.96067,-2.53053 2.44855,-4.70963 4.46363,-6.5373 3.9832902,-3.70207 9.1849902,-5.5531 15.6051202,-5.5531 6.79502,0 13.28544,1.9682 19.47126,5.9046 3.88956,2.43687 6.98247,5.3189 9.27872,8.6461 2.29625,3.3272 3.60839,6.795 3.93643,10.4034 0.18745,2.2494 -0.107668,4.61253 -0.70294,6.8185 -0.530451,1.96576 -1.338914,3.90443 -2.515233,5.56632 -1.092738,1.5438 -2.62644,2.73682 -4.099995,3.92259 z m -5.896982,-10.05131 c 2.15566,-1.9682 2.64771,-4.49877 1.47616,-7.5917 -1.17156,-3.09287 -3.65526,-5.8343 -7.4511,-8.2243 -4.31133,-2.76487 -8.8101,-4.1473 -13.49632,-4.1473 -3.46781,0 -6.11552,0.84353 -7.94315,2.5306 -2.15566,1.9682 -2.64771,4.49873 -1.47616,7.5916 1.17156,3.09293 3.65526,5.8344 7.4511,8.2244 4.31132,2.76487 8.81009,4.1473 13.49632,4.1473 3.46781,0 6.11552,-0.84353 7.94315,-2.5306 z"
       sodipodi:nodetypes="asscscscscscaaacscscscsc" />
    <path
       sodipodi:nodetypes="asscscscscscaaacscscscsc"
       d="m 47.683844,996.16519 c -0.84362,-0.57621 -1.703362,-0.87233 -2.7839,-1.28193 -3.057588,-1.15903 -7.431827,-2.09071 -11.321397,-2.09071 -6.84189,0 -13.178963,2.14498 -19.364773,6.08138 -3.84271,2.48377 -6.9121802,5.38917 -9.2084302,8.71637 -2.29625,3.3272 -3.60839,6.7716 -3.93643,10.3331 -0.23431004,2.7649 0.12888,5.4126 1.08955,7.9432 0.96067,2.5306 2.44855,4.7097 4.46363,6.5373 3.9832902,3.7021 9.1849902,5.5531 15.6051202,5.5531 6.79502,0 13.28544,-1.9682 19.47126,-5.9046 3.88956,-2.4368 6.98247,-5.3189 9.27872,-8.6461 2.29625,-3.3272 3.60839,-6.795 3.93643,-10.4034 0.18745,-2.2494 0.395394,-4.6549 -0.08422,-6.9069 -0.394224,-1.851 -1.172626,-3.6568 -2.250068,-5.2127 -1.29025,-1.8632 -3.024037,-3.43987 -4.89549,-4.71811 z m -5.98537,10.58161 c 2.15566,1.9682 2.64771,4.4988 1.47616,7.5917 -1.17156,3.0929 -3.743648,5.5691 -7.539488,7.9591 -4.31133,2.7649 -8.191382,4.3241 -12.877602,4.3241 -3.46781,0 -6.203908,-0.7551 -8.031538,-2.4422 -2.15566,-1.9682 -3.089652,-4.4987 -1.918102,-7.5916 1.17156,-3.0929 3.65526,-5.8344 7.4511,-8.2244 4.31132,-2.7648 8.81009,-4.1473 13.49632,-4.1473 3.46781,0 6.11552,0.8436 7.94315,2.5306 z"
       id="path4187"
       inkscape:connector-curvature="0"
       style="fill:#ea8404;fill-opacity:1" />
  </g>
</svg>
