<svg xmlns="http://www.w3.org/2000/svg" xmlns:svg="http://www.w3.org/2000/svg" id="svg2" width="128" height="128" version="1.1" viewBox="0 0 128 128"><metadata id="metadata7"/><g id="layer1" transform="translate(0,-924.36216)"><g id="g4185" style="fill-opacity:1;fill:#ea8404"><polygon id="polygon4" points="48.904 57.916 39.273 61.032 42.105 51.117" transform="matrix(1.4835039,0,0,1.4904899,-11.62087,914.96969)" style="fill-opacity:1;fill:#ea8404"/><polygon id="polygon6" points="52.021 55.085 45.789 48.285 76.667 16.557 83.607 23.499" transform="matrix(1.4835039,0,0,1.4904899,-11.62087,914.96969)" style="fill-opacity:1;fill:#ea8404"/><polyline id="polyline8" points="93.438 13.889 85.401 21.381 78.755 14.569 86.687 6.969" transform="matrix(1.4835039,0,0,1.4904899,-11.62087,914.96969)" style="fill-opacity:1;fill:#ea8404"/></g><path id="path12" d="m 112.20127,973.84851 v 64.10449 c 0,4.9186 -4.00546,8.9429 -8.90103,8.9429 H 14.356767 c -4.8955631,0 -8.9010236,-4.0243 -8.9010236,-8.9429 v -88.94052 c 0,-4.91862 4.0054605,-8.94294 8.9010236,-8.94294 h 64.643682" style="fill:none;fill-opacity:1;stroke:#2271d5;stroke-width:8.92195702;stroke-opacity:1"/><g id="g823" style="stroke:#2caf45;stroke-opacity:1"><line id="line14" x1="24.725" x2="92.966" y1="1018.559" y2="1018.559" style="fill:none;stroke:#2caf45;stroke-width:4.46097851;stroke-opacity:1"/><line id="line16" x1="24.725" x2="92.966" y1="1030.483" y2="1030.483" style="fill:none;stroke:#2caf45;stroke-width:4.46097851;stroke-opacity:1"/></g></g></svg>