<svg xmlns="http://www.w3.org/2000/svg" viewBox="0 0 128 128" enable-background="new 0 0 128 128"><style type="text/css">.st0{fill:url(#SVGID_1_);} .st1{fill:#2149C1;}</style><radialGradient id="SVGID_1_" cx="64" cy="-858.362" r="63" gradientTransform="matrix(1 0 0 -1 0 130)" gradientUnits="userSpaceOnUse"><stop offset="0" stop-color="#0C7E1B"/><stop offset="1" stop-color="#30B241"/></radialGradient><path class="st0" d="M118 118v-81h-27v29.2c0 1.9-.7 3.5-2 4.8-1.3 1.3-2.9 2-4.8 2h-29.2v45h63zm-67.2-56.5l22.2-22.3v-29.2h-27v29.2c0 1.9-.7 3.5-2 4.8-1.3 1.3-2.9 2-4.8 2h-29.2v45h36v-18c0-1.9.5-3.9 1.4-6.2.9-2.2 2.1-4 3.4-5.3zm-13.8-45.5l-21 21h21v-21zm45 27l-21 21h21v-21zm38.2-15c1.9 0 3.5.7 4.8 2 1.3 1.3 2 2.9 2 4.8v85.5c0 1.9-.7 3.5-2 4.8-1.3 1.3-2.9 2-4.8 2h-67.4c-1.9 0-3.5-.7-4.8-2-1.3-1.3-2-2.9-2-4.8v-20.3h-38.2c-1.9 0-3.5-.7-4.8-2-1.3-1.3-2-2.9-2-4.8v-47.2c0-1.9.5-3.9 1.4-6.2.9-2.2 2.1-4 3.4-5.3l28.7-28.7c1.3-1.3 3.1-2.4 5.3-3.4s4.3-1.4 6.2-1.4h29.3c1.9 0 3.5.7 4.8 2 1.3 1.3 2 2.9 2 4.8v23.1c3.2-1.9 6.2-2.8 9-2.8l29.1-.1z"/><path class="st1" d="M37 16l-21 21h21v-21zm36-6h-27v29.9c-.2 4.1-4.4 6.6-8.3 6.1h-27.7v45h36v9h-38.9c-4.1-.3-6.7-4.5-6.1-8.3v-46.4c.3-5.4 3.5-10 7.5-13.5 9-9 17.9-18.1 27-26.9 4.1-3.4 9.5-4.2 14.6-3.9 8.8.1 17.7-.2 26.5.1 3.9.6 5.9 4.8 5.4 8.4v21.3l-9 8.4v-29.2z"/></svg>