<svg xmlns="http://www.w3.org/2000/svg" width="128" height="128" viewBox="0 0 128 128"><g fill="#ddd"><path d="M64.42 1.002c-34.72-.28-63.14 27.86-63.42 63 0 34.58 28.14 62.72 62.58 63 16.8.14 32.76-6.3 44.66-18.2 12.04-11.76 18.62-27.58 18.76-44.38v-.42c0-34.58-28.14-62.72-62.58-63z"/><path d="M30.4 59.522l30.38-30.1c.84-.84 1.96-1.26 3.22-1.26 1.26 0 2.38.42 3.22 1.26l30.38 30.1c1.26 1.26 1.68 3.22.98 5.04-.7 1.68-2.38 2.8-4.2 2.8h-60.76c-1.82 0-3.5-1.12-4.2-2.8-.7-1.68-.28-3.64.98-5.04z" fill="#131313"/><path d="M95.64 88.222h-63.28c-2.24 0-4.06-1.82-4.06-4.06 0-2.24 1.82-4.06 4.06-4.06h63.14c2.24 0 4.06 1.82 4.06 4.06 0 2.24-1.68 4.06-3.92 4.06z" fill="#171717"/></g></svg>