<svg xmlns="http://www.w3.org/2000/svg" xmlns:svg="http://www.w3.org/2000/svg" id="svg2" width="128" height="128" version="1.1" viewBox="0 0 128 128"><metadata id="metadata7"/><g id="layer1" transform="translate(0,-924.36216)"><g style="fill:#ddd;fill-opacity:1" id="g6" transform="matrix(1.4,0,0,1.3999521,-6,918.36447)"><path style="fill:#ddd;fill-opacity:1" id="path4147" d="M 50.3,5 C 25.5,4.8 5.2,24.9 5,50 5,74.7 25.1,94.8 49.7,95 61.7,95.1 73.1,90.5 81.6,82 90.2,73.6 94.9,62.3 95,50.3 95,50.3 95,50 95,50 95,25.3 74.9,5.2 50.3,5 Z"/><path style="fill:#131313;fill-opacity:1" id="path4145" d="M 26,46.8 47.7,25.3 c 0.6,-0.6 1.4,-0.9 2.3,-0.9 0.9,0 1.7,0.3 2.3,0.9 L 74,46.8 c 0.9,0.9 1.2,2.3 0.7,3.6 -0.5,1.2 -1.7,2 -3,2 l -43.4,0 c -1.3,0 -2.5,-0.8 -3,-2 -0.5,-1.2 -0.2,-2.6 0.7,-3.6 z"/><path style="fill:#171717;fill-opacity:1" id="path8" d="m 72.6,67.3 -45.2,0 c -1.6,0 -2.9,-1.3 -2.9,-2.9 0,-1.6 1.3,-2.9 2.9,-2.9 l 45.1,0 c 1.6,0 2.9,1.3 2.9,2.9 0,1.6 -1.2,2.9 -2.8,2.9 z"/></g></g></svg>