<?xml version="1.0" encoding="UTF-8" standalone="no"?>
<!-- Created with Inkscape (http://www.inkscape.org/) -->

<svg
   xmlns:i="http://ns.adobe.com/AdobeIllustrator/10.0/"
   xmlns:dc="http://purl.org/dc/elements/1.1/"
   xmlns:cc="http://creativecommons.org/ns#"
   xmlns:rdf="http://www.w3.org/1999/02/22-rdf-syntax-ns#"
   xmlns:svg="http://www.w3.org/2000/svg"
   xmlns="http://www.w3.org/2000/svg"
   xmlns:sodipodi="http://sodipodi.sourceforge.net/DTD/sodipodi-0.dtd"
   xmlns:inkscape="http://www.inkscape.org/namespaces/inkscape"
   width="128"
   height="128"
   viewBox="0 0 128 128"
   id="svg2"
   version="1.1"
   inkscape:version="0.91 r13725"
   sodipodi:docname="eject.svg">
  <defs
     id="defs4" />
  <sodipodi:namedview
     id="base"
     pagecolor="#ffffff"
     bordercolor="#666666"
     borderopacity="1.0"
     inkscape:pageopacity="0.0"
     inkscape:pageshadow="2"
     inkscape:zoom="11.2"
     inkscape:cx="26.941238"
     inkscape:cy="69.707741"
     inkscape:document-units="px"
     inkscape:current-layer="layer1"
     showgrid="false"
     units="px"
     inkscape:window-width="3840"
     inkscape:window-height="2128"
     inkscape:window-x="0"
     inkscape:window-y="32"
     inkscape:window-maximized="0" />
  <metadata
     id="metadata7">
    <rdf:RDF>
      <cc:Work
         rdf:about="">
        <dc:format>image/svg+xml</dc:format>
        <dc:type
           rdf:resource="http://purl.org/dc/dcmitype/StillImage" />
        <dc:title />
        <dc:creator>
          <cc:Agent>
            <dc:title>Kovid Goyal</dc:title>
          </cc:Agent>
        </dc:creator>
        <dc:rights>
          <cc:Agent>
            <dc:title />
          </cc:Agent>
        </dc:rights>
        <dc:publisher>
          <cc:Agent>
            <dc:title />
          </cc:Agent>
        </dc:publisher>
        <cc:license
           rdf:resource="http://creativecommons.org/licenses/by-sa/3.0/" />
      </cc:Work>
      <cc:License
         rdf:about="http://creativecommons.org/licenses/by-sa/3.0/">
        <cc:permits
           rdf:resource="http://creativecommons.org/ns#Reproduction" />
        <cc:permits
           rdf:resource="http://creativecommons.org/ns#Distribution" />
        <cc:requires
           rdf:resource="http://creativecommons.org/ns#Notice" />
        <cc:requires
           rdf:resource="http://creativecommons.org/ns#Attribution" />
        <cc:permits
           rdf:resource="http://creativecommons.org/ns#DerivativeWorks" />
        <cc:requires
           rdf:resource="http://creativecommons.org/ns#ShareAlike" />
      </cc:License>
    </rdf:RDF>
  </metadata>
  <g
     inkscape:label="Layer 1"
     inkscape:groupmode="layer"
     id="layer1"
     transform="translate(0,-924.36216)">
    <g
       style="fill:#dddddd;fill-opacity:1"
       id="g6"
       i:extraneous="self"
       transform="matrix(1.4,0,0,1.3999521,-6,918.36447)">
      <path
         inkscape:connector-curvature="0"
         style="fill:#dddddd;fill-opacity:1"
         id="path4147"
         d="M 50.3,5 C 25.5,4.8 5.2,24.9 5,50 5,74.7 25.1,94.8 49.7,95 61.7,95.1 73.1,90.5 81.6,82 90.2,73.6 94.9,62.3 95,50.3 95,50.3 95,50 95,50 95,25.3 74.9,5.2 50.3,5 Z" />
      <path
         inkscape:connector-curvature="0"
         style="fill:#131313;fill-opacity:1"
         id="path4145"
         d="M 26,46.8 47.7,25.3 c 0.6,-0.6 1.4,-0.9 2.3,-0.9 0.9,0 1.7,0.3 2.3,0.9 L 74,46.8 c 0.9,0.9 1.2,2.3 0.7,3.6 -0.5,1.2 -1.7,2 -3,2 l -43.4,0 c -1.3,0 -2.5,-0.8 -3,-2 -0.5,-1.2 -0.2,-2.6 0.7,-3.6 z" />
      <path
         inkscape:connector-curvature="0"
         style="fill:#171717;fill-opacity:1"
         id="path8"
         d="m 72.6,67.3 -45.2,0 c -1.6,0 -2.9,-1.3 -2.9,-2.9 0,-1.6 1.3,-2.9 2.9,-2.9 l 45.1,0 c 1.6,0 2.9,1.3 2.9,2.9 0,1.6 -1.2,2.9 -2.8,2.9 z" />
    </g>
  </g>
</svg>
