<svg xmlns="http://www.w3.org/2000/svg" xmlns:xlink="http://www.w3.org/1999/xlink" width="128" height="128" viewBox="0 0 128 128"><defs><linearGradient id="a"><stop offset="0" stop-color="#34ae3d"/><stop offset="1" stop-color="#26822e"/></linearGradient><radialGradient xlink:href="#a" cx="-66.893" cy="971.113" fx="-66.893" fy="971.113" r="3.962" gradientTransform="matrix(1 0 0 1.262 0 -253.999)" gradientUnits="userSpaceOnUse"/><radialGradient xlink:href="#a" id="b" gradientUnits="userSpaceOnUse" gradientTransform="matrix(1 0 0 1.262 0 -253.999)" cx="-66.893" cy="971.113" fx="-66.893" fy="971.113" r="3.962"/></defs><path d="M20 956.362c-1.949.01-3.013 1.69-3 3v86c0 1.571 1.429 3 3 3h60c1.571 0 3-1.429 3-3v-70c.002-.786-.32-1.568-.875-2.125l-16-16c-.557-.555-1.339-.877-2.125-.875h-44zm3 6h38v13a3 3 0 0 0 3 3h13v64h-54v-80zm44 4.219l5.781 5.781h-5.781v-5.781z" style="text-indent:0;text-transform:none;block-progression:tb" overflow="visible" color="#000" enable-background="accumulate" transform="matrix(1.394 0 0 1.37 -5.697 -1308.8)" fill="#3027dd"/><path d="M40.969 47.651h46.003v14.276h-4.167q-.935-3.528-1.871-5.579-.893-2.051-1.913-3.118-1.02-1.067-2.211-1.518-1.148-.451-3.486-.451h-5.4v42.008q0 2.42.255 3.856.298 1.436.85 2.297.595.82 1.573 1.313.978.451 3.061.903v2.01h-19.43v-2.01q1.276-.287 2.253-.615.978-.328 1.573-.779.638-.492 1.02-1.231.425-.738.638-2.01.255-1.272.255-3.733v-42.008h-5.357q-1.998 0-3.316.369-1.276.369-2.381 1.559-1.105 1.149-2.041 3.323-.893 2.133-1.701 5.415h-4.209v-14.276z" fill="url(#b)" style="line-height:125%;-inkscape-font-specification:Cambria" font-size="15" font-family="Cambria" letter-spacing="0" word-spacing="0"/></svg>