<svg xmlns="http://www.w3.org/2000/svg" xmlns:svg="http://www.w3.org/2000/svg" id="svg2" width="128" height="128" version="1.1" viewBox="0 0 128 128"><metadata id="metadata7"/><g id="layer1" transform="translate(0,-924.36216)"><g id="g4" transform="matrix(1.3939367,0,0,1.3695651,-5.6968353,-384.43812)" style="fill:#2271d5;fill-opacity:1"><path style="color:#000;text-indent:0;text-transform:none;direction:ltr;block-progression:tb;baseline-shift:baseline;display:inline;overflow:visible;visibility:visible;fill:#2271d5;fill-opacity:1;fill-rule:nonzero;stroke:none;marker:none;enable-background:accumulate" id="path6" d="m 20.000054,956.3622 c -1.94862,0.01 -3.01295,1.69 -3,3 l 0,86 c 1.6e-4,1.5708 1.42925,2.9998 3,3 l 60,0 c 1.57075,-2e-4 2.99984,-1.4292 3,-3 l 0,-70 c 0.002,-0.7861 -0.32012,-1.5681 -0.875,-2.125 l -16,-16 c -0.55685,-0.5549 -1.33889,-0.8769 -2.125,-0.875 l -44,0 z m 3,6 38,0 0,13 a 3.0003,3.0003 0 0 0 3,3 l 13,0 0,64 -54,0 0,-80 z m 44,4.2188 5.78125,5.7812 -5.78125,0 0,-5.7812 z" display="inline" overflow="visible" visibility="visible"/></g><g style="font-style:normal;font-variant:normal;font-weight:400;font-stretch:normal;font-size:15px;line-height:125%;font-family:Cambria;-inkscape-font-specification:Cambria;letter-spacing:0;word-spacing:0;fill:#2caf45;fill-opacity:1;stroke:none;stroke-width:1px;stroke-linecap:butt;stroke-linejoin:miter;stroke-opacity:1" id="text4140" transform="matrix(5.8045592,0,0,5.6013611,452.2872,-4439.1944)"><path id="path4145" d="m -70.855888,966.11462 7.924804,0 0,2.54883 -0.717773,0 q -0.161133,-0.62988 -0.322266,-0.99609 -0.153808,-0.36621 -0.32959,-0.55664 -0.175781,-0.19043 -0.380859,-0.271 -0.197754,-0.0806 -0.600586,-0.0806 l -0.930176,0 0,7.5 q 0,0.43212 0.04395,0.68847 0.05127,0.25635 0.146484,0.41016 0.102539,0.14648 0.270996,0.23437 0.168457,0.0806 0.527344,0.16114 l 0,0.35888 -3.347168,0 0,-0.35888 q 0.219726,-0.0513 0.388183,-0.10987 0.168458,-0.0586 0.270997,-0.13916 0.109863,-0.0879 0.175781,-0.21972 0.07324,-0.13184 0.109863,-0.35889 0.04394,-0.22705 0.04394,-0.6665 l 0,-7.5 -0.922851,0 q -0.344238,0 -0.571289,0.0659 -0.219727,0.0659 -0.410156,0.27832 -0.19043,0.20508 -0.351563,0.59327 -0.153809,0.38085 -0.292969,0.96679 l -0.725097,0 0,-2.54883 z" style="fill:#2caf45;fill-opacity:1"/></g></g></svg>