<?xml version="1.0" encoding="UTF-8" standalone="no"?>
<!-- Created with Inkscape (http://www.inkscape.org/) -->

<svg
   xmlns:dc="http://purl.org/dc/elements/1.1/"
   xmlns:cc="http://creativecommons.org/ns#"
   xmlns:rdf="http://www.w3.org/1999/02/22-rdf-syntax-ns#"
   xmlns:svg="http://www.w3.org/2000/svg"
   xmlns="http://www.w3.org/2000/svg"
   xmlns:sodipodi="http://sodipodi.sourceforge.net/DTD/sodipodi-0.dtd"
   xmlns:inkscape="http://www.inkscape.org/namespaces/inkscape"
   width="128"
   height="128"
   viewBox="0 0 128 128"
   id="svg2"
   version="1.1"
   inkscape:version="0.92.4 5da689c313, 2019-01-14"
   sodipodi:docname="embed-fonts.svg">
  <defs
     id="defs4" />
  <sodipodi:namedview
     id="base"
     pagecolor="#ffffff"
     bordercolor="#666666"
     borderopacity="1.0"
     inkscape:pageopacity="0.0"
     inkscape:pageshadow="2"
     inkscape:zoom="5.6"
     inkscape:cx="6.1653019"
     inkscape:cy="69.707741"
     inkscape:document-units="px"
     inkscape:current-layer="layer1"
     showgrid="false"
     units="px"
     inkscape:window-width="2560"
     inkscape:window-height="1400"
     inkscape:window-x="0"
     inkscape:window-y="40"
     inkscape:window-maximized="0" />
  <metadata
     id="metadata7">
    <rdf:RDF>
      <cc:Work
         rdf:about="">
        <dc:format>image/svg+xml</dc:format>
        <dc:type
           rdf:resource="http://purl.org/dc/dcmitype/StillImage" />
        <dc:title />
        <dc:creator>
          <cc:Agent>
            <dc:title>Kovid Goyal</dc:title>
          </cc:Agent>
        </dc:creator>
        <dc:rights>
          <cc:Agent>
            <dc:title />
          </cc:Agent>
        </dc:rights>
        <dc:publisher>
          <cc:Agent>
            <dc:title />
          </cc:Agent>
        </dc:publisher>
        <cc:license
           rdf:resource="http://creativecommons.org/licenses/by-sa/3.0/" />
      </cc:Work>
      <cc:License
         rdf:about="http://creativecommons.org/licenses/by-sa/3.0/">
        <cc:permits
           rdf:resource="http://creativecommons.org/ns#Reproduction" />
        <cc:permits
           rdf:resource="http://creativecommons.org/ns#Distribution" />
        <cc:requires
           rdf:resource="http://creativecommons.org/ns#Notice" />
        <cc:requires
           rdf:resource="http://creativecommons.org/ns#Attribution" />
        <cc:permits
           rdf:resource="http://creativecommons.org/ns#DerivativeWorks" />
        <cc:requires
           rdf:resource="http://creativecommons.org/ns#ShareAlike" />
      </cc:License>
    </rdf:RDF>
  </metadata>
  <g
     inkscape:label="Layer 1"
     inkscape:groupmode="layer"
     id="layer1"
     transform="translate(0,-924.36216)">
    <g
       transform="matrix(1.3939367,0,0,1.3695651,-5.6968353,-384.43812)"
       id="g4"
       style="fill:#2271d5;fill-opacity:1">
      <path
         inkscape:connector-curvature="0"
         d="m 20.000054,956.3622 c -1.94862,0.01 -3.01295,1.69 -3,3 l 0,86 c 1.6e-4,1.5708 1.42925,2.9998 3,3 l 60,0 c 1.57075,-2e-4 2.99984,-1.4292 3,-3 l 0,-70 c 0.002,-0.7861 -0.32012,-1.5681 -0.875,-2.125 l -16,-16 c -0.55685,-0.5549 -1.33889,-0.8769 -2.125,-0.875 l -44,0 z m 3,6 38,0 0,13 a 3.0003,3.0003 0 0 0 3,3 l 13,0 0,64 -54,0 0,-80 z m 44,4.2188 5.78125,5.7812 -5.78125,0 0,-5.7812 z"
         style="color:#000000;text-indent:0;text-transform:none;direction:ltr;block-progression:tb;baseline-shift:baseline;display:inline;overflow:visible;visibility:visible;fill:#2271d5;fill-opacity:1;fill-rule:nonzero;stroke:none;marker:none;enable-background:accumulate"
         visibility="visible"
         display="inline"
         overflow="visible"
         id="path6" />
    </g>
    <g
       style="font-style:normal;font-variant:normal;font-weight:normal;font-stretch:normal;font-size:15px;line-height:125%;font-family:Cambria;-inkscape-font-specification:Cambria;letter-spacing:0px;word-spacing:0px;fill:#2caf45;fill-opacity:1;stroke:none;stroke-width:1px;stroke-linecap:butt;stroke-linejoin:miter;stroke-opacity:1"
       id="text4140"
       transform="matrix(5.8045592,0,0,5.6013611,452.2872,-4439.1944)">
      <path
         d="m -70.855888,966.11462 7.924804,0 0,2.54883 -0.717773,0 q -0.161133,-0.62988 -0.322266,-0.99609 -0.153808,-0.36621 -0.32959,-0.55664 -0.175781,-0.19043 -0.380859,-0.271 -0.197754,-0.0806 -0.600586,-0.0806 l -0.930176,0 0,7.5 q 0,0.43212 0.04395,0.68847 0.05127,0.25635 0.146484,0.41016 0.102539,0.14648 0.270996,0.23437 0.168457,0.0806 0.527344,0.16114 l 0,0.35888 -3.347168,0 0,-0.35888 q 0.219726,-0.0513 0.388183,-0.10987 0.168458,-0.0586 0.270997,-0.13916 0.109863,-0.0879 0.175781,-0.21972 0.07324,-0.13184 0.109863,-0.35889 0.04394,-0.22705 0.04394,-0.6665 l 0,-7.5 -0.922851,0 q -0.344238,0 -0.571289,0.0659 -0.219727,0.0659 -0.410156,0.27832 -0.19043,0.20508 -0.351563,0.59327 -0.153809,0.38085 -0.292969,0.96679 l -0.725097,0 0,-2.54883 z"
         id="path4145"
         inkscape:connector-curvature="0"
         style="fill:#2caf45;fill-opacity:1" />
    </g>
  </g>
</svg>
