<svg xmlns="http://www.w3.org/2000/svg" xmlns:xlink="http://www.w3.org/1999/xlink" width="128" height="128" viewBox="0 0 128 128"><defs><linearGradient id="a"><stop offset="0"/><stop offset=".482" stop-color="#1b23a8"/><stop offset=".741" stop-color="#2029c4"/><stop offset="1" stop-color="#161c84"/></linearGradient><radialGradient xlink:href="#a" id="b" cx="85.408" cy="972.619" fx="85.408" fy="972.619" r="41.592" gradientTransform="matrix(1.515 0 0 1.515 -65.371 -484.892)" gradientUnits="userSpaceOnUse"/></defs><path d="M110.75 36.531c-1.36-2.285-2.856-4.419-4.477-6.418l4.638-8.384-.548-.583c-4.07-4.361-8.687-8.056-13.674-11.061l-.722-.437-6.885 6.458c-3.77-1.959-7.757-3.464-11.867-4.501l-1.232-9.423-.763-.142c-5.709-1.028-11.552-1.305-17.377-.78l-.816.084-1.753 9.239c-4.32.68-8.596 1.879-12.755 3.632l-6.552-6.864-.722.359c-1.259.623-2.522 1.285-3.761 2.01-3.828 2.236-7.323 4.816-10.494 7.661l-.613.541 4.092 8.548c-3.09 3.187-5.74 6.713-7.936 10.465l-9.316-1.744-.367.745c-2.587 5.188-4.459 10.702-5.543 16.36l-.143.78 8.432 4.563c-.501 4.084-.519 8.273-.047 12.417l-8.551 4.02.154.8c.993 5.689 2.82 11.325 5.492 16.728l.338.689 9.573-1.228.217.381c1.912 3.218 4.141 6.177 6.572 8.843l-4.544 8.227.588.585c4.396 4.248 9.309 7.781 14.613 10.563l.686.359 7.046-6.575c3.216 1.389 6.565 2.5 10 3.264l1.221 9.363.803.137c6.024.944 12.209 1.055 18.352.246l.776-.102 1.791-9.401c3.216-.638 6.438-1.605 9.557-2.866l6.57 6.897.731-.366c1.494-.714 3.017-1.489 4.517-2.367 3.922-2.289 7.493-4.947 10.724-7.883l.597-.55-4.097-8.568c2.332-2.431 4.407-5.051 6.232-7.828l9.461 1.764.382-.683c2.987-5.354 5.15-11.066 6.467-16.976l.195-.793-8.338-4.514c.555-3.486.733-7.052.579-10.609l8.745-4.101-.098-.785c-.675-5.815-2.203-11.644-4.595-17.264l-.34-.762-9.389 1.21c-.559-1.13-1.163-2.263-1.827-3.382zm-20.715 12.105c8.56 14.388 3.73 32.902-10.765 41.401-14.535 8.464-33.197 3.679-41.777-10.695-8.537-14.392-3.723-32.871 10.785-41.403 14.532-8.437 33.202-3.683 41.757 10.698z" fill="url(#b)"/><path d="M55.061 84.335c-1.154 0-2.303-.434-3.184-1.308-1.76-1.742-1.76-4.57 0-6.312l12.829-12.717-12.829-12.714c-1.76-1.742-1.76-4.57 0-6.312 1.755-1.744 4.613-1.744 6.368 0l19.197 19.026-19.197 19.028c-.879.871-2.033 1.308-3.184 1.308z" fill="#1abe30"/></svg>