<svg xmlns="http://www.w3.org/2000/svg" xmlns:svg="http://www.w3.org/2000/svg" xmlns:xlink="http://www.w3.org/1999/xlink" id="svg2" width="128" height="128" version="1.1" viewBox="0 0 128 128"><defs id="defs4"><linearGradient id="linearGradient4151"><stop style="stop-color:#000;stop-opacity:1" id="stop4153" offset="0"/><stop id="stop4159" offset=".482" style="stop-color:#1b23a8;stop-opacity:1"/><stop style="stop-color:#2029c4;stop-opacity:1" id="stop4167" offset=".741"/><stop style="stop-color:#161c84;stop-opacity:1" id="stop4155" offset="1"/></linearGradient><radialGradient id="radialGradient4157" cx="85.408" cy="972.619" r="41.592" fx="85.408" fy="972.619" gradientTransform="matrix(1.5147298,0,0,1.5147296,-65.370687,-484.89203)" gradientUnits="userSpaceOnUse" xlink:href="#linearGradient4151"/></defs><metadata id="metadata7"/><g id="layer1" transform="translate(0,-924.36216)"><path id="path4" d="m 110.75023,960.89277 c -1.35956,-2.2849 -2.8555,-4.4191 -4.47667,-6.41812 l 4.63767,-8.38391 -0.54784,-0.58286 c -4.06972,-4.36148 -8.68727,-8.05589 -13.673787,-11.06106 l -0.722253,-0.43659 -6.884962,6.45801 c -3.770077,-1.95912 -7.75705,-3.46392 -11.86701,-4.5011 l -1.232094,-9.42329 -0.76251,-0.14187 C 69.512,925.37367 63.669061,925.09665 57.84401,925.62187 l -0.816178,0.0842 -1.753106,9.23934 c -4.320161,0.68038 -8.595592,1.87935 -12.754746,3.63236 l -6.551784,-6.86357 -0.722262,0.35903 c -1.258927,0.62274 -2.522325,1.28539 -3.761127,2.01009 -3.82821,2.23614 -7.32324,4.81581 -10.494035,7.66141 l -0.612693,0.54075 4.09207,8.54791 c -3.090296,3.18689 -5.740079,6.71287 -7.935933,10.46489 l -9.3156095,-1.74415 -0.3667206,0.74465 c -2.5871722,5.18813 -4.4587905,10.70204 -5.5433022,16.36 l -0.1431117,0.78009 8.4323478,4.56316 c -0.5008863,4.08446 -0.5187752,8.27308 -0.046957,12.41738 l -8.5508618,4.02019 0.1542919,0.80004 c 0.9928297,5.68904 2.8197271,11.32484 5.491871,16.72794 l 0.3376515,0.6892 9.5727622,-1.2278 c 0.0626,0.1263 0.138643,0.2482 0.216902,0.3812 1.911869,3.2179 4.141263,6.1766 6.571909,8.8426 l -4.543763,8.2267 0.588095,0.585 c 4.396181,4.2485 9.308901,7.7811 14.612939,10.5625 l 0.686485,0.3589 7.045962,-6.5754 c 3.215519,1.3895 6.565203,2.4998 9.999857,3.2644 l 1.220913,9.3634 0.802762,0.1367 c 6.024073,0.9441 12.209137,1.0549 18.351715,0.246 l 0.775928,-0.1021 1.791119,-9.4011 c 3.215517,-0.6383 6.437743,-1.6045 9.557107,-2.8656 l 6.569673,6.8969 0.731205,-0.3657 c 1.493721,-0.7137 3.016509,-1.4892 4.516925,-2.3669 3.922135,-2.2894 7.493189,-4.9466 10.724359,-7.883 l 0.59705,-0.5496 -4.09656,-8.5679 c 2.33226,-2.4312 4.40737,-5.0507 6.23203,-7.8276 l 9.46095,1.7641 0.38238,-0.6826 c 2.98744,-5.3544 5.14975,-11.0655 6.46682,-16.9761 l 0.19454,-0.7934 -8.33844,-4.51443 c 0.55456,-3.48608 0.73345,-7.05195 0.57916,-10.60894 l 8.7454,-4.10126 -0.0983,-0.78454 c -0.67531,-5.81531 -2.20257,-11.64391 -4.5952,-17.26421 l -0.33989,-0.76236 -9.38941,1.21003 c -0.55902,-1.13026 -1.16276,-2.26274 -1.82688,-3.38192 z m -20.715274,12.10489 c 8.559814,14.38758 3.729825,32.90174 -10.764597,41.40084 -14.534676,8.4637 -33.197209,3.6789 -41.77714,-10.6954 -8.537445,-14.39198 -3.723114,-32.87066 10.784729,-41.40304 14.532449,-8.43708 33.20168,-3.68333 41.757008,10.6976 z" style="fill:url(#radialGradient4157);fill-opacity:1"/><path id="path8" d="m 55.061457,1008.6972 c -1.153829,0 -2.303187,-0.4344 -3.184212,-1.3075 -1.759822,-1.742 -1.759822,-4.5698 0,-6.3118 L 64.705774,988.36133 51.877245,975.647 c -1.759822,-1.74195 -1.759822,-4.56982 0,-6.31174 1.755342,-1.74415 4.613083,-1.74415 6.368424,0 l 19.196953,19.02607 -19.196953,19.02837 c -0.878788,0.8709 -2.032619,1.3075 -3.184212,1.3075 z" style="fill:#1abe30;fill-opacity:1"/></g></svg>