<?xml version="1.0" ?><svg id="Layer_1" style="enable-background:new 0 0 128 128;" version="1.1" viewBox="0 0 128 128" xml:space="preserve" xmlns="http://www.w3.org/2000/svg" xmlns:xlink="http://www.w3.org/1999/xlink"><style type="text/css">
	.st0{fill-rule:evenodd;clip-rule:evenodd;}
	.st1{fill-rule:evenodd;clip-rule:evenodd;fill:#7ACED7;}
</style><g id="XMLID_11_"><path class="st0" d="M64,104L64,104c17.6,0,32.7-7.9,44.9-20.3c5.2-5.3,11.2-12.8,14.7-19.7   c-3.6-6.8-9.5-14.4-14.7-19.7C96.7,32,81.6,24.1,64,24.1c-17.6,0-32.7,7.9-44.9,20.3C13.9,49.7,7.9,57.2,4.4,64   c3.6,6.8,9.5,14.4,14.7,19.7C31.3,96,46.4,104,64,104L64,104z M64,108.1L64,108.1c-18.7,0-34.9-8.4-47.8-21.5   C10.4,80.7,3.9,72.4,0.2,64.9C0.1,64.6,0,64.3,0,64c0-0.3,0.1-0.6,0.2-0.9c3.7-7.5,10.2-15.8,15.9-21.6   C29.1,28.3,45.3,19.9,64,19.9l0,0c18.7,0,34.9,8.4,47.8,21.5c5.8,5.8,12.3,14.2,15.9,21.6c0.1,0.3,0.2,0.6,0.2,0.9   c0,0.3-0.1,0.6-0.2,0.9c-3.7,7.5-10.2,15.8-15.9,21.6C98.9,99.7,82.7,108.1,64,108.1L64,108.1z M64,27.6   c20.1,0,36.4,16.3,36.4,36.4c0,20.1-16.3,36.4-36.4,36.4c-20.1,0-36.4-16.3-36.4-36.4C27.6,43.9,43.9,27.6,64,27.6L64,27.6z    M64,31.7c17.8,0,32.3,14.5,32.3,32.3S81.8,96.3,64,96.3c-17.8,0-32.3-14.5-32.3-32.3S46.2,31.7,64,31.7L64,31.7z M46.7,64h-4.1   c0-11.7,9.6-21.4,21.4-21.4v4.2C54.4,46.7,46.7,54.4,46.7,64L46.7,64z M64,50.1c7.7,0,13.9,6.2,13.9,13.9c0,7.7-6.2,13.9-13.9,13.9   c-7.7,0-13.9-6.2-13.9-13.9C50.1,56.4,56.3,50.1,64,50.1z" id="XMLID_16_"/><path class="st1" d="M64,31.7c17.8,0,32.3,14.5,32.3,32.3S81.8,96.3,64,96.3c-17.8,0-32.3-14.5-32.3-32.3   S46.2,31.7,64,31.7L64,31.7z M64,50.1c-7.7,0-13.9,6.2-13.9,13.9c0,7.7,6.2,13.9,13.9,13.9c7.7,0,13.9-6.2,13.9-13.9   C77.9,56.4,71.7,50.1,64,50.1L64,50.1z M46.7,64c0-9.5,7.7-17.2,17.3-17.2v-4.2c-11.8,0-21.4,9.6-21.4,21.4H46.7z" id="XMLID_12_"/></g></svg>