<svg xmlns="http://www.w3.org/2000/svg" xmlns:xlink="http://www.w3.org/1999/xlink" width="128" height="128" version="1"><defs><linearGradient id="c"><stop offset="0"/><stop offset="1" stop-opacity="0"/></linearGradient><linearGradient id="l"><stop offset="0"/><stop offset="1" stop-opacity="0"/></linearGradient><linearGradient id="b"><stop offset="0"/><stop offset=".571"/><stop offset="1" stop-opacity="0"/></linearGradient><linearGradient id="k"><stop offset="0" stop-color="#fff"/><stop offset="1" stop-color="#fff" stop-opacity="0"/></linearGradient><linearGradient id="j"><stop offset="0" stop-color="#fff"/><stop offset="1" stop-color="#fff" stop-opacity="0"/></linearGradient><linearGradient id="h"><stop offset="0" stop-color="#fff"/><stop offset="1" stop-color="#fff" stop-opacity="0"/></linearGradient><linearGradient id="i"><stop offset="0"/><stop offset="1" stop-opacity="0"/></linearGradient><linearGradient id="d"><stop offset="0"/><stop offset="1" stop-opacity="0"/></linearGradient><linearGradient id="g"><stop offset="0"/><stop offset="1" stop-opacity="0"/></linearGradient><linearGradient id="e"><stop offset="0" stop-color="#bdbdbd"/><stop offset="1" stop-color="#bdbdbd" stop-opacity="0"/></linearGradient><linearGradient id="f"><stop offset="0" stop-color="#fff" stop-opacity=".538"/><stop offset=".215" stop-color="#fff"/><stop offset=".663" stop-color="#fff" stop-opacity=".415"/><stop offset="1" stop-color="#fff" stop-opacity="0"/></linearGradient><linearGradient id="a"><stop offset="0"/><stop offset="1" stop-opacity="0"/></linearGradient><radialGradient xlink:href="#a" id="m" cx="63.912" cy="115.709" fx="63.912" fy="115.709" r="63.912" gradientTransform="matrix(1 0 0 .198 0 92.822)" gradientUnits="userSpaceOnUse"/><radialGradient xlink:href="#b" id="n" cx="63.816" cy="120.575" fx="63.816" fy="120.575" r="14.672" gradientTransform="matrix(1 0 0 .289 0 85.71)" gradientUnits="userSpaceOnUse"/><linearGradient xlink:href="#c" x1="67.25" y1="72.375" x2="65.25" y2="17.625" gradientUnits="userSpaceOnUse"/><linearGradient xlink:href="#d" gradientUnits="userSpaceOnUse" gradientTransform="matrix(.765 0 0 .987 19.249 2.108)" x1="94.422" y1="30.356" x2="100.781" y2="35.359"/><linearGradient xlink:href="#e" gradientUnits="userSpaceOnUse" gradientTransform="matrix(.765 0 0 .987 19.249 2.108)" spreadMethod="reflect" x1="55.827" y1="61.355" x2="121.361" y2="52.605"/><linearGradient xlink:href="#f" gradientUnits="userSpaceOnUse" gradientTransform="matrix(.765 0 0 .987 19.249 2.108)" x1="55.875" y1="91.297" x2="70.719" y2="91.297"/><radialGradient xlink:href="#g" gradientUnits="userSpaceOnUse" gradientTransform="matrix(.827 0 0 .139 15.359 56.833)" cx="63.463" cy="66.417" fx="63.463" fy="66.417" r="13.789"/><radialGradient xlink:href="#f" gradientUnits="userSpaceOnUse" gradientTransform="matrix(1.505 -.938 1.243 3.326 -79.061 -69.195)" cx="51.788" cy="41.3" fx="51.788" fy="41.3" r="15.996"/><radialGradient xlink:href="#g" gradientUnits="userSpaceOnUse" gradientTransform="matrix(.827 0 0 .139 15.359 56.833)" cx="63.463" cy="66.417" fx="63.463" fy="66.417" r="13.789"/><radialGradient xlink:href="#f" gradientUnits="userSpaceOnUse" gradientTransform="matrix(1.505 -.938 1.243 3.326 -79.061 -69.195)" cx="52.715" cy="41.561" fx="52.715" fy="41.561" r="15.996"/><radialGradient xlink:href="#h" gradientUnits="userSpaceOnUse" gradientTransform="matrix(.557 0 0 .139 37.135 97.177)" cx="57.214" cy="124.007" fx="49.233" fy="124.007" r="11.383"/><radialGradient xlink:href="#g" gradientUnits="userSpaceOnUse" gradientTransform="matrix(.827 0 0 .244 15.359 49.893)" cx="63.463" cy="66.417" fx="63.463" fy="66.417" r="13.789"/><radialGradient xlink:href="#h" gradientUnits="userSpaceOnUse" gradientTransform="matrix(-.397 -.006 .002 -.139 90.773 126.446)" cx="76.055" cy="102.523" fx="70.111" fy="106.135" r="11.383"/><linearGradient xlink:href="#f" gradientUnits="userSpaceOnUse" gradientTransform="matrix(.765 0 0 .987 19.249 2.108)" x1="55.875" y1="91.297" x2="70.719" y2="91.297"/><linearGradient xlink:href="#i" gradientUnits="userSpaceOnUse" gradientTransform="matrix(.765 0 0 .987 19.249 2.108)" x1="48.327" y1="241.355" x2="60.75" y2="67.105"/><linearGradient xlink:href="#j" gradientUnits="userSpaceOnUse" gradientTransform="matrix(.765 0 0 .987 19.249 2.108)" x1="26.517" y1="6.289" x2="67.553" y2="6.289"/><linearGradient xlink:href="#k" gradientUnits="userSpaceOnUse" gradientTransform="matrix(.765 0 0 .987 19.249 2.108)" x1="27.081" y1="-14.285" x2="59.769" y2="17.406"/><linearGradient xlink:href="#l" gradientUnits="userSpaceOnUse" gradientTransform="matrix(.86 0 0 .947 14.251 3.882)" x1="48.648" y1="123.091" x2="63.212" y2="60.341"/><linearGradient xlink:href="#l" id="A" gradientUnits="userSpaceOnUse" gradientTransform="matrix(.938 0 0 .98 5.36 -.11)" x1="48.648" y1="123.091" x2="63.212" y2="60.341"/><linearGradient xlink:href="#k" id="z" gradientUnits="userSpaceOnUse" gradientTransform="matrix(.834 0 0 .624 10.814 4.972)" x1="27.081" y1="-14.285" x2="59.769" y2="17.406"/><linearGradient xlink:href="#j" id="y" gradientUnits="userSpaceOnUse" gradientTransform="matrix(.833 -.041 .044 .891 10.908 1.296)" x1="26.517" y1="6.289" x2="67.553" y2="6.289"/><linearGradient xlink:href="#i" gradientUnits="userSpaceOnUse" gradientTransform="matrix(.834 0 0 1.021 10.814 -1.945)" x1="48.327" y1="241.355" x2="60.75" y2="67.105"/><linearGradient xlink:href="#f" id="x" gradientUnits="userSpaceOnUse" gradientTransform="matrix(.834 0 0 1.021 10.814 -1.945)" x1="55.875" y1="91.297" x2="70.719" y2="91.297"/><radialGradient xlink:href="#g" id="w" gradientUnits="userSpaceOnUse" gradientTransform="matrix(.902 0 0 .252 6.57 47.482)" cx="63.463" cy="66.417" fx="63.463" fy="66.417" r="13.789"/><radialGradient xlink:href="#f" id="u" gradientUnits="userSpaceOnUse" gradientTransform="matrix(1.642 -.808 1.357 2.866 -96.448 -52.31)" cx="52.715" cy="41.561" fx="52.715" fy="41.561" r="15.996"/><radialGradient xlink:href="#g" id="t" gradientUnits="userSpaceOnUse" gradientTransform="matrix(.902 0 0 .144 6.57 54.661)" cx="63.463" cy="66.417" fx="63.463" fy="66.417" r="13.789"/><radialGradient xlink:href="#f" id="s" gradientUnits="userSpaceOnUse" gradientTransform="matrix(1.642 -.813 1.357 2.882 -96.448 -52.95)" cx="51.788" cy="41.3" fx="51.788" fy="41.3" r="15.996"/><radialGradient xlink:href="#g" id="r" gradientUnits="userSpaceOnUse" gradientTransform="matrix(.902 0 0 .144 6.57 54.661)" cx="63.463" cy="66.417" fx="63.463" fy="66.417" r="13.789"/><linearGradient xlink:href="#f" id="q" gradientUnits="userSpaceOnUse" gradientTransform="matrix(.834 0 0 1.021 10.814 -1.945)" x1="55.875" y1="91.297" x2="70.719" y2="91.297"/><linearGradient xlink:href="#e" id="p" gradientUnits="userSpaceOnUse" gradientTransform="matrix(.834 0 0 1.021 10.814 -1.945)" spreadMethod="reflect" x1="55.827" y1="61.355" x2="121.361" y2="52.605"/><linearGradient xlink:href="#d" id="o" gradientUnits="userSpaceOnUse" gradientTransform="matrix(.834 0 0 .898 10.814 5.941)" x1="94.422" y1="30.356" x2="100.781" y2="35.359"/><radialGradient xlink:href="#h" gradientUnits="userSpaceOnUse" gradientTransform="matrix(-.397 -.006 .002 -.139 90.773 126.446)" cx="76.055" cy="102.523" fx="70.111" fy="106.135" r="11.383"/><radialGradient xlink:href="#h" id="v" gradientUnits="userSpaceOnUse" gradientTransform="matrix(.557 0 0 .139 37.135 97.177)" cx="57.214" cy="124.007" fx="49.233" fy="124.007" r="11.383"/></defs><path d="M127.824 115.709a63.912 12.642 0 1 1-127.824 0 63.912 12.642 0 1 1 127.824 0z" transform="matrix(.61 0 0 .417 25 74.52)" opacity=".381" fill="url(#m)"/><path d="M78.489 120.575a14.672 4.243 0 1 1-29.345 0 14.672 4.243 0 1 1 29.345 0z" transform="matrix(.97 0 0 .982 2.08 1.422)" opacity=".414" fill="url(#n)"/><path d="M53.35 3.293v-2.794 2.794z" fill="#fff" fill-opacity=".757"/><path d="M102.769 18.73c-10.744 15.155-23.321 29.318-30.651 44.472l1.171-.04 35.685-46.172c-2.287.971-4.335 1.516-6.205 1.739z" opacity=".42" fill="url(#o)"/><path d="M64.078.472c-26.489 0-47.986 5.241-47.986 11.246 0 12.378 37.305 50.534 37.305 50.534.154.221.338.587.325 1.013v54.464c0 1.343 1.858 2.178 9.168 2.178 7.153 0 11.546-.644 11.546-2.178v-.034l-.055-54.43c0-.25.034-.534.15-.747 0 0 37.378-38.768 37.378-51.267 0-4.257-21.341-10.78-47.83-10.78z" fill="url(#p)" stroke="#000" stroke-width=".185" stroke-linecap="round" stroke-linejoin="round" stroke-dashoffset="4"/><path d="M64.078 9.398c-19.534 0-35.709 3.958-38.286 9.087 8.418 3.303 22.418 5.515 38.286 5.515 15.851 0 29.84-2.166 38.261-5.463-2.527-5.143-18.69-9.139-38.261-9.139z"/><path d="M57.43 63.661v55.609c1.785.375 4.003.638 6.648.638 2.201 0 4.105-.183 5.736-.447v-55.8c-4.128.922-8.256 1.459-12.384 0z" opacity=".615" fill="url(#q)"/><path d="M54.054 62.48l-.023.064c0 1.221 4.616 3.226 10.31 3.226 5.694 0 10.333-2.006 10.333-3.226l-.023-.064c-2.271.515-6.042.83-10.31.83-4.267 0-8.016-.315-10.287-.83z" opacity=".11" fill="url(#r)"/><path d="M57.43 63.807l-12.831-39.807c8.826 1.007 17.832.6 26.69.16l-1.475 39.647c-4.128.772-8.256 1.222-12.384 0z" opacity=".758" fill="url(#s)"/><path d="M54.054 62.48l-.023.064c0 1.221 4.616 2.414 10.31 2.414 5.694 0 10.333-1.194 10.333-2.414l-.023-.064c-2.271.515-6.108 1.371-10.376 1.371-4.267 0-7.949-.857-10.22-1.371z" opacity=".11" fill="url(#t)"/><path d="M79.338 112.839a11.285 1.482 0 1 1-22.57 0 11.285 1.482 0 1 1 22.57 0z" transform="matrix(4.202 0 0 7.721 -221.939 -859.195)" stroke="#5b5b5b" stroke-width=".196" stroke-linecap="round" stroke-linejoin="round" stroke-dashoffset="4" fill="none"/><path d="M56.729 63.686l-14.842-39.686c8.826 1.001 22.837.809 31.696.372l-3.216 39.427c-4.128.768-9.51 1.102-13.638-.113z" opacity=".758" fill="url(#u)"/><path transform="matrix(4.204 0 0 7.832 -222.103 -871.807)" d="M79.338 112.839a11.285 1.482 0 1 1-22.57 0 11.285 1.482 0 1 1 22.57 0z" stroke="url(#v)" stroke-width=".137" stroke-linecap="round" stroke-linejoin="round" stroke-dashoffset="4" fill="none"/><path d="M54.054 62.48l-.023.064c0 1.221 4.649 4.129 10.343 4.129s10.3-2.908 10.3-4.129l-.023-.064c-2.271.515-6.306 1.597-10.574 1.597-4.267 0-7.751-1.082-10.022-1.597z" opacity=".11" fill="url(#w)"/><path d="M56.752 63.499l.678 55.771c1.785.375 4.003.638 6.648.638 2.201 0 4.105-.183 5.736-.447l.469-55.8c-4.128.922-9.403 1.297-13.531-.162z" opacity=".615" fill="url(#x)"/><path d="M72.189 63.195h1.043v55.646l-1.08.394.037-56.04z" opacity=".213"/><path d="M33.562 4.069c5.153-.997 10.277-1.783 15.357-2.251l.118 7.075c-4.218.293-7.931 1.469-11.928 2.275l-3.548-7.1z" opacity=".836" fill="url(#y)"/><path d="M45.279 11.289c-4.45.186-5.272.256-8.681.583 3.214 1.364 6.905 2.48 9.985 3.664 4.098.166 8.479.249 13.062.292-2.943-1.467-6.6-5.155-10.976-5.7-3.073-.383-3.323 1.189-3.391 1.159z" opacity=".836" fill="url(#z)"/><path d="M53.731 62.886l-.016-.015.161 55.327c.148.6.65.69 1.08.884.74-22.806-.505-38.57-1.225-56.196z" opacity=".533" fill="url(#A)"/></svg>