<svg xmlns="http://www.w3.org/2000/svg" xmlns:cc="http://web.resource.org/cc/" xmlns:svg="http://www.w3.org/2000/svg" xmlns:xlink="http://www.w3.org/1999/xlink" id="svg1307" width="128" height="128" version="1.0"><defs id="defs1309"><linearGradient id="linearGradient2897"><stop style="stop-color:black;stop-opacity:1" id="stop2899" offset="0"/><stop style="stop-color:black;stop-opacity:0" id="stop2901" offset="1"/></linearGradient><linearGradient id="linearGradient2884"><stop style="stop-color:black;stop-opacity:1" id="stop2886" offset="0"/><stop style="stop-color:black;stop-opacity:0" id="stop2888" offset="1"/></linearGradient><linearGradient id="linearGradient3054"><stop style="stop-color:black;stop-opacity:1" id="stop3056" offset="0"/><stop id="stop3062" offset=".571" style="stop-color:black;stop-opacity:1"/><stop style="stop-color:black;stop-opacity:0" id="stop3058" offset="1"/></linearGradient><linearGradient id="linearGradient3040"><stop style="stop-color:white;stop-opacity:1" id="stop3042" offset="0"/><stop style="stop-color:white;stop-opacity:0" id="stop3044" offset="1"/></linearGradient><linearGradient id="linearGradient3027"><stop style="stop-color:white;stop-opacity:1" id="stop3029" offset="0"/><stop style="stop-color:white;stop-opacity:0" id="stop3031" offset="1"/></linearGradient><linearGradient id="linearGradient3012"><stop style="stop-color:white;stop-opacity:1" id="stop3014" offset="0"/><stop style="stop-color:white;stop-opacity:0" id="stop3016" offset="1"/></linearGradient><linearGradient id="linearGradient2999"><stop style="stop-color:black;stop-opacity:1" id="stop3001" offset="0"/><stop style="stop-color:black;stop-opacity:0" id="stop3003" offset="1"/></linearGradient><linearGradient id="linearGradient2981"><stop style="stop-color:black;stop-opacity:1" id="stop2983" offset="0"/><stop style="stop-color:black;stop-opacity:0" id="stop2985" offset="1"/></linearGradient><linearGradient id="linearGradient2947"><stop style="stop-color:black;stop-opacity:1" id="stop2949" offset="0"/><stop style="stop-color:black;stop-opacity:0" id="stop2951" offset="1"/></linearGradient><linearGradient id="linearGradient2929"><stop style="stop-color:#bdbdbd;stop-opacity:1" id="stop2931" offset="0"/><stop style="stop-color:#bdbdbd;stop-opacity:0" id="stop2933" offset="1"/></linearGradient><linearGradient id="linearGradient2903"><stop style="stop-color:white;stop-opacity:.53790611" id="stop2905" offset="0"/><stop id="stop2911" offset=".215" style="stop-color:white;stop-opacity:1"/><stop style="stop-color:white;stop-opacity:.41516244" id="stop2913" offset=".663"/><stop style="stop-color:white;stop-opacity:0" id="stop2907" offset="1"/></linearGradient><linearGradient id="linearGradient3291"><stop style="stop-color:#000;stop-opacity:1" id="stop3293" offset="0"/><stop style="stop-color:#000;stop-opacity:0" id="stop3295" offset="1"/></linearGradient><radialGradient id="radialGradient3297" cx="63.912" cy="115.709" r="63.912" fx="63.912" fy="115.709" gradientTransform="matrix(1,0,0,0.197802,0,92.82166)" gradientUnits="userSpaceOnUse" xlink:href="#linearGradient3291"/><radialGradient id="radialGradient3060" cx="63.816" cy="120.575" r="14.672" fx="63.816" fy="120.575" gradientTransform="matrix(1,0,0,0.289157,0,85.71021)" gradientUnits="userSpaceOnUse" xlink:href="#linearGradient3054"/><linearGradient id="linearGradient2904" x1="67.25" x2="65.25" y1="72.375" y2="17.625" gradientUnits="userSpaceOnUse" xlink:href="#linearGradient2897"/><linearGradient id="linearGradient2256" x1="94.422" x2="100.781" y1="30.356" y2="35.359" gradientTransform="matrix(0.7646663,0,0,0.9871806,19.248865,2.1082198)" gradientUnits="userSpaceOnUse" xlink:href="#linearGradient2981"/><linearGradient id="linearGradient2258" x1="55.827" x2="121.361" y1="61.355" y2="52.605" gradientTransform="matrix(0.7646663,0,0,0.9871796,19.248866,2.1082206)" gradientUnits="userSpaceOnUse" spreadMethod="reflect" xlink:href="#linearGradient2929"/><linearGradient id="linearGradient2260" x1="55.875" x2="70.719" y1="91.297" y2="91.297" gradientTransform="matrix(0.7646663,0,0,0.9871806,19.248865,2.1082198)" gradientUnits="userSpaceOnUse" xlink:href="#linearGradient2903"/><radialGradient id="radialGradient2262" cx="63.463" cy="66.417" r="13.789" fx="63.463" fy="66.417" gradientTransform="matrix(0.8268423,0,0,0.1392194,15.358897,56.83334)" gradientUnits="userSpaceOnUse" xlink:href="#linearGradient2947"/><radialGradient id="radialGradient2264" cx="51.788" cy="41.3" r="15.996" fx="51.788" fy="41.3" gradientTransform="matrix(1.5047306,-0.9375819,1.2433202,3.3256839,-79.061389,-69.19504)" gradientUnits="userSpaceOnUse" xlink:href="#linearGradient2903"/><radialGradient id="radialGradient2266" cx="63.463" cy="66.417" r="13.789" fx="63.463" fy="66.417" gradientTransform="matrix(0.8268423,0,0,0.1392194,15.358897,56.83334)" gradientUnits="userSpaceOnUse" xlink:href="#linearGradient2947"/><radialGradient id="radialGradient2268" cx="52.715" cy="41.561" r="15.996" fx="52.715" fy="41.561" gradientTransform="matrix(1.5047306,-0.9375819,1.2433202,3.3256839,-79.061389,-69.19504)" gradientUnits="userSpaceOnUse" xlink:href="#linearGradient2903"/><radialGradient id="radialGradient2270" cx="57.214" cy="124.007" r="11.383" fx="49.233" fy="124.007" gradientTransform="matrix(0.556928,-2.91845e-8,0,0.138799,37.13478,97.17706)" gradientUnits="userSpaceOnUse" xlink:href="#linearGradient3012"/><radialGradient id="radialGradient2272" cx="63.463" cy="66.417" r="13.789" fx="63.463" fy="66.417" gradientTransform="matrix(0.8268423,0,0,0.2437132,15.358897,49.893028)" gradientUnits="userSpaceOnUse" xlink:href="#linearGradient2947"/><radialGradient id="radialGradient2274" cx="76.055" cy="102.523" r="11.383" fx="70.111" fy="106.135" gradientTransform="matrix(-0.396982,-6.091903e-3,2.173148e-3,-0.138782,90.77277,126.4457)" gradientUnits="userSpaceOnUse" xlink:href="#linearGradient3012"/><linearGradient id="linearGradient2276" x1="55.875" x2="70.719" y1="91.297" y2="91.297" gradientTransform="matrix(0.7646663,0,0,0.9871806,19.248865,2.1082198)" gradientUnits="userSpaceOnUse" xlink:href="#linearGradient2903"/><linearGradient id="linearGradient2278" x1="48.327" x2="60.75" y1="241.355" y2="67.105" gradientTransform="matrix(0.7646663,0,0,0.9871806,19.248865,2.1082198)" gradientUnits="userSpaceOnUse" xlink:href="#linearGradient2999"/><linearGradient id="linearGradient2280" x1="26.517" x2="67.553" y1="6.289" y2="6.289" gradientTransform="matrix(0.7646663,0,0,0.9871806,19.248865,2.1082198)" gradientUnits="userSpaceOnUse" xlink:href="#linearGradient3027"/><linearGradient id="linearGradient2282" x1="27.081" x2="59.769" y1="-14.285" y2="17.406" gradientTransform="matrix(0.7646663,0,0,0.9871806,19.248865,2.1082198)" gradientUnits="userSpaceOnUse" xlink:href="#linearGradient3040"/><linearGradient id="linearGradient2284" x1="48.648" x2="63.212" y1="123.091" y2="60.341" gradientTransform="matrix(0.8601654,0,0,0.9472313,14.250514,3.8818714)" gradientUnits="userSpaceOnUse" xlink:href="#linearGradient2884"/><linearGradient id="linearGradient2287" x1="48.648" x2="63.212" y1="123.091" y2="60.341" gradientTransform="matrix(0.9384891,0,0,0.9797769,5.3602634,-0.1102297)" gradientUnits="userSpaceOnUse" xlink:href="#linearGradient2884"/><linearGradient id="linearGradient2290" x1="27.081" x2="59.769" y1="-14.285" y2="17.406" gradientTransform="matrix(0.8342942,0,0,0.6237166,10.813747,4.9721139)" gradientUnits="userSpaceOnUse" xlink:href="#linearGradient3040"/><linearGradient id="linearGradient2293" x1="26.517" x2="67.553" y1="6.289" y2="6.289" gradientTransform="matrix(0.8332988,-4.0741942e-2,4.3563196e-2,0.8910022,10.908193,1.2960712)" gradientUnits="userSpaceOnUse" xlink:href="#linearGradient3027"/><linearGradient id="linearGradient2297" x1="48.327" x2="60.75" y1="241.355" y2="67.105" gradientTransform="matrix(0.8342942,0,0,1.0210988,10.813747,-1.9448217)" gradientUnits="userSpaceOnUse" xlink:href="#linearGradient2999"/><linearGradient id="linearGradient2300" x1="55.875" x2="70.719" y1="91.297" y2="91.297" gradientTransform="matrix(0.8342942,0,0,1.0210988,10.813747,-1.9448217)" gradientUnits="userSpaceOnUse" xlink:href="#linearGradient2903"/><radialGradient id="radialGradient2304" cx="63.463" cy="66.417" r="13.789" fx="63.463" fy="66.417" gradientTransform="matrix(0.9021317,0,0,0.2520869,6.5695719,47.48181)" gradientUnits="userSpaceOnUse" xlink:href="#linearGradient2947"/><radialGradient id="radialGradient2308" cx="52.715" cy="41.561" r="15.996" fx="52.715" fy="41.561" gradientTransform="matrix(1.6417463,-0.8079979,1.3565327,2.8660381,-96.448304,-52.309632)" gradientUnits="userSpaceOnUse" xlink:href="#linearGradient2903"/><radialGradient id="radialGradient2312" cx="63.463" cy="66.417" r="13.789" fx="63.463" fy="66.417" gradientTransform="matrix(0.9021317,0,0,0.1440028,6.5695719,54.660582)" gradientUnits="userSpaceOnUse" xlink:href="#linearGradient2947"/><radialGradient id="radialGradient2315" cx="51.788" cy="41.3" r="15.996" fx="51.788" fy="41.3" gradientTransform="matrix(1.6417463,-0.8125119,1.3565327,2.88205,-96.448304,-52.949828)" gradientUnits="userSpaceOnUse" xlink:href="#linearGradient2903"/><radialGradient id="radialGradient2318" cx="63.463" cy="66.417" r="13.789" fx="63.463" fy="66.417" gradientTransform="matrix(0.9021317,0,0,0.1440028,6.5695719,54.660582)" gradientUnits="userSpaceOnUse" xlink:href="#linearGradient2947"/><linearGradient id="linearGradient2321" x1="55.875" x2="70.719" y1="91.297" y2="91.297" gradientTransform="matrix(0.8342942,0,0,1.0210988,10.813747,-1.9448217)" gradientUnits="userSpaceOnUse" xlink:href="#linearGradient2903"/><linearGradient id="linearGradient2325" x1="55.827" x2="121.361" y1="61.355" y2="52.605" gradientTransform="matrix(0.8342942,0,0,1.0210978,10.813748,-1.9448209)" gradientUnits="userSpaceOnUse" spreadMethod="reflect" xlink:href="#linearGradient2929"/><linearGradient id="linearGradient2328" x1="94.422" x2="100.781" y1="30.356" y2="35.359" gradientTransform="matrix(0.8342942,0,0,0.8975001,10.813747,5.9409483)" gradientUnits="userSpaceOnUse" xlink:href="#linearGradient2981"/><radialGradient id="radialGradient2330" cx="76.055" cy="102.523" r="11.383" fx="70.111" fy="106.135" gradientTransform="matrix(-0.396982,-6.091903e-3,2.173148e-3,-0.138782,90.77277,126.4457)" gradientUnits="userSpaceOnUse" xlink:href="#linearGradient3012"/><radialGradient id="radialGradient2332" cx="57.214" cy="124.007" r="11.383" fx="49.233" fy="124.007" gradientTransform="matrix(0.556928,-2.91845e-8,0,0.138799,37.13478,97.17706)" gradientUnits="userSpaceOnUse" xlink:href="#linearGradient3012"/></defs><metadata id="metadata1312"/><g id="layer1"><path style="opacity:.38139535;fill:url(#radialGradient3297);fill-opacity:1;fill-rule:nonzero;stroke:none;stroke-width:0;stroke-linecap:round;stroke-linejoin:round;stroke-miterlimit:4;stroke-dasharray:none;stroke-dashoffset:4;stroke-opacity:1" id="path3289" d="M 127.82442 115.70919 A 63.912209 12.641975 0 1 1 0,115.70919 A 63.912209 12.641975 0 1 1 127.82442 115.70919 z" transform="matrix(0.6102121,0,0,0.416667,24.999997,74.520305)"/><path style="opacity:.41393445;fill:url(#radialGradient3060);fill-opacity:1;fill-rule:nonzero;stroke:none;stroke-width:.69499999;stroke-linecap:round;stroke-linejoin:round;stroke-miterlimit:4;stroke-dasharray:none;stroke-dashoffset:4;stroke-opacity:1" id="path3052" d="M 78.488853 120.57538 A 14.672465 4.2426405 0 1 1 49.143922,120.57538 A 14.672465 4.2426405 0 1 1 78.488853 120.57538 z" transform="matrix(0.9702784,0,0,0.9820563,2.080338,1.4216782)"/><path id="path2276" d="M 53.349575,3.2933654 L 53.349575,0.49920781 L 53.349575,3.2933654 z" style="fill:#fff;fill-opacity:.75688076;fill-rule:nonzero;stroke:none;stroke-width:.5;stroke-linecap:round;stroke-linejoin:round;stroke-miterlimit:4;stroke-dasharray:none;stroke-dashoffset:4;stroke-opacity:1"/><path style="opacity:.41999996;fill:url(#linearGradient2328);fill-opacity:1;fill-rule:nonzero;stroke:none;stroke-width:2.79999995;stroke-linecap:round;stroke-linejoin:round;stroke-miterlimit:4;stroke-dasharray:none;stroke-dashoffset:4;stroke-opacity:.31707315" id="path2978" d="M 102.76856,18.730326 C 92.024693,33.884991 79.448035,48.048049 72.117251,63.202716 L 73.288437,63.163051 L 108.97363,16.991419 C 106.68706,17.962299 104.63818,18.507029 102.76856,18.730326 z"/><path style="fill:url(#linearGradient2325);fill-opacity:1;fill-rule:nonzero;stroke:#000;stroke-width:.18459648;stroke-linecap:round;stroke-linejoin:round;stroke-miterlimit:4;stroke-dasharray:none;stroke-dashoffset:4;stroke-opacity:1" id="path1969" d="M 64.07844,0.4721712 C 37.58961,0.4721712 16.092299,5.7132236 16.092299,11.718435 C 16.092299,24.096447 53.39715,62.252891 53.39715,62.252891 C 53.55139,62.473797 53.73502,62.839504 53.72186,63.265829 L 53.72186,117.72963 C 53.72186,119.07259 55.58016,119.9077 62.88947,119.9077 C 70.04254,119.9077 74.43501,119.26405 74.43501,117.72963 C 74.43501,117.72109 74.43573,117.70417 74.43501,117.69564 L 74.3799,63.265838 C 74.3799,63.015828 74.41383,62.731875 74.53013,62.518927 C 74.53013,62.518927 111.90814,23.750824 111.90814,11.251924 C 111.90814,6.9947672 90.56726,0.4721713 64.07844,0.4721712 z"/><path style="fill:#000;fill-opacity:1;fill-rule:nonzero;stroke:none;stroke-width:2.79999995;stroke-linecap:round;stroke-linejoin:round;stroke-miterlimit:4;stroke-dasharray:none;stroke-dashoffset:4;stroke-opacity:.31707315" id="path2880" d="M 64.077815,9.398298 C 44.544101,9.398298 28.36902,13.356343 25.791837,18.484968 C 34.209824,21.787518 48.209741,24 64.077815,24 C 79.928558,24 93.917453,21.833952 102.33849,18.537495 C 99.811032,13.39477 83.64834,9.398298 64.077815,9.398298 z"/><path style="opacity:.61475375;fill:url(#linearGradient2321);fill-opacity:1;fill-rule:nonzero;stroke:none;stroke-width:2.79999995;stroke-linecap:round;stroke-linejoin:round;stroke-miterlimit:4;stroke-dasharray:none;stroke-dashoffset:4;stroke-opacity:.31707315" id="path2900" d="M 57.429913,63.660786 L 57.429913,119.26952 C 59.214996,119.64495 61.433104,119.9077 64.07819,119.9077 C 66.27883,119.9077 68.183409,119.72504 69.813958,119.46096 L 69.813958,63.660786 C 65.685944,64.582695 61.557928,65.119361 57.429913,63.660786 z"/><path style="opacity:.11000001;fill:url(#radialGradient2318);fill-opacity:1;fill-rule:nonzero;stroke:none;stroke-width:1;stroke-linecap:round;stroke-linejoin:round;stroke-miterlimit:4;stroke-dasharray:none;stroke-dashoffset:4;stroke-opacity:1" id="path2945" d="M 54.05364,62.480138 C 54.050373,62.503 54.030261,62.520928 54.030261,62.543957 C 54.030261,63.764542 58.646106,65.770396 64.340254,65.770396 C 70.034397,65.770396 74.673621,63.764543 74.673625,62.543957 C 74.673625,62.521598 74.653326,62.50234 74.650245,62.480138 C 72.379359,62.994783 68.608504,63.309781 64.340254,63.309781 C 60.073012,63.30978 56.3247,62.994578 54.05364,62.480138 z"/><path id="path2915" d="M 57.429913,63.807359 L 44.598832,24 C 53.424982,25.007037 62.430518,24.599508 71.288795,24.160406 L 69.813958,63.807359 C 65.685944,64.57975 61.557928,65.029378 57.429913,63.807359 z" style="opacity:.75819672;fill:url(#radialGradient2315);fill-opacity:1;fill-rule:nonzero;stroke:none;stroke-width:2.79999995;stroke-linecap:round;stroke-linejoin:round;stroke-miterlimit:4;stroke-dasharray:none;stroke-dashoffset:4;stroke-opacity:.31707315"/><path id="path2962" d="M 54.05364,62.480138 C 54.050373,62.503 54.030261,62.520928 54.030261,62.543957 C 54.030261,63.764542 58.646106,64.958119 64.340254,64.958119 C 70.034397,64.958119 74.673621,63.764543 74.673625,62.543957 C 74.673625,62.521598 74.653326,62.50234 74.650245,62.480138 C 72.379359,62.994783 68.54238,63.8513 64.274128,63.8513 C 60.006886,63.851299 56.3247,62.994578 54.05364,62.480138 z" style="opacity:.11000001;fill:url(#radialGradient2312);fill-opacity:1;fill-rule:nonzero;stroke:none;stroke-width:1;stroke-linecap:round;stroke-linejoin:round;stroke-miterlimit:4;stroke-dasharray:none;stroke-dashoffset:4;stroke-opacity:1"/><path style="fill:none;fill-opacity:1;fill-rule:nonzero;stroke:#5b5b5b;stroke-width:.19620273;stroke-linecap:round;stroke-linejoin:round;stroke-miterlimit:4;stroke-dasharray:none;stroke-dashoffset:4;stroke-opacity:1" id="path2871" d="M 79.338449 112.83906 A 11.285211 1.4818963 0 1 1 56.768027,112.83906 A 11.285211 1.4818963 0 1 1 79.338449 112.83906 z" transform="matrix(4.2019807,0,0,7.7206883,-221.93924,-859.19522)"/><path style="opacity:.75819672;fill:url(#radialGradient2308);fill-opacity:1;fill-rule:nonzero;stroke:none;stroke-width:2.79999995;stroke-linecap:round;stroke-linejoin:round;stroke-miterlimit:4;stroke-dasharray:none;stroke-dashoffset:4;stroke-opacity:.31707315" id="path2939" d="M 56.729366,63.68609 L 41.887377,24 C 50.713529,25.001442 64.724826,24.808862 73.583104,24.3722 L 70.367024,63.798885 C 66.239006,64.566985 60.857381,64.90132 56.729366,63.68609 z"/><path id="path3010" d="M 79.338449 112.83906 A 11.285211 1.4818963 0 1 1 56.768027,112.83906 A 11.285211 1.4818963 0 1 1 79.338449 112.83906 z" transform="matrix(4.2043803,0,0,7.832456,-222.10254,-871.80695)" style="fill:none;fill-opacity:1;fill-rule:nonzero;stroke:url(#radialGradient2332);stroke-width:.13700832;stroke-linecap:round;stroke-linejoin:round;stroke-miterlimit:4;stroke-dasharray:none;stroke-dashoffset:4;stroke-opacity:1"/><path style="opacity:.11000001;fill:url(#radialGradient2304);fill-opacity:1;fill-rule:nonzero;stroke:none;stroke-width:1;stroke-linecap:round;stroke-linejoin:round;stroke-miterlimit:4;stroke-dasharray:none;stroke-dashoffset:4;stroke-opacity:1" id="path2964" d="M 54.05364,62.480138 C 54.050373,62.503 54.030261,62.520928 54.030261,62.543957 C 54.030261,63.764542 58.679169,66.672928 64.373314,66.672928 C 70.067458,66.672928 74.673621,63.764543 74.673625,62.543957 C 74.673625,62.521598 74.653326,62.50234 74.650245,62.480138 C 72.379359,62.994783 68.344005,64.076933 64.075754,64.076933 C 59.80851,64.076932 56.3247,62.994578 54.05364,62.480138 z"/><path id="path2943" d="M 56.752048,63.49897 L 57.429913,119.26952 C 59.214996,119.64495 61.433104,119.9077 64.07819,119.9077 C 66.27883,119.9077 68.183409,119.72504 69.813958,119.46096 L 70.283249,63.660786 C 66.155234,64.582695 60.880065,64.957546 56.752048,63.49897 z" style="opacity:.61475375;fill:url(#linearGradient2300);fill-opacity:1;fill-rule:nonzero;stroke:none;stroke-width:2.79999995;stroke-linecap:round;stroke-linejoin:round;stroke-miterlimit:4;stroke-dasharray:none;stroke-dashoffset:4;stroke-opacity:.31707315"/><path style="opacity:.21311478;fill:#000;fill-opacity:1;fill-rule:nonzero;stroke:none;stroke-width:.2;stroke-linecap:round;stroke-linejoin:round;stroke-miterlimit:4;stroke-dashoffset:4;stroke-opacity:1" id="rect3007" d="M 72.189405,63.195363 L 73.23227,63.195363 L 73.23227,118.84109 L 72.15253,119.23497 L 72.189405,63.195363 z"/><path style="opacity:.83606561;fill:url(#linearGradient2293);fill-opacity:1;fill-rule:nonzero;stroke:none;stroke-width:.69499999;stroke-linecap:round;stroke-linejoin:round;stroke-miterlimit:4;stroke-dashoffset:4;stroke-opacity:1" id="rect3024" d="M 33.561894,4.0688722 C 38.714737,3.0721977 43.838836,2.2854781 48.91922,1.8181091 L 49.037348,8.8932006 C 44.819109,9.1859388 41.106601,10.362191 37.109709,11.168653 L 33.561894,4.0688722 z"/><path style="opacity:.83606561;fill:url(#linearGradient2290);fill-opacity:1;fill-rule:nonzero;stroke:none;stroke-width:.69499999;stroke-linecap:round;stroke-linejoin:round;stroke-miterlimit:4;stroke-dasharray:none;stroke-dashoffset:4;stroke-opacity:1" id="path3035" d="M 45.279272,11.288602 C 40.829452,11.474899 40.007663,11.54473 36.59864,11.871979 C 39.812937,13.236 43.503323,14.352439 46.584092,15.536315 C 50.68162,15.702374 55.063348,15.785167 59.646005,15.828683 C 56.702723,14.361914 53.045552,10.674121 48.669828,10.129129 C 45.59708,9.7464214 45.346835,11.317702 45.279272,11.288602 z"/><path id="path2882" d="M 53.730639,62.885731 L 53.714243,62.870422 L 53.875545,118.19758 C 54.023651,118.79808 54.525843,118.88716 54.955285,119.08134 C 55.694913,96.275115 54.450528,80.511284 53.730639,62.885731 z" style="opacity:.53278689;fill:url(#linearGradient2287);fill-opacity:1;fill-rule:nonzero;stroke:none;stroke-width:.2;stroke-linecap:round;stroke-linejoin:round;stroke-miterlimit:4;stroke-dashoffset:4;stroke-opacity:1"/></g></svg>