<?xml version="1.0" encoding="UTF-8" standalone="no"?>
<!-- Created with Inkscape (http://www.inkscape.org/) -->

<svg
   xmlns:dc="http://purl.org/dc/elements/1.1/"
   xmlns:cc="http://creativecommons.org/ns#"
   xmlns:rdf="http://www.w3.org/1999/02/22-rdf-syntax-ns#"
   xmlns:svg="http://www.w3.org/2000/svg"
   xmlns="http://www.w3.org/2000/svg"
   xmlns:sodipodi="http://sodipodi.sourceforge.net/DTD/sodipodi-0.dtd"
   xmlns:inkscape="http://www.inkscape.org/namespaces/inkscape"
   width="128"
   height="128"
   viewBox="0 0 128 128"
   id="svg2"
   version="1.1"
   inkscape:version="0.92.4 5da689c313, 2019-01-14"
   sodipodi:docname="folder_saved_search.svg">
  <defs
     id="defs4" />
  <sodipodi:namedview
     id="base"
     pagecolor="#ffffff"
     bordercolor="#666666"
     borderopacity="1.0"
     inkscape:pageopacity="0.0"
     inkscape:pageshadow="2"
     inkscape:zoom="7.919596"
     inkscape:cx="68.276786"
     inkscape:cy="69.707741"
     inkscape:document-units="px"
     inkscape:current-layer="layer1"
     showgrid="false"
     units="px"
     inkscape:window-width="2560"
     inkscape:window-height="1400"
     inkscape:window-x="0"
     inkscape:window-y="40"
     inkscape:window-maximized="0" />
  <metadata
     id="metadata7">
    <rdf:RDF>
      <cc:Work
         rdf:about="">
        <dc:format>image/svg+xml</dc:format>
        <dc:type
           rdf:resource="http://purl.org/dc/dcmitype/StillImage" />
        <dc:title />
        <dc:creator>
          <cc:Agent>
            <dc:title>Kovid Goyal</dc:title>
          </cc:Agent>
        </dc:creator>
        <dc:rights>
          <cc:Agent>
            <dc:title />
          </cc:Agent>
        </dc:rights>
        <dc:publisher>
          <cc:Agent>
            <dc:title />
          </cc:Agent>
        </dc:publisher>
        <cc:license
           rdf:resource="http://creativecommons.org/licenses/by-sa/3.0/" />
      </cc:Work>
      <cc:License
         rdf:about="http://creativecommons.org/licenses/by-sa/3.0/">
        <cc:permits
           rdf:resource="http://creativecommons.org/ns#Reproduction" />
        <cc:permits
           rdf:resource="http://creativecommons.org/ns#Distribution" />
        <cc:requires
           rdf:resource="http://creativecommons.org/ns#Notice" />
        <cc:requires
           rdf:resource="http://creativecommons.org/ns#Attribution" />
        <cc:permits
           rdf:resource="http://creativecommons.org/ns#DerivativeWorks" />
        <cc:requires
           rdf:resource="http://creativecommons.org/ns#ShareAlike" />
      </cc:License>
    </rdf:RDF>
  </metadata>
  <g
     inkscape:label="Layer 1"
     inkscape:groupmode="layer"
     id="layer1"
     transform="translate(0,-924.36216)">
    <path
       id="path6-6"
       d="m 125.24493,1000.8422 c -1.58744,-2.02755 -4.0872,-3.04529 -6.68579,-3.04529 l -92.131013,0 c -4.627058,0 -8.133024,2.79579 -9.368384,7.20509 0,0 0,-0.1661 0,-0.1655 l -12.79591,46.5257 107.224077,0 c 2.20513,0 4.13539,-1.6265 4.69439,-3.7283 l 10.54507,-39.6145 c 0.65969,-2.4768 0.10562,-5.1496 -1.48244,-7.1772 z"
       inkscape:connector-curvature="0"
       style="fill:#3027dd;fill-opacity:1" />
    <path
       id="path8"
       d="m 26.428127,993.53604 16.838636,0 3.520788,0 2.391666,0 0,-60.52687 c 0,-2.32704 3.251479,-2.16878 3.657297,-2.16878 l 42.324205,0 c 1.229805,0.6087 1.580031,0.36096 1.580031,1.59235 l 0,8.90765 c 0,2.83531 2.821573,6.54348 5.73703,6.54348 l 7.43875,0 c 1.36137,0 2.26628,-0.39322 2.26628,1.14922 l 0,44.50295 4.94145,0 0,-47.44478 c 0,-1.92165 -0.19518,-4.36922 -2.03155,-6.2513 l -12.0899,-12.17818 c -1.59732,-1.63739 -3.665941,-2.29965 -6.366448,-2.29965 l -43.799848,0 c -4.601733,0 -9.216437,2.75861 -9.216437,7.64704 l 0,31.42757 c -4.323776,-0.5387 -8.42951,-1.9107 -10.14852,-6.02791 -1.030294,-2.46887 -3.200211,-4.438 -5.909366,-4.438 l -21.052468,0 C 3.588093,953.97083 1,956.23944 1,959.11857 l 0,7.03104 0,1.13583 0,76.97326 10.921863,-40.1587 c 1.71777,-6.44126 7.748202,-10.56396 14.506264,-10.56396 z"
       inkscape:connector-curvature="0"
       style="fill:#2271d5;fill-opacity:1" />
    <path
       inkscape:connector-curvature="0"
       d="m 95.489615,975.4847 -11.935263,-9.67724 c -0.430099,-0.32257 -0.645149,-0.96772 -0.322574,-1.50535 2.365547,-5.05367 1.505348,-11.18259 -2.688123,-15.37606 -5.591294,-5.59129 -15.053484,-5.26872 -20.214679,1.18278 -3.870896,4.83862 -3.870896,11.82773 -0.107524,16.77388 4.085945,5.16119 10.967538,6.45149 16.451307,3.8709 0.537625,-0.21505 1.075249,-0.10753 1.505349,0.32257 l 9.67724,11.93524 c 1.505348,1.82792 4.193471,1.93545 5.806344,0.32258 l 2.258023,-2.25803 c 1.505348,-1.3978 1.397823,-4.08592 -0.4301,-5.59127 z m -17.311507,-9.56971 c -3.978421,3.97842 -10.537439,3.97842 -14.623385,0 -3.978421,-3.97843 -3.978421,-10.53744 0,-14.62339 3.978421,-4.08594 10.537439,-3.97842 14.623385,0 4.085946,4.08595 4.085946,10.64496 0,14.62339 z"
       id="path6"
       style="fill:#2caf45;fill-opacity:1" />
  </g>
</svg>
