<svg xmlns="http://www.w3.org/2000/svg" xmlns:xlink="http://www.w3.org/1999/xlink" width="128" height="128" viewBox="0 0 128 128"><defs><linearGradient id="a"><stop offset="0" stop-color="#69186c"/><stop offset="1" stop-color="#be2cc4"/></linearGradient><filter color-interpolation-filters="sRGB"><feFlood flood-opacity=".498" flood-color="#000" result="flood"/><feComposite in="flood" in2="SourceGraphic" operator="out" result="composite1"/><feGaussianBlur in="composite1" stdDeviation="1" result="blur"/><feOffset dx="1.3" dy="1" result="offset"/><feComposite in="offset" in2="SourceGraphic" operator="atop" result="composite2"/></filter><linearGradient xlink:href="#a" id="b" x1="36.089" y1="934.487" x2="36.089" y2="974.219" gradientUnits="userSpaceOnUse" gradientTransform="matrix(1 0 0 -1 0 1913.087)"/><filter color-interpolation-filters="sRGB"><feFlood flood-opacity=".498" flood-color="#000" result="flood"/><feComposite in="flood" in2="SourceGraphic" operator="out" result="composite1"/><feGaussianBlur in="composite1" stdDeviation="1" result="blur"/><feOffset dx="1.3" dy="1" result="offset"/><feComposite in="offset" in2="SourceGraphic" operator="atop" result="composite2"/></filter></defs><path d="M126.44 101.706q.495 1.368.495 2.239.062.808-.433 1.244-.495.435-1.669.56-1.113.124-3.03.124-1.917 0-3.092-.124-1.113-.062-1.731-.249-.556-.249-.866-.622-.247-.373-.495-.933l-6.863-19.588h-33.265l-6.554 19.339q-.185.56-.495.995-.309.373-.927.684-.556.249-1.669.373-1.051.124-2.782.124-1.793 0-2.968-.187-1.113-.124-1.608-.56-.433-.435-.433-1.244.062-.871.556-2.239l26.835-74.743q.247-.684.618-1.119.433-.435 1.175-.684.804-.249 1.979-.311 1.237-.124 3.092-.124 1.979 0 3.277.124 1.298.062 2.102.311.804.249 1.237.746.433.435.68 1.119l26.835 74.744zm-34.44-65.976h-.062l-13.788 40.108h27.824l-13.974-40.108z" style="line-height:125%;-inkscape-font-specification:Calibri" font-size="90" font-family="Calibri" letter-spacing="0" word-spacing="0" fill="#261fb5"/><path d="M2.32 22.327l30.452 30.714c.842.857 1.965 1.286 3.228 1.286 1.263 0 2.386-.429 3.228-1.286l30.452-30.714c1.263-1.286 1.684-3.286.982-5.143-.702-1.714-2.386-2.857-4.21-2.857h-60.904c-1.824 0-3.508 1.143-4.21 2.857-.702 1.714-.281 3.714.982 5.143z" fill="url(#b)"/><path d="M51.215 103.436q.237.652.237 1.066.03.384-.207.592-.237.206-.799.267-.533.061-1.451.061t-1.48-.061q-.533-.04-.829-.117-.266-.117-.414-.295-.118-.178-.237-.444l-3.286-9.325h-15.927l-3.138 9.207q-.089.267-.237.474-.148.178-.444.327-.266.117-.799.178-.503.061-1.332.061-.859 0-1.421-.089-.533-.061-.77-.267-.207-.206-.207-.592.03-.415.266-1.066l12.848-35.585q.118-.326.296-.533.207-.207.562-.326.385-.118.947-.148.592-.059 1.48-.059.947 0 1.569.059.622.028 1.007.148.385.118.592.355.207.207.326.533l12.848 35.585zm-16.49-31.41h-.03l-6.602 19.095h13.322l-6.691-19.095z" style="line-height:125%;-inkscape-font-specification:Calibri" font-size="15" font-family="Calibri" letter-spacing="0" word-spacing="0" fill="#261fb5"/></svg>