<svg xmlns="http://www.w3.org/2000/svg" xmlns:xlink="http://www.w3.org/1999/xlink" width="128" height="128" viewBox="0 0 128 128"><defs><linearGradient id="a"><stop offset="0" stop-color="#ddd"/><stop offset="1" stop-color="#969696" stop-opacity=".996"/></linearGradient><linearGradient xlink:href="#a" id="b" x1="10" y1="988.362" x2="118" y2="988.362" gradientUnits="userSpaceOnUse"/><filter id="c" color-interpolation-filters="sRGB"><feFlood flood-opacity=".498" flood-color="#000" result="flood"/><feComposite in="flood" in2="SourceGraphic" operator="out" result="composite1"/><feGaussianBlur in="composite1" stdDeviation="1" result="blur"/><feOffset dx="1.3" dy="1" result="offset"/><feComposite in="offset" in2="SourceGraphic" operator="atop" result="composite2"/></filter></defs><path d="M10.015 106.929h102.799v-48.861h-102.799" fill="none"/><path d="M81.727 29.851h18.801c-5.641-7.968-16.68-20.594-22.924-26.114v21.354c-.001 2.625 1.849 4.76 4.123 4.76z" fill="#3c3c3c"/><path d="M104.062 52.88v-16.262h-22.335c-5.504 0-9.986-5.171-9.986-11.527v-24.091h-54.687c-3.897 0-7.055 3.646-7.055 8.145v25.069h.015v23.858h102.822v48.865h-102.821v12.259c.155 4.339 3.242 7.805 7.04 7.805h79.954c3.896 0 7.054-3.647 7.054-8.145v-6.726h13.936v-59.249h-13.938z" fill="url(#b)"/><path d="M10.015 106.929h102.799v-48.861h-102.799" fill="none"/><path d="M17.47 74.889h-7.006v-4.985h20.05v4.985h-7.122v21.263h-5.922v-21.263zm41.16-4.985h15.947v4.868h-10.025v5.997h9.368v4.828h-9.368v10.554h-5.922v-26.247zm-17.288 4.985h-7.006v-4.985h20.05v4.985h-7.122v21.263h-5.922v-21.263z" fill="#6d0b0b" filter="url(#c)"/></svg>