<?xml version="1.0" encoding="UTF-8" standalone="no"?>
<!-- Created with Inkscape (http://www.inkscape.org/) -->

<svg
   xmlns:dc="http://purl.org/dc/elements/1.1/"
   xmlns:cc="http://creativecommons.org/ns#"
   xmlns:rdf="http://www.w3.org/1999/02/22-rdf-syntax-ns#"
   xmlns:svg="http://www.w3.org/2000/svg"
   xmlns="http://www.w3.org/2000/svg"
   xmlns:xlink="http://www.w3.org/1999/xlink"
   xmlns:sodipodi="http://sodipodi.sourceforge.net/DTD/sodipodi-0.dtd"
   xmlns:inkscape="http://www.inkscape.org/namespaces/inkscape"
   width="128"
   height="128"
   viewBox="0 0 128 128"
   id="svg2"
   version="1.1"
   inkscape:version="0.92.4 5da689c313, 2019-01-14"
   sodipodi:docname="font.svg"
   enable-background="new">
  <defs
     id="defs4">
    <linearGradient
       inkscape:collect="always"
       id="linearGradient4172">
      <stop
         style="stop-color:#dddddd;stop-opacity:1"
         offset="0"
         id="stop4174" />
      <stop
         style="stop-color:#969696;stop-opacity:0.99607843"
         offset="1"
         id="stop4176" />
    </linearGradient>
    <linearGradient
       inkscape:collect="always"
       xlink:href="#linearGradient4172"
       id="linearGradient4178"
       x1="10"
       y1="988.36218"
       x2="118"
       y2="988.36218"
       gradientUnits="userSpaceOnUse" />
    <filter
       style="color-interpolation-filters:sRGB;"
       inkscape:label="Drop Shadow"
       id="filter4288">
      <feFlood
         flood-opacity="0.498039"
         flood-color="rgb(0,0,0)"
         result="flood"
         id="feFlood4290" />
      <feComposite
         in="flood"
         in2="SourceGraphic"
         operator="out"
         result="composite1"
         id="feComposite4292" />
      <feGaussianBlur
         in="composite1"
         stdDeviation="1"
         result="blur"
         id="feGaussianBlur4294" />
      <feOffset
         dx="1.3"
         dy="1"
         result="offset"
         id="feOffset4296" />
      <feComposite
         in="offset"
         in2="SourceGraphic"
         operator="atop"
         result="composite2"
         id="feComposite4298" />
    </filter>
    <filter
       inkscape:collect="always"
       style="color-interpolation-filters:sRGB"
       id="filter1038">
      <feBlend
         inkscape:collect="always"
         mode="overlay"
         in2="BackgroundImage"
         id="feBlend1040" />
    </filter>
  </defs>
  <sodipodi:namedview
     id="base"
     pagecolor="#ffffff"
     bordercolor="#666666"
     borderopacity="1.0"
     inkscape:pageopacity="0.0"
     inkscape:pageshadow="2"
     inkscape:zoom="7.919596"
     inkscape:cx="-12.10305"
     inkscape:cy="69.707741"
     inkscape:document-units="px"
     inkscape:current-layer="layer1"
     showgrid="false"
     units="px"
     inkscape:window-width="2560"
     inkscape:window-height="1400"
     inkscape:window-x="0"
     inkscape:window-y="40"
     inkscape:window-maximized="0" />
  <metadata
     id="metadata7">
    <rdf:RDF>
      <cc:Work
         rdf:about="">
        <dc:format>image/svg+xml</dc:format>
        <dc:type
           rdf:resource="http://purl.org/dc/dcmitype/StillImage" />
        <dc:title />
        <dc:creator>
          <cc:Agent>
            <dc:title>Kovid Goyal</dc:title>
          </cc:Agent>
        </dc:creator>
        <dc:rights>
          <cc:Agent>
            <dc:title />
          </cc:Agent>
        </dc:rights>
        <dc:publisher>
          <cc:Agent>
            <dc:title />
          </cc:Agent>
        </dc:publisher>
        <cc:license
           rdf:resource="http://creativecommons.org/licenses/by-sa/3.0/" />
      </cc:Work>
      <cc:License
         rdf:about="http://creativecommons.org/licenses/by-sa/3.0/">
        <cc:permits
           rdf:resource="http://creativecommons.org/ns#Reproduction" />
        <cc:permits
           rdf:resource="http://creativecommons.org/ns#Distribution" />
        <cc:requires
           rdf:resource="http://creativecommons.org/ns#Notice" />
        <cc:requires
           rdf:resource="http://creativecommons.org/ns#Attribution" />
        <cc:permits
           rdf:resource="http://creativecommons.org/ns#DerivativeWorks" />
        <cc:requires
           rdf:resource="http://creativecommons.org/ns#ShareAlike" />
      </cc:License>
    </rdf:RDF>
  </metadata>
  <g
     inkscape:label="Layer 1"
     inkscape:groupmode="layer"
     id="layer1"
     transform="translate(0,-924.36216)">
    <polyline
       transform="matrix(0.64514587,0,0,0.6490461,9.4264657,924.79814)"
       style="fill:none"
       points="0.913,164.088 160.291,164.088 160.291,88.801 0.913,88.801 "
       id="polyline8" />
    <path
       inkscape:connector-curvature="0"
       d="m 81.727318,954.21356 18.800842,0 C 94.887004,946.24587 83.848558,933.61997 77.604191,928.09919 l 0,21.35426 c -6.45e-4,2.62475 1.848988,4.76011 4.123127,4.76011 z"
       id="path10"
       style="fill:#3c3c3c;fill-opacity:1" />
    <path
       inkscape:connector-curvature="0"
       d="m 104.06227,977.24239 0,-16.26188 -22.334952,0 c -5.504384,0 -9.985568,-5.17095 -9.985568,-11.52706 l 0,-24.09129 -54.68708,0 c -3.896681,0 -7.05467,3.64569 -7.05467,8.14488 l 0,25.06876 0.01484,0 0,23.85831 102.822061,0 0,48.86469 -102.821416,0 0,12.2586 c 0.154835,4.3389 3.241858,7.8048 7.039832,7.8048 l 79.954218,0 c 3.896036,0 7.054026,-3.647 7.054026,-8.1449 l 0,-6.7261 13.93644,0 0,-59.24881 -13.93773,0 z"
       id="path12"
       style="fill-opacity:1;fill:url(#linearGradient4178)" />
    <polyline
       transform="matrix(0.64514587,0,0,0.6490461,9.4264657,924.79814)"
       style="fill:none"
       points="0.913,164.088 160.291,164.088 160.291,88.801 0.913,88.801 "
       id="polyline14" />
    <g
       id="g4167"
       style="fill:#dd8808;fill-opacity:1;filter:url(#filter1038)">
      <path
         id="path4"
         d="m 17.470144,999.2509 -7.005639,0 0,-4.98468 20.050489,0 0,4.98468 -7.12241,0 0,21.2627 -5.92244,0 0,-21.2627 z"
         inkscape:connector-curvature="0"
         style="fill:#dd8808;fill-opacity:1" />
      <path
         id="path6"
         d="m 58.629806,994.26622 15.947361,0 0,4.86785 -10.024922,0 0,5.99723 9.367518,0 0,4.8276 -9.367518,0 0,10.5541 -5.922439,0 0,-26.24678 z"
         inkscape:connector-curvature="0"
         style="fill:#dd8808;fill-opacity:1" />
      <path
         id="path16"
         d="m 41.341832,999.2509 -7.005639,0 0,-4.98468 20.050488,0 0,4.98468 -7.12241,0 0,21.2627 -5.922439,0 0,-21.2627 z"
         inkscape:connector-curvature="0"
         style="fill:#dd8808;fill-opacity:1" />
    </g>
  </g>
</svg>
