<svg xmlns="http://www.w3.org/2000/svg" xmlns:svg="http://www.w3.org/2000/svg" xmlns:xlink="http://www.w3.org/1999/xlink" id="svg2" width="128" height="128" version="1.1" viewBox="0 0 128 128"><defs id="defs4"><linearGradient id="linearGradient4143"><stop style="stop-color:#186c1a;stop-opacity:1" id="stop4145" offset="0"/><stop style="stop-color:#2bc02d;stop-opacity:1" id="stop4147" offset="1"/></linearGradient><filter style="color-interpolation-filters:sRGB" id="filter4158"><feFlood id="feFlood4160" flood-color="#000" flood-opacity=".498" result="flood"/><feComposite id="feComposite4162" in="flood" in2="SourceGraphic" operator="out" result="composite1"/><feGaussianBlur id="feGaussianBlur4164" in="composite1" result="blur" stdDeviation="1"/><feOffset id="feOffset4166" dx="1.3" dy="1" result="offset"/><feComposite id="feComposite4168" in="offset" in2="SourceGraphic" operator="atop" result="composite2"/></filter><linearGradient id="linearGradient4149" x1="36.089" x2="36.089" y1="934.487" y2="974.219" gradientTransform="translate(-1.1678879e-8,4.290926)" gradientUnits="userSpaceOnUse" xlink:href="#linearGradient4143"/><filter style="color-interpolation-filters:sRGB" id="filter4159"><feFlood id="feFlood4161" flood-color="#000" flood-opacity=".498" result="flood"/><feComposite id="feComposite4163" in="flood" in2="SourceGraphic" operator="out" result="composite1"/><feGaussianBlur id="feGaussianBlur4165" in="composite1" result="blur" stdDeviation="1"/><feOffset id="feOffset4167" dx="1.3" dy="1" result="offset"/><feComposite id="feComposite4169" in="offset" in2="SourceGraphic" operator="atop" result="composite2"/></filter></defs><metadata id="metadata7"/><g id="layer1" transform="translate(0,-924.36216)"><path id="path4145" d="M 2.3203367,970.6888 32.772366,939.97452 C 33.614358,939.11738 34.737013,938.6888 36,938.6888 c 1.262988,0 2.385643,0.42858 3.227635,1.28572 l 30.452029,30.71428 c 1.262987,1.28572 1.683983,3.28572 0.982323,5.14286 -0.70166,1.71428 -2.385643,2.85714 -4.209958,2.85714 l -60.9040579,0 c -1.8243151,0 -3.5082982,-1.14286 -4.2099579,-2.85714 -0.70165963,-1.71429 -0.2806639,-3.71429 0.9823235,-5.14286 z" style="fill:url(#linearGradient4149);fill-opacity:1"/><g id="g837" style="fill:#2271d5;fill-opacity:1"><g id="text4133" transform="matrix(1.4074832,0,0,1.4146743,-44.275876,-351.59006)" style="font-style:normal;font-variant:normal;font-weight:400;font-stretch:normal;font-size:90px;line-height:125%;font-family:Calibri;-inkscape-font-specification:Calibri;letter-spacing:0;word-spacing:0;fill:#2271d5;fill-opacity:1;stroke:none;stroke-width:1px;stroke-linecap:butt;stroke-linejoin:miter;stroke-opacity:1"><path style="fill:#2271d5;fill-opacity:1" id="path4140" d="m 121.33301,973.61005 q 0.35156,0.96679 0.35156,1.58203 0.044,0.57129 -0.30762,0.8789 -0.35156,0.30762 -1.18652,0.39551 -0.79102,0.0879 -2.15332,0.0879 -1.36231,0 -2.19727,-0.0879 -0.79101,-0.0439 -1.23046,-0.17578 -0.39551,-0.17578 -0.61524,-0.43945 -0.17578,-0.26367 -0.35156,-0.65918 l -4.87793,-13.84278 -23.64258,0 -4.658203,13.667 q -0.131836,0.3955 -0.351562,0.70312 -0.219727,0.26367 -0.65918,0.4834 -0.395508,0.17578 -1.186523,0.26367 -0.747071,0.0879 -1.97754,0.0879 -1.274414,0 -2.109375,-0.13183 -0.791015,-0.0879 -1.142578,-0.39551 -0.307617,-0.30762 -0.307617,-0.87891 0.04395,-0.61523 0.395508,-1.58203 l 19.072266,-52.82226 q 0.175781,-0.4834 0.439453,-0.79102 0.307617,-0.30762 0.834961,-0.4834 0.571289,-0.17578 1.40625,-0.21973 0.878906,-0.0879 2.197265,-0.0879 1.40625,0 2.329102,0.0879 0.922853,0.0439 1.494143,0.21973 0.57129,0.17578 0.8789,0.52735 0.30762,0.30761 0.4834,0.79101 l 19.07227,52.82227 z m -24.477541,-46.62598 -0.04395,0 -9.799804,28.34473 19.775395,0 -9.931645,-28.34473 z"/></g><g id="text4151" transform="matrix(4.0418484,0,0,4.0418484,-38.501788,-3022.6663)" style="font-style:normal;font-variant:normal;font-weight:400;font-stretch:normal;font-size:15px;line-height:125%;font-family:Calibri;-inkscape-font-specification:Calibri;letter-spacing:0;word-spacing:0;fill:#2271d5;fill-opacity:1;stroke:none;stroke-width:1px;stroke-linecap:butt;stroke-linejoin:miter;stroke-opacity:1"><path style="fill:#2271d5;fill-opacity:1" id="path4156" d="m 22.196219,1002.0939 q 0.05859,0.1612 0.05859,0.2637 0.0073,0.095 -0.05127,0.1465 -0.05859,0.051 -0.197754,0.066 -0.131836,0.015 -0.358887,0.015 -0.227051,0 -0.366211,-0.015 -0.131836,-0.01 -0.205078,-0.029 -0.06592,-0.029 -0.102539,-0.073 -0.0293,-0.044 -0.05859,-0.1099 l -0.812988,-2.3071 -3.94043,0 -0.776367,2.2778 q -0.02197,0.066 -0.05859,0.1172 -0.03662,0.044 -0.109863,0.081 -0.06592,0.029 -0.197754,0.044 -0.124512,0.015 -0.32959,0.015 -0.212402,0 -0.351562,-0.022 -0.131836,-0.015 -0.19043,-0.066 -0.05127,-0.051 -0.05127,-0.1465 0.0073,-0.1026 0.06592,-0.2637 l 3.178711,-8.8037 q 0.0293,-0.0806 0.07324,-0.13184 0.05127,-0.0513 0.13916,-0.0806 0.09521,-0.0293 0.234375,-0.0366 0.146484,-0.0146 0.366211,-0.0146 0.234375,0 0.388183,0.0146 0.153809,0.007 0.249024,0.0366 0.09521,0.0293 0.146484,0.0879 0.05127,0.0513 0.08057,0.13183 l 3.17871,8.80371 z m -4.079589,-7.77096 -0.0073,0 -1.6333,4.72412 3.295898,0 -1.655273,-4.72412 z"/></g></g></g></svg>