<?xml version="1.0" encoding="UTF-8" standalone="no"?>
<!-- Created with Inkscape (http://www.inkscape.org/) -->

<svg
   xmlns:dc="http://purl.org/dc/elements/1.1/"
   xmlns:cc="http://creativecommons.org/ns#"
   xmlns:rdf="http://www.w3.org/1999/02/22-rdf-syntax-ns#"
   xmlns:svg="http://www.w3.org/2000/svg"
   xmlns="http://www.w3.org/2000/svg"
   xmlns:xlink="http://www.w3.org/1999/xlink"
   xmlns:sodipodi="http://sodipodi.sourceforge.net/DTD/sodipodi-0.dtd"
   xmlns:inkscape="http://www.inkscape.org/namespaces/inkscape"
   width="128"
   height="128"
   viewBox="0 0 128 128"
   id="svg2"
   version="1.1"
   inkscape:version="0.92.4 5da689c313, 2019-01-14"
   sodipodi:docname="font_size_smaller.svg">
  <defs
     id="defs4">
    <linearGradient
       inkscape:collect="always"
       id="linearGradient4143">
      <stop
         style="stop-color:#69186c;stop-opacity:1"
         offset="0"
         id="stop4145" />
      <stop
         style="stop-color:#be2cc4;stop-opacity:1"
         offset="1"
         id="stop4147" />
    </linearGradient>
    <filter
       style="color-interpolation-filters:sRGB;"
       inkscape:label="Drop Shadow"
       id="filter4158">
      <feFlood
         flood-opacity="0.498039"
         flood-color="rgb(0,0,0)"
         result="flood"
         id="feFlood4160" />
      <feComposite
         in="flood"
         in2="SourceGraphic"
         operator="out"
         result="composite1"
         id="feComposite4162" />
      <feGaussianBlur
         in="composite1"
         stdDeviation="1"
         result="blur"
         id="feGaussianBlur4164" />
      <feOffset
         dx="1.3"
         dy="1"
         result="offset"
         id="feOffset4166" />
      <feComposite
         in="offset"
         in2="SourceGraphic"
         operator="atop"
         result="composite2"
         id="feComposite4168" />
    </filter>
    <linearGradient
       inkscape:collect="always"
       xlink:href="#linearGradient4143"
       id="linearGradient4149"
       x1="36.089287"
       y1="934.48718"
       x2="36.089287"
       y2="974.2193"
       gradientUnits="userSpaceOnUse"
       gradientTransform="matrix(1,0,0,-1,-1.1678879e-8,1913.0867)" />
    <filter
       style="color-interpolation-filters:sRGB;"
       inkscape:label="Drop Shadow"
       id="filter4159">
      <feFlood
         flood-opacity="0.498039"
         flood-color="rgb(0,0,0)"
         result="flood"
         id="feFlood4161" />
      <feComposite
         in="flood"
         in2="SourceGraphic"
         operator="out"
         result="composite1"
         id="feComposite4163" />
      <feGaussianBlur
         in="composite1"
         stdDeviation="1"
         result="blur"
         id="feGaussianBlur4165" />
      <feOffset
         dx="1.3"
         dy="1"
         result="offset"
         id="feOffset4167" />
      <feComposite
         in="offset"
         in2="SourceGraphic"
         operator="atop"
         result="composite2"
         id="feComposite4169" />
    </filter>
  </defs>
  <sodipodi:namedview
     id="base"
     pagecolor="#ffffff"
     bordercolor="#666666"
     borderopacity="1.0"
     inkscape:pageopacity="0.0"
     inkscape:pageshadow="2"
     inkscape:zoom="7.919596"
     inkscape:cx="16.891741"
     inkscape:cy="72.481885"
     inkscape:document-units="px"
     inkscape:current-layer="layer1"
     showgrid="false"
     units="px"
     inkscape:window-width="2560"
     inkscape:window-height="1400"
     inkscape:window-x="0"
     inkscape:window-y="40"
     inkscape:window-maximized="0" />
  <metadata
     id="metadata7">
    <rdf:RDF>
      <cc:Work
         rdf:about="">
        <dc:format>image/svg+xml</dc:format>
        <dc:type
           rdf:resource="http://purl.org/dc/dcmitype/StillImage" />
        <dc:title />
        <dc:creator>
          <cc:Agent>
            <dc:title>Kovid Goyal</dc:title>
          </cc:Agent>
        </dc:creator>
        <dc:rights>
          <cc:Agent>
            <dc:title />
          </cc:Agent>
        </dc:rights>
        <dc:publisher>
          <cc:Agent>
            <dc:title />
          </cc:Agent>
        </dc:publisher>
        <cc:license
           rdf:resource="http://creativecommons.org/licenses/by-sa/3.0/" />
      </cc:Work>
      <cc:License
         rdf:about="http://creativecommons.org/licenses/by-sa/3.0/">
        <cc:permits
           rdf:resource="http://creativecommons.org/ns#Reproduction" />
        <cc:permits
           rdf:resource="http://creativecommons.org/ns#Distribution" />
        <cc:requires
           rdf:resource="http://creativecommons.org/ns#Notice" />
        <cc:requires
           rdf:resource="http://creativecommons.org/ns#Attribution" />
        <cc:permits
           rdf:resource="http://creativecommons.org/ns#DerivativeWorks" />
        <cc:requires
           rdf:resource="http://creativecommons.org/ns#ShareAlike" />
      </cc:License>
    </rdf:RDF>
  </metadata>
  <g
     inkscape:label="Layer 1"
     inkscape:groupmode="layer"
     id="layer1"
     transform="translate(0,-924.36216)">
    <g
       style="font-style:normal;font-variant:normal;font-weight:normal;font-stretch:normal;font-size:90px;line-height:125%;font-family:Calibri;-inkscape-font-specification:Calibri;letter-spacing:0px;word-spacing:0px;fill:#261fb5;fill-opacity:1;stroke:none;stroke-width:1px;stroke-linecap:butt;stroke-linejoin:miter;stroke-opacity:1;"
       id="text4133"
       transform="matrix(1.4074832,0,0,1.4146743,-44.275876,-351.59006)" />
    <path
       d="m 2.3203367,946.6888 30.4520293,30.71428 c 0.841992,0.85714 1.964647,1.28572 3.227634,1.28572 1.262988,0 2.385643,-0.42858 3.227635,-1.28572 L 69.679664,946.6888 c 1.262987,-1.28572 1.683983,-3.28572 0.982323,-5.14286 -0.70166,-1.71428 -2.385643,-2.85714 -4.209958,-2.85714 l -60.9040579,0 c -1.8243151,0 -3.5082982,1.14286 -4.2099579,2.85714 -0.70165963,1.71429 -0.2806639,3.71429 0.9823235,5.14286 z"
       id="path4145"
       style="fill:url(#linearGradient4149);fill-opacity:1"
       inkscape:connector-curvature="0" />
    <g
       id="g837"
       style="fill:#2271d5;fill-opacity:1">
      <path
         style="font-style:normal;font-variant:normal;font-weight:normal;font-stretch:normal;font-size:90px;line-height:125%;font-family:Calibri;-inkscape-font-specification:Calibri;letter-spacing:0px;word-spacing:0px;fill:#2271d5;fill-opacity:1;stroke:none;stroke-width:1px;stroke-linecap:butt;stroke-linejoin:miter;stroke-opacity:1"
         inkscape:connector-curvature="0"
         id="path4140"
         d="m 121.33301,973.61005 q 0.35156,0.96679 0.35156,1.58203 0.044,0.57129 -0.30762,0.8789 -0.35156,0.30762 -1.18652,0.39551 -0.79102,0.0879 -2.15332,0.0879 -1.36231,0 -2.19727,-0.0879 -0.79101,-0.0439 -1.23046,-0.17578 -0.39551,-0.17578 -0.61524,-0.43945 -0.17578,-0.26367 -0.35156,-0.65918 l -4.87793,-13.84278 -23.64258,0 -4.658203,13.667 q -0.131836,0.3955 -0.351562,0.70312 -0.219727,0.26367 -0.65918,0.4834 -0.395508,0.17578 -1.186523,0.26367 -0.747071,0.0879 -1.97754,0.0879 -1.274414,0 -2.109375,-0.13183 -0.791015,-0.0879 -1.142578,-0.39551 -0.307617,-0.30762 -0.307617,-0.87891 0.04395,-0.61523 0.395508,-1.58203 l 19.072266,-52.82226 q 0.175781,-0.4834 0.439453,-0.79102 0.307617,-0.30762 0.834961,-0.4834 0.571289,-0.17578 1.40625,-0.21973 0.878906,-0.0879 2.197265,-0.0879 1.40625,0 2.329102,0.0879 0.922853,0.0439 1.494143,0.21973 0.57129,0.17578 0.8789,0.52735 0.30762,0.30761 0.4834,0.79101 l 19.07227,52.82227 z m -24.477541,-46.62598 -0.04395,0 -9.799804,28.34473 19.775395,0 -9.931645,-28.34473 z"
         transform="matrix(1.4074832,0,0,1.4146743,-44.275876,-351.59004)" />
      <g
         transform="matrix(4.0418484,0,0,4.0418484,-38.501788,-3022.6663)"
         id="text4151"
         style="font-style:normal;font-variant:normal;font-weight:normal;font-stretch:normal;font-size:15px;line-height:125%;font-family:Calibri;-inkscape-font-specification:Calibri;letter-spacing:0px;word-spacing:0px;fill:#2271d5;fill-opacity:1;stroke:none;stroke-width:1px;stroke-linecap:butt;stroke-linejoin:miter;stroke-opacity:1">
        <path
           style="fill:#2271d5;fill-opacity:1"
           inkscape:connector-curvature="0"
           id="path4156"
           d="m 22.196219,1002.0939 q 0.05859,0.1612 0.05859,0.2637 0.0073,0.095 -0.05127,0.1465 -0.05859,0.051 -0.197754,0.066 -0.131836,0.015 -0.358887,0.015 -0.227051,0 -0.366211,-0.015 -0.131836,-0.01 -0.205078,-0.029 -0.06592,-0.029 -0.102539,-0.073 -0.0293,-0.044 -0.05859,-0.1099 l -0.812988,-2.3071 -3.94043,0 -0.776367,2.2778 q -0.02197,0.066 -0.05859,0.1172 -0.03662,0.044 -0.109863,0.081 -0.06592,0.029 -0.197754,0.044 -0.124512,0.015 -0.32959,0.015 -0.212402,0 -0.351562,-0.022 -0.131836,-0.015 -0.19043,-0.066 -0.05127,-0.051 -0.05127,-0.1465 0.0073,-0.1026 0.06592,-0.2637 l 3.178711,-8.8037 q 0.0293,-0.0806 0.07324,-0.13184 0.05127,-0.0513 0.13916,-0.0806 0.09521,-0.0293 0.234375,-0.0366 0.146484,-0.0146 0.366211,-0.0146 0.234375,0 0.388183,0.0146 0.153809,0.007 0.249024,0.0366 0.09521,0.0293 0.146484,0.0879 0.05127,0.0513 0.08057,0.13183 l 3.17871,8.80371 z m -4.079589,-7.77096 -0.0073,0 -1.6333,4.72412 3.295898,0 -1.655273,-4.72412 z" />
      </g>
    </g>
  </g>
</svg>
