<svg xmlns="http://www.w3.org/2000/svg" xmlns:xlink="http://www.w3.org/1999/xlink" width="128" height="128" viewBox="0 0 128 128"><defs><linearGradient id="a"><stop offset="0" stop-color="#116def"/><stop offset="1" stop-color="#020e1e"/></linearGradient><linearGradient xlink:href="#a" id="b" gradientUnits="userSpaceOnUse" x1="77.171" y1="944.391" x2="77.171" y2="1032.337"/><linearGradient xlink:href="#a" id="c" gradientUnits="userSpaceOnUse" x1="77.171" y1="944.391" x2="77.171" y2="1032.337"/><linearGradient xlink:href="#a" id="d" gradientUnits="userSpaceOnUse" x1="77.171" y1="944.391" x2="77.171" y2="1032.337"/><linearGradient xlink:href="#a" id="e" gradientUnits="userSpaceOnUse" x1="77.171" y1="944.391" x2="77.171" y2="1032.337"/><linearGradient xlink:href="#a" id="f" gradientUnits="userSpaceOnUse" x1="77.171" y1="944.391" x2="77.171" y2="1032.337"/></defs><g transform="translate(0 -924.362)"><path d="M124.778 1016.511v13.134q0 .889-.65 1.539-.65.65-1.539.65h-83.181q-.889 0-1.539-.65-.65-.65-.65-1.539v-13.134q0-.958.616-1.573.616-.616 1.573-.616h83.181q.889 0 1.539.65.65.65.65 1.539z" fill="url(#b)"/><path d="M124.778 981.487v13.134q0 .889-.65 1.539-.65.65-1.539.65h-83.181q-.889 0-1.539-.65-.65-.65-.65-1.539v-13.134q0-.958.616-1.573.616-.616 1.573-.616h83.181q.889 0 1.539.65.65.65.65 1.539z" fill="url(#c)"/><path d="M124.778 946.464v13.134q0 .889-.65 1.539-.65.65-1.539.65h-83.181q-.889 0-1.539-.65-.65-.65-.65-1.539v-13.134q0-.889.65-1.539.65-.65 1.539-.65h83.181q.889 0 1.539.65.65.65.65 1.539z" fill="url(#d)"/><path d="M124.778 946.464v13.134q0 .889-.65 1.539-.65.65-1.539.65h-83.181q-.889 0-1.539-.65-.65-.65-.65-1.539v-13.134q0-.889.65-1.539.65-.65 1.539-.65h83.181q.889 0 1.539.65.65.65.65 1.539z" fill="url(#e)"/><path d="M124.778 946.464v13.134q0 .889-.65 1.539-.65.65-1.539.65h-83.181q-.889 0-1.539-.65-.65-.65-.65-1.539v-13.134q0-.889.65-1.539.65-.65 1.539-.65h83.181q.889 0 1.539.65.65.65.65 1.539z" fill="url(#f)"/><circle cx="16.484" cy="953.031" r="11.093" fill="#116def" fill-rule="evenodd"/><circle r="11.093" cy="988.054" cx="16.484" fill="#116def" fill-rule="evenodd"/><circle cx="16.484" cy="1023.078" r="11.093" fill="#116def" fill-rule="evenodd"/></g></svg>