<svg xmlns="http://www.w3.org/2000/svg" xmlns:xlink="http://www.w3.org/1999/xlink" width="128" height="128" viewBox="0 0 128 128"><defs><linearGradient id="a"><stop offset="0" stop-color="#0d5cc6"/><stop offset=".516" stop-color="#08397a"/><stop offset="1" stop-color="#0d5cc6"/></linearGradient><linearGradient xlink:href="#a" id="b" x1="1" y1="988.362" x2="127" y2="988.362" gradientUnits="userSpaceOnUse"/></defs><path d="M127 100v9q0 1.828-1.336 3.164t-3.164 1.336h-117q-1.828 0-3.164-1.336t-1.336-3.164v-9q0-1.828 1.336-3.164t3.164-1.336h117q1.828 0 3.164 1.336t1.336 3.164zm0-27v9q0 1.828-1.336 3.164t-3.164 1.336h-117q-1.828 0-3.164-1.336t-1.336-3.164v-9q0-1.828 1.336-3.164t3.164-1.336h117q1.828 0 3.164 1.336t1.336 3.164zm0-27v9q0 1.828-1.336 3.164t-3.164 1.336h-117q-1.828 0-3.164-1.336t-1.336-3.164v-9q0-1.828 1.336-3.164t3.164-1.336h117q1.828 0 3.164 1.336t1.336 3.164zm0-27v9q0 1.828-1.336 3.164t-3.164 1.336h-117q-1.828 0-3.164-1.336t-1.336-3.164v-9q0-1.828 1.336-3.164t3.164-1.336h117q1.828 0 3.164 1.336t1.336 3.164z" fill="url(#b)"/></svg>