<svg xmlns="http://www.w3.org/2000/svg" xmlns:xlink="http://www.w3.org/1999/xlink" width="128" height="128" viewBox="0 0 128 128"><defs><linearGradient id="a"><stop offset="0" stop-color="#0d5cc6"/><stop offset="1" stop-color="#020e1e"/></linearGradient><radialGradient xlink:href="#a" id="b" cx="64" cy="988.362" fx="64" fy="988.362" r="57.75" gradientTransform="matrix(.94 0 0 .965 3.869 27.656)" gradientUnits="userSpaceOnUse"/></defs><path d="M52.516 102.043q5.703 2.321 10.79 2.321 28.979 0 28.979-24.3 0-8.269-3.16-13.057-2.081-3.192-4.74-5.368-2.659-2.176-5.202-3.373t-6.204-1.813q-3.661-.617-6.474-.762-2.813-.145-7.283-.145-5.626 0-7.784.725 0 3.844-.039 11.533t-.039 11.461q0 .58-.077 4.896t-.039 7q.039 2.684.347 6.057t.925 4.824zm-1.079-54.112q3.237.508 8.401.508 6.32 0 11.021-.943 4.701-.943 8.478-3.228t5.742-6.492q1.965-4.207 1.965-10.3 0-5.078-2.235-8.886-2.235-3.808-6.089-5.948-3.854-2.14-8.324-3.155-4.47-1.016-9.557-1.016-3.854 0-10.019.943 0 3.627.308 10.953t.308 11.026q0 1.958-.039 5.803-.039 3.844-.039 5.73 0 3.337.077 5.005zm-41.696 64.485l.154-6.818q1.156-.29 6.551-1.161 5.395-.87 8.17-1.958.54-.87.963-1.958.424-1.088.655-2.43.231-1.342.424-2.357.193-1.015.231-2.72.039-1.705.039-2.466v-4.751q0-71.231-1.696-74.35-.308-.58-1.696-1.052-1.387-.471-3.43-.798-2.042-.326-3.815-.508-1.773-.181-3.738-.326-1.965-.145-2.351-.218l-.308-6.021q7.553-.145 26.204-.834t28.748-.689q1.773 0 5.279.036 3.507.036 5.202.036 5.395 0 10.52.943t9.904 3.047q4.778 2.104 8.324 5.15 3.545 3.047 5.703 7.58 2.158 4.534 2.158 9.974 0 3.772-1.272 6.927t-3.006 5.223q-1.734 2.067-4.971 4.171t-5.626 3.264q-2.389 1.161-6.474 2.901 11.869 2.539 19.769 9.72 7.9 7.181 7.9 17.989 0 7.254-2.698 13.02-2.698 5.767-7.206 9.466-4.509 3.699-10.636 6.202-6.127 2.502-12.601 3.518-6.474 1.016-13.565 1.016-3.391 0-10.173-.218t-10.174-.218q-8.17 0-23.661.798-15.491.798-17.804.87z" fill="url(#b)"/></svg>