<?xml version="1.0" encoding="UTF-8" standalone="no"?>
<!-- Created with Inkscape (http://www.inkscape.org/) -->

<svg
   xmlns:dc="http://purl.org/dc/elements/1.1/"
   xmlns:cc="http://creativecommons.org/ns#"
   xmlns:rdf="http://www.w3.org/1999/02/22-rdf-syntax-ns#"
   xmlns:svg="http://www.w3.org/2000/svg"
   xmlns="http://www.w3.org/2000/svg"
   xmlns:sodipodi="http://sodipodi.sourceforge.net/DTD/sodipodi-0.dtd"
   xmlns:inkscape="http://www.inkscape.org/namespaces/inkscape"
   width="128"
   height="128"
   viewBox="0 0 128 128"
   id="svg2"
   version="1.1"
   inkscape:version="0.92.4 5da689c313, 2019-01-14"
   sodipodi:docname="format-indent-less.svg">
  <defs
     id="defs4" />
  <sodipodi:namedview
     id="base"
     pagecolor="#ffffff"
     bordercolor="#666666"
     borderopacity="1.0"
     inkscape:pageopacity="0.0"
     inkscape:pageshadow="2"
     inkscape:zoom="7.919596"
     inkscape:cx="57.130788"
     inkscape:cy="69.707741"
     inkscape:document-units="px"
     inkscape:current-layer="layer1"
     showgrid="false"
     units="px"
     inkscape:window-width="2560"
     inkscape:window-height="1400"
     inkscape:window-x="0"
     inkscape:window-y="40"
     inkscape:window-maximized="0" />
  <metadata
     id="metadata7">
    <rdf:RDF>
      <cc:Work
         rdf:about="">
        <dc:format>image/svg+xml</dc:format>
        <dc:type
           rdf:resource="http://purl.org/dc/dcmitype/StillImage" />
        <dc:title />
        <dc:creator>
          <cc:Agent>
            <dc:title>Kovid Goyal</dc:title>
          </cc:Agent>
        </dc:creator>
        <dc:rights>
          <cc:Agent>
            <dc:title />
          </cc:Agent>
        </dc:rights>
        <dc:publisher>
          <cc:Agent>
            <dc:title />
          </cc:Agent>
        </dc:publisher>
        <cc:license
           rdf:resource="http://creativecommons.org/licenses/by-sa/3.0/" />
      </cc:Work>
      <cc:License
         rdf:about="http://creativecommons.org/licenses/by-sa/3.0/">
        <cc:permits
           rdf:resource="http://creativecommons.org/ns#Reproduction" />
        <cc:permits
           rdf:resource="http://creativecommons.org/ns#Distribution" />
        <cc:requires
           rdf:resource="http://creativecommons.org/ns#Notice" />
        <cc:requires
           rdf:resource="http://creativecommons.org/ns#Attribution" />
        <cc:permits
           rdf:resource="http://creativecommons.org/ns#DerivativeWorks" />
        <cc:requires
           rdf:resource="http://creativecommons.org/ns#ShareAlike" />
      </cc:License>
    </rdf:RDF>
  </metadata>
  <g
     inkscape:label="Layer 1"
     inkscape:groupmode="layer"
     id="layer1"
     transform="translate(0,-924.36216)">
    <path
       d="m 127,1022.1122 0,13.5 q 0,0.9141 -0.66797,1.582 -0.66797,0.668 -1.58203,0.668 l -121.5,0 q -0.91406,0 -1.58203,-0.668 Q 1,1036.5263 1,1035.6122 l 0,-13.5 q 0,-0.9141 0.66797,-1.582 0.66797,-0.668 1.58203,-0.668 l 121.5,0 q 0.91406,0 1.58203,0.668 0.66797,0.6679 0.66797,1.582 z"
       id="path4145"
       style="fill:#2271d5;fill-opacity:1" />
    <path
       inkscape:connector-curvature="0"
       d="m 127,961.59431 0,53.35729 q 0,1.2042 -0.85111,2.0841 -0.85111,0.8801 -2.01577,0.8801 -1.25426,0 -2.06057,-0.8337 L 96.270594,990.40347 q -0.806308,-0.8337 -0.806308,-2.13061 0,-1.2969 0.806308,-2.13059 l 25.801956,-26.67856 q 0.80631,-0.83369 2.06057,-0.83369 1.16466,0 2.01577,0.88007 Q 127,960.39002 127,961.59431 Z"
       id="path4147"
       style="fill:#2caf45;fill-opacity:1" />
    <g
       id="g4144"
       transform="translate(-45,0)"
       style="fill:#2271d5;fill-opacity:1">
      <path
         style="fill:#2271d5;fill-opacity:1"
         id="path4143"
         d="m 127,995.11216 0,13.50004 q 0,0.9141 -0.66797,1.582 -0.66797,0.668 -1.58203,0.668 l -76.5,0 q -0.91406,0 -1.58203,-0.668 Q 46,1009.5263 46,1008.6122 l 0,-13.50004 q 0,-0.9141 0.66797,-1.582 0.66797,-0.668 1.58203,-0.668 l 76.5,0 q 0.91406,0 1.58203,0.668 0.66797,0.6679 0.66797,1.582 z"
         inkscape:connector-curvature="0" />
      <path
         style="fill:#2271d5;fill-opacity:1"
         id="path4141"
         d="m 127,968.11216 0,13.5 q 0,0.9141 -0.66797,1.582 -0.66797,0.668 -1.58203,0.668 l -76.5,0 q -0.91406,0 -1.58203,-0.668 Q 46,982.52626 46,981.61216 l 0,-13.5 q 0,-0.9141 0.66797,-1.582 0.66797,-0.668 1.58203,-0.668 l 76.5,0 q 0.91406,0 1.58203,0.668 0.66797,0.6679 0.66797,1.582 z"
         inkscape:connector-curvature="0" />
    </g>
    <path
       d="m 127,941.11216 0,13.5 q 0,0.9141 -0.66797,1.582 -0.66797,0.668 -1.58203,0.668 l -121.5,0 q -0.91406,0 -1.58203,-0.668 Q 1,955.52626 1,954.61216 l 0,-13.5 q 0,-0.9141 0.66797,-1.582 0.66797,-0.668 1.58203,-0.668 l 121.5,0 q 0.91406,0 1.58203,0.668 0.66797,0.6679 0.66797,1.582 z"
       id="path4"
       style="fill-opacity:1;fill:#2271d5" />
  </g>
</svg>
