<svg xmlns="http://www.w3.org/2000/svg" xmlns:svg="http://www.w3.org/2000/svg" id="svg2" width="128" height="128" version="1.1" viewBox="0 0 128 128"><metadata id="metadata7"/><g id="layer1" transform="translate(0,-924.36216)"><path id="path4145" d="m 127,1022.1122 0,13.5 q 0,0.9141 -0.66797,1.582 -0.66797,0.668 -1.58203,0.668 l -121.5,0 q -0.91406,0 -1.58203,-0.668 Q 1,1036.5263 1,1035.6122 l 0,-13.5 q 0,-0.9141 0.66797,-1.582 0.66797,-0.668 1.58203,-0.668 l 121.5,0 q 0.91406,0 1.58203,0.668 0.66797,0.6679 0.66797,1.582 z" style="fill:#2271d5;fill-opacity:1"/><path id="path4147" d="m 1,961.59431 0,53.35729 q 0,1.2042 0.85111,2.0841 0.85111,0.8801 2.01577,0.8801 1.25426,0 2.06057,-0.8337 l 25.801956,-26.67863 q 0.806308,-0.8337 0.806308,-2.13061 0,-1.2969 -0.806308,-2.13059 L 5.92745,959.46371 q -0.80631,-0.83369 -2.06057,-0.83369 -1.16466,0 -2.01577,0.88007 Q 1,960.39002 1,961.59431 Z" style="fill:#2caf45;fill-opacity:1"/><g id="g4144" style="fill:#2271d5;fill-opacity:1"><path style="fill:#2271d5;fill-opacity:1" id="path4143" d="m 127,995.11216 0,13.50004 q 0,0.9141 -0.66797,1.582 -0.66797,0.668 -1.58203,0.668 l -76.5,0 q -0.91406,0 -1.58203,-0.668 Q 46,1009.5263 46,1008.6122 l 0,-13.50004 q 0,-0.9141 0.66797,-1.582 0.66797,-0.668 1.58203,-0.668 l 76.5,0 q 0.91406,0 1.58203,0.668 0.66797,0.6679 0.66797,1.582 z"/><path style="fill:#2271d5;fill-opacity:1" id="path4141" d="m 127,968.11216 0,13.5 q 0,0.9141 -0.66797,1.582 -0.66797,0.668 -1.58203,0.668 l -76.5,0 q -0.91406,0 -1.58203,-0.668 Q 46,982.52626 46,981.61216 l 0,-13.5 q 0,-0.9141 0.66797,-1.582 0.66797,-0.668 1.58203,-0.668 l 76.5,0 q 0.91406,0 1.58203,0.668 0.66797,0.6679 0.66797,1.582 z"/></g><path id="path4" d="m 127,941.11216 0,13.5 q 0,0.9141 -0.66797,1.582 -0.66797,0.668 -1.58203,0.668 l -121.5,0 q -0.91406,0 -1.58203,-0.668 Q 1,955.52626 1,954.61216 l 0,-13.5 q 0,-0.9141 0.66797,-1.582 0.66797,-0.668 1.58203,-0.668 l 121.5,0 q 0.91406,0 1.58203,0.668 0.66797,0.6679 0.66797,1.582 z" style="fill-opacity:1;fill:#2271d5"/></g></svg>