<svg xmlns="http://www.w3.org/2000/svg" width="128" height="128" viewBox="0 0 128 128"><g transform="translate(0 -924.362) translate(.003 .004)"><path d="M40.013 999.069c6.36 4.675 20.125-3.152 30.749-17.466l33.295 33.618c-10.627 14.316-20.772 17.651-27.134 12.979" stroke-miterlimit="10" fill="#bc3e4c" stroke="#000" stroke-width="4.408" stroke-linecap="round" stroke-linejoin="bevel"/><ellipse ry="32.282" rx="14.29" cy="-748.862" cx="-616.16" stroke-miterlimit="10" transform="matrix(-.806 -.592 .596 -.803 0 0)" stroke="#000" stroke-width="4.408" fill="none"/><path d="M85.464 977.454c3.178-2.485 6.267-5.644 9.023-9.363.785-1.055 1.517-2.128 2.199-3.204 7.603-12.041 8.679-24.852 2.075-29.708-5.989-4.401-16.413-.872-25.245 7.869" stroke-miterlimit="10" stroke="#000" stroke-width="5.877" stroke-linecap="round" fill="none"/><path d="M31.182 992.232l56.121 44.065c5.728 4.209 18.116-2.837 27.675-15.719 9.551-12.891 12.665-26.745 6.942-30.95l-52.276-49.259" stroke-miterlimit="10" stroke="#000" stroke-width="4.408" fill="none"/><path d="M64.36 971.286c-12.759-.075-27.905 4.33-33.176 7.319-5.27 2.989-12.095 8.479-15.823 14.98-3.729 6.504-5.052 17.337-.295 24.865 0 0 6.227 9.426 7.654 19.067.769 3.193-1.323 7.498 5.276 8.765 6.597 1.27 4.732-12.891 4.732-12.891s-.632-3.808-1.544-7.91c-1.625-9.263 4.813-29.471 4.813-29.471s1.857-2.082 6.939-4.335c2.947-1.272 8.386-5.528 8.386-5.528l5.858-5.619 4.756-5.764c-.004 0 1.281-1.667 2.423-3.479z" fill="#37b63b"/><path d="M24.802 980.763s-21.867-2.083-20.673 6.123c1.196 8.206 7.261 3.591 10.336-1.19 3.074-4.783 10.336-4.933 10.336-4.933zm-9.132 9.1s-19.265 10.506-13.642 16.626c5.623 6.119 8.034-1.088 7.877-6.767-.158-5.676 5.765-9.86 5.765-9.86z" fill="#3a37b6"/></g></svg>