<svg xmlns="http://www.w3.org/2000/svg" xmlns:xlink="http://www.w3.org/1999/xlink" width="128" height="128" viewBox="0 0 128 128"><defs><linearGradient id="a"><stop offset="0" stop-color="#0a4da3"/><stop offset="1" stop-color="#041f42"/></linearGradient><linearGradient xlink:href="#a" id="b" gradientUnits="userSpaceOnUse" x1="3.25" y1="988.362" x2="127" y2="988.362" gradientTransform="matrix(-1.274 0 0 1.317 36.677 -313.855)"/><linearGradient xlink:href="#a" id="c" gradientUnits="userSpaceOnUse" x1="3.25" y1="988.362" x2="127" y2="988.362"/><linearGradient xlink:href="#a" id="d" gradientUnits="userSpaceOnUse" x1="3.25" y1="988.362" x2="127" y2="988.362"/></defs><path d="M127 97.75v13.5q0 .914-.668 1.582t-1.582.668h-121.5q-.914 0-1.582-.668t-.668-1.582v-13.5q0-.914.668-1.582t1.582-.668h121.5q.914 0 1.582.668t.668 1.582z" fill="#041f42"/><path d="M1 37.232v53.357q0 1.204.851 2.084.851.88 2.016.88 1.254 0 2.061-.834l25.802-26.679q.806-.834.806-2.131 0-1.297-.806-2.131l-25.802-26.679q-.806-.834-2.061-.834-1.165 0-2.016.88t-.851 2.084z" fill="url(#b)"/><path d="M127 70.75v13.5q0 .914-.668 1.582t-1.582.668h-76.5q-.914 0-1.582-.668t-.668-1.582v-13.5q0-.914.668-1.582t1.582-.668h76.5q.914 0 1.582.668t.668 1.582z" fill="url(#c)"/><path d="M127 43.75v13.5q0 .914-.668 1.582t-1.582.668h-76.5q-.914 0-1.582-.668t-.668-1.582v-13.5q0-.914.668-1.582t1.582-.668h76.5q.914 0 1.582.668t.668 1.582z" fill="url(#d)"/><path d="M127 16.75v13.5q0 .914-.668 1.582t-1.582.668h-121.5q-.914 0-1.582-.668t-.668-1.582v-13.5q0-.914.668-1.582t1.582-.668h121.5q.914 0 1.582.668t.668 1.582z" fill="#041f42"/></svg>