<svg xmlns="http://www.w3.org/2000/svg" width="128" height="128" viewBox="0 0 128 128"><path d="M4.938 14.791q-3.035-.164-3.691-.328l-.246-7.219q1.066-.082 3.281-.082 4.922 0 9.188.328 10.828.574 13.617.574 7.055 0 13.781-.246 9.516-.328 11.977-.41 4.594 0 7.055-.164l-.082 1.148.164 5.25v.738q-4.922.738-10.172.738-4.922 0-6.48 2.051-1.066 1.148-1.066 10.828 0 1.066.041 2.666.041 1.6.041 2.092l.082 18.785 1.148 22.969q.492 10.172 4.184 16.57 2.871 4.84 7.875 7.547 7.219 3.856 14.52 3.856 8.531 0 15.668-2.297 4.594-1.477 8.121-4.184 3.938-2.953 5.332-5.25 2.953-4.594 4.348-9.352 1.723-5.988 1.723-18.785 0-6.481-.287-10.5t-.902-10.049q-.615-6.029-1.107-13.084l-.328-4.84q-.41-5.496-1.969-7.219-2.789-2.871-6.316-2.789l-8.203.164-1.148-.246.164-7.055h6.891l16.816.82q6.234.246 16.078-.82l1.477.164q.492 3.117.492 4.184 0 .574-.328 2.543-3.691.984-6.891 1.066-5.988.902-6.48 1.395-1.23 1.23-1.23 3.363 0 .574.123 2.215t.123 2.543q.656 1.558 1.805 32.484.492 15.996-1.23 24.938-1.23 6.234-3.363 10.008-3.117 5.332-9.187 10.09-6.152 4.676-14.93 7.301-8.941 2.707-20.918 2.707-13.699 0-23.297-3.773-9.762-3.856-14.684-10.008-5.004-6.234-6.809-15.996-1.313-6.563-1.313-19.442v-27.316q0-15.422-1.395-17.473-2.051-2.953-12.059-3.199z" fill="#052147"/><path d="M127 125.196v-5.25q0-1.148-.738-1.887-.738-.738-1.887-.738h-120.75q-1.148 0-1.887.738-.738.738-.738 1.887v5.25q0 1.148.738 1.887.738.738 1.887.738h120.75q1.148 0 1.887-.738.738-.738.738-1.887z" fill="#0d5cc6"/></svg>