<svg xmlns="http://www.w3.org/2000/svg" width="128" height="128" viewBox="0 0 128 128"><path d="M76.985 98.384v13.744h-20.41l-13.086-20.739-1.975-3.457q-.658-.741-.905-1.728h-.247l-.741 1.728q-.823 1.646-2.057 3.621l-12.756 20.575h-21.233v-13.744h10.534l16.213-23.949-15.225-22.386h-11.275v-13.826h22.715l11.44 18.764q.165.329 1.893 3.457.658.741.905 1.728h.247q.247-.741.905-1.728l2.057-3.457 11.522-18.764h21.151v13.826h-10.287l-15.143 21.974 16.789 24.361h8.971z" fill="#05244e"/><path d="M126.432 110.885v16.954h-42.302l-.329-2.222q-.247-3.703-.247-3.786 0-5.267 2.14-9.629 2.14-4.362 5.349-7.119 3.21-2.757 6.913-5.349 3.703-2.592 6.913-4.485 3.21-1.893 5.349-4.444 2.14-2.551 2.14-5.267 0-3.127-2.428-5.144-2.428-2.016-5.802-2.016-4.197 0-7.983 3.21-1.152.905-2.963 3.127l-8.641-7.572q2.14-3.045 5.185-5.432 6.584-5.349 15.472-5.349 9.053 0 14.649 4.897 5.596 4.897 5.596 13.044 0 5.432-2.839 9.752-2.839 4.321-6.913 7.078-4.074 2.757-8.189 5.144t-7.16 5.185q-3.045 2.798-3.374 6.008h19.093v-6.584h10.37z" fill="#0d5cc6"/></svg>