<svg xmlns="http://www.w3.org/2000/svg" xmlns:xlink="http://www.w3.org/1999/xlink" width="128" height="128" viewBox="0 0 128 128"><defs><linearGradient id="a"><stop offset="0" stop-color="#0d5cc6"/><stop offset="1" stop-color="#020e1e"/></linearGradient><radialGradient xlink:href="#a" id="b" cx="64" cy="988.362" fx="64" fy="988.362" r="36" gradientTransform="matrix(1 0 0 1.5 0 -494.182)" gradientUnits="userSpaceOnUse"/><radialGradient xlink:href="#a" id="c" gradientUnits="userSpaceOnUse" gradientTransform="matrix(1 0 0 1.5 0 -494.182)" cx="64" cy="988.362" fx="64" fy="988.362" r="36"/><radialGradient xlink:href="#a" id="d" gradientUnits="userSpaceOnUse" gradientTransform="matrix(1 0 0 1.5 0 -494.182)" cx="64" cy="988.362" fx="64" fy="988.362" r="36"/></defs><path d="M124.75 57.33q.984 0 1.617.649t.633 1.658v4.612q0 1.009-.633 1.658t-1.617.649h-121.5q-.984 0-1.617-.649t-.633-1.658v-4.612q0-1.009.633-1.658t1.617-.649h121.5z" fill="#0d5cc6"/><g fill="url(#b)"><path d="M34.961 52.718q-1.969-2.522-3.586-5.766-3.375-6.991-3.375-13.549 0-13.045 9.422-22.27 9.352-9.153 27.633-9.153 3.516 0 11.742 1.369 4.641.865 12.445 3.459.703 2.739 1.477 8.504.984 8.865.984 13.189 0 1.297-.352 3.243l-.844.216-5.906-.432-.984-.144q-3.516-10.739-7.242-14.774-6.188-6.558-14.766-6.558-8.016 0-12.797 4.252-4.711 4.18-4.711 10.522 0 5.261 4.641 10.09t19.617 9.297q4.852 1.441 12.164 4.757 4.078 2.018 6.68 3.748h-52.242z" fill="url(#c)"/><path d="M70.609 71.168h28.898q.492 2.811.492 6.631 0 8-2.883 15.279-1.617 3.964-4.992 7.495-2.602 2.522-7.664 5.838-5.625 3.459-10.758 4.757-5.625 1.514-14.273 1.514-8.016 0-13.711-1.658l-9.844-2.883q-4.008-1.153-5.063-2.018-.563-.577-.563-1.586v-.937q0-7.784-.141-11.243-.07-2.162 0-4.901l.141-2.667v-3.171l7.172-.144q1.055 2.45 2.109 5.117 1.055 2.667 1.582 4.036.527 1.369.879 1.946 2.461 4.108 5.625 6.775 3.023 2.594 7.383 4.108 4.148 1.586 9.281 1.586 4.5 0 9.773-1.946 5.414-1.874 8.578-6.198 3.305-4.396 3.305-9.297 0-6.054-5.695-11.315-2.391-2.09-9.633-5.117z" fill="url(#d)"/></g></svg>