<svg xmlns="http://www.w3.org/2000/svg" xmlns:xlink="http://www.w3.org/1999/xlink" width="128" height="128" viewBox="0 0 128 128"><defs><linearGradient id="a"><stop offset="0" stop-color="#0d5cc6"/><stop offset="1" stop-color="#020e1e"/></linearGradient><radialGradient xlink:href="#a" id="b" cx="64" cy="988.362" fx="64" fy="988.362" r="42" gradientTransform="matrix(1 0 0 1.317 0 -321.338)" gradientUnits="userSpaceOnUse"/></defs><path d="M22 111.514l1.395-6.124q.492-.144 6.686-1.549 6.193-1.405 9.146-2.702 2.297-2.522 3.363-7.276.082-.504 5.086-20.82 5.004-20.316 9.352-39.156 4.348-18.839 4.266-21.361v-1.801q-1.969-.937-4.471-1.333-2.502-.396-5.701-.576-3.199-.18-4.758-.396l1.559-7.42q2.707.144 9.844.468 7.137.324 12.264.504t9.885.18q3.938 0 8.08-.18 4.143-.18 9.926-.504t8.08-.468q-.41 2.81-1.559 6.412-2.461.72-8.326 2.053t-8.9 2.413q-.656 1.369-1.148 3.062-.492 1.693-.738 2.882t-.615 3.278l-.533 3.026q-2.215 10.662-7.178 30.222-4.963 19.56-6.357 25.612-.164.648-1.066 4.178t-1.641 6.484q-.738 2.954-1.313 6.016-.574 3.062-.492 4.143l.082 1.297q1.395.288 15.176 2.233-.246 3.17-1.313 7.132-.902 0-2.666.108-1.764.108-2.666.108-2.379 0-7.137-.72-4.758-.72-7.055-.72-11.32-.144-16.898-.144-4.184 0-11.73.648-7.547.648-9.926.792z" fill="url(#b)"/></svg>