<?xml version="1.0" encoding="UTF-8" standalone="no"?>
<!-- Created with Inkscape (http://www.inkscape.org/) -->

<svg
   xmlns:dc="http://purl.org/dc/elements/1.1/"
   xmlns:cc="http://creativecommons.org/ns#"
   xmlns:rdf="http://www.w3.org/1999/02/22-rdf-syntax-ns#"
   xmlns:svg="http://www.w3.org/2000/svg"
   xmlns="http://www.w3.org/2000/svg"
   xmlns:xlink="http://www.w3.org/1999/xlink"
   xmlns:sodipodi="http://sodipodi.sourceforge.net/DTD/sodipodi-0.dtd"
   xmlns:inkscape="http://www.inkscape.org/namespaces/inkscape"
   width="128"
   height="128"
   viewBox="0 0 128 128"
   id="svg2"
   version="1.1"
   inkscape:version="0.92.4 5da689c313, 2019-01-14"
   sodipodi:docname="format-list-unordered.svg">
  <defs
     id="defs4">
    <linearGradient
       inkscape:collect="always"
       id="linearGradient848">
      <stop
         style="stop-color:#b2cffa;stop-opacity:1"
         offset="0"
         id="stop844" />
      <stop
         style="stop-color:#0b59bd;stop-opacity:1"
         offset="1"
         id="stop846" />
    </linearGradient>
    <linearGradient
       inkscape:collect="always"
       xlink:href="#linearGradient848"
       id="linearGradient850"
       x1="82.474236"
       y1="944.56732"
       x2="82.705093"
       y2="1032.0718"
       gradientUnits="userSpaceOnUse" />
  </defs>
  <sodipodi:namedview
     id="base"
     pagecolor="#ffffff"
     bordercolor="#666666"
     borderopacity="1.0"
     inkscape:pageopacity="0.0"
     inkscape:pageshadow="2"
     inkscape:zoom="5.656854"
     inkscape:cx="25.438985"
     inkscape:cy="69.707741"
     inkscape:document-units="px"
     inkscape:current-layer="layer1"
     showgrid="false"
     units="px"
     inkscape:window-width="2560"
     inkscape:window-height="1400"
     inkscape:window-x="0"
     inkscape:window-y="40"
     inkscape:window-maximized="0" />
  <metadata
     id="metadata7">
    <rdf:RDF>
      <cc:Work
         rdf:about="">
        <dc:format>image/svg+xml</dc:format>
        <dc:type
           rdf:resource="http://purl.org/dc/dcmitype/StillImage" />
        <dc:title />
        <dc:creator>
          <cc:Agent>
            <dc:title>Kovid Goyal</dc:title>
          </cc:Agent>
        </dc:creator>
        <dc:rights>
          <cc:Agent>
            <dc:title />
          </cc:Agent>
        </dc:rights>
        <dc:publisher>
          <cc:Agent>
            <dc:title />
          </cc:Agent>
        </dc:publisher>
        <cc:license
           rdf:resource="http://creativecommons.org/licenses/by-sa/3.0/" />
      </cc:Work>
      <cc:License
         rdf:about="http://creativecommons.org/licenses/by-sa/3.0/">
        <cc:permits
           rdf:resource="http://creativecommons.org/ns#Reproduction" />
        <cc:permits
           rdf:resource="http://creativecommons.org/ns#Distribution" />
        <cc:requires
           rdf:resource="http://creativecommons.org/ns#Notice" />
        <cc:requires
           rdf:resource="http://creativecommons.org/ns#Attribution" />
        <cc:permits
           rdf:resource="http://creativecommons.org/ns#DerivativeWorks" />
        <cc:requires
           rdf:resource="http://creativecommons.org/ns#ShareAlike" />
      </cc:License>
    </rdf:RDF>
  </metadata>
  <g
     inkscape:label="Layer 1"
     inkscape:groupmode="layer"
     id="layer1"
     transform="translate(0,-924.36216)">
    <g
       id="g842"
       style="fill-opacity:1;fill:url(#linearGradient850)">
      <path
         id="path4145"
         d="m 124.77795,1016.5109 0,13.1337 q 0,0.8893 -0.64984,1.5392 -0.64984,0.6499 -1.53908,0.6499 l -83.180612,0 q -0.889337,0 -1.539177,-0.6499 -0.64984,-0.6499 -0.64984,-1.5392 l 0,-13.1337 q 0,-0.9577 0.615652,-1.5734 0.615653,-0.6156 1.573365,-0.6156 l 83.180612,0 q 0.88924,0 1.53908,0.6498 0.64984,0.6499 0.64984,1.5392 z"
         style="fill:url(#linearGradient850);fill-opacity:1"
         inkscape:connector-curvature="0" />
      <path
         id="path4141"
         d="m 124.77795,981.48749 0,13.13382 q 0,0.88924 -0.64984,1.53908 -0.64984,0.64984 -1.53908,0.64984 l -83.180612,0 q -0.889337,0 -1.539177,-0.64984 -0.64984,-0.64984 -0.64984,-1.53908 l 0,-13.13382 q 0,-0.95772 0.615652,-1.57337 0.615653,-0.61556 1.573365,-0.61556 l 83.180612,0 q 0.88924,0 1.53908,0.64984 0.64984,0.64984 0.64984,1.53909 z"
         style="fill:url(#linearGradient850);fill-opacity:1"
         inkscape:connector-curvature="0" />
      <path
         id="path4"
         d="m 124.77795,946.46405 0,13.13382 q 0,0.88925 -0.64984,1.53909 -0.64984,0.64984 -1.53908,0.64984 l -83.180612,0 q -0.889337,0 -1.539177,-0.64984 -0.64984,-0.64984 -0.64984,-1.53909 l 0,-13.13382 q 0,-0.88925 0.64984,-1.53909 0.64984,-0.64984 1.539177,-0.64984 l 83.180612,0 q 0.88924,0 1.53908,0.64984 0.64984,0.64984 0.64984,1.53909 z"
         style="fill:url(#linearGradient850);fill-opacity:1"
         inkscape:connector-curvature="0" />
      <path
         style="fill:url(#linearGradient850);fill-opacity:1"
         d="m 124.77795,946.46405 0,13.13382 q 0,0.88925 -0.64984,1.53909 -0.64984,0.64984 -1.53908,0.64984 l -83.180612,0 q -0.889337,0 -1.539177,-0.64984 -0.64984,-0.64984 -0.64984,-1.53909 l 0,-13.13382 q 0,-0.88925 0.64984,-1.53909 0.64984,-0.64984 1.539177,-0.64984 l 83.180612,0 q 0.88924,0 1.53908,0.64984 0.64984,0.64984 0.64984,1.53909 z"
         id="path4150"
         inkscape:connector-curvature="0" />
      <path
         id="path4154"
         d="m 124.77795,946.46405 0,13.13382 q 0,0.88925 -0.64984,1.53909 -0.64984,0.64984 -1.53908,0.64984 l -83.180612,0 q -0.889337,0 -1.539177,-0.64984 -0.64984,-0.64984 -0.64984,-1.53909 l 0,-13.13382 q 0,-0.88925 0.64984,-1.53909 0.64984,-0.64984 1.539177,-0.64984 l 83.180612,0 q 0.88924,0 1.53908,0.64984 0.64984,0.64984 0.64984,1.53909 z"
         style="fill:url(#linearGradient850);fill-opacity:1"
         inkscape:connector-curvature="0" />
    </g>
    <g
       id="g831"
       style="fill:#2caf45;fill-opacity:1">
      <circle
         r="11.092738"
         cy="953.03094"
         cx="16.484426"
         id="path4148"
         style="fill:#2caf45;fill-opacity:1;fill-rule:evenodd;stroke:none;stroke-width:4;stroke-linecap:round;stroke-linejoin:round;stroke-miterlimit:4;stroke-dasharray:none;stroke-opacity:1" />
      <circle
         style="fill:#2caf45;fill-opacity:1;fill-rule:evenodd;stroke:none;stroke-width:4;stroke-linecap:round;stroke-linejoin:round;stroke-miterlimit:4;stroke-dasharray:none;stroke-opacity:1"
         id="circle4152"
         cx="16.484426"
         cy="988.05438"
         r="11.092738" />
      <circle
         r="11.092738"
         cy="1023.0778"
         cx="16.484426"
         id="circle4156"
         style="fill:#2caf45;fill-opacity:1;fill-rule:evenodd;stroke:none;stroke-width:4;stroke-linecap:round;stroke-linejoin:round;stroke-miterlimit:4;stroke-dasharray:none;stroke-opacity:1" />
    </g>
  </g>
</svg>
