<?xml version="1.0" encoding="UTF-8" standalone="no"?>
<!-- Created with Inkscape (http://www.inkscape.org/) -->

<svg
   xmlns:dc="http://purl.org/dc/elements/1.1/"
   xmlns:cc="http://creativecommons.org/ns#"
   xmlns:rdf="http://www.w3.org/1999/02/22-rdf-syntax-ns#"
   xmlns:svg="http://www.w3.org/2000/svg"
   xmlns="http://www.w3.org/2000/svg"
   xmlns:sodipodi="http://sodipodi.sourceforge.net/DTD/sodipodi-0.dtd"
   xmlns:inkscape="http://www.inkscape.org/namespaces/inkscape"
   width="128"
   height="128"
   viewBox="0 0 128 128"
   id="svg2"
   version="1.1"
   inkscape:version="0.91 r13725"
   sodipodi:docname="format-fill-color.svg">
  <defs
     id="defs4" />
  <sodipodi:namedview
     id="base"
     pagecolor="#ffffff"
     bordercolor="#666666"
     borderopacity="1.0"
     inkscape:pageopacity="0.0"
     inkscape:pageshadow="2"
     inkscape:zoom="11.2"
     inkscape:cx="19.843024"
     inkscape:cy="69.707741"
     inkscape:document-units="px"
     inkscape:current-layer="layer1"
     showgrid="false"
     units="px"
     inkscape:window-width="3840"
     inkscape:window-height="2128"
     inkscape:window-x="0"
     inkscape:window-y="32"
     inkscape:window-maximized="0" />
  <metadata
     id="metadata7">
    <rdf:RDF>
      <cc:Work
         rdf:about="">
        <dc:format>image/svg+xml</dc:format>
        <dc:type
           rdf:resource="http://purl.org/dc/dcmitype/StillImage" />
        <dc:title />
        <dc:creator>
          <cc:Agent>
            <dc:title>Kovid Goyal</dc:title>
          </cc:Agent>
        </dc:creator>
        <dc:rights>
          <cc:Agent>
            <dc:title />
          </cc:Agent>
        </dc:rights>
        <dc:publisher>
          <cc:Agent>
            <dc:title />
          </cc:Agent>
        </dc:publisher>
        <cc:license
           rdf:resource="http://creativecommons.org/licenses/by-sa/3.0/" />
      </cc:Work>
      <cc:License
         rdf:about="http://creativecommons.org/licenses/by-sa/3.0/">
        <cc:permits
           rdf:resource="http://creativecommons.org/ns#Reproduction" />
        <cc:permits
           rdf:resource="http://creativecommons.org/ns#Distribution" />
        <cc:requires
           rdf:resource="http://creativecommons.org/ns#Notice" />
        <cc:requires
           rdf:resource="http://creativecommons.org/ns#Attribution" />
        <cc:permits
           rdf:resource="http://creativecommons.org/ns#DerivativeWorks" />
        <cc:requires
           rdf:resource="http://creativecommons.org/ns#ShareAlike" />
      </cc:License>
    </rdf:RDF>
  </metadata>
  <g
     inkscape:label="Layer 1"
     inkscape:groupmode="layer"
     id="layer1"
     transform="translate(0,-924.36216)">
    <g
       transform="translate(0.00260059,0.00376367)"
       id="g4140">
      <path
         id="path4"
         d="m 40.013479,999.06915 c 6.359757,4.67475 20.124993,-3.15171 30.748644,-17.46631 l 33.295197,33.61766 c -10.626597,14.3161 -20.771572,17.651 -27.134275,12.9792"
         stroke-miterlimit="10"
         style="fill:#bc3e4c;fill-opacity:1;stroke:#000000;stroke-width:4.40812302;stroke-linecap:round;stroke-linejoin:bevel;stroke-miterlimit:10"
         inkscape:connector-curvature="0" />
      <ellipse
         id="ellipse6"
         ry="32.282364"
         rx="14.290408"
         cy="-748.86212"
         cx="-616.16022"
         stroke-miterlimit="10"
         transform="matrix(-0.8058623,-0.592103,0.59573364,-0.80318206,0,0)"
         style="fill:none;stroke:#000000;stroke-width:4.40800762;stroke-miterlimit:10" />
      <path
         id="path8"
         d="m 85.46409,977.45432 c 3.178405,-2.48472 6.266967,-5.64375 9.022665,-9.36276 0.785028,-1.05546 1.517033,-2.1285 2.198962,-3.20448 7.602843,-12.04097 8.679493,-24.85155 2.075243,-29.70811 -5.9886,-4.40066 -16.413416,-0.87222 -25.244612,7.869"
         stroke-miterlimit="10"
         style="fill:none;stroke:#000000;stroke-width:5.8774972;stroke-linecap:round;stroke-miterlimit:10"
         inkscape:connector-curvature="0" />
      <path
         id="path10"
         d="m 31.182284,992.23215 56.121393,44.06525 c 5.727905,4.2086 18.116023,-2.8366 27.674813,-15.719 9.55141,-12.8912 12.66501,-26.74548 6.94153,-30.94971 L 69.644231,940.36975"
         stroke-miterlimit="10"
         style="fill:none;stroke:#000000;stroke-width:4.40812302;stroke-miterlimit:10"
         inkscape:connector-curvature="0" />
      <path
         style="fill:#37b63b;fill-opacity:1"
         id="path12"
         d="m 64.359653,971.28577 c -12.75928,-0.0748 -27.904574,4.3303 -33.175896,7.31929 -5.26985,2.98899 -12.095026,8.47882 -15.822804,14.98012 -3.729251,6.50422 -5.051868,17.33732 -0.29457,24.86472 0,0 6.227201,9.4258 7.65439,19.0671 0.768827,3.1928 -1.322617,7.4981 5.275741,8.7647 6.596886,1.2695 4.73226,-12.8912 4.73226,-12.8912 0,0 -0.631851,-3.8085 -1.543544,-7.9101 -1.624551,-9.263 4.813266,-29.4706 4.813266,-29.4706 0,0 1.857261,-2.08159 6.938586,-4.3347 2.947169,-1.27241 8.386396,-5.52794 8.386396,-5.52794 l 5.857515,-5.61883 4.755826,-5.76395 c -0.0044,0 1.281377,-1.66674 2.422834,-3.47861 z"
         inkscape:connector-curvature="0" />
      <path
         style="fill:#3a37b6;fill-opacity:1"
         id="path14"
         d="m 24.801907,980.76288 c 0,0 -21.867371,-2.08306 -20.6728915,6.1231 1.1959525,8.20616 7.2611395,3.59148 10.3364455,-1.19032 3.073834,-4.78326 10.336446,-4.93278 10.336446,-4.93278 z"
         inkscape:connector-curvature="0" />
      <path
         style="fill:#3a37b6;fill-opacity:1"
         id="path16"
         d="m 15.670251,989.86324 c 0,0 -19.2648493,10.50616 -13.6415164,16.62636 5.6233329,6.1187 8.0343844,-1.0877 7.87679,-6.76666 -0.1575947,-5.676 5.7647264,-9.8597 5.7647264,-9.8597 z"
         inkscape:connector-curvature="0" />
    </g>
  </g>
</svg>
