<?xml version="1.0" encoding="UTF-8" standalone="no"?>
<!-- Created with Inkscape (http://www.inkscape.org/) -->

<svg
   xmlns:dc="http://purl.org/dc/elements/1.1/"
   xmlns:cc="http://creativecommons.org/ns#"
   xmlns:rdf="http://www.w3.org/1999/02/22-rdf-syntax-ns#"
   xmlns:svg="http://www.w3.org/2000/svg"
   xmlns="http://www.w3.org/2000/svg"
   xmlns:sodipodi="http://sodipodi.sourceforge.net/DTD/sodipodi-0.dtd"
   xmlns:inkscape="http://www.inkscape.org/namespaces/inkscape"
   width="128"
   height="128"
   viewBox="0 0 128 128"
   id="svg2"
   version="1.1"
   inkscape:version="0.92.4 5da689c313, 2019-01-14"
   sodipodi:docname="format-text-strikethrough.svg">
  <defs
     id="defs4" />
  <sodipodi:namedview
     id="base"
     pagecolor="#ffffff"
     bordercolor="#666666"
     borderopacity="1.0"
     inkscape:pageopacity="0.0"
     inkscape:pageshadow="2"
     inkscape:zoom="7.919596"
     inkscape:cx="52.937487"
     inkscape:cy="73.610886"
     inkscape:document-units="px"
     inkscape:current-layer="layer1"
     showgrid="false"
     units="px"
     inkscape:window-width="2560"
     inkscape:window-height="1400"
     inkscape:window-x="0"
     inkscape:window-y="40"
     inkscape:window-maximized="0" />
  <metadata
     id="metadata7">
    <rdf:RDF>
      <cc:Work
         rdf:about="">
        <dc:format>image/svg+xml</dc:format>
        <dc:type
           rdf:resource="http://purl.org/dc/dcmitype/StillImage" />
        <dc:title />
        <dc:creator>
          <cc:Agent>
            <dc:title>Kovid Goyal</dc:title>
          </cc:Agent>
        </dc:creator>
        <dc:rights>
          <cc:Agent>
            <dc:title />
          </cc:Agent>
        </dc:rights>
        <dc:publisher>
          <cc:Agent>
            <dc:title />
          </cc:Agent>
        </dc:publisher>
        <cc:license
           rdf:resource="http://creativecommons.org/licenses/by-sa/3.0/" />
      </cc:Work>
      <cc:License
         rdf:about="http://creativecommons.org/licenses/by-sa/3.0/">
        <cc:permits
           rdf:resource="http://creativecommons.org/ns#Reproduction" />
        <cc:permits
           rdf:resource="http://creativecommons.org/ns#Distribution" />
        <cc:requires
           rdf:resource="http://creativecommons.org/ns#Notice" />
        <cc:requires
           rdf:resource="http://creativecommons.org/ns#Attribution" />
        <cc:permits
           rdf:resource="http://creativecommons.org/ns#DerivativeWorks" />
        <cc:requires
           rdf:resource="http://creativecommons.org/ns#ShareAlike" />
      </cc:License>
    </rdf:RDF>
  </metadata>
  <g
     inkscape:label="Layer 1"
     inkscape:groupmode="layer"
     id="layer1"
     transform="translate(0,-924.36216)">
    <path
       inkscape:connector-curvature="0"
       d="m 124.75,981.82775 q 0.98438,0 1.61719,0.6487 Q 127,983.12516 127,984.1343 v 4.61312 q 0,1.00915 -0.63281,1.65785 -0.63281,0.64871 -1.61719,0.64871 H 3.25 q -0.98437,0 -1.61719,-0.64871 Q 1,989.75657 1,988.74742 v -4.61312 q 0,-1.00914 0.63281,-1.65785 0.63282,-0.6487 1.61719,-0.6487 z"
       id="path4143"
       style="fill:#2caf45;fill-opacity:1;stroke-width:1.01249039" />
    <path
       style="fill:#2271d5;fill-opacity:1;stroke-width:1.01249039"
       d="M 34.96094,977.21463 Q 32.99219,974.69187 31.375,971.44824 28,964.45649 28,957.89726 q 0,-13.04651 9.42188,-22.27274 9.35156,-9.15417 27.63281,-9.15417 3.51562,0 11.74219,1.36948 4.64062,0.86502 12.44531,3.45984 0.70312,2.73906 1.47656,8.50546 0.98438,8.8659 0.98438,13.19064 0,1.29741 -0.35157,3.24364 l -0.84375,0.2162 -5.90625,-0.43251 -0.98437,-0.14413 q -3.51563,-10.73995 -7.24219,-14.77643 -6.1875,-6.55923 -14.76562,-6.55923 -8.01563,0 -12.79688,4.25268 -4.71094,4.18071 -4.71094,10.52374 0,5.26183 4.64063,10.09114 4.64062,4.82942 19.61719,9.2983 4.85156,1.44165 12.16406,4.75736 4.07812,2.01818 6.67969,3.7481 z"
       id="path4141"
       inkscape:connector-curvature="0" />
    <path
       style="fill:#2271d5;fill-opacity:1;stroke-width:1.01249039"
       d="M 70.60938,995.66714 H 99.50781 Q 100,998.47827 100,1002.2985 q 0,8.0008 -2.88281,15.2809 -1.61719,3.9644 -4.99219,7.4964 -2.60156,2.5227 -7.66406,5.8384 -5.625,3.4598 -10.75781,4.7573 -5.625,1.5137 -14.27344,1.5137 -8.01563,0 -13.71094,-1.6579 l -9.84375,-2.8832 q -4.00781,-1.1532 -5.0625,-2.0182 -0.5625,-0.5766 -0.5625,-1.5857 v -0.9371 q 0,-7.7846 -0.14062,-11.2444 -0.0703,-2.1625 0,-4.9015 l 0.14062,-2.6669 v -3.1716 l 7.17188,-0.1441 q 1.05468,2.4507 2.10937,5.1177 1.05469,2.6669 1.58203,4.0364 0.52735,1.3695 0.87891,1.9462 2.46094,4.1085 5.625,6.7755 3.02344,2.5948 7.38281,4.1085 4.14844,1.5858 9.28125,1.5858 4.5,0 9.77344,-1.9462 5.41406,-1.874 8.57812,-6.1988 3.30469,-4.3969 3.30469,-9.2983 0,-6.0548 -5.69531,-11.3166 -2.39063,-2.09033 -9.63281,-5.11766 z"
       id="path4"
       inkscape:connector-curvature="0" />
  </g>
</svg>
