<svg xmlns="http://www.w3.org/2000/svg" xmlns:svg="http://www.w3.org/2000/svg" xmlns:xlink="http://www.w3.org/1999/xlink" id="svg2" width="128" height="128" version="1.1" viewBox="0 0 128 128"><defs id="defs4"><linearGradient id="linearGradient4235"><stop style="stop-color:#b2cffa;stop-opacity:1" id="stop4237" offset="0"/><stop style="stop-color:#0b59bd;stop-opacity:1" id="stop4239" offset="1"/></linearGradient><radialGradient id="radialGradient4241" cx="64" cy="988.362" r="57.75" fx="64" fy="988.362" gradientTransform="matrix(0.9395439,0,0,0.96464033,3.8691914,27.656088)" gradientUnits="userSpaceOnUse" xlink:href="#linearGradient4235"/></defs><metadata id="metadata7"/><g id="layer1" transform="translate(0,-924.36216)"><path id="path4" d="m 52.516294,1026.4054 q 5.703323,2.3212 10.790079,2.3212 28.979057,0 28.979057,-24.2997 0,-8.26917 -3.159958,-13.0566 -2.08094,-3.19158 -4.739924,-5.36772 -2.658975,-2.17606 -5.202358,-3.3729 -2.543374,-1.19684 -6.204288,-1.81343 -3.660923,-0.61659 -6.474049,-0.7616 -2.813126,-0.14511 -7.283297,-0.14511 -5.626252,0 -7.784262,0.72535 0,3.84447 -0.03852,11.53336 -0.03852,7.68884 -0.03852,11.46075 0,0.5803 -0.07704,4.8962 -0.07704,4.3159 -0.03852,6.9997 0.03852,2.6839 0.346823,6.0569 0.308284,3.3729 0.924859,4.8236 z m -1.079,-54.1122 q 3.23702,0.50774 8.400837,0.50774 6.319899,0 11.021292,-0.94297 4.701393,-0.94297 8.477918,-3.22788 3.776525,-2.28482 5.741853,-6.49201 1.965338,-4.2071 1.965338,-10.30014 0,-5.07756 -2.23509,-8.88568 -2.235081,-3.80822 -6.088677,-5.94802 -3.853605,-2.1398 -8.323776,-3.15528 -4.470171,-1.01557 -9.556919,-1.01557 -3.853595,0 -10.019352,0.94297 0,3.62686 0.308283,10.95298 0.308293,7.32622 0.308293,11.02558 0,1.95845 -0.03852,5.80291 -0.03852,3.84447 -0.03852,5.73041 0,3.33664 0.07704,5.00496 z m -41.695934,64.4849 0.154141,-6.8184 q 1.156081,-0.2902 6.55112,-1.1606 5.39504,-0.8704 8.169626,-1.9585 0.539505,-0.8704 0.963399,-1.9584 0.423894,-1.0881 0.655115,-2.43 0.231213,-1.3419 0.423894,-2.3575 0.192682,-1.0154 0.231213,-2.7201 0.03852,-1.7046 0.03852,-2.4662 l 0,-4.7512 q 0,-71.23077 -1.695585,-74.3498 -0.308284,-0.58024 -1.695586,-1.05182 -1.387293,-0.47148 -3.429701,-0.79786 -2.042409,-0.32638 -3.815056,-0.50774 -1.772656,-0.18136 -3.737994,-0.32646 -1.965338,-0.14502 -2.350692,-0.21753 l -0.308293,-6.02053 q 7.55305,-0.1451 26.204472,-0.8342 18.651412,-0.6891 28.747835,-0.6891 1.772656,0 5.279429,0.0362 3.506772,0.0363 5.202358,0.0363 5.395039,0 10.520326,0.94297 5.125278,0.94296 9.903742,3.04651 4.778467,2.10364 8.323777,5.15016 3.5453,3.04652 5.70332,7.58 2.15801,4.53357 2.15801,9.97376 0,3.77196 -1.27168,6.92724 -1.27169,3.15537 -3.00581,5.22266 -1.73411,2.0673 -4.97114,4.17085 -3.23702,2.10355 -5.62625,3.26413 -2.389237,1.16059 -6.474045,2.90142 11.869075,2.53878 19.768955,9.71989 7.89988,7.18114 7.89988,17.98915 0,7.2536 -2.69752,13.0202 -2.69752,5.7667 -7.20623,9.466 -4.50871,3.6993 -10.63593,6.2019 -6.127225,2.5025 -12.601265,3.518 -6.47404,1.0155 -13.564665,1.0155 -3.391162,0 -10.173494,-0.2176 -6.782333,-0.2176 -10.173504,-0.2176 -8.169625,0 -23.661088,0.7979 -15.491463,0.7979 -17.803624,0.8704 z" style="fill:url(#radialGradient4241);fill-opacity:1"/></g></svg>