<?xml version="1.0" encoding="UTF-8" standalone="no"?>
<!-- Created with Inkscape (http://www.inkscape.org/) -->

<svg
   xmlns:dc="http://purl.org/dc/elements/1.1/"
   xmlns:cc="http://creativecommons.org/ns#"
   xmlns:rdf="http://www.w3.org/1999/02/22-rdf-syntax-ns#"
   xmlns:svg="http://www.w3.org/2000/svg"
   xmlns="http://www.w3.org/2000/svg"
   xmlns:xlink="http://www.w3.org/1999/xlink"
   xmlns:sodipodi="http://sodipodi.sourceforge.net/DTD/sodipodi-0.dtd"
   xmlns:inkscape="http://www.inkscape.org/namespaces/inkscape"
   width="128"
   height="128"
   viewBox="0 0 128 128"
   id="svg2"
   version="1.1"
   inkscape:version="0.92.4 5da689c313, 2019-01-14"
   sodipodi:docname="format-justify-center.svg">
  <defs
     id="defs4">
    <linearGradient
       inkscape:collect="always"
       id="linearGradient4139">
      <stop
         style="stop-color:#0b59bd;stop-opacity:1"
         offset="0"
         id="stop4141" />
      <stop
         id="stop4147"
         offset="0.50773352"
         style="stop-color:#b2cffa;stop-opacity:1" />
      <stop
         style="stop-color:#0b59bd;stop-opacity:1"
         offset="1"
         id="stop4143" />
    </linearGradient>
    <linearGradient
       inkscape:collect="always"
       xlink:href="#linearGradient4139"
       id="linearGradient4145"
       x1="1"
       y1="988.36218"
       x2="126.82143"
       y2="988.36218"
       gradientUnits="userSpaceOnUse" />
  </defs>
  <sodipodi:namedview
     id="base"
     pagecolor="#ffffff"
     bordercolor="#666666"
     borderopacity="1.0"
     inkscape:pageopacity="0.0"
     inkscape:pageshadow="2"
     inkscape:zoom="7.919596"
     inkscape:cx="15.309153"
     inkscape:cy="69.707741"
     inkscape:document-units="px"
     inkscape:current-layer="layer1"
     showgrid="false"
     units="px"
     inkscape:window-width="2560"
     inkscape:window-height="1400"
     inkscape:window-x="0"
     inkscape:window-y="40"
     inkscape:window-maximized="0" />
  <metadata
     id="metadata7">
    <rdf:RDF>
      <cc:Work
         rdf:about="">
        <dc:format>image/svg+xml</dc:format>
        <dc:type
           rdf:resource="http://purl.org/dc/dcmitype/StillImage" />
        <dc:title />
        <dc:creator>
          <cc:Agent>
            <dc:title>Kovid Goyal</dc:title>
          </cc:Agent>
        </dc:creator>
        <dc:rights>
          <cc:Agent>
            <dc:title />
          </cc:Agent>
        </dc:rights>
        <dc:publisher>
          <cc:Agent>
            <dc:title />
          </cc:Agent>
        </dc:publisher>
        <cc:license
           rdf:resource="http://creativecommons.org/licenses/by-sa/3.0/" />
      </cc:Work>
      <cc:License
         rdf:about="http://creativecommons.org/licenses/by-sa/3.0/">
        <cc:permits
           rdf:resource="http://creativecommons.org/ns#Reproduction" />
        <cc:permits
           rdf:resource="http://creativecommons.org/ns#Distribution" />
        <cc:requires
           rdf:resource="http://creativecommons.org/ns#Notice" />
        <cc:requires
           rdf:resource="http://creativecommons.org/ns#Attribution" />
        <cc:permits
           rdf:resource="http://creativecommons.org/ns#DerivativeWorks" />
        <cc:requires
           rdf:resource="http://creativecommons.org/ns#ShareAlike" />
      </cc:License>
    </rdf:RDF>
  </metadata>
  <g
     inkscape:label="Layer 1"
     inkscape:groupmode="layer"
     id="layer1"
     transform="translate(0,-924.36216)">
    <path
       inkscape:connector-curvature="0"
       d="m 127,1024.3622 0,9 q 0,1.8281 -1.33594,3.1641 -1.33593,1.3359 -3.16406,1.3359 l -117,0 q -1.82812,0 -3.16406,-1.3359 Q 1,1035.1903 1,1033.3622 l 0,-9 q 0,-1.8281 1.33594,-3.1641 1.33594,-1.3359 3.16406,-1.3359 l 117,0 q 1.82813,0 3.16406,1.3359 1.33594,1.336 1.33594,3.1641 z m -27,-27.00004 0,9.00004 q 0,1.8281 -1.33594,3.1641 -1.33593,1.3359 -3.16406,1.3359 l -63,0 q -1.82812,0 -3.16406,-1.3359 Q 28,1008.1903 28,1006.3622 l 0,-9.00004 q 0,-1.8281 1.33594,-3.1641 1.33594,-1.3359 3.16406,-1.3359 l 63,0 q 1.82813,0 3.16406,1.3359 1.33594,1.336 1.33594,3.1641 z m 18,-27 0,9 q 0,1.8281 -1.33594,3.1641 -1.33593,1.3359 -3.16406,1.3359 l -99,0 q -1.82812,0 -3.16406,-1.3359 Q 10,981.19026 10,979.36216 l 0,-9 q 0,-1.8281 1.33594,-3.1641 1.33594,-1.3359 3.16406,-1.3359 l 99,0 q 1.82813,0 3.16406,1.3359 1.33594,1.336 1.33594,3.1641 z m -27,-27 0,9 q 0,1.8281 -1.33594,3.1641 -1.33593,1.3359 -3.16406,1.3359 l -45,0 q -1.82812,0 -3.16406,-1.3359 Q 37,954.19026 37,952.36216 l 0,-9 q 0,-1.8281 1.33594,-3.1641 1.33594,-1.3359 3.16406,-1.3359 l 45,0 q 1.82813,0 3.16406,1.3359 Q 91,941.53406 91,943.36216 Z"
       id="path4"
       style="fill-opacity:1;fill:url(#linearGradient4145)" />
  </g>
</svg>
