<svg xmlns="http://www.w3.org/2000/svg" xmlns:svg="http://www.w3.org/2000/svg" xmlns:xlink="http://www.w3.org/1999/xlink" id="svg2" width="128" height="128" version="1.1" viewBox="0 0 128 128"><defs id="defs4"><linearGradient id="linearGradient4139"><stop style="stop-color:#b2cffa;stop-opacity:1" id="stop4141" offset="0"/><stop style="stop-color:#0b59bd;stop-opacity:1" id="stop4143" offset="1"/></linearGradient><radialGradient id="radialGradient4145" cx="64" cy="988.362" r="42" fx="64" fy="988.362" gradientTransform="matrix(1,0,0,1.3173608,0,-321.3382)" gradientUnits="userSpaceOnUse" xlink:href="#linearGradient4139"/></defs><metadata id="metadata7"/><g id="layer1" transform="translate(0,-924.36216)"><path id="path4" d="m 22.000015,1035.8764 1.39453,-6.1236 q 0.49219,-0.1442 6.68555,-1.549 6.19336,-1.4048 9.14648,-2.7016 2.29688,-2.5215 3.36328,-7.2763 0.082,-0.5043 5.08594,-20.82049 5.00391,-20.31629 9.35156,-39.15551 4.34766,-18.83932 4.26563,-21.36083 l 0,-1.8011 q -1.96875,-0.93655 -4.47071,-1.33282 -2.50195,-0.39617 -5.70117,-0.5763 -3.19922,-0.18012 -4.75781,-0.39626 l 1.55859,-7.42043 q 2.70704,0.14412 9.84375,0.46828 7.13672,0.32416 12.26368,0.50428 5.12695,0.18013 9.88476,0.18013 3.9375,0 8.08008,-0.18013 4.14258,-0.18012 9.92578,-0.50428 5.783205,-0.32416 8.080085,-0.46828 -0.41016,2.80967 -1.5586,6.41186 -2.46094,0.72042 -8.326175,2.05324 -5.86523,1.33282 -8.90039,2.4134 -0.65625,1.36883 -1.14844,3.06181 -0.49218,1.69307 -0.73828,2.88177 -0.24609,1.1887 -0.61523,3.27795 -0.36914,2.08925 -0.5332,3.0258 -2.21485,10.66246 -7.17774,30.2221 -4.96289,19.55977 -6.35742,25.61151 -0.16406,0.6483 -1.06641,4.1784 -0.90234,3.5301 -1.64062,6.4839 -0.73828,2.9538 -1.3125,6.0156 -0.57422,3.0618 -0.49219,4.1425 l 0.082,1.2967 q 1.39453,0.2883 15.17578,2.2334 -0.24609,3.1699 -1.3125,7.1323 -0.90234,0 -2.66601,0.1081 -1.76367,0.108 -2.66602,0.108 -2.3789,0 -7.13672,-0.7204 -4.75781,-0.7204 -7.05468,-0.7204 -11.32032,-0.1442 -16.89844,-0.1442 -4.18359,0 -11.73047,0.6485 -7.54687,0.6484 -9.92578,0.7924 z" style="fill:url(#radialGradient4145);fill-opacity:1"/></g></svg>