<?xml version="1.0" encoding="UTF-8" standalone="no"?>
<!-- Created with Inkscape (http://www.inkscape.org/) -->

<svg
   xmlns:dc="http://purl.org/dc/elements/1.1/"
   xmlns:cc="http://creativecommons.org/ns#"
   xmlns:rdf="http://www.w3.org/1999/02/22-rdf-syntax-ns#"
   xmlns:svg="http://www.w3.org/2000/svg"
   xmlns="http://www.w3.org/2000/svg"
   xmlns:xlink="http://www.w3.org/1999/xlink"
   xmlns:sodipodi="http://sodipodi.sourceforge.net/DTD/sodipodi-0.dtd"
   xmlns:inkscape="http://www.inkscape.org/namespaces/inkscape"
   width="128"
   height="128"
   viewBox="0 0 128 128"
   id="svg2"
   version="1.1"
   inkscape:version="0.92.4 5da689c313, 2019-01-14"
   sodipodi:docname="format-text-italic.svg">
  <defs
     id="defs4">
    <linearGradient
       inkscape:collect="always"
       id="linearGradient4139">
      <stop
         style="stop-color:#b2cffa;stop-opacity:1"
         offset="0"
         id="stop4141" />
      <stop
         style="stop-color:#0b59bd;stop-opacity:1"
         offset="1"
         id="stop4143" />
    </linearGradient>
    <radialGradient
       inkscape:collect="always"
       xlink:href="#linearGradient4139"
       id="radialGradient4145"
       cx="64.000003"
       cy="988.36218"
       fx="64.000003"
       fy="988.36218"
       r="42.000017"
       gradientTransform="matrix(1,0,0,1.3173608,0,-321.3382)"
       gradientUnits="userSpaceOnUse" />
  </defs>
  <sodipodi:namedview
     id="base"
     pagecolor="#ffffff"
     bordercolor="#666666"
     borderopacity="1.0"
     inkscape:pageopacity="0.0"
     inkscape:pageshadow="2"
     inkscape:zoom="5.6"
     inkscape:cx="43.191939"
     inkscape:cy="49.735915"
     inkscape:document-units="px"
     inkscape:current-layer="layer1"
     showgrid="false"
     units="px"
     inkscape:window-width="2560"
     inkscape:window-height="1400"
     inkscape:window-x="0"
     inkscape:window-y="40"
     inkscape:window-maximized="0" />
  <metadata
     id="metadata7">
    <rdf:RDF>
      <cc:Work
         rdf:about="">
        <dc:format>image/svg+xml</dc:format>
        <dc:type
           rdf:resource="http://purl.org/dc/dcmitype/StillImage" />
        <dc:title />
        <dc:creator>
          <cc:Agent>
            <dc:title>Kovid Goyal</dc:title>
          </cc:Agent>
        </dc:creator>
        <dc:rights>
          <cc:Agent>
            <dc:title />
          </cc:Agent>
        </dc:rights>
        <dc:publisher>
          <cc:Agent>
            <dc:title />
          </cc:Agent>
        </dc:publisher>
        <cc:license
           rdf:resource="http://creativecommons.org/licenses/by-sa/3.0/" />
      </cc:Work>
      <cc:License
         rdf:about="http://creativecommons.org/licenses/by-sa/3.0/">
        <cc:permits
           rdf:resource="http://creativecommons.org/ns#Reproduction" />
        <cc:permits
           rdf:resource="http://creativecommons.org/ns#Distribution" />
        <cc:requires
           rdf:resource="http://creativecommons.org/ns#Notice" />
        <cc:requires
           rdf:resource="http://creativecommons.org/ns#Attribution" />
        <cc:permits
           rdf:resource="http://creativecommons.org/ns#DerivativeWorks" />
        <cc:requires
           rdf:resource="http://creativecommons.org/ns#ShareAlike" />
      </cc:License>
    </rdf:RDF>
  </metadata>
  <g
     inkscape:label="Layer 1"
     inkscape:groupmode="layer"
     id="layer1"
     transform="translate(0,-924.36216)">
    <path
       inkscape:connector-curvature="0"
       d="m 22.000015,1035.8764 1.39453,-6.1236 q 0.49219,-0.1442 6.68555,-1.549 6.19336,-1.4048 9.14648,-2.7016 2.29688,-2.5215 3.36328,-7.2763 0.082,-0.5043 5.08594,-20.82049 5.00391,-20.31629 9.35156,-39.15551 4.34766,-18.83932 4.26563,-21.36083 l 0,-1.8011 q -1.96875,-0.93655 -4.47071,-1.33282 -2.50195,-0.39617 -5.70117,-0.5763 -3.19922,-0.18012 -4.75781,-0.39626 l 1.55859,-7.42043 q 2.70704,0.14412 9.84375,0.46828 7.13672,0.32416 12.26368,0.50428 5.12695,0.18013 9.88476,0.18013 3.9375,0 8.08008,-0.18013 4.14258,-0.18012 9.92578,-0.50428 5.783205,-0.32416 8.080085,-0.46828 -0.41016,2.80967 -1.5586,6.41186 -2.46094,0.72042 -8.326175,2.05324 -5.86523,1.33282 -8.90039,2.4134 -0.65625,1.36883 -1.14844,3.06181 -0.49218,1.69307 -0.73828,2.88177 -0.24609,1.1887 -0.61523,3.27795 -0.36914,2.08925 -0.5332,3.0258 -2.21485,10.66246 -7.17774,30.2221 -4.96289,19.55977 -6.35742,25.61151 -0.16406,0.6483 -1.06641,4.1784 -0.90234,3.5301 -1.64062,6.4839 -0.73828,2.9538 -1.3125,6.0156 -0.57422,3.0618 -0.49219,4.1425 l 0.082,1.2967 q 1.39453,0.2883 15.17578,2.2334 -0.24609,3.1699 -1.3125,7.1323 -0.90234,0 -2.66601,0.1081 -1.76367,0.108 -2.66602,0.108 -2.3789,0 -7.13672,-0.7204 -4.75781,-0.7204 -7.05468,-0.7204 -11.32032,-0.1442 -16.89844,-0.1442 -4.18359,0 -11.73047,0.6485 -7.54687,0.6484 -9.92578,0.7924 z"
       id="path4"
       style="fill:url(#radialGradient4145);fill-opacity:1" />
  </g>
</svg>
