<svg xmlns="http://www.w3.org/2000/svg" xmlns:xlink="http://www.w3.org/1999/xlink" width="128" height="128" viewBox="0 0 128 128"><defs><linearGradient id="a"><stop offset="0" stop-color="#0d5cc6"/><stop offset="1" stop-color="#020e1e"/></linearGradient><radialGradient xlink:href="#a" id="b" cx="64" cy="988.362" fx="64" fy="988.362" r="63" gradientTransform="matrix(1 0 0 .88 0 110.91)" gradientUnits="userSpaceOnUse"/></defs><path d="M123.374 112.039q-3.324 0-10.009-.253-6.685-.253-10.085-.253-3.324 0-9.971.253t-9.971.253q-1.813 0-2.795-1.48t-.982-3.286q0-2.239 1.284-3.322 1.284-1.083 2.946-1.228 1.662-.144 3.853-.505 2.191-.361 3.399-1.083 2.493-1.516 2.493-10.109l-.075-28.234q0-1.516-.075-2.238-.982-.289-3.777-.289h-50.989q-2.871 0-3.853.289-.075.722-.075 2.238l-.075 26.79q0 10.254 2.795 11.842 1.209.722 3.626.939 2.417.217 4.306.253 1.888.036 3.399 1.083 1.511 1.047 1.511 3.286 0 1.877-.944 3.466-.944 1.589-2.757 1.589-3.55 0-10.538-.253-6.987-.253-10.462-.253-3.248 0-9.669.253t-9.594.253q-1.737 0-2.682-1.516-.944-1.516-.944-3.249 0-2.166 1.171-3.249 1.171-1.083 2.719-1.264 1.549-.181 3.588-.542 2.04-.361 3.173-1.083 2.493-1.661 2.493-10.326l-.075-4.116v-58.707q0-.217.038-1.877.038-1.661 0-2.636l-.113-2.78q-.075-1.805-.264-3.033t-.491-2.636q-.302-1.408-.831-2.275-.529-.867-1.209-1.3-1.133-.722-3.399-.867-2.266-.144-4.004-.144-1.737 0-3.097-1.011-1.36-1.011-1.36-3.249 0-1.877.906-3.466.906-1.589 2.719-1.589 3.475 0 10.462.253t10.462.253q3.173 0 9.556-.253 6.383-.253 9.556-.253 1.888 0 2.833 1.589.944 1.589.944 3.466 0 2.166-1.284 3.141-1.284.975-2.908 1.047-1.624.072-3.739.289-2.115.217-3.248.939-2.644 1.516-2.644 11.554l.075 23.107q0 1.516.075 2.311.982.217 2.946.217h52.802q1.888 0 2.87-.217.075-.794.075-2.311l.075-23.107q0-10.037-2.644-11.554-1.36-.794-4.419-.903-3.059-.108-4.986-.939-1.926-.83-1.926-3.574 0-1.877.944-3.466.944-1.589 2.833-1.589 3.324 0 9.971.253t9.971.253q3.248 0 9.745-.253 6.496-.253 9.745-.253 1.888 0 2.833 1.589.944 1.589.944 3.466 0 2.166-1.322 3.177-1.322 1.011-3.022 1.047-1.7.036-3.89.217-2.191.18-3.324.903-2.644 1.661-2.644 11.626l.075 68.094q0 8.593 2.568 10.109 1.209.722 3.475.975t4.041.325q1.775.072 3.135 1.119 1.36 1.047 1.36 3.213 0 1.877-.906 3.466-.906 1.589-2.719 1.589z" fill="url(#b)"/></svg>