<svg xmlns="http://www.w3.org/2000/svg" xmlns:svg="http://www.w3.org/2000/svg" xmlns:xlink="http://www.w3.org/1999/xlink" id="svg2" width="128" height="128" version="1.1" viewBox="0 0 128 128"><defs id="defs4"><linearGradient id="linearGradient4139"><stop style="stop-color:#b2cffa;stop-opacity:1" id="stop4141" offset="0"/><stop id="stop4147" offset=".516" style="stop-color:#0b59bd;stop-opacity:1"/><stop style="stop-color:#b2cffa;stop-opacity:1" id="stop4143" offset="1"/></linearGradient><linearGradient id="linearGradient4145" x1="1" x2="127" y1="988.362" y2="988.362" gradientUnits="userSpaceOnUse" xlink:href="#linearGradient4139"/></defs><metadata id="metadata7"/><g id="layer1" transform="translate(0,-924.36216)"><path id="path4" d="m 127,1024.3622 0,9 q 0,1.8281 -1.33594,3.1641 -1.33593,1.3359 -3.16406,1.3359 l -117,0 q -1.82812,0 -3.16406,-1.3359 Q 1,1035.1903 1,1033.3622 l 0,-9 q 0,-1.8281 1.33594,-3.1641 1.33594,-1.3359 3.16406,-1.3359 l 117,0 q 1.82813,0 3.16406,1.3359 1.33594,1.336 1.33594,3.1641 z m 0,-27.00004 0,9.00004 q 0,1.8281 -1.33594,3.1641 -1.33593,1.3359 -3.16406,1.3359 l -117,0 q -1.82812,0 -3.16406,-1.3359 Q 1,1008.1903 1,1006.3622 l 0,-9.00004 q 0,-1.8281 1.33594,-3.1641 1.33594,-1.3359 3.16406,-1.3359 l 117,0 q 1.82813,0 3.16406,1.3359 1.33594,1.336 1.33594,3.1641 z m 0,-27 0,9 q 0,1.8281 -1.33594,3.1641 -1.33593,1.3359 -3.16406,1.3359 l -117,0 q -1.82812,0 -3.16406,-1.3359 Q 1,981.19026 1,979.36216 l 0,-9 q 0,-1.8281 1.33594,-3.1641 1.33594,-1.3359 3.16406,-1.3359 l 117,0 q 1.82813,0 3.16406,1.3359 1.33594,1.336 1.33594,3.1641 z m 0,-27 0,9 q 0,1.8281 -1.33594,3.1641 -1.33593,1.3359 -3.16406,1.3359 l -117,0 q -1.82812,0 -3.16406,-1.3359 Q 1,954.19026 1,952.36216 l 0,-9 q 0,-1.8281 1.33594,-3.1641 1.33594,-1.3359 3.16406,-1.3359 l 117,0 q 1.82813,0 3.16406,1.3359 1.33594,1.336 1.33594,3.1641 z" style="fill-opacity:1;fill:url(#linearGradient4145)"/></g></svg>