<svg xmlns="http://www.w3.org/2000/svg" xmlns:svg="http://www.w3.org/2000/svg" xmlns:xlink="http://www.w3.org/1999/xlink" id="svg2" width="128" height="128" version="1.1" viewBox="0 0 128 128"><defs id="defs4"><linearGradient id="linearGradient848"><stop style="stop-color:#b2cffa;stop-opacity:1" id="stop844" offset="0"/><stop style="stop-color:#0b59bd;stop-opacity:1" id="stop846" offset="1"/></linearGradient><linearGradient id="linearGradient850" x1="82.474" x2="82.705" y1="944.567" y2="1032.072" gradientUnits="userSpaceOnUse" xlink:href="#linearGradient848"/></defs><metadata id="metadata7"/><g id="layer1" transform="translate(0,-924.36216)"><g id="g842" style="fill-opacity:1;fill:url(#linearGradient850)"><path id="path4145" d="m 124.77795,1016.5109 0,13.1337 q 0,0.8893 -0.64984,1.5392 -0.64984,0.6499 -1.53908,0.6499 l -83.180612,0 q -0.889337,0 -1.539177,-0.6499 -0.64984,-0.6499 -0.64984,-1.5392 l 0,-13.1337 q 0,-0.9577 0.615652,-1.5734 0.615653,-0.6156 1.573365,-0.6156 l 83.180612,0 q 0.88924,0 1.53908,0.6498 0.64984,0.6499 0.64984,1.5392 z" style="fill:url(#linearGradient850);fill-opacity:1"/><path id="path4141" d="m 124.77795,981.48749 0,13.13382 q 0,0.88924 -0.64984,1.53908 -0.64984,0.64984 -1.53908,0.64984 l -83.180612,0 q -0.889337,0 -1.539177,-0.64984 -0.64984,-0.64984 -0.64984,-1.53908 l 0,-13.13382 q 0,-0.95772 0.615652,-1.57337 0.615653,-0.61556 1.573365,-0.61556 l 83.180612,0 q 0.88924,0 1.53908,0.64984 0.64984,0.64984 0.64984,1.53909 z" style="fill:url(#linearGradient850);fill-opacity:1"/><path id="path4" d="m 124.77795,946.46405 0,13.13382 q 0,0.88925 -0.64984,1.53909 -0.64984,0.64984 -1.53908,0.64984 l -83.180612,0 q -0.889337,0 -1.539177,-0.64984 -0.64984,-0.64984 -0.64984,-1.53909 l 0,-13.13382 q 0,-0.88925 0.64984,-1.53909 0.64984,-0.64984 1.539177,-0.64984 l 83.180612,0 q 0.88924,0 1.53908,0.64984 0.64984,0.64984 0.64984,1.53909 z" style="fill:url(#linearGradient850);fill-opacity:1"/><path style="fill:url(#linearGradient850);fill-opacity:1" id="path4150" d="m 124.77795,946.46405 0,13.13382 q 0,0.88925 -0.64984,1.53909 -0.64984,0.64984 -1.53908,0.64984 l -83.180612,0 q -0.889337,0 -1.539177,-0.64984 -0.64984,-0.64984 -0.64984,-1.53909 l 0,-13.13382 q 0,-0.88925 0.64984,-1.53909 0.64984,-0.64984 1.539177,-0.64984 l 83.180612,0 q 0.88924,0 1.53908,0.64984 0.64984,0.64984 0.64984,1.53909 z"/><path id="path4154" d="m 124.77795,946.46405 0,13.13382 q 0,0.88925 -0.64984,1.53909 -0.64984,0.64984 -1.53908,0.64984 l -83.180612,0 q -0.889337,0 -1.539177,-0.64984 -0.64984,-0.64984 -0.64984,-1.53909 l 0,-13.13382 q 0,-0.88925 0.64984,-1.53909 0.64984,-0.64984 1.539177,-0.64984 l 83.180612,0 q 0.88924,0 1.53908,0.64984 0.64984,0.64984 0.64984,1.53909 z" style="fill:url(#linearGradient850);fill-opacity:1"/></g><g id="g831" style="fill:#2caf45;fill-opacity:1"><circle id="path4148" cx="16.484" cy="953.031" r="11.093" style="fill:#2caf45;fill-opacity:1;fill-rule:evenodd;stroke:none;stroke-width:4;stroke-linecap:round;stroke-linejoin:round;stroke-miterlimit:4;stroke-dasharray:none;stroke-opacity:1"/><circle style="fill:#2caf45;fill-opacity:1;fill-rule:evenodd;stroke:none;stroke-width:4;stroke-linecap:round;stroke-linejoin:round;stroke-miterlimit:4;stroke-dasharray:none;stroke-opacity:1" id="circle4152" cx="16.484" cy="988.054" r="11.093"/><circle id="circle4156" cx="16.484" cy="1023.078" r="11.093" style="fill:#2caf45;fill-opacity:1;fill-rule:evenodd;stroke:none;stroke-width:4;stroke-linecap:round;stroke-linejoin:round;stroke-miterlimit:4;stroke-dasharray:none;stroke-opacity:1"/></g></g></svg>