<?xml version="1.0" encoding="UTF-8" standalone="no"?>
<!-- Created with Inkscape (http://www.inkscape.org/) -->

<svg
   xmlns:dc="http://purl.org/dc/elements/1.1/"
   xmlns:cc="http://creativecommons.org/ns#"
   xmlns:rdf="http://www.w3.org/1999/02/22-rdf-syntax-ns#"
   xmlns:svg="http://www.w3.org/2000/svg"
   xmlns="http://www.w3.org/2000/svg"
   xmlns:sodipodi="http://sodipodi.sourceforge.net/DTD/sodipodi-0.dtd"
   xmlns:inkscape="http://www.inkscape.org/namespaces/inkscape"
   width="128"
   height="128"
   viewBox="0 0 128 128"
   id="svg2"
   version="1.1"
   inkscape:version="0.92.4 5da689c313, 2019-01-14"
   sodipodi:docname="format-text-subscript.svg">
  <defs
     id="defs4" />
  <sodipodi:namedview
     id="base"
     pagecolor="#ffffff"
     bordercolor="#666666"
     borderopacity="1.0"
     inkscape:pageopacity="0.0"
     inkscape:pageshadow="2"
     inkscape:zoom="5.6"
     inkscape:cx="61.234372"
     inkscape:cy="36.681475"
     inkscape:document-units="px"
     inkscape:current-layer="layer1"
     showgrid="false"
     units="px"
     inkscape:window-width="2560"
     inkscape:window-height="1400"
     inkscape:window-x="0"
     inkscape:window-y="40"
     inkscape:window-maximized="0" />
  <metadata
     id="metadata7">
    <rdf:RDF>
      <cc:Work
         rdf:about="">
        <dc:format>image/svg+xml</dc:format>
        <dc:type
           rdf:resource="http://purl.org/dc/dcmitype/StillImage" />
        <dc:title />
        <dc:creator>
          <cc:Agent>
            <dc:title>Kovid Goyal</dc:title>
          </cc:Agent>
        </dc:creator>
        <dc:rights>
          <cc:Agent>
            <dc:title />
          </cc:Agent>
        </dc:rights>
        <dc:publisher>
          <cc:Agent>
            <dc:title />
          </cc:Agent>
        </dc:publisher>
        <cc:license
           rdf:resource="http://creativecommons.org/licenses/by-sa/3.0/" />
      </cc:Work>
      <cc:License
         rdf:about="http://creativecommons.org/licenses/by-sa/3.0/">
        <cc:permits
           rdf:resource="http://creativecommons.org/ns#Reproduction" />
        <cc:permits
           rdf:resource="http://creativecommons.org/ns#Distribution" />
        <cc:requires
           rdf:resource="http://creativecommons.org/ns#Notice" />
        <cc:requires
           rdf:resource="http://creativecommons.org/ns#Attribution" />
        <cc:permits
           rdf:resource="http://creativecommons.org/ns#DerivativeWorks" />
        <cc:requires
           rdf:resource="http://creativecommons.org/ns#ShareAlike" />
      </cc:License>
    </rdf:RDF>
  </metadata>
  <g
     inkscape:label="Layer 1"
     inkscape:groupmode="layer"
     id="layer1"
     transform="translate(0,-924.36216)">
    <path
       d="m 76.984807,1022.7464 0,13.7439 -20.41019,0 -13.08556,-20.7394 -1.97518,-3.4565 q -0.65839,-0.7407 -0.90529,-1.7283 l -0.2469,0 -0.74069,1.7283 q -0.82299,1.646 -2.05748,3.621 l -12.75637,20.5749 -21.2331803,0 0,-13.7439 10.5342903,0 16.21293,-23.94897 -15.22534,-22.3855 -11.2749803,0 0,-13.82615 22.7145603,0 11.43959,18.76415 q 0.16459,0.3292 1.89288,3.4566 0.65839,0.7406 0.90529,1.7282 l 0.24689,0 q 0.2469,-0.7407 0.90529,-1.7282 l 2.05748,-3.4566 11.52188,-18.76415 21.15089,0 0,13.82615 -10.2874,0 -15.14304,21.9739 16.78903,24.36057 8.9706,0 z"
       id="path4141"
       style="fill:#2271d5;fill-opacity:1"
       inkscape:connector-curvature="0" />
    <path
       d="m 126.43179,1035.247 0,16.9536 -42.301761,0 -0.3292,-2.2221 q -0.2469,-3.7034 -0.2469,-3.7857 0,-5.2672 2.13978,-9.629 2.13978,-4.3619 5.34945,-7.1189 3.20966,-2.757 6.91312,-5.3495 3.703471,-2.5924 6.913131,-4.4853 3.20967,-1.8928 5.34945,-4.4441 2.13978,-2.5513 2.13978,-5.2672 0,-3.1273 -2.42783,-5.1437 -2.42782,-2.0163 -5.80209,-2.0163 -4.197261,0 -7.983021,3.2097 -1.15219,0.9053 -2.96277,3.1273 l -8.64141,-7.5715 q 2.13978,-3.045 5.18485,-5.4317 6.58393,-5.3495 15.472241,-5.3495 9.05291,0 14.64925,4.8968 5.59634,4.8968 5.59634,13.0444 0,5.4318 -2.83932,9.7525 -2.83932,4.3207 -6.91313,7.0777 -4.07381,2.757 -8.18876,5.1437 -4.11496,2.3867 -7.16003,5.1849 -3.045071,2.7981 -3.374271,6.0078 l 19.093411,0 0,-6.5839 10.36969,0 z"
       id="path4"
       style="fill:#2caf45;fill-opacity:1"
       inkscape:connector-curvature="0" />
  </g>
</svg>
