<svg xmlns="http://www.w3.org/2000/svg" xmlns:svg="http://www.w3.org/2000/svg" xmlns:xlink="http://www.w3.org/1999/xlink" id="svg2" width="128" height="128" version="1.1" viewBox="0 0 128 128"><defs id="defs4"><linearGradient id="linearGradient4139"><stop style="stop-color:#557022;stop-opacity:1" id="stop4141" offset="0"/><stop style="stop-color:#95c43c;stop-opacity:1" id="stop4143" offset="1"/></linearGradient><linearGradient id="linearGradient4145" x1="25.761" x2="102.239" y1="988.362" y2="988.362" gradientTransform="matrix(-1,0,0,1,128,0)" gradientUnits="userSpaceOnUse" xlink:href="#linearGradient4139"/></defs><metadata id="metadata7"/><g id="layer1" transform="translate(0,-924.36216)"><path id="path4" d="m 27.163128,949.16301 39.199152,39.19915 -39.199152,39.19914 q -1.4026,1.4026 -1.4026,3.322 0,1.9193 1.4026,3.322 l 12.254352,12.2543 q 1.402606,1.4026 3.321962,1.4026 1.919356,0 3.321962,-1.4026 l 54.775456,-54.77548 q 1.40261,-1.4026 1.40261,-3.32196 0,-1.91935 -1.40261,-3.32196 L 46.061404,930.26474 q -1.402606,-1.40261 -3.321962,-1.40261 -1.919356,0 -3.321962,1.40261 l -12.254352,12.25435 q -1.4026,1.4026 -1.4026,3.32196 0,1.91935 1.4026,3.32196 z" style="fill:url(#linearGradient4145);fill-opacity:1"/></g></svg>