<svg xmlns="http://www.w3.org/2000/svg" xmlns:svg="http://www.w3.org/2000/svg" xmlns:xlink="http://www.w3.org/1999/xlink" id="svg2" width="136.533" height="136.533" version="1.1" viewBox="0 0 128 128"><defs id="defs4"><linearGradient id="linearGradient4492"><stop style="stop-color:#191579;stop-opacity:1" id="stop4488" offset="0"/><stop style="stop-color:#5989e3;stop-opacity:1" id="stop4490" offset="1"/></linearGradient><radialGradient id="radialGradient4494" cx="64" cy="988.362" r="54.909" fx="64" fy="988.362" gradientTransform="matrix(1,0,0,1.075641,0,-74.760718)" gradientUnits="userSpaceOnUse" xlink:href="#linearGradient4492"/></defs><metadata id="metadata7"/><g id="layer1" transform="translate(0,-924.36216)"><path id="path4" d="M 69.537107,929.29967 H 58.46289 a 7.3828109,7.3828109 0 0 0 -7.382811,7.38281 v 9.30234 a 44.296865,44.296865 0 0 0 -17.300388,10.00369 l -8.071871,-4.66346 a 7.3828109,7.3828109 0 0 0 -10.089842,2.70703 l -5.537108,9.59766 a 7.3828109,7.3828109 0 0 0 2.707031,10.08984 l 8.059569,4.65117 a 44.136904,44.136904 0 0 0 0,19.9951 l -8.059569,4.65115 a 7.3828109,7.3828109 0 0 0 -2.707031,10.0899 l 5.537108,9.5853 a 7.3828109,7.3828109 0 0 0 10.089842,2.707 l 8.071871,-4.6634 a 44.296865,44.296865 0 0 0 17.300388,10.0037 v 9.3024 a 7.3828109,7.3828109 0 0 0 7.382811,7.3828 h 11.074217 a 7.3828109,7.3828109 0 0 0 7.382812,-7.3828 v -9.3024 a 44.296865,44.296865 0 0 0 17.30039,-10.0037 l 8.071871,4.6634 a 7.3828109,7.3828109 0 0 0 10.08984,-2.707 l 5.53711,-9.5853 a 7.3828109,7.3828109 0 0 0 -2.70703,-10.0899 l -8.05957,-4.65114 a 44.136904,44.136904 0 0 0 0,-19.99511 l 8.05957,-4.65117 a 7.3828109,7.3828109 0 0 0 2.70703,-10.08984 l -5.53711,-9.58536 a 7.3828109,7.3828109 0 0 0 -10.08984,-2.70703 l -8.071871,4.66348 a 44.296865,44.296865 0 0 0 -17.30039,-10.01601 v -9.30234 a 7.3828109,7.3828109 0 0 0 -7.382812,-7.38281 z m 12.91992,59.06249 a 18.457027,18.457027 0 1 1 -18.457028,-18.45703 18.457027,18.457027 0 0 1 18.457028,18.45703 z" style="stroke-width:1.23046851;fill-opacity:1;fill:url(#radialGradient4494)"/></g></svg>