<svg xmlns="http://www.w3.org/2000/svg" xmlns:svg="http://www.w3.org/2000/svg" xmlns:xlink="http://www.w3.org/1999/xlink" id="svg18" x="0" y="0" fill="#000" version="1.1" viewBox="0 0 17 17"><metadata id="metadata24"/><defs id="defs22"><linearGradient id="linearGradient848"><stop style="stop-color:#0b59bd;stop-opacity:1" id="stop844" offset="0"/><stop style="stop-color:#b2cffa;stop-opacity:1" id="stop846" offset="1"/></linearGradient><linearGradient id="linearGradient850" x1="8.849" x2="8.497" y1="17.228" y2="-.06" gradientUnits="userSpaceOnUse" xlink:href="#linearGradient848"/></defs><g id="g842" style="fill-opacity:1;fill:url(#linearGradient850)"><path id="path2" d="M1.7866,6.5 L15.9196,6.5 C16.8236,6.5 17.1906,5.336 16.4496,4.818 L11.5146,1.363 C9.9166,0.244 7.7896,0.244 6.1916,1.363 L1.2566,4.818 C0.5156,5.336 0.8826,6.5 1.7866,6.5" style="fill-opacity:1;fill:url(#linearGradient850)"/><polygon id="polygon4" points="1.853 12.5 3.853 12.5 3.853 7.5 1.853 7.5" style="fill-opacity:1;fill:url(#linearGradient850)"/><polygon id="polygon6" points="4.853 12.5 6.853 12.5 6.853 7.5 4.853 7.5" style="fill-opacity:1;fill:url(#linearGradient850)"/><polygon id="polygon8" points="7.853 12.5 9.853 12.5 9.853 7.5 7.853 7.5" style="fill-opacity:1;fill:url(#linearGradient850)"/><polygon id="polygon10" points="10.853 12.5 12.853 12.5 12.853 7.5 10.853 7.5" style="fill-opacity:1;fill:url(#linearGradient850)"/><polygon id="polygon12" points="13.853 12.5 15.853 12.5 15.853 7.5 13.853 7.5" style="fill-opacity:1;fill:url(#linearGradient850)"/><polygon id="polygon14" points=".853 16.5 16.853 16.5 16.853 15.5 .853 15.5" style="fill-opacity:1;fill:url(#linearGradient850)"/><polygon id="polygon16" points="1.853 14.5 15.853 14.5 15.853 13.5 1.853 13.5" style="fill-opacity:1;fill:url(#linearGradient850)"/></g></svg>