<svg xmlns="http://www.w3.org/2000/svg" xmlns:svg="http://www.w3.org/2000/svg" id="svg2" width="128" height="128" version="1.1" viewBox="0 0 128 128"><defs id="defs4"><linearGradient id="linearGradient-1" x1="1.321" x2="211.764" y1="127.762" y2="127.762" gradientTransform="scale(1.2033273,0.83102911)" gradientUnits="userSpaceOnUse"><stop id="stop7" offset="0%" stop-color="#000" stop-opacity=".1"/><stop id="stop9" offset="100%" stop-color="#000" stop-opacity=".2"/></linearGradient></defs><metadata id="metadata7"/><g id="layer1" transform="translate(0,-924.36216)"><g id="g11" transform="matrix(0.49436968,0,0,0.49529922,0.89359178,940.36216)"><path id="path13" d="m 238.83392,193.59501 -222.679701,0 c -8.6345186,0 -15.90569255,-7.04395 -15.90569255,-15.9057 l 0,-160.87472 c 0,-8.6345193 7.04394975,-15.90569325 15.90569255,-15.90569325 l 222.679701,0 c 8.63452,0 15.9057,7.04394975 15.9057,15.90569325 l 0,160.87472 c 0,8.86175 -7.04395,15.9057 -15.9057,15.9057 l 0,0 z" style="fill:#e3e3e3"/><path id="path15" d="m 32.059913,193.59501 95.206937,-76.57455 0.68167,-4.09004 -98.160849,-70.666721 -0.227224,147.922941 2.499466,3.40837 z" style="opacity:.1;fill:#231f20"/><path id="path17" d="m 16.154219,193.59501 c -8.8617428,0 -15.90569255,-7.04395 -15.90569255,-15.9057 l 0,-161.101944 c 0,-8.8617436 7.04394975,-10.452313 15.90569255,-10.452313 8.861744,0 15.905694,1.8177935 15.905694,10.452313 l 0,177.007644 -15.905694,0 0,0 z" style="fill:#d54b3d"/><path id="path19" d="m 16.154219,8.4072949 c 11.36121,0 13.633452,3.4083631 13.633452,8.1800711 l 0,174.735394 -13.633452,0 c -7.4983976,0 -13.6334507,-6.13505 -13.6334507,-13.63345 l 0,-161.101944 c 0,-4.998932 2.2722419,-8.1800711 13.6334507,-8.1800711 l 0,0 z m 0,-2.2722419 c -8.8617428,0 -15.90569255,1.8177935 -15.90569255,10.452313 l 0,161.101944 c 0,8.86175 7.04394975,15.9057 15.90569255,15.9057 l 15.905694,0 0,-177.007644 c 0,-8.8617436 -7.04395,-10.452313 -15.905694,-10.452313 l 0,0 0,0 z" style="fill:#d72b27"/><path id="path21" d="m 238.83392,193.59501 -15.90569,0 0,-177.462093 c 0,-8.861743 7.04395,-9.997864 15.90569,-9.997864 8.86175,0 15.9057,1.136121 15.9057,9.997864 l 0,161.783623 c 0,8.63452 -7.04395,15.67847 -15.9057,15.67847 l 0,0 z" style="fill:#d54b3d"/><path id="path23" d="m 238.83392,8.4072949 c 10.22509,0 13.63345,2.0450181 13.63345,7.7256221 l 0,161.783623 c 0,7.4984 -6.13505,13.63345 -13.63345,13.63345 l -13.63345,0 0,-175.417073 c 0,-5.907829 3.40836,-7.7256221 13.63345,-7.7256221 l 0,0 z m 0,-2.2722419 c -8.86174,0 -15.90569,1.136121 -15.90569,9.997864 l 0,177.689313 15.90569,0 c 8.86175,0 15.9057,-7.04395 15.9057,-15.90569 l 0,-161.783623 c 0,-8.861743 -7.04395,-9.997864 -15.9057,-9.997864 l 0,0 0,0 z" style="fill:#d72b27"/><path id="path25" d="M 170.66667,193.59501 1.5797991,23.194754 l 8.8938159,3.6177 117.702125,84.754626 126.56388,-92.806617 0,159.156077 c 0,8.63452 -7.04395,15.67847 -15.9057,15.67847 l -68.16725,0 z" style="fill:url(#linearGradient-1)"/><path id="path27" d="M 127.26685,117.02046 7.0652521,29.766368 C 0.02130227,24.540212 -2.0237154,14.542348 3.2024409,7.4983982 8.4285972,0.45444837 18.653686,-1.1361209 25.92486,4.0900354 L 127.49407,77.937896 229.74495,3.1811386 c 7.04395,-5.2261563 17.04182,-3.63558697 22.26798,3.635587 5.22615,7.0439494 3.63558,17.0418144 -3.63559,22.2679704 l -121.11049,87.935764 0,0 z" style="fill:#d54b3d"/><path id="path29" d="m 238.83392,2.2722419 0,0 c 4.31726,0 8.4073,2.0450176 11.13399,5.6806046 4.31726,6.1350535 2.95391,14.5423475 -2.95392,19.0868315 L 127.26685,114.29377 8.4285972,27.948575 C 2.2935441,23.404091 0.70297483,14.769572 5.0202344,8.8617433 7.5197004,5.4533805 11.83696,3.1811386 16.381444,3.1811386 c 2.953914,0 5.907829,0.9088968 8.18007,2.7266903 L 125.9035,79.528465 l 1.36335,0.908897 1.36334,-0.908897 102.02366,-74.7567571 c 2.49947,-1.5905693 5.22616,-2.499466 8.18007,-2.499466 l 0,0 z M 238.83392,0 c -3.18114,0 -6.5895,0.90889675 -9.31619,2.9539144 L 127.26685,77.710672 25.697635,3.8628112 C 22.970945,1.8177935 19.562582,0.90889675 16.154219,0.90889675 11.155287,0.90889675 6.1563553,3.1811386 2.9752167,7.4983982 -2.0237154,14.542348 0.02130227,24.540212 7.0652521,29.766368 L 127.26685,117.24768 248.15011,29.084696 C 255.19406,23.85854 256.78463,14.0879 251.7857,6.8167256 248.60456,2.2722419 243.83285,0 238.83392,0 l 0,0 0,0 z" style="fill:#d72b27"/></g></g></svg>