<svg xmlns="http://www.w3.org/2000/svg" width="128" height="128" viewBox="0 0 128 128"><defs><linearGradient x1="1.321" y1="127.762" x2="211.764" y2="127.762" id="a" gradientTransform="scale(1.203 .831)" gradientUnits="userSpaceOnUse"><stop stop-opacity=".1" offset="0%"/><stop stop-opacity=".2" offset="100%"/></linearGradient></defs><path d="M118.878 111.83h-110.004c-4.265 0-7.857-3.487-7.857-7.873v-79.633c0-4.274 3.48-7.873 7.857-7.873h110.004c4.265 0 7.857 3.487 7.857 7.873v79.633c0 4.387-3.48 7.873-7.857 7.873z" fill="#e3e3e3"/><path d="M16.732 111.83l47.032-37.904.337-2.025-48.491-34.98-.112 73.222 1.235 1.687z" opacity=".1" fill="#231f20"/><path d="M8.874 111.83c-4.378 0-7.857-3.487-7.857-7.873v-79.745c0-4.387 3.48-5.174 7.857-5.174 4.378 0 7.857.9 7.857 5.174v87.619h-7.857z" fill="#d54b3d"/><path d="M8.874 20.162c5.612 0 6.735 1.687 6.735 4.049v86.494h-6.735c-3.704 0-6.735-3.037-6.735-6.749v-79.745c0-2.474 1.122-4.049 6.735-4.049zm0-1.125c-4.378 0-7.857.9-7.857 5.174v79.745c0 4.387 3.48 7.873 7.857 7.873h7.857v-87.619c0-4.387-3.48-5.174-7.857-5.174z" fill="#d72b27"/><path d="M118.878 111.83h-7.857v-87.844c0-4.387 3.48-4.949 7.857-4.949 4.378 0 7.857.562 7.857 4.949v80.083c0 4.274-3.48 7.761-7.857 7.761z" fill="#d54b3d"/><path d="M118.878 20.162c5.051 0 6.735 1.012 6.735 3.824v80.083c0 3.712-3.031 6.749-6.735 6.749h-6.735v-86.831c0-2.924 1.684-3.824 6.735-3.824zm0-1.125c-4.378 0-7.857.562-7.857 4.949v87.956h7.857c4.378 0 7.857-3.487 7.857-7.873v-80.083c0-4.387-3.48-4.949-7.857-4.949z" fill="#d72b27"/><path d="M85.203 111.83l-83.529-84.348 4.394 1.791 58.145 41.954 62.523-45.939v78.782c0 4.274-3.48 7.761-7.857 7.761h-33.675z" fill="url(#a)"/><path d="M63.764 73.925l-59.38-43.191c-3.48-2.587-4.49-7.536-1.908-11.023 2.582-3.487 7.633-4.274 11.225-1.687l50.175 36.555 50.512-37.005c3.48-2.587 8.419-1.8 11 1.8 2.582 3.487 1.796 8.436-1.796 11.023l-59.829 43.528z" fill="#d54b3d"/><path d="M118.878 17.125c2.133 0 4.153 1.012 5.5 2.812 2.133 3.037 1.459 7.198-1.459 9.448l-59.155 43.191-58.706-42.741c-3.031-2.25-3.816-6.524-1.684-9.448 1.235-1.687 3.367-2.812 5.612-2.812 1.459 0 2.918.45 4.041 1.35l50.063 36.442.673.45.673-.45 50.4-37.005c1.235-.787 2.582-1.237 4.041-1.237zm0-1.125c-1.571 0-3.255.45-4.602 1.462l-50.512 37.005-50.175-36.555c-1.347-1.012-3.031-1.462-4.714-1.462-2.469 0-4.939 1.125-6.51 3.262-2.469 3.487-1.459 8.436 2.02 11.023l59.38 43.303 59.716-43.641c3.48-2.587 4.265-7.423 1.796-11.023-1.571-2.25-3.929-3.374-6.398-3.374z" fill="#d72b27"/></svg>