<svg xmlns="http://www.w3.org/2000/svg" xmlns:svg="http://www.w3.org/2000/svg" xmlns:xlink="http://www.w3.org/1999/xlink" id="svg2" width="128" height="128" version="1.1" viewBox="0 0 128 128"><defs id="defs4"><linearGradient id="linearGradient4134"><stop style="stop-color:#b2cffa;stop-opacity:1" id="stop4136" offset="0"/><stop style="stop-color:#0b59bd;stop-opacity:1" id="stop4138" offset="1"/></linearGradient><radialGradient id="radialGradient4140" cx="64" cy="988.362" r="63" fx="64" fy="988.362" gradientTransform="matrix(1.3784014,-4.7921505e-8,4.1269844e-8,1.1870748,-24.217728,-184.89802)" gradientUnits="userSpaceOnUse" xlink:href="#linearGradient4134"/></defs><metadata id="metadata7"/><g id="layer1" transform="translate(0,-924.36216)"><path id="path4" d="m 1.000002,952.94098 0,-20.52073 c 0,-3.92117 3.130435,-7.05809 7.043479,-7.05809 l 20.608696,0 c 3.913044,0 7.043479,3.13692 7.043479,7.05809 l 0,20.65143 c 0,3.92117 -3.130435,7.05809 -7.043479,7.05809 l -20.478262,0 c -3.913043,0 -7.173913,-3.26763 -7.173913,-7.18879 z m 98.347826,7.18879 20.608702,0 c 3.91304,0 7.04347,-3.13692 7.04347,-7.05809 l 0,-20.65143 c 0,-3.92117 -3.13043,-7.05809 -7.04347,-7.05809 l -20.608702,0 c -3.91304,0 -7.04347,3.13692 -7.04347,7.05809 l 0,20.65143 c -0.13044,3.79046 3.13043,7.05809 7.04347,7.05809 z m -45.652172,0 20.608697,0 c 3.913045,0 7.043475,-3.13692 7.043475,-7.05809 l 0,-20.65143 c 0,-3.92117 -3.13043,-7.05809 -7.043475,-7.05809 l -20.608697,0 c -3.913043,0 -7.043478,3.13692 -7.043478,7.05809 l 0,20.65143 c 0,3.79046 3.130435,7.05809 7.043478,7.05809 z m -7.043478,38.29669 c 0,3.92124 3.130435,7.05814 7.043478,7.05814 l 20.608697,0 c 3.913045,0 7.043475,-3.1369 7.043475,-7.05814 l 0,-20.6514 c 0,-3.92122 -3.13043,-7.05815 -7.043475,-7.05815 l -20.608697,0 c -3.913043,0 -7.043478,3.13693 -7.043478,7.05815 l 0,20.6514 z m 0,45.87764 c 0,3.9212 3.130435,7.0581 7.043478,7.0581 l 20.608697,0 c 3.913045,0 7.043475,-3.1369 7.043475,-7.0581 l 0,-20.5207 c 0,-3.9212 -3.13043,-7.0581 -7.043475,-7.0581 l -20.608697,0 c -3.913043,0 -7.043478,3.1369 -7.043478,7.0581 l 0,20.5207 z m 73.173912,-27.7096 -20.478262,0 c -3.91304,0 -7.04347,3.137 -7.04347,7.0581 l 0,20.6515 c 0,3.9212 3.13043,7.0581 7.04347,7.0581 l 20.608702,0 c 3.91304,0 7.04347,-3.1369 7.04347,-7.0581 l 0,-20.5207 c 0,-3.9212 -3.26087,-7.1889 -7.17391,-7.1889 z m 0,-45.61618 -20.478262,0 c -3.91304,0 -7.04347,3.13693 -7.04347,7.05815 l 0,20.65149 c 0,3.92114 3.13043,7.05814 7.04347,7.05814 l 20.608702,0 c 3.91304,0 7.04347,-3.137 7.04347,-7.05814 l 0,-20.65149 c 0,-3.92122 -3.26087,-7.05815 -7.17391,-7.05815 z M 1.000002,1044.3041 c 0,3.9212 3.130435,7.0581 7.043479,7.0581 l 20.608696,0 c 3.913044,0 7.043479,-3.1369 7.043479,-7.0581 l 0,-20.5207 c 0,-3.9212 -3.130435,-7.0581 -7.043479,-7.0581 l -20.478262,0 c -3.913043,0 -7.043478,3.1369 -7.043478,7.0581 l 0,20.5207 z m 0,-45.61614 c 0,3.92114 3.130435,7.05814 7.043479,7.05814 l 20.608696,0 c 3.913044,0 7.043479,-3.137 7.043479,-7.05814 l 0,-20.65149 c 0,-3.92122 -3.130435,-7.05815 -7.043479,-7.05815 l -20.478262,0 c -3.913043,0 -7.043478,3.13693 -7.043478,7.05815 l 0,20.65149 z" style="fill-opacity:1;fill:url(#radialGradient4140)"/></g></svg>