<svg xmlns="http://www.w3.org/2000/svg" xmlns:xlink="http://www.w3.org/1999/xlink" width="128" height="128" viewBox="0 0 128 128"><defs><linearGradient id="a"><stop offset="0" stop-color="#0d5cc6"/><stop offset="1" stop-color="#020e1e"/></linearGradient><radialGradient xlink:href="#a" id="b" cx="64" cy="988.362" fx="64" fy="988.362" r="63" gradientTransform="matrix(1.378 0 0 1.187 -24.218 -184.898)" gradientUnits="userSpaceOnUse"/></defs><path d="M1 28.579v-20.521c0-3.921 3.13-7.058 7.043-7.058h20.609c3.913 0 7.043 3.137 7.043 7.058v20.651c0 3.921-3.13 7.058-7.043 7.058h-20.478c-3.913 0-7.174-3.268-7.174-7.189zm98.348 7.189h20.609c3.913 0 7.043-3.137 7.043-7.058v-20.651c0-3.921-3.13-7.058-7.043-7.058h-20.609c-3.913 0-7.043 3.137-7.043 7.058v20.651c-.13 3.79 3.13 7.058 7.043 7.058zm-45.652 0h20.609c3.913 0 7.043-3.137 7.043-7.058v-20.651c0-3.921-3.13-7.058-7.043-7.058h-20.609c-3.913 0-7.043 3.137-7.043 7.058v20.651c0 3.79 3.13 7.058 7.043 7.058zm-7.043 38.297c0 3.921 3.13 7.058 7.043 7.058h20.609c3.913 0 7.043-3.137 7.043-7.058v-20.651c0-3.921-3.13-7.058-7.043-7.058h-20.609c-3.913 0-7.043 3.137-7.043 7.058v20.651zm0 45.878c0 3.921 3.13 7.058 7.043 7.058h20.609c3.913 0 7.043-3.137 7.043-7.058v-20.521c0-3.921-3.13-7.058-7.043-7.058h-20.609c-3.913 0-7.043 3.137-7.043 7.058v20.521zm73.174-27.71h-20.478c-3.913 0-7.043 3.137-7.043 7.058v20.651c0 3.921 3.13 7.058 7.043 7.058h20.609c3.913 0 7.043-3.137 7.043-7.058v-20.521c0-3.921-3.261-7.189-7.174-7.189zm0-45.616h-20.478c-3.913 0-7.043 3.137-7.043 7.058v20.651c0 3.921 3.13 7.058 7.043 7.058h20.609c3.913 0 7.043-3.137 7.043-7.058v-20.651c0-3.921-3.261-7.058-7.174-7.058zm-118.826 73.326c0 3.921 3.13 7.058 7.043 7.058h20.609c3.913 0 7.043-3.137 7.043-7.058v-20.521c0-3.921-3.13-7.058-7.043-7.058h-20.478c-3.913 0-7.043 3.137-7.043 7.058v20.521zm0-45.616c0 3.921 3.13 7.058 7.043 7.058h20.609c3.913 0 7.043-3.137 7.043-7.058v-20.651c0-3.921-3.13-7.058-7.043-7.058h-20.478c-3.913 0-7.043 3.137-7.043 7.058v20.651z" fill="url(#b)"/></svg>