<?xml version="1.0" encoding="UTF-8" standalone="no"?>
<!-- Created with Inkscape (http://www.inkscape.org/) -->

<svg
   xmlns:dc="http://purl.org/dc/elements/1.1/"
   xmlns:cc="http://creativecommons.org/ns#"
   xmlns:rdf="http://www.w3.org/1999/02/22-rdf-syntax-ns#"
   xmlns:svg="http://www.w3.org/2000/svg"
   xmlns="http://www.w3.org/2000/svg"
   xmlns:xlink="http://www.w3.org/1999/xlink"
   xmlns:sodipodi="http://sodipodi.sourceforge.net/DTD/sodipodi-0.dtd"
   xmlns:inkscape="http://www.inkscape.org/namespaces/inkscape"
   width="128"
   height="128"
   viewBox="0 0 128 128"
   id="svg2"
   version="1.1"
   inkscape:version="0.92.4 5da689c313, 2019-01-14"
   sodipodi:docname="grid.svg">
  <defs
     id="defs4">
    <linearGradient
       inkscape:collect="always"
       id="linearGradient4134">
      <stop
         style="stop-color:#b2cffa;stop-opacity:1"
         offset="0"
         id="stop4136" />
      <stop
         style="stop-color:#0b59bd;stop-opacity:1"
         offset="1"
         id="stop4138" />
    </linearGradient>
    <radialGradient
       inkscape:collect="always"
       xlink:href="#linearGradient4134"
       id="radialGradient4140"
       cx="64"
       cy="988.36218"
       fx="64"
       fy="988.36218"
       r="62.999999"
       gradientTransform="matrix(1.3784014,-4.7921505e-8,4.1269844e-8,1.1870748,-24.217728,-184.89802)"
       gradientUnits="userSpaceOnUse" />
  </defs>
  <sodipodi:namedview
     id="base"
     pagecolor="#ffffff"
     bordercolor="#666666"
     borderopacity="1.0"
     inkscape:pageopacity="0.0"
     inkscape:pageshadow="2"
     inkscape:zoom="7.919596"
     inkscape:cx="49.38296"
     inkscape:cy="69.707741"
     inkscape:document-units="px"
     inkscape:current-layer="layer1"
     showgrid="false"
     units="px"
     inkscape:window-width="2560"
     inkscape:window-height="1400"
     inkscape:window-x="0"
     inkscape:window-y="40"
     inkscape:window-maximized="0" />
  <metadata
     id="metadata7">
    <rdf:RDF>
      <cc:Work
         rdf:about="">
        <dc:format>image/svg+xml</dc:format>
        <dc:type
           rdf:resource="http://purl.org/dc/dcmitype/StillImage" />
        <dc:title />
        <dc:creator>
          <cc:Agent>
            <dc:title>Kovid Goyal</dc:title>
          </cc:Agent>
        </dc:creator>
        <dc:rights>
          <cc:Agent>
            <dc:title />
          </cc:Agent>
        </dc:rights>
        <dc:publisher>
          <cc:Agent>
            <dc:title />
          </cc:Agent>
        </dc:publisher>
        <cc:license
           rdf:resource="http://creativecommons.org/licenses/by-sa/3.0/" />
      </cc:Work>
      <cc:License
         rdf:about="http://creativecommons.org/licenses/by-sa/3.0/">
        <cc:permits
           rdf:resource="http://creativecommons.org/ns#Reproduction" />
        <cc:permits
           rdf:resource="http://creativecommons.org/ns#Distribution" />
        <cc:requires
           rdf:resource="http://creativecommons.org/ns#Notice" />
        <cc:requires
           rdf:resource="http://creativecommons.org/ns#Attribution" />
        <cc:permits
           rdf:resource="http://creativecommons.org/ns#DerivativeWorks" />
        <cc:requires
           rdf:resource="http://creativecommons.org/ns#ShareAlike" />
      </cc:License>
    </rdf:RDF>
  </metadata>
  <g
     inkscape:label="Layer 1"
     inkscape:groupmode="layer"
     id="layer1"
     transform="translate(0,-924.36216)">
    <path
       inkscape:connector-curvature="0"
       d="m 1.000002,952.94098 0,-20.52073 c 0,-3.92117 3.130435,-7.05809 7.043479,-7.05809 l 20.608696,0 c 3.913044,0 7.043479,3.13692 7.043479,7.05809 l 0,20.65143 c 0,3.92117 -3.130435,7.05809 -7.043479,7.05809 l -20.478262,0 c -3.913043,0 -7.173913,-3.26763 -7.173913,-7.18879 z m 98.347826,7.18879 20.608702,0 c 3.91304,0 7.04347,-3.13692 7.04347,-7.05809 l 0,-20.65143 c 0,-3.92117 -3.13043,-7.05809 -7.04347,-7.05809 l -20.608702,0 c -3.91304,0 -7.04347,3.13692 -7.04347,7.05809 l 0,20.65143 c -0.13044,3.79046 3.13043,7.05809 7.04347,7.05809 z m -45.652172,0 20.608697,0 c 3.913045,0 7.043475,-3.13692 7.043475,-7.05809 l 0,-20.65143 c 0,-3.92117 -3.13043,-7.05809 -7.043475,-7.05809 l -20.608697,0 c -3.913043,0 -7.043478,3.13692 -7.043478,7.05809 l 0,20.65143 c 0,3.79046 3.130435,7.05809 7.043478,7.05809 z m -7.043478,38.29669 c 0,3.92124 3.130435,7.05814 7.043478,7.05814 l 20.608697,0 c 3.913045,0 7.043475,-3.1369 7.043475,-7.05814 l 0,-20.6514 c 0,-3.92122 -3.13043,-7.05815 -7.043475,-7.05815 l -20.608697,0 c -3.913043,0 -7.043478,3.13693 -7.043478,7.05815 l 0,20.6514 z m 0,45.87764 c 0,3.9212 3.130435,7.0581 7.043478,7.0581 l 20.608697,0 c 3.913045,0 7.043475,-3.1369 7.043475,-7.0581 l 0,-20.5207 c 0,-3.9212 -3.13043,-7.0581 -7.043475,-7.0581 l -20.608697,0 c -3.913043,0 -7.043478,3.1369 -7.043478,7.0581 l 0,20.5207 z m 73.173912,-27.7096 -20.478262,0 c -3.91304,0 -7.04347,3.137 -7.04347,7.0581 l 0,20.6515 c 0,3.9212 3.13043,7.0581 7.04347,7.0581 l 20.608702,0 c 3.91304,0 7.04347,-3.1369 7.04347,-7.0581 l 0,-20.5207 c 0,-3.9212 -3.26087,-7.1889 -7.17391,-7.1889 z m 0,-45.61618 -20.478262,0 c -3.91304,0 -7.04347,3.13693 -7.04347,7.05815 l 0,20.65149 c 0,3.92114 3.13043,7.05814 7.04347,7.05814 l 20.608702,0 c 3.91304,0 7.04347,-3.137 7.04347,-7.05814 l 0,-20.65149 c 0,-3.92122 -3.26087,-7.05815 -7.17391,-7.05815 z M 1.000002,1044.3041 c 0,3.9212 3.130435,7.0581 7.043479,7.0581 l 20.608696,0 c 3.913044,0 7.043479,-3.1369 7.043479,-7.0581 l 0,-20.5207 c 0,-3.9212 -3.130435,-7.0581 -7.043479,-7.0581 l -20.478262,0 c -3.913043,0 -7.043478,3.1369 -7.043478,7.0581 l 0,20.5207 z m 0,-45.61614 c 0,3.92114 3.130435,7.05814 7.043479,7.05814 l 20.608696,0 c 3.913044,0 7.043479,-3.137 7.043479,-7.05814 l 0,-20.65149 c 0,-3.92122 -3.130435,-7.05815 -7.043479,-7.05815 l -20.478262,0 c -3.913043,0 -7.043478,3.13693 -7.043478,7.05815 l 0,20.65149 z"
       id="path4"
       style="fill-opacity:1;fill:url(#radialGradient4140)" />
  </g>
</svg>
