<svg xmlns="http://www.w3.org/2000/svg" xmlns:svg="http://www.w3.org/2000/svg" xmlns:xlink="http://www.w3.org/1999/xlink" id="svg2" width="128" height="128" version="1.1" viewBox="0 0 128 128"><defs id="defs4"><linearGradient id="linearGradient4151"><stop style="stop-color:#ffeef9;stop-opacity:0" id="stop4153" offset="0"/><stop id="stop4159" offset=".567" style="stop-color:#ffeef9;stop-opacity:0"/><stop style="stop-color:#bfbfbf;stop-opacity:1" id="stop4161" offset=".594"/><stop id="stop4163" offset=".617" style="stop-color:#fefefe;stop-opacity:1"/><stop style="stop-color:#ddd;stop-opacity:1" id="stop4155" offset="1"/></linearGradient><radialGradient id="radialGradient4157" cx="64" cy="988.362" r="63" fx="64" fy="988.362" gradientTransform="translate(0,-6.1576531e-4)" gradientUnits="userSpaceOnUse" xlink:href="#linearGradient4151"/></defs><metadata id="metadata7"/><g id="layer1" transform="translate(0,-924.36216)"><path id="path4149" d="m 64.001392,925.36212 c -34.738194,0 -63.0013935,28.26319 -63.0013935,62.99995 0,34.73823 28.2631995,63.00013 63.0013935,63.00013 34.73681,0 62.998608,-28.2619 62.998608,-63.00013 0,-34.73815 -28.261798,-62.99995 -62.998609,-62.99995 z" style="fill:url(#radialGradient4157);fill-opacity:1"/><path id="path4147" d="m 87.328202,932.04151 c 14.883398,6.188 26.804398,18.10901 32.990998,32.99239 l -21.025198,8.7094 c -3.8794,-9.3282 -11.3456,-16.79719 -20.67661,-20.67519 l 8.71081,-21.0266 z" style="fill:#f0983c;fill-opacity:1"/><path id="path4145" d="m 40.671797,932.04251 8.7094,21.02521 c -9.326799,3.8794 -16.7958,11.34699 -20.6752,20.67519 L 7.6807985,965.0335 C 13.868798,950.15012 25.788398,938.23051 40.671797,932.04251 Z" style="fill:#f0983c;fill-opacity:1"/><path id="path4143" d="m 40.671797,1044.6824 c -14.8848,-6.188 -26.804399,-18.1091 -32.9923985,-32.9925 l 21.0265985,-8.7094 c 3.878,9.3268 11.347,16.7972 20.675199,20.6766 l -8.709399,21.0253 z" style="fill:#f0983c;fill-opacity:1"/><path id="path4" d="m 87.328201,1044.6824 -8.71081,-21.0267 c 9.32961,-3.8794 16.797211,-11.3456 20.676611,-20.6766 l 21.026598,8.7094 c -6.188,14.8848 -18.1076,26.8059 -32.992398,32.9939 z" style="fill:#f0983c;fill-opacity:1"/></g></svg>