<svg xmlns="http://www.w3.org/2000/svg" xmlns:xlink="http://www.w3.org/1999/xlink" width="128" height="128" viewBox="0 0 128 128"><defs><linearGradient id="a"><stop offset="0" stop-color="#ffeef9" stop-opacity="0"/><stop offset=".567" stop-color="#ffeef9" stop-opacity="0"/><stop offset=".594" stop-color="#bfbfbf"/><stop offset=".617" stop-color="#fefefe"/><stop offset="1" stop-color="#ddd"/></linearGradient><radialGradient xlink:href="#a" id="b" cx="64" cy="988.362" fx="64" fy="988.362" r="63" gradientTransform="translate(0 -.001)" gradientUnits="userSpaceOnUse"/></defs><path d="M64.001 1c-34.738 0-63.001 28.263-63.001 63 0 34.738 28.263 63 63.001 63 34.737 0 62.999-28.262 62.999-63s-28.262-63-62.999-63z" fill="url(#b)"/><path d="M87.328 7.679c14.883 6.188 26.804 18.109 32.991 32.992l-21.025 8.709c-3.879-9.328-11.346-16.797-20.677-20.675l8.711-21.027zm-46.656.001l8.709 21.025c-9.327 3.879-16.796 11.347-20.675 20.675l-21.025-8.709c6.188-14.883 18.108-26.803 32.991-32.991zm0 112.64c-14.885-6.188-26.804-18.109-32.992-32.992l21.027-8.709c3.878 9.327 11.347 16.797 20.675 20.677l-8.709 21.025zm46.656 0l-8.711-21.027c9.33-3.879 16.797-11.346 20.677-20.677l21.027 8.709c-6.188 14.885-18.108 26.806-32.992 32.994z" fill="#f0983c"/></svg>