<svg xmlns="http://www.w3.org/2000/svg" xmlns:xlink="http://www.w3.org/1999/xlink" width="128" height="128" viewBox="0 0 128 128"><defs><linearGradient id="a"><stop offset="0" stop-color="#e38b3d"/><stop offset="1" stop-color="#844813"/></linearGradient><radialGradient xlink:href="#a" id="b" cx="64" cy="998.362" fx="64" fy="998.362" r="35" gradientTransform="matrix(1 0 0 1.086 0 -85.574)" gradientUnits="userSpaceOnUse"/></defs><path d="M62.278 53.475l-18.416 21.128 21.858 19.922 18.416-21.128z" fill="#f03f01"/><path d="M20 956.362c-1.949.01-3.013 1.69-3 3v86c0 1.571 1.429 3 3 3h60c1.571 0 3-1.429 3-3v-70c.002-.786-.32-1.568-.875-2.125l-16-16c-.557-.555-1.339-.877-2.125-.875h-44zm3 6h38v13a3 3 0 0 0 3 3h13v64h-54v-80zm44 4.219l5.781 5.781h-5.781v-5.781z" style="text-indent:0;text-transform:none;block-progression:tb" overflow="visible" color="#000" enable-background="accumulate" transform="matrix(1.394 0 0 1.37 -5.697 -1308.8)" fill="#3027dd"/><path d="M64.41 51.031l10.654-12.224c3.014-3.458 8.245-3.764 11.627-.683l9.564 8.716c3.381 3.081 3.682 8.431.669 11.888l-10.655 12.223-21.858-19.92zm-.82 45.938l-10.655 12.223c-3.014 3.458-8.245 3.766-11.626.684l-9.564-8.716c-3.381-3.081-3.682-8.43-.668-11.889l10.654-12.222 21.858 19.92zm-1.312-43.494l-18.416 21.128 21.858 19.922 18.416-21.128-21.858-19.921zm-10.66 23.027c-.897-.817-.976-2.224-.176-3.14.799-.917 2.174-.998 3.071-.18.897.817.976 2.223.177 3.14-.8.916-2.175.998-3.073.181m5.25-6.023c-.897-.817-.976-2.223-.177-3.14.799-.918 2.175-.998 3.071-.181.896.817.976 2.224.176 3.14-.799.918-2.174.999-3.07.181m5.249-6.022c-.897-.816-.976-2.223-.177-3.14.8-.917 2.175-.998 3.072-.18.897.817.976 2.223.177 3.14-.8.917-2.174.997-3.072.18m-4.816 17.226c-.897-.817-.976-2.223-.176-3.14.799-.917 2.174-.998 3.071-.181.896.817.975 2.223.177 3.142-.799.915-2.174.997-3.072.179m5.25-6.022c-.897-.817-.976-2.224-.177-3.141.799-.917 2.175-.999 3.072-.181.897.818.976 2.223.176 3.14-.799.917-2.174.999-3.071.181m5.249-6.023c-.897-.818-.975-2.223-.176-3.141.799-.916 2.174-.997 3.072-.181.897.818.976 2.224.176 3.142-.799.915-2.174.997-3.072.18m-4.815 17.224c-.896-.817-.976-2.222-.176-3.139.799-.919 2.174-.999 3.072-.181.896.816.975 2.223.176 3.139-.799.918-2.174.999-3.072.181m5.249-6.022c-.897-.817-.976-2.223-.176-3.14.799-.917 2.174-.998 3.07-.181.898.817.977 2.223.177 3.14-.8.917-2.174.998-3.071.18m5.249-6.023c-.897-.817-.976-2.223-.177-3.14.8-.918 2.175-.999 3.072-.181.897.818.976 2.224.177 3.14-.8.919-2.174.999-3.072.181" fill="url(#b)"/></svg>