<svg xmlns="http://www.w3.org/2000/svg" xmlns:svg="http://www.w3.org/2000/svg" xmlns:xlink="http://www.w3.org/1999/xlink" id="svg2" width="128" height="128" version="1.1" viewBox="0 0 128 128"><defs id="defs4"><linearGradient id="linearGradient4168"><stop style="stop-color:#e38b3d;stop-opacity:1" id="stop4170" offset="0"/><stop style="stop-color:#844813;stop-opacity:1" id="stop4172" offset="1"/></linearGradient><radialGradient id="radialGradient4174" cx="64" cy="998.362" r="35" fx="64" fy="998.362" gradientTransform="matrix(1,0,0,1.0857144,0,-85.573966)" gradientUnits="userSpaceOnUse" xlink:href="#linearGradient4168"/></defs><metadata id="metadata7"/><g id="layer1" transform="translate(0,-924.36216)"><path id="path4155" d="m 62.278392,977.8376 -18.416287,21.1275 21.858304,19.9216 18.415523,-21.12828 z" style="fill:#f03f01;fill-opacity:1"/><g id="g4" transform="matrix(1.3939367,0,0,1.3695651,-5.6968353,-384.43812)" style="fill:#2271d5;fill-opacity:1"><path style="color:#000;text-indent:0;text-transform:none;direction:ltr;block-progression:tb;baseline-shift:baseline;display:inline;overflow:visible;visibility:visible;fill:#2271d5;fill-opacity:1;fill-rule:nonzero;stroke:none;marker:none;enable-background:accumulate" id="path6" d="m 20.000054,956.3622 c -1.94862,0.01 -3.01295,1.69 -3,3 l 0,86 c 1.6e-4,1.5708 1.42925,2.9998 3,3 l 60,0 c 1.57075,-2e-4 2.99984,-1.4292 3,-3 l 0,-70 c 0.002,-0.7861 -0.32012,-1.5681 -0.875,-2.125 l -16,-16 c -0.55685,-0.5549 -1.33889,-0.8769 -2.125,-0.875 l -44,0 z m 3,6 38,0 0,13 a 3.0003,3.0003 0 0 0 3,3 l 13,0 0,64 -54,0 0,-80 z m 44,4.2188 5.78125,5.7812 -5.78125,0 0,-5.7812 z" display="inline" overflow="visible" visibility="visible"/></g><g id="g4151" style="fill-opacity:1;fill:url(#radialGradient4174)"><path style="fill:url(#radialGradient4174);fill-opacity:1" id="path4-3" d="m 64.409786,975.39362 10.653902,-12.22379 c 3.013588,-3.45752 8.244563,-3.76449 11.626692,-0.68302 l 9.563632,8.71605 c 3.380593,3.08143 3.682336,8.43102 0.668747,11.88776 L 86.268093,995.31366 64.409786,975.39362 Z"/><path style="fill:url(#radialGradient4174);fill-opacity:1" id="path6-6" d="m 63.589783,1021.3307 -10.654666,12.223 c -3.013588,3.4576 -8.245331,3.7661 -11.625924,0.6838 l -9.563632,-8.716 c -3.380593,-3.0807 -3.681568,-8.4303 -0.66798,-11.8886 l 10.653898,-12.2222 21.858304,19.92 z"/><path style="fill:url(#radialGradient4174);fill-opacity:1" id="path8-7" d="m 62.278392,977.8376 -18.416287,21.1275 21.858304,19.9216 18.415523,-21.12828 -21.85754,-19.92082 z m -10.66004,23.0274 c -0.896782,-0.8173 -0.975865,-2.22414 -0.175825,-3.14034 0.799273,-0.91698 2.174391,-0.99784 3.071173,-0.17978 0.896782,0.81727 0.975865,2.22258 0.17736,3.13952 -0.80004,0.9162 -2.175158,0.9979 -3.072708,0.1806 m 5.25017,-6.02318 c -0.896783,-0.81728 -0.975865,-2.22337 -0.176593,-3.14035 0.799273,-0.91777 2.175158,-0.99785 3.071173,-0.18057 0.896015,0.81727 0.975865,2.22415 0.175825,3.14035 -0.798505,0.91777 -2.173623,0.99863 -3.070405,0.18057 m 5.249402,-6.02241 c -0.896783,-0.81649 -0.975865,-2.22337 -0.176593,-3.14035 0.800041,-0.91699 2.175158,-0.99785 3.071941,-0.17979 0.896782,0.81728 0.975865,2.22337 0.176592,3.14035 -0.80004,0.91699 -2.17439,0.99707 -3.07194,0.17979 m -4.815599,17.22559 c -0.896783,-0.8172 -0.975865,-2.2233 -0.175825,-3.1403 0.799273,-0.917 2.174391,-0.9979 3.071173,-0.1806 0.896015,0.8173 0.975097,2.2234 0.176592,3.1419 -0.799272,0.9147 -2.17439,0.9971 -3.07194,0.179 m 5.25017,-6.0216 c -0.896783,-0.81728 -0.975865,-2.22415 -0.176593,-3.14114 0.799273,-0.91698 2.175158,-0.99863 3.071941,-0.18057 0.896782,0.81807 0.975865,2.22259 0.175824,3.14036 -0.799272,0.91695 -2.17439,0.99865 -3.071172,0.18135 m 5.248634,-6.02319 c -0.896783,-0.81807 -0.975098,-2.22337 -0.175825,-3.14114 0.799273,-0.9162 2.17439,-0.99706 3.071944,-0.18057 0.896782,0.81806 0.975865,2.22415 0.175824,3.14192 -0.799275,0.91541 -2.173625,0.99706 -3.071943,0.17979 m -4.814831,17.22409 c -0.896015,-0.8173 -0.975865,-2.2218 -0.175825,-3.1388 0.799273,-0.9186 2.17439,-0.9994 3.071941,-0.1806 0.896014,0.8157 0.975097,2.2234 0.175824,3.1388 -0.799272,0.9185 -2.17439,0.9994 -3.07194,0.1806 m 5.249402,-6.0217 c -0.896783,-0.8172 -0.975865,-2.2233 -0.175825,-3.1403 0.798505,-0.917 2.17439,-0.9979 3.070408,-0.1806 0.89755,0.8173 0.976633,2.2234 0.176593,3.1404 -0.800041,0.9169 -2.174394,0.9978 -3.071176,0.1805 m 5.249405,-6.02317 c -0.896783,-0.81728 -0.975865,-2.22337 -0.176593,-3.14035 0.800041,-0.91777 2.175158,-0.99863 3.071941,-0.18057 0.896782,0.81806 0.975865,2.22415 0.176592,3.13957 -0.80004,0.91933 -2.17439,0.99863 -3.07194,0.18135"/></g></g></svg>