<svg xmlns="http://www.w3.org/2000/svg" xmlns:svg="http://www.w3.org/2000/svg" id="svg2" width="128" height="128" version="1.1" viewBox="0 0 128 128"><metadata id="metadata7"/><g id="layer1" transform="translate(0,-924.36216)"><g id="g828" style="fill:#2271d5;fill-opacity:1"><path id="path4143" d="m 127,1025.3979 0,9 q 0,1.8281 -1.33594,3.1641 -1.33593,1.3359 -3.16406,1.3359 l -117.0000007,0 q -1.82812,0 -3.16406,-1.3359 -1.33594003,-1.336 -1.33594003,-3.1641 l 0,-9 q 0,-1.8281 1.33594003,-3.1641 1.33594,-1.3359 3.16406,-1.3359 l 117.0000007,0 q 1.82813,0 3.16406,1.3359 1.33594,1.336 1.33594,3.1641 z" style="fill:#2271d5;fill-opacity:1"/><path id="path4141" d="m 127,983.3086 0,9 q 0,1.8281 -1.33594,3.1641 -1.33593,1.3359 -3.16406,1.3359 l -117,0 q -1.82812,0 -3.16406,-1.3359 Q 1,994.1367 1,992.3086 l 0,-9 q 0,-1.8281 1.33594,-3.1641 1.33594,-1.3359 3.16406,-1.3359 l 117,0 q 1.82813,0 3.16406,1.3359 Q 127,981.4805 127,983.3086 Z" style="fill:#2271d5;fill-opacity:1"/><path id="path4" d="m 127,941.21929 0,9 q 0,1.8281 -1.33594,3.1641 -1.33593,1.3359 -3.16406,1.3359 l -117,0 q -1.82812,0 -3.16406,-1.3359 Q 1,952.04739 1,950.21929 l 0,-9 q 0,-1.8281 1.33594,-3.1641 1.33594,-1.3359 3.16406,-1.3359 l 117,0 q 1.82813,0 3.16406,1.3359 1.33594,1.336 1.33594,3.1641 z" style="fill:#2271d5;fill-opacity:1"/></g></g></svg>