<svg xmlns="http://www.w3.org/2000/svg" xmlns:xlink="http://www.w3.org/1999/xlink" width="128" height="128" viewBox="0 0 128 128"><defs><linearGradient id="a"><stop offset="0" stop-color="#0d5cc6"/><stop offset=".516" stop-color="#062a5a"/><stop offset="1" stop-color="#0d5cc6"/></linearGradient><linearGradient xlink:href="#a" id="d" x1="1" y1="988.362" x2="127" y2="988.362" gradientUnits="userSpaceOnUse" gradientTransform="translate(0 -2.143)"/><linearGradient xlink:href="#a" id="c" gradientUnits="userSpaceOnUse" x1="1" y1="988.362" x2="127" y2="988.362" gradientTransform="translate(0 12.946)"/><linearGradient xlink:href="#a" id="b" gradientUnits="userSpaceOnUse" x1="1" y1="988.362" x2="127" y2="988.362" gradientTransform="translate(0 28.036)"/></defs><path d="M127 101.036v9q0 1.828-1.336 3.164t-3.164 1.336h-117q-1.828 0-3.164-1.336t-1.336-3.164v-9q0-1.828 1.336-3.164t3.164-1.336h117q1.828 0 3.164 1.336t1.336 3.164z" fill="url(#b)"/><path d="M127 58.946v9q0 1.828-1.336 3.164t-3.164 1.336h-117q-1.828 0-3.164-1.336t-1.336-3.164v-9q0-1.828 1.336-3.164t3.164-1.336h117q1.828 0 3.164 1.336t1.336 3.164z" fill="url(#c)"/><path d="M127 16.857v9q0 1.828-1.336 3.164t-3.164 1.336h-117q-1.828 0-3.164-1.336t-1.336-3.164v-9q0-1.828 1.336-3.164t3.164-1.336h117q1.828 0 3.164 1.336t1.336 3.164z" fill="url(#d)"/><path d="M125.339 117.16l-8.178 8.179q-1.661 1.661-4.089 1.661-2.428 0-4.089-1.661l-106.32-106.32q-1.661-1.661-1.661-4.089 0-2.428 1.661-4.089l8.178-8.178q1.661-1.661 4.089-1.661 2.428 0 4.089 1.661l106.32 106.32q1.661 1.661 1.661 4.089 0 2.428-1.661 4.089z" fill="#b60c09"/></svg>