<svg xmlns="http://www.w3.org/2000/svg" xmlns:svg="http://www.w3.org/2000/svg" id="svg2" width="128" height="128" version="1.1" viewBox="0 0 128 128"><metadata id="metadata7"/><g id="layer1" transform="translate(0,-924.36216)"><g id="g826" style="fill:#2271d5;fill-opacity:1"><path id="path4143" d="m 127,1025.3979 0,9 q 0,1.8281 -1.33594,3.1641 -1.33593,1.3359 -3.16406,1.3359 l -117.0000007,0 q -1.82812,0 -3.16406,-1.3359 -1.33594003,-1.336 -1.33594003,-3.1641 l 0,-9 q 0,-1.8281 1.33594003,-3.1641 1.33594,-1.3359 3.16406,-1.3359 l 117.0000007,0 q 1.82813,0 3.16406,1.3359 1.33594,1.336 1.33594,3.1641 z" style="fill:#2271d5;fill-opacity:1"/><path id="path4141" d="m 127,983.3086 0,9 q 0,1.8281 -1.33594,3.1641 -1.33593,1.3359 -3.16406,1.3359 l -117,0 q -1.82812,0 -3.16406,-1.3359 Q 1,994.1367 1,992.3086 l 0,-9 q 0,-1.8281 1.33594,-3.1641 1.33594,-1.3359 3.16406,-1.3359 l 117,0 q 1.82813,0 3.16406,1.3359 Q 127,981.4805 127,983.3086 Z" style="fill:#2271d5;fill-opacity:1"/><path id="path4" d="m 127,941.21929 0,9 q 0,1.8281 -1.33594,3.1641 -1.33593,1.3359 -3.16406,1.3359 l -117,0 q -1.82812,0 -3.16406,-1.3359 Q 1,952.04739 1,950.21929 l 0,-9 q 0,-1.8281 1.33594,-3.1641 1.33594,-1.3359 3.16406,-1.3359 l 117,0 q 1.82813,0 3.16406,1.3359 1.33594,1.336 1.33594,3.1641 z" style="fill:#2271d5;fill-opacity:1"/></g><path style="fill:#b60c09;fill-opacity:1" id="path4145" d="m 125.33871,1041.5223 -8.17848,8.1786 q -1.66126,1.6613 -4.08931,1.6613 -2.42794,0 -4.08921,-1.6613 L 2.6612865,943.38045 q -1.6612525,-1.66124 -1.6612882,-4.08921 5.41e-5,-2.42804 1.6612882,-4.08929 l 8.1784945,-8.17849 q 1.661234,-1.66123 4.089285,-1.66129 2.427958,4e-5 4.089209,1.66129 L 125.33871,1033.3439 q 1.66126,1.6613 1.66129,4.0893 -6e-5,2.428 -1.66129,4.0891 z"/></g></svg>