<svg xmlns="http://www.w3.org/2000/svg" xmlns:svg="http://www.w3.org/2000/svg" xmlns:xlink="http://www.w3.org/1999/xlink" id="svg2" width="128" height="128" enable-background="new" version="1.1" viewBox="0 0 128 128"><defs id="defs4"><linearGradient id="linearGradient4172"><stop style="stop-color:#ddd;stop-opacity:1" id="stop4174" offset="0"/><stop style="stop-color:#969696;stop-opacity:.99607843" id="stop4176" offset="1"/></linearGradient><linearGradient id="linearGradient4178" x1="10" x2="118" y1="988.362" y2="988.362" gradientUnits="userSpaceOnUse" xlink:href="#linearGradient4172"/><filter style="color-interpolation-filters:sRGB" id="filter4288"><feFlood id="feFlood4290" flood-color="#000" flood-opacity=".498" result="flood"/><feComposite id="feComposite4292" in="flood" in2="SourceGraphic" operator="out" result="composite1"/><feGaussianBlur id="feGaussianBlur4294" in="composite1" result="blur" stdDeviation="1"/><feOffset id="feOffset4296" dx="1.3" dy="1" result="offset"/><feComposite id="feComposite4298" in="offset" in2="SourceGraphic" operator="atop" result="composite2"/></filter><filter style="color-interpolation-filters:sRGB" id="filter4457"><feFlood id="feFlood4459" flood-color="#000" flood-opacity=".498" result="flood"/><feComposite id="feComposite4461" in="flood" in2="SourceGraphic" operator="out" result="composite1"/><feGaussianBlur id="feGaussianBlur4463" in="composite1" result="blur" stdDeviation="1"/><feOffset id="feOffset4465" dx="1" dy="1" result="offset"/><feComposite id="feComposite4467" in="offset" in2="SourceGraphic" operator="atop" result="composite2"/></filter><filter style="color-interpolation-filters:sRGB" id="filter871"><feBlend id="feBlend873" in2="BackgroundImage" mode="overlay"/></filter></defs><metadata id="metadata7"/><g id="layer1" transform="translate(0,-924.36216)"><polyline style="fill:none" id="polyline8" points=".913 164.088 160.291 164.088 160.291 88.801 .913 88.801" transform="matrix(0.64514587,0,0,0.6490461,9.4264657,924.79814)"/><path id="path10" d="m 81.727318,954.21356 18.800842,0 C 94.887004,946.24587 83.848558,933.61997 77.604191,928.09919 l 0,21.35426 c -6.45e-4,2.62475 1.848988,4.76011 4.123127,4.76011 z" style="fill:#3c3c3c;fill-opacity:1"/><path id="path12" d="m 104.06227,977.24239 0,-16.26188 -22.334952,0 c -5.504384,0 -9.985568,-5.17095 -9.985568,-11.52706 l 0,-24.09129 -54.68708,0 c -3.896681,0 -7.05467,3.64569 -7.05467,8.14488 l 0,25.06876 0.01484,0 0,23.85831 102.822061,0 0,48.86469 -102.821416,0 0,12.2586 c 0.154835,4.3389 3.241858,7.8048 7.039832,7.8048 l 79.954218,0 c 3.896036,0 7.054026,-3.647 7.054026,-8.1449 l 0,-6.7261 13.93644,0 0,-59.24881 -13.93773,0 z" style="fill-opacity:1;fill:url(#linearGradient4178)"/><polyline style="fill:none" id="polyline14" points=".913 164.088 160.291 164.088 160.291 88.801 .913 88.801" transform="matrix(0.64514587,0,0,0.6490461,9.4264657,924.79814)"/><text style="font-style:normal;font-variant:normal;font-weight:400;font-stretch:normal;line-height:0%;font-family:Consolas;-inkscape-font-specification:Consolas;letter-spacing:0;word-spacing:0;fill:#dd8808;fill-opacity:1;stroke:none;stroke-width:1px;stroke-linecap:butt;stroke-linejoin:miter;stroke-opacity:1;filter:url(#filter871)" id="text4151" x="7.561" y="1020.309" xml:space="preserve"><tspan id="tspan4153" x="7.561" y="1020.309" style="font-size:45px;line-height:1.25;fill:#dd8808;fill-opacity:1">HTML</tspan></text><path id="path4" d="m 62.500001,944.14932 q 0,1.11152 -0.778059,1.88963 l -20.11853,20.11853 -3.779167,3.7791 q -0.778072,0.77811 -1.889584,0.77811 -1.111526,0 -1.889598,-0.77811 l -3.779168,-3.7791 -10.059265,-10.05934 q -0.778058,-0.77797 -0.778058,-1.88948 0,-1.11152 0.778058,-1.88963 l 3.779182,-3.77911 q 0.778058,-0.77812 1.889584,-0.77812 1.111512,0 1.889584,0.77812 l 8.169681,8.19743 18.228932,-18.25677 q 0.778072,-0.77811 1.889584,-0.77811 1.111525,0 1.889584,0.77811 l 3.779181,3.77925 q 0.778059,0.77798 0.778059,1.88949 z" style="fill:#178b19;fill-opacity:1"/></g></svg>