<svg xmlns="http://www.w3.org/2000/svg" xmlns:xlink="http://www.w3.org/1999/xlink" width="128" height="128" viewBox="0 0 128 128"><defs><linearGradient id="a"><stop offset="0" stop-color="#ddd"/><stop offset="1" stop-color="#969696" stop-opacity=".996"/></linearGradient><linearGradient xlink:href="#a" id="b" x1="10" y1="988.362" x2="118" y2="988.362" gradientUnits="userSpaceOnUse"/><filter color-interpolation-filters="sRGB"><feFlood flood-opacity=".498" flood-color="#000" result="flood"/><feComposite in="flood" in2="SourceGraphic" operator="out" result="composite1"/><feGaussianBlur in="composite1" stdDeviation="1" result="blur"/><feOffset dx="1.3" dy="1" result="offset"/><feComposite in="offset" in2="SourceGraphic" operator="atop" result="composite2"/></filter><filter id="c" color-interpolation-filters="sRGB"><feFlood flood-opacity=".498" flood-color="#000" result="flood"/><feComposite in="flood" in2="SourceGraphic" operator="out" result="composite1"/><feGaussianBlur in="composite1" stdDeviation="1" result="blur"/><feOffset dx="1" dy="1" result="offset"/><feComposite in="offset" in2="SourceGraphic" operator="atop" result="composite2"/></filter></defs><path d="M10.015 106.929h102.799v-48.861h-102.799" fill="none"/><path d="M81.727 29.851h18.801c-5.641-7.968-16.68-20.594-22.924-26.114v21.354c-.001 2.625 1.849 4.76 4.123 4.76z" fill="#3c3c3c"/><path d="M104.062 52.88v-16.262h-22.335c-5.504 0-9.986-5.171-9.986-11.527v-24.091h-54.687c-3.897 0-7.055 3.646-7.055 8.145v25.069h.015v23.858h102.822v48.865h-102.821v12.259c.155 4.339 3.242 7.805 7.04 7.805h79.954c3.896 0 7.054-3.647 7.054-8.145v-6.726h13.936v-59.249h-13.938z" fill="url(#b)"/><path d="M10.015 106.929h102.799v-48.861h-102.799" fill="none"/><text style="line-height:125%;-inkscape-font-specification:Consolas" x="7.561" y="1020.309" font-size="45" font-family="Consolas" letter-spacing="0" word-spacing="0" fill="#6d0b0b" filter="url(#c)" transform="translate(0 -924.362)"><tspan x="7.561" y="1020.309">HTML</tspan></text><path d="M62.5 19.787q0 1.112-.778 1.89l-20.119 20.119-3.779 3.779q-.778.778-1.89.778-1.112 0-1.89-.778l-3.779-3.779-10.059-10.059q-.778-.778-.778-1.889 0-1.112.778-1.89l3.779-3.779q.778-.778 1.89-.778 1.112 0 1.89.778l8.17 8.197 18.229-18.257q.778-.778 1.89-.778 1.112 0 1.89.778l3.779 3.779q.778.778.778 1.889z" fill="#178b19"/></svg>