<svg xmlns="http://www.w3.org/2000/svg" xmlns:svg="http://www.w3.org/2000/svg" xmlns:xlink="http://www.w3.org/1999/xlink" id="svg2" width="128" height="128" version="1.1" viewBox="0 0 128 128"><metadata id="metadata7"/><g id="layer1" transform="translate(0,-924.36216)"><path id="path7" d="M 119.125,926.36216 H 8.8750001 c -4.3489688,0 -7.87500049,3.28351 -7.87500049,7.33334 v 73.3334 c 0,4.0498 3.52603169,7.3333 7.87500049,7.3333 H 119.125 c 4.34897,0 7.875,-3.2835 7.875,-7.3333 v -73.3334 c 0,-4.04983 -3.52603,-7.33334 -7.875,-7.33334 z m 0,80.66674 H 8.8750001 V 933.6955 H 119.125 Z" style="overflow:visible;fill:#2271d5;stroke-width:.89515448;fill-opacity:1"/><path id="path9" d="m 32.500002,948.36218 c 4.352905,0 7.874994,3.27984 7.874994,7.33334 0,4.0535 -3.522089,7.33333 -7.874994,7.33333 -4.352904,0 -7.875002,-3.27983 -7.875002,-7.33333 0,-4.0535 3.522098,-7.33334 7.875002,-7.33334 m 0,-7.33335 c -8.68613,0 -15.750004,6.57801 -15.750004,14.66669 0,8.08867 7.063874,14.66667 15.750004,14.66667 8.686122,0 15.749996,-6.578 15.749996,-14.66667 0,-8.08868 -7.063874,-14.66669 -15.749996,-14.66669 z" style="overflow:visible;fill:#ffa000;stroke-width:.89515448"/><path id="path11" d="m 28.562501,999.69549 c -1.007021,0 -2.01502,-0.35838 -2.783813,-1.07434 -1.538582,-1.43272 -1.538582,-3.75279 0,-5.18461 l 23.624997,-22.00001 c 1.207832,-1.11742 3.037781,-1.39334 4.544856,-0.6875 l 12.812633,5.96567 21.652312,-26.88402 c 0.760915,-0.95242 2.022891,-1.50792 3.257292,-1.4685 1.280675,0.0358 2.460941,0.64075 3.168708,1.63258 l 15.749994,22.00002 c 1.20783,1.68667 0.7186,3.96 -1.09167,5.08476 -1.81519,1.11375 -4.26038,0.66642 -5.46033,-1.01659 L 91.374484,958.37402 71.086513,983.56037 c -1.13794,1.42176 -3.207095,1.87642 -4.910066,1.08167 L 52.96417,978.49029 31.346315,998.62115 c -0.768802,0.71596 -1.776801,1.07434 -2.783814,1.07434 z" style="overflow:visible;fill:#b0bec5;stroke-width:.89515448"/></g><image id="image7" width="70.321" height="69.429" x="56.964" y="57.857" xlink:href="config.svg"/></svg>