<svg xmlns="http://www.w3.org/2000/svg" xmlns:xlink="http://www.w3.org/1999/xlink" width="128" height="128" viewBox="0 0 128 128"><path d="M119.089 1.871h-110.224c-4.348 0-7.873 3.283-7.873 7.332v73.322c0 4.049 3.525 7.332 7.873 7.332h110.224c4.348 0 7.873-3.283 7.873-7.332v-73.322c0-4.049-3.525-7.332-7.873-7.332zm0 80.654h-110.224v-73.322h110.224v73.322z" overflow="visible" fill="#546e7a"/><path d="M32.484 23.867c4.352 0 7.873 3.279 7.873 7.332s-3.521 7.332-7.873 7.332-7.873-3.279-7.873-7.332 3.521-7.332 7.873-7.332m0-7.332c-8.684 0-15.746 6.577-15.746 14.664s7.062 14.664 15.746 14.664c8.684 0 15.746-6.577 15.746-14.664s-7.062-14.664-15.746-14.664z" overflow="visible" fill="#ffa000"/><path d="M28.548 75.193c-1.007 0-2.015-.358-2.783-1.074-1.538-1.432-1.538-3.752 0-5.184l23.619-21.997c1.208-1.117 3.037-1.393 4.544-.687l12.81 5.965 21.647-26.88c.761-.952 2.022-1.508 3.257-1.468 1.28.036 2.46.641 3.168 1.632l15.746 21.997c1.208 1.686.718 3.959-1.091 5.084-1.815 1.114-4.259.666-5.459-1.016l-12.66-17.686-20.283 25.182c-1.138 1.422-3.206 1.876-4.909 1.081l-13.209-6.151-21.613 20.128c-.769.716-1.776 1.074-2.783 1.074z" overflow="visible" fill="#b0bec5"/><image xlink:href="config.svg" y="57.857" x="56.964" height="69.429" width="70.321"/></svg>