<svg xmlns="http://www.w3.org/2000/svg" xmlns:svg="http://www.w3.org/2000/svg" id="svg2" width="128" height="128" version="1.1" viewBox="0 0 128 128"><metadata id="metadata7"/><g id="layer1" transform="translate(0,-924.36216)"><g id="g4" transform="matrix(1.3125,0,0,1.3125,-1.625,922.73716)" style="fill:#2caf45;fill-opacity:1"><g id="g6" style="fill:#2caf45;fill-opacity:1"><g id="g8" style="fill:#2caf45;fill-opacity:1"><rect id="rect10" width="2" height="52" x="10" y="18" style="fill:#2caf45;fill-opacity:1"/><rect id="rect12" width="2" height="52" x="20" y="18" style="fill:#2caf45;fill-opacity:1"/><rect id="rect14" width="2" height="52" x="54" y="18" style="fill:#2caf45;fill-opacity:1"/><rect id="rect16" width="2" height="64" x="2" y="18" style="fill:#2caf45;fill-opacity:1"/><rect id="rect18" width="2" height="64" x="6" y="18" style="fill:#2caf45;fill-opacity:1"/><rect id="rect20" width="2" height="52" x="64" y="18" style="fill:#2caf45;fill-opacity:1"/><rect id="rect22" width="2" height="64" x="96" y="18" style="fill:#2caf45;fill-opacity:1"/><rect id="rect24" width="2" height="64" x="92" y="18" style="fill:#2caf45;fill-opacity:1"/><rect id="rect26" width="2" height="52" x="30" y="18" style="fill:#2caf45;fill-opacity:1"/><rect id="rect28" width="4" height="52" x="14" y="18" style="fill:#2caf45;fill-opacity:1"/><rect id="rect30" width="4" height="52" x="58" y="18" style="fill:#2caf45;fill-opacity:1"/><rect id="rect32" width="4" height="52" x="24" y="18" style="fill:#2caf45;fill-opacity:1"/><rect id="rect34" width="4" height="52" x="86" y="18" style="fill:#2caf45;fill-opacity:1"/><rect id="rect36" width="2" height="52" x="74" y="18" style="fill:#2caf45;fill-opacity:1"/><polygon id="polygon38" points="68 70 69.3 70 72 70 72 18 69.3 18 68 18" style="fill:#2caf45;fill-opacity:1"/><polygon id="polygon40" points="78 70 79.3 70 82 70 82 18 79.3 18 78 18" style="fill:#2caf45;fill-opacity:1"/><rect id="rect42" width="6" height="52" x="34" y="18" style="fill:#2caf45;fill-opacity:1"/><rect id="rect44" width="6" height="52" x="44" y="18" style="fill:#2caf45;fill-opacity:1"/></g><rect id="rect46" width="4" height="6" x="18" y="76" style="fill:#2caf45;fill-opacity:1"/><rect id="rect48" width="4" height="6" x="28" y="76" style="fill:#2caf45;fill-opacity:1"/><rect id="rect50" width="4" height="6" x="38" y="76" style="fill:#2caf45;fill-opacity:1"/><rect id="rect52" width="4" height="6" x="48" y="76" style="fill:#2caf45;fill-opacity:1"/><rect id="rect54" width="4" height="6" x="58" y="76" style="fill:#2caf45;fill-opacity:1"/><rect id="rect56" width="4" height="6" x="68" y="76" style="fill:#2caf45;fill-opacity:1"/><rect id="rect58" width="4" height="6" x="78" y="76" style="fill:#2caf45;fill-opacity:1"/></g></g></g></svg>