<svg xmlns="http://www.w3.org/2000/svg" xmlns:svg="http://www.w3.org/2000/svg" xmlns:xlink="http://www.w3.org/1999/xlink" id="svg2" width="128" height="128" version="1.1" viewBox="0 0 128 128"><defs id="defs4"><radialGradient id="radialGradient4148" cx="64" cy="999.362" r="29" fx="64" fy="999.362" gradientTransform="matrix(1,0,0,1.0000021,1.0000001e-7,11.18662)" gradientUnits="userSpaceOnUse" xlink:href="#linearGradient4142"/><linearGradient id="linearGradient4142"><stop style="stop-color:#34ae3d;stop-opacity:1" id="stop4144" offset="0"/><stop style="stop-color:#26822e;stop-opacity:1" id="stop4146" offset="1"/></linearGradient></defs><metadata id="metadata7"/><g id="layer1" transform="translate(0,-924.36216)"><path id="path6" d="m 57.001962,957.16689 v 0 c -0.01134,-11.02798 -9.6327,-19.99349 -21.450244,-19.99349 h -13.10652 c -11.69406,0 -21.2322597,8.78334 -21.44519972,19.63955 l 0.0063,0.36565 c 0.00504,11.02668 9.6263997,19.9935 21.4451997,19.9935 h 13.10526 c 2.628364,0 5.144584,-0.45153 7.476844,-1.257 -3.20166,-1.85426 -5.89428,-4.41639 -7.824604,-7.45348 h -12.7575 c -6.78636,0 -12.3732,-4.53741 -12.9641397,-10.29538 h -0.05292 v -1.00065 c 0.0063,-6.22121 5.8476597,-11.28302 13.0107597,-11.28302 h 13.10526 c 6.786364,0 12.379504,4.5257 12.964144,10.29538 h 0.05292 l 0.0063,0.98764 v 0.013 c -0.0063,2.13403 -0.70308,4.12232 -1.8963,5.81783 1.89,1.96486 4.70736,3.25699 7.88508,3.42876 1.4994,-2.67144 2.38014,-5.68511 2.43936,-8.89265 z" style="fill:#2271d5;fill-opacity:1;stroke-width:1.28045213"/><path id="path8" d="m 120.74662,943.07841 c -4.0635,-3.80612 -9.4563,-5.90371 -15.19686,-5.90371 H 92.444502 c -11.81754,0 -21.4389,8.96551 -21.4452,19.99349 v 0 0.0742 c 0.01764,3.31685 0.90342,6.42811 2.4444,9.17242 3.16008,-0.21991 5.94216,-1.56149 7.79058,-3.53807 -1.134,-1.68249 -1.8018,-3.62264 -1.8018,-5.69551 0,-0.013 0,-0.013 0,-0.013 0.0063,-6.22121 5.84766,-11.28302 13.01076,-11.28302 H 105.5485 c 7.1694,0 13.01076,5.06311 13.01706,11.28302 0,6.23422 -5.84136,11.29603 -13.01706,11.29603 H 92.591922 c -1.91898,3.01236 -4.58388,5.55108 -7.74774,7.40404 2.3625,0.8406 4.92534,1.30514 7.60032,1.30514 h 13.105258 c 11.81754,0 21.4389,-8.96682 21.45024,-19.9935 0.001,-5.31815 -2.22012,-10.3201 -6.25338,-14.10149 z" style="fill:#2271d5;fill-opacity:1;stroke-width:1.28045213"/><g id="g4145" transform="matrix(1.26,0,0,1.3012362,-13.737501,-323.90011)" style="fill:#2caf45;fill-opacity:1"><path style="fill:#2caf45;fill-opacity:1" id="path4" d="m 54.769431,969.13597 c -2.086,0 -4.087,0.347 -5.935,0.965 2.541,1.435 4.673,3.394 6.211,5.728 h 13.303 c 1.523,-2.315 3.638,-4.266 6.146,-5.69 -1.875,-0.647 -3.909,-1.003 -6.038,-1.003 z"/><path style="fill:#2caf45;fill-opacity:1" id="path10" d="m 85.480431,984.49997 c 0,-2.559 -0.703,-4.968 -1.936,-7.097 -2.508,0.169 -4.72,1.2 -6.188,2.719 0.9,1.294 1.425,2.785 1.43,4.378 v 0 c 0,4.791 -4.631,8.681 -10.326,8.681 h -13.691 c -5.69,0 -10.326,-3.891 -10.326,-8.681 v 0 c 0,-1.64 0.558,-3.168 1.5,-4.472 -1.5,-1.5 -3.736,-2.494 -6.253003,-2.625 -1.237,2.119 -1.94,4.538 -1.94,7.097 v 0 c 0,8.475 7.636003,15.375 17.024003,15.375 h 13.687 c 9.383,0 17.019,-6.899 17.019,-15.375 z"/></g><path id="path4-3" d="m 93,1006.5963 v 7.9091 q 0,1.6479 -1.15341,2.801 -1.1534,1.1535 -2.80113,1.1535 H 71.90909 v 17.1366 q 0,1.6475 -1.153401,2.8009 -1.153414,1.1535 -2.801139,1.1535 h -7.90909 q -1.647735,0 -2.801139,-1.1535 -1.153411,-1.1534 -1.153411,-2.8009 v -17.1366 H 38.95455 q -1.647725,0 -2.801135,-1.1535 Q 35,1016.1533 35,1014.5054 v -7.9091 q 0,-1.6477 1.153415,-2.8011 1.15341,-1.1535 2.801135,-1.1535 h 17.13636 v -17.13638 q 0,-1.64771 1.153411,-2.80112 1.153404,-1.15342 2.801139,-1.15342 h 7.90909 q 1.647725,0 2.801139,1.15342 1.153401,1.15341 1.153401,2.80112 v 17.13638 h 17.13637 q 1.64773,0 2.80113,1.1535 Q 93,1004.9486 93,1006.5963 Z" style="fill:url(#radialGradient4148);fill-opacity:1"/></g></svg>