<svg xmlns="http://www.w3.org/2000/svg" xmlns:xlink="http://www.w3.org/1999/xlink" width="128" height="128" viewBox="0 0 128 128"><defs><radialGradient xlink:href="#a" id="e" cx="64" cy="999.362" fx="64" fy="999.362" r="29" gradientTransform="translate(0 16.48)" gradientUnits="userSpaceOnUse"/><linearGradient id="a"><stop offset="0" stop-color="#34ae3d"/><stop offset="1" stop-color="#26822e"/></linearGradient><radialGradient xlink:href="#a" id="b" cx="61.615" cy="984.505" fx="61.615" fy="984.505" r="23.865" gradientTransform="matrix(1 0 0 .644 0 350.466)" gradientUnits="userSpaceOnUse"/><radialGradient xlink:href="#a" id="c" gradientUnits="userSpaceOnUse" gradientTransform="matrix(1 0 0 .644 0 350.466)" cx="61.615" cy="984.505" fx="61.615" fy="984.505" r="23.865"/><radialGradient xlink:href="#a" id="d" gradientUnits="userSpaceOnUse" gradientTransform="matrix(1 0 0 .644 0 350.466)" cx="61.615" cy="984.505" fx="61.615" fy="984.505" r="23.865"/></defs><path d="M57.001 32.571c-.011-11.026-9.633-19.99-21.45-19.99h-13.107c-11.694 0-21.232 8.782-21.445 19.636l.006.366c.005 11.025 9.626 19.99 21.445 19.99h13.105c2.628 0 5.145-.451 7.477-1.257-3.202-1.854-5.894-4.416-7.825-7.452h-12.758c-6.786 0-12.373-4.537-12.964-10.294h-.053v-1c.006-6.22 5.848-11.281 13.011-11.281h13.105c6.786 0 12.38 4.525 12.964 10.294h.053l.006.987v.013c-.006 2.134-.703 4.122-1.896 5.817 1.89 1.965 4.707 3.256 7.885 3.428 1.499-2.671 2.38-5.684 2.439-8.891v-.366zm63.745-14.085c-4.064-3.805-9.456-5.903-15.197-5.903h-13.105c-11.818 0-21.439 8.964-21.445 19.99v.074c.018 3.316.903 6.427 2.444 9.171 3.16-.22 5.942-1.561 7.791-3.537-1.134-1.682-1.802-3.622-1.802-5.694v-.013c.006-6.22 5.848-11.281 13.011-11.281h13.105c7.169 0 13.011 5.062 13.017 11.281 0 6.233-5.841 11.294-13.017 11.294h-12.957c-1.919 3.012-4.584 5.55-7.748 7.403 2.362.84 4.925 1.305 7.6 1.305h13.105c11.818 0 21.439-8.965 21.45-19.99.001-5.317-2.22-10.318-6.253-14.099z" fill="#042e60"/><g fill="url(#b)"><path d="M55.271 12.583c-2.628 0-5.15.451-7.478 1.255 3.202 1.867 5.888 4.416 7.826 7.452h16.762c1.919-3.012 4.584-5.55 7.744-7.403-2.362-.842-4.925-1.305-7.608-1.305h-17.246z" fill="url(#c)"/><path d="M93.967 32.571c0-3.329-.886-6.463-2.439-9.233-3.16.22-5.947 1.561-7.797 3.537 1.134 1.683 1.796 3.623 1.802 5.696 0 6.233-5.835 11.294-13.011 11.294h-17.251c-7.169 0-13.011-5.062-13.011-11.294 0-2.134.703-4.122 1.89-5.818-1.89-1.951-4.707-3.245-7.879-3.415-1.559 2.757-2.444 5.904-2.444 9.233 0 11.026 9.621 20.003 21.45 20.003h17.246c11.823 0 21.444-8.976 21.444-20.003z" fill="url(#d)"/></g><path d="M93 82.234v7.909q0 1.648-1.153 2.801-1.153 1.153-2.801 1.153h-17.136v17.137q0 1.647-1.153 2.801-1.153 1.153-2.801 1.153h-7.909q-1.648 0-2.801-1.153-1.153-1.153-1.153-2.801v-17.137h-17.136q-1.648 0-2.801-1.153-1.153-1.153-1.153-2.801v-7.909q0-1.648 1.153-2.801 1.153-1.153 2.801-1.153h17.136v-17.136q0-1.648 1.153-2.801 1.153-1.153 2.801-1.153h7.909q1.648 0 2.801 1.153 1.153 1.153 1.153 2.801v17.136h17.136q1.648 0 2.801 1.153 1.153 1.153 1.153 2.801z" fill="url(#e)"/></svg>