<svg xmlns="http://www.w3.org/2000/svg" xmlns:svg="http://www.w3.org/2000/svg" id="svg2" width="128" height="128" version="1.1" viewBox="0 0 128 128"><metadata id="metadata7"/><g id="layer1" transform="translate(0,-924.36216)"><g id="g4" transform="matrix(1.4320811,0,0,1.4100111,-7.604771,917.86231)"><path style="fill:none" id="path6" d="m 29.36,16.382 c 0,11.586 5.216,25.313 13.946,28.23 1.625,0.542 2.708,2.076 2.678,3.79 l -0.034,1.851 c -0.031,1.623 -1.058,3.059 -2.583,3.614 -8.652,3.134 -14.007,17.886 -14.007,29.754 0,0.028 -0.008,0.057 -0.008,0.085 l 41.298,0 c 0,-0.028 -0.01,-0.057 -0.01,-0.085 0,-15.399 -7.364,-27.47 -14.189,-29.821 -1.586,-0.547 -2.648,-2.041 -2.643,-3.719 l 0.007,-1.699 c 0.006,-1.7 1.108,-3.202 2.725,-3.719 8.828,-2.825 14.101,-16.598 14.101,-28.281 0,-0.031 0.01,-0.058 0.01,-0.089 l -41.3,0 c 0.001,0.031 0.009,0.059 0.009,0.089 z m 37.855,2.272 c -0.004,0.024 -0.01,0.047 -0.01,0.073 0,9.74 -4.394,21.22 -11.752,23.575 L 44.42,42.261 C 37.14,39.828 32.794,28.386 32.794,18.728 c 0,-0.026 -0.006,-0.049 -0.006,-0.073 l 34.427,0 z"/><path id="path8" d="m 90.501,10.806 c 0,-3.03 -2.459,-5.487 -5.487,-5.487 l -70.027,0 c -3.03,0 -5.487,2.457 -5.487,5.487 0,3.03 2.457,5.487 5.487,5.487 l 6.543,0 c -0.001,0.031 -0.009,0.058 -0.009,0.089 0,10.132 3.826,25.807 13.97,32.956 -10.08,7.587 -13.97,24.198 -13.97,34.283 0,0.028 0.008,0.057 0.008,0.085 l -6.542,0 c -3.03,0 -5.487,2.458 -5.487,5.487 0,3.03 2.457,5.487 5.487,5.487 l 70.027,0 c 3.028,0 5.487,-2.457 5.487,-5.487 0,-3.029 -2.459,-5.487 -5.487,-5.487 l -6.54,0 c 0,-0.028 0.006,-0.057 0.006,-0.085 0,-10.174 -3.929,-26.847 -14.106,-34.382 6.901,-5.074 14.106,-15.871 14.106,-32.857 0,-0.031 -0.006,-0.058 -0.009,-0.089 l 6.543,0 c 3.028,0 5.487,-2.457 5.487,-5.487 z m -19.86,5.576 c 0,11.683 -5.272,25.456 -14.101,28.281 -1.616,0.517 -2.719,2.019 -2.725,3.719 l -0.007,1.699 c -0.006,1.678 1.057,3.172 2.643,3.719 6.825,2.352 14.189,14.422 14.189,29.821 0,0.028 0.01,0.057 0.01,0.085 l -41.298,0 c 0,-0.028 0.008,-0.057 0.008,-0.085 0,-11.868 5.355,-26.62 14.007,-29.755 1.525,-0.555 2.552,-1.991 2.583,-3.614 l 0.034,-1.851 c 0.03,-1.713 -1.053,-3.248 -2.678,-3.79 -8.73,-2.917 -13.946,-16.644 -13.946,-28.23 0,-0.031 -0.008,-0.058 -0.009,-0.089 l 41.3,0 c -10e-4,0.032 -0.01,0.06 -0.01,0.09 z" style="fill:#684121;fill-opacity:1"/><path id="path10" d="m 44.42,42.261 11.033,0.042 c 7.358,-2.355 11.752,-13.834 11.752,-23.575 0,-0.026 0.006,-0.049 0.01,-0.073 l -34.427,0 c 0,0.024 0.006,0.047 0.006,0.073 -10e-4,9.657 4.346,21.1 11.626,23.533 z" style="fill:#bea43c;fill-opacity:1"/></g></g></svg>