<svg xmlns="http://www.w3.org/2000/svg" width="128" height="128" viewBox="0 0 128 128"><path d="M34.439 16.599c0 16.336 7.469 35.691 19.971 39.804 2.327.764 3.878 2.927 3.835 5.344l-.049 2.61c-.044 2.288-1.515 4.313-3.699 5.096-12.39 4.419-20.058 25.219-20.058 41.953l-.011.12h59.139l-.014-.12c0-21.713-10.545-38.733-20.319-42.048-2.271-.771-3.792-2.878-3.785-5.244l.01-2.396c.009-2.397 1.587-4.515 3.902-5.244 12.642-3.983 20.193-23.403 20.193-39.876l.014-.125h-59.142l.013.125zm54.208 3.204l-.014.103c0 13.733-6.292 29.92-16.829 33.241l-15.799-.058c-10.425-3.431-16.648-19.564-16.648-33.182l-.009-.103h49.299z" fill="none"/><path d="M121.992 8.736c0-4.272-3.521-7.737-7.857-7.737h-100.279c-4.339 0-7.857 3.464-7.857 7.737 0 4.272 3.518 7.737 7.857 7.737h9.37l-.013.125c0 14.286 5.479 36.388 20.005 46.468-14.435 10.698-20.005 34.119-20.005 48.339l.011.12h-9.368c-4.339 0-7.857 3.466-7.857 7.737 0 4.272 3.518 7.737 7.857 7.737h100.279c4.336 0 7.857-3.464 7.857-7.737 0-4.271-3.521-7.737-7.857-7.737h-9.365l.009-.12c0-14.345-5.626-37.854-20.2-48.479 9.882-7.154 20.2-22.378 20.2-46.328l-.013-.125h9.37c4.336 0 7.857-3.464 7.857-7.737zm-28.44 7.862c0 16.473-7.55 35.893-20.193 39.876-2.314.729-3.894 2.847-3.902 5.244l-.01 2.396c-.009 2.366 1.514 4.473 3.785 5.244 9.773 3.316 20.319 20.335 20.319 42.048l.014.12h-59.139l.011-.12c0-16.734 7.668-37.534 20.058-41.955 2.184-.783 3.654-2.807 3.699-5.096l.049-2.61c.043-2.415-1.508-4.58-3.835-5.344-12.501-4.113-19.971-23.468-19.971-39.804l-.013-.125h59.142l-.014.127z" fill="#684121"/><path d="M56.004 53.088l15.799.059c10.537-3.321 16.829-19.506 16.829-33.241l.014-.103h-49.299l.009.103c-.001 13.616 6.223 29.751 16.648 33.182z" fill="#bea43c"/></svg>