<svg xmlns="http://www.w3.org/2000/svg" xmlns:svg="http://www.w3.org/2000/svg" xmlns:xlink="http://www.w3.org/1999/xlink" id="svg2" width="128" height="128" version="1.1" viewBox="0 0 128 128"><defs id="defs4"><linearGradient id="linearGradient4399"><stop id="stop4401" offset="0" style="stop-color:#101010;stop-opacity:1"/><stop id="stop4403" offset="1" style="stop-color:#3f3f3f;stop-opacity:1"/></linearGradient><linearGradient id="linearGradient4393"><stop id="stop4395" offset="0" style="stop-color:#101010;stop-opacity:1"/><stop id="stop4397" offset="1" style="stop-color:#3f3f3f;stop-opacity:1"/></linearGradient><linearGradient id="linearGradient4387"><stop id="stop4389" offset="0" style="stop-color:#101010;stop-opacity:1"/><stop id="stop4391" offset="1" style="stop-color:#3f3f3f;stop-opacity:1"/></linearGradient><linearGradient id="linearGradient4381"><stop id="stop4383" offset="0" style="stop-color:#101010;stop-opacity:1"/><stop id="stop4385" offset="1" style="stop-color:#3f3f3f;stop-opacity:1"/></linearGradient><linearGradient id="linearGradient4375"><stop id="stop4377" offset="0" style="stop-color:#101010;stop-opacity:1"/><stop id="stop4379" offset="1" style="stop-color:#3f3f3f;stop-opacity:1"/></linearGradient><linearGradient id="linearGradient4369"><stop id="stop4371" offset="0" style="stop-color:#101010;stop-opacity:1"/><stop id="stop4373" offset="1" style="stop-color:#3f3f3f;stop-opacity:1"/></linearGradient><linearGradient id="linearGradient4167"><stop style="stop-color:#000;stop-opacity:1" id="stop4169" offset="0"/><stop style="stop-color:#3f3f3f;stop-opacity:1" id="stop4171" offset="1"/></linearGradient><radialGradient id="radialGradient4253" cx="21.58" cy="1022.626" r="20.58" fx="21.58" fy="1022.626" gradientTransform="matrix(0.90672289,0,0,0.27475512,0.23649421,700.68263)" gradientUnits="userSpaceOnUse" xlink:href="#linearGradient4167"/><radialGradient id="radialGradient4255" cx="21.58" cy="1005.179" r="20.58" fx="21.58" fy="1005.179" gradientTransform="matrix(0.90672289,0,0,0.77178533,0.23649421,190.05229)" gradientUnits="userSpaceOnUse" xlink:href="#linearGradient4369"/><radialGradient id="radialGradient4257" cx="21.58" cy="1022.626" r="20.58" fx="21.58" fy="1022.626" gradientTransform="matrix(0.90672289,0,0,0.27475512,41.88828,700.77192)" gradientUnits="userSpaceOnUse" xlink:href="#linearGradient4167"/><radialGradient id="radialGradient4259" cx="21.58" cy="1005.179" r="20.58" fx="21.58" fy="1005.179" gradientTransform="matrix(0.90672289,0,0,0.77178533,41.88828,190.14158)" gradientUnits="userSpaceOnUse" xlink:href="#linearGradient4375"/><radialGradient id="radialGradient4261" cx="21.58" cy="1022.626" r="20.58" fx="21.58" fy="1022.626" gradientTransform="matrix(0.90672289,0,0,0.27475512,83.540065,700.59335)" gradientUnits="userSpaceOnUse" xlink:href="#linearGradient4167"/><radialGradient id="radialGradient4263" cx="21.58" cy="1005.179" r="20.58" fx="21.58" fy="1005.179" gradientTransform="matrix(0.90672289,0,0,0.77178533,83.540065,189.96301)" gradientUnits="userSpaceOnUse" xlink:href="#linearGradient4381"/><radialGradient id="radialGradient4283" cx="21.58" cy="1022.626" r="20.58" fx="21.58" fy="1022.626" gradientTransform="matrix(0.90672289,0,0,0.27475512,88.629351,739.78978)" gradientUnits="userSpaceOnUse" xlink:href="#linearGradient4167"/><radialGradient id="radialGradient4285" cx="21.58" cy="1005.179" r="20.58" fx="21.58" fy="1005.179" gradientTransform="matrix(0.90672289,0,0,0.77178533,88.629351,229.15943)" gradientUnits="userSpaceOnUse" xlink:href="#linearGradient4399"/><radialGradient id="radialGradient4287" cx="21.58" cy="1022.626" r="20.58" fx="21.58" fy="1022.626" gradientTransform="matrix(0.90672289,0,0,0.27475512,46.798996,740.14692)" gradientUnits="userSpaceOnUse" xlink:href="#linearGradient4167"/><radialGradient id="radialGradient4289" cx="21.58" cy="1005.179" r="20.58" fx="21.58" fy="1005.179" gradientTransform="matrix(0.90672289,0,0,0.77178533,46.798996,229.51658)" gradientUnits="userSpaceOnUse" xlink:href="#linearGradient4393"/><radialGradient id="radialGradient4291" cx="21.58" cy="1022.626" r="20.58" fx="21.58" fy="1022.626" gradientTransform="matrix(0.90672289,0,0,0.27475512,4.968637,740.23621)" gradientUnits="userSpaceOnUse" xlink:href="#linearGradient4167"/><radialGradient id="radialGradient4293" cx="21.58" cy="1005.179" r="20.58" fx="21.58" fy="1005.179" gradientTransform="matrix(0.90672289,0,0,0.77178533,4.968637,229.60586)" gradientUnits="userSpaceOnUse" xlink:href="#linearGradient4387"/></defs><metadata id="metadata7"/><g id="layer1" transform="translate(0,-924.36216)"><path style="fill:url(#radialGradient4261);fill-opacity:1" id="path4237" d="m 114.27797,983.4075 -22.341653,0 c -4.062118,0 -7.489531,-3.30364 -7.489531,-7.49687 l 0,3.81195 c 0,4.0662 3.300471,7.49697 7.489531,7.49697 l 22.341653,0 c 4.06212,0 7.48953,-3.30374 7.48953,-7.49697 l 0,-3.68492 c -0.12694,4.0662 -3.42741,7.36984 -7.48953,7.36984 z"/><path style="fill:url(#radialGradient4263);fill-opacity:1" id="path4239" d="m 114.27797,949.86192 -22.341653,0 c -4.062118,0 -7.489531,3.30373 -7.489531,7.49694 l 0,16.77287 c 0,4.0661 3.300471,7.49687 7.489531,7.49687 l 22.341653,0 c 4.06212,0 7.48953,-3.30373 7.48953,-7.49687 l 0,-16.77287 c -0.12694,-4.19321 -3.42741,-7.49694 -7.48953,-7.49694 z"/><path id="path4243" d="m 72.626183,983.58607 -22.341651,0 c -4.062118,0 -7.489531,-3.30364 -7.489531,-7.49687 l 0,3.81195 c 0,4.0662 3.300471,7.49697 7.489531,7.49697 l 22.341651,0 c 4.062118,0 7.48953,-3.30374 7.48953,-7.49697 l 0,-3.68492 c -0.126941,4.0662 -3.427412,7.36984 -7.48953,7.36984 z" style="fill:url(#radialGradient4257);fill-opacity:1"/><path id="path4245" d="m 72.626183,950.04049 -22.341651,0 c -4.062118,0 -7.489531,3.30373 -7.489531,7.49694 l 0,16.77287 c 0,4.0661 3.300471,7.49687 7.489531,7.49687 l 22.341651,0 c 4.062118,0 7.48953,-3.30373 7.48953,-7.49687 l 0,-16.77287 c -0.126941,-4.19321 -3.427412,-7.49694 -7.48953,-7.49694 z" style="fill:url(#radialGradient4259);fill-opacity:1"/><path style="fill:url(#radialGradient4253);fill-opacity:1" id="path4249" d="m 30.974397,983.49679 -22.3416506,0 c -4.0621186,0 -7.4895311,-3.30365 -7.4895311,-7.49688 l 0,3.81195 c 0,4.0662 3.3004713,7.49697 7.4895311,7.49697 l 22.3416506,0 c 4.062118,0 7.489531,-3.30374 7.489531,-7.49697 l 0,-3.68492 c -0.126942,4.0662 -3.427413,7.36985 -7.489531,7.36985 z"/><path style="fill:url(#radialGradient4255);fill-opacity:1" id="path4251" d="m 30.974397,949.9512 -22.3416506,0 c -4.0621186,0 -7.4895311,3.30374 -7.4895311,7.49694 l 0,16.77287 c 0,4.06611 3.3004713,7.49688 7.4895311,7.49688 l 22.3416506,0 c 4.062118,0 7.489531,-3.30374 7.489531,-7.49688 l 0,-16.77287 c -0.126942,-4.1932 -3.427413,-7.49694 -7.489531,-7.49694 z"/><path style="fill:url(#radialGradient4291);fill-opacity:1" id="path4267" d="m 35.70654,1023.0504 -22.341651,0 c -4.0621184,0 -7.4895309,-3.3037 -7.4895309,-7.4969 l 0,3.8119 c 0,4.0662 3.3004713,7.497 7.4895309,7.497 l 22.341651,0 c 4.062118,0 7.48953,-3.3037 7.48953,-7.497 l 0,-3.6849 c -0.126941,4.0662 -3.427412,7.3699 -7.48953,7.3699 z"/><path style="fill:url(#radialGradient4293);fill-opacity:1" id="path4269" d="m 35.70654,989.50477 -22.341651,0 c -4.0621184,0 -7.4895309,3.30374 -7.4895309,7.49694 l 0,16.77289 c 0,4.0661 3.3004713,7.4969 7.4895309,7.4969 l 22.341651,0 c 4.062118,0 7.48953,-3.3038 7.48953,-7.4969 l 0,-16.77289 c -0.126941,-4.1932 -3.427412,-7.49694 -7.48953,-7.49694 z"/><path id="path4273" d="m 77.536899,1022.9611 -22.341651,0 c -4.062118,0 -7.489531,-3.3037 -7.489531,-7.4969 l 0,3.8119 c 0,4.0662 3.300471,7.497 7.489531,7.497 l 22.341651,0 c 4.062118,0 7.48953,-3.3037 7.48953,-7.497 l 0,-3.6849 c -0.126941,4.0662 -3.427412,7.3699 -7.48953,7.3699 z" style="fill:url(#radialGradient4287);fill-opacity:1"/><path id="path4275" d="m 77.536899,989.41549 -22.341651,0 c -4.062118,0 -7.489531,3.30373 -7.489531,7.49694 l 0,16.77287 c 0,4.0661 3.300471,7.4969 7.489531,7.4969 l 22.341651,0 c 4.062118,0 7.48953,-3.3038 7.48953,-7.4969 l 0,-16.77287 c -0.126941,-4.19321 -3.427412,-7.49694 -7.48953,-7.49694 z" style="fill:url(#radialGradient4289);fill-opacity:1"/><path style="fill:url(#radialGradient4283);fill-opacity:1" id="path4279" d="m 119.36725,1022.6039 -22.341647,0 c -4.062118,0 -7.489531,-3.3036 -7.489531,-7.4968 l 0,3.8119 c 0,4.0662 3.300471,7.497 7.489531,7.497 l 22.341647,0 c 4.06212,0 7.48953,-3.3038 7.48953,-7.497 l 0,-3.6849 c -0.12694,4.0662 -3.42741,7.3698 -7.48953,7.3698 z"/><path style="fill:url(#radialGradient4285);fill-opacity:1" id="path4281" d="m 119.36725,989.05835 -22.341647,0 c -4.062118,0 -7.489531,3.30373 -7.489531,7.49694 l 0,16.77291 c 0,4.0661 3.300471,7.4968 7.489531,7.4968 l 22.341647,0 c 4.06212,0 7.48953,-3.3037 7.48953,-7.4968 l 0,-16.77291 c -0.12694,-4.19321 -3.42741,-7.49694 -7.48953,-7.49694 z"/><g style="font-style:normal;font-weight:400;font-size:15px;line-height:125%;font-family:Sans;letter-spacing:0;word-spacing:0;fill:#d9d9d9;fill-opacity:1;stroke:none;stroke-width:1px;stroke-linecap:butt;stroke-linejoin:miter;stroke-opacity:1" id="text4315"><path id="path4406" d="m 14.838572,964.55953 q 0,-1.335 0.39,-2.355 0.405,-1.02 1.08,-1.695 0.69,-0.69 1.59,-1.035 0.915,-0.345 1.935,-0.345 1.005,0 1.89,0.345 0.9,0.345 1.575,1.035 0.675,0.675 1.065,1.695 0.405,1.02 0.405,2.355 0,1.17 -0.3,2.085 -0.3,0.915 -0.84,1.59 -0.525,0.66 -1.245,1.08 -0.705,0.405 -1.515,0.555 0.015,0.345 0.3,0.6 0.3,0.27 0.75,0.45 0.45,0.18 1.005,0.3 0.555,0.12 1.11,0.18 l -0.345,1.14 q -0.78,-0.105 -1.5,-0.285 -0.705,-0.165 -1.29,-0.45 -0.57,-0.285 -0.96,-0.735 -0.39,-0.435 -0.525,-1.095 -0.945,-0.06 -1.785,-0.435 -0.84,-0.39 -1.455,-1.065 -0.615,-0.69 -0.975,-1.665 -0.36,-0.975 -0.36,-2.25 z m 1.53,0 q 0,0.945 0.24,1.725 0.24,0.765 0.675,1.305 0.45,0.54 1.08,0.84 0.645,0.285 1.44,0.285 0.795,0 1.425,-0.285 0.63,-0.3 1.065,-0.84 0.45,-0.54 0.69,-1.305 0.24,-0.78 0.24,-1.725 0,-0.945 -0.24,-1.71 -0.24,-0.78 -0.69,-1.32 -0.435,-0.54 -1.065,-0.825 -0.63,-0.3 -1.425,-0.3 -0.795,0 -1.44,0.3 -0.63,0.285 -1.08,0.825 -0.435,0.54 -0.675,1.32 -0.24,0.765 -0.24,1.71 z"/></g><g style="font-style:normal;font-weight:400;font-size:15px;line-height:125%;font-family:Sans;letter-spacing:0;word-spacing:0;fill:#d9d9d9;fill-opacity:1;stroke:none;stroke-width:1px;stroke-linecap:butt;stroke-linejoin:miter;stroke-opacity:1" id="text4319"><path id="path4409" d="m 61.462858,964.07134 q -0.63,2.01 -1.275,3.72 -0.645,1.71 -1.29,3.33 l -1.455,0 q -0.795,-2.295 -1.41,-4.845 -0.6,-2.55 -1.125,-5.55 l 1.53,0 q 0.21,1.17 0.435,2.34 0.225,1.17 0.465,2.28 0.24,1.095 0.48,2.1 0.24,1.005 0.495,1.86 0.6,-1.575 1.275,-3.45 0.675,-1.89 1.26,-3.9 l 1.26,0 q 0.585,2.01 1.275,3.9 0.69,1.875 1.29,3.45 0.24,-0.84 0.48,-1.845 0.24,-1.005 0.465,-2.1 0.24,-1.11 0.465,-2.28 0.225,-1.185 0.435,-2.355 l 1.485,0 q -0.54,3 -1.155,5.55 -0.6,2.55 -1.38,4.845 l -1.455,0 q -0.66,-1.62 -1.29,-3.33 -0.63,-1.71 -1.26,-3.72 z"/></g><g style="font-style:normal;font-weight:400;font-size:15px;line-height:125%;font-family:Sans;letter-spacing:0;word-spacing:0;fill:#d9d9d9;fill-opacity:1;stroke:none;stroke-width:1px;stroke-linecap:butt;stroke-linejoin:miter;stroke-opacity:1" id="text4323"><path id="path4412" d="m 99.747146,970.94275 0,-10.395 6.345004,0 0,1.245 -4.89,0 0,3.09 4.35,0 0,1.215 -4.35,0 0,3.6 5.265,0 0,1.245 -6.720004,0 z"/></g><g style="font-style:normal;font-weight:400;font-size:15px;line-height:125%;font-family:Sans;letter-spacing:0;word-spacing:0;fill:#d9d9d9;fill-opacity:1;stroke:none;stroke-width:1px;stroke-linecap:butt;stroke-linejoin:miter;stroke-opacity:1" id="text4327"><path id="path4415" d="m 27.798213,1010.5856 q -0.255,-0.675 -0.48,-1.32 -0.225,-0.66 -0.465,-1.335 l -4.71,0 -0.945,2.655 -1.515,0 q 0.6,-1.65 1.125,-3.045 0.525,-1.41 1.02,-2.67 0.51,-1.26 1.005,-2.4 0.495,-1.155 1.035,-2.28 l 1.335,0 q 0.54,1.125 1.035,2.28 0.495,1.14 0.99,2.4 0.51,1.26 1.035,2.67 0.525,1.395 1.125,3.045 l -1.59,0 z m -1.365,-3.855 q -0.48,-1.305 -0.96,-2.52 -0.465,-1.23 -0.975,-2.355 -0.525,1.125 -1.005,2.355 -0.465,1.215 -0.93,2.52 l 3.87,0 z"/></g><g style="font-style:normal;font-weight:400;font-size:15px;line-height:125%;font-family:Sans;letter-spacing:0;word-spacing:0;fill:#d9d9d9;fill-opacity:1;stroke:none;stroke-width:1px;stroke-linecap:butt;stroke-linejoin:miter;stroke-opacity:1" id="text4331"><path id="path4418" d="m 66.066073,1009.4688 q 2.28,0 2.28,-1.56 0,-0.48 -0.21,-0.81 -0.195,-0.345 -0.54,-0.585 -0.345,-0.255 -0.795,-0.435 -0.435,-0.18 -0.93,-0.36 -0.57,-0.195 -1.08,-0.435 -0.51,-0.255 -0.885,-0.585 -0.375,-0.345 -0.6,-0.81 -0.21,-0.465 -0.21,-1.125 0,-1.365 0.93,-2.13 0.93,-0.76502 2.565,-0.76502 0.945,0 1.71,0.21002 0.78,0.195 1.14,0.435 l -0.465,1.185 q -0.315,-0.195 -0.945,-0.375 -0.615,-0.195 -1.44,-0.195 -0.42,0 -0.78,0.09 -0.36,0.09 -0.63,0.27 -0.27,0.18 -0.435,0.465 -0.15,0.27 -0.15,0.645 0,0.42 0.165,0.705 0.165,0.285 0.465,0.51 0.3,0.21 0.69,0.39 0.405,0.18 0.885,0.36 0.675,0.27 1.23,0.54 0.57,0.27 0.975,0.645 0.42,0.375 0.645,0.9 0.225,0.51 0.225,1.245 0,1.365 -1.005,2.1 -0.99,0.735 -2.805,0.735 -0.615,0 -1.14,-0.09 -0.51,-0.075 -0.915,-0.18 -0.405,-0.12 -0.705,-0.24 -0.285,-0.135 -0.45,-0.225 l 0.435,-1.2 q 0.345,0.195 1.05,0.435 0.705,0.24 1.725,0.24 z"/></g><g style="font-style:normal;font-weight:400;font-size:15px;line-height:125%;font-family:Sans;letter-spacing:0;word-spacing:0;fill:#d9d9d9;fill-opacity:1;stroke:none;stroke-width:1px;stroke-linecap:butt;stroke-linejoin:miter;stroke-opacity:1" id="text4335"><path id="path4421" d="m 112.46392,1004.9417 q 0,1.35 -0.42,2.355 -0.42,0.99 -1.185,1.65 -0.765,0.645 -1.83,0.975 -1.065,0.315 -2.34,0.315 -0.63,0 -1.395,-0.06 -0.75,-0.045 -1.365,-0.195 l 0,-10.07997 q 0.615,-0.15 1.365,-0.195 0.765,-0.06 1.395,-0.06 1.275,0 2.34,0.33 1.065,0.31497 1.83,0.97497 0.765,0.645 1.185,1.65 0.42,0.99 0.42,2.34 z m -5.655,4.02 q 2.07,0 3.09,-1.05 1.02,-1.065 1.02,-2.97 0,-1.905 -1.02,-2.955 -1.02,-1.065 -3.09,-1.065 -0.615,0 -0.96,0.015 -0.33,0.015 -0.465,0.03 l 0,7.95 q 0.135,0.015 0.465,0.03 0.345,0.015 0.96,0.015 z"/></g></g></svg>