<svg xmlns="http://www.w3.org/2000/svg" viewBox="0 0 128 128" enable-background="new 0 0 128 128"><style type="text/css">.st0{fill:url(#SVGID_1_);} .st1{fill:#FFFFFF;}</style><radialGradient id="SVGID_1_" cx="63.999" cy="-6231.443" r="38.535" gradientUnits="userSpaceOnUse"><stop offset="0"/><stop offset="1" stop-color="#3F3F3F"/></radialGradient><path class="st0" d="M114.3 59h-22.4c-4.1 0-7.5-3.3-7.5-7.5v3.8c0 4.1 3.3 7.5 7.5 7.5h22.3c4.1 0 7.5-3.3 7.5-7.5v-3.7c-.1 4.1-3.4 7.4-7.4 7.4zm0-33.5h-22.4c-4.1 0-7.5 3.3-7.5 7.5v16.8c0 4.1 3.3 7.5 7.5 7.5h22.3c4.1 0 7.5-3.3 7.5-7.5v-16.8c-.1-4.2-3.4-7.5-7.4-7.5zm-41.7 33.7h-22.3c-4.1 0-7.5-3.3-7.5-7.5v3.8c0 4.1 3.3 7.5 7.5 7.5h22.3c4.1 0 7.5-3.3 7.5-7.5v-3.7c-.1 4.1-3.4 7.4-7.5 7.4zm0-33.5h-22.3c-4.1 0-7.5 3.3-7.5 7.5v16.8c0 4.1 3.3 7.5 7.5 7.5h22.3c4.1 0 7.5-3.3 7.5-7.5v-16.8c-.1-4.2-3.4-7.5-7.5-7.5zm-41.6 33.4h-22.4c-4.1 0-7.5-3.3-7.5-7.5v3.8c0 4.1 3.3 7.5 7.5 7.5h22.4c4.1 0 7.5-3.3 7.5-7.5v-3.7c-.2 4.1-3.5 7.4-7.5 7.4zm0-33.5h-22.4c-4.1 0-7.5 3.3-7.5 7.5v16.8c0 4.1 3.3 7.5 7.5 7.5h22.4c4.1 0 7.5-3.3 7.5-7.5v-16.8c-.2-4.2-3.5-7.5-7.5-7.5zm4.7 73.1h-22.3c-4.1 0-7.5-3.3-7.5-7.5v3.8c0 4.1 3.3 7.5 7.5 7.5h22.3c4.1 0 7.5-3.3 7.5-7.5v-3.7c-.1 4.1-3.4 7.4-7.5 7.4zm0-33.6h-22.3c-4.1 0-7.5 3.3-7.5 7.5v16.8c0 4.1 3.3 7.5 7.5 7.5h22.3c4.1 0 7.5-3.3 7.5-7.5v-16.8c-.1-4.2-3.4-7.5-7.5-7.5zm41.8 33.5h-22.3c-4.1 0-7.5-3.3-7.5-7.5v3.8c0 4.1 3.3 7.5 7.5 7.5h22.3c4.1 0 7.5-3.3 7.5-7.5v-3.7c-.1 4.1-3.4 7.4-7.5 7.4zm0-33.5h-22.3c-4.1 0-7.5 3.3-7.5 7.5v16.8c0 4.1 3.3 7.5 7.5 7.5h22.3c4.1 0 7.5-3.3 7.5-7.5v-16.8c-.1-4.2-3.4-7.5-7.5-7.5zm41.9 33.1h-22.4c-4.1 0-7.5-3.3-7.5-7.5v3.8c0 4.1 3.3 7.5 7.5 7.5h22.3c4.1 0 7.5-3.3 7.5-7.5v-3.7c-.1 4.1-3.4 7.4-7.4 7.4zm0-33.5h-22.4c-4.1 0-7.5 3.3-7.5 7.5v16.8c0 4.1 3.3 7.5 7.5 7.5h22.3c4.1 0 7.5-3.3 7.5-7.5v-16.8c-.1-4.2-3.4-7.5-7.4-7.5z"/><path class="st1" d="M15.3 41.4c0-2.9 1.6-4.7 4.1-4.7 2.6 0 4.2 1.8 4.2 4.7v1.7c0 1.7-.5 3-1.4 3.8l1.5 2h-1.1l-1.1-1.5c-.6.3-1.2.4-1.9.4-2.6 0-4.1-1.8-4.1-4.7v-1.7zm1 1.7c0 2.4 1.3 3.8 3.2 3.8.5 0 1-.1 1.4-.3l-1.4-1.9h1.2l1 1.3c.6-.6 1-1.6 1-2.9v-1.7c0-2.4-1.3-3.8-3.2-3.8s-3.2 1.4-3.2 3.8v1.7zm41.8 5.3l-2.9-10.6h1.2l2.2 8.9 2.4-8.9h1.1l2.4 8.9 2.2-8.9h1.2l-2.9 10.6h-.9l-2.5-9-2.5 9h-1zm47.6 0h-6.2v-10.7h6.2v.9h-5.2v3.8h4.9v.9h-4.9v4.1h5.2v1zm-85.7 38l3.8-10.6h1l3.8 10.6h-1.1l-1.1-3.4h-4.2l-1.2 3.4h-1zm4.3-9.4l-1.8 5.2h3.6l-1.8-5.2zm39.3 7.3c.1 1 .9 2.1 2.8 2.1 1.6 0 2.7-.8 2.7-2.1 0-1.1-.7-1.6-2.1-2l-1.7-.4c-1.3-.4-2.5-1.1-2.5-2.7 0-1.9 1.6-3 3.5-3s3.5 1 3.5 2.9h-1c-.1-1-.9-2-2.5-2-1.5 0-2.5.8-2.5 2 0 1 .6 1.5 1.7 1.8l1.7.5c1.7.5 2.8 1.2 2.8 2.9 0 2-1.7 3.1-3.8 3.1-2.7 0-3.7-1.7-3.7-3h1.1zm44.9-7.8c3.4 0 4.7 2.2 4.7 5.3 0 3.1-1.2 5.3-4.7 5.3h-3.1v-10.6h3.1zm-2.2 9.7h2.1c2.6 0 3.7-1.6 3.7-4.4 0-2.7-1.1-4.4-3.7-4.4h-2.1v8.8z"/></svg>