<svg xmlns="http://www.w3.org/2000/svg" width="128" height="128" viewBox="0 0 128 128"><g fill="#0e00c1"><path d="M64 2.925l-63 47.095v74.894h125.985v-74.894l-62.985-47.095z"/><path d="M46.572 36.53c1.849-3.383 4.396-5.93 7.627-7.621 3.223-1.705 6.901-2.563 11.061-2.563 3.507 0 6.639.69 9.379 2.049 2.739 1.38 4.823 3.321 6.284 5.848 1.426 2.53 2.165 5.288 2.165 8.274 0 3.564-1.099 6.786-3.298 9.67-2.756 3.635-6.274 5.449-10.581 5.449-1.159 0-2.026-.193-2.62-.603-.578-.416-.984-1.002-1.177-1.791-1.619 1.605-3.534 2.411-5.685 2.411-2.321 0-4.244-.804-5.771-2.393-1.53-1.605-2.292-3.745-2.292-6.393 0-3.305.916-6.29 2.761-8.996 2.243-3.305 5.097-4.964 8.592-4.964 2.488 0 4.326.953 5.504 2.863l.524-2.328h5.544l-3.165 15.034c-.198.961-.296 1.564-.296 1.845 0 .362.082.603.236.788.157.176.353.262.565.262.691 0 1.551-.393 2.607-1.22 1.427-1.052 2.577-2.496 3.455-4.274.878-1.791 1.329-3.646 1.329-5.564 0-3.434-1.239-6.308-3.726-8.636-2.492-2.3-5.972-3.465-10.42-3.465-3.791 0-6.997.772-9.626 2.328-2.629 1.532-4.614 3.716-5.964 6.525-1.329 2.791-1.993 5.721-1.993 8.755 0 2.944.759 5.633 2.235 8.047 1.497 2.431 3.58 4.189 6.266 5.305 2.686 1.105 5.771 1.659 9.232 1.659 3.322 0 6.192-.465 8.604-1.397 2.411-.931 4.339-2.311 5.807-4.189h4.446c-1.394 2.842-3.528 5.063-6.414 6.685-3.314 1.845-7.35 2.76-12.108 2.76-4.622 0-8.595-.772-11.947-2.328-3.36-1.564-5.843-3.86-7.492-6.899-1.628-3.042-2.431-6.357-2.431-9.941.003-3.929.919-7.595 2.78-10.991z" fill="#7a85f8"/><path d="M66.269 39.959c.738.842 1.107 2.054 1.107 3.635 0 1.413-.276 2.944-.813 4.566-.529 1.643-1.177 2.896-1.915 3.745-.504.595-1.042 1.034-1.571 1.31-.695.395-1.435.587-2.233.587-1.068.01-1.948-.419-2.679-1.259-.713-.842-1.066-2.135-1.066-3.909 0-1.331.25-2.863.771-4.582.521-1.726 1.283-3.039 2.302-3.979 1.025-.933 2.132-1.397 3.326-1.397 1.118.008 2.048.435 2.77 1.285z"/><path d="M8.972 121.136l55.028-42.64 55.011 42.64h-110.039zm113.567-2.397l-46.471-36.021 46.473-31.212v67.234zm-117.097-67.234l46.481 31.212-46.481 36.021v-67.234z" fill="#7a85f8"/></g></svg>