<svg xmlns="http://www.w3.org/2000/svg" xmlns:xlink="http://www.w3.org/1999/xlink" width="128" height="128" viewBox="0 0 128 128"><defs><linearGradient id="a"><stop offset="0" stop-color="#1d4623"/><stop offset="1" stop-color="#4cb45b"/></linearGradient><linearGradient xlink:href="#a" id="b" y1="231.185" x2="462.368" y2="231.185" gradientUnits="userSpaceOnUse"/></defs><path d="M1 102.888v-16.345c16.915 0 25.363-8.502 33.535-16.725 1.99-2.004 4.004-4.021 6.12-5.888-2.117-1.863-4.131-3.882-6.12-5.888-8.171-8.221-16.62-16.725-33.535-16.725v-16.345c23.55 0 35.878 12.407 44.876 21.466 5.337 5.372 8.768 8.65 12.427 9.285.437-.024 40.047.12 40.047.12l-6.619-16.995c-.223-.57-.042-1.22.442-1.588.481-.368 1.146-.367 1.623.007l32.909 25.67c.329.258.521.658.521 1.08 0 .422-.192.822-.521 1.079l-32.909 25.671c-.241.187-.529.282-.817.282-.284 0-.568-.092-.807-.275-.484-.367-.661-1.019-.442-1.588l6.619-16.998h-38.781l-.036-.003c-.418 0-.823-.026-1.23-.048-3.66.633-7.089 3.912-12.427 9.285-8.999 9.057-21.327 21.464-44.876 21.464z" fill="url(#b)"/></svg>