<svg xmlns="http://www.w3.org/2000/svg" xmlns:svg="http://www.w3.org/2000/svg" xmlns:xlink="http://www.w3.org/1999/xlink" id="svg2" width="128" height="128" version="1.1" viewBox="0 0 128 128"><defs id="defs4"><linearGradient id="linearGradient4172"><stop style="stop-color:#1d4623;stop-opacity:1" id="stop4174" offset="0"/><stop style="stop-color:#4cb45b;stop-opacity:1" id="stop4176" offset="1"/></linearGradient><linearGradient id="linearGradient4178" x1="0" x2="462.368" y1="231.185" y2="231.185" gradientUnits="userSpaceOnUse" xlink:href="#linearGradient4172"/></defs><metadata id="metadata7"/><g id="layer1" transform="translate(0,-924.36216)"><g id="g3" transform="matrix(0.27251021,0,0,0.27730277,0.99999961,924.25406)" style="fill-opacity:1;fill:url(#linearGradient4178)"><path style="fill:url(#linearGradient4178);fill-opacity:1" id="path5" d="m 0,371.825 0,-59.007 c 61.959,0 92.905,-30.694 122.837,-60.378 7.288,-7.235 14.665,-14.518 22.419,-21.256 -7.755,-6.727 -15.131,-14.014 -22.419,-21.255 C 92.905,180.249 61.959,149.551 0,149.551 L 0,90.544 c 86.262,0 131.42,44.789 164.381,77.496 19.55,19.394 32.116,31.227 45.521,33.52 1.599,-0.085 146.694,0.434 146.694,0.434 L 332.35,140.64 c -0.816,-2.057 -0.154,-4.406 1.619,-5.733 1.762,-1.33 4.197,-1.324 5.946,0.026 l 120.544,92.672 c 1.206,0.931 1.909,2.374 1.909,3.898 0,1.524 -0.703,2.968 -1.909,3.896 l -120.544,92.675 c -0.881,0.674 -1.938,1.017 -2.991,1.017 -1.04,0 -2.08,-0.331 -2.955,-0.993 -1.773,-1.324 -2.423,-3.677 -1.619,-5.733 L 356.596,261 214.54,261 c -0.047,0 -0.092,-0.012 -0.133,-0.012 -1.531,0 -3.015,-0.095 -4.504,-0.172 -13.406,2.287 -25.966,14.121 -45.521,33.52 C 131.42,327.034 86.262,371.825 0,371.825 Z"/></g></g></svg>