<svg xmlns="http://www.w3.org/2000/svg" xmlns:xlink="http://www.w3.org/1999/xlink" width="128" height="128" viewBox="0 0 128 128"><defs><linearGradient id="a"><stop offset="0" stop-color="#1d4623"/><stop offset="1" stop-color="#4cb45b"/></linearGradient><linearGradient xlink:href="#a" y1="231.185" x2="462.368" y2="231.185" gradientUnits="userSpaceOnUse"/><linearGradient xlink:href="#a" id="b" gradientUnits="userSpaceOnUse" y1="231.185" x2="462.368" y2="231.185"/></defs><path d="M1 103.931v-31.995c.081-2.343.854-3.408 2.196-3.469l25.285-.047c.837-.01.976.773.976 1.563l-.054 32.784c.061 1.191-.935 1.187-.935 1.187l-2.091.032c-.057 1.253-.082 1.303-.976 1.268h-23.141c-1.183 0-1.261.059-1.261-1.324z" fill="#9b97d5" fill-rule="evenodd"/><path d="M2.731 71.446h22.294c1.741.029 1.553.797 1.566 2.875l.055 28.012c.552.043 1.399-.56 1.388-1.517l-.055-28.772c.046-1.917-.405-1.917-1.302-1.996h-22.798c-.868-.054-1.102.25-1.148 1.398z" fill="#fdfdfe" fill-rule="evenodd"/><path d="M40.473 89.251v-11.034c11.586 0 17.373-5.74 22.971-11.291 1.363-1.353 2.742-2.715 4.192-3.975-1.45-1.258-2.829-2.621-4.192-3.975-5.597-5.55-11.384-11.291-22.971-11.291v-11.034c16.131 0 24.576 8.376 30.739 14.492 3.656 3.627 6.006 5.839 8.512 6.268.299-.016 27.432.081 27.432.081l-4.534-11.473c-.153-.385-.029-.824.303-1.072.329-.249.785-.248 1.112.005l22.542 17.33c.226.174.357.444.357.729s-.131.555-.357.729l-22.542 17.33c-.165.126-.362.19-.559.19-.194 0-.389-.062-.553-.186-.332-.248-.453-.688-.303-1.072l4.534-11.475h-26.564l-.025-.002c-.286 0-.564-.018-.842-.032-2.507.428-4.856 2.641-8.512 6.268-6.164 6.115-14.608 14.49-30.739 14.49z" fill="url(#b)"/><g fill-rule="evenodd"><path d="M1 58.751v-31.995c.081-2.343.854-3.408 2.196-3.469l25.285-.047c.837-.01.976.773.976 1.563l-.054 32.784c.061 1.191-.935 1.187-.935 1.187l-2.091.032c-.057 1.253-.082 1.303-.976 1.268h-23.141c-1.183 0-1.261.059-1.261-1.324z" fill="#312fac"/><path d="M2.731 26.266h22.294c1.741.029 1.553.797 1.566 2.875l.055 28.012c.552.043 1.399-.56 1.388-1.517l-.055-28.772c.046-1.917-.405-1.917-1.302-1.996h-22.798c-.868-.054-1.102.25-1.148 1.398z" fill="#fff"/></g></svg>