<svg xmlns="http://www.w3.org/2000/svg" xmlns:svg="http://www.w3.org/2000/svg" xmlns:xlink="http://www.w3.org/1999/xlink" id="svg2" width="128" height="128" version="1.1" viewBox="0 0 128 128"><defs id="defs4"><linearGradient id="linearGradient4172"><stop style="stop-color:#1d4623;stop-opacity:1" id="stop4174" offset="0"/><stop style="stop-color:#4cb45b;stop-opacity:1" id="stop4176" offset="1"/></linearGradient><linearGradient id="linearGradient4178" x1="0" x2="462.368" y1="231.185" y2="231.185" gradientUnits="userSpaceOnUse" xlink:href="#linearGradient4172"/><linearGradient id="linearGradient4199" x1="0" x2="462.368" y1="231.185" y2="231.185" gradientUnits="userSpaceOnUse" xlink:href="#linearGradient4172"/></defs><metadata id="metadata7"/><g id="layer1" transform="translate(0,-924.36216)"><g id="g4225" transform="matrix(1.020981,0,0,1.0017463,-3.4303251,-3.0496196)"><path style="fill:#9b97d5;fill-opacity:1;fill-rule:evenodd;stroke:#000;stroke-width:0;stroke-linecap:butt;stroke-linejoin:round;stroke-miterlimit:4;stroke-dasharray:none;stroke-opacity:1" id="path4213" d="m 4.3392884,1029.2842 0,-31.93108 c 0.079667,-2.33827 0.8365064,-3.40112 2.1510165,-3.46186 l 24.7654141,-0.0469 c 0.820268,-0.0101 0.955974,0.77195 0.955974,1.55993 l -0.05248,32.71891 c 0.0595,1.1888 -0.916174,1.1843 -0.916174,1.1843 l -2.047561,0.032 c -0.05554,1.2504 -0.07987,1.3008 -0.956006,1.2654 l -22.6653401,0 c -1.1585389,0 -1.2348424,0.059 -1.2348424,-1.3209 z"/><path style="fill:#fdfdfe;fill-opacity:1;fill-rule:evenodd;stroke:#000;stroke-width:0;stroke-linecap:round;stroke-linejoin:round;stroke-miterlimit:4;stroke-dasharray:none;stroke-opacity:1" id="path4215" d="m 6.0344354,996.86386 21.8351196,0 c 1.705024,0.0292 1.520813,0.79562 1.533562,2.86964 l 0.05393,27.9561 c 0.540739,0.043 1.370134,-0.5585 1.359809,-1.5143 l -0.05393,-28.71451 c 0.0448,-1.9133 -0.396502,-1.9133 -1.275386,-1.99182 l -22.3290696,0 c -0.850251,-0.0535 -1.0792312,0.24967 -1.1240282,1.39489 z"/><g style="fill:url(#linearGradient4178);fill-opacity:1" id="g3" transform="matrix(0.18329556,0,0,0.18651913,43,945.24183)"><path id="path5" d="m 0,371.825 0,-59.007 c 61.959,0 92.905,-30.694 122.837,-60.378 7.288,-7.235 14.665,-14.518 22.419,-21.256 -7.755,-6.727 -15.131,-14.014 -22.419,-21.255 C 92.905,180.249 61.959,149.551 0,149.551 L 0,90.544 c 86.262,0 131.42,44.789 164.381,77.496 19.55,19.394 32.116,31.227 45.521,33.52 1.599,-0.085 146.694,0.434 146.694,0.434 L 332.35,140.64 c -0.816,-2.057 -0.154,-4.406 1.619,-5.733 1.762,-1.33 4.197,-1.324 5.946,0.026 l 120.544,92.672 c 1.206,0.931 1.909,2.374 1.909,3.898 0,1.524 -0.703,2.968 -1.909,3.896 l -120.544,92.675 c -0.881,0.674 -1.938,1.017 -2.991,1.017 -1.04,0 -2.08,-0.331 -2.955,-0.993 -1.773,-1.324 -2.423,-3.677 -1.619,-5.733 L 356.596,261 214.54,261 c -0.047,0 -0.092,-0.012 -0.133,-0.012 -1.531,0 -3.015,-0.095 -4.504,-0.172 -13.406,2.287 -25.966,14.121 -45.521,33.52 C 131.42,327.034 86.262,371.825 0,371.825 Z" style="fill:url(#linearGradient4199);fill-opacity:1"/></g><g id="g4221"><path style="fill:#312fac;fill-opacity:1;fill-rule:evenodd;stroke:#000;stroke-width:0;stroke-linecap:butt;stroke-linejoin:round;stroke-miterlimit:4;stroke-dasharray:none;stroke-opacity:1" id="path4221" d="m 4.3392884,984.19489 0,-31.93106 c 0.079667,-2.33827 0.8365064,-3.40112 2.1510165,-3.46186 l 24.7654141,-0.0469 c 0.820268,-0.0101 0.955974,0.77195 0.955974,1.55993 l -0.05248,32.71887 c 0.0595,1.18878 -0.916174,1.18434 -0.916174,1.18434 l -2.047561,0.0321 c -0.05554,1.2503 -0.07987,1.30079 -0.956006,1.26539 l -22.6653401,0 c -1.1585389,0 -1.2348424,0.0593 -1.2348424,-1.32097 z"/><path style="fill:#fff;fill-opacity:1;fill-rule:evenodd;stroke:#000;stroke-width:0;stroke-linecap:round;stroke-linejoin:round;stroke-miterlimit:4;stroke-dasharray:none;stroke-opacity:1" id="path4258" d="m 6.0344354,951.77457 21.8351196,0 c 1.705024,0.0292 1.520813,0.79562 1.533562,2.86964 l 0.05393,27.95614 c 0.540739,0.0429 1.370134,-0.55851 1.359809,-1.51438 l -0.05393,-28.71447 c 0.0448,-1.9133 -0.396502,-1.9133 -1.275386,-1.99182 l -22.3290696,0 c -0.850251,-0.0535 -1.0792312,0.24967 -1.1240282,1.39489 z"/></g></g></g></svg>