<svg xmlns="http://www.w3.org/2000/svg" width="128" height="128" viewBox="0 0 128 128"><path d="M77.373 45.364c.659-.662 1.068-1.576 1.068-2.588v-36.118c0-2.019-1.628-3.658-3.641-3.658h-21.392c-2.009 0-3.641 1.638-3.641 3.658v36.118c0 1.013.413 1.929 1.075 2.593.083.083 10.689 10.75 10.689 10.75 1.422 1.43 3.725 1.43 5.148 0-.001-.001 10.863-10.926 10.695-10.756zm-13.271 5.184c-1.254 0-2.275-1.024-2.275-2.285 0-1.261 1.021-2.287 2.275-2.287 1.259 0 2.276 1.025 2.276 2.287 0 1.261-1.016 2.285-2.276 2.285z" fill="#3c68c5"/><path d="M40.498 71.748c.105-.052 13.482-6.887 13.482-6.887 1.791-.917 2.503-3.119 1.59-4.921 0 0-6.983-13.752-6.877-13.539-.424-.834-1.163-1.508-2.12-1.821l-34.198-11.161c-1.911-.623-3.966.426-4.586 2.347l-6.611 20.438c-.622 1.92.426 3.984 2.338 4.609l34.196 11.159c.958.314 1.953.204 2.785-.225zm4.675-12.481c.388-1.201 1.67-1.859 2.869-1.468 1.196.388 1.848 1.678 1.46 2.88-.388 1.201-1.672 1.858-2.867 1.467-1.197-.388-1.852-1.678-1.462-2.879z" fill="#ad7c58"/><path d="M59.712 75.529c-.315-1.994-2.18-3.355-4.168-3.039 0 0-15.179 2.425-14.942 2.385-.921.146-1.786.645-2.379 1.463l-21.136 29.222c-1.18 1.633-.819 3.919.806 5.108l17.304 12.629c1.628 1.19 3.905.826 5.086-.806l21.134-29.221c.594-.82.798-1.803.65-2.732-.017-.115-2.356-15.008-2.356-15.008zm-4.84 6.181c-.739 1.024-2.162 1.249-3.179.505-1.018-.741-1.243-2.173-.503-3.194.738-1.022 2.162-1.247 3.179-.505 1.015.743 1.24 2.171.503 3.194z" fill="#ad58a7"/><path d="M88.748 77.342c-.592-.817-1.459-1.319-2.384-1.464-.115-.018-14.939-2.385-14.939-2.385-1.984-.318-3.849 1.043-4.164 3.042 0 0-2.397 15.249-2.358 15.012-.146.925.056 1.907.647 2.724l21.136 29.222c1.182 1.633 3.458 1.996 5.085.807l17.305-12.629c1.628-1.188 1.987-3.477.806-5.108l-21.134-29.222zm-13.469 5.876c-1.016.743-2.442.516-3.178-.506-.741-1.022-.514-2.45.503-3.194 1.016-.738 2.439-.512 3.177.506.739 1.022.515 2.451-.501 3.194z" fill="#58ad74"/><path d="M126.821 57.382l-6.609-20.435c-.622-1.921-2.675-2.972-4.586-2.349l-34.198 11.162c-.958.314-1.701.987-2.122 1.827-.055.104-6.875 13.534-6.875 13.534-.913 1.796-.202 4 1.593 4.918 0 0 13.696 7.002 13.483 6.891.833.428 1.827.534 2.78.222l34.199-11.161c1.91-.626 2.957-2.686 2.335-4.61zm-45.455 5.942c-1.196.392-2.479-.264-2.866-1.468-.388-1.201.266-2.489 1.462-2.879 1.196-.388 2.478.266 2.866 1.468.392 1.201-.262 2.492-1.462 2.879z" fill="#7968ca"/></svg>