<svg xmlns="http://www.w3.org/2000/svg" xmlns:svg="http://www.w3.org/2000/svg" id="svg2" width="128" height="128" version="1.1" viewBox="0 0 128 128"><metadata id="metadata7"/><g id="layer1" transform="translate(0,-924.36216)"><path id="path6" d="m 77.372782,969.72607 c 0.659399,-0.66237 1.068199,-1.57648 1.068199,-2.58762 l 0,-36.11846 c 0,-2.01947 -1.628199,-3.65783 -3.641398,-3.65783 l -21.391987,0 c -2.008999,0 -3.641398,1.63836 -3.641398,3.65783 l 0,36.11846 c 0,1.01255 0.412999,1.92947 1.075199,2.59325 0.0826,0.083 10.688994,10.74989 10.688994,10.74989 1.422399,1.43023 3.725398,1.43023 5.147797,0 -0.0014,-0.001 10.862594,-10.92568 10.694594,-10.75552 z m -13.270593,5.18369 c -1.254399,0 -2.274998,-1.0238 -2.274998,-2.28527 0,-1.26146 1.020599,-2.28667 2.274998,-2.28667 1.2586,0 2.276399,1.02521 2.276399,2.28667 0,1.26147 -1.016399,2.28527 -2.276399,2.28527 z" style="fill:#3c68c5;fill-opacity:1"/><path id="path8" d="m 40.498203,996.11 c 0.105,-0.052 13.481992,-6.88674 13.481992,-6.88674 1.790599,-0.91692 2.503199,-3.11921 1.590399,-4.9207 0,0 -6.983196,-13.75238 -6.876796,-13.53862 -0.4242,-0.83395 -1.163399,-1.50758 -2.119599,-1.82119 l -34.19778,-11.16053 c -1.910999,-0.623 -3.9661977,0.42611 -4.5863974,2.34714 l -6.6107962,20.43802 c -0.62159965,1.91962 0.4255998,3.98409 2.3379987,4.6085 l 34.1963809,11.15913 c 0.957599,0.31361 1.952998,0.20392 2.784598,-0.22501 z M 45.1728,983.62893 c 0.3878,-1.201 1.670199,-1.85915 2.868599,-1.4682 1.195599,0.38815 1.847999,1.67774 1.460199,2.88014 -0.3878,1.201 -1.671599,1.85775 -2.867199,1.46679 C 45.4374,986.11952 44.7822,984.82992 45.1728,983.62893 Z" style="fill:#ad7c58;fill-opacity:1"/><path id="path10" d="m 59.711792,999.89159 c -0.315,-1.99416 -2.179799,-3.35548 -4.167798,-3.03906 0,0 -15.178791,2.4245 -14.942191,2.38512 -0.9212,0.14626 -1.786399,0.6455 -2.378599,1.46255 l -21.135788,29.2219 c -1.180199,1.6327 -0.818999,3.9194 0.8064,5.1077 l 17.30399,12.6288 c 1.628199,1.1897 3.904598,0.8255 5.086197,-0.8058 l 21.134388,-29.2205 c 0.5936,-0.8199 0.798,-1.8029 0.6496,-2.7325 -0.0168,-0.1153 -2.356199,-15.00821 -2.356199,-15.00821 z m -4.839797,6.18081 c -0.7392,1.0238 -2.161599,1.2488 -3.179398,0.5048 -1.0178,-0.7411 -1.2432,-2.1727 -0.5026,-3.1937 0.737799,-1.0224 2.161599,-1.2474 3.179398,-0.5049 1.014999,0.7425 1.240399,2.1714 0.5026,3.1938 z" style="fill:#ad58a7;fill-opacity:1"/><path id="path12" d="m 88.747775,1001.7043 c -0.592199,-0.817 -1.458799,-1.3191 -2.384198,-1.4639 -0.1148,-0.018 -14.939392,-2.38516 -14.939392,-2.38516 -1.983799,-0.31783 -3.848598,1.04349 -4.163597,3.04186 0,0 -2.396799,15.2487 -2.357599,15.0124 -0.1456,0.9254 0.056,1.907 0.6468,2.7241 l 21.135788,29.2219 c 1.181599,1.6327 3.457998,1.9955 5.084797,0.8072 l 17.305386,-12.6287 c 1.6282,-1.1884 1.9866,-3.4765 0.8064,-5.1078 l -21.134385,-29.2219 z m -13.469392,5.8756 c -1.016399,0.7426 -2.441599,0.5161 -3.177998,-0.5062 -0.7406,-1.0224 -0.5138,-2.4499 0.5026,-3.1938 1.016399,-0.7383 2.438798,-0.5119 3.176598,0.5063 0.739199,1.0224 0.515199,2.4512 -0.5012,3.1937 z" style="fill:#58ad74;fill-opacity:1"/><path id="path14" d="m 126.82075,981.74446 -6.60939,-20.4352 c -0.6216,-1.92103 -2.6754,-2.97155 -4.5864,-2.34855 l -34.19778,11.16194 c -0.9576,0.31361 -1.700999,0.98724 -2.122399,1.82681 -0.0546,0.10407 -6.875396,13.5344 -6.875396,13.5344 -0.9128,1.79587 -0.2016,3.99957 1.593199,4.9179 0,0 13.696192,7.00205 13.483392,6.89095 0.833,0.42752 1.826999,0.5344 2.780398,0.2222 l 34.199176,-11.16054 c 1.9096,-0.62581 2.9568,-2.68606 2.3352,-4.60991 z m -45.45517,5.9417 c -1.1956,0.39236 -2.479399,-0.26439 -2.865799,-1.4682 -0.3878,-1.20099 0.266,-2.48918 1.461599,-2.87873 1.1956,-0.38815 2.477999,0.26579 2.865799,1.46819 0.392,1.201 -0.2618,2.492 -1.461599,2.87874 z" style="fill:#7968ca;fill-opacity:1"/></g></svg>