<?xml version="1.0" encoding="UTF-8" standalone="no"?>
<!-- Created with Inkscape (http://www.inkscape.org/) -->

<svg
   xmlns:dc="http://purl.org/dc/elements/1.1/"
   xmlns:cc="http://creativecommons.org/ns#"
   xmlns:rdf="http://www.w3.org/1999/02/22-rdf-syntax-ns#"
   xmlns:svg="http://www.w3.org/2000/svg"
   xmlns="http://www.w3.org/2000/svg"
   xmlns:xlink="http://www.w3.org/1999/xlink"
   xmlns:sodipodi="http://sodipodi.sourceforge.net/DTD/sodipodi-0.dtd"
   xmlns:inkscape="http://www.inkscape.org/namespaces/inkscape"
   width="128"
   height="128"
   viewBox="0 0 128 128"
   id="svg2"
   version="1.1"
   inkscape:version="0.92.4 5da689c313, 2019-01-14"
   sodipodi:docname="network-server.svg">
  <defs
     id="defs4">
    <linearGradient
       inkscape:collect="always"
       id="linearGradient4184">
      <stop
         style="stop-color:#145b18;stop-opacity:1"
         offset="0"
         id="stop4186" />
      <stop
         style="stop-color:#63dd6e;stop-opacity:1"
         offset="1"
         id="stop4188" />
    </linearGradient>
    <linearGradient
       inkscape:collect="always"
       id="linearGradient4174">
      <stop
         style="stop-color:#999999;stop-opacity:1"
         offset="0"
         id="stop4176" />
      <stop
         id="stop4182"
         offset="0.42086282"
         style="stop-color:#8b8b8b;stop-opacity:1" />
      <stop
         style="stop-color:#5f5f5f;stop-opacity:1"
         offset="1"
         id="stop4178" />
    </linearGradient>
    <linearGradient
       inkscape:collect="always"
       xlink:href="#linearGradient4174"
       id="linearGradient4180"
       x1="62.125"
       y1="1020.1927"
       x2="62.125"
       y2="925.42523"
       gradientUnits="userSpaceOnUse" />
    <radialGradient
       inkscape:collect="always"
       xlink:href="#linearGradient4184"
       id="radialGradient4192"
       cx="64.426826"
       cy="1057.9556"
       fx="64.426826"
       fy="1057.9556"
       r="49.34068"
       gradientTransform="matrix(1,0,0,0.33504968,2.3570215e-6,689.29149)"
       gradientUnits="userSpaceOnUse" />
  </defs>
  <sodipodi:namedview
     id="base"
     pagecolor="#ffffff"
     bordercolor="#666666"
     borderopacity="1.0"
     inkscape:pageopacity="0.0"
     inkscape:pageshadow="2"
     inkscape:zoom="5.6"
     inkscape:cx="19.843024"
     inkscape:cy="69.707741"
     inkscape:document-units="px"
     inkscape:current-layer="layer1"
     showgrid="false"
     units="px"
     inkscape:window-width="2560"
     inkscape:window-height="1400"
     inkscape:window-x="0"
     inkscape:window-y="40"
     inkscape:window-maximized="0" />
  <metadata
     id="metadata7">
    <rdf:RDF>
      <cc:Work
         rdf:about="">
        <dc:format>image/svg+xml</dc:format>
        <dc:type
           rdf:resource="http://purl.org/dc/dcmitype/StillImage" />
        <dc:title />
        <dc:creator>
          <cc:Agent>
            <dc:title>Kovid Goyal</dc:title>
          </cc:Agent>
        </dc:creator>
        <dc:rights>
          <cc:Agent>
            <dc:title />
          </cc:Agent>
        </dc:rights>
        <dc:publisher>
          <cc:Agent>
            <dc:title />
          </cc:Agent>
        </dc:publisher>
        <cc:license
           rdf:resource="http://creativecommons.org/licenses/by-sa/3.0/" />
      </cc:Work>
      <cc:License
         rdf:about="http://creativecommons.org/licenses/by-sa/3.0/">
        <cc:permits
           rdf:resource="http://creativecommons.org/ns#Reproduction" />
        <cc:permits
           rdf:resource="http://creativecommons.org/ns#Distribution" />
        <cc:requires
           rdf:resource="http://creativecommons.org/ns#Notice" />
        <cc:requires
           rdf:resource="http://creativecommons.org/ns#Attribution" />
        <cc:permits
           rdf:resource="http://creativecommons.org/ns#DerivativeWorks" />
        <cc:requires
           rdf:resource="http://creativecommons.org/ns#ShareAlike" />
      </cc:License>
    </rdf:RDF>
  </metadata>
  <g
     inkscape:label="Layer 1"
     inkscape:groupmode="layer"
     id="layer1"
     transform="translate(0,-924.36216)">
    <g
       id="g4168"
       style="fill-opacity:1;fill:url(#linearGradient4180)">
      <path
         d="m 20.304227,1005.3667 18.67698,0 0,7.1084 -18.67698,0 0,-7.1084 z m 77.077394,-0.9757 c 2.50885,0 4.599559,2.0907 4.599559,4.5995 0,2.5089 -2.090709,4.5996 -4.599559,4.5996 -2.50885,0 -4.59955,-2.0907 -4.59955,-4.5996 0,-2.5088 2.0907,-4.5995 4.59955,-4.5995 z m -82.652613,16.1681 98.681362,0 0,-23.27656 -98.681362,0 0,23.27656 z"
         id="path4155"
         style="fill-opacity:1;fill:url(#linearGradient4180)" />
      <path
         d="m 20.304227,977.21169 18.67698,0 0,7.10847 -18.67698,0 0,-7.10847 z m 77.077394,-0.97566 c 2.50885,0 4.599559,2.0907 4.599559,4.59955 0,2.50885 -2.090709,4.59963 -4.599559,4.59963 -2.50885,0 -4.59955,-2.09078 -4.59955,-4.59963 0,-2.50885 2.0907,-4.59955 4.59955,-4.59955 z m -82.652613,16.1682 98.681362,0 0,-23.41599 -98.681362,0 0,23.41599 z"
         id="path4149"
         style="fill-opacity:1;fill:url(#linearGradient4180)" />
      <path
         id="path4147"
         d="m 89.158171,925.36216 -50.316344,0 -24.252199,13.38052 98.681362,0 -24.112819,-13.38052 z"
         style="fill-opacity:1;fill:url(#linearGradient4180)" />
      <path
         style="fill:url(#linearGradient4180);fill-opacity:1"
         d="m 20.304227,948.91746 18.67698,0 0,7.1084 -18.67698,0 0,-7.1084 z m 77.077394,-0.97567 c 2.50885,0 4.599559,2.09071 4.599559,4.59956 0,2.50885 -2.090709,4.59955 -4.599559,4.59955 -2.50885,0 -4.59955,-2.0907 -4.59955,-4.59955 0,-2.50885 2.0907,-4.59956 4.59955,-4.59956 z m -82.652613,16.16814 98.681362,0 0,-23.27654 -98.681362,0 0,23.27654 z"
         id="path4141" />
    </g>
    <path
       d="m 85.255521,1040.3511 c 0,-1.8119 -1.39381,-3.2057 -3.205749,-3.2057 l -14.35619,0 0,-10.4535 -6.411501,0 0,10.4535 -14.356188,0 c -1.811946,0 -3.205749,1.3938 -3.205749,3.2057 l 0,0.8363 -28.991135,0 0,6.4115 28.991135,0 0,0.5575 c 0,1.812 1.393804,3.2058 3.205749,3.2058 l 35.123878,0 c 1.81194,0 3.20575,-1.3938 3.20575,-3.2058 l 0,-0.5575 28.154849,0 0,-6.4115 -28.154849,0 0,-0.8363 z"
       id="path4"
       style="fill-opacity:1;fill:url(#radialGradient4192)" />
  </g>
</svg>
