<svg xmlns="http://www.w3.org/2000/svg" xmlns:xlink="http://www.w3.org/1999/xlink" width="128" height="128" viewBox="0 0 128 128"><defs><linearGradient id="b"><stop offset="0" stop-color="#145b18"/><stop offset="1" stop-color="#63dd6e"/></linearGradient><linearGradient id="a"><stop offset="0"/><stop offset=".421" stop-color="#535353"/><stop offset="1" stop-color="#020202"/></linearGradient><linearGradient xlink:href="#a" id="c" x1="62.125" y1="1020.193" x2="62.125" y2="925.425" gradientUnits="userSpaceOnUse"/><radialGradient xlink:href="#b" id="d" cx="64.427" cy="1057.956" fx="64.427" fy="1057.956" r="49.341" gradientTransform="matrix(1 0 0 .335 0 689.291)" gradientUnits="userSpaceOnUse"/></defs><path d="M20.304 81.005h18.677v7.108h-18.677v-7.108zm77.077-.976c2.509 0 4.6 2.091 4.6 4.599 0 2.509-2.091 4.6-4.6 4.6-2.509 0-4.6-2.091-4.6-4.6 0-2.509 2.091-4.599 4.6-4.599zm-82.653 16.168h98.681v-23.277h-98.681v23.277zm5.576-43.347h18.677v7.108h-18.677v-7.108zm77.077-.976c2.509 0 4.6 2.091 4.6 4.6 0 2.509-2.091 4.6-4.6 4.6-2.509 0-4.6-2.091-4.6-4.6 0-2.509 2.091-4.6 4.6-4.6zm-82.653 16.168h98.681v-23.416h-98.681v23.416zm74.43-67.042h-50.316l-24.252 13.381h98.681l-24.113-13.381zm-68.854 23.555h18.677v7.108h-18.677v-7.108zm77.077-.976c2.509 0 4.6 2.091 4.6 4.6 0 2.509-2.091 4.6-4.6 4.6-2.509 0-4.6-2.091-4.6-4.6 0-2.509 2.091-4.6 4.6-4.6zm-82.653 16.168h98.681v-23.277h-98.681v23.277z" fill="url(#c)"/><path d="M85.256 115.989c0-1.812-1.394-3.206-3.206-3.206h-14.356v-10.454h-6.412v10.454h-14.356c-1.812 0-3.206 1.394-3.206 3.206v.836h-28.991v6.412h28.991v.557c0 1.812 1.394 3.206 3.206 3.206h35.124c1.812 0 3.206-1.394 3.206-3.206v-.557h28.155v-6.412h-28.155v-.836z" fill="url(#d)"/></svg>