<?xml version="1.0" encoding="UTF-8" standalone="no"?>
<!-- Generator: Adobe Illustrator 15.0.0, SVG Export Plug-In . SVG Version: 6.00 Build 0)  -->

<svg
   xmlns:dc="http://purl.org/dc/elements/1.1/"
   xmlns:cc="http://creativecommons.org/ns#"
   xmlns:rdf="http://www.w3.org/1999/02/22-rdf-syntax-ns#"
   xmlns:svg="http://www.w3.org/2000/svg"
   xmlns="http://www.w3.org/2000/svg"
   xmlns:sodipodi="http://sodipodi.sourceforge.net/DTD/sodipodi-0.dtd"
   xmlns:inkscape="http://www.inkscape.org/namespaces/inkscape"
   version="1.1"
   id="Layer_1"
   x="0px"
   y="0px"
   width="200"
   height="200"
   viewBox="0 0 199.99999 199.99999"
   enable-background="new 0 0 595.28 841.89"
   xml:space="preserve"
   inkscape:version="0.48.0 r9654"
   sodipodi:docname="news.svg"><metadata
   id="metadata26"><rdf:RDF><cc:Work
       rdf:about=""><dc:format>image/svg+xml</dc:format><dc:type
         rdf:resource="http://purl.org/dc/dcmitype/StillImage" /></cc:Work></rdf:RDF></metadata><defs
   id="defs24"><inkscape:perspective
     sodipodi:type="inkscape:persp3d"
     inkscape:vp_x="0 : 420.94501 : 1"
     inkscape:vp_y="0 : 1000 : 0"
     inkscape:vp_z="595.28003 : 420.94501 : 1"
     inkscape:persp3d-origin="297.64001 : 280.63 : 1"
     id="perspective28" /></defs><sodipodi:namedview
   pagecolor="#ffffff"
   bordercolor="#666666"
   borderopacity="1"
   objecttolerance="10"
   gridtolerance="10"
   guidetolerance="10"
   inkscape:pageopacity="0"
   inkscape:pageshadow="2"
   inkscape:window-width="1680"
   inkscape:window-height="997"
   id="namedview22"
   showgrid="false"
   inkscape:zoom="0.28032165"
   inkscape:cx="67.389001"
   inkscape:cy="99.722002"
   inkscape:window-x="-4"
   inkscape:window-y="30"
   inkscape:window-maximized="1"
   inkscape:current-layer="Layer_1" />
<g
   id="g3"
   transform="translate(-194.57771,-320.66701)">
	<polygon
   points="286.79,334.517 272.693,328.454 266.263,343.405 249.988,343.405 249.988,358.749 235.734,364.429 241.759,379.548 230.251,391.056 241.101,401.906 235.039,416.002 249.988,422.432 249.988,438.706 265.333,438.706 271.013,452.961 277.817,450.25 277.817,475.111 252.085,475.111 297.64,520.667 343.193,475.111 317.463,475.111 317.463,451.453 322.585,453.656 329.016,438.706 345.29,438.706 345.29,423.362 359.546,417.682 353.521,402.563 365.028,391.056 354.178,380.205 360.241,366.109 345.29,359.678 345.29,343.405 329.945,343.405 324.265,329.15 309.147,335.175 297.64,323.667 "
   id="polygon5"
   style="fill:#ffffff" />
	<linearGradient
   id="SVGID_1_"
   gradientUnits="userSpaceOnUse"
   x1="297.63919"
   y1="323"
   x2="297.63919"
   y2="515.16663">
		<stop
   offset="0"
   style="stop-color:#F26822"
   id="stop8" />
		<stop
   offset="1"
   style="stop-color:#CB2026"
   id="stop10" />
	</linearGradient>
	<polygon
   points="286.79,331.518 272.693,325.455 266.263,340.406 249.988,340.406 249.988,355.75 235.734,361.43 241.759,376.549 230.251,388.057 241.101,398.907 235.039,413.003 249.988,419.433 249.988,435.707 265.333,435.707 271.013,449.962 277.817,447.251 277.817,472.112 252.085,472.112 297.64,517.668 343.193,472.112 317.463,472.112 317.463,448.454 322.585,450.657 329.016,435.707 345.29,435.707 345.29,420.363 359.546,414.683 353.521,399.564 365.028,388.057 354.178,377.206 360.241,363.11 345.29,356.679 345.29,340.406 329.945,340.406 324.265,326.151 309.147,332.176 297.64,320.668 "
   id="polygon12"
   style="fill:url(#SVGID_1_)" />
	<g
   id="g14">
		<path
   d="m 273.311,419.168 v -56.752 h 17.935 l 9.01,17.43 c 3.115,5.641 6.399,13.22 8.926,19.873 h 0.252 c -0.842,-7.494 -1.178,-15.41 -1.178,-23.83 v -13.472 h 13.893 v 56.752 H 306.15 l -9.684,-18.861 c -3.116,-5.978 -6.82,-13.641 -9.515,-20.461 h -0.336 c 0.42,7.663 0.589,16.167 0.589,25.345 v 13.978 h -13.893 z"
   id="path16"
   style="fill:#993720"
   inkscape:connector-curvature="0" />
	</g>
	<g
   id="g18">
		<path
   d="m 273.311,416.873 v -56.752 h 17.935 l 9.01,17.43 c 3.115,5.641 6.399,13.22 8.926,19.873 h 0.252 c -0.842,-7.494 -1.178,-15.41 -1.178,-23.83 v -13.472 h 13.893 v 56.752 H 306.15 l -9.684,-18.861 c -3.116,-5.978 -6.82,-13.641 -9.515,-20.461 h -0.336 c 0.42,7.663 0.589,16.167 0.589,25.345 v 13.978 h -13.893 z"
   id="path20"
   style="fill:#f0efef"
   inkscape:connector-curvature="0" />
	</g>
</g>
</svg>