<svg xmlns="http://www.w3.org/2000/svg" width="512" height="512" preserveAspectRatio="xMidYMid meet" version="1.1" viewBox="0 0 512 512"><path fill="#96A9B2" d="M223.308 219.461H25.22v253.083l.066.005c.956 15.068 13.474 26.996 28.783 26.996c13.906 0 25.511-9.839 28.24-22.935l140.999 10.039V219.461z"/><path fill="#E5E4DF" d="M474.925 91.014h-1.366l-49.6-42.842v23.241l.011 19.601h-5.511l-13.962-48.905V20.448a8.655 8.655 0 0 0-8.655-8.655H82.765l.172 458.903l-.019.019c-.01 15.924-12.922 28.83-28.848 28.83H454.73c15.933 0 28.849-12.916 28.849-28.849V99.669a8.655 8.655 0 0 0-8.654-8.655z" style="fill:#d3d2c9;fill-opacity:1"/><path fill="#96A9B2" d="M431.531 200.87H134.358v-8.655h297.173v8.655zm0 256.587H134.358v8.655h297.173v-8.655zM177.632 53.691h-43.273v8.655h43.273v-8.655z"/><path fill="#BFBCAF" d="M290.716 297.353H134.358v-17.309h156.358v17.309zm.059 25.964H134.417v17.309h156.358v-17.309zm0 43.273H134.417v17.309h156.358V366.59zm0 43.273H134.417v17.309h156.358v-17.309zm140.816 0H316.74v17.309h114.851v-17.309z"/><path fill="#597B91" d="M376.688 91.616v35.219h-.061c-.313 4.494-4.019 8.054-8.593 8.054h-225.02c-4.573 0-8.28-3.56-8.594-8.054h-.061V91.616a8.655 8.655 0 0 1 8.655-8.655h225.021a8.653 8.653 0 0 1 8.653 8.655zM142.81 254.08h139.515a8.45 8.45 0 0 0 8.451-8.451v-17.716a8.45 8.45 0 0 0-8.451-8.451H142.81a8.45 8.45 0 0 0-8.451 8.451v17.716a8.45 8.45 0 0 0 8.451 8.451zm288.781-25.966a8.654 8.654 0 0 0-8.654-8.652l-.014.001l-.001-.001h-97.549l-.001.001a8.654 8.654 0 0 0-8.631 8.651v147.131a8.653 8.653 0 0 0 8.631 8.653l.001.001h97.549l.001-.001l.014.001a8.655 8.655 0 0 0 8.655-8.655l-.001-147.13z"/><path fill="#BFBCAF" d="M482.646 95.787h-80.199V14.971l78.464 78.463z"/></svg>