<svg xmlns="http://www.w3.org/2000/svg" width="128" height="128" viewBox="0 0 128 128"><defs><linearGradient y2="515.167" x2="297.639" y1="323" x1="297.639" gradientUnits="userSpaceOnUse" id="a"><stop offset="0" stop-color="#F26822"/><stop offset="1" stop-color="#CB2026"/></linearGradient></defs><path fill="url(#a)" d="M33.588 74.624h9.79l3.624 9.123 4.341-1.735v15.911h-16.417l29.064 29.156 29.063-29.156h-16.416v-15.141l3.268 1.41 4.103-9.568h10.383v-9.82l9.095-3.635-3.844-9.676 7.341-7.364-6.922-6.945 3.868-9.021-9.539-4.116v-10.415h-9.79l-3.624-9.123-9.645 3.856-7.341-7.365-6.922 6.944-8.994-3.88-4.102 9.569h-10.383v9.82l-9.094 3.635 3.844 9.676-7.342 7.365 6.922 6.944-3.868 9.021 9.537 4.115z"/><path d="M48.468 64.04v-36.321h11.443l5.748 11.155c1.987 3.61 4.083 8.461 5.695 12.719h.161c-.537-4.796-.752-9.862-.752-15.251v-8.622h8.864v36.321h-10.207l-6.178-12.071c-1.988-3.826-4.351-8.73-6.071-13.095h-.214c.268 4.904.376 10.347.376 16.221v8.946h-8.864z" fill="#993720"/><path d="M48.468 62.571v-36.321h11.443l5.748 11.155c1.987 3.61 4.083 8.461 5.695 12.719h.161c-.537-4.796-.752-9.862-.752-15.251v-8.622h8.864v36.321h-10.207l-6.178-12.071c-1.988-3.826-4.351-8.73-6.071-13.095h-.214c.268 4.904.376 10.347.376 16.221v8.946h-8.864z" fill="#f0efef"/></svg>