<svg xmlns="http://www.w3.org/2000/svg" xmlns:xlink="http://www.w3.org/1999/xlink" width="128" height="128" viewBox="0 0 128 128"><defs><linearGradient id="a"><stop offset="0" stop-color="#f44c48"/><stop offset="1" stop-color="#900c09"/></linearGradient><radialGradient xlink:href="#a" id="b" cx="24" cy="23.95" fx="24" fy="23.95" r="17" gradientTransform="matrix(1 0 0 1.009 0 -.211)" gradientUnits="userSpaceOnUse"/><radialGradient xlink:href="#a" id="f" gradientUnits="userSpaceOnUse" gradientTransform="matrix(1 0 0 1.009 0 -.211)" cx="24" cy="23.95" fx="24" fy="23.95" r="17"/><radialGradient xlink:href="#a" id="g" gradientUnits="userSpaceOnUse" gradientTransform="matrix(1 0 0 1.009 0 -.211)" cx="24" cy="23.95" fx="24" fy="23.95" r="17"/><radialGradient xlink:href="#a" id="e" gradientUnits="userSpaceOnUse" gradientTransform="matrix(1 0 0 1.009 0 -.211)" cx="24" cy="23.95" fx="24" fy="23.95" r="17"/><radialGradient xlink:href="#a" id="c" gradientUnits="userSpaceOnUse" gradientTransform="matrix(1 0 0 1.009 0 -.211)" cx="24" cy="23.95" fx="24" fy="23.95" r="17"/><radialGradient xlink:href="#a" id="d" gradientUnits="userSpaceOnUse" gradientTransform="matrix(1 0 0 1.009 0 -.211)" cx="24" cy="23.95" fx="24" fy="23.95" r="17"/></defs><g transform="translate(0 -924.362)"><rect width="115.712" height="115.712" x="6.144" y="930.506" rx="1.376" ry="1.202" stroke="#000" stroke-width="10.288" stroke-linecap="round" stroke-linejoin="round" fill="none"/><g fill="url(#b)"><path d="M113.544 943.606c0-.291 0-.291-.292-.583 0-.291 0-.291-.292-.583l-.291-.583-.292-.583c-.292-.583-.875-1.166-1.749-1.749l-.292-.292-.583-.291c-.292 0-.292 0-.583-.291-.292 0-.292 0-.583-.292h-27.401c-3.207 0-5.83 2.623-5.83 5.83s2.623 5.83 5.83 5.83h12.243l-19.239 19.239c-2.332 2.332-2.332 5.83 0 8.162 1.458 1.749 2.915 2.332 4.373 2.332 1.458 0 2.915-.583 4.081-1.749l19.239-19.239v12.243c0 3.207 2.623 5.83 5.83 5.83s5.83-2.623 5.83-5.83v-27.401z" fill="url(#c)"/><path d="M45.333 998.991l-19.239 19.239v-12.243c0-3.207-2.623-5.83-5.83-5.83s-5.83 2.623-5.83 5.83v27.401c0 .292 0 .292.292.583 0 .292 0 .292.292.583l.292.583s0 .292.292.292c.292.583.874 1.166 1.749 1.749 0 0 .292.292.583.292l.583.292c.292 0 .292 0 .583.292.292 0 .292 0 .583.292h27.401c3.207 0 5.83-2.623 5.83-5.83s-2.623-5.83-5.83-5.83h-12.243l19.239-19.239c2.332-2.332 2.332-5.83 0-8.162-2.915-2.623-6.413-2.623-8.745-.292z" fill="url(#d)"/></g><g fill="url(#e)"><path d="M19.244 938.818c-.291 0-.291 0-.583.292-.291 0-.291 0-.583.292l-.583.291-.583.292c-.583.292-1.166.875-1.749 1.749l-.292.292-.291.583c0 .292 0 .292-.291.583 0 .292 0 .292-.292.583v27.401c0 3.207 2.623 5.83 5.83 5.83s5.83-2.623 5.83-5.83v-12.243l19.239 19.239c2.332 2.332 5.83 2.332 8.162 0 1.749-1.458 2.332-2.915 2.332-4.373 0-1.458-.583-2.915-1.749-4.081l-19.239-19.239h12.243c3.207 0 5.83-2.623 5.83-5.83s-2.623-5.83-5.83-5.83h-27.401z" fill="url(#f)"/><path d="M74.629 1007.029l19.239 19.239h-12.243c-3.207 0-5.83 2.623-5.83 5.83s2.623 5.83 5.83 5.83h27.401c.292 0 .292 0 .583-.292.292 0 .292 0 .583-.292l.583-.292s.292 0 .292-.292c.583-.292 1.166-.874 1.749-1.749 0 0 .292-.292.292-.583l.292-.583c0-.292 0-.292.292-.583 0-.292 0-.292.292-.583v-27.401c0-3.207-2.623-5.83-5.83-5.83s-5.83 2.623-5.83 5.83v12.243l-19.239-19.239c-2.332-2.332-5.83-2.332-8.162 0-2.623 2.915-2.623 6.413-.292 8.745z" fill="url(#g)"/></g></g></svg>