<svg xmlns="http://www.w3.org/2000/svg" xmlns:svg="http://www.w3.org/2000/svg" xmlns:xlink="http://www.w3.org/1999/xlink" id="svg2" width="128" height="128" version="1.1" viewBox="0 0 128 128"><defs id="defs4"><linearGradient id="linearGradient4215"><stop style="stop-color:#f44c48;stop-opacity:1" id="stop4217" offset="0"/><stop style="stop-color:#900c09;stop-opacity:1" id="stop4219" offset="1"/></linearGradient><radialGradient id="radialGradient4223" cx="24" cy="23.95" r="17" fx="24" fy="23.95" gradientTransform="matrix(1,0,0,1.0088235,0,-0.21132353)" gradientUnits="userSpaceOnUse" xlink:href="#linearGradient4215"/><radialGradient id="radialGradient4231" cx="24" cy="23.95" r="17" fx="24" fy="23.95" gradientTransform="matrix(1,0,0,1.0088235,0,-0.21132353)" gradientUnits="userSpaceOnUse" xlink:href="#linearGradient4215"/><radialGradient id="radialGradient4233" cx="24" cy="23.95" r="17" fx="24" fy="23.95" gradientTransform="matrix(1,0,0,1.0088235,0,-0.21132353)" gradientUnits="userSpaceOnUse" xlink:href="#linearGradient4215"/><radialGradient id="radialGradient4235" cx="24" cy="23.95" r="17" fx="24" fy="23.95" gradientTransform="matrix(1,0,0,1.0088235,0,-0.21132353)" gradientUnits="userSpaceOnUse" xlink:href="#linearGradient4215"/><radialGradient id="radialGradient4245" cx="24" cy="23.95" r="17" fx="24" fy="23.95" gradientTransform="matrix(1,0,0,1.0088235,0,-0.21132353)" gradientUnits="userSpaceOnUse" xlink:href="#linearGradient4215"/><radialGradient id="radialGradient4247" cx="24" cy="23.95" r="17" fx="24" fy="23.95" gradientTransform="matrix(1,0,0,1.0088235,0,-0.21132353)" gradientUnits="userSpaceOnUse" xlink:href="#linearGradient4215"/></defs><metadata id="metadata7"/><g id="layer1" transform="translate(0,-924.36216)"><rect style="fill:none;fill-opacity:1;fill-rule:evenodd;stroke:#2271d5;stroke-width:10.28844929;stroke-linecap:round;stroke-linejoin:round;stroke-miterlimit:4;stroke-dasharray:none;stroke-opacity:1" id="rect4157" width="115.712" height="115.712" x="6.144" y="930.506" rx="1.376" ry="1.202"/><g id="g4237" transform="translate(97.053577,20.892897)"><g style="fill:url(#radialGradient4223);fill-opacity:1" id="g4" transform="matrix(2.9154519,0,0,2.9154519,-103.02442,897.64419)"><path style="fill:url(#radialGradient4245);fill-opacity:1" id="path6" d="M 41,8.6 C 41,8.5 41,8.5 40.9,8.4 40.9,8.3 40.9,8.3 40.8,8.2 40.8,8.1 40.7,8.1 40.7,8 40.7,7.9 40.6,7.9 40.6,7.8 40.5,7.6 40.3,7.4 40,7.2 40,7.2 39.9,7.1 39.9,7.1 39.8,7.1 39.8,7 39.7,7 39.6,7 39.6,7 39.5,6.9 c -0.1,0 -0.1,0 -0.2,-0.1 -0.1,0 -0.3,0 -0.4,0 l -9,0 c -1.1,0 -2,0.9 -2,2 0,1.1 0.9,2 2,2 l 4.2,0 -6.6,6.6 c -0.8,0.8 -0.8,2 0,2.8 0.5,0.6 1,0.8 1.5,0.8 0.5,0 1,-0.2 1.4,-0.6 L 37,13.8 37,18 c 0,1.1 0.9,2 2,2 1.1,0 2,-0.9 2,-2 l 0,-9 c 0,-0.1 0,-0.3 0,-0.4 z"/><path style="fill:url(#radialGradient4247);fill-opacity:1" id="path8" d="M 17.6,27.6 11,34.2 11,30 c 0,-1.1 -0.9,-2 -2,-2 -1.1,0 -2,0.9 -2,2 l 0,9 c 0,0.1 0,0.3 0,0.4 0,0.1 0,0.1 0.1,0.2 0,0.1 0,0.1 0.1,0.2 0,0.1 0.1,0.1 0.1,0.2 0,0 0,0.1 0.1,0.1 0.1,0.2 0.3,0.4 0.6,0.6 0,0 0.1,0.1 0.2,0.1 0.1,0 0.1,0.1 0.2,0.1 0.1,0 0.1,0 0.2,0.1 0.1,0 0.1,0 0.2,0.1 0.1,0 0.3,0 0.4,0 l 9,0 c 1.1,0 2,-0.9 2,-2 0,-1.1 -0.9,-2 -2,-2 l -4.2,0 6.6,-6.6 c 0.8,-0.8 0.8,-2 0,-2.8 -1,-0.9 -2.2,-0.9 -3,-0.1 z"/></g><g id="g4225" transform="matrix(0,-2.9154519,2.9154519,0,-102.87865,1037.4401)" style="fill:url(#radialGradient4235);fill-opacity:1"><path id="path4227" d="M 41,8.6 C 41,8.5 41,8.5 40.9,8.4 40.9,8.3 40.9,8.3 40.8,8.2 40.8,8.1 40.7,8.1 40.7,8 40.7,7.9 40.6,7.9 40.6,7.8 40.5,7.6 40.3,7.4 40,7.2 40,7.2 39.9,7.1 39.9,7.1 39.8,7.1 39.8,7 39.7,7 39.6,7 39.6,7 39.5,6.9 c -0.1,0 -0.1,0 -0.2,-0.1 -0.1,0 -0.3,0 -0.4,0 l -9,0 c -1.1,0 -2,0.9 -2,2 0,1.1 0.9,2 2,2 l 4.2,0 -6.6,6.6 c -0.8,0.8 -0.8,2 0,2.8 0.5,0.6 1,0.8 1.5,0.8 0.5,0 1,-0.2 1.4,-0.6 L 37,13.8 37,18 c 0,1.1 0.9,2 2,2 1.1,0 2,-0.9 2,-2 l 0,-9 c 0,-0.1 0,-0.3 0,-0.4 z" style="fill:url(#radialGradient4231);fill-opacity:1"/><path id="path4229" d="M 17.6,27.6 11,34.2 11,30 c 0,-1.1 -0.9,-2 -2,-2 -1.1,0 -2,0.9 -2,2 l 0,9 c 0,0.1 0,0.3 0,0.4 0,0.1 0,0.1 0.1,0.2 0,0.1 0,0.1 0.1,0.2 0,0.1 0.1,0.1 0.1,0.2 0,0 0,0.1 0.1,0.1 0.1,0.2 0.3,0.4 0.6,0.6 0,0 0.1,0.1 0.2,0.1 0.1,0 0.1,0.1 0.2,0.1 0.1,0 0.1,0 0.2,0.1 0.1,0 0.1,0 0.2,0.1 0.1,0 0.3,0 0.4,0 l 9,0 c 1.1,0 2,-0.9 2,-2 0,-1.1 -0.9,-2 -2,-2 l -4.2,0 6.6,-6.6 c 0.8,-0.8 0.8,-2 0,-2.8 -1,-0.9 -2.2,-0.9 -3,-0.1 z" style="fill:url(#radialGradient4233);fill-opacity:1"/></g></g></g></svg>