<?xml version="1.0" encoding="UTF-8" standalone="no"?>
<!-- Created with Inkscape (http://www.inkscape.org/) -->

<svg
   xmlns:dc="http://purl.org/dc/elements/1.1/"
   xmlns:cc="http://creativecommons.org/ns#"
   xmlns:rdf="http://www.w3.org/1999/02/22-rdf-syntax-ns#"
   xmlns:svg="http://www.w3.org/2000/svg"
   xmlns="http://www.w3.org/2000/svg"
   xmlns:xlink="http://www.w3.org/1999/xlink"
   xmlns:sodipodi="http://sodipodi.sourceforge.net/DTD/sodipodi-0.dtd"
   xmlns:inkscape="http://www.inkscape.org/namespaces/inkscape"
   width="128"
   height="128"
   viewBox="0 0 128 128"
   id="svg2"
   version="1.1"
   inkscape:version="0.92.4 5da689c313, 2019-01-14"
   sodipodi:docname="page.svg">
  <defs
     id="defs4">
    <linearGradient
       inkscape:collect="always"
       id="linearGradient4215">
      <stop
         style="stop-color:#f44c48;stop-opacity:1"
         offset="0"
         id="stop4217" />
      <stop
         style="stop-color:#900c09;stop-opacity:1"
         offset="1"
         id="stop4219" />
    </linearGradient>
    <radialGradient
       inkscape:collect="always"
       xlink:href="#linearGradient4215"
       id="radialGradient4223"
       cx="24"
       cy="23.95"
       fx="24"
       fy="23.95"
       r="17"
       gradientTransform="matrix(1,0,0,1.0088235,0,-0.21132353)"
       gradientUnits="userSpaceOnUse" />
    <radialGradient
       inkscape:collect="always"
       xlink:href="#linearGradient4215"
       id="radialGradient4231"
       gradientUnits="userSpaceOnUse"
       gradientTransform="matrix(1,0,0,1.0088235,0,-0.21132353)"
       cx="24"
       cy="23.95"
       fx="24"
       fy="23.95"
       r="17" />
    <radialGradient
       inkscape:collect="always"
       xlink:href="#linearGradient4215"
       id="radialGradient4233"
       gradientUnits="userSpaceOnUse"
       gradientTransform="matrix(1,0,0,1.0088235,0,-0.21132353)"
       cx="24"
       cy="23.95"
       fx="24"
       fy="23.95"
       r="17" />
    <radialGradient
       inkscape:collect="always"
       xlink:href="#linearGradient4215"
       id="radialGradient4235"
       gradientUnits="userSpaceOnUse"
       gradientTransform="matrix(1,0,0,1.0088235,0,-0.21132353)"
       cx="24"
       cy="23.95"
       fx="24"
       fy="23.95"
       r="17" />
    <radialGradient
       inkscape:collect="always"
       xlink:href="#linearGradient4215"
       id="radialGradient4245"
       gradientUnits="userSpaceOnUse"
       gradientTransform="matrix(1,0,0,1.0088235,0,-0.21132353)"
       cx="24"
       cy="23.95"
       fx="24"
       fy="23.95"
       r="17" />
    <radialGradient
       inkscape:collect="always"
       xlink:href="#linearGradient4215"
       id="radialGradient4247"
       gradientUnits="userSpaceOnUse"
       gradientTransform="matrix(1,0,0,1.0088235,0,-0.21132353)"
       cx="24"
       cy="23.95"
       fx="24"
       fy="23.95"
       r="17" />
  </defs>
  <sodipodi:namedview
     id="base"
     pagecolor="#ffffff"
     bordercolor="#666666"
     borderopacity="1.0"
     inkscape:pageopacity="0.0"
     inkscape:pageshadow="2"
     inkscape:zoom="5.6"
     inkscape:cx="19.843024"
     inkscape:cy="69.707741"
     inkscape:document-units="px"
     inkscape:current-layer="layer1"
     showgrid="false"
     units="px"
     inkscape:window-width="2560"
     inkscape:window-height="1400"
     inkscape:window-x="0"
     inkscape:window-y="40"
     inkscape:window-maximized="0" />
  <metadata
     id="metadata7">
    <rdf:RDF>
      <cc:Work
         rdf:about="">
        <dc:format>image/svg+xml</dc:format>
        <dc:type
           rdf:resource="http://purl.org/dc/dcmitype/StillImage" />
        <dc:title />
        <dc:creator>
          <cc:Agent>
            <dc:title>Kovid Goyal</dc:title>
          </cc:Agent>
        </dc:creator>
        <dc:rights>
          <cc:Agent>
            <dc:title />
          </cc:Agent>
        </dc:rights>
        <dc:publisher>
          <cc:Agent>
            <dc:title />
          </cc:Agent>
        </dc:publisher>
        <cc:license
           rdf:resource="http://creativecommons.org/licenses/by-sa/3.0/" />
      </cc:Work>
      <cc:License
         rdf:about="http://creativecommons.org/licenses/by-sa/3.0/">
        <cc:permits
           rdf:resource="http://creativecommons.org/ns#Reproduction" />
        <cc:permits
           rdf:resource="http://creativecommons.org/ns#Distribution" />
        <cc:requires
           rdf:resource="http://creativecommons.org/ns#Notice" />
        <cc:requires
           rdf:resource="http://creativecommons.org/ns#Attribution" />
        <cc:permits
           rdf:resource="http://creativecommons.org/ns#DerivativeWorks" />
        <cc:requires
           rdf:resource="http://creativecommons.org/ns#ShareAlike" />
      </cc:License>
    </rdf:RDF>
  </metadata>
  <g
     inkscape:label="Layer 1"
     inkscape:groupmode="layer"
     id="layer1"
     transform="translate(0,-924.36216)">
    <rect
       style="fill:none;fill-opacity:1;fill-rule:evenodd;stroke:#2271d5;stroke-width:10.28844929;stroke-linecap:round;stroke-linejoin:round;stroke-miterlimit:4;stroke-dasharray:none;stroke-opacity:1"
       id="rect4157"
       width="115.71156"
       height="115.71155"
       x="6.1442184"
       y="930.50641"
       rx="1.3757637"
       ry="1.2021979" />
    <g
       id="g4237"
       transform="translate(97.053577,20.892897)">
      <g
         style="fill:url(#radialGradient4223);fill-opacity:1"
         id="g4"
         transform="matrix(2.9154519,0,0,2.9154519,-103.02442,897.64419)">
        <path
           style="fill:url(#radialGradient4245);fill-opacity:1"
           id="path6"
           d="M 41,8.6 C 41,8.5 41,8.5 40.9,8.4 40.9,8.3 40.9,8.3 40.8,8.2 40.8,8.1 40.7,8.1 40.7,8 40.7,7.9 40.6,7.9 40.6,7.8 40.5,7.6 40.3,7.4 40,7.2 40,7.2 39.9,7.1 39.9,7.1 39.8,7.1 39.8,7 39.7,7 39.6,7 39.6,7 39.5,6.9 c -0.1,0 -0.1,0 -0.2,-0.1 -0.1,0 -0.3,0 -0.4,0 l -9,0 c -1.1,0 -2,0.9 -2,2 0,1.1 0.9,2 2,2 l 4.2,0 -6.6,6.6 c -0.8,0.8 -0.8,2 0,2.8 0.5,0.6 1,0.8 1.5,0.8 0.5,0 1,-0.2 1.4,-0.6 L 37,13.8 37,18 c 0,1.1 0.9,2 2,2 1.1,0 2,-0.9 2,-2 l 0,-9 c 0,-0.1 0,-0.3 0,-0.4 z"
           inkscape:connector-curvature="0" />
        <path
           style="fill:url(#radialGradient4247);fill-opacity:1"
           id="path8"
           d="M 17.6,27.6 11,34.2 11,30 c 0,-1.1 -0.9,-2 -2,-2 -1.1,0 -2,0.9 -2,2 l 0,9 c 0,0.1 0,0.3 0,0.4 0,0.1 0,0.1 0.1,0.2 0,0.1 0,0.1 0.1,0.2 0,0.1 0.1,0.1 0.1,0.2 0,0 0,0.1 0.1,0.1 0.1,0.2 0.3,0.4 0.6,0.6 0,0 0.1,0.1 0.2,0.1 0.1,0 0.1,0.1 0.2,0.1 0.1,0 0.1,0 0.2,0.1 0.1,0 0.1,0 0.2,0.1 0.1,0 0.3,0 0.4,0 l 9,0 c 1.1,0 2,-0.9 2,-2 0,-1.1 -0.9,-2 -2,-2 l -4.2,0 6.6,-6.6 c 0.8,-0.8 0.8,-2 0,-2.8 -1,-0.9 -2.2,-0.9 -3,-0.1 z"
           inkscape:connector-curvature="0" />
      </g>
      <g
         transform="matrix(0,-2.9154519,2.9154519,0,-102.87865,1037.4401)"
         id="g4225"
         style="fill:url(#radialGradient4235);fill-opacity:1">
        <path
           inkscape:connector-curvature="0"
           d="M 41,8.6 C 41,8.5 41,8.5 40.9,8.4 40.9,8.3 40.9,8.3 40.8,8.2 40.8,8.1 40.7,8.1 40.7,8 40.7,7.9 40.6,7.9 40.6,7.8 40.5,7.6 40.3,7.4 40,7.2 40,7.2 39.9,7.1 39.9,7.1 39.8,7.1 39.8,7 39.7,7 39.6,7 39.6,7 39.5,6.9 c -0.1,0 -0.1,0 -0.2,-0.1 -0.1,0 -0.3,0 -0.4,0 l -9,0 c -1.1,0 -2,0.9 -2,2 0,1.1 0.9,2 2,2 l 4.2,0 -6.6,6.6 c -0.8,0.8 -0.8,2 0,2.8 0.5,0.6 1,0.8 1.5,0.8 0.5,0 1,-0.2 1.4,-0.6 L 37,13.8 37,18 c 0,1.1 0.9,2 2,2 1.1,0 2,-0.9 2,-2 l 0,-9 c 0,-0.1 0,-0.3 0,-0.4 z"
           id="path4227"
           style="fill:url(#radialGradient4231);fill-opacity:1" />
        <path
           inkscape:connector-curvature="0"
           d="M 17.6,27.6 11,34.2 11,30 c 0,-1.1 -0.9,-2 -2,-2 -1.1,0 -2,0.9 -2,2 l 0,9 c 0,0.1 0,0.3 0,0.4 0,0.1 0,0.1 0.1,0.2 0,0.1 0,0.1 0.1,0.2 0,0.1 0.1,0.1 0.1,0.2 0,0 0,0.1 0.1,0.1 0.1,0.2 0.3,0.4 0.6,0.6 0,0 0.1,0.1 0.2,0.1 0.1,0 0.1,0.1 0.2,0.1 0.1,0 0.1,0 0.2,0.1 0.1,0 0.1,0 0.2,0.1 0.1,0 0.3,0 0.4,0 l 9,0 c 1.1,0 2,-0.9 2,-2 0,-1.1 -0.9,-2 -2,-2 l -4.2,0 6.6,-6.6 c 0.8,-0.8 0.8,-2 0,-2.8 -1,-0.9 -2.2,-0.9 -3,-0.1 z"
           id="path4229"
           style="fill:url(#radialGradient4233);fill-opacity:1" />
      </g>
    </g>
  </g>
</svg>
