<svg xmlns="http://www.w3.org/2000/svg" width="128" height="128" viewBox="0 0 128 128"><path d="M69.665 29.015v8.515c0 3.094-2.536 5.603-5.664 5.603-3.129 0-5.663-2.508-5.663-5.603v-8.515c0-4.635-3.81-8.404-8.492-8.404h-16.724c-2.188 4.942-7.159 8.404-12.962 8.404-7.818 0-14.159-6.273-14.159-14.007 0-7.737 6.341-14.007 14.159-14.007 5.803 0 10.777 3.461 12.962 8.404h16.724c10.927 0 19.819 8.797 19.819 19.61z" fill="#2424be"/><path d="M49.845 83.466h-16.724c-2.186-4.944-7.159-8.404-12.962-8.404-7.818 0-14.159 6.27-14.159 14.006 0 7.734 6.341 14.008 14.159 14.008 5.803 0 10.775-3.461 12.962-8.405h16.724c4.682 0 8.492 3.77 8.492 8.405v18.321c0 3.094 2.535 5.604 5.663 5.604s5.664-2.509 5.664-5.604v-18.321c0-10.811-8.892-19.61-19.819-19.61z" fill="#cf30cf"/><path d="M58.335 65.956v8.512c0 3.094 2.536 5.603 5.664 5.603 3.127 0 5.663-2.509 5.663-5.603v-8.512c0-4.635 3.811-8.404 8.492-8.404h16.722c2.187 4.942 7.16 8.404 12.964 8.404 7.818 0 14.159-6.273 14.159-14.007 0-7.737-6.341-14.007-14.159-14.007-5.805 0-10.777 3.46-12.964 8.404h-16.722c-10.929 0-19.819 8.797-19.819 19.61z" fill="#0f770f"/></svg>