<svg xmlns="http://www.w3.org/2000/svg" xmlns:svg="http://www.w3.org/2000/svg" id="svg2" width="128" height="128" version="1.1" viewBox="0 0 128 128"><metadata id="metadata7"/><g id="layer1" transform="translate(0,-924.36216)"><path id="path4143" d="m 69.664797,953.37686 0,8.5154 c 0,3.0944 -2.535841,5.6027 -5.663699,5.6027 -3.129177,0 -5.663261,-2.5083 -5.663261,-5.6027 l 0,-8.5154 c 0,-4.6347 -3.810348,-8.4043 -8.492477,-8.4043 l -16.72364,0 c -2.18757,4.9419 -7.15912,8.4043 -12.96247,8.4043 C 12.34136,953.37686 6,947.10376 6,939.36946 c 0,-7.7373 6.34136,-14.0073 14.15925,-14.0073 5.80335,0 10.77666,3.4607 12.96247,8.4042 l 16.72364,0 c 10.927306,0 19.819437,8.797 19.819437,19.6105 z" style="fill:#2271d5;fill-opacity:1"/><path id="path4141" d="m 49.84536,1007.8278 -16.72364,0 C 30.93548,1002.8842 25.9626,999.42396 20.15925,999.42396 12.34136,999.42396 6,1005.694 6,1013.43 c 0,7.7342 6.34136,14.0078 14.15925,14.0078 5.80335,0 10.77535,-3.4611 12.96247,-8.4051 l 16.72364,0 c 4.682129,0 8.492477,3.7704 8.492477,8.4051 l 0,18.3209 c 0,3.0944 2.534524,5.6035 5.663261,5.6035 3.127858,0 5.663699,-2.5091 5.663699,-5.6035 l 0,-18.3209 c 0,-10.8113 -8.892131,-19.61 -19.819437,-19.61 z" style="fill:#cf30cf;fill-opacity:1"/><path id="path3" d="m 58.335203,990.31796 0,8.512 c 0,3.09354 2.53584,5.60274 5.663699,5.60274 3.127419,0 5.66326,-2.5087 5.66326,-5.60274 l 0,-8.512 c 0,-4.6346 3.811228,-8.4042 8.492476,-8.4042 l 16.722318,0 c 2.187131,4.9418 7.159554,8.4042 12.964234,8.4042 7.81789,0 14.15881,-6.273 14.15881,-14.0073 0,-7.7369 -6.34092,-14.0069 -14.15881,-14.0069 -5.80468,0 -10.776665,3.4602 -12.964234,8.4042 l -16.722318,0 c -10.929061,0 -19.819435,8.797 -19.819435,19.61 z" style="fill:#2caf45;fill-opacity:1"/></g></svg>