<svg xmlns="http://www.w3.org/2000/svg" xmlns:xlink="http://www.w3.org/1999/xlink" width="128" height="128" viewBox="0 0 128 128"><defs><radialGradient xlink:href="#a" id="b" cx="64" cy="999.362" fx="64" fy="999.362" r="29" gradientTransform="matrix(.948 0 0 .948 -23.618 61.904)" gradientUnits="userSpaceOnUse"/><linearGradient id="a"><stop offset="0" stop-color="#34ae3d"/><stop offset="1" stop-color="#26822e"/></linearGradient><radialGradient xlink:href="#a" id="c" gradientUnits="userSpaceOnUse" gradientTransform="matrix(.948 0 0 .948 32.364 14.761)" cx="64" cy="999.362" fx="64" fy="999.362" r="29"/></defs><path d="M63.422 86.849v8.52q0 1.775-1.241 3.017-1.241 1.243-3.015 1.243h-18.444v18.46q0 1.775-1.241 3.017-1.241 1.243-3.015 1.243h-8.512q-1.773 0-3.015-1.243-1.241-1.243-1.241-3.017v-18.46h-18.444q-1.773 0-3.015-1.243-1.241-1.242-1.241-3.017v-8.52q0-1.775 1.241-3.018 1.241-1.243 3.015-1.243h18.444v-18.46q0-1.775 1.241-3.018 1.241-1.242 3.015-1.242h8.512q1.773 0 3.015 1.242 1.241 1.242 1.241 3.018v18.46h18.444q1.773 0 3.015 1.243 1.241 1.242 1.241 3.018z" fill="url(#b)"/><path d="M126.961 33.295v8.52q0 1.775-1.241 3.017-1.241 1.243-3.015 1.243h-18.444v18.46q0 1.775-1.241 3.017-1.241 1.243-3.015 1.243h-8.512q-1.773 0-3.015-1.243-1.241-1.243-1.241-3.017v-18.46h-18.444q-1.773 0-3.015-1.243-1.241-1.242-1.241-3.017v-8.52q0-1.775 1.241-3.018 1.241-1.243 3.015-1.243h18.444v-18.46q0-1.775 1.241-3.018 1.241-1.242 3.015-1.242h8.512q1.773 0 3.015 1.242 1.241 1.242 1.241 3.018v18.46h18.444q1.773 0 3.015 1.243 1.241 1.242 1.241 3.018z" fill="url(#c)"/></svg>