<svg xmlns="http://www.w3.org/2000/svg" xmlns:svg="http://www.w3.org/2000/svg" xmlns:xlink="http://www.w3.org/1999/xlink" id="svg2" width="128" height="128" version="1.1" viewBox="0 0 128 128"><defs id="defs4"><radialGradient id="radialGradient4148" cx="64" cy="999.362" r="29" fx="64" fy="999.362" gradientTransform="matrix(0.94827586,0,0,0.94827786,-23.618226,61.903596)" gradientUnits="userSpaceOnUse" xlink:href="#linearGradient4142"/><linearGradient id="linearGradient4142"><stop style="stop-color:#34ae3d;stop-opacity:1" id="stop4144" offset="0"/><stop style="stop-color:#26822e;stop-opacity:1" id="stop4146" offset="1"/></linearGradient><radialGradient id="radialGradient4176" cx="64" cy="999.362" r="29" fx="64" fy="999.362" gradientTransform="matrix(0.94827586,0,0,0.94827786,32.363917,14.760739)" gradientUnits="userSpaceOnUse" xlink:href="#linearGradient4142"/></defs><metadata id="metadata7"/><g id="layer1" transform="translate(0,-924.36216)"><g id="g4181" transform="matrix(1.1353178,0,0,1.135663,-9.8666136,-131.40736)"><g id="g4178"><path id="path4-3" d="m 64.571429,1005.8266 0,7.4999 q 0,1.5627 -1.093749,2.6562 -1.093745,1.0938 -2.656247,1.0938 l -16.250003,0 0,16.2502 q 0,1.5623 -1.093745,2.6561 -1.093753,1.0938 -2.656252,1.0938 l -7.499999,0 q -1.562507,0 -2.656252,-1.0938 -1.093752,-1.0938 -1.093752,-2.6561 l 0,-16.2502 -16.249998,0 q -1.562497,0 -2.656248,-1.0938 -1.0937554,-1.0935 -1.0937554,-2.6562 l 0,-7.4999 q 0,-1.5626 1.0937554,-2.6563 1.093751,-1.0938 2.656248,-1.0938 l 16.249998,0 0,-16.25001 q 0,-1.56255 1.093752,-2.65628 1.093745,-1.09373 2.656252,-1.09373 l 7.499999,0 q 1.562499,0 2.656252,1.09373 1.093745,1.09373 1.093745,2.65628 l 0,16.25001 16.250003,0 q 1.562502,0 2.656247,1.0938 1.093749,1.0937 1.093749,2.6563 z" style="fill:url(#radialGradient4148);fill-opacity:1"/></g><path id="path4174" d="m 120.55357,958.68374 0,7.4999 q 0,1.5627 -1.09375,2.6562 -1.09374,1.0938 -2.65624,1.0938 l -16.25001,0 0,16.2502 q 0,1.5623 -1.093742,2.6561 -1.093753,1.0938 -2.656252,1.0938 l -7.499999,0 q -1.562507,0 -2.656252,-1.0938 -1.093752,-1.0938 -1.093752,-2.6561 l 0,-16.2502 -16.249998,0 q -1.562497,0 -2.656248,-1.0938 -1.093756,-1.0935 -1.093756,-2.6562 l 0,-7.4999 q 0,-1.5626 1.093756,-2.6563 1.093751,-1.0938 2.656248,-1.0938 l 16.249998,0 0,-16.25001 q 0,-1.56255 1.093752,-2.65628 1.093745,-1.09373 2.656252,-1.09373 l 7.499999,0 q 1.562499,0 2.656252,1.09373 1.093742,1.09373 1.093742,2.65628 l 0,16.25001 16.25001,0 q 1.5625,0 2.65624,1.0938 1.09375,1.0937 1.09375,2.6563 z" style="fill:url(#radialGradient4176);fill-opacity:1"/></g></g></svg>