<svg xmlns="http://www.w3.org/2000/svg" xmlns:xlink="http://www.w3.org/1999/xlink" width="128" height="128" viewBox="0 0 128 128"><defs><radialGradient xlink:href="#a" id="b" cx="64" cy="999.362" fx="64" fy="999.362" r="29" gradientTransform="matrix(2.172 0 0 2.172 -75.034 -1182.67)" gradientUnits="userSpaceOnUse"/><linearGradient id="a"><stop offset="0" stop-color="#34ae3d"/><stop offset="1" stop-color="#26822e"/></linearGradient></defs><path d="M127 55.409v17.182q0 3.58-2.506 6.085-2.506 2.506-6.085 2.506h-37.227v37.228q0 3.579-2.506 6.085t-6.085 2.506h-17.182q-3.58 0-6.085-2.506-2.506-2.506-2.506-6.085v-37.228h-37.227q-3.58 0-6.085-2.506-2.506-2.505-2.506-6.085v-17.182q0-3.579 2.506-6.085t6.085-2.506h37.227v-37.227q0-3.58 2.506-6.085 2.506-2.506 6.085-2.506h17.182q3.58 0 6.085 2.506 2.506 2.506 2.506 6.085v37.227h37.227q3.58 0 6.085 2.506 2.506 2.506 2.506 6.085z" fill="url(#b)"/></svg>