<svg xmlns="http://www.w3.org/2000/svg" xmlns:svg="http://www.w3.org/2000/svg" xmlns:xlink="http://www.w3.org/1999/xlink" id="svg2" width="128" height="128" version="1.1" viewBox="0 0 128 128"><defs id="defs4"><radialGradient id="radialGradient4148" cx="64" cy="999.362" r="29" fx="64" fy="999.362" gradientTransform="matrix(2.1724138,0,0,2.1724184,-75.034483,-1182.6704)" gradientUnits="userSpaceOnUse" xlink:href="#linearGradient4142"/><linearGradient id="linearGradient4142"><stop style="stop-color:#34ae3d;stop-opacity:1" id="stop4144" offset="0"/><stop style="stop-color:#26822e;stop-opacity:1" id="stop4146" offset="1"/></linearGradient></defs><metadata id="metadata7"/><g id="layer1" transform="translate(0,-924.36216)"><path id="path4-3" d="m 127,979.77126 0,17.18184 q 0,3.5799 -2.50568,6.0849 -2.50567,2.5059 -6.08522,2.5059 l -37.22728,0 0,37.2278 q 0,3.5791 -2.50567,6.0847 -2.50569,2.5059 -6.08523,2.5059 l -17.181817,0 q -3.579562,0 -6.085233,-2.5059 -2.505686,-2.5056 -2.505686,-6.0847 l 0,-37.2278 -37.227265,0 q -3.579541,0 -6.085224,-2.5059 Q 1,1000.533 1,996.9531 l 0,-17.18184 q 0,-3.57948 2.505695,-6.08515 2.505683,-2.50588 6.085224,-2.50588 l 37.227265,0 0,-37.2273 q 0,-3.57951 2.505686,-6.0852 2.505671,-2.5057 6.085233,-2.5057 l 17.181817,0 q 3.57954,0 6.08523,2.5057 2.50567,2.50569 2.50567,6.0852 l 0,37.2273 37.22728,0 q 3.57955,0 6.08522,2.50588 Q 127,976.19178 127,979.77126 Z" style="fill:url(#radialGradient4148);fill-opacity:1"/></g></svg>