<svg xmlns="http://www.w3.org/2000/svg" xmlns:svg="http://www.w3.org/2000/svg" xmlns:xlink="http://www.w3.org/1999/xlink" id="svg2" width="128" height="128" version="1.1" viewBox="0 0 128 128"><defs id="defs4"><linearGradient id="linearGradient5980" x1="27.652" x2="21.591" y1="23.146" y2="20.619" gradientTransform="matrix(2.7328038,0,0,2.7976554,-6.9114535,920.5341)" gradientUnits="userSpaceOnUse" xlink:href="#linearGradient5974"/><linearGradient id="linearGradient5974"><stop style="stop-color:#ad7fa8;stop-opacity:1" id="stop5976" offset="0"/><stop style="stop-color:#dac6d8;stop-opacity:1" id="stop5978" offset="1"/></linearGradient><linearGradient id="linearGradient6005" x1="27.355" x2="23.489" y1="36.218" y2="34.728" gradientTransform="matrix(2.7976554,0,0,2.7976554,-8.6609309,920.5341)" gradientUnits="userSpaceOnUse" xlink:href="#linearGradient5999"/><linearGradient id="linearGradient5999"><stop style="stop-color:#c4a000;stop-opacity:1" id="stop6001" offset="0"/><stop style="stop-color:#c4a000;stop-opacity:0" id="stop6003" offset="1"/></linearGradient><linearGradient id="linearGradient5973" x1="22.32" x2="18.986" y1="41.956" y2="37.029" gradientTransform="matrix(2.7976554,0,0,2.7976554,-8.6609309,920.5341)" gradientUnits="userSpaceOnUse" xlink:href="#linearGradient5981"/><linearGradient id="linearGradient5981"><stop id="stop5983" offset="0" style="stop-color:#fff;stop-opacity:1"/><stop id="stop5985" offset="1" style="stop-color:#fff;stop-opacity:.69411765"/></linearGradient><linearGradient id="linearGradient5972" x1="20.934" x2="30.208" y1="25.061" y2="30.743" gradientTransform="matrix(2.7976554,0,0,2.7976554,-8.6609309,920.5341)" gradientUnits="userSpaceOnUse" xlink:href="#linearGradient5966"/><linearGradient id="linearGradient5966"><stop style="stop-color:#fdef72;stop-opacity:1" id="stop5968" offset="0"/><stop style="stop-color:#e2cb0b;stop-opacity:1" id="stop5970" offset="1"/></linearGradient><linearGradient id="linearGradient5993" x1="17.032" x2="29.494" y1="27.447" y2="37.846" gradientTransform="matrix(2.7976554,0,0,2.7976554,-8.6609309,920.5341)" gradientUnits="userSpaceOnUse" xlink:href="#linearGradient5987"/><linearGradient id="linearGradient5987"><stop style="stop-color:#d7c20f;stop-opacity:1" id="stop5989" offset="0"/><stop style="stop-color:#b6970d;stop-opacity:1" id="stop5991" offset="1"/></linearGradient><linearGradient id="linearGradient5964" x1="28" x2="26" y1="16" y2="8" gradientTransform="matrix(2.7976554,0,0,2.7976554,-8.6609309,920.5341)" gradientUnits="userSpaceOnUse" xlink:href="#linearGradient5958"/><linearGradient id="linearGradient5958"><stop style="stop-color:#c17d11;stop-opacity:1" id="stop5960" offset="0"/><stop style="stop-color:#e9b96e;stop-opacity:1" id="stop5962" offset="1"/></linearGradient><linearGradient id="linearGradient6002" x1="30.325" x2="34" y1="9.241" y2="18" gradientTransform="matrix(2.7976554,0,0,2.7976554,-8.6609309,920.5341)" gradientUnits="userSpaceOnUse" xlink:href="#linearGradient5996"/><linearGradient id="linearGradient5996"><stop style="stop-color:#8f5902;stop-opacity:1" id="stop5998" offset="0"/><stop style="stop-color:#73521e;stop-opacity:1" id="stop6000" offset="1"/></linearGradient></defs><metadata id="metadata7"/><g id="layer1" transform="translate(0,-924.36216)"><path style="fill:url(#linearGradient5964);fill-opacity:1;fill-rule:evenodd;stroke:url(#linearGradient6002);stroke-width:2.79765534px;stroke-linecap:butt;stroke-linejoin:miter;stroke-opacity:1" id="path5371" d="M 93.715774,927.44081 C 70.765997,927.73638 67.426763,972.8958 60.84332,981.03342 l 11.190622,4.02163 c 7.363068,-12.23291 44.079858,-52.89809 23.954927,-57.52681 -0.781917,-0.0867 -1.532779,-0.0971 -2.273095,-0.0873 z m -2.885082,5.77016 c 0.541514,-0.0523 1.029509,0.0168 1.486254,0.26214 1.827037,0.98511 2.024524,4.18216 0.437134,7.08157 -1.587418,2.89941 -4.380289,4.48218 -6.207298,3.49707 -1.827009,-0.98511 -2.024551,-4.18216 -0.437133,-7.08157 1.190542,-2.17456 3.096472,-3.60206 4.721043,-3.75935 z"/><path style="fill:url(#linearGradient5972);fill-opacity:1;fill-rule:evenodd;stroke:url(#linearGradient5993);stroke-width:2.79765534;stroke-linecap:butt;stroke-linejoin:miter;stroke-miterlimit:20;stroke-dasharray:none;stroke-opacity:1" id="path5367" d="m 54.286316,966.69541 c 1.984953,5.60373 -1.514618,10.45711 -2.797656,13.98831 -14.524215,4.32433 -24.582441,27.14758 -39.538094,39.03738 1.868241,1.9511 4.062828,4.0404 5.966229,5.7251 l 11.365475,-9.8794 -8.581964,12.6586 c 6.180684,5.0106 12.603594,8.4114 16.800077,9.8103 l 7.693553,-10.2291 -4.895897,11.6279 c 4.062178,1.6475 13.947112,4.1461 19.583587,4.1965 l 5.606194,-9.5191 -1.43567,9.6939 c 2.320831,0.4432 6.821145,1.0469 9.817753,1.1364 9.406252,-15.3871 11.190625,-40.4784 5.595314,-51.66903 -1.398828,-5.59532 4.196483,-12.58945 8.392966,-15.38711 -6.994138,-5.59534 -22.956413,-12.04038 -33.571867,-11.19065 z"/><path style="opacity:.26666667;fill:#c4a000;fill-rule:evenodd;stroke:none;stroke-width:1px;stroke-linecap:butt;stroke-linejoin:miter;stroke-opacity:1" id="path5975" d="m 22.113278,1028.2439 c 13.474894,-14.0188 12.491596,-20.1541 28.30141,-32.25057 -8.343845,13.50817 -9.696223,20.53477 -19.908443,37.84587 l -8.392967,-5.5953 z"/><path style="opacity:.41568627;fill:#c4a000;fill-rule:evenodd;stroke:none;stroke-width:1px;stroke-linecap:butt;stroke-linejoin:miter;stroke-opacity:1" id="path5979" d="m 42.115977,1038.6019 12.158686,-27.5292 c 4.656734,-8.3474 8.000377,-16.70229 12.670506,-23.35316 -4.481715,15.15796 -13.682465,33.91266 -21.069842,52.10636 l -3.75935,-1.224 z"/><path style="opacity:.47843137;fill:none;fill-opacity:1;fill-rule:evenodd;stroke:url(#linearGradient5973);stroke-width:2.79765534px;stroke-linecap:butt;stroke-linejoin:miter;stroke-opacity:1" id="path6014" d="m 57.433678,969.49307 c 0.270645,5.35793 -2.582077,9.87463 -3.409643,12.1522 -0.291244,0.79677 -0.938137,1.41114 -1.748534,1.66125 -15.256729,6.25164 -21.34556,23.98708 -36.354519,36.61068 0.564124,0.559 1.37653,1.1675 1.943052,1.7015 l 25.23166,-21.3514 -18.399103,27.4458 c 3.553115,2.8749 7.615781,5.2725 11.824727,6.964 l 19.56779,-26.0168 -11.959678,29.128 c 4.463853,1.4708 8.667985,2.3145 13.834432,3.045 l 12.921614,-21.507 -3.834858,22.1205 5.245604,0.6323 c 4.009631,-7.0935 5.965667,-15.8529 7.081568,-24.5889 1.186038,-9.2848 -0.01399,-18.29971 -2.360522,-22.99306 -0.0761,-0.16786 -0.134567,-0.34411 -0.174853,-0.52456 -0.970395,-3.88147 0.473195,-7.68124 2.447948,-10.84092 1.194292,-1.91079 2.602855,-3.61121 4.098454,-5.04081 -3.277398,-2.18967 -7.236695,-4.08472 -12.229142,-5.88755 -4.929685,-1.78018 -9.786193,-2.65783 -13.725997,-2.71023 z"/><path style="opacity:.24705882;fill:url(#linearGradient6005);fill-opacity:1;fill-rule:evenodd;stroke:none;stroke-width:1px;stroke-linecap:butt;stroke-linejoin:miter;stroke-opacity:1" id="path5977" d="m 50.002406,1040.8333 c 6.092079,-16.0918 17.893569,-28.1693 22.42856,-44.58175 0.144191,10.24525 0.69863,28.54645 -5.292921,46.76725 -0.894595,0 -0.486588,-0.3099 -1.314562,-0.3315 l 2.24034,-16.0152 -9.180467,15.5393 c -6.129126,-0.4375 -3.621876,0.092 -8.88095,-1.3781 z"/><path style="opacity:.48235294;fill:#c4a000;fill-rule:evenodd;stroke:none;stroke-width:1px;stroke-linecap:butt;stroke-linejoin:miter;stroke-opacity:1" id="path5995" d="m 55.693724,983.79023 c -3.502651,1.72448 -5.76935,4.27286 -8.345703,6.61478 3.431288,-1.98242 6.655583,-4.0538 11.189427,-5.5637 l -2.843724,-1.05108 z"/><path style="opacity:.48235294;fill:#c4a000;fill-rule:evenodd;stroke:none;stroke-width:1px;stroke-linecap:butt;stroke-linejoin:miter;stroke-opacity:1" id="path5997" d="m 61.304788,985.05086 -2.843719,5.56397 8.339008,-4.44351 -5.495289,-1.12046 z"/><path style="opacity:.48235294;fill:#c4a000;fill-rule:evenodd;stroke:none;stroke-width:1px;stroke-linecap:butt;stroke-linejoin:miter;stroke-opacity:1" id="path6007" d="m 61.112049,970.78391 -2.504441,4.77565 4.380364,1.40467 -1.875923,-6.18032 z"/><path style="opacity:.48235294;fill:#c4a000;fill-rule:evenodd;stroke:none;stroke-width:1px;stroke-linecap:butt;stroke-linejoin:miter;stroke-opacity:1" id="path6009" d="m 80.649325,976.16651 -6.882918,5.13493 4.380359,1.4047 2.502559,-6.53963 z"/><path style="opacity:.48235294;fill:#c4a000;fill-rule:evenodd;stroke:none;stroke-width:1px;stroke-linecap:butt;stroke-linejoin:miter;stroke-opacity:1" id="path6011" d="m 69.70958,970.72003 -4.235401,7.06308 4.380364,1.4047 -0.144974,-8.46778 z"/><path style="opacity:.2;fill:#000;fill-opacity:1;fill-rule:evenodd;stroke:none;stroke-width:1px;stroke-linecap:butt;stroke-linejoin:round;stroke-opacity:1" id="path6013" d="m 49.999541,982.15165 c -1.585655,-8.29642 26.110056,6.02307 30.877233,8.3773 -0.01679,3.01867 0,5.59531 -2.732806,5.59531 -7.183092,-3.89714 -18.283397,-10.08611 -28.144427,-13.97261 z"/><path style="fill:url(#linearGradient5980);fill-opacity:1;fill-rule:evenodd;stroke:#5c3566;stroke-width:2.79765534px;stroke-linecap:butt;stroke-linejoin:round;stroke-opacity:1" id="path5373" d="m 49.111025,980.68372 c -1.366403,-2.79766 0,-5.59534 2.732806,-5.59534 11.166674,2.72886 20.492476,6.17221 30.06083,11.19065 1.366402,2.79765 0,5.59531 -2.732778,5.59531 -9.886769,-5.21595 -19.210705,-8.60223 -30.060858,-11.19062 z"/></g></svg>