<svg xmlns="http://www.w3.org/2000/svg" xmlns:xlink="http://www.w3.org/1999/xlink" width="128" height="128" viewBox="0 0 128 128"><defs><linearGradient xlink:href="#a" id="n" x1="27.652" y1="23.146" x2="21.591" y2="20.619" gradientUnits="userSpaceOnUse" gradientTransform="matrix(2.733 0 0 2.798 -6.911 920.534)"/><linearGradient id="a"><stop offset="0" stop-color="#ad7fa8"/><stop offset="1" stop-color="#dac6d8"/></linearGradient><linearGradient xlink:href="#b" id="m" x1="27.355" y1="36.218" x2="23.489" y2="34.728" gradientUnits="userSpaceOnUse" gradientTransform="matrix(2.798 0 0 2.798 -8.661 920.534)"/><linearGradient id="b"><stop offset="0" stop-color="#c4a000"/><stop offset="1" stop-color="#c4a000" stop-opacity="0"/></linearGradient><linearGradient xlink:href="#c" id="l" gradientUnits="userSpaceOnUse" x1="22.32" y1="41.956" x2="18.986" y2="37.029" gradientTransform="matrix(2.798 0 0 2.798 -8.661 920.534)"/><linearGradient id="c"><stop offset="0" stop-color="#fff"/><stop offset="1" stop-color="#fff" stop-opacity=".694"/></linearGradient><linearGradient xlink:href="#d" id="j" x1="20.934" y1="25.061" x2="30.208" y2="30.743" gradientUnits="userSpaceOnUse" gradientTransform="matrix(2.798 0 0 2.798 -8.661 920.534)"/><linearGradient id="d"><stop offset="0" stop-color="#fdef72"/><stop offset="1" stop-color="#e2cb0b"/></linearGradient><linearGradient xlink:href="#e" id="k" x1="17.032" y1="27.447" x2="29.494" y2="37.846" gradientUnits="userSpaceOnUse" gradientTransform="matrix(2.798 0 0 2.798 -8.661 920.534)"/><linearGradient id="e"><stop offset="0" stop-color="#d7c20f"/><stop offset="1" stop-color="#b6970d"/></linearGradient><linearGradient xlink:href="#f" id="h" x1="28" y1="16" x2="26" y2="8" gradientUnits="userSpaceOnUse" gradientTransform="matrix(2.798 0 0 2.798 -8.661 920.534)"/><linearGradient id="f"><stop offset="0" stop-color="#c17d11"/><stop offset="1" stop-color="#e9b96e"/></linearGradient><linearGradient xlink:href="#g" id="i" x1="30.325" y1="9.241" x2="34" y2="18" gradientUnits="userSpaceOnUse" gradientTransform="matrix(2.798 0 0 2.798 -8.661 920.534)"/><linearGradient id="g"><stop offset="0" stop-color="#8f5902"/><stop offset="1" stop-color="#73521e"/></linearGradient></defs><path d="M93.716 3.079c-22.95.296-26.289 45.455-32.872 53.593l11.191 4.022c7.363-12.233 44.08-52.898 23.955-57.527-.782-.087-1.533-.097-2.273-.087zm-2.885 5.77c.542-.052 1.03.017 1.486.262 1.827.985 2.025 4.182.437 7.082-1.587 2.899-4.38 4.482-6.207 3.497-1.827-.985-2.025-4.182-.437-7.082 1.191-2.175 3.096-3.602 4.721-3.759z" fill="url(#h)" fill-rule="evenodd" stroke="url(#i)" stroke-width="2.798"/><path d="M54.286 42.333c1.985 5.604-1.515 10.457-2.798 13.988-14.524 4.324-24.582 27.148-39.538 39.037 1.868 1.951 4.063 4.04 5.966 5.725l11.365-9.879-8.582 12.659c6.181 5.011 12.604 8.411 16.8 9.81l7.694-10.229-4.896 11.628c4.062 1.647 13.947 4.146 19.584 4.197l5.606-9.519-1.436 9.694c2.321.443 6.821 1.047 9.818 1.136 9.406-15.387 11.191-40.478 5.595-51.669-1.399-5.595 4.196-12.589 8.393-15.387-6.994-5.595-22.956-12.04-33.572-11.191z" fill="url(#j)" fill-rule="evenodd" stroke="url(#k)" stroke-width="2.798" stroke-miterlimit="20"/><path d="M22.113 103.882c13.475-14.019 12.492-20.154 28.301-32.251-8.344 13.508-9.696 20.535-19.908 37.846l-8.393-5.595z" opacity=".267" fill="#c4a000" fill-rule="evenodd"/><path d="M42.116 114.24l12.159-27.529c4.657-8.347 8-16.702 12.671-23.353-4.482 15.158-13.682 33.913-21.07 52.106l-3.759-1.224z" opacity=".416" fill="#c4a000" fill-rule="evenodd"/><path d="M57.434 45.131c.271 5.358-2.582 9.875-3.41 12.152-.291.797-.938 1.411-1.749 1.661-15.257 6.252-21.346 23.987-36.355 36.611.564.559 1.377 1.167 1.943 1.702l25.232-21.351-18.399 27.446c3.553 2.875 7.616 5.272 11.825 6.964l19.568-26.017-11.96 29.128c4.464 1.471 8.668 2.314 13.834 3.045l12.922-21.507-3.835 22.12 5.246.632c4.01-7.093 5.966-15.853 7.082-24.589 1.186-9.285-.014-18.3-2.361-22.993-.076-.168-.135-.344-.175-.525-.97-3.881.473-7.681 2.448-10.841 1.194-1.911 2.603-3.611 4.098-5.041-3.277-2.19-7.237-4.085-12.229-5.888-4.93-1.78-9.786-2.658-13.726-2.71z" opacity=".478" stroke="url(#l)" stroke-width="2.798" fill="none"/><path d="M50.002 116.471c6.092-16.092 17.894-28.169 22.429-44.582.144 10.245.699 28.546-5.293 46.767-.895 0-.487-.31-1.315-.332l2.24-16.015-9.18 15.539c-6.129-.438-3.622.092-8.881-1.378z" opacity=".247" fill="url(#m)" fill-rule="evenodd"/><path d="M55.694 59.428c-3.503 1.724-5.769 4.273-8.346 6.615 3.431-1.982 6.656-4.054 11.189-5.564l-2.844-1.051zm5.611 1.261l-2.844 5.564 8.339-4.444-5.495-1.12zm-.193-14.267l-2.504 4.776 4.38 1.405-1.876-6.18zm19.537 5.382l-6.883 5.135 4.38 1.405 2.503-6.54zm-10.939-5.446l-4.235 7.063 4.38 1.405-.145-8.468z" opacity=".482" fill="#c4a000" fill-rule="evenodd"/><path d="M50 57.789c-1.586-8.296 26.11 6.023 30.877 8.377-.017 3.019 0 5.595-2.733 5.595-7.183-3.897-18.283-10.086-28.144-13.973z" opacity=".2" fill-rule="evenodd"/><path d="M49.111 56.322c-1.366-2.798 0-5.595 2.733-5.595 11.167 2.729 20.492 6.172 30.061 11.191 1.366 2.798 0 5.595-2.733 5.595-9.887-5.216-19.211-8.602-30.061-11.191z" fill="url(#n)" fill-rule="evenodd" stroke="#5c3566" stroke-width="2.798" stroke-linejoin="round"/></svg>