<?xml version="1.0" encoding="UTF-8" standalone="no"?>
<!-- Created with Inkscape (http://www.inkscape.org/) -->

<svg
   xmlns:dc="http://purl.org/dc/elements/1.1/"
   xmlns:cc="http://creativecommons.org/ns#"
   xmlns:rdf="http://www.w3.org/1999/02/22-rdf-syntax-ns#"
   xmlns:svg="http://www.w3.org/2000/svg"
   xmlns="http://www.w3.org/2000/svg"
   xmlns:sodipodi="http://sodipodi.sourceforge.net/DTD/sodipodi-0.dtd"
   xmlns:inkscape="http://www.inkscape.org/namespaces/inkscape"
   width="128"
   height="128"
   viewBox="0 0 128 128"
   id="svg2"
   version="1.1"
   inkscape:version="0.92.4 5da689c313, 2019-01-14"
   sodipodi:docname="print.svg">
  <defs
     id="defs4" />
  <sodipodi:namedview
     id="base"
     pagecolor="#ffffff"
     bordercolor="#666666"
     borderopacity="1.0"
     inkscape:pageopacity="0.0"
     inkscape:pageshadow="2"
     inkscape:zoom="5.6"
     inkscape:cx="-25.335547"
     inkscape:cy="69.707741"
     inkscape:document-units="px"
     inkscape:current-layer="layer1"
     showgrid="false"
     units="px"
     inkscape:window-width="2560"
     inkscape:window-height="1400"
     inkscape:window-x="0"
     inkscape:window-y="40"
     inkscape:window-maximized="0" />
  <metadata
     id="metadata7">
    <rdf:RDF>
      <cc:Work
         rdf:about="">
        <dc:format>image/svg+xml</dc:format>
        <dc:type
           rdf:resource="http://purl.org/dc/dcmitype/StillImage" />
        <dc:title />
        <dc:creator>
          <cc:Agent>
            <dc:title>Kovid Goyal</dc:title>
          </cc:Agent>
        </dc:creator>
        <dc:rights>
          <cc:Agent>
            <dc:title />
          </cc:Agent>
        </dc:rights>
        <dc:publisher>
          <cc:Agent>
            <dc:title />
          </cc:Agent>
        </dc:publisher>
        <cc:license
           rdf:resource="http://creativecommons.org/licenses/by-sa/3.0/" />
      </cc:Work>
      <cc:License
         rdf:about="http://creativecommons.org/licenses/by-sa/3.0/">
        <cc:permits
           rdf:resource="http://creativecommons.org/ns#Reproduction" />
        <cc:permits
           rdf:resource="http://creativecommons.org/ns#Distribution" />
        <cc:requires
           rdf:resource="http://creativecommons.org/ns#Notice" />
        <cc:requires
           rdf:resource="http://creativecommons.org/ns#Attribution" />
        <cc:permits
           rdf:resource="http://creativecommons.org/ns#DerivativeWorks" />
        <cc:requires
           rdf:resource="http://creativecommons.org/ns#ShareAlike" />
      </cc:License>
    </rdf:RDF>
  </metadata>
  <g
     inkscape:label="Layer 1"
     inkscape:groupmode="layer"
     id="layer1"
     transform="translate(0,-924.36216)">
    <path
       style="fill:#2caf45;fill-opacity:1"
       d="m 100.13225,929.65883 c 0,-2.37584 -1.917064,-4.29037 -4.290374,-4.29667 l -63.688787,0 c -2.363232,0.005 -4.285327,1.91957 -4.285327,4.29415 l 0,12.12243 72.264488,0 0,-12.11991 z"
       id="path4147" />
    <path
       id="path4141"
       style="fill:#0b59bd;fill-opacity:1"
       d="m 107.83953,964.675 c -2.64808,0 -4.78948,-2.14897 -4.78948,-4.78697 0,-2.6506 2.1414,-4.79578 4.78948,-4.79578 2.64808,0 4.79075,2.14518 4.79075,4.79578 0,2.638 -2.14393,4.78697 -4.79075,4.78697 z m -16.460694,0 c -2.64808,0 -4.78823,-2.14897 -4.78823,-4.78697 0,-2.6506 2.14015,-4.79578 4.78823,-4.79578 2.648079,0 4.792,2.14518 4.792,4.79578 0,2.638 -2.14392,4.78697 -4.792,4.78697 z m 17.040474,-17.14257 -88.836094,0 c -6.687631,0 -12.1123515,6.1986 -12.1123515,13.85043 l 0,34.43642 c 0,7.64552 5.4247205,13.84792 12.1123515,13.84792 l 3.986615,0 0,-12.12119 c 0,-4.74789 3.845451,-8.58707 8.583258,-8.58707 l 63.688787,0 c 4.741594,0 8.582004,3.84044 8.585784,8.58707 l 0,12.12119 3.99165,0 c 6.69016,0 12.10983,-6.2024 12.10983,-13.84792 l 0,-34.43642 c 0,-7.65183 -5.42093,-13.85043 -12.10983,-13.85043 z" />
    <path
       style="fill:#2271d5;fill-opacity:1"
       d="m 89.359686,1028.1458 -15.21291,0 c -0.20545,0 -0.40459,0.083 -0.55079,0.2294 -0.14621,0.1449 -0.22687,0.3416 -0.22687,0.5483 l 0,15.4284 -34.725017,0 0,-46.36979 -7.012812,0 0,49.87119 c 0,0.9264 0.373076,1.8313 1.027219,2.4817 0.651621,0.6516 1.554061,1.0272 2.479187,1.0272 l 39.702293,0 c 0.92135,0 1.82253,-0.3769 2.47919,-1.0234 l 18.0198,-17.9858 c 0.66423,-0.6642 1.03226,-1.5465 1.03226,-2.4855 l 0,-31.88539 -7.01155,0 0,30.16369 z"
       id="path4" />
  </g>
</svg>
