<svg xmlns="http://www.w3.org/2000/svg" width="128" height="128" viewBox="0 0 128 128"><path d="M100.132 5.297c0-2.376-1.917-4.29-4.29-4.297h-63.689c-2.363.005-4.285 1.92-4.285 4.294v12.122h72.264v-12.12z" fill="#291e75"/><path d="M107.84 40.313c-2.648 0-4.789-2.149-4.789-4.787 0-2.651 2.141-4.796 4.789-4.796 2.648 0 4.791 2.145 4.791 4.796 0 2.638-2.144 4.787-4.791 4.787zm-16.461 0c-2.648 0-4.788-2.149-4.788-4.787 0-2.651 2.14-4.796 4.788-4.796s4.792 2.145 4.792 4.796c0 2.638-2.144 4.787-4.792 4.787zm17.04-17.143h-88.836c-6.688 0-12.112 6.199-12.112 13.85v34.436c0 7.646 5.425 13.848 12.112 13.848h3.987v-12.121c0-4.748 3.845-8.587 8.583-8.587h63.689c4.742 0 8.582 3.84 8.586 8.587v12.121h3.992c6.69 0 12.11-6.202 12.11-13.848v-34.436c0-7.652-5.421-13.85-12.11-13.85z" fill="#4b38cd"/><path d="M89.36 103.784h-15.213c-.205 0-.405.083-.551.229-.146.145-.227.342-.227.548v15.428h-34.725v-46.37h-7.013v49.871c0 .926.373 1.831 1.027 2.482.652.652 1.554 1.027 2.479 1.027h39.702c.921 0 1.823-.377 2.479-1.023l18.02-17.986c.664-.664 1.032-1.546 1.032-2.486v-31.885h-7.012v30.164z" fill="#1010b4"/></svg>