<?xml version="1.0" encoding="UTF-8" standalone="no"?>
<!-- Created with Inkscape (http://www.inkscape.org/) -->

<svg
   xmlns:dc="http://purl.org/dc/elements/1.1/"
   xmlns:cc="http://creativecommons.org/ns#"
   xmlns:rdf="http://www.w3.org/1999/02/22-rdf-syntax-ns#"
   xmlns:svg="http://www.w3.org/2000/svg"
   xmlns="http://www.w3.org/2000/svg"
   xmlns:xlink="http://www.w3.org/1999/xlink"
   xmlns:sodipodi="http://sodipodi.sourceforge.net/DTD/sodipodi-0.dtd"
   xmlns:inkscape="http://www.inkscape.org/namespaces/inkscape"
   width="128"
   height="128"
   viewBox="0 0 128 128"
   id="svg2"
   version="1.1"
   inkscape:version="0.92.4 5da689c313, 2019-01-14"
   sodipodi:docname="publisher.svg">
  <defs
     id="defs4">
    <linearGradient
       inkscape:collect="always"
       id="linearGradient4174">
      <stop
         style="stop-color:#b2cffa;stop-opacity:1"
         offset="0"
         id="stop4176" />
      <stop
         style="stop-color:#0b59bd;stop-opacity:1"
         offset="1"
         id="stop4178" />
    </linearGradient>
    <linearGradient
       inkscape:collect="always"
       xlink:href="#linearGradient4174"
       id="linearGradient4180"
       x1="74.229828"
       y1="1042.3796"
       x2="74.229828"
       y2="958.04688"
       gradientUnits="userSpaceOnUse" />
  </defs>
  <sodipodi:namedview
     id="base"
     pagecolor="#ffffff"
     bordercolor="#666666"
     borderopacity="1.0"
     inkscape:pageopacity="0.0"
     inkscape:pageshadow="2"
     inkscape:zoom="5.6"
     inkscape:cx="19.843024"
     inkscape:cy="69.707741"
     inkscape:document-units="px"
     inkscape:current-layer="layer1"
     showgrid="false"
     units="px"
     inkscape:window-width="2560"
     inkscape:window-height="1400"
     inkscape:window-x="0"
     inkscape:window-y="40"
     inkscape:window-maximized="0" />
  <metadata
     id="metadata7">
    <rdf:RDF>
      <cc:Work
         rdf:about="">
        <dc:format>image/svg+xml</dc:format>
        <dc:type
           rdf:resource="http://purl.org/dc/dcmitype/StillImage" />
        <dc:title />
        <dc:creator>
          <cc:Agent>
            <dc:title>Kovid Goyal</dc:title>
          </cc:Agent>
        </dc:creator>
        <dc:rights>
          <cc:Agent>
            <dc:title />
          </cc:Agent>
        </dc:rights>
        <dc:publisher>
          <cc:Agent>
            <dc:title />
          </cc:Agent>
        </dc:publisher>
        <cc:license
           rdf:resource="http://creativecommons.org/licenses/by-sa/3.0/" />
      </cc:Work>
      <cc:License
         rdf:about="http://creativecommons.org/licenses/by-sa/3.0/">
        <cc:permits
           rdf:resource="http://creativecommons.org/ns#Reproduction" />
        <cc:permits
           rdf:resource="http://creativecommons.org/ns#Distribution" />
        <cc:requires
           rdf:resource="http://creativecommons.org/ns#Notice" />
        <cc:requires
           rdf:resource="http://creativecommons.org/ns#Attribution" />
        <cc:permits
           rdf:resource="http://creativecommons.org/ns#DerivativeWorks" />
        <cc:requires
           rdf:resource="http://creativecommons.org/ns#ShareAlike" />
      </cc:License>
    </rdf:RDF>
  </metadata>
  <g
     inkscape:label="Layer 1"
     inkscape:groupmode="layer"
     id="layer1"
     transform="translate(0,-924.36216)">
    <g
       id="g4167"
       style="fill-opacity:1;fill:url(#linearGradient4180)">
      <path
         id="path4"
         d="m 15.172676,1038.1032 5.243004,-40.38987 c 0.193533,-1.46909 1.199322,-2.708 2.592179,-3.17131 l 7.911425,-2.65083 5.803081,-6.26639 c 0.716954,-0.81225 1.741803,-1.2565 2.823833,-1.2565 l 63.061212,0 c 1.06297,0 2.08929,0.44572 2.82384,1.2565 l 5.12571,5.53038 c 0.42665,0.48383 0.98673,0.85184 1.60692,1.04537 l 6.96281,2.34147 c 1.41192,0.46331 2.43677,1.70222 2.61124,3.17131 l 5.24154,40.38987 c 0.0205,0.1555 0.0205,0.3299 0.0205,0.4839 0,2.1274 -1.72274,3.8692 -3.86921,3.8692 l -104.127027,0 c -0.155414,0 -0.329887,-0.021 -0.483834,-0.038 -2.127406,-0.2713 -3.618494,-2.2066 -3.347253,-4.315 z m 21.240328,-11.9536 c 0,-3.0364 -2.457292,-5.5128 -5.495186,-5.5128 -3.017367,0 -5.473193,2.4749 -5.473193,5.5128 0,3.0379 2.457292,5.4732 5.473193,5.4732 3.037894,0 5.495186,-2.4368 5.495186,-5.4732 l 0,0 z m 20.077661,0 c 0,-3.0364 -2.457293,-5.5128 -5.49372,-5.5128 -3.036427,0 -5.493719,2.4749 -5.493719,5.5128 0,3.0379 2.455826,5.4732 5.493719,5.4732 3.037894,0 5.49372,-2.4368 5.49372,-5.4732 l 0,0 z m -10.019771,-16.3844 c 0,-3.0364 -2.476352,-5.4937 -5.512779,-5.4937 -3.036428,0 -5.47466,2.4573 -5.47466,5.4937 0,3.0364 2.438232,5.4937 5.47466,5.4937 3.036427,0 5.512779,-2.4558 5.512779,-5.4937 l 0,0 z m 30.098897,16.3844 c 0,-3.0364 -2.457292,-5.5128 -5.493719,-5.5128 -3.034961,0 -5.492253,2.4749 -5.492253,5.5128 0,3.0379 2.457292,5.4732 5.492253,5.4732 3.036427,0 5.493719,-2.4368 5.493719,-5.4732 l 0,0 z m -10.040296,-16.3844 c 0,-3.0364 -2.455826,-5.4937 -5.492253,-5.4937 -3.037894,0 -5.49372,2.4573 -5.49372,5.4937 0,3.0364 2.455826,5.4937 5.49372,5.4937 3.036427,0 5.492253,-2.4558 5.492253,-5.4937 l 0,0 z m 30.098897,16.3844 c 0,-3.0364 -2.455826,-5.5128 -5.473193,-5.5128 -3.037894,0 -5.49372,2.4749 -5.49372,5.5128 0,3.0379 2.455826,5.4732 5.49372,5.4732 3.017367,0 5.473193,-2.4368 5.473193,-5.4732 l 0,0 z m -10.018304,-16.3844 c 0,-3.0364 -2.458758,-5.4937 -5.495186,-5.4937 -3.036427,0 -5.512779,2.4573 -5.512779,5.4937 0,3.0364 2.474886,5.4937 5.512779,5.4937 3.037894,0 5.495186,-2.4558 5.495186,-5.4937 l 0,0 z m 30.116492,16.3844 c 0,-3.0364 -2.47635,-5.5128 -5.51424,-5.5128 -3.0379,0 -5.49226,2.4749 -5.49226,5.5128 0,3.0379 2.45583,5.4732 5.49226,5.4732 3.03642,0 5.51424,-2.4368 5.51424,-5.4732 l 0,0 z m -10.05935,-16.3844 c 0,-3.0364 -2.45583,-5.4937 -5.49226,-5.4937 -3.018834,0 -5.47466,2.4573 -5.47466,5.4937 0,3.0364 2.457292,5.4937 5.47466,5.4937 3.03643,0 5.49226,-2.4558 5.49226,-5.4937 l 0,0 z"
         inkscape:connector-curvature="0"
         style="fill-opacity:1;fill:url(#linearGradient4180)" />
      <g
         id="g6"
         transform="matrix(1.4661648,0,0,1.4661648,-10.331261,914.05695)"
         style="fill-opacity:1;fill:url(#linearGradient4180)">
        <path
           id="path8"
           d="m 12.065,56.637 5.515,-5.25 c 0.25,-0.238 0.527,-0.423 0.857,-0.555 l 7.441,-2.917 c 0.475,-0.184 0.884,-0.514 1.188,-0.949 l 1.042,-1.478 c 0.488,-0.713 1.293,-1.122 2.15,-1.122 l 52.641,0 0,-11.688 -57.654,0 -16.913,20.753 c -0.897,1.029 -0.778,2.586 0.25,3.47 1.043,0.898 2.599,0.778 3.483,-0.264 z"
           inkscape:connector-curvature="0"
           style="fill-opacity:1;fill:url(#linearGradient4180)" />
      </g>
      <g
         id="g10"
         transform="matrix(1.4661648,0,0,1.4661648,-10.331261,914.05695)"
         style="fill-opacity:1;fill:url(#linearGradient4180)">
        <path
           id="path12"
           d="m 87.465,44.367 c 0,1.412 1.16,2.573 2.586,2.573 1.425,0 2.572,-1.161 2.572,-2.573 l 0,-11.689 c 0,-1.425 -1.147,-2.573 -2.572,-2.573 -1.426,0 -2.586,1.148 -2.586,2.573 l 0,11.689 z"
           inkscape:connector-curvature="0"
           style="fill-opacity:1;fill:url(#linearGradient4180)" />
      </g>
    </g>
    <g
       transform="matrix(1.4661648,0,0,1.4661648,-10.331261,914.05695)"
       id="g14"
       style="fill:#2caf45;fill-opacity:1">
      <polygon
         points="36.697,27.704 36.697,17.202 74.338,17.202 74.338,27.704 77.768,27.704 77.768,13.785 33.267,13.785 33.267,27.704 "
         id="polygon16"
         style="fill:#2caf45;fill-opacity:1" />
    </g>
  </g>
</svg>
