<svg xmlns="http://www.w3.org/2000/svg" xmlns:xlink="http://www.w3.org/1999/xlink" width="128" height="128" viewBox="0 0 128 128"><defs><linearGradient id="a"><stop offset="0" stop-color="#1a913d"/><stop offset="1" stop-color="#0b3d1a"/></linearGradient><linearGradient xlink:href="#a" id="b" x1="74.23" y1="1042.38" x2="74.23" y2="958.047" gradientUnits="userSpaceOnUse"/></defs><path d="M15.173 113.741l5.243-40.39c.194-1.469 1.199-2.708 2.592-3.171l7.911-2.651 5.803-6.266c.717-.812 1.742-1.256 2.824-1.256h63.061c1.063 0 2.089.446 2.824 1.256l5.126 5.53c.427.484.987.852 1.607 1.045l6.963 2.341c1.412.463 2.437 1.702 2.611 3.171l5.242 40.39c.021.155.021.33.021.484 0 2.127-1.723 3.869-3.869 3.869h-104.127c-.155 0-.33-.021-.484-.038-2.127-.271-3.618-2.207-3.347-4.315zm21.24-11.954c0-3.036-2.457-5.513-5.495-5.513-3.017 0-5.473 2.475-5.473 5.513s2.457 5.473 5.473 5.473c3.038 0 5.495-2.437 5.495-5.473zm20.078 0c0-3.036-2.457-5.513-5.494-5.513-3.036 0-5.494 2.475-5.494 5.513s2.456 5.473 5.494 5.473 5.494-2.437 5.494-5.473zm-10.02-16.384c0-3.036-2.476-5.494-5.513-5.494-3.036 0-5.475 2.457-5.475 5.494 0 3.036 2.438 5.494 5.475 5.494 3.036 0 5.513-2.456 5.513-5.494zm30.099 16.384c0-3.036-2.457-5.513-5.494-5.513-3.035 0-5.492 2.475-5.492 5.513s2.457 5.473 5.492 5.473c3.036 0 5.494-2.437 5.494-5.473zm-10.04-16.384c0-3.036-2.456-5.494-5.492-5.494-3.038 0-5.494 2.457-5.494 5.494 0 3.036 2.456 5.494 5.494 5.494 3.036 0 5.492-2.456 5.492-5.494zm30.099 16.384c0-3.036-2.456-5.513-5.473-5.513-3.038 0-5.494 2.475-5.494 5.513s2.456 5.473 5.494 5.473c3.017 0 5.473-2.437 5.473-5.473zm-10.018-16.384c0-3.036-2.459-5.494-5.495-5.494s-5.513 2.457-5.513 5.494c0 3.036 2.475 5.494 5.513 5.494s5.495-2.456 5.495-5.494zm30.116 16.384c0-3.036-2.476-5.513-5.514-5.513-3.038 0-5.492 2.475-5.492 5.513s2.456 5.473 5.492 5.473 5.514-2.437 5.514-5.473zm-10.059-16.384c0-3.036-2.456-5.494-5.492-5.494-3.019 0-5.475 2.457-5.475 5.494 0 3.036 2.457 5.494 5.475 5.494 3.036 0 5.492-2.456 5.492-5.494zm-99.312-12.678l8.085-7.696c.366-.349.773-.62 1.256-.814l10.909-4.276c.696-.27 1.296-.754 1.742-1.391l1.528-2.167c.715-1.045 1.896-1.645 3.152-1.645h77.172v-17.135h-84.521l-24.794 30.424c-1.315 1.509-1.141 3.791.366 5.087 1.529 1.316 3.81 1.141 5.106-.387zm110.537-17.988c0 2.07 1.701 3.772 3.791 3.772 2.089 0 3.771-1.702 3.771-3.772v-17.136c0-2.089-1.682-3.772-3.771-3.772-2.091 0-3.791 1.683-3.791 3.772v17.136z" fill="url(#b)"/><path fill="#2926b6" d="M43.467 30.309v-15.396h55.182v15.396h5.028v-20.405h-65.238v20.405z"/></svg>