<?xml version="1.0" encoding="UTF-8" standalone="no"?>
<!-- Created with Inkscape (http://www.inkscape.org/) -->

<svg
   xmlns:dc="http://purl.org/dc/elements/1.1/"
   xmlns:cc="http://creativecommons.org/ns#"
   xmlns:rdf="http://www.w3.org/1999/02/22-rdf-syntax-ns#"
   xmlns:svg="http://www.w3.org/2000/svg"
   xmlns="http://www.w3.org/2000/svg"
   xmlns:sodipodi="http://sodipodi.sourceforge.net/DTD/sodipodi-0.dtd"
   xmlns:inkscape="http://www.inkscape.org/namespaces/inkscape"
   width="128"
   height="128"
   viewBox="0 0 128 128"
   id="svg2"
   version="1.1"
   inkscape:version="0.91 r13725"
   sodipodi:docname="random.svg">
  <defs
     id="defs4" />
  <sodipodi:namedview
     id="base"
     pagecolor="#ffffff"
     bordercolor="#666666"
     borderopacity="1.0"
     inkscape:pageopacity="0.0"
     inkscape:pageshadow="2"
     inkscape:zoom="11.2"
     inkscape:cx="52.37335"
     inkscape:cy="69.707741"
     inkscape:document-units="px"
     inkscape:current-layer="layer1"
     showgrid="false"
     units="px"
     inkscape:window-width="3840"
     inkscape:window-height="2128"
     inkscape:window-x="0"
     inkscape:window-y="32"
     inkscape:window-maximized="0" />
  <metadata
     id="metadata7">
    <rdf:RDF>
      <cc:Work
         rdf:about="">
        <dc:format>image/svg+xml</dc:format>
        <dc:type
           rdf:resource="http://purl.org/dc/dcmitype/StillImage" />
        <dc:title />
        <dc:creator>
          <cc:Agent>
            <dc:title>Kovid Goyal</dc:title>
          </cc:Agent>
        </dc:creator>
        <dc:rights>
          <cc:Agent>
            <dc:title />
          </cc:Agent>
        </dc:rights>
        <dc:publisher>
          <cc:Agent>
            <dc:title />
          </cc:Agent>
        </dc:publisher>
        <cc:license
           rdf:resource="http://creativecommons.org/licenses/by-sa/3.0/" />
      </cc:Work>
      <cc:License
         rdf:about="http://creativecommons.org/licenses/by-sa/3.0/">
        <cc:permits
           rdf:resource="http://creativecommons.org/ns#Reproduction" />
        <cc:permits
           rdf:resource="http://creativecommons.org/ns#Distribution" />
        <cc:requires
           rdf:resource="http://creativecommons.org/ns#Notice" />
        <cc:requires
           rdf:resource="http://creativecommons.org/ns#Attribution" />
        <cc:permits
           rdf:resource="http://creativecommons.org/ns#DerivativeWorks" />
        <cc:requires
           rdf:resource="http://creativecommons.org/ns#ShareAlike" />
      </cc:License>
    </rdf:RDF>
  </metadata>
  <g
     inkscape:label="Layer 1"
     inkscape:groupmode="layer"
     id="layer1"
     transform="translate(0,-924.36216)">
    <path
       style="fill:#338000;fill-opacity:1"
       inkscape:connector-curvature="0"
       d="m 51.564837,989.8049 -35.175573,0 c -7.2813432,0 -13.1908394,5.9095 -13.1908394,13.1908 l 0,35.1756 c 0,7.2814 5.9094962,13.1909 13.1908394,13.1909 l 35.175573,0 c 7.285741,0 13.19084,-5.9095 13.19084,-13.1909 l 0,-35.1756 c 0,-7.2813 -5.905099,-13.1908 -13.19084,-13.1908 z m -32.977099,52.7634 c -3.640672,0 -6.59542,-2.9548 -6.59542,-6.5955 0,-3.6406 2.954748,-6.5954 6.59542,-6.5954 3.640671,0 6.59542,2.9548 6.59542,6.5954 0,3.6407 -2.954749,6.5955 -6.59542,6.5955 z m 0,-30.7787 c -3.640672,0 -6.59542,-2.9547 -6.59542,-6.5954 0,-3.6407 2.954748,-6.5954 6.59542,-6.5954 3.640671,0 6.59542,2.9547 6.59542,6.5954 0,3.6407 -2.954749,6.5954 -6.59542,6.5954 z m 15.389313,15.3894 c -3.640672,0 -6.59542,-2.9548 -6.59542,-6.5955 0,-3.6406 2.954748,-6.5954 6.59542,-6.5954 3.640672,0 6.59542,2.9548 6.59542,6.5954 0,3.6407 -2.954748,6.5955 -6.59542,6.5955 z m 15.389313,15.3893 c -3.640672,0 -6.59542,-2.9548 -6.59542,-6.5955 0,-3.6406 2.954748,-6.5954 6.59542,-6.5954 3.640672,0 6.59542,2.9548 6.59542,6.5954 0,3.6407 -2.954748,6.5955 -6.59542,6.5955 z m 0,-30.7787 c -3.640672,0 -6.59542,-2.9547 -6.59542,-6.5954 0,-3.6407 2.954748,-6.5954 6.59542,-6.5954 3.640672,0 6.59542,2.9547 6.59542,6.5954 0,3.6407 -2.954748,6.5954 -6.59542,6.5954 z"
       id="path8" />
    <path
       style="fill:#71c837;fill-opacity:1"
       inkscape:connector-curvature="0"
       d="M 120.93986,954.0973 96.066334,929.22377 c -5.148825,-5.14882 -13.503023,-5.14882 -18.651848,0 L 52.540959,954.0973 c -5.148824,5.14883 -5.148824,13.50302 0,18.65185 l 24.873527,24.87353 c 5.148825,5.14882 13.503023,5.14882 18.651848,0 l 24.873526,-24.87353 c 5.14883,-5.14883 5.14883,-13.50302 0,-18.65185 z m -29.538687,35.75597 c -2.57661,2.57222 -6.749313,2.57222 -9.325923,0 -2.576611,-2.57661 -2.576611,-6.75371 0,-9.33032 2.57661,-2.57221 6.749313,-2.57221 9.325923,0 2.576611,2.57661 2.576611,6.75371 0,9.33032 z m 0,-21.76928 c -2.57661,2.57661 -6.749313,2.57661 -9.325923,0 -2.576611,-2.57661 -2.576611,-6.74931 0,-9.32592 2.57661,-2.57662 6.749313,-2.57662 9.325923,0 2.576611,2.57661 2.576611,6.75371 0,9.32592 z m 0,-21.76049 c -2.57661,2.57221 -6.749313,2.57221 -9.325923,0 -2.576611,-2.57661 -2.576611,-6.75371 0,-9.33032 2.57661,-2.57221 6.749313,-2.57221 9.325923,0 2.576611,2.57661 2.576611,6.75371 0,9.33032 z"
       id="path10" />
  </g>
</svg>
