<svg xmlns="http://www.w3.org/2000/svg" xmlns:svg="http://www.w3.org/2000/svg" id="svg2" width="128" height="128" version="1.1" viewBox="0 0 128 128"><metadata id="metadata7"/><g id="layer1" transform="translate(0,-924.36216)"><path style="fill:#338000;fill-opacity:1" id="path8" d="m 51.564837,989.8049 -35.175573,0 c -7.2813432,0 -13.1908394,5.9095 -13.1908394,13.1908 l 0,35.1756 c 0,7.2814 5.9094962,13.1909 13.1908394,13.1909 l 35.175573,0 c 7.285741,0 13.19084,-5.9095 13.19084,-13.1909 l 0,-35.1756 c 0,-7.2813 -5.905099,-13.1908 -13.19084,-13.1908 z m -32.977099,52.7634 c -3.640672,0 -6.59542,-2.9548 -6.59542,-6.5955 0,-3.6406 2.954748,-6.5954 6.59542,-6.5954 3.640671,0 6.59542,2.9548 6.59542,6.5954 0,3.6407 -2.954749,6.5955 -6.59542,6.5955 z m 0,-30.7787 c -3.640672,0 -6.59542,-2.9547 -6.59542,-6.5954 0,-3.6407 2.954748,-6.5954 6.59542,-6.5954 3.640671,0 6.59542,2.9547 6.59542,6.5954 0,3.6407 -2.954749,6.5954 -6.59542,6.5954 z m 15.389313,15.3894 c -3.640672,0 -6.59542,-2.9548 -6.59542,-6.5955 0,-3.6406 2.954748,-6.5954 6.59542,-6.5954 3.640672,0 6.59542,2.9548 6.59542,6.5954 0,3.6407 -2.954748,6.5955 -6.59542,6.5955 z m 15.389313,15.3893 c -3.640672,0 -6.59542,-2.9548 -6.59542,-6.5955 0,-3.6406 2.954748,-6.5954 6.59542,-6.5954 3.640672,0 6.59542,2.9548 6.59542,6.5954 0,3.6407 -2.954748,6.5955 -6.59542,6.5955 z m 0,-30.7787 c -3.640672,0 -6.59542,-2.9547 -6.59542,-6.5954 0,-3.6407 2.954748,-6.5954 6.59542,-6.5954 3.640672,0 6.59542,2.9547 6.59542,6.5954 0,3.6407 -2.954748,6.5954 -6.59542,6.5954 z"/><path style="fill:#71c837;fill-opacity:1" id="path10" d="M 120.93986,954.0973 96.066334,929.22377 c -5.148825,-5.14882 -13.503023,-5.14882 -18.651848,0 L 52.540959,954.0973 c -5.148824,5.14883 -5.148824,13.50302 0,18.65185 l 24.873527,24.87353 c 5.148825,5.14882 13.503023,5.14882 18.651848,0 l 24.873526,-24.87353 c 5.14883,-5.14883 5.14883,-13.50302 0,-18.65185 z m -29.538687,35.75597 c -2.57661,2.57222 -6.749313,2.57222 -9.325923,0 -2.576611,-2.57661 -2.576611,-6.75371 0,-9.33032 2.57661,-2.57221 6.749313,-2.57221 9.325923,0 2.576611,2.57661 2.576611,6.75371 0,9.33032 z m 0,-21.76928 c -2.57661,2.57661 -6.749313,2.57661 -9.325923,0 -2.576611,-2.57661 -2.576611,-6.74931 0,-9.32592 2.57661,-2.57662 6.749313,-2.57662 9.325923,0 2.576611,2.57661 2.576611,6.75371 0,9.32592 z m 0,-21.76049 c -2.57661,2.57221 -6.749313,2.57221 -9.325923,0 -2.576611,-2.57661 -2.576611,-6.75371 0,-9.33032 2.57661,-2.57221 6.749313,-2.57221 9.325923,0 2.576611,2.57661 2.576611,6.75371 0,9.33032 z"/></g></svg>