<svg xmlns="http://www.w3.org/2000/svg" width="128" height="128" viewBox="0 0 128 128"><path d="M51.565 65.443h-35.176c-7.281 0-13.191 5.91-13.191 13.191v35.176c0 7.281 5.909 13.191 13.191 13.191h35.176c7.286 0 13.191-5.91 13.191-13.191v-35.176c0-7.281-5.905-13.191-13.191-13.191zm-32.977 52.763c-3.641 0-6.595-2.955-6.595-6.596s2.955-6.595 6.595-6.595c3.641 0 6.595 2.955 6.595 6.595 0 3.641-2.955 6.596-6.595 6.596zm0-30.779c-3.641 0-6.595-2.955-6.595-6.595 0-3.641 2.955-6.595 6.595-6.595 3.641 0 6.595 2.955 6.595 6.595 0 3.641-2.955 6.595-6.595 6.595zm15.389 15.389c-3.641 0-6.595-2.955-6.595-6.596s2.955-6.595 6.595-6.595c3.641 0 6.595 2.955 6.595 6.595 0 3.641-2.955 6.596-6.595 6.596zm15.389 15.389c-3.641 0-6.595-2.955-6.595-6.596s2.955-6.595 6.595-6.595c3.641 0 6.595 2.955 6.595 6.595 0 3.641-2.955 6.596-6.595 6.596zm0-30.779c-3.641 0-6.595-2.955-6.595-6.595 0-3.641 2.955-6.595 6.595-6.595 3.641 0 6.595 2.955 6.595 6.595 0 3.641-2.955 6.595-6.595 6.595z" fill="#338000"/><path d="M120.94 29.735l-24.874-24.874c-5.149-5.149-13.503-5.149-18.652 0l-24.874 24.874c-5.149 5.149-5.149 13.503 0 18.652l24.874 24.874c5.149 5.149 13.503 5.149 18.652 0l24.874-24.874c5.149-5.149 5.149-13.503 0-18.652zm-29.539 35.756c-2.577 2.572-6.749 2.572-9.326 0-2.577-2.577-2.577-6.754 0-9.33 2.577-2.572 6.749-2.572 9.326 0 2.577 2.577 2.577 6.754 0 9.33zm0-21.769c-2.577 2.577-6.749 2.577-9.326 0-2.577-2.577-2.577-6.749 0-9.326 2.577-2.577 6.749-2.577 9.326 0 2.577 2.577 2.577 6.754 0 9.326zm0-21.76c-2.577 2.572-6.749 2.572-9.326 0-2.577-2.577-2.577-6.754 0-9.33 2.577-2.572 6.749-2.572 9.326 0 2.577 2.577 2.577 6.754 0 9.33z" fill="#71c837"/></svg>