<svg xmlns="http://www.w3.org/2000/svg" viewBox="0 0 128 128" enable-background="new 0 0 128 128"><style type="text/css">.st0{fill:url(#SVGID_1_);}</style><linearGradient id="SVGID_1_" gradientUnits="userSpaceOnUse" x1="8.078" y1="61.629" x2="119.922" y2="61.629"><stop offset="0" stop-color="#FFB466"/><stop offset="1" stop-color="#FADE64"/></linearGradient><path class="st0" d="M66.1 9.9l11.7 35.9c.3.9 1.2 1.5 2.1 1.5h37.8c2.2 0 3.1 2.8 1.3 4l-30.6 22.3c-.8.6-1.1 1.6-.8 2.5l11.7 35.9c.7 2.1-1.7 3.8-3.4 2.5l-30.6-22.2c-.8-.6-1.8-.6-2.6 0l-30.5 22.2c-1.8 1.3-4.1-.4-3.4-2.5l11.7-35.9c.3-.9 0-1.9-.8-2.5l-30.7-22.2c-1.8-1.3-.9-4 1.3-4h37.8c1 0 1.8-.6 2.1-1.5l11.7-36c.6-2.1 3.6-2.1 4.2 0z"/></svg>