<svg xmlns="http://www.w3.org/2000/svg" xmlns:svg="http://www.w3.org/2000/svg" xmlns:xlink="http://www.w3.org/1999/xlink" id="svg2" width="128" height="128" version="1.1" viewBox="0 0 128 128"><defs id="defs4"><linearGradient id="linearGradient3946"><stop style="stop-color:#552b00;stop-opacity:1" id="stop3948" offset="0"/><stop style="stop-color:#673400;stop-opacity:0" id="stop3950" offset="1"/></linearGradient><linearGradient id="linearGradient3934" x1="28.638" x2="31.289" y1="120.85" y2="122.087" gradientUnits="userSpaceOnUse" spreadMethod="reflect" xlink:href="#linearGradient3844"/><linearGradient id="linearGradient3844"><stop style="stop-color:#faff64;stop-opacity:1" id="stop3846" offset="0"/><stop style="stop-color:#faff64;stop-opacity:0" id="stop3848" offset="1"/></linearGradient><filter id="filter3928"><feGaussianBlur id="feGaussianBlur3930" stdDeviation=".183"/></filter><linearGradient id="linearGradient3379"><stop style="stop-color:#fffc07;stop-opacity:1" id="stop3381" offset="0"/><stop style="stop-color:#fffc07;stop-opacity:0" id="stop3383" offset="1"/></linearGradient><linearGradient id="linearGradient4251" x1="216.886" x2="216.886" y1="122.587" y2="37.97" gradientTransform="translate(-152,0)" gradientUnits="userSpaceOnUse" xlink:href="#linearGradient3379"/><filter id="filter3391"><feGaussianBlur id="feGaussianBlur3393" stdDeviation=".559"/></filter><linearGradient id="linearGradient3850" x1="28.638" x2="31.289" y1="120.85" y2="122.087" gradientTransform="translate(37.259669,940.47186)" gradientUnits="userSpaceOnUse" spreadMethod="reflect" xlink:href="#linearGradient3844"/><linearGradient id="linearGradient3369" x1="177.424" x2="177.601" y1="22.378" y2="93.023" gradientUnits="userSpaceOnUse" xlink:href="#linearGradient3363"/><linearGradient id="linearGradient3363"><stop style="stop-color:#fff;stop-opacity:1" id="stop3365" offset="0"/><stop style="stop-color:#fff;stop-opacity:0" id="stop3367" offset="1"/></linearGradient><linearGradient id="linearGradient3345" x1="278.472" x2="200.177" y1="77.652" y2="31.11" gradientTransform="translate(-37.771032,-0.1213203)" gradientUnits="userSpaceOnUse" xlink:href="#linearGradient3363"/><linearGradient id="linearGradient3315" x1="219.222" x2="219.222" y1="11.902" y2="136.86" gradientTransform="matrix(0.8649021,0,0,0.8649021,-138.53029,931.28084)" gradientUnits="userSpaceOnUse" xlink:href="#linearGradient3309"/><linearGradient id="linearGradient3309"><stop style="stop-color:#f8ff8a;stop-opacity:1" id="stop3311" offset="0"/><stop style="stop-color:#fff;stop-opacity:0" id="stop3313" offset="1"/></linearGradient><linearGradient id="linearGradient3800" x1="63.949" x2="67.219" y1="12.034" y2="12.034" gradientTransform="translate(37.259669,940.47186)" gradientUnits="userSpaceOnUse" spreadMethod="reflect" xlink:href="#linearGradient3363"/><filter id="filter3838" width="1.356" height="1.31" x="-.178" y="-.155"><feGaussianBlur id="feGaussianBlur3840" stdDeviation=".463"/></filter><linearGradient id="linearGradient2898" x1="64.08" x2="64.08" y1="-14.227" y2="120.445" gradientTransform="matrix(0.8649021,0,0,0.8649021,8.577399,931.28084)" gradientUnits="userSpaceOnUse" xlink:href="#XMLID_1_"/><linearGradient id="XMLID_1_" x1="95.693" x2="32.309" y1="141.174" y2="77.789" gradientUnits="userSpaceOnUse"><stop style="stop-color:#ffd50a;stop-opacity:1" id="stop7227" offset="0"/><stop style="stop-color:#8d4000;stop-opacity:1" id="stop7233" offset="1"/></linearGradient><radialGradient id="radialGradient2906" cx="69.527" cy="60.116" r="111.654" fx="69.527" fy="89.656" gradientTransform="matrix(0.9439139,-0.3301918,0.332644,0.9509241,-16.097695,27.249949)" gradientUnits="userSpaceOnUse" xlink:href="#linearGradient3290"/><linearGradient id="linearGradient3290"><stop style="stop-color:yellow;stop-opacity:1" id="stop3292" offset="0"/><stop style="stop-color:#f07800;stop-opacity:1" id="stop3294" offset="1"/></linearGradient><linearGradient id="linearGradient4301" x1="64.08" x2="64.08" y1="-14.227" y2="120.445" gradientUnits="userSpaceOnUse" xlink:href="#XMLID_1_"/><filter id="filter3975"><feGaussianBlur id="feGaussianBlur3977" stdDeviation="1.295"/></filter><linearGradient id="linearGradient4286" x1="64.08" x2="64.08" y1="-14.227" y2="120.445" gradientTransform="translate(37.259669,940.47186)" gradientUnits="userSpaceOnUse" xlink:href="#XMLID_1_"/><linearGradient id="linearGradient4288" x1="216.886" x2="216.886" y1="122.587" y2="37.97" gradientTransform="translate(-114.74033,940.47186)" gradientUnits="userSpaceOnUse" xlink:href="#linearGradient3379"/></defs><metadata id="metadata7"/><g id="layer1" transform="translate(0,-924.36216)"><path id="path3961" d="m 101.29092,948.47186 c -7.868434,0.01 -17.202691,26.55445 -23.562502,31.1875 -6.35981,4.63305 -34.484292,5.38858 -36.90625,12.875 -2.421957,7.48644 19.902749,24.55104 22.34375,32.03124 2.441001,7.4802 -5.49658,34.4457 0.875,39.0625 6.37158,4.6169 29.506568,-11.3337 37.375002,-11.3437 7.86843,-0.01 31.04644,15.883 37.40625,11.25 6.35981,-4.6331 -1.67196,-31.5761 0.75,-39.0625 2.42196,-7.4865 24.72225,-24.61356 22.28125,-32.09379 -2.441,-7.48023 -30.56592,-8.1644 -36.9375,-12.78125 -6.37158,-4.61685 -15.75657,-31.13501 -23.625,-31.125 z m 0,3.90625 c 0.17679,0.13917 1.53651,0.80601 3.125,2.75 1.81542,2.2217 3.87517,5.55381 5.90625,9.09375 2.03107,3.53994 4.05148,7.29882 6.03125,10.5625 1.97977,3.26368 3.66137,6.01649 6.3125,7.9375 2.65112,1.92101 5.78206,2.66637 9.5,3.53125 3.71794,0.86488 7.90981,1.6099 11.90625,2.4375 3.99644,0.8276 7.79215,1.74804 10.46875,2.78125 2.34202,0.90406 3.4372,2.00076 3.625,2.125 -0.0801,0.20806 -0.32953,1.66978 -1.6875,3.78125 -1.55196,2.41311 -4.07345,5.41189 -6.8125,8.43749 -2.73904,3.0256 -5.69534,6.1086 -8.1875,9 -2.49216,2.8914 -4.58601,5.3538 -5.59375,8.4688 -1.00774,3.1149 -0.73261,6.3217 -0.40625,10.125 0.32636,3.8032 0.89587,8.0371 1.34375,12.0937 0.44788,4.0566 0.74928,7.9476 0.59375,10.8125 -0.13609,2.5068 -0.81474,3.8472 -0.875,4.0625 -0.22381,-0.01 -1.72849,0.264 -4.15625,-0.375 -2.77458,-0.7303 -6.4011,-2.2362 -10.125,-3.9062 -3.7239,-1.6701 -7.57374,-3.5234 -11.09375,-5 -3.52001,-1.4767 -6.47605,-2.6917 -9.75,-2.6875 -3.273949,0 -6.265011,1.2331 -9.781252,2.7187 -3.516239,1.4857 -7.342863,3.3517 -11.0625,5.0313 -3.719638,1.6795 -7.352284,3.1688 -10.125,3.9062 -2.426127,0.6452 -3.900592,0.3971 -4.125,0.4063 -0.05849,-0.2136 -0.76378,-1.5561 -0.90625,-4.0625 -0.162822,-2.8645 0.124949,-6.7548 0.5625,-10.8125 0.437549,-4.0577 0.995823,-8.2897 1.3125,-12.0938 0.316678,-3.8041 0.578168,-7.0438 -0.4375,-10.1562 -1.015668,-3.1125 -3.125487,-5.5525 -5.625,-8.4375 -2.499512,-2.8851 -5.440762,-5.9502 -8.1875,-8.9688 -2.746738,-3.0186 -5.285649,-5.99709 -6.84375,-8.40624 -1.363338,-2.108 -1.578294,-3.6051 -1.65625,-3.8125 0.01495,0.0878 0.986853,-1.12321 3.5625,-2.125 2.673955,-1.04002 6.50568,-1.97473 10.5,-2.8125 3.99432,-0.83776 8.190522,-1.56316 11.90625,-2.4375 3.71573,-0.87434 6.853767,-1.63475 9.5,-3.5625 2.646234,-1.92775 4.309794,-4.70004 6.28125,-7.96875 1.971455,-3.26871 3.977941,-7.0174 6,-10.5625 2.022058,-3.5451 4.065243,-6.89869 5.875,-9.125 1.583537,-1.94802 2.951212,-2.6117 3.125002,-2.75 z" transform="matrix(0.8649021,0,0,0.8649021,-23.648567,117.86475)" style="opacity:1;fill:url(#linearGradient4286);fill-opacity:1;fill-rule:nonzero;stroke:none;stroke-width:14.80851269;stroke-linecap:round;stroke-linejoin:round;stroke-miterlimit:4;stroke-dasharray:none;stroke-dashoffset:4;stroke-opacity:1;filter:url(#filter3975)"/><path id="path3574" d="M 153.09403,94.713757 C 144.53658,107.09689 92.616372,93.013297 78.414631,98.001518 64.21289,102.98974 32.50348,146.4474 18.082028,142.13539 3.6605746,137.82337 1.0106378,84.092245 -8.1220219,72.127031 -17.254681,60.161818 -68.384124,43.433534 -68.739625,28.385431 c -0.3555,-15.048104 49.926959,-34.1721736 58.484406,-46.555303 8.557447,-12.38313 8.6671236,-66.179444 22.868864,-71.167664 14.201742,-4.988221 47.927947,36.923576 62.3494,41.235595 14.421453,4.312018 65.618675,-12.207649 74.751335,-0.242435 9.13266,11.965214 -20.30585,56.9921987 -19.95035,72.040303 0.3555,15.048103 31.88745,58.634701 23.33,71.01783 z" transform="matrix(0.42676121,0.14928591,-0.14928591,0.42676121,45.230111,974.44684)" style="opacity:1;fill:url(#radialGradient2906);fill-opacity:1;fill-rule:nonzero;stroke:none;stroke-width:14.80892944;stroke-linecap:round;stroke-linejoin:round;stroke-miterlimit:4;stroke-dasharray:none;stroke-dashoffset:4;stroke-opacity:1"/><path style="opacity:1;fill:url(#linearGradient2898);fill-opacity:1;fill-rule:nonzero;stroke:none;stroke-width:14.80851269;stroke-linecap:round;stroke-linejoin:round;stroke-miterlimit:4;stroke-dasharray:none;stroke-dashoffset:4;stroke-opacity:1" id="path2304" d="m 63.958162,938.20005 c -6.805425,0.009 -14.878643,22.967 -20.379257,26.97414 -5.500613,4.00713 -29.825537,4.66059 -31.920293,11.13561 -2.0947559,6.47504 17.213929,21.23425 19.325156,27.7039 2.111227,6.4696 -4.754003,29.7921 0.756789,33.7852 5.510793,3.9932 25.520293,-9.8025 32.325718,-9.8112 6.805422,-0.01 26.852131,13.7373 32.352744,9.7302 5.500611,-4.0072 -1.446081,-27.3102 0.648677,-33.7853 2.094758,-6.47504 21.382324,-21.28827 19.271104,-27.75794 -2.11123,-6.46967 -26.436533,-7.06141 -31.947325,-11.05453 -5.510793,-3.99312 -13.627891,-26.92873 -20.433313,-26.92008 z m 0,3.37853 c 0.152906,0.12037 1.328931,0.69712 2.702819,2.37848 1.570161,1.92155 3.351643,4.8035 5.108329,7.8652 1.756676,3.0617 3.504133,6.31277 5.21644,9.13553 1.712308,2.82276 3.166727,5.20367 5.459695,6.86516 2.292959,1.66149 5.000916,2.30615 8.21657,3.05419 3.215654,0.74803 6.841211,1.3924 10.297745,2.10819 3.45652,0.7158 6.73944,1.51189 9.05444,2.40551 2.02562,0.78193 2.97284,1.73047 3.13527,1.83792 -0.0693,0.17995 -0.28501,1.4442 -1.45952,3.27041 -1.3423,2.08711 -3.52314,4.68076 -5.89215,7.2976 -2.369,2.61685 -4.92591,5.28335 -7.081384,7.78412 -2.155475,2.50078 -3.96645,4.63051 -4.838047,7.32471 -0.871596,2.6941 -0.633635,5.4676 -0.351366,8.7571 0.282269,3.2894 0.77484,6.9513 1.162212,10.4599 0.387373,3.5085 0.648054,6.8739 0.513536,9.3517 -0.117705,2.1682 -0.704671,3.3275 -0.75679,3.5137 -0.193573,-0.01 -1.494974,0.2283 -3.594749,-0.3243 -2.39974,-0.6317 -5.536325,-1.9341 -8.757134,-3.3785 -3.220809,-1.4445 -6.550543,-3.0474 -9.595007,-4.3245 -3.044464,-1.2772 -5.60115,-2.3281 -8.432796,-2.3245 -2.831645,0 -5.418621,1.0666 -8.459825,2.3515 -3.041203,1.2849 -6.350858,2.8988 -9.56798,4.3515 -3.217122,1.4526 -6.359006,2.7407 -8.757133,3.3785 -2.098363,0.558 -3.373631,0.3435 -3.567722,0.3514 -0.05059,-0.1847 -0.660595,-1.3459 -0.783817,-3.5136 -0.140825,-2.4776 0.108069,-5.8423 0.486507,-9.3518 0.378437,-3.5095 0.86129,-7.1698 1.135184,-10.4599 0.273896,-3.2902 0.500059,-6.0922 -0.378394,-8.7842 -0.878454,-2.692 -2.703241,-4.80234 -4.865075,-7.29758 -2.161833,-2.49533 -4.705726,-5.14634 -7.081386,-7.75713 -2.375659,-2.6108 -4.571569,-5.1869 -5.919173,-7.27058 -1.179154,-1.82321 -1.36507,-3.11806 -1.432494,-3.29744 0.01293,0.0759 0.853531,-0.97146 3.081213,-1.83791 2.31271,-0.89952 5.626777,-1.70795 9.081472,-2.43254 3.454696,-0.72458 7.084,-1.35198 10.297741,-2.1082 3.213743,-0.75622 5.927837,-1.4139 8.21657,-3.08121 2.288733,-1.66732 3.72755,-4.06508 5.432666,-6.89219 1.705116,-2.82712 3.44053,-6.06937 5.189413,-9.13553 1.748882,-3.06616 3.516037,-5.96669 5.0813,-7.89223 1.369604,-1.68485 2.552509,-2.25887 2.70282,-2.37848 z"/><path style="fill:url(#linearGradient3800);fill-opacity:1;fill-rule:evenodd;stroke:none;stroke-width:1px;stroke-linecap:butt;stroke-linejoin:miter;stroke-opacity:1;filter:url(#filter3838)" id="path3409" d="m 98.247628,949.94309 c 1.858532,-1.25693 3.901952,-1.45076 6.231382,0 l -3.18198,6.14299 -3.049402,-6.14299 z" transform="matrix(0.8649021,0,0,0.8649021,-23.648567,117.86475)"/><path style="opacity:1;fill:url(#linearGradient3315);fill-opacity:1;fill-rule:nonzero;stroke:none;stroke-width:14.80892944;stroke-linecap:round;stroke-linejoin:round;stroke-miterlimit:4;stroke-dasharray:none;stroke-dashoffset:4;stroke-opacity:1" id="path2910" d="m 63.964917,941.57858 c -0.150311,0.11961 -1.333219,0.69363 -2.702817,2.37848 -1.565265,1.92554 -3.332416,4.82607 -5.0813,7.89223 -1.748884,3.06616 -3.484301,6.30841 -5.189412,9.13553 -1.70512,2.82711 -3.143937,5.22487 -5.432667,6.89219 -2.288738,1.66731 -5.002827,2.32499 -8.21657,3.08121 -3.213742,0.75622 -6.843045,1.38362 -10.29774,2.1082 -3.454696,0.72459 -6.768767,1.53302 -9.081472,2.43254 -2.227686,0.86645 -3.068285,1.91384 -3.081215,1.83791 0.06742,0.17938 0.253338,1.47423 1.432494,3.29744 1.347605,2.08368 3.543514,4.65978 5.919175,7.27058 2.375661,2.61079 4.919554,5.2618 7.081386,7.75713 2.161831,2.49524 3.986619,4.60558 4.865074,7.29758 0.227971,0.6986 0.361823,1.4152 0.459479,2.1352 2.082546,0.075 4.176716,0.1352 6.297569,0.1352 23.389044,0 44.594402,-4.6643 60.110689,-12.24381 1.55663,-1.70706 3.19476,-3.46376 4.75697,-5.18942 2.36901,-2.61684 4.54984,-5.21049 5.89214,-7.2976 1.17451,-1.82621 1.39026,-3.09046 1.45952,-3.27041 -0.16242,-0.10745 -1.10966,-1.05599 -3.13527,-1.83792 -2.31499,-0.89362 -5.59792,-1.68971 -9.05444,-2.40551 -3.456529,-0.71579 -7.082095,-1.36016 -10.29774,-2.10819 -3.215654,-0.74804 -5.923611,-1.3927 -8.21657,-3.05419 -2.292968,-1.66149 -3.747388,-4.0424 -5.459695,-6.86516 -1.712307,-2.82276 -3.459764,-6.07383 -5.216441,-9.13553 -1.756685,-3.0617 -3.538167,-5.94365 -5.108328,-7.8652 -1.373888,-1.68136 -2.549913,-2.25811 -2.702819,-2.37848 z"/><g id="g3339" transform="matrix(0.8649021,0,0,0.8649021,-105.84853,931.28084)"><path id="path3317" d="m 196.34375,11.90625 c -0.17379,0.138302 -1.54147,0.801979 -3.125,2.75 -1.80976,2.22631 -3.85294,5.579903 -5.875,9.125 -2.02206,3.545097 -4.02855,7.293792 -6,10.5625 -1.97146,3.268708 -3.63502,6.040998 -6.28125,7.96875 -2.64624,1.92775 -5.78427,2.688163 -9.5,3.5625 -3.71573,0.874339 -7.91193,1.599737 -11.90625,2.4375 -3.99432,0.837765 -7.82605,1.772477 -10.5,2.8125 -2.57565,1.001785 -3.54755,2.212785 -3.5625,2.125 0.03,0.07988 0.12153,0.388731 0.25,0.8125 0.41575,-0.36252 1.4161,-1.199905 3.3125,-1.9375 2.67395,-1.040023 6.50568,-1.974735 10.5,-2.8125 3.99432,-0.837763 8.19052,-1.563161 11.90625,-2.4375 3.71573,-0.874337 6.85376,-1.63475 9.5,-3.5625 2.64623,-1.927752 4.30979,-4.700042 6.28125,-7.96875 1.97145,-3.268708 3.97794,-7.017403 6,-10.5625 2.02206,-3.545097 4.06524,-6.89869 5.875,-9.125 1.58353,-1.948021 2.95121,-2.611698 3.125,-2.75 0.17679,0.139173 1.53651,0.806014 3.125,2.75 1.81542,2.221697 3.87517,5.553809 5.90625,9.09375 2.03107,3.53994 4.05148,7.298819 6.03125,10.5625 1.97977,3.263682 3.66137,6.016491 6.3125,7.9375 2.65112,1.921009 5.78206,2.66637 9.5,3.53125 3.71793,0.864879 7.90981,1.609902 11.90625,2.4375 3.99643,0.827597 7.79215,1.748037 10.46875,2.78125 1.92073,0.74144 2.9755,1.579608 3.40625,1.9375 0.13371,-0.415016 0.18802,-0.732649 0.21875,-0.8125 -0.1878,-0.124236 -1.28299,-1.220939 -3.625,-2.125 -2.6766,-1.033213 -6.47232,-1.953653 -10.46875,-2.78125 -3.99644,-0.827598 -8.18832,-1.572621 -11.90625,-2.4375 -3.71794,-0.86488 -6.84888,-1.610241 -9.5,-3.53125 -2.65113,-1.921009 -4.33273,-4.673818 -6.3125,-7.9375 -1.97977,-3.263681 -4.00018,-7.02256 -6.03125,-10.5625 -2.03108,-3.539941 -4.09083,-6.872053 -5.90625,-9.09375 -1.58849,-1.943986 -2.94821,-2.610827 -3.125,-2.75 z" style="opacity:1;fill:url(#linearGradient3369);fill-opacity:1;fill-rule:nonzero;stroke:none;stroke-width:14.80892944;stroke-linecap:round;stroke-linejoin:round;stroke-miterlimit:4;stroke-dasharray:none;stroke-dashoffset:4;stroke-opacity:1"/><path id="path3325" d="m 246.78125,49.937636 c 0.64344,0.20483 1.2572,0.44189 1.8125,0.65625 2.34201,0.90406 3.4372,2.00077 3.625,2.125 -0.0801,0.20807 -0.32953,1.66979 -1.6875,3.78125 -1.55197,2.41311 -4.07345,5.41193 -6.8125,8.4375 -1.80622,1.99516 -3.70023,4.02629 -5.5,6 -17.93994,8.76339 -42.45758,14.15625 -69.5,14.15625 -2.12442,0 -4.22307,-0.05438 -6.3125,-0.125 0.0121,0.08285 0.02,0.16705 0.0312,0.25 2.40784,0.08733 4.82912,0.15625 7.28125,0.15625 27.04242,0 51.56006,-5.39286 69.5,-14.15625 1.79977,-1.97371 3.69378,-4.00484 5.5,-6 2.73905,-3.02557 5.26053,-6.02439 6.8125,-8.4375 1.35797,-2.11146 1.60742,-3.57318 1.6875,-3.78125 -0.1878,-0.12423 -1.28299,-1.22094 -3.625,-2.125 -0.83507,-0.32235 -1.78746,-0.6365 -2.8125,-0.9375 z" style="opacity:1;fill:url(#linearGradient3345);fill-opacity:1;fill-rule:nonzero;stroke:none;stroke-width:14.80892944;stroke-linecap:round;stroke-linejoin:round;stroke-miterlimit:4;stroke-dasharray:none;stroke-dashoffset:4;stroke-opacity:1"/></g><path style="opacity:.7715356;fill:url(#linearGradient3850);fill-opacity:1;fill-rule:evenodd;stroke:none;stroke-width:1px;stroke-linecap:butt;stroke-linejoin:miter;stroke-opacity:1;filter:url(#filter3928)" id="path3842" d="m 62.450347,1060.2517 c 1.224,2.9625 2.050483,4.3391 6.098796,3.5356 l -0.651119,-3.1054 -1.55859,0.1886 -0.818055,-1.8252 -3.071032,1.2064 z" transform="matrix(0.8649021,0,0,0.8649021,-23.648567,117.86475)"/><path style="opacity:1;fill:none;fill-opacity:1;fill-rule:nonzero;stroke:url(#linearGradient4288);stroke-width:1;stroke-linecap:round;stroke-linejoin:round;stroke-miterlimit:4;stroke-dasharray:none;stroke-dashoffset:4;stroke-opacity:1;filter:url(#filter3391)" id="path3375" d="m 101.38467,952.37811 c -0.17379,0.1383 -1.541471,0.80198 -3.125001,2.75 -1.80976,2.22631 -3.85294,5.5799 -5.875,9.125 -2.02206,3.5451 -4.02855,7.29379 -6,10.5625 -1.97146,3.26871 -3.63502,6.041 -6.28125,7.96875 -2.64624,1.92775 -5.78427,2.68816 -9.5,3.5625 -3.71573,0.87434 -7.91193,1.59974 -11.90625,2.4375 -3.99432,0.83777 -7.82605,1.77248 -10.5,2.8125 -2.57565,1.00179 -3.54755,2.21279 -3.5625,2.125 0.07795,0.2074 0.29291,1.7045 1.65625,3.8125 1.5581,2.40915 4.09701,5.38764 6.84375,8.40624 2.74674,3.0186 5.68799,6.0837 8.1875,8.9688 2.49951,2.885 4.60933,5.325 5.625,8.4375 1.01567,3.1124 0.75418,6.3521 0.4375,10.1562 -0.31668,3.8041 -0.87495,8.0361 -1.3125,12.0938 -0.43755,4.0577 -0.72532,7.948 -0.5625,10.8125 0.14247,2.5064 0.84776,3.8489 0.90625,4.0625 0.22441,-0.01 1.69887,0.2389 4.125,-0.4063 2.77271,-0.7374 6.40536,-2.2267 10.125,-3.9062 3.71963,-1.6796 7.54626,-3.5456 11.0625,-5.0313 3.51624,-1.4856 6.5073,-2.7146 9.781251,-2.7187 3.27395,0 6.22999,1.2108 9.75,2.6875 3.52001,1.4766 7.36985,3.3299 11.09375,5 3.7239,1.67 7.3504,3.1759 10.125,3.9062 2.42776,0.639 3.93243,0.3666 4.15625,0.375 0.0603,-0.2153 0.7389,-1.5557 0.875,-4.0625 0.15553,-2.8649 -0.14588,-6.7559 -0.59375,-10.8125 -0.44788,-4.0566 -1.01741,-8.2905 -1.34375,-12.0937 -0.32636,-3.8033 -0.60151,-7.0101 0.40625,-10.125 1.00774,-3.115 3.10158,-5.5774 5.59375,-8.4688 2.49216,-2.8914 5.44845,-5.9744 8.1875,-9 2.73905,-3.0256 5.26053,-6.02438 6.8125,-8.43749 1.35797,-2.11147 1.60742,-3.57319 1.6875,-3.78125 -0.1878,-0.12424 -1.28299,-1.22094 -3.625,-2.125 -2.6766,-1.03321 -6.47232,-1.95365 -10.46875,-2.78125 -3.99644,-0.8276 -8.18832,-1.57262 -11.90625,-2.4375 -3.71794,-0.86488 -6.84888,-1.61024 -9.5,-3.53125 -2.65113,-1.92101 -4.33273,-4.67382 -6.3125,-7.9375 -1.97977,-3.26368 -4.00018,-7.02256 -6.03125,-10.5625 -2.03108,-3.53994 -4.09083,-6.87205 -5.90625,-9.09375 -1.58849,-1.94399 -2.94821,-2.61083 -3.125,-2.75 z" transform="matrix(0.8649021,0,0,0.8649021,-23.648567,117.86475)"/><path id="path3932" d="m 25.190679,119.77989 c 1.224,2.96249 2.050483,4.33908 6.098796,3.53553 l -0.651119,-3.10534 -1.55859,0.18852 -0.818055,-1.82519 -3.071032,1.20648 z" transform="matrix(-0.8649021,0,0,0.8649021,119.37581,931.28084)" style="opacity:.7715356;fill:url(#linearGradient3934);fill-opacity:1;fill-rule:evenodd;stroke:none;stroke-width:1px;stroke-linecap:butt;stroke-linejoin:miter;stroke-opacity:1;filter:url(#filter3928)"/></g></svg>