<svg xmlns="http://www.w3.org/2000/svg" xmlns:svg="http://www.w3.org/2000/svg" xmlns:xlink="http://www.w3.org/1999/xlink" id="svg2" width="128" height="128" version="1.1" viewBox="0 0 128 128"><defs id="defs4"><linearGradient id="linearGradient4157"><stop style="stop-color:#000;stop-opacity:1" id="stop4159" offset="0"/><stop style="stop-color:#454545;stop-opacity:1" id="stop4161" offset="1"/></linearGradient><linearGradient id="linearGradient4163" x1="52.068" x2="52.068" y1="92.387" y2="7.43" gradientUnits="userSpaceOnUse" xlink:href="#linearGradient4157"/></defs><metadata id="metadata7"/><g id="layer1" transform="translate(0,-924.36216)"><g id="g4" transform="matrix(1.5888779,0,0,1.4765856,-15.058247,914.53436)"><path id="path6" d="m 70.902,7.333 -41.392,0 c -3.864,0 -7.202,2.811 -7.202,6.531 l 0,71.86 c 0,3.721 3.338,6.941 7.202,6.941 l 41.393,0 c 3.863,0 6.79,-3.221 6.79,-6.941 l 0,-71.86 C 77.692,10.145 74.766,7.333 70.902,7.333 Z m -29.055,80.409 -6.975,0 0,-2.871 6.975,0 0,2.871 z m 8.448,1.164 c -1.557,0 -2.818,-1.262 -2.818,-2.82 0,-1.555 1.262,-2.818 2.818,-2.818 1.556,0 2.818,1.264 2.818,2.818 0,1.559 -1.261,2.82 -2.818,2.82 z m 14.935,-1.164 -7.384,0 0,-2.871 7.384,0 0,2.871 z m 5.899,-8.615 -41.847,0 0,-63.998 41.847,0 0,63.998 z" style="fill-opacity:1;fill:url(#linearGradient4163)"/><rect id="rect8" width="30.77" height="2.051" x="34.577" y="31.949" style="fill:#5f65da;fill-opacity:1"/><rect id="rect10" width="30.77" height="2.05" x="34.577" y="37.693" style="fill:#5f65da;fill-opacity:1"/><rect id="rect12" width="30.77" height="2.052" x="34.577" y="43.435" style="fill:#5f65da;fill-opacity:1"/><rect id="rect14" width="30.77" height="2.052" x="34.577" y="49.179" style="fill:#5f65da;fill-opacity:1"/><rect id="rect16" width="30.77" height="2.053" x="34.577" y="54.922" style="fill:#5f65da;fill-opacity:1"/><rect id="rect18" width="30.77" height="2.053" x="34.577" y="60.666" style="fill:#5f65da;fill-opacity:1"/><rect id="rect20" width="24.205" height="2.051" x="34.577" y="66.41" style="fill:#5f65da;fill-opacity:1"/><rect id="rect22" width="27.487" height="2.051" x="37.859" y="26.206" style="fill:#5f65da;fill-opacity:1"/></g></g></svg>