<svg xmlns="http://www.w3.org/2000/svg" xmlns:xlink="http://www.w3.org/1999/xlink" width="128" height="128" viewBox="0 0 128 128"><defs><linearGradient id="a"><stop offset="0"/><stop offset="1" stop-color="#454545"/></linearGradient><linearGradient xlink:href="#a" id="b" x1="52.068" y1="92.387" x2="52.068" y2="7.43" gradientUnits="userSpaceOnUse"/></defs><path d="M97.605 1.003h-65.772c-6.14 0-11.444 4.152-11.444 9.646v106.137c0 5.496 5.304 10.252 11.444 10.252h65.773c6.138 0 10.789-4.757 10.789-10.252v-106.137c-.002-5.493-4.651-9.646-10.791-9.646zm-46.168 118.764h-11.083v-4.24h11.083v4.24zm13.424 1.719c-2.474 0-4.478-1.864-4.478-4.165 0-2.297 2.005-4.162 4.478-4.162 2.472 0 4.478 1.867 4.478 4.162 0 2.303-2.004 4.165-4.478 4.165zm23.732-1.719h-11.733v-4.24h11.733v4.24zm9.374-12.724h-66.495v-94.525h66.495v94.525z" fill="url(#b)"/><path fill="#5f65da" d="M39.885 37.361h48.894v3.029h-48.894zm0 8.484h48.894v3.028h-48.894zm0 8.48h48.894v3.031h-48.894zm0 8.484h48.894v3.031h-48.894zm0 8.483h48.894v3.032h-48.894zm0 8.484h48.894v3.032h-48.894zm0 8.484h38.462v3.029h-38.462zm5.215-59.382h43.677v3.029h-43.677z"/></svg>