<svg xmlns="http://www.w3.org/2000/svg" viewBox="0 0 128 128" height="128" width="128"><g transform="translate(0 -924.362)"><path d="M16.582 1046.884v-107.688c.269-7.886 2.821-11.47 7.254-11.675l83.522-.158c2.766-.034 3.224 2.603 3.224 5.261l-.177 110.345c.201 4.009-3.09 3.994-3.09 3.994l-6.905.108c-.187 4.217-.269 4.387-3.224 4.268h-76.439c-3.907 0-4.165.2-4.165-4.455z" fill="#de8787" fill-rule="evenodd"/><path d="M22.299 937.546h73.639c5.75.099 5.129 2.683 5.172 9.678l.182 94.282c1.824.145 4.621-1.884 4.586-5.107l-.182-96.84c.151-6.453-1.337-6.453-4.301-6.717h-75.305c-2.867-.18-3.64.842-3.791 4.704z" fill="#fff" fill-rule="evenodd"/><rect width="51.482" height="6" x="33.259" y="951.362" ry=".9" fill="#a00" fill-rule="evenodd"/><path d="M39.134 1035.89c0 1.988 1.617 3.599 3.611 3.599h32.508c2.002 0 3.618-1.61 3.618-3.599v-37.042h-39.737v37.042zm28.663-33.473h5.6v29.955c0 1.546-1.256 2.796-2.795 2.796-1.549 0-2.804-1.25-2.804-2.796v-29.955zm-11.594 0h5.604v29.955c0 1.546-1.254 2.796-2.802 2.796s-2.802-1.25-2.802-2.796v-29.955zm-11.677 0h5.596v29.955c0 1.546-1.255 2.796-2.798 2.796-1.543 0-2.797-1.25-2.797-2.796v-29.955zm34.337-16.687h-14.181v-2.052s-.064-1.799-1.87-1.799h-7.745c-1.804 0-1.742 1.799-1.742 1.799v2.052h-14.19c-1.993 0-3.612 1.613-3.612 3.601v5.919h46.954v-5.919c-.001-1.988-1.619-3.601-3.614-3.601z" fill="#a00"/></g></svg>