<svg xmlns="http://www.w3.org/2000/svg" width="128" height="128" viewBox="0 0 128 128"><g transform="translate(0 -924.362)"><path d="M82.543 976.288l-11.935-9.677c-.43-.323-.645-.968-.323-1.505 2.366-5.054 1.505-11.183-2.688-15.376-5.591-5.591-15.053-5.269-20.215 1.183-3.871 4.839-3.871 11.828-.108 16.774 4.086 5.161 10.968 6.451 16.451 3.871.538-.215 1.075-.108 1.505.323l9.677 11.935c1.505 1.828 4.193 1.935 5.806.323l2.258-2.258c1.505-1.398 1.398-4.086-.43-5.591zm-17.312-9.57c-3.978 3.978-10.537 3.978-14.623 0-3.978-3.978-3.978-10.537 0-14.623 3.978-4.086 10.537-3.978 14.623 0 4.086 4.086 4.086 10.645 0 14.623z" fill="#261fb5"/><rect width="23.482" height="94.196" x="14.107" y="943.88" ry="5.268" fill="#46a659" fill-rule="evenodd"/><rect ry="4.609" y="985.219" x="51.429" height="52.857" width="23.482" fill="#296134" fill-rule="evenodd"/><rect ry="4.404" y="959.326" x="88.393" height="78.75" width="23.482" fill="#c68f26" fill-rule="evenodd"/></g></svg>