<svg xmlns="http://www.w3.org/2000/svg" xmlns:svg="http://www.w3.org/2000/svg" id="svg2" width="128" height="128" version="1.1" viewBox="0 0 128 128"><metadata id="metadata7"/><g id="layer1" transform="translate(0,-924.36216)"><path id="path6" d="m 82.543186,976.28827 -11.935263,-9.67724 c -0.430099,-0.32257 -0.645149,-0.96772 -0.322574,-1.50535 2.365547,-5.05367 1.505348,-11.18259 -2.688123,-15.37606 -5.591294,-5.59129 -15.053484,-5.26872 -20.214679,1.18278 -3.870896,4.83862 -3.870896,11.82773 -0.107524,16.77388 4.085945,5.16119 10.967538,6.45149 16.451307,3.8709 0.537625,-0.21505 1.075249,-0.10753 1.505349,0.32257 l 9.67724,11.93524 c 1.505348,1.82792 4.193471,1.93545 5.806344,0.32258 l 2.258023,-2.25803 c 1.505348,-1.3978 1.397823,-4.08592 -0.4301,-5.59127 z m -17.311507,-9.56971 c -3.978421,3.97842 -10.537439,3.97842 -14.623385,0 -3.978421,-3.97843 -3.978421,-10.53744 0,-14.62339 3.978421,-4.08594 10.537439,-3.97842 14.623385,0 4.085946,4.08595 4.085946,10.64496 0,14.62339 z" style="fill:#2271d5;fill-opacity:1"/><rect style="fill:#46a659;fill-opacity:1;fill-rule:evenodd;stroke:none;stroke-width:4;stroke-linecap:round;stroke-linejoin:round;stroke-miterlimit:4;stroke-dasharray:none;stroke-opacity:1" id="rect4136" width="23.482" height="94.196" x="14.107" y="943.88" ry="5.268"/><rect id="rect4154" width="23.482" height="52.857" x="51.429" y="985.219" ry="4.609" style="fill:#98a018;fill-opacity:1;fill-rule:evenodd;stroke:none;stroke-width:4;stroke-linecap:round;stroke-linejoin:round;stroke-miterlimit:4;stroke-dasharray:none;stroke-opacity:1"/><rect id="rect4156" width="23.482" height="78.75" x="88.393" y="959.326" ry="4.404" style="fill:#c68f26;fill-opacity:1;fill-rule:evenodd;stroke:none;stroke-width:4;stroke-linecap:round;stroke-linejoin:round;stroke-miterlimit:4;stroke-dasharray:none;stroke-opacity:1"/></g></svg>