<svg xmlns="http://www.w3.org/2000/svg" xmlns:svg="http://www.w3.org/2000/svg" xmlns:xlink="http://www.w3.org/1999/xlink" id="svg2" width="128" height="128" version="1.1" viewBox="0 0 128 128"><defs id="defs4"><linearGradient id="linearGradient4138"><stop style="stop-color:#f40c06;stop-opacity:1" id="stop4140" offset="0"/><stop style="stop-color:#6c0206;stop-opacity:1" id="stop4142" offset="1"/></linearGradient><linearGradient id="linearGradient4144" x1="12.028" x2="22" y1="11.946" y2="2.054" gradientUnits="userSpaceOnUse" xlink:href="#linearGradient4138"/></defs><metadata id="metadata7"/><g id="layer1" transform="translate(0,-924.36216)"><polygon id="polygon6" points="20 20 4 20 4 4 16 4 16 2 2 2 2 22 22 22 22 8 20 8" transform="matrix(6.3,0,0,6.3,-11.6,912.76216)" style="fill:#2271d5;fill-opacity:1"/><polygon id="polygon8" points="18 2 19.3 3.3 13.3 9.3 12 8 12 12 16 12 14.7 10.7 20.7 4.7 22 6 22 2" transform="matrix(6.3,0,0,6.3,-11.6,912.76216)" style="fill-opacity:1;fill:url(#linearGradient4144)"/></g></svg>