<svg xmlns="http://www.w3.org/2000/svg" xmlns:svg="http://www.w3.org/2000/svg" xmlns:xlink="http://www.w3.org/1999/xlink" id="svg2" width="128" height="128" version="1.1" viewBox="0 0 128 128"><defs id="defs4"><linearGradient id="linearGradient4141"><stop style="stop-color:#05244d;stop-opacity:1" id="stop4143" offset="0"/><stop style="stop-color:#116def;stop-opacity:1" id="stop4145" offset="1"/></linearGradient><linearGradient id="linearGradient4147" x1="8.351" x2="119.649" y1="988.362" y2="988.362" gradientTransform="matrix(0.76637015,-0.76637015,0.76637015,0.76637015,-748.13059,277.0565)" gradientUnits="userSpaceOnUse" xlink:href="#linearGradient4141"/></defs><metadata id="metadata7"/><g id="layer1" transform="translate(0,-924.36216)"><path style="color:#000;text-indent:0;text-transform:none;direction:ltr;baseline-shift:baseline;display:inline;overflow:visible;visibility:visible;fill:url(#linearGradient4147);fill-opacity:1;stroke:none;stroke-width:1.08381104;marker:none;enable-background:accumulate" id="path4" d="m 14.011012,933.25714 a 5.8009964,5.8009964 0 0 0 0.06706,8.11383 l 7.175057,7.17506 c -23.4006146,23.50239 -23.3624905,61.73237 0.100568,85.19547 23.494442,23.4944 61.801651,23.4944 85.296013,0 23.49437,-23.4943 23.49441,-61.80162 -3e-5,-85.29607 a 6.7805131,6.7805131 0 1 0 -9.589076,9.58909 c 18.322966,18.32297 18.356606,47.82858 0.0336,66.15158 -18.322973,18.3229 -47.828466,18.2893 -66.151441,-0.034 -18.291617,-18.2917 -18.329631,-47.68752 -0.100559,-66.01726 l 6.873298,6.8733 a 5.8009964,5.8009964 0 0 0 9.790266,-2.95049 l 6.135676,-29.7396 a 5.8009964,5.8009964 0 0 0 -6.839787,-6.83989 l -29.773123,6.10216 a 5.8009964,5.8009964 0 0 0 -3.017547,1.67642 z" display="inline" overflow="visible" visibility="visible"/></g></svg>