<svg xmlns="http://www.w3.org/2000/svg" xmlns:xlink="http://www.w3.org/1999/xlink" width="128" height="128" viewBox="0 0 128 128"><defs><linearGradient id="a"><stop offset="0" stop-color="#a021a0"/><stop offset="1" stop-color="#de61de"/></linearGradient><linearGradient xlink:href="#a" id="b" x1="8.351" y1="988.362" x2="119.649" y2="988.362" gradientUnits="userSpaceOnUse"/></defs><g transform="translate(0 -924.362)"><path d="M69.119 925.364a5.352 5.352 0 0 0-5.25 5.337v9.362c-30.601.066-55.518 25.033-55.518 55.649 0 30.657 24.993 55.649 55.649 55.649 30.657 0 55.649-24.993 55.649-55.649a6.256 6.256 0 1 0-12.512 0c0 23.909-19.228 43.181-43.137 43.181s-43.137-19.272-43.137-43.181c0-23.868 19.154-43.071 43.006-43.137v8.969a5.352 5.352 0 0 0 8.312 4.462l23.406-15.4a5.352 5.352 0 0 0 0-8.925l-23.406-15.444a5.352 5.352 0 0 0-3.062-.875z" style="text-indent:0;text-transform:none;block-progression:tb" overflow="visible" color="#000" fill="url(#b)" enable-background="accumulate"/><circle cx="64" cy="994.362" r="10.446" fill="#9c181d" fill-rule="evenodd"/></g></svg>