<svg xmlns="http://www.w3.org/2000/svg" xmlns:svg="http://www.w3.org/2000/svg" xmlns:xlink="http://www.w3.org/1999/xlink" id="svg2" width="128" height="128" version="1.1" viewBox="0 0 128 128"><defs id="defs4"><linearGradient id="linearGradient4141"><stop style="stop-color:#a021a0;stop-opacity:1" id="stop4143" offset="0"/><stop style="stop-color:#de61de;stop-opacity:1" id="stop4145" offset="1"/></linearGradient><linearGradient id="linearGradient4147" x1="8.351" x2="119.649" y1="988.362" y2="988.362" gradientUnits="userSpaceOnUse" xlink:href="#linearGradient4141"/></defs><metadata id="metadata7"/><g id="layer1" transform="translate(0,-924.36216)"><path style="color:#000;text-indent:0;text-transform:none;direction:ltr;block-progression:tb;baseline-shift:baseline;display:inline;overflow:visible;visibility:visible;fill:url(#linearGradient4147);fill-opacity:1;stroke:none;marker:none;enable-background:accumulate" id="path4" d="m 69.11869,925.36368 a 5.3524054,5.3524054 0 0 0 -5.249938,5.33743 l 0,9.36239 c -30.600749,0.0664 -55.5180926,25.03349 -55.5180936,55.64932 0,30.65678 24.9926546,55.64938 55.6493426,55.64938 30.656684,0 55.649339,-24.9926 55.649339,-55.64938 a 6.2561761,6.2561761 0 1 0 -12.51234,0 c 0,23.90878 -19.228225,43.18088 -43.136999,43.18088 -23.908777,0 -43.136991,-19.2721 -43.136991,-43.18088 0,-23.86786 19.153818,-43.07128 43.005742,-43.13696 l 0,8.96864 a 5.3524054,5.3524054 0 0 0 8.312402,4.46245 l 23.405971,-15.39982 a 5.3524054,5.3524054 0 0 0 0,-8.9249 L 72.181154,926.23867 a 5.3524054,5.3524054 0 0 0 -3.062464,-0.87499 z" display="inline" overflow="visible" visibility="visible"/><circle style="fill:#9c181d;fill-opacity:1;fill-rule:evenodd;stroke:none;stroke-width:4;stroke-linecap:round;stroke-linejoin:round;stroke-miterlimit:4;stroke-dasharray:none;stroke-opacity:1" id="path4139" cx="64" cy="994.362" r="10.446"/></g></svg>