<svg xmlns="http://www.w3.org/2000/svg" xmlns:xlink="http://www.w3.org/1999/xlink" width="128" height="128" viewBox="0 0 128 128"><defs><linearGradient id="a"><stop offset="0" stop-color="#3a98df"/><stop offset="1" stop-color="#173363"/></linearGradient><linearGradient xlink:href="#a" id="b" x1="82.75" y1="925.684" x2="82.75" y2="1051.166" gradientUnits="userSpaceOnUse" gradientTransform="matrix(.824 0 0 1 11.247 0)"/></defs><path d="M109.438 127h-90.875c-3.246 0-6.491-3.938-6.491-7.875v-97.125c0-6.563 2.163-7.875 2.163-7.875l8.652-10.498s1.084-2.627 7.575-2.627h12.982c1.082 0 1.082 1.313 1.082 1.313v11.813s0 2.625 2.163 2.625h2.163c2.163 0 2.163-2.625 2.163-2.625v-11.813s0-1.313 1.082-1.313h36.783c1.082 0 1.082 1.313 1.082 1.313v28.874s0 1.313-1.082 1.313h-49.765c-1.081 0-1.081-1.313-1.081-1.313v-19.688s0-2.625-2.163-2.625h-2.163c-2.163 0-2.163 2.625-2.163 2.625v26.251c0 2.625 2.163 2.625 2.163 2.625h60.583c2.163 0 2.163-2.625 2.163-2.625v-35.438s0-1.313 1.082-1.313h11.9c3.246 0 6.491 3.938 6.491 7.875v110.25c0 3.938-3.246 7.875-6.491 7.875zm-6.491-10.5v-42c0-2.926-1.082-3.938-1.082-3.938l-4.327-5.25s-1.158-1.313-3.246-1.313h-60.854c-1.893 0-3.111 1.477-3.111 1.477l-4.372 5.305s-.901 1.258-.901 3.227v42.492c0 2.625 2.163 2.625 2.163 2.625h73.565c.001 0 2.164 0 2.164-2.625z" fill="url(#b)"/><path d="M97.571 109.917c0-.367-.975-.667-2.165-.667h-62.772c-1.191 0-2.164.3-2.164.667v.667c0 .367.974.667 2.164.667h62.773c1.191 0 2.165-.3 2.165-.667v-.667zm0-15.75c0-.367-.975-.667-2.165-.667h-62.772c-1.191 0-2.164.3-2.164.667v.667c0 .367.974.667 2.164.667h62.773c1.191 0 2.165-.3 2.165-.667v-.667zm-.034-15.752c0-.367-.974-.667-2.164-.667h-62.746c-1.19 0-2.163.3-2.163.667v.667c0 .367.973.667 2.163.667h62.747c1.19 0 2.164-.3 2.164-.667v-.667z" fill-opacity=".669"/></svg>