<svg xmlns="http://www.w3.org/2000/svg" xmlns:svg="http://www.w3.org/2000/svg" xmlns:xlink="http://www.w3.org/1999/xlink" id="svg2" width="128" height="128" version="1.1" viewBox="0 0 128 128"><defs id="defs4"><linearGradient id="linearGradient4171"><stop style="stop-color:#4ca1e2;stop-opacity:1" id="stop4173" offset="0"/><stop style="stop-color:#244f99;stop-opacity:1" id="stop4175" offset="1"/></linearGradient><linearGradient id="linearGradient4177" x1="82.75" x2="82.75" y1="925.684" y2="1051.166" gradientTransform="matrix(0.82426304,0,0,1,11.247165,0)" gradientUnits="userSpaceOnUse" xlink:href="#linearGradient4171"/></defs><metadata id="metadata7"/><g id="layer1" transform="translate(0,-924.36216)"><path id="path4" d="m 109.4375,1051.3622 c -3.24554,0 -87.629465,0 -90.875001,0 -3.245535,0 -6.491071,-3.9375 -6.491071,-7.875 0,-3.9375 0,-90.56256 0,-97.12463 0,-6.56335 2.163344,-7.875 2.163344,-7.875 l 8.652339,-10.49833 c 0,0 1.084268,-2.6271 7.57534,-2.6271 6.491071,0 11.899951,0 12.982143,0 1.082191,0 1.082191,1.31292 1.082191,1.31292 l 0,11.8125 c 0,0 0,2.62458 2.163345,2.62458 2.163344,0 0,0 2.163344,0 2.163344,0 2.163344,-2.62458 2.163344,-2.62458 l 0,-11.8125 c 0,0 0,-1.31292 1.082192,-1.31292 1.082191,0 35.700892,0 36.783084,0 1.082191,0 1.082191,1.31292 1.082191,1.31292 l 0,28.87416 c 0,0 0,1.31292 -1.082191,1.31292 -2.163344,0 -48.683036,0 -49.765227,0 -1.081153,0 -1.081153,-1.31292 -1.081153,-1.31292 l 0,-19.6875 c 0,0 0,-2.62458 -2.163344,-2.62458 0,0 0,0 -2.163345,0 -2.163344,0 -2.163344,2.62458 -2.163344,2.62458 0,0 0,23.625 0,26.25084 0,2.62458 2.163344,2.62458 2.163344,2.62458 0,0 58.419643,0 60.582987,0 2.163345,0 2.163345,-2.62458 2.163345,-2.62458 l 0,-35.4375 c 0,0 0,-1.31292 1.082191,-1.31292 1.081153,0 8.654412,0 11.899952,0 3.24554,0 6.49107,3.9375 6.49107,7.875 0,3.9375 0,106.31256 0,110.25006 0,3.9375 -3.24553,7.875 -6.49107,7.875 z m -6.49107,-10.4996 c 0,-2.2251 0,-32.7675 0,-41.99963 0,-2.9257 -1.08219,-3.9375 -1.08219,-3.9375 l -4.326692,-5.2504 c 0,0 -1.158007,-1.3129 -3.245536,-1.3129 -2.088567,0 -59.36682,0 -60.854054,0 -1.893316,0 -3.110521,1.4767 -3.110521,1.4767 l -4.372386,5.3046 c 0,0 -0.90148,1.25751 -0.90148,3.2269 0,1.96943 0,39.86763 0,42.49223 0,2.6246 2.163344,2.6246 2.163344,2.6246 l 73.565135,0 c 8.2e-4,0 2.16438,0 2.16438,-2.6246 z" style="fill:url(#linearGradient4177);fill-opacity:1"/><g id="g8" transform="matrix(1.0385714,0,0,-0.32005121,12.070391,1039.6119)" style="fill:#2caf45;fill-opacity:1"><path id="path10" d="m 82.292,16.667 c 0,1.146 -0.938,2.083 -2.084,2.083 l -60.416,0 c -1.146,0 -2.083,-0.938 -2.083,-2.083 l 0,-2.083 c 0,-1.146 0.937,-2.083 2.083,-2.083 l 60.417,0 c 1.146,0 2.084,0.938 2.084,2.083 l 0,2.083 z" style="fill:#2caf45;fill-opacity:1"/></g><g id="g12" transform="matrix(1.0385714,0,0,-0.32005121,12.070391,1027.8625)" style="fill:#2caf45;fill-opacity:1"><path id="path14" d="m 82.292,29.167 c 0,1.146 -0.938,2.083 -2.084,2.083 l -60.416,0 c -1.146,0 -2.083,-0.938 -2.083,-2.083 l 0,-2.083 c 0,-1.146 0.937,-2.083 2.083,-2.083 l 60.417,0 c 1.146,0 2.084,0.938 2.084,2.083 l 0,2.083 z" style="fill:#2caf45;fill-opacity:1"/></g><path id="path18" d="m 97.536509,1002.7776 c 0,-0.3668 -0.97418,-0.6667 -2.164383,-0.6667 l -62.74633,0 c -1.190203,0 -2.163344,0.3002 -2.163344,0.6667 l 0,0.6666 c 0,0.3668 0.973141,0.6667 2.163344,0.6667 l 62.747369,0 c 1.190202,0 2.164383,-0.3002 2.164383,-0.6667 l 0,-0.6666 z" style="fill:#2caf45;fill-opacity:1"/></g></svg>