<svg xmlns="http://www.w3.org/2000/svg" xmlns:svg="http://www.w3.org/2000/svg" xmlns:xlink="http://www.w3.org/1999/xlink" id="svg2" width="128" height="128" version="1.1" viewBox="0 0 128 128"><defs id="defs4"><linearGradient id="linearGradient4187"><stop style="stop-color:#52a6ca;stop-opacity:1" id="stop4189" offset="0"/><stop style="stop-color:#284892;stop-opacity:1" id="stop4191" offset="1"/></linearGradient><linearGradient id="linearGradient4193" x1="69.25" x2="127" y1="1007.546" y2="1007.546" gradientUnits="userSpaceOnUse" xlink:href="#linearGradient4187"/></defs><metadata id="metadata7"/><g id="layer1" transform="translate(0,-924.36216)"><g id="g4195" style="fill:#797979;fill-opacity:1"><path style="fill:#797979;fill-opacity:1" id="path6" d="m 112.58851,940.11714 -11.66398,0 0,2.23326 c 0.004,1.32503 0.004,2.65213 -0.004,3.97716 -0.0352,4.94138 -3.5811,8.71532 -8.250839,8.78375 l -0.124416,0.004 c -4.717431,0 -8.28609,-3.76151 -8.302679,-8.75058 -0.0083,-2.17313 -0.0083,-4.2488 -0.0083,-6.24982 l -15.977059,0 0,2.49246 c 0.0041,1.296 0.0083,2.62932 -0.0083,3.96472 -0.06014,4.79001 -3.585248,8.46235 -8.199,8.53907 l -0.141004,0.004 c -4.638635,0 -8.298532,-3.76565 -8.327563,-8.57018 -0.01659,-2.14824 -0.02488,-4.29441 -0.02074,-6.43022 l -15.96669,0 0,0.54328 c -0.0041,0.62001 0,1.23587 0,1.85587 0.0041,1.30844 0.0041,2.61273 -0.0041,3.91703 -0.04355,4.86258 -3.572806,8.59505 -8.207293,8.68007 l -0.15552,0 c -4.649003,0 -8.298532,-3.82579 -8.315121,-8.71533 -0.0083,-2.17727 -0.0083,-4.26124 -0.0083,-6.27884 l -11.6328748,0 c -3.4421697,0 -6.270555,2.82423 -6.270555,6.27055 l 0,84.58821 c 0,4.0456 2.9569482,6.7744 7.0025344,6.7744 l 58.9896644,0 c -1.733526,-2.7889 -3.093805,-5.8309 -4.02485,-9.0554 l -34.326311,0 c 0.0041,0.021 0.0041,0.039 0.0041,0.056 l -18.6706604,0.052 0.00415,-24.5846 c 0,-0 0.00415,-0 0.00415,-0.01 l 0,-39.27804 c 0,-0.0684 0.064281,-0.13271 0.13271,-0.13271 l 99.601051,0 c 0.0643,0 0.12856,0.0643 0.12856,0.13271 l 0,19.33007 c 3.22859,1.11974 6.24567,2.68116 8.98696,4.61375 l 0,-42.5108 c 0.002,-3.44632 -2.79935,-6.24774 -6.24359,-6.24774 z"/><path style="fill:#797979;fill-opacity:1" id="path8" d="m 31.284873,940.6542 c 0,1.91185 0.01244,3.82578 -0.0041,5.73764 -0.02074,2.54223 -1.683761,4.37321 -3.981305,4.41468 -2.324501,0.0435 -4.078764,-1.83928 -4.087058,-4.4292 -0.01244,-3.82578 -0.01451,-7.65157 0,-11.47735 0.01037,-2.5526 1.669245,-4.37114 3.97301,-4.41054 2.334869,-0.0394 4.078764,1.83513 4.097426,4.42505 0.01451,1.91393 0.0041,3.82786 0.0021,5.73972 z"/><path style="fill:#797979;fill-opacity:1" id="path10" d="m 63.952307,940.77861 c -0.0021,1.91393 0.01866,3.82579 -0.0062,5.73972 -0.0311,2.44269 -1.721084,4.25294 -3.968863,4.29027 -2.299618,0.0394 -4.07669,-1.78952 -4.095352,-4.29235 -0.02696,-3.9108 -0.02696,-7.8216 0,-11.7324 0.01866,-2.50491 1.791587,-4.32553 4.095352,-4.29235 2.235337,0.0332 3.923244,1.85172 3.968863,4.29235 0.01866,1.02021 0.0062,2.04041 0.0062,3.06062 0.0021,0.97874 0.0021,1.95748 0,2.93414 z"/><path style="fill:#797979;fill-opacity:1" id="path12" d="m 96.619742,940.68323 c 0,1.87038 0.01037,3.74284 -0.0021,5.61322 -0.01866,2.63762 -1.663024,4.47897 -4.012408,4.51422 -2.318281,0.0353 -4.049734,-1.84965 -4.058028,-4.45823 -0.01244,-3.82579 -0.01451,-7.65364 0,-11.47943 0.01037,-2.52771 1.710717,-4.36699 4.00204,-4.37943 2.31206,-0.0124 4.033145,1.79988 4.064249,4.32552 0.02696,1.95332 0.0062,3.90873 0.0062,5.86413 z"/></g><path id="path14" d="m 36.120499,1020.4483 -15.41304,0 c -1.841354,0 -3.346785,-1.5055 -3.346785,-3.3468 l 0,-10.1669 c 0,-1.8413 1.505431,-3.3468 3.346785,-3.3468 l 15.41304,0 c 1.841354,0 3.346784,1.5055 3.346784,3.3468 l 0,10.1669 c 0.0021,1.8413 -1.50543,3.3468 -3.346784,3.3468 z" style="fill:#d8e046;fill-opacity:1"/><path id="path16" d="m 36.120499,991.54647 -15.41304,0 c -1.841354,0 -3.346785,-1.50543 -3.346785,-3.34679 l 0,-10.16684 c 0,-1.84135 1.505431,-3.34678 3.346785,-3.34678 l 15.41304,0 c 1.841354,0 3.346784,1.50543 3.346784,3.34678 l 0,10.16684 c 0.0021,1.84136 -1.50543,3.34679 -3.346784,3.34679 z" style="fill:#eea60d;fill-opacity:1"/><path id="path18" d="m 61.553156,1018.6193 c 0,0.6118 0.01659,1.2214 0.04769,1.829 l -9.395464,0 c -1.841354,0 -3.348858,-1.5055 -3.348858,-3.3489 l 0,-10.1668 c 0,-1.8414 1.505431,-3.3489 3.348858,-3.3489 l 12.588802,0 c -2.083964,4.5868 -3.241031,9.6733 -3.241031,15.0356 z" style="fill:#bab43a;fill-opacity:1"/><path id="path20" d="m 67.618425,991.54647 -15.41304,0 c -1.841354,0 -3.346784,-1.50543 -3.346784,-3.34679 l 0,-10.16684 c 0,-1.84135 1.50543,-3.34678 3.346784,-3.34678 l 15.41304,0 c 1.841354,0 3.346785,1.50543 3.346785,3.34678 l 0,10.16684 c 0,1.84136 -1.505431,3.34679 -3.346785,3.34679 z" style="fill:#d3b15f;fill-opacity:1"/><path id="path22" d="m 102.46314,978.03492 0,4.50592 c -1.48885,-0.1887 -3.008792,-0.28408 -4.549474,-0.28408 -6.370088,0 -12.35656,1.64021 -17.559213,4.51836 l 0,-8.74228 c 0,-1.84135 1.505431,-3.34886 3.348858,-3.34886 l 15.413041,0 c 1.839278,0.002 3.346788,1.50751 3.346788,3.35094 z" style="fill:#d9b343;fill-opacity:1"/><path id="path24" d="m 118.59779,1016.836 c 0,2.4013 -0.38154,4.7133 -1.08864,6.8802 l -0.15759,-0.046 c 0,0 0.10368,-0.2944 0.26956,-0.8584 0.16589,-0.5599 0.38984,-1.3914 0.57439,-2.478 0.1804,-1.0845 0.32141,-2.4261 0.2986,-3.9751 -0.0228,-1.5469 -0.2198,-3.297 -0.69051,-5.1508 -0.10161,-0.3815 -0.21565,-0.7755 -0.338,-1.1695 0.0166,-0.025 0.0311,-0.046 0.0477,-0.071 0.70502,2.1628 1.08449,4.4727 1.08449,6.8677 z" style="fill:#000"/><circle id="circle26" cx="116.136" cy="1035.09" r="4.222" style="fill:#0e0d5e;fill-opacity:1"/><circle id="circle28" cx="104.477" cy="1042.546" r="3.565" style="fill:#3b2dad;fill-opacity:1"/><circle id="circle30" cx="90.646" cy="1043.082" r="3.154" style="fill:#403ab2;fill-opacity:1"/><circle id="circle32" cx="79.177" cy="1037.278" r="1.953" style="fill:#422c87;fill-opacity:1"/><path id="path34" d="m 127,1017.8086 c 0,2.903 -0.42716,5.7065 -1.22757,8.3503 l -8.26328,-2.4427 c 0.7071,-2.1648 1.08864,-4.4769 1.08864,-6.8802 0,-2.397 -0.37947,-4.707 -1.08449,-6.8677 -1.39553,-4.2861 -4.0601,-7.9979 -7.54789,-10.69146 -0.10161,-0.0809 -0.20322,-0.1576 -0.3069,-0.23639 -1.5469,-1.17366 -3.29287,-2.17728 -5.16947,-2.94866 -1.20891,-0.49351 -2.4738,-0.87298 -3.77187,-1.15292 l -0.49144,-0.10783 -0.49352,-0.0809 c -0.325555,-0.056 -0.665625,-0.11612 -0.96837,-0.14929 l -0.466559,-0.0539 c -0.15552,-0.0187 -0.298598,-0.0415 -0.505957,-0.0477 l -0.566092,-0.0332 -0.282009,-0.0166 -0.145152,-0.008 -0.06843,-0.004 -0.03318,-0.002 -0.02903,0 c -2.668719,-0.0829 -5.366467,0.27371 -7.896255,1.08449 -2.552597,0.82736 -4.937232,2.07152 -7.002534,3.63087 -2.061155,1.56345 -3.821638,3.40895 -5.183991,5.37685 -0.354585,0.4852 -0.66355,0.9891 -0.972516,1.4867 -0.151373,0.251 -0.284083,0.5039 -0.427161,0.7528 -0.145152,0.2509 -0.273715,0.5059 -0.396057,0.7589 -0.522546,1.0078 -0.926897,2.0363 -1.273188,3.0316 -0.163814,0.5039 -0.333849,0.9933 -0.454118,1.4847 -0.06013,0.2426 -0.136857,0.4852 -0.186623,0.7278 -0.05599,0.2426 -0.107827,0.4811 -0.15552,0.7216 -0.02488,0.1162 -0.05184,0.2364 -0.07465,0.3484 -0.02281,0.1182 -0.04147,0.2364 -0.06014,0.3546 -0.03732,0.2302 -0.07465,0.4645 -0.111974,0.6884 -0.06843,0.4521 -0.10368,0.873 -0.15552,1.2939 -0.03732,0.4396 -0.05806,0.9021 -0.08502,1.3271 l -0.0021,0.083 c 0,0 0,0.017 -0.0041,0.017 l 0,0.019 -0.0021,0.1514 c -0.0041,0.1 -0.0041,0.1991 -0.0083,0.2945 0,0.199 -0.0041,0.3898 0,0.5785 0.0021,0.7527 0.0394,1.4474 0.09746,2.0694 0.114048,1.2463 0.298598,2.2188 0.439603,2.8782 0.06843,0.3297 0.122342,0.5599 0.167961,0.7465 0.04355,0.1783 0.0705,0.2696 0.0705,0.2696 l -2.598216,0.7444 c 0,0 -0.02903,-0.087 -0.08502,-0.2654 -0.05599,-0.1639 -0.149299,-0.4645 -0.250906,-0.8212 -0.111974,-0.3981 -0.248831,-0.9041 -0.381541,-1.5096 -0.279936,-1.6091 -0.425087,-3.2617 -0.425087,-4.9517 0,-15.948 12.928872,-28.87484 28.878974,-28.87484 7.18501,0 13.75831,2.62518 18.80959,6.96729 2.22082,1.90771 4.14927,4.14715 5.70239,6.64375 2.76203,4.4293 4.3587,9.6609 4.3587,15.2659 z" style="fill:url(#linearGradient4193);fill-opacity:1"/><path id="path36" d="m 110.73678,1009.8812 c -0.50388,-0.761 -1.25659,-0.9746 -2.06737,-0.5785 -0.99325,0.4873 -1.9637,1.0554 -2.89889,1.6049 l -0.23224,0.1369 c -1.53031,0.902 -3.05648,1.8082 -4.58472,2.7143 -0.89994,0.535 -1.799884,1.07 -2.699824,1.6029 -0.678066,-0.3048 -1.424561,-0.4645 -2.166908,-0.4645 -1.059608,0 -2.083965,0.3173 -2.961096,0.9166 -0.259199,0.1783 -0.508031,0.3815 -0.7382,0.6075 -1.806102,1.7875 -2.07567,4.6096 -0.640741,6.7102 0.980811,1.437 2.60651,2.2955 4.348331,2.2955 l 0,0 c 0.734053,0 1.44737,-0.1514 2.117142,-0.4459 0.290303,-0.1265 0.576459,-0.2861 0.850174,-0.4727 1.515802,-1.0348 2.384632,-2.7994 2.287172,-4.6262 1.50544,-1.3023 3.8797,-3.3095 5.79363,-4.929 1.71901,-1.4536 3.07515,-2.6003 3.35923,-2.8595 0.68221,-0.6262 0.76516,-1.4121 0.23431,-2.2125 z" style="fill:#202787;fill-opacity:1"/></g></svg>