<svg xmlns="http://www.w3.org/2000/svg" xmlns:xlink="http://www.w3.org/1999/xlink" width="128" height="128" viewBox="0 0 128 128"><defs><linearGradient id="a"><stop offset="0" stop-color="#52a6ca"/><stop offset="1" stop-color="#284892"/></linearGradient><linearGradient xlink:href="#a" id="b" x1="69.25" y1="1007.546" x2="127" y2="1007.546" gradientUnits="userSpaceOnUse"/></defs><g transform="translate(0 -924.362)"><path d="M112.589 940.117h-11.664v2.233c.004 1.325.004 2.652-.004 3.977-.035 4.941-3.581 8.715-8.251 8.784l-.124.004c-4.717 0-8.286-3.762-8.303-8.751-.008-2.173-.008-4.249-.008-6.25h-15.977v2.492c.004 1.296.008 2.629-.008 3.965-.06 4.79-3.585 8.462-8.199 8.539l-.141.004c-4.639 0-8.299-3.766-8.328-8.57-.017-2.148-.025-4.294-.021-6.43h-15.967v2.399c.004 1.308.004 2.613-.004 3.917-.044 4.863-3.573 8.595-8.207 8.68h-.156c-4.649 0-8.299-3.826-8.315-8.715-.008-2.177-.008-4.261-.008-6.279h-11.633c-3.442 0-6.271 2.824-6.271 6.271v84.588c0 4.046 2.957 6.774 7.003 6.774h58.99c-1.734-2.789-3.094-5.831-4.025-9.055h-34.326l.004.056-18.671.052.004-24.585.004-.01v-39.278c0-.068.064-.133.133-.133h99.601c.064 0 .129.064.129.133v19.33c3.229 1.12 6.246 2.681 8.987 4.614v-42.511c.002-3.446-2.799-6.248-6.244-6.248zm-81.304.537c0 1.912.012 3.826-.004 5.738-.021 2.542-1.684 4.373-3.981 4.415-2.325.043-4.079-1.839-4.087-4.429-.012-3.826-.015-7.652 0-11.477.01-2.553 1.669-4.371 3.973-4.411 2.335-.039 4.079 1.835 4.097 4.425.015 1.914.004 3.828.002 5.74zm32.667.125c-.002 1.914.019 3.826-.006 5.74-.031 2.443-1.721 4.253-3.969 4.29-2.3.039-4.077-1.79-4.095-4.292-.027-3.911-.027-7.822 0-11.732.019-2.505 1.792-4.326 4.095-4.292 2.235.033 3.923 1.852 3.969 4.292.019 1.02.006 2.04.006 3.061.002.979.002 1.957 0 2.934zm32.668-.096c0 1.87.01 3.743-.002 5.613-.019 2.638-1.663 4.479-4.012 4.514-2.318.035-4.05-1.85-4.058-4.458-.012-3.826-.015-7.654 0-11.479.01-2.528 1.711-4.367 4.002-4.379 2.312-.012 4.033 1.8 4.064 4.326.027 1.953.006 3.909.006 5.864z" fill="#595959"/><path d="M36.12 1020.448h-15.413c-1.841 0-3.347-1.506-3.347-3.347v-10.167c0-1.841 1.505-3.347 3.347-3.347h15.413c1.841 0 3.347 1.506 3.347 3.347v10.167c.002 1.841-1.505 3.347-3.347 3.347z" fill="#d8e046"/><path d="M36.12 991.546h-15.413c-1.841 0-3.347-1.505-3.347-3.347v-10.167c0-1.841 1.505-3.347 3.347-3.347h15.413c1.841 0 3.347 1.505 3.347 3.347v10.167c.002 1.841-1.505 3.347-3.347 3.347z" fill="#eea60d"/><path d="M61.553 1018.619c0 .612.017 1.221.048 1.829h-9.395c-1.841 0-3.349-1.506-3.349-3.349v-10.167c0-1.841 1.505-3.349 3.349-3.349h12.589c-2.084 4.587-3.241 9.673-3.241 15.036z" fill="#bab43a"/><path d="M67.618 991.546h-15.413c-1.841 0-3.347-1.505-3.347-3.347v-10.167c0-1.841 1.505-3.347 3.347-3.347h15.413c1.841 0 3.347 1.505 3.347 3.347v10.167c0 1.841-1.505 3.347-3.347 3.347z" fill="#d3b15f"/><path d="M102.463 978.035v4.506c-1.489-.189-3.009-.284-4.549-.284-6.37 0-12.357 1.64-17.559 4.518v-8.742c0-1.841 1.505-3.349 3.349-3.349h15.413c1.839.002 3.347 1.508 3.347 3.351z" fill="#d9b343"/><path d="M118.598 1016.836c0 2.401-.382 4.713-1.089 6.88l-.158-.046s.104-.294.27-.858c.166-.56.39-1.391.574-2.478.18-1.085.321-2.426.299-3.975-.023-1.547-.22-3.297-.691-5.151-.102-.382-.216-.775-.338-1.169l.048-.071c.705 2.163 1.084 4.473 1.084 6.868z"/><circle r="4.222" cy="1035.09" cx="116.136" fill="#0e0d5e"/><circle r="3.565" cy="1042.546" cx="104.477" fill="#3b2dad"/><circle r="3.154" cy="1043.082" cx="90.646" fill="#403ab2"/><circle r="1.953" cy="1037.278" cx="79.177" fill="#422c87"/><path d="M127 1017.809c0 2.903-.427 5.707-1.228 8.35l-8.263-2.443c.707-2.165 1.089-4.477 1.089-6.88 0-2.397-.379-4.707-1.084-6.868-1.396-4.286-4.06-7.998-7.548-10.691l-.307-.236c-1.547-1.174-3.293-2.177-5.169-2.949-1.209-.494-2.474-.873-3.772-1.153l-.491-.108-.494-.081c-.326-.056-.666-.116-.968-.149l-.467-.054c-.156-.019-.299-.042-.506-.048l-.566-.033-.282-.017-.145-.008-.068-.004-.033-.002h-.029c-2.669-.083-5.366.274-7.896 1.084-2.553.827-4.937 2.072-7.003 3.631-2.061 1.563-3.822 3.409-5.184 5.377-.355.485-.664.989-.973 1.487l-.427.753c-.145.251-.274.506-.396.759-.523 1.008-.927 2.036-1.273 3.032-.164.504-.334.993-.454 1.485l-.187.728-.156.722-.075.348-.06.355-.112.688c-.068.452-.104.873-.156 1.294-.037.44-.058.902-.085 1.327l-.002.083-.004.017v.019l-.002.151-.008.294v.579c.002.753.039 1.447.097 2.069.114 1.246.299 2.219.44 2.878.068.33.122.56.168.747l.07.27-2.598.744-.085-.265c-.056-.164-.149-.465-.251-.821-.112-.398-.249-.904-.382-1.51-.28-1.609-.425-3.262-.425-4.952 0-15.948 12.929-28.875 28.879-28.875 7.185 0 13.758 2.625 18.81 6.967 2.221 1.908 4.149 4.147 5.702 6.644 2.762 4.429 4.359 9.661 4.359 15.266z" fill="url(#b)"/><path d="M110.737 1009.881c-.504-.761-1.257-.975-2.067-.579-.993.487-1.964 1.055-2.899 1.605l-.232.137c-1.53.902-3.056 1.808-4.585 2.714l-2.7 1.603c-.678-.305-1.425-.465-2.167-.465-1.06 0-2.084.317-2.961.917-.259.178-.508.382-.738.608-1.806 1.788-2.076 4.61-.641 6.71.981 1.437 2.607 2.296 4.348 2.296.734 0 1.447-.151 2.117-.446.29-.127.576-.286.85-.473 1.516-1.035 2.385-2.799 2.287-4.626 1.505-1.302 3.88-3.309 5.794-4.929 1.719-1.454 3.075-2.6 3.359-2.86.682-.626.765-1.412.234-2.212z" fill="#202787"/></g></svg>