<svg xmlns="http://www.w3.org/2000/svg" xmlns:xlink="http://www.w3.org/1999/xlink" width="128" height="128" viewBox="0 0 128 128"><defs><linearGradient id="a"><stop offset="0" stop-color="#fc0"/><stop offset="1" stop-color="#d5a454"/></linearGradient><linearGradient xlink:href="#a" id="b" x1="40.406" y1="100.241" x2="40.406" y2=".008" gradientUnits="userSpaceOnUse"/></defs><path d="M21.82 22.092c1.104-.135 2.167.215 3.09.992 1.341 1.129 2.215 3.088 2.336 5.242.213 3.861-1.567 7.311-4.138 8.472l10.423-2.305c-1.343-9.218-3.838-13.695-5.928-15.853-2.236-2.31-4.37-2.443-5.422-2.323-3.978.455-6.943 5.616-6.609 11.506.155 2.757 1.221 5.221 2.85 6.595.958.805 2.045 1.163 3.12 1.041 2.34-.268 4.15-3.491 3.956-7.036-.096-1.678-.736-3.174-1.714-3.995-.382-.32-1.003-.683-1.759-.593-1.338.156-2.37 2.065-3.042 4.211l-.176.009c-.961-3.055.709-5.693 3.013-5.961zm88.288 73.355c-.872-.874-1.9-1.339-2.965-1.339l-59.234 13.067s3.817 2.35 3.924 8.908c0 6.452-4.308 10.739-4.308 10.739l56.631-12.521c5.05-1.358 8.293-6.33 8.298-12.222.008-2.674-.871-5.155-2.346-6.633zm-60.436 17.667c-1.491-5.476-5.171-5.2-5.171-5.2-2.349.131-4.342 3.246-4.35 6.799-.003 1.681.549 3.21 1.482 4.089.354.338.968.722 1.716.689 1.349-.079 2.494-1.925 3.284-4.028h.178c.78 3.105-1.038 5.642-3.357 5.776-1.092.079-2.148-.335-3.027-1.163-1.274-1.205-2.032-3.21-2.03-5.366.013-4.321 2.471-7.99 5.555-8.479.073-.011 30.576-6.711 49.17-10.794-.289-4.872-.013-10.995 1.137-18.74.32-2.15.615-4.236.888-6.267 5.757-42.946 1.201-59.592-3.977-65.641-2.541-3.091-5.287-3.786-7.205-3.788l-61.249 13.539c1.493-.008 3.809.473 6.144 2.883 5.817 6.009 11.201 23.587 3.829 73.205-3.117 20.983.229 29.771 3.583 33.448 2.535 2.776 5.307 2.975 6.426 2.918 7.196-1.018 7.793-10.862 6.972-13.879z" fill="url(#b)"/></svg>