<svg xmlns="http://www.w3.org/2000/svg" xmlns:svg="http://www.w3.org/2000/svg" xmlns:xlink="http://www.w3.org/1999/xlink" id="svg2" width="128" height="128" version="1.1" viewBox="0 0 128 128"><defs id="defs4"><linearGradient id="linearGradient4159"><stop style="stop-color:#fc0;stop-opacity:1" id="stop4161" offset="0"/><stop style="stop-color:#d5a454;stop-opacity:1" id="stop4163" offset="1"/></linearGradient><linearGradient id="linearGradient4165" x1="40.406" x2="40.406" y1="100.241" y2=".008" gradientUnits="userSpaceOnUse" xlink:href="#linearGradient4159"/></defs><metadata id="metadata7"/><g id="layer1" transform="translate(0,-924.36216)"><g id="g6" transform="matrix(1.2600005,0,0,1.2600005,1.0008073,925.36216)" style="fill-opacity:1;fill:url(#linearGradient4165)"><path id="path8" d="m 16.523,16.74 c 0.876,-0.107 1.72,0.171 2.452,0.787 1.064,0.896 1.758,2.451 1.854,4.16 0.169,3.064 -1.244,5.802 -3.284,6.724 l 8.272,-1.829 C 24.751,19.266 22.771,15.713 21.112,14 c -1.775,-1.833 -3.468,-1.939 -4.303,-1.844 -3.157,0.361 -5.51,4.457 -5.245,9.132 0.123,2.188 0.969,4.144 2.262,5.234 0.76,0.639 1.623,0.923 2.476,0.826 1.857,-0.213 3.294,-2.771 3.14,-5.584 -0.076,-1.332 -0.584,-2.519 -1.36,-3.171 -0.303,-0.254 -0.796,-0.542 -1.396,-0.471 -1.062,0.124 -1.881,1.639 -2.414,3.342 l -0.14,0.007 c -0.763,-2.425 0.563,-4.518 2.391,-4.731 z" style="fill-opacity:1;fill:url(#linearGradient4165)"/><path id="path10" d="M 86.593,74.958 C 85.901,74.264 85.085,73.895 84.24,73.895 L 37.229,84.266 c 0,0 3.029,1.865 3.114,7.07 0,5.121 -3.419,8.523 -3.419,8.523 l 44.945,-9.937 c 4.008,-1.078 6.582,-5.024 6.586,-9.7 0.006,-2.122 -0.691,-4.091 -1.862,-5.264 z" style="fill-opacity:1;fill:url(#linearGradient4165)"/><path id="path12" d="m 38.628,88.979 c -1.183,-4.346 -4.104,-4.127 -4.104,-4.127 -1.864,0.104 -3.446,2.576 -3.452,5.396 -0.002,1.334 0.436,2.548 1.176,3.245 0.281,0.268 0.768,0.573 1.362,0.547 1.071,-0.063 1.979,-1.528 2.606,-3.197 l 0.141,0 c 0.619,2.464 -0.824,4.478 -2.664,4.584 -0.867,0.063 -1.705,-0.266 -2.402,-0.923 -1.011,-0.956 -1.613,-2.548 -1.611,-4.259 0.01,-3.429 1.961,-6.341 4.409,-6.729 0.058,-0.009 24.267,-5.326 39.024,-8.567 -0.229,-3.867 -0.01,-8.726 0.902,-14.873 0.254,-1.706 0.488,-3.362 0.705,-4.974 C 79.289,21.018 75.673,7.807 71.564,3.006 69.547,0.553 67.368,10e-4 65.846,0 l -48.61,10.745 c 1.185,-0.006 3.023,0.375 4.876,2.288 4.617,4.769 8.89,18.72 3.039,58.099 -2.474,16.653 0.182,23.628 2.844,26.546 2.012,2.203 4.212,2.361 5.1,2.316 5.711,-0.808 6.185,-8.621 5.533,-11.015 z" style="fill:url(#linearGradient4165);fill-opacity:1"/></g></g></svg>