<svg xmlns="http://www.w3.org/2000/svg" viewBox="0 0 128 128" enable-background="new 0 0 128 128"><style type="text/css">.st0{fill:none;} .st1{fill:url(#SVGID_1_);} .st2{fill:url(#SVGID_2_);} .st3{fill:#DDDDDD;} .st4{fill:url(#SVGID_3_);} .st5{fill:url(#SVGID_4_);} .st6{fill:url(#SVGID_5_);} .st7{fill:url(#SVGID_6_);} .st8{fill:#0057AE;} .st9{fill:url(#SVGID_7_);} .st10{fill:url(#SVGID_8_);} .st11{fill:#FFFFFF;} .st12{fill:url(#SVGID_9_);}</style><path class="st0" d="M0 0h128v128h-128v-128z"/><linearGradient id="SVGID_1_" gradientUnits="userSpaceOnUse" x1="14.584" y1="109.001" x2="94.488" y2="29.097" gradientTransform="matrix(1 0 0 -1 0 130)"><stop offset="0" stop-color="#A4C0E4"/><stop offset="1" stop-color="#001C56"/></linearGradient><path class="st1" d="M94.1 6h-72.2c-1.1 0-1.9.9-1.9 1.9v24.5c0 1 0 1.9 1.9 1.9h1.9v24.1h-1.9c-1.9 0-1.9.5-1.9 1.9v59.7c0 1.1.9 1.9 1.9 1.9h34.5c.6 0 1.3-.5 1.7-.9h12.9c.4.5 1 1 1.6 1h33.5c1.1 0 1.9-.9 1.9-1.9v-70.8c0-1.4-.5-1.9-1.9-1.9h-1v-5.7h1c1.4 0 1.9-.5 1.9-1.9v-19.4l-13.9-14.4z"/><linearGradient id="SVGID_2_" gradientUnits="userSpaceOnUse" x1="21.133" y1="87.961" x2="28.834" y2="91.812" gradientTransform="matrix(1 0 0 -1 0 130)"><stop offset="0" stop-color="#eee"/><stop offset="1" stop-color="#bbb"/></linearGradient><path class="st2" d="M29.1 44c0 1.1-.9 1.9-1.9 1.9h-5.3c-1.1.1-1.9-.8-1.9-1.9v-7.4c0-1.1.9-1.9 1.9-1.9h5.3c1.1 0 1.9.9 1.9 1.9v7.4z"/><path class="st3" d="M21.9 35.7c-.5 0-1 .4-1 1v7.3c0 .5.4 1 1 1h5.3c.5 0 1-.4 1-1v-7.4c0-.5-.4-1-1-1h-5.3z"/><linearGradient id="SVGID_3_" gradientUnits="userSpaceOnUse" x1="14.584" y1="109.001" x2="94.488" y2="29.097" gradientTransform="matrix(1 0 0 -1 0 130)"><stop offset="0" stop-color="#A4C0E4"/><stop offset="1" stop-color="#0057AE"/></linearGradient><path class="st4" d="M94.1 6h-72.2c-1.1 0-1.9.9-1.9 1.9v24.5c0 .5.2 1 .6 1.4.4.4.9.6 1.4.6h1.9v24.1h-1.9c-1.1 0-1.9.9-1.9 1.9v59.7c0 1.1.9 1.9 1.9 1.9h34.5c.6 0 1.3-.5 1.7-.9h12.9c.4.5 1 1 1.6 1h33.5c1.1 0 1.9-.9 1.9-1.9v-70.9c0-1.1-.9-1.9-1.9-1.9h-1v-5.7h1c1.1 0 1.9-.9 1.9-1.9v-19.4c-.1 0-14-14.4-14-14.4z"/><linearGradient id="SVGID_4_" gradientUnits="userSpaceOnUse" x1="14.584" y1="109.001" x2="94.488" y2="29.097" gradientTransform="matrix(1 0 0 -1 0 130)"><stop offset="0" stop-color="#A4C0E4"/><stop offset="1" stop-color="#6193CF"/></linearGradient><path class="st5" d="M94.1 6h-72.2c-1.1 0-1.9.9-1.9 1.9v24.5c0 .5.2 1 .6 1.4.4.4.9.6 1.4.6h1.9v24.1h-1.9c-1.1 0-1.9.9-1.9 1.9v59.7c0 1.1.9 1.9 1.9 1.9h34.5c.6 0 1.3-.5 1.7-.9h12.9c.4.5 1 1 1.6 1h33.5c1.1 0 1.9-.9 1.9-1.9v-70.9c0-1.1-.9-1.9-1.9-1.9h-1v-5.7h1c1.1 0 1.9-.9 1.9-1.9v-19.4c-.1 0-14-14.4-14-14.4z"/><linearGradient id="SVGID_5_" gradientUnits="userSpaceOnUse" x1="14.582" y1="108.998" x2="94.486" y2="29.094" gradientTransform="matrix(1 0 0 -1 0 130)"><stop offset="0" stop-color="#2C72C7"/><stop offset="1" stop-color="#0057AE"/></linearGradient><path class="st6" d="M21.9 7c-.5 0-.9.4-.9.9v24.5c0 .2.1.5.3.7.2.2.4.3.7.3h2.9v26.1h-2.9c-.5 0-.9.4-.9.9v59.7c0 .5.4.9.9.9h34.5c.2 0 .6-.2.9-.6l.3-.4h13.9l.3.4c.3.3.7.6.9.6h33.5c.5 0 .9-.4.9-.9v-70.8c0-.5-.4-.9-.9-.9h-2v-7.7h2c.5 0 .9-.4.9-.9v-19c-.7-.5-13-13.2-13.5-13.8h-71.8z"/><linearGradient id="SVGID_6_" gradientUnits="userSpaceOnUse" x1="70.952" y1="18.044" x2="58.437" y2="106.61" gradientTransform="matrix(1 0 0 -1 0 130)"><stop offset="0" stop-color="#0057AE"/><stop offset="1" stop-color="#001C56"/></linearGradient><path class="st7" d="M102.7 108c0 3.2-2.6 5.8-5.8 5.8h-64.9c-3.2 0-5.8-2.6-5.8-5.8v-83.7c0-3.2 2.6-5.8 5.8-5.8h65c3.2 0 5.8 2.6 5.8 5.8v83.7z"/><path class="st8" d="M32 19.5c-2.6 0-4.8 2.1-4.8 4.8v83.7c0 2.6 2.1 4.8 4.8 4.8h65c2.6 0 4.8-2.1 4.8-4.8v-83.7c0-2.6-2.1-4.8-4.8-4.8h-65z"/><linearGradient id="SVGID_7_" gradientUnits="userSpaceOnUse" x1="103.706" y1="103.058" x2="25.258" y2="24.61" gradientTransform="matrix(1 0 0 -1 0 130)"><stop offset="0" stop-color="#ddd"/><stop offset="1" stop-color="#bbb"/></linearGradient><path class="st9" d="M32 21.4c-1.6 0-2.9 1.3-2.9 2.9v83.7c0 1.6 1.3 2.9 2.9 2.9h65c1.6 0 2.9-1.3 2.9-2.9v-83.7c0-1.6-1.3-2.9-2.9-2.9h-65z"/><linearGradient id="SVGID_8_" gradientUnits="userSpaceOnUse" x1="81.298" y1="50.209" x2="40.478" y2="9.39" gradientTransform="matrix(1 0 0 -1 0 130)"><stop offset="0" stop-color="#779BC7"/><stop offset="1" stop-color="#91ADCF"/></linearGradient><path class="st10" d="M99.9 108v-9.7c-19.3 5.9-34.7-16-41.9-19.4-8.6-4-19-3.7-28.9 5.1v24c0 1.6 1.3 2.9 2.9 2.9h65c1.6 0 2.9-1.3 2.9-2.9z"/><path class="st11" d="M43.8 97.7c-.5 1.1-1.3 1.9-2.6 2.6s-2.7 1-4.3 1c-1.7 0-3-.4-4-1.1l2.1-2c.5.6 1.3.9 2.2.9.5 0 1-.1 1.4-.3s.7-.5.9-.8c.1-.3.1-.7-.1-1-.1-.2-.5-.7-1-1.3-.3-.4-.8-.9-1.3-1.5-.4-.7-.5-1.4-.1-2.2.4-1 1.2-1.7 2.3-2.3 1.2-.6 2.5-.9 4-.9 1.3 0 2.4.3 3.4.8l-1.9 1.9c-.6-.3-1.2-.5-1.7-.5-.9 0-1.4.3-1.6.8-.1.2-.1.4 0 .6.1.2.4.5.8 1 .5.5 1 1.1 1.4 1.7.5.8.5 1.7.1 2.6zm17.1-3c-1 2.3-2.7 4.1-5.2 5.2-1.7.8-3.7 1.1-6 1.1h-4.7l5.1-12h4.4c1.5 0 2.6.1 3.2.2 1.6.3 2.7.9 3.3 1.9.6.9.6 2.1-.1 3.6zm-4.4.1c.6-1.4.5-2.4-.3-3-.4-.3-1.2-.5-2.2-.5h-.7l-3.2 7.5h.6c1.3 0 2.3-.3 3.2-.8 1.2-.7 2-1.8 2.6-3.2z"/><linearGradient id="SVGID_9_" gradientUnits="userSpaceOnUse" x1="29.104" y1="99.693" x2="99.859" y2="99.693" gradientTransform="matrix(1 0 0 -1 0 130)"><stop offset="0" stop-color="#eee"/><stop offset="1" stop-color="#fff"/></linearGradient><path class="st12" d="M99.9 39.2v-14.9c0-1.6-1.3-2.9-2.9-2.9h-65c-1.6 0-2.9 1.3-2.9 2.9v14.9h70.8z"/></svg>