<svg xmlns="http://www.w3.org/2000/svg" xmlns:svg="http://www.w3.org/2000/svg" id="svg2" width="128" height="128" version="1.1" viewBox="0 0 128 128"><defs id="defs4"><linearGradient id="XMLID_12_" x1="14.584" x2="94.488" y1="20.999" y2="100.903" gradientUnits="userSpaceOnUse"><stop style="stop-color:#a4c0e4" id="stop21" offset="0"/><stop style="stop-color:#001c56" id="stop23" offset="1"/></linearGradient><linearGradient id="XMLID_13_" x1="21.133" x2="28.834" y1="42.04" y2="38.189" gradientUnits="userSpaceOnUse"><stop style="stop-color:#eee" id="stop28" offset="0"/><stop style="stop-color:#bbb" id="stop30" offset="1"/></linearGradient><linearGradient id="XMLID_14_" x1="14.584" x2="94.488" y1="20.999" y2="100.903" gradientUnits="userSpaceOnUse"><stop style="stop-color:#a4c0e4" id="stop37" offset="0"/><stop style="stop-color:#0057ae" id="stop39" offset="1"/></linearGradient><linearGradient id="XMLID_15_" x1="14.584" x2="94.488" y1="20.999" y2="100.903" gradientUnits="userSpaceOnUse"><stop style="stop-color:#a4c0e4" id="stop44" offset="0"/><stop style="stop-color:#6193cf" id="stop46" offset="1"/></linearGradient><linearGradient id="XMLID_16_" x1="14.582" x2="94.486" y1="21.002" y2="100.906" gradientUnits="userSpaceOnUse"><stop style="stop-color:#2c72c7" id="stop51" offset="0"/><stop style="stop-color:#0057ae" id="stop53" offset="1"/></linearGradient><linearGradient id="XMLID_17_" x1="70.951" x2="58.436" y1="111.956" y2="23.39" gradientUnits="userSpaceOnUse"><stop style="stop-color:#0057ae" id="stop58" offset="0"/><stop style="stop-color:#001c56" id="stop60" offset="1"/></linearGradient><linearGradient id="XMLID_18_" x1="103.705" x2="25.257" y1="26.941" y2="105.389" gradientUnits="userSpaceOnUse"><stop style="stop-color:#ddd" id="stop67" offset="0"/><stop style="stop-color:#bbb" id="stop69" offset="1"/></linearGradient><linearGradient id="XMLID_19_" x1="81.298" x2="40.478" y1="79.79" y2="120.61" gradientUnits="userSpaceOnUse"><stop style="stop-color:#779bc7" id="stop74" offset="0"/><stop style="stop-color:#91adcf" id="stop76" offset="1"/></linearGradient><linearGradient id="XMLID_20_" x1="64.235" x2="64.235" y1="121.36" y2="116.066" gradientUnits="userSpaceOnUse"><stop style="stop-color:#6193cf" id="stop81" offset="0"/><stop style="stop-color:#00316e" id="stop83" offset="1"/></linearGradient><linearGradient id="XMLID_21_" x1="29.104" x2="99.859" y1="30.307" y2="30.307" gradientUnits="userSpaceOnUse"><stop style="stop-color:#eee" id="stop94" offset="0"/><stop style="stop-color:#fff" id="stop96" offset="1"/></linearGradient><linearGradient id="XMLID_22_" x1="95.443" x2="89.812" y1="35.626" y2="29.995" gradientUnits="userSpaceOnUse"><stop style="stop-color:#e20800" id="stop127" offset="0"/><stop style="stop-color:#e85752" id="stop129" offset="1"/></linearGradient></defs><metadata id="metadata7"/><g id="layer1" transform="translate(0,-924.36216)"><g id="g7" transform="translate(0,924.36216)"><rect id="_x3C_Sezione_x3E_" width="128" height="128" x="0" y="0" style="fill:none"/><linearGradient id="linearGradient4312" x1="14.584" x2="94.488" y1="20.999" y2="100.903" gradientUnits="userSpaceOnUse"><stop id="stop4314" offset="0" style="stop-color:#a4c0e4"/><stop id="stop4316" offset="1" style="stop-color:#001c56"/></linearGradient><path id="path25" d="M 94.083,6 21.884,6 c -1.063,0 -1.925,0.862 -1.925,1.925 l 0,24.544 c 0,0.966 -0.001,1.927 1.929,1.925 l 1.921,-0.004 0,24.067 -1.927,0.003 c -1.924,0.003 -1.923,0.485 -1.923,1.925 l 0,59.688 c 0,1.063 0.862,1.926 1.925,1.926 l 34.47,0 c 0.584,0 1.29,-0.486 1.655,-0.943 l 0.027,-0.034 12.943,0.015 c 0.366,0.456 1.046,0.963 1.63,0.963 l 33.507,0 c 1.062,0 1.926,-0.862 1.926,-1.926 l 0,-70.754 c 0,-1.444 -0.481,-1.925 -1.926,-1.925 l -0.963,0 0,-5.725 0.999,-0.018 c 1.408,-0.033 1.89,-0.514 1.89,-1.925 l 0,-19.287 L 94.083,6 Z" style="fill:url(#XMLID_12_)"/><linearGradient id="linearGradient4319" x1="21.133" x2="28.834" y1="42.04" y2="38.189" gradientUnits="userSpaceOnUse"><stop id="stop4321" offset="0" style="stop-color:#eee"/><stop id="stop4323" offset="1" style="stop-color:#bbb"/></linearGradient><path id="path32" d="m 29.104,44.025 c 0,1.063 -0.862,1.925 -1.925,1.925 l -5.294,0 c -1.063,0 -1.925,-0.862 -1.925,-1.925 l 0,-7.371 c 0,-1.063 0.862,-1.925 1.925,-1.925 l 5.294,0 c 1.063,0 1.925,0.862 1.925,1.925 l 0,7.371 z" style="fill:url(#XMLID_13_)"/><path id="path34" d="m 21.884,35.691 c -0.531,0 -0.963,0.432 -0.963,0.962 l 0,7.371 c 0,0.531 0.432,0.963 0.963,0.963 l 5.294,0 c 0.531,0 0.963,-0.432 0.963,-0.963 l 0,-7.371 c 0,-0.53 -0.432,-0.962 -0.963,-0.962 l -5.294,0 z" style="fill:#ddd"/><linearGradient id="linearGradient4327" x1="14.584" x2="94.488" y1="20.999" y2="100.903" gradientUnits="userSpaceOnUse"><stop id="stop4329" offset="0" style="stop-color:#a4c0e4"/><stop id="stop4331" offset="1" style="stop-color:#0057ae"/></linearGradient><path id="path41" d="M 94.083,6 21.884,6 c -1.063,0 -1.925,0.862 -1.925,1.925 l 0,24.544 c 0,0.512 0.203,1.001 0.565,1.363 0.362,0.361 0.853,0.563 1.364,0.562 l 1.921,-0.004 0,24.067 -1.927,0.003 c -1.062,0.002 -1.923,0.863 -1.923,1.925 l 0,59.688 c 0,1.063 0.862,1.926 1.925,1.926 l 34.47,0 c 0.584,0 1.29,-0.486 1.655,-0.943 l 0.027,-0.034 12.943,0.015 c 0.366,0.456 1.046,0.963 1.63,0.963 l 33.507,0 c 1.062,0 1.926,-0.862 1.926,-1.926 l 0,-70.754 c 0,-1.063 -0.863,-1.925 -1.926,-1.925 l -0.963,0 0,-5.725 0.999,-0.018 c 1.05,-0.019 1.89,-0.875 1.89,-1.925 l 0,-19.287 L 94.083,6 Z" style="fill:url(#XMLID_14_)"/><linearGradient id="linearGradient4334" x1="14.584" x2="94.488" y1="20.999" y2="100.903" gradientUnits="userSpaceOnUse"><stop id="stop4336" offset="0" style="stop-color:#a4c0e4"/><stop id="stop4338" offset="1" style="stop-color:#6193cf"/></linearGradient><path id="path48" d="M 94.083,6 21.884,6 c -1.063,0 -1.925,0.862 -1.925,1.925 l 0,24.544 c 0,0.512 0.203,1.001 0.565,1.363 0.362,0.361 0.853,0.563 1.364,0.562 l 1.921,-0.004 0,24.067 -1.927,0.003 c -1.062,0.002 -1.923,0.863 -1.923,1.925 l 0,59.688 c 0,1.063 0.862,1.926 1.925,1.926 l 34.47,0 c 0.584,0 1.29,-0.486 1.655,-0.943 l 0.027,-0.034 12.943,0.015 c 0.366,0.456 1.046,0.963 1.63,0.963 l 33.507,0 c 1.062,0 1.926,-0.862 1.926,-1.926 l 0,-70.754 c 0,-1.063 -0.863,-1.925 -1.926,-1.925 l -0.963,0 0,-5.725 0.999,-0.018 c 1.05,-0.019 1.89,-0.875 1.89,-1.925 l 0,-19.287 L 94.083,6 Z" style="fill:url(#XMLID_15_)"/><linearGradient id="linearGradient4341" x1="14.582" x2="94.486" y1="21.002" y2="100.906" gradientUnits="userSpaceOnUse"><stop id="stop4343" offset="0" style="stop-color:#2c72c7"/><stop id="stop4345" offset="1" style="stop-color:#0057ae"/></linearGradient><path id="path55" d="m 21.884,7 c -0.51,0 -0.925,0.415 -0.925,0.925 l 0,24.544 c 0,0.248 0.096,0.48 0.271,0.655 0.175,0.174 0.408,0.271 0.656,0.27 l 2.923,-0.006 0,26.068 -2.926,0.004 c -0.51,10e-4 -0.925,0.416 -0.925,0.925 l 0,59.688 c 0,0.511 0.415,0.926 0.925,0.926 l 34.47,0 c 0.165,0 0.615,-0.244 0.875,-0.568 l 0.301,-0.376 0.508,-0.033 13.422,0.016 0.3,0.373 c 0.274,0.342 0.698,0.589 0.851,0.589 l 33.507,0 c 0.511,0 0.926,-0.415 0.926,-0.926 l 0,-70.754 c 0,-0.51 -0.415,-0.925 -0.926,-0.925 l -1.963,0 0,-7.707 1.98,-0.036 c 0.501,-0.009 0.908,-0.424 0.908,-0.925 0,0 0,-18.107 0,-18.882 C 106.514,20.298 94.212,7.572 93.659,7 92.82,7 21.884,7 21.884,7 Z" style="fill:url(#XMLID_16_)"/><linearGradient id="linearGradient4348" x1="70.951" x2="58.436" y1="111.956" y2="23.39" gradientUnits="userSpaceOnUse"><stop id="stop4350" offset="0" style="stop-color:#0057ae"/><stop id="stop4352" offset="1" style="stop-color:#001c56"/></linearGradient><path id="path62" d="m 102.747,108.042 c 0,3.189 -2.587,5.775 -5.776,5.775 l -64.979,0 c -3.189,0 -5.776,-2.586 -5.776,-5.775 l 0,-83.752 c 0,-3.189 2.586,-5.776 5.776,-5.776 l 64.979,0 c 3.189,0 5.776,2.586 5.776,5.776 l 0,83.752 z" style="fill:url(#XMLID_17_)"/><path id="path64" d="m 31.992,19.514 c -2.633,0 -4.776,2.143 -4.776,4.776 l 0,83.752 c 0,2.633 2.143,4.775 4.776,4.775 l 64.979,0 c 2.634,0 4.776,-2.143 4.776,-4.775 l 0,-83.752 c 0,-2.633 -2.143,-4.776 -4.776,-4.776 l -64.979,0 z" style="fill:#0057ae"/><linearGradient id="linearGradient4356" x1="103.705" x2="25.257" y1="26.941" y2="105.389" gradientUnits="userSpaceOnUse"><stop id="stop4358" offset="0" style="stop-color:#ddd"/><stop id="stop4360" offset="1" style="stop-color:#bbb"/></linearGradient><path id="path71" d="m 31.992,21.402 c -1.592,0 -2.888,1.296 -2.888,2.888 l 0,83.752 c 0,1.593 1.296,2.888 2.888,2.888 l 64.979,0 c 1.593,0 2.889,-1.295 2.889,-2.888 l 0,-83.752 c 0,-1.592 -1.296,-2.888 -2.889,-2.888 l -64.979,0 z" style="fill:url(#XMLID_18_)"/><linearGradient id="linearGradient4363" x1="81.298" x2="40.478" y1="79.79" y2="120.61" gradientUnits="userSpaceOnUse"><stop id="stop4365" offset="0" style="stop-color:#779bc7"/><stop id="stop4367" offset="1" style="stop-color:#91adcf"/></linearGradient><path id="path78" d="m 99.859,108.042 0,-9.69 C 80.606,104.193 65.204,82.254 57.983,78.885 49.414,74.887 38.998,75.213 29.104,83.977 l 0,24.065 c 0,1.593 1.296,2.888 2.888,2.888 l 64.979,0 c 1.592,0 2.888,-1.295 2.888,-2.888 z" style="fill:url(#XMLID_19_)"/><linearGradient id="linearGradient4370" x1="64.235" x2="64.235" y1="121.36" y2="116.066" gradientUnits="userSpaceOnUse"><stop id="stop4372" offset="0" style="stop-color:#6193cf"/><stop id="stop4374" offset="1" style="stop-color:#00316e"/></linearGradient><path id="path85" d="m 92.71,117.511 c 0,0.931 -0.753,1.684 -1.684,1.684 l -53.582,0 c -0.93,0 -1.685,-0.753 -1.685,-1.684 l 0,0 c 0,-0.932 0.755,-1.686 1.685,-1.686 l 53.582,0 c 0.931,0 1.684,0.754 1.684,1.686 l 0,0 z" style="fill:url(#XMLID_20_)"/><g id="g87"><path id="path89" d="m 43.835,97.712 c -0.453,1.075 -1.316,1.944 -2.589,2.603 -1.273,0.659 -2.719,0.988 -4.336,0.988 -1.658,0 -2.977,-0.375 -3.956,-1.126 l 2.126,-2.012 c 0.54,0.589 1.262,0.881 2.168,0.881 0.494,0 0.96,-0.108 1.399,-0.328 0.439,-0.22 0.731,-0.504 0.877,-0.85 0.137,-0.323 0.113,-0.666 -0.068,-1.025 -0.13,-0.231 -0.462,-0.657 -0.998,-1.282 -0.338,-0.37 -0.763,-0.862 -1.278,-1.476 -0.415,-0.658 -0.459,-1.377 -0.133,-2.15 0.403,-0.96 1.182,-1.73 2.333,-2.308 1.151,-0.579 2.468,-0.868 3.95,-0.868 1.294,0 2.416,0.271 3.362,0.813 l -1.919,1.903 c -0.605,-0.307 -1.173,-0.461 -1.706,-0.461 -0.879,0 -1.426,0.256 -1.641,0.763 -0.082,0.198 -0.076,0.396 0.022,0.591 0.096,0.197 0.358,0.521 0.782,0.972 0.497,0.532 0.954,1.111 1.372,1.735 0.55,0.821 0.627,1.7 0.233,2.637 z" style="fill:#fff"/><path id="path91" d="m 60.945,94.719 c -0.977,2.321 -2.727,4.064 -5.246,5.23 -1.656,0.764 -3.652,1.143 -5.988,1.143 l -4.667,0 5.102,-12.123 4.427,0 c 1.508,0 2.569,0.053 3.178,0.156 1.633,0.278 2.729,0.91 3.289,1.897 0.557,0.987 0.527,2.219 -0.095,3.697 z m -4.448,0.071 c 0.605,-1.438 0.52,-2.446 -0.257,-3.022 -0.428,-0.32 -1.152,-0.481 -2.17,-0.481 l -0.724,0 -3.153,7.49 0.644,0 c 1.274,0 2.325,-0.265 3.15,-0.794 1.068,-0.691 1.905,-1.754 2.51,-3.193 z" style="fill:#fff"/></g><linearGradient id="linearGradient4380" x1="29.104" x2="99.859" y1="30.307" y2="30.307" gradientUnits="userSpaceOnUse"><stop id="stop4382" offset="0" style="stop-color:#eee"/><stop id="stop4384" offset="1" style="stop-color:#fff"/></linearGradient><path id="path98" d="m 99.859,39.212 0,-14.922 c 0,-1.592 -1.296,-2.888 -2.889,-2.888 l -64.978,0 c -1.592,0 -2.888,1.296 -2.888,2.888 l 0,14.922 70.755,0 z" style="fill:url(#XMLID_21_)"/><linearGradient id="linearGradient4400" x1="95.443" x2="89.812" y1="35.626" y2="29.995" gradientUnits="userSpaceOnUse"><stop id="stop4402" offset="0" style="stop-color:#e20800"/><stop id="stop4404" offset="1" style="stop-color:#e85752"/></linearGradient></g></g></svg>