<svg xmlns="http://www.w3.org/2000/svg" xmlns:svg="http://www.w3.org/2000/svg" xmlns:xlink="http://www.w3.org/1999/xlink" id="svg2" width="128" height="128" version="1.1" viewBox="0 0 128 128"><defs id="defs4"><linearGradient id="linearGradient4136"><stop style="stop-color:#0b59bd;stop-opacity:1" id="stop4138" offset="0"/><stop style="stop-color:#b2cffa;stop-opacity:1" id="stop4140" offset="1"/></linearGradient><linearGradient id="linearGradient4142" x1="126.5" x2=".929" y1="1051.166" y2="925.594" gradientUnits="userSpaceOnUse" xlink:href="#linearGradient4136"/><filter style="color-interpolation-filters:sRGB" id="filter4279"><feFlood id="feFlood4281" flood-color="#000" flood-opacity=".498" result="flood"/><feComposite id="feComposite4283" in="flood" in2="SourceGraphic" operator="out" result="composite1"/><feGaussianBlur id="feGaussianBlur4285" in="composite1" result="blur" stdDeviation="8"/><feOffset id="feOffset4287" dx="1" dy="1" result="offset"/><feComposite id="feComposite4289" in="offset" in2="SourceGraphic" operator="atop" result="composite2"/></filter></defs><metadata id="metadata7"/><g id="layer1" transform="translate(0,-924.36216)"><path id="path6" d="M 122.3068,1022.695 84.283489,991.81358 c -1.3702,-1.02937 -2.05531,-3.08813 -1.02765,-4.80378 7.53615,-16.12698 4.79573,-35.68523 -8.56381,-49.06719 -17.81272,-17.8426 -47.95733,-16.81324 -64.399844,3.77442 -12.3318854,15.44072 -12.3318854,37.74396 -0.3425504,53.52782 13.0169874,16.47005 34.9403344,20.58765 52.4105044,12.35255 1.71277,-0.6862 3.42553,-0.3431 4.79574,1.0294 l 30.82971,38.0871 c 4.795731,5.8331 13.359541,6.1763 18.497831,1.0294 l 7.1936,-7.2057 c 4.79573,-4.4606 4.45317,-13.0388 -1.37022,-17.8426 z M 67.155879,992.15673 c -12.67444,12.69567 -33.570133,12.69567 -46.587123,0 -12.6744374,-12.69574 -12.6744374,-33.62647 0,-46.66532 12.674438,-13.03881 33.570133,-12.69569 46.587123,0 13.01699,13.03885 13.01699,33.96958 0,46.66532 z" style="fill:url(#linearGradient4142);fill-opacity:1"/><rect style="fill:#d30101;fill-opacity:1;fill-rule:evenodd;stroke:none;stroke-width:4;stroke-linecap:round;stroke-linejoin:round;stroke-miterlimit:4;stroke-dasharray:none;stroke-opacity:1;filter:url(#filter4279)" id="rect4239" width="110.357" height="24.464" x="10.804" y="934.862" rx="5.5" ry="5.5" transform="matrix(0.58014895,0,0,0.61564708,5.5554222,384.81714)"/></g></svg>