<svg xmlns="http://www.w3.org/2000/svg" xmlns:xlink="http://www.w3.org/1999/xlink" width="128" height="128" viewBox="0 0 128 128"><defs><linearGradient id="a"><stop offset="0" stop-color="#191579"/><stop offset="1" stop-color="#5989e3"/></linearGradient><linearGradient xlink:href="#a" id="c" x1="126.5" y1="1051.166" x2=".929" y2="925.594" gradientUnits="userSpaceOnUse"/><radialGradient xlink:href="#b" id="d" cx="64" cy="988.362" fx="64" fy="988.362" r="63" gradientTransform="matrix(.46 0 0 .46 13.055 512.49)" gradientUnits="userSpaceOnUse"/><linearGradient id="b"><stop offset="0" stop-color="#0c7e1b"/><stop offset="1" stop-color="#30b241"/></linearGradient></defs><path d="M122.307 98.333l-38.023-30.881c-1.37-1.029-2.055-3.088-1.028-4.804 7.536-16.127 4.796-35.685-8.564-49.067-17.813-17.843-47.957-16.813-64.4 3.774-12.332 15.441-12.332 37.744-.343 53.528 13.017 16.47 34.94 20.588 52.411 12.353 1.713-.686 3.426-.343 4.796 1.029l30.83 38.087c4.796 5.833 13.36 6.176 18.498 1.029l7.194-7.206c4.796-4.461 4.453-13.039-1.37-17.843zm-55.151-30.538c-12.674 12.696-33.57 12.696-46.587 0-12.674-12.696-12.674-33.626 0-46.665 12.674-13.039 33.57-12.696 46.587 0 13.017 13.039 13.017 33.97 0 46.665z" fill="url(#c)"/><path d="M65.141 66.356v-37.225h-12.408v13.442q0 1.293-.905 2.197-.905.905-2.197.905h-13.442v20.68h28.952zm-30.891-25.98l10.211-10.211v-13.442h-12.408v13.442q0 1.293-.905 2.197-.905.905-2.197.905h-13.442v20.68h16.544v-8.272q0-1.293.646-2.844t1.551-2.456zm-6.333-20.907l-9.662 9.662h9.662v-9.662zm20.68 12.408l-9.662 9.662h9.662v-9.662zm17.578-6.883q1.293 0 2.197.905.905.905.905 2.197v39.293q0 1.293-.905 2.197-.905.905-2.197.905h-31.021q-1.293 0-2.197-.905-.905-.905-.905-2.197v-9.306h-17.578q-1.293 0-2.197-.905-.905-.905-.905-2.197v-21.714q0-1.293.646-2.844t1.551-2.456l13.184-13.184q.905-.905 2.456-1.551 1.551-.646 2.844-.646h13.442q1.293 0 2.197.905.905.905.905 2.197v10.599q2.197-1.293 4.136-1.293h13.442z" fill="url(#d)"/><path d="M27.916 19.469l-9.662 9.662h9.662zm16.544 10.696v-13.442h-12.408c-.009 4.586.019 9.174-.014 13.759-.115 1.871-2.038 3.05-3.793 2.785h-12.737v20.68h16.544v4.136c-5.965-.009-11.931.019-17.895-.014-1.871-.115-3.05-2.038-2.785-3.793.007-7.112-.013-14.224.01-21.336.156-2.488 1.619-4.615 3.434-6.219 4.152-4.115 8.233-8.307 12.429-12.373 1.884-1.53 4.339-1.895 6.688-1.761 4.06.036 8.128-.073 12.183.057 1.799.296 2.716 2.188 2.48 3.868v9.776s-7.679 7.134-4.136 3.878z" fill="#2149c1"/></svg>