<?xml version="1.0" encoding="UTF-8" standalone="no"?>
<!-- Created with Inkscape (http://www.inkscape.org/) -->

<svg
   xmlns:dc="http://purl.org/dc/elements/1.1/"
   xmlns:cc="http://creativecommons.org/ns#"
   xmlns:rdf="http://www.w3.org/1999/02/22-rdf-syntax-ns#"
   xmlns:svg="http://www.w3.org/2000/svg"
   xmlns="http://www.w3.org/2000/svg"
   xmlns:xlink="http://www.w3.org/1999/xlink"
   xmlns:sodipodi="http://sodipodi.sourceforge.net/DTD/sodipodi-0.dtd"
   xmlns:inkscape="http://www.inkscape.org/namespaces/inkscape"
   width="128"
   height="128"
   viewBox="0 0 128 128"
   id="svg2"
   version="1.1"
   inkscape:version="0.92.4 5da689c313, 2019-01-14"
   sodipodi:docname="search_add_saved.svg">
  <defs
     id="defs4">
    <linearGradient
       inkscape:collect="always"
       id="linearGradient4136">
      <stop
         style="stop-color:#0b59bd;stop-opacity:1"
         offset="0"
         id="stop4138" />
      <stop
         style="stop-color:#b2cffa;stop-opacity:1"
         offset="1"
         id="stop4140" />
    </linearGradient>
    <linearGradient
       inkscape:collect="always"
       xlink:href="#linearGradient4136"
       id="linearGradient4142"
       x1="126.50002"
       y1="1051.1658"
       x2="0.9285714"
       y2="925.5943"
       gradientUnits="userSpaceOnUse" />
    <radialGradient
       inkscape:collect="always"
       xlink:href="#linearGradient4142-3"
       id="radialGradient4148"
       cx="64"
       cy="999.36212"
       fx="64"
       fy="999.36212"
       r="29"
       gradientTransform="matrix(0.98399015,0,0,0.98399223,-18.868227,-15.109516)"
       gradientUnits="userSpaceOnUse" />
    <linearGradient
       inkscape:collect="always"
       id="linearGradient4142-3">
      <stop
         style="stop-color:#34ae3d;stop-opacity:1;"
         offset="0"
         id="stop4144" />
      <stop
         style="stop-color:#26822e;stop-opacity:1"
         offset="1"
         id="stop4146" />
    </linearGradient>
  </defs>
  <sodipodi:namedview
     id="base"
     pagecolor="#ffffff"
     bordercolor="#666666"
     borderopacity="1.0"
     inkscape:pageopacity="0.0"
     inkscape:pageshadow="2"
     inkscape:zoom="5.6"
     inkscape:cx="7.7410719"
     inkscape:cy="69.707741"
     inkscape:document-units="px"
     inkscape:current-layer="layer1"
     showgrid="false"
     units="px"
     inkscape:window-width="2560"
     inkscape:window-height="1400"
     inkscape:window-x="0"
     inkscape:window-y="40"
     inkscape:window-maximized="0" />
  <metadata
     id="metadata7">
    <rdf:RDF>
      <cc:Work
         rdf:about="">
        <dc:format>image/svg+xml</dc:format>
        <dc:type
           rdf:resource="http://purl.org/dc/dcmitype/StillImage" />
        <dc:title />
        <dc:creator>
          <cc:Agent>
            <dc:title>Kovid Goyal</dc:title>
          </cc:Agent>
        </dc:creator>
        <dc:rights>
          <cc:Agent>
            <dc:title />
          </cc:Agent>
        </dc:rights>
        <dc:publisher>
          <cc:Agent>
            <dc:title />
          </cc:Agent>
        </dc:publisher>
        <cc:license
           rdf:resource="http://creativecommons.org/licenses/by-sa/3.0/" />
      </cc:Work>
      <cc:License
         rdf:about="http://creativecommons.org/licenses/by-sa/3.0/">
        <cc:permits
           rdf:resource="http://creativecommons.org/ns#Reproduction" />
        <cc:permits
           rdf:resource="http://creativecommons.org/ns#Distribution" />
        <cc:requires
           rdf:resource="http://creativecommons.org/ns#Notice" />
        <cc:requires
           rdf:resource="http://creativecommons.org/ns#Attribution" />
        <cc:permits
           rdf:resource="http://creativecommons.org/ns#DerivativeWorks" />
        <cc:requires
           rdf:resource="http://creativecommons.org/ns#ShareAlike" />
      </cc:License>
    </rdf:RDF>
  </metadata>
  <g
     inkscape:label="Layer 1"
     inkscape:groupmode="layer"
     id="layer1"
     transform="translate(0,-924.36216)">
    <path
       inkscape:connector-curvature="0"
       d="M 122.3068,1022.695 84.283489,991.81358 c -1.3702,-1.02937 -2.05531,-3.08813 -1.02765,-4.80378 7.53615,-16.12698 4.79573,-35.68523 -8.56381,-49.06719 -17.81272,-17.8426 -47.95733,-16.81324 -64.399844,3.77442 -12.3318854,15.44072 -12.3318854,37.74396 -0.3425504,53.52782 13.0169874,16.47005 34.9403344,20.58765 52.4105044,12.35255 1.71277,-0.6862 3.42553,-0.3431 4.79574,1.0294 l 30.82971,38.0871 c 4.795731,5.8331 13.359541,6.1763 18.497831,1.0294 l 7.1936,-7.2057 c 4.79573,-4.4606 4.45317,-13.0388 -1.37022,-17.8426 z M 67.155879,992.15673 c -12.67444,12.69567 -33.570133,12.69567 -46.587123,0 -12.6744374,-12.69574 -12.6744374,-33.62647 0,-46.66532 12.674438,-13.03881 33.570133,-12.69569 46.587123,0 13.01699,13.03885 13.01699,33.96958 0,46.66532 z"
       id="path6"
       style="fill:url(#linearGradient4142);fill-opacity:1" />
    <path
       inkscape:connector-curvature="0"
       d="m 72.642857,964.36373 0,7.78248 q 0,1.62151 -1.134942,2.75614 -1.134938,1.13505 -2.756288,1.13505 l -16.862016,0 0,16.86225 q 0,1.62114 -1.134938,2.75605 -1.134947,1.13504 -2.756292,1.13504 l -7.782467,0 q -1.621354,0 -2.756293,-1.13504 -1.134945,-1.13491 -1.134945,-2.75605 l 0,-16.86225 -16.862009,0 q -1.621346,0 -2.756289,-1.13505 -1.13495,-1.13463 -1.13495,-2.75614 l 0,-7.78248 q 0,-1.62131 1.13495,-2.75625 1.134943,-1.13504 2.756289,-1.13504 l 16.862009,0 0,-16.86202 q 0,-1.62133 1.134945,-2.75628 1.134939,-1.13495 2.756293,-1.13495 l 7.782467,0 q 1.621345,0 2.756292,1.13495 1.134938,1.13495 1.134938,2.75628 l 0,16.86202 16.862016,0 q 1.62135,0 2.756288,1.13504 1.134942,1.13494 1.134942,2.75625 z"
       id="path4-3"
       style="fill:url(#radialGradient4148);fill-opacity:1" />
  </g>
</svg>
