<svg xmlns="http://www.w3.org/2000/svg" xmlns:xlink="http://www.w3.org/1999/xlink" width="128" height="128" viewBox="0 0 128 128"><defs><linearGradient id="a"><stop offset="0" stop-color="#191579"/><stop offset="1" stop-color="#5989e3"/></linearGradient><linearGradient xlink:href="#a" id="c" x1="126.5" y1="1051.166" x2=".929" y2="925.594" gradientUnits="userSpaceOnUse"/><radialGradient xlink:href="#b" id="d" cx="64" cy="999.362" fx="64" fy="999.362" r="29" gradientTransform="matrix(.984 0 0 .984 -18.868 -15.11)" gradientUnits="userSpaceOnUse"/><linearGradient id="b"><stop offset="0" stop-color="#34ae3d"/><stop offset="1" stop-color="#26822e"/></linearGradient></defs><path d="M122.307 98.333l-38.023-30.881c-1.37-1.029-2.055-3.088-1.028-4.804 7.536-16.127 4.796-35.685-8.564-49.067-17.813-17.843-47.957-16.813-64.4 3.774-12.332 15.441-12.332 37.744-.343 53.528 13.017 16.47 34.94 20.588 52.411 12.353 1.713-.686 3.426-.343 4.796 1.029l30.83 38.087c4.796 5.833 13.36 6.176 18.498 1.029l7.194-7.206c4.796-4.461 4.453-13.039-1.37-17.843zm-55.151-30.538c-12.674 12.696-33.57 12.696-46.587 0-12.674-12.696-12.674-33.626 0-46.665 12.674-13.039 33.57-12.696 46.587 0 13.017 13.039 13.017 33.97 0 46.665z" fill="url(#c)"/><path d="M72.643 40.002v7.782q0 1.622-1.135 2.756-1.135 1.135-2.756 1.135h-16.862v16.862q0 1.621-1.135 2.756-1.135 1.135-2.756 1.135h-7.782q-1.621 0-2.756-1.135-1.135-1.135-1.135-2.756v-16.862h-16.862q-1.621 0-2.756-1.135-1.135-1.135-1.135-2.756v-7.782q0-1.621 1.135-2.756 1.135-1.135 2.756-1.135h16.862v-16.862q0-1.621 1.135-2.756 1.135-1.135 2.756-1.135h7.782q1.621 0 2.756 1.135 1.135 1.135 1.135 2.756v16.862h16.862q1.621 0 2.756 1.135 1.135 1.135 1.135 2.756z" fill="url(#d)"/></svg>