<svg xmlns="http://www.w3.org/2000/svg" xmlns:svg="http://www.w3.org/2000/svg" xmlns:xlink="http://www.w3.org/1999/xlink" id="svg2" width="128" height="128" version="1.1" viewBox="0 0 128 128"><defs id="defs4"><linearGradient id="linearGradient4136"><stop style="stop-color:#0b59bd;stop-opacity:1" id="stop4138" offset="0"/><stop style="stop-color:#b2cffa;stop-opacity:1" id="stop4140" offset="1"/></linearGradient><linearGradient id="linearGradient4142" x1="126.5" x2=".929" y1="1051.166" y2="925.594" gradientUnits="userSpaceOnUse" xlink:href="#linearGradient4136"/><radialGradient id="radialGradient4145" cx="64" cy="988.362" r="63" fx="64" fy="988.362" gradientTransform="matrix(0.45956341,0,0,0.45956341,13.055023,512.49001)" gradientUnits="userSpaceOnUse" xlink:href="#linearGradient4139"/><linearGradient id="linearGradient4139"><stop style="stop-color:#0c7e1b;stop-opacity:1" id="stop4141" offset="0"/><stop style="stop-color:#30b241;stop-opacity:1" id="stop4143" offset="1"/></linearGradient></defs><metadata id="metadata7"/><g id="layer1" transform="translate(0,-924.36216)"><path id="path6" d="M 122.3068,1022.695 84.283489,991.81358 c -1.3702,-1.02937 -2.05531,-3.08813 -1.02765,-4.80378 7.53615,-16.12698 4.79573,-35.68523 -8.56381,-49.06719 -17.81272,-17.8426 -47.95733,-16.81324 -64.399844,3.77442 -12.3318854,15.44072 -12.3318854,37.74396 -0.3425504,53.52782 13.0169874,16.47005 34.9403344,20.58765 52.4105044,12.35255 1.71277,-0.6862 3.42553,-0.3431 4.79574,1.0294 l 30.82971,38.0871 c 4.795731,5.8331 13.359541,6.1763 18.497831,1.0294 l 7.1936,-7.2057 c 4.79573,-4.4606 4.45317,-13.0388 -1.37022,-17.8426 z M 67.155879,992.15673 c -12.67444,12.69567 -33.570133,12.69567 -46.587123,0 -12.6744374,-12.69574 -12.6744374,-33.62647 0,-46.66532 12.674438,-13.03881 33.570133,-12.69569 46.587123,0 13.01699,13.03885 13.01699,33.96958 0,46.66532 z" style="fill:url(#linearGradient4142);fill-opacity:1"/><g id="g4154" transform="translate(-2.1428571,-0.80357143)"><path style="fill:url(#radialGradient4145);fill-opacity:1" id="path4" d="m 67.283504,991.52167 0,-37.22465 -12.40821,0 0,13.44223 q 0,1.29253 -0.904766,2.19729 -0.904765,0.90477 -2.197287,0.90477 l -13.44223,0 0,20.68036 28.952493,0 z m -30.891276,-25.9797 10.210924,-10.21092 0,-13.44224 -12.408212,0 0,13.44224 q 0,1.29251 -0.904765,2.19728 -0.904766,0.90476 -2.197288,0.90476 l -13.44223,0 0,20.68037 16.544283,0 0,-8.27215 q 0,-1.29253 0.646261,-2.84355 0.646261,-1.55103 1.551027,-2.45579 z m -6.333359,-20.90655 -9.661603,9.6616 9.661603,0 0,-9.6616 z m 20.680354,12.40821 -9.661599,9.66161 9.661599,0 0,-9.66161 z m 17.578299,-6.88268 q 1.292522,0 2.197288,0.90477 0.904765,0.90476 0.904765,2.19729 l 0,39.29268 q 0,1.29252 -0.904765,2.19726 -0.904766,0.90479 -2.197288,0.90479 l -31.020529,0 q -1.292522,0 -2.197287,-0.90479 -0.904766,-0.90474 -0.904766,-2.19726 l 0,-9.30616 -17.5783,0 q -1.292522,0 -2.197288,-0.90479 -0.904765,-0.90474 -0.904765,-2.19727 l 0,-21.71438 q 0,-1.29251 0.646261,-2.84354 0.646261,-1.55103 1.551026,-2.4558 L 28.8956,939.95003 q 0.904765,-0.90477 2.455792,-1.55103 1.551026,-0.64626 2.843548,-0.64626 l 13.44223,0 q 1.292522,0 2.197288,0.90477 0.904765,0.90476 0.904765,2.19729 l 0,10.59868 q 2.197288,-1.29253 4.136071,-1.29253 l 13.442228,0 z"/><path id="path4195" d="m 30.058869,944.63542 -9.661603,9.6616 9.661603,0 z m 16.544283,10.69563 0,-13.44224 -12.408212,0 c -0.0094,4.58633 0.0188,9.1735 -0.01414,13.75931 -0.115007,1.8711 -2.03825,3.05045 -3.793332,2.78497 l -12.736814,0 0,20.68037 16.544283,0 0,4.13607 c -5.96502,-0.009 -11.930877,0.0188 -17.895372,-0.0142 -1.871086,-0.11494 -3.050461,-2.03812 -2.784981,-3.79323 0.0067,-7.11197 -0.01342,-14.22439 0.0101,-21.33612 0.15636,-2.48813 1.618739,-4.61509 3.4342,-6.21919 4.151721,-4.11508 8.232595,-8.30656 12.429489,-12.37294 1.884415,-1.52969 4.338599,-1.89487 6.687675,-1.76106 4.060048,0.0361 8.128487,-0.0733 12.183148,0.0566 1.798616,0.29636 2.715851,2.18829 2.480027,3.86849 l 0,9.7757 c 0,0 -7.678506,7.13407 -4.136072,3.87757 z" style="fill:#2149c1;fill-opacity:1"/></g></g></svg>