<svg xmlns="http://www.w3.org/2000/svg" xmlns:xlink="http://www.w3.org/1999/xlink" width="128" height="128" viewBox="0 0 128 128"><defs><linearGradient id="a"><stop offset="0" stop-color="#191579"/><stop offset="1" stop-color="#5989e3"/></linearGradient><linearGradient xlink:href="#a" id="b" x1="126.5" y1="1051.166" x2=".929" y2="925.594" gradientUnits="userSpaceOnUse"/><filter id="c" color-interpolation-filters="sRGB"><feFlood flood-opacity=".498" flood-color="#000" result="flood"/><feComposite in="flood" in2="SourceGraphic" operator="out" result="composite1"/><feGaussianBlur in="composite1" stdDeviation="8" result="blur"/><feOffset dx="1" dy="1" result="offset"/><feComposite in="offset" in2="SourceGraphic" operator="atop" result="composite2"/></filter></defs><g transform="translate(0 -924.362)"><path d="M122.307 1022.695l-38.023-30.881c-1.37-1.029-2.055-3.088-1.028-4.804 7.536-16.127 4.796-35.685-8.564-49.067-17.813-17.843-47.957-16.813-64.4 3.774-12.332 15.441-12.332 37.744-.343 53.528 13.017 16.47 34.94 20.588 52.411 12.353 1.713-.686 3.426-.343 4.796 1.029l30.83 38.087c4.796 5.833 13.36 6.176 18.498 1.029l7.194-7.206c4.796-4.461 4.453-13.039-1.37-17.843zm-55.151-30.538c-12.674 12.696-33.57 12.696-46.587 0-12.674-12.696-12.674-33.626 0-46.665 12.674-13.039 33.57-12.696 46.587 0 13.017 13.039 13.017 33.97 0 46.665z" fill="url(#b)"/><rect width="110.357" height="24.464" x="10.804" y="934.862" rx="5.5" ry="5.5" transform="matrix(.58 0 0 .616 5.555 384.817)" fill="#d30101" fill-rule="evenodd" filter="url(#c)"/></g></svg>