<svg xmlns="http://www.w3.org/2000/svg" xmlns:svg="http://www.w3.org/2000/svg" id="svg2" width="128" height="128" version="1.1" viewBox="0 0 128 128"><metadata id="metadata7"/><g id="layer1" transform="translate(0,-924.36216)"><path style="fill:#f0983c;fill-opacity:1;fill-rule:evenodd;stroke:#000;stroke-width:0;stroke-linecap:butt;stroke-linejoin:round;stroke-miterlimit:4;stroke-dasharray:none;stroke-opacity:1" id="path4221" d="m 16.582008,1046.8836 0,-107.68789 c 0.268678,-7.88583 2.821127,-11.47031 7.254326,-11.67513 l 83.521626,-0.15807 c 2.76636,-0.0342 3.22403,2.60341 3.22403,5.26085 L 110.405,1042.9681 c 0.20067,4.0092 -3.08981,3.9942 -3.08981,3.9942 l -6.90542,0.1083 c -0.18732,4.2167 -0.26937,4.387 -3.224141,4.2676 l -76.439105,0 c -3.907185,0 -4.164519,0.1998 -4.164519,-4.455 z"/><path style="fill:#fff;fill-opacity:1;fill-rule:evenodd;stroke:#000;stroke-width:0;stroke-linecap:round;stroke-linejoin:round;stroke-miterlimit:4;stroke-dasharray:none;stroke-opacity:1" id="path4258" d="m 22.29891,937.54569 73.639178,0 c 5.750212,0.0985 5.128952,2.68325 5.171952,9.6779 l 0.18187,94.28241 c 1.82365,0.1448 4.62079,-1.8836 4.58597,-5.1073 l -0.18187,-96.83984 c 0.15109,-6.45263 -1.3372,-6.45263 -4.30125,-6.71744 l -75.30503,0 c -2.867481,-0.1804 -3.639719,0.84201 -3.790797,4.70427 z"/><path id="path4" d="m 88,993.52991 v 5.9091 c 0,1.09849 -0.384472,2.03229 -1.153415,2.80099 -0.768933,0.769 -1.702642,1.1535 -2.801125,1.1535 H 33.95455 c -1.098483,0 -2.032195,-0.3845 -2.801135,-1.1535 C 30.384472,1001.4713 30,1000.5375 30,999.43901 v -5.9091 c 0,-1.0985 0.384472,-2.0322 1.153415,-2.8011 0.76894,-0.769 1.702652,-1.1535 2.801135,-1.1535 h 50.09091 c 1.098483,0 2.032192,0.3845 2.801125,1.1535 0.768943,0.7689 1.153415,1.7026 1.153415,2.8011 z" style="fill:#80511f;fill-opacity:1"/><rect style="fill:#80511f;fill-opacity:1;fill-rule:evenodd;stroke:none;stroke-width:0;stroke-linecap:round;stroke-linejoin:round;stroke-miterlimit:4;stroke-dasharray:none;stroke-opacity:1" id="rect4139" width="51.482" height="6" x="33.259" y="951.362" ry=".9"/><path style="fill:#80511f;fill-opacity:1" id="path30" d="m 88,1017.3504 v 5.9091 c 0,1.0986 -0.384472,2.0324 -1.153415,2.8011 -0.768933,0.769 -1.702642,1.1535 -2.801125,1.1535 H 33.95455 c -1.098483,0 -2.032195,-0.3845 -2.801135,-1.1535 C 30.384472,1025.2919 30,1024.3581 30,1023.2595 v -5.9091 c 0,-1.0985 0.384472,-2.0322 1.153415,-2.8011 0.76894,-0.769 1.702652,-1.1535 2.801135,-1.1535 h 50.09091 c 1.098483,0 2.032192,0.3845 2.801125,1.1535 0.768943,0.7689 1.153415,1.7026 1.153415,2.8011 z"/></g></svg>