<svg xmlns="http://www.w3.org/2000/svg" width="128" height="128" viewBox="0 0 128 128"><path d="M59.154 25.231v53.308q0 7.875-3.067 15.031-3.067 7.156-8.291 12.38-5.225 5.225-12.38 8.291-7.156 3.067-15.031 3.067h-4.846q-1.969 0-3.407-1.439-1.439-1.439-1.439-3.408v-9.692q0-1.969 1.439-3.407 1.439-1.439 3.407-1.439h4.846q8.026 0 13.706-5.679 5.679-5.679 5.679-13.706v-2.423q0-3.029-2.12-5.149t-5.149-2.12h-16.962q-6.058 0-10.298-4.24t-4.24-10.298v-29.077q0-6.058 4.24-10.298t10.298-4.24h29.077q6.058 0 10.298 4.24t4.24 10.298zm67.846 0v53.308q0 7.875-3.067 15.031-3.067 7.156-8.291 12.38-5.225 5.225-12.38 8.291-7.156 3.067-15.031 3.067h-4.846q-1.969 0-3.407-1.439-1.439-1.439-1.439-3.408v-9.692q0-1.969 1.439-3.407 1.439-1.439 3.407-1.439h4.846q8.026 0 13.706-5.679 5.679-5.679 5.679-13.706v-2.423q0-3.029-2.12-5.149t-5.149-2.12h-16.962q-6.058 0-10.298-4.24t-4.24-10.298v-29.077q0-6.058 4.24-10.298t10.298-4.24h29.077q6.058 0 10.298 4.24t4.24 10.298z"/></svg>