<?xml version="1.0" encoding="UTF-8" standalone="no"?>
<!-- Created with Inkscape (http://www.inkscape.org/) -->

<svg
   xmlns:dc="http://purl.org/dc/elements/1.1/"
   xmlns:cc="http://creativecommons.org/ns#"
   xmlns:rdf="http://www.w3.org/1999/02/22-rdf-syntax-ns#"
   xmlns:svg="http://www.w3.org/2000/svg"
   xmlns="http://www.w3.org/2000/svg"
   xmlns:sodipodi="http://sodipodi.sourceforge.net/DTD/sodipodi-0.dtd"
   xmlns:inkscape="http://www.inkscape.org/namespaces/inkscape"
   width="128"
   height="128"
   viewBox="0 0 128 128"
   id="svg2"
   version="1.1"
   inkscape:version="0.92.4 5da689c313, 2019-01-14"
   sodipodi:docname="smarten-punctuation.svg">
  <defs
     id="defs4" />
  <sodipodi:namedview
     id="base"
     pagecolor="#ffffff"
     bordercolor="#666666"
     borderopacity="1.0"
     inkscape:pageopacity="0.0"
     inkscape:pageshadow="2"
     inkscape:zoom="7.919596"
     inkscape:cx="19.843024"
     inkscape:cy="69.707741"
     inkscape:document-units="px"
     inkscape:current-layer="layer1"
     showgrid="false"
     units="px"
     inkscape:window-width="2560"
     inkscape:window-height="1400"
     inkscape:window-x="0"
     inkscape:window-y="40"
     inkscape:window-maximized="0" />
  <metadata
     id="metadata7">
    <rdf:RDF>
      <cc:Work
         rdf:about="">
        <dc:format>image/svg+xml</dc:format>
        <dc:type
           rdf:resource="http://purl.org/dc/dcmitype/StillImage" />
        <dc:title />
        <dc:creator>
          <cc:Agent>
            <dc:title>Kovid Goyal</dc:title>
          </cc:Agent>
        </dc:creator>
        <dc:rights>
          <cc:Agent>
            <dc:title />
          </cc:Agent>
        </dc:rights>
        <dc:publisher>
          <cc:Agent>
            <dc:title />
          </cc:Agent>
        </dc:publisher>
        <cc:license
           rdf:resource="http://creativecommons.org/licenses/by-sa/3.0/" />
      </cc:Work>
      <cc:License
         rdf:about="http://creativecommons.org/licenses/by-sa/3.0/">
        <cc:permits
           rdf:resource="http://creativecommons.org/ns#Reproduction" />
        <cc:permits
           rdf:resource="http://creativecommons.org/ns#Distribution" />
        <cc:requires
           rdf:resource="http://creativecommons.org/ns#Notice" />
        <cc:requires
           rdf:resource="http://creativecommons.org/ns#Attribution" />
        <cc:permits
           rdf:resource="http://creativecommons.org/ns#DerivativeWorks" />
        <cc:requires
           rdf:resource="http://creativecommons.org/ns#ShareAlike" />
      </cc:License>
    </rdf:RDF>
  </metadata>
  <g
     inkscape:label="Layer 1"
     inkscape:groupmode="layer"
     id="layer1"
     transform="translate(0,-924.36216)">
    <path
       inkscape:connector-curvature="0"
       d="m 59.15385,949.59296 0,53.30774 q 0,7.875 -3.06671,15.0306 -3.06671,7.1557 -8.29147,12.3804 -5.22476,5.2248 -12.38041,8.2915 -7.15564,3.0667 -15.03064,3.0667 l -4.84616,0 q -1.96875,0 -3.40745,-1.4387 -1.4387,-1.4387 -1.4387,-3.4075 l 0,-9.6923 q 0,-1.9687 1.4387,-3.4074 1.4387,-1.4387 3.40745,-1.4387 l 4.84616,0 q 8.02644,0 13.70552,-5.6791 5.67909,-5.6791 5.67909,-13.7055 l 0,-2.4231 q 0,-3.02894 -2.12019,-5.14904 -2.12019,-2.1202 -5.14904,-2.1202 l -16.96154,0 q -6.05769,0 -10.29808,-4.2404 Q 1,984.72756 1,978.66986 l 0,-29.0769 q 0,-6.0577 4.24038,-10.2981 4.24039,-4.2404 10.29808,-4.2404 l 29.07692,0 q 6.0577,0 10.29808,4.2404 4.24039,4.2404 4.24039,10.2981 z m 67.84615,0 0,53.30774 q 0,7.875 -3.06671,15.0306 -3.0667,7.1557 -8.29146,12.3804 -5.22476,5.2248 -12.38041,8.2915 -7.15565,3.0667 -15.03065,3.0667 l -4.84615,0 q -1.96875,0 -3.40746,-1.4387 -1.4387,-1.4387 -1.4387,-3.4075 l 0,-9.6923 q 0,-1.9687 1.4387,-3.4074 1.43871,-1.4387 3.40746,-1.4387 l 4.84615,0 q 8.02644,0 13.70553,-5.6791 5.67908,-5.6791 5.67908,-13.7055 l 0,-2.4231 q 0,-3.02894 -2.12019,-5.14904 -2.12019,-2.1202 -5.14904,-2.1202 l -16.96153,0 q -6.0577,0 -10.29808,-4.2404 -4.24039,-4.2404 -4.24039,-10.2981 l 0,-29.0769 q 0,-6.0577 4.24039,-10.2981 4.24038,-4.2404 10.29808,-4.2404 l 29.07692,0 q 6.05769,0 10.29808,4.2404 Q 127,943.53526 127,949.59296 Z"
       id="path4"
       style="fill:#2271d5;fill-opacity:1" />
  </g>
</svg>
