<svg xmlns="http://www.w3.org/2000/svg" xmlns:xlink="http://www.w3.org/1999/xlink" width="128" height="128" viewBox="0 0 128 128"><defs><linearGradient id="a"><stop offset="0" stop-color="#05244d"/><stop offset="1" stop-color="#116def"/></linearGradient><linearGradient xlink:href="#a" id="b" x1="42.988" y1="1051.398" x2="42.988" y2="925.515" gradientUnits="userSpaceOnUse"/></defs><path d="M56.258 102.25q0 .844-.703 1.688l-22.43 22.43q-.703.633-1.617.633-.844 0-1.617-.633l-22.5-22.5q-1.055-1.125-.492-2.461.563-1.406 2.109-1.406h13.5v-96.75q0-.984.633-1.617t1.617-.633h13.5q.984 0 1.617.633t.633 1.617v96.75h13.5q.984 0 1.617.633t.633 1.617z" fill="url(#b)"/><path d="M115.039 110.617v16.383h-41.062v-6.328l25.945-37.195q.844-1.266 1.477-1.899l.773-.633v-.211l-.457.035q-.316.035-.527.035-.844.211-2.109.211h-16.313v8.086h-8.438v-16.102h39.867v6.258l-25.945 37.266q-.422.563-1.477 1.828l-.773.773v.141l.984-.141q.633-.141 2.109-.141h17.438v-8.367h8.508z" fill="#05244d"/><path d="M121.297 47.547v7.453h-20.25v-7.453h5.273l-3.305-10.125h-17.086l-3.305 10.125h5.273v7.453h-20.18v-7.453h4.922l16.172-46.547h11.391l16.172 46.547h4.922zm-33.047-17.859h12.445l-5.063-15.328-.844-3.305q-.141-1.125-.141-1.406h-.281l-.211 1.406q0 .07-.246 1.266-.246 1.195-.527 2.039z" fill="#116def"/></svg>