<?xml version="1.0" encoding="UTF-8" standalone="no"?>
<!-- Created with Inkscape (http://www.inkscape.org/) -->

<svg
   xmlns:dc="http://purl.org/dc/elements/1.1/"
   xmlns:cc="http://creativecommons.org/ns#"
   xmlns:rdf="http://www.w3.org/1999/02/22-rdf-syntax-ns#"
   xmlns:svg="http://www.w3.org/2000/svg"
   xmlns="http://www.w3.org/2000/svg"
   xmlns:xlink="http://www.w3.org/1999/xlink"
   xmlns:sodipodi="http://sodipodi.sourceforge.net/DTD/sodipodi-0.dtd"
   xmlns:inkscape="http://www.inkscape.org/namespaces/inkscape"
   width="128"
   height="128"
   viewBox="0 0 128 128"
   id="svg2"
   version="1.1"
   inkscape:version="0.92.4 5da689c313, 2019-01-14"
   sodipodi:docname="sort.svg">
  <defs
     id="defs4">
    <linearGradient
       inkscape:collect="always"
       id="linearGradient4148">
      <stop
         style="stop-color:#0b59bd;stop-opacity:1"
         offset="0"
         id="stop4150" />
      <stop
         style="stop-color:#b2cffa;stop-opacity:1"
         offset="1"
         id="stop4152" />
    </linearGradient>
    <linearGradient
       inkscape:collect="always"
       xlink:href="#linearGradient4148"
       id="linearGradient4154"
       x1="42.987709"
       y1="1051.3979"
       x2="42.987709"
       y2="925.51514"
       gradientUnits="userSpaceOnUse" />
  </defs>
  <sodipodi:namedview
     id="base"
     pagecolor="#ffffff"
     bordercolor="#666666"
     borderopacity="1.0"
     inkscape:pageopacity="0.0"
     inkscape:pageshadow="2"
     inkscape:zoom="7.919596"
     inkscape:cx="50.1476"
     inkscape:cy="69.707741"
     inkscape:document-units="px"
     inkscape:current-layer="layer1"
     showgrid="false"
     units="px"
     inkscape:window-width="2560"
     inkscape:window-height="1400"
     inkscape:window-x="0"
     inkscape:window-y="40"
     inkscape:window-maximized="0" />
  <metadata
     id="metadata7">
    <rdf:RDF>
      <cc:Work
         rdf:about="">
        <dc:format>image/svg+xml</dc:format>
        <dc:type
           rdf:resource="http://purl.org/dc/dcmitype/StillImage" />
        <dc:title />
        <dc:creator>
          <cc:Agent>
            <dc:title>Kovid Goyal</dc:title>
          </cc:Agent>
        </dc:creator>
        <dc:rights>
          <cc:Agent>
            <dc:title />
          </cc:Agent>
        </dc:rights>
        <dc:publisher>
          <cc:Agent>
            <dc:title />
          </cc:Agent>
        </dc:publisher>
        <cc:license
           rdf:resource="http://creativecommons.org/licenses/by-sa/3.0/" />
      </cc:Work>
      <cc:License
         rdf:about="http://creativecommons.org/licenses/by-sa/3.0/">
        <cc:permits
           rdf:resource="http://creativecommons.org/ns#Reproduction" />
        <cc:permits
           rdf:resource="http://creativecommons.org/ns#Distribution" />
        <cc:requires
           rdf:resource="http://creativecommons.org/ns#Notice" />
        <cc:requires
           rdf:resource="http://creativecommons.org/ns#Attribution" />
        <cc:permits
           rdf:resource="http://creativecommons.org/ns#DerivativeWorks" />
        <cc:requires
           rdf:resource="http://creativecommons.org/ns#ShareAlike" />
      </cc:License>
    </rdf:RDF>
  </metadata>
  <g
     inkscape:label="Layer 1"
     inkscape:groupmode="layer"
     id="layer1"
     transform="translate(0,-924.36216)">
    <path
       d="m 56.257986,1026.6122 q 0,0.8438 -0.70313,1.6875 l -22.42968,22.4297 q -0.70313,0.6328 -1.61719,0.6328 -0.84375,0 -1.61719,-0.6328 l -22.5000001,-22.5 q -1.05469,-1.125 -0.49219,-2.4609 0.5625,-1.4063 2.10938,-1.4063 l 13.5000001,0 0,-96.75004 q 0,-0.9844 0.63281,-1.6172 0.63281,-0.6328 1.61719,-0.6328 l 13.5,0 q 0.98437,0 1.61718,0.6328 0.63282,0.6328 0.63282,1.6172 l 0,96.75004 13.5,0 q 0.98437,0 1.61718,0.6328 0.63282,0.6328 0.63282,1.6172 z"
       id="path4143"
       style="fill-opacity:1;fill:url(#linearGradient4154)" />
    <path
       d="m 115.03923,1034.9794 0,16.3828 -41.062494,0 0,-6.3281 25.94531,-37.1953 q 0.843754,-1.2657 1.476564,-1.8985 l 0.77344,-0.6328 0,-0.2109 q -0.14063,0 -0.45703,0.035 -0.31641,0.035 -0.52735,0.035 -0.84375,0.2109 -2.109374,0.2109 l -16.3125,0 0,8.086 -8.4375,0 0,-16.10164 39.867184,0 0,6.25784 -25.945314,37.2656 q -0.42187,0.5625 -1.47656,1.8282 l -0.77344,0.7734 0,0.1406 0.98438,-0.1406 q 0.63281,-0.1406 2.10937,-0.1406 l 17.437504,0 0,-8.3672 8.50781,0 z"
       id="path4141"
       style="fill:#0b59bd;fill-opacity:1" />
    <path
       id="path4"
       d="m 121.29705,971.90906 0,7.4531 -20.25,0 0,-7.4531 5.27343,0 -3.30468,-10.125 -17.085944,0 -3.30469,10.125 5.27344,0 0,7.4531 -20.17969,0 0,-7.4531 4.92188,0 16.17187,-46.5469 11.390634,0 16.17187,46.5469 4.92188,0 z m -33.046884,-17.8594 12.445314,0 -5.062504,-15.3281 -0.84375,-3.3047 q -0.14062,-1.125 -0.14062,-1.4063 l -0.28125,0 -0.21094,1.4063 q 0,0.07 -0.24609,1.2656 -0.2461,1.1953 -0.52735,2.0391 z"
       style="fill:#2caf45;fill-opacity:1" />
  </g>
</svg>
