<svg xmlns="http://www.w3.org/2000/svg" xmlns:svg="http://www.w3.org/2000/svg" xmlns:xlink="http://www.w3.org/1999/xlink" id="svg2" width="128" height="128" version="1.1" viewBox="0 0 128 128"><defs id="defs4"><linearGradient id="linearGradient4148"><stop style="stop-color:#0b59bd;stop-opacity:1" id="stop4150" offset="0"/><stop style="stop-color:#b2cffa;stop-opacity:1" id="stop4152" offset="1"/></linearGradient><linearGradient id="linearGradient4154" x1="42.988" x2="42.988" y1="1051.398" y2="925.515" gradientUnits="userSpaceOnUse" xlink:href="#linearGradient4148"/></defs><metadata id="metadata7"/><g id="layer1" transform="translate(0,-924.36216)"><path id="path4143" d="m 56.257986,1026.6122 q 0,0.8438 -0.70313,1.6875 l -22.42968,22.4297 q -0.70313,0.6328 -1.61719,0.6328 -0.84375,0 -1.61719,-0.6328 l -22.5000001,-22.5 q -1.05469,-1.125 -0.49219,-2.4609 0.5625,-1.4063 2.10938,-1.4063 l 13.5000001,0 0,-96.75004 q 0,-0.9844 0.63281,-1.6172 0.63281,-0.6328 1.61719,-0.6328 l 13.5,0 q 0.98437,0 1.61718,0.6328 0.63282,0.6328 0.63282,1.6172 l 0,96.75004 13.5,0 q 0.98437,0 1.61718,0.6328 0.63282,0.6328 0.63282,1.6172 z" style="fill-opacity:1;fill:url(#linearGradient4154)"/><path id="path4141" d="m 115.03923,1034.9794 0,16.3828 -41.062494,0 0,-6.3281 25.94531,-37.1953 q 0.843754,-1.2657 1.476564,-1.8985 l 0.77344,-0.6328 0,-0.2109 q -0.14063,0 -0.45703,0.035 -0.31641,0.035 -0.52735,0.035 -0.84375,0.2109 -2.109374,0.2109 l -16.3125,0 0,8.086 -8.4375,0 0,-16.10164 39.867184,0 0,6.25784 -25.945314,37.2656 q -0.42187,0.5625 -1.47656,1.8282 l -0.77344,0.7734 0,0.1406 0.98438,-0.1406 q 0.63281,-0.1406 2.10937,-0.1406 l 17.437504,0 0,-8.3672 8.50781,0 z" style="fill:#0b59bd;fill-opacity:1"/><path id="path4" d="m 121.29705,971.90906 0,7.4531 -20.25,0 0,-7.4531 5.27343,0 -3.30468,-10.125 -17.085944,0 -3.30469,10.125 5.27344,0 0,7.4531 -20.17969,0 0,-7.4531 4.92188,0 16.17187,-46.5469 11.390634,0 16.17187,46.5469 4.92188,0 z m -33.046884,-17.8594 12.445314,0 -5.062504,-15.3281 -0.84375,-3.3047 q -0.14062,-1.125 -0.14062,-1.4063 l -0.28125,0 -0.21094,1.4063 q 0,0.07 -0.24609,1.2656 -0.2461,1.1953 -0.52735,2.0391 z" style="fill:#2caf45;fill-opacity:1"/></g></svg>