<svg xmlns="http://www.w3.org/2000/svg" xmlns:svg="http://www.w3.org/2000/svg" xmlns:xlink="http://www.w3.org/1999/xlink" id="svg2" width="128" height="128" version="1.1" viewBox="0 0 128 128"><defs id="defs4"><radialGradient id="radialGradient4149" cx="5.927" cy="10.062" r="6.564" fx="5.927" fy="10.062" gradientTransform="matrix(1.2466016,-0.00322623,0.00253959,0.98128485,-1.4871852,-0.34778497)" gradientUnits="userSpaceOnUse" xlink:href="#linearGradient4143"/><linearGradient id="linearGradient4143"><stop style="stop-color:#127c1b;stop-opacity:1" id="stop4145" offset="0"/><stop style="stop-color:#1ecb2c;stop-opacity:1" id="stop4147" offset="1"/></linearGradient><radialGradient id="radialGradient4152" cx="5.927" cy="10.062" r="6.564" fx="5.927" fy="10.062" gradientTransform="matrix(1.2466016,-0.00322623,0.00253959,0.98128485,-1.4871852,-0.34778497)" gradientUnits="userSpaceOnUse" xlink:href="#linearGradient4143"/><radialGradient id="radialGradient4160" cx="5.927" cy="10.062" r="6.564" fx="5.927" fy="10.062" gradientTransform="matrix(1.2466016,-0.00322623,0.00253959,0.98128485,-1.4871852,-0.34778497)" gradientUnits="userSpaceOnUse" xlink:href="#linearGradient4143"/><radialGradient id="radialGradient4171" cx="5.927" cy="10.062" r="6.564" fx="5.927" fy="10.062" gradientTransform="matrix(1.2466016,-0.00322623,0.00253959,0.98128485,-1.4871852,-0.34778497)" gradientUnits="userSpaceOnUse" xlink:href="#linearGradient4143"/><radialGradient id="radialGradient4173" cx="5.927" cy="10.062" r="6.564" fx="5.927" fy="10.062" gradientTransform="matrix(1.2466016,-0.00322623,0.00253959,0.98128485,-1.4871852,-0.34778497)" gradientUnits="userSpaceOnUse" xlink:href="#linearGradient4143"/></defs><metadata id="metadata7"/><g id="layer1" transform="translate(0,-924.36216)"><g style="font-style:normal;font-weight:400;font-size:50px;line-height:125%;font-family:Sans;letter-spacing:0;word-spacing:0;fill:#2271d5;fill-opacity:1;stroke:none;stroke-width:1px;stroke-linecap:butt;stroke-linejoin:miter;stroke-opacity:1" id="text4133" transform="matrix(1.1047817,0,0,1.1047817,-4.2747705,-72.186938)"><path id="path4138" d="m 41.557143,947.63 q -0.85,-2.25 -1.6,-4.4 -0.75,-2.2 -1.55,-4.45 l -15.7,0 -3.15,8.85 -5.05,0 q 2,-5.5 3.75,-10.15 1.75,-4.7 3.4,-8.9 1.7,-4.2 3.35,-8 1.65,-3.85 3.45,-7.6 l 4.45,0 q 1.8,3.75 3.45,7.6 1.65,3.8 3.3,8 1.7,4.2 3.45,8.9 1.75,4.65 3.75,10.15 l -5.3,0 z m -4.55,-12.85 q -1.6,-4.35 -3.2,-8.4 -1.55,-4.1 -3.25,-7.85 -1.75,3.75 -3.35,7.85 -1.55,4.05 -3.1,8.4 l 12.9,0 z" style="fill:#2271d5;fill-opacity:1"/><path id="path4140" d="m 60.862612,947.93 q -1.05,0 -2.3,-0.05 -1.2,-0.05 -2.45,-0.15 -1.2,-0.1 -2.4,-0.25 -1.2,-0.15 -2.2,-0.4 l 0,-33.6 q 1,-0.25 2.2,-0.4 1.2,-0.15 2.4,-0.25 1.25,-0.1 2.45,-0.15 1.2,-0.05 2.25,-0.05 3,0 5.6,0.45 2.65,0.45 4.55,1.55 1.95,1.05 3.05,2.8 1.1,1.75 1.1,4.3 0,2.85 -1.35,4.7 -1.35,1.8 -3.6,2.7 3.05,0.9 4.85,2.85 1.8,1.95 1.8,5.5 0,5.2 -3.85,7.85 -3.8,2.6 -12.1,2.6 z m -4.55,-16.45 0,12.2 q 0.55,0.05 1.3,0.1 0.65,0.05 1.5,0.1 0.9,0 2.05,0 2.15,0 4.05,-0.25 1.95,-0.3 3.4,-1 1.45,-0.7 2.3,-1.95 0.9,-1.25 0.9,-3.15 0,-1.7 -0.65,-2.85 -0.65,-1.2 -1.9,-1.9 -1.2,-0.7 -2.9,-1 -1.7,-0.3 -3.8,-0.3 l -6.25,0 z m 0,-3.9 5.1,0 q 1.8,0 3.4,-0.25 1.6,-0.25 2.75,-0.9 1.2,-0.65 1.85,-1.7 0.7,-1.05 0.7,-2.65 0,-1.5 -0.7,-2.5 -0.7,-1.05 -1.95,-1.65 -1.2,-0.65 -2.85,-0.95 -1.65,-0.3 -3.5,-0.3 -1.85,0 -2.9,0.05 -1.05,0.05 -1.9,0.15 l 0,10.7 z" style="fill:#2271d5;fill-opacity:1"/><path id="path4142" d="m 98.541518,948.38 q -3.65,0 -6.65,-1.2 -3,-1.2 -5.15,-3.5 -2.15,-2.3 -3.35,-5.65 -1.15,-3.4 -1.15,-7.75 0,-4.35 1.3,-7.7 1.35,-3.4 3.6,-5.7 2.25,-2.3 5.25,-3.5 3,-1.2 6.4,-1.2 2.150002,0 3.850002,0.3 1.75,0.3 3,0.7 1.3,0.4 2.1,0.8 0.8,0.4 1.1,0.6 l -1.4,4 q -0.45,-0.3 -1.3,-0.65 -0.85,-0.35 -1.95,-0.7 -1.05,-0.35 -2.35,-0.55 -1.25,-0.25 -2.550002,-0.25 -2.75,0 -4.95,0.95 -2.2,0.95 -3.75,2.75 -1.55,1.8 -2.4,4.4 -0.8,2.55 -0.8,5.75 0,3.1 0.7,5.65 0.75,2.55 2.2,4.4 1.45,1.8 3.6,2.8 2.2,1 5.1,1 3.350002,0 5.550002,-0.7 2.2,-0.7 3.3,-1.25 l 1.25,4 q -0.35,0.25 -1.25,0.65 -0.9,0.35 -2.25,0.7 -1.35,0.35 -3.15,0.6 -1.8,0.25 -3.900002,0.25 z" style="fill:#2271d5;fill-opacity:1"/></g><g style="fill:url(#radialGradient4149);fill-opacity:1;fill-rule:evenodd;stroke:none;stroke-width:1" id="g8" transform="matrix(9.5970752,0,0,9.5970752,-8.5970754,928.98186)"><g style="fill:url(#radialGradient4173);fill-opacity:1" id="g10"><path id="path12" d="m 13.9835,4.1995 -1.054,-1.054 c -0.194,-0.194 -0.509,-0.194 -0.703,0 l -6.319,6.319 -3.005,-3.027 c -0.194,-0.194 -0.508,-0.194 -0.703,0 l -1.054,1.054 c -0.194,0.194 -0.194,0.508 0,0.702 l 4.407,4.437 c 0.194,0.194 0.509,0.194 0.703,0 l 7.728,-7.728 c 0.194,-0.194 0.194,-0.509 0,-0.703" style="fill:url(#radialGradient4171);fill-opacity:1"/></g></g></g></svg>