<svg xmlns="http://www.w3.org/2000/svg" viewBox="0 0 128 128" enable-background="new 0 0 128 128"><style type="text/css">.st0{fill:url(#SVGID_1_);}</style><radialGradient id="SVGID_1_" cx="-518.45" cy="612.729" r="55.551" gradientUnits="userSpaceOnUse"><stop offset="0" stop-color="#127C1B"/><stop offset="1" stop-color="#1ECB2C"/></radialGradient><path class="st0" d="M94.4 49.2l-46.3 46.3-28.8-29c-1.9-1.9-4.9-1.9-6.7 0l-10.2 10c-1.9 1.9-1.9 4.9 0 6.7l42.3 42.6c1.9 1.9 4.9 1.9 6.7 0l74.2-74.2c1.9-1.9 1.9-4.9 0-6.7l-10.1-10.1c-1.9-1.9-4.9-1.9-6.7 0l-9.4 9.4"/><path d="M94.8 48.8l-.4.4c-6.9-1.5-11.1-7.3-11.1-16.6v-5.1c0-10.8 5.9-17.2 15.1-17.2 9.3 0 14.2 6.4 14.2 13v.4h-5.6c0-4-3-8.1-8.6-8.1s-9.4 4-9.4 11.9v5c0 8 3.8 11.7 9.5 11.7h.7l-.8.8-3.6 3.8zm-78.9 0l3.5-10.5h13.6l3.5 10.5h6.1l-13.1-37.7h-6.2l-13.1 37.7h5.7zm10.5-31.3l5.3 16.1h-10.8l5.3-16.1h.2zm22.7 31.3h14.3c7.6 0 13.2-3.7 13.2-10.6 0-5.3-3.2-8.7-8.3-9.3v-.3c3.6-1 6.2-3.6 6.2-8.3 0-5.9-4.3-9.3-10.7-9.3h-14.7v37.8zm5.7-32.8h7.9c3.5 0 6.1 1.7 6.1 5.5 0 3.9-2.9 5.6-8.6 5.6h-5.5v-11.1zm0 15.7h8.4c4.5 0 7.6 2.1 7.6 6.3 0 4.7-4.1 5.9-9.8 5.9h-6.2v-12.2z"/></svg>