<svg xmlns="http://www.w3.org/2000/svg" xmlns:svg="http://www.w3.org/2000/svg" id="svg4" width="300" height="300" x="0" y="0" fill="#000" enable-background="new 0 0 97.8 97.8" version="1.1" viewBox="0 0 97.8 97.8" xml:space="preserve"><metadata id="metadata10"/><g id="g852"><path id="path839" d="m 19.3408,34.258128 c -0.162508,-4.4e-4 -0.314692,0.04583 -0.448514,0.148541 L 0.52457424,48.433157 c -0.13860367,0.105527 -0.25984757,0.258831 -0.29900965,0.424402 -0.0130483,0.05519 0,0.111894 0,0.169761 0,0.231446 0.11420026,0.453466 0.29900965,0.594163 L 18.913644,63.669191 c 0.13453,0.102691 0.265721,0.14854 0.427156,0.14854 0.159311,0 0.33605,-0.04795 0.469872,-0.14854 0.269053,-0.201203 0.379495,-0.579601 0.256293,-0.891244 l -3.694899,-9.273185 h 21.656811 c 0.41421,0 0.747523,-0.331166 0.747523,-0.742704 v -7.448256 c 0,-0.411537 -0.333313,-0.763924 -0.747523,-0.763924 H 16.372066 l 3.694899,-9.294406 c 0.123909,-0.310939 0.01277,-0.647607 -0.256293,-0.848803 -0.13453,-0.10095 -0.307363,-0.148101 -0.469872,-0.148541 z" style="fill:#2caf45;fill-opacity:1;stroke-width:1.22124"/><path id="path837" d="m 78.459201,34.130807 c -0.162511,4.41e-4 -0.335342,0.04758 -0.469872,0.148542 -0.269061,0.201195 -0.380203,0.537863 -0.256294,0.848803 l 3.6949,9.294406 H 59.771122 c -0.41421,0 -0.747524,0.352387 -0.747524,0.763924 v 7.448256 c 0,0.411538 0.333314,0.742702 0.747524,0.742702 h 21.656813 l -3.6949,9.273186 c -0.123198,0.311643 -0.01278,0.690042 0.256294,0.891245 0.13382,0.100597 0.31056,0.14854 0.469872,0.14854 0.161438,0 0.292625,-0.04586 0.427156,-0.14854 L 97.275426,49.494163 c 0.184798,-0.140698 0.299009,-0.362717 0.299009,-0.594164 0,-0.05786 0.01305,-0.114572 0,-0.16976 -0.03916,-0.165573 -0.160413,-0.31888 -0.299009,-0.424402 L 78.907715,34.279349 c -0.13382,-0.102716 -0.286003,-0.148981 -0.448514,-0.148542 z" style="fill:#2caf45;fill-opacity:1;stroke-width:1.22124"/><path id="path2" d="m 43.902273,11.748602 c -0.781685,0 -1.409615,1.11798 -1.409615,2.509715 v 69.283364 c 0,1.391734 0.627222,2.510931 1.409615,2.509716 h 9.546938 c 0.781686,0 1.430973,-1.117982 1.430973,-2.509716 V 14.258317 c 0,-1.391735 -0.649287,-2.509715 -1.430973,-2.509715 z" style="fill:#2271d5;fill-opacity:1;stroke-width:1.63481"/></g></svg>