<svg xmlns="http://www.w3.org/2000/svg" viewBox="0 0 128 128" height="128" width="128"><g transform="translate(0 -924.362)"><path d="M16.582 1046.884v-107.688c.269-7.886 2.821-11.47 7.254-11.675l83.522-.158c2.766-.034 3.224 2.603 3.224 5.261l-.177 110.345c.201 4.009-3.09 3.994-3.09 3.994l-6.905.108c-.187 4.217-.269 4.387-3.224 4.268h-76.439c-3.907 0-4.165.2-4.165-4.455z" fill="#7fa0f1" fill-rule="evenodd"/><path d="M22.299 937.546h73.639c5.75.099 5.129 2.683 5.172 9.678l.182 94.282c1.824.145 4.621-1.884 4.586-5.107l-.182-96.84c.151-6.453-1.337-6.453-4.301-6.717h-75.305c-2.867-.18-3.64.842-3.791 4.704z" fill="#fff" fill-rule="evenodd"/><rect width="51.482" height="6" x="33.259" y="951.362" ry=".9" fill="#003380" fill-rule="evenodd"/><path d="M87.899 1035.761h-57.792v-21.672h7.224v14.448h43.344v-14.448h7.224zm-28.896-14.448c-.925 0-1.849-.354-2.554-1.058l-14.448-14.448c-1.412-1.412-1.412-3.695 0-5.107 1.412-1.412 3.695-1.412 5.107 0l11.894 11.894 11.894-11.894c1.412-1.412 3.695-1.412 5.107 0 1.412 1.412 1.412 3.695 0 5.107l-14.448 14.448c-.704.704-1.629 1.058-2.554 1.058zm0 0c-1.994 0-3.612-1.615-3.612-3.612v-36.12c0-1.994 1.618-3.612 3.612-3.612s3.612 1.618 3.612 3.612v36.12c0 1.997-1.618 3.612-3.612 3.612z" fill="#003380"/></g></svg>