<?xml version="1.0" encoding="UTF-8" standalone="no"?>
<!-- Created with Inkscape (http://www.inkscape.org/) -->

<svg
   xmlns:dc="http://purl.org/dc/elements/1.1/"
   xmlns:cc="http://creativecommons.org/ns#"
   xmlns:rdf="http://www.w3.org/1999/02/22-rdf-syntax-ns#"
   xmlns:svg="http://www.w3.org/2000/svg"
   xmlns="http://www.w3.org/2000/svg"
   xmlns:xlink="http://www.w3.org/1999/xlink"
   xmlns:sodipodi="http://sodipodi.sourceforge.net/DTD/sodipodi-0.dtd"
   xmlns:inkscape="http://www.inkscape.org/namespaces/inkscape"
   width="128"
   height="128"
   viewBox="0 0 128 128"
   id="svg2"
   version="1.1"
   inkscape:version="0.92.4 5da689c313, 2019-01-14"
   sodipodi:docname="subset-fonts.svg">
  <defs
     id="defs4">
    <linearGradient
       inkscape:collect="always"
       id="linearGradient4154">
      <stop
         style="stop-color:#ffc3c3;stop-opacity:1"
         offset="0"
         id="stop4156" />
      <stop
         id="stop4162"
         offset="0.55972457"
         style="stop-color:#a91010;stop-opacity:1" />
      <stop
         style="stop-color:#e55d5d;stop-opacity:1"
         offset="0.76282489"
         id="stop4164" />
      <stop
         style="stop-color:#8f0000;stop-opacity:1"
         offset="1"
         id="stop4158" />
    </linearGradient>
    <radialGradient
       inkscape:collect="always"
       xlink:href="#linearGradient4154"
       id="radialGradient4160"
       cx="83.035713"
       cy="1013.255"
       fx="83.035713"
       fy="1013.255"
       r="44.999998"
       gradientTransform="matrix(1.1444227,-0.02211081,0.02164682,1.1204077,-33.92599,-120.16776)"
       gradientUnits="userSpaceOnUse" />
  </defs>
  <sodipodi:namedview
     id="base"
     pagecolor="#ffffff"
     bordercolor="#666666"
     borderopacity="1.0"
     inkscape:pageopacity="0.0"
     inkscape:pageshadow="2"
     inkscape:zoom="7.919596"
     inkscape:cx="19.843024"
     inkscape:cy="69.707741"
     inkscape:document-units="px"
     inkscape:current-layer="layer1"
     showgrid="false"
     units="px"
     inkscape:window-width="2560"
     inkscape:window-height="1400"
     inkscape:window-x="0"
     inkscape:window-y="40"
     inkscape:window-maximized="0" />
  <metadata
     id="metadata7">
    <rdf:RDF>
      <cc:Work
         rdf:about="">
        <dc:format>image/svg+xml</dc:format>
        <dc:type
           rdf:resource="http://purl.org/dc/dcmitype/StillImage" />
        <dc:title />
        <dc:creator>
          <cc:Agent>
            <dc:title>Kovid Goyal</dc:title>
          </cc:Agent>
        </dc:creator>
        <dc:rights>
          <cc:Agent>
            <dc:title />
          </cc:Agent>
        </dc:rights>
        <dc:publisher>
          <cc:Agent>
            <dc:title />
          </cc:Agent>
        </dc:publisher>
        <cc:license
           rdf:resource="http://creativecommons.org/licenses/by-sa/3.0/" />
      </cc:Work>
      <cc:License
         rdf:about="http://creativecommons.org/licenses/by-sa/3.0/">
        <cc:permits
           rdf:resource="http://creativecommons.org/ns#Reproduction" />
        <cc:permits
           rdf:resource="http://creativecommons.org/ns#Distribution" />
        <cc:requires
           rdf:resource="http://creativecommons.org/ns#Notice" />
        <cc:requires
           rdf:resource="http://creativecommons.org/ns#Attribution" />
        <cc:permits
           rdf:resource="http://creativecommons.org/ns#DerivativeWorks" />
        <cc:requires
           rdf:resource="http://creativecommons.org/ns#ShareAlike" />
      </cc:License>
    </rdf:RDF>
  </metadata>
  <g
     inkscape:label="Layer 1"
     inkscape:groupmode="layer"
     id="layer1"
     transform="translate(0,-924.36216)">
    <g
       id="g4147"
       transform="matrix(1.4,0,0,1.4,-52.249997,-430.19484)"
       style="fill-opacity:1;fill:url(#radialGradient4160)">
      <path
         id="path4"
         d="m 66.309038,980.8202 -15.708541,15.70854 0,33.45296 15.708541,15.7085 33.452934,0 15.708538,-15.7085 0,-33.45296 -15.708538,-15.70854 z m 1.368439,2.85092 30.716056,0 14.226067,14.22606 0,30.71602 -14.226067,14.2261 -30.716056,0 -14.226065,-14.2261 0,-30.71602 z"
         inkscape:connector-curvature="0"
         style="fill-opacity:1;fill:url(#radialGradient4160)" />
      <path
         id="path6"
         d="m 38.035714,973.95734 5.700578,-5.70058 7.070486,7.07049 3.601477,-3.60148 1.243874,14.14565 -14.145643,-1.24388 3.601476,-3.60148 z"
         style="color:#000000;fill-opacity:1;fill:url(#radialGradient4160)"
         inkscape:connector-curvature="0" />
      <path
         id="path8"
         d="m 128.03571,1052.5526 -5.70057,5.7006 -7.07049,-7.0705 -3.60148,3.6015 -1.24387,-14.1456 14.14564,1.2439 -3.60147,3.6014 z"
         style="color:#000000;fill-opacity:1;fill:url(#radialGradient4160)"
         inkscape:connector-curvature="0" />
      <path
         id="path10"
         d="m 122.33338,968.255 5.70057,5.70058 -7.07048,7.07048 3.60147,3.60148 -14.14564,1.24388 1.24387,-14.14565 3.60148,3.60148 z"
         style="color:#000000;fill-opacity:1;fill:url(#radialGradient4160)"
         inkscape:connector-curvature="0" />
      <path
         id="path12"
         d="m 43.738052,1058.255 -5.700577,-5.7006 7.070486,-7.0705 -3.601476,-3.6014 14.145644,-1.2439 -1.243876,14.1456 -3.601476,-3.6015 z"
         style="color:#000000;fill-opacity:1;fill:url(#radialGradient4160)"
         inkscape:connector-curvature="0" />
    </g>
    <g
       style="font-style:normal;font-weight:normal;font-size:15px;line-height:125%;font-family:Sans;letter-spacing:0px;word-spacing:0px;fill:#2271d5;fill-opacity:1;stroke:none;stroke-width:1px;stroke-linecap:butt;stroke-linejoin:miter;stroke-opacity:1"
       id="text4168"
       transform="matrix(6.2282516,0,0,6.2282516,316.6379,-5191.6428)">
      <path
         d="m -37.300713,996.73718 q -0.255,-0.675 -0.48,-1.32 -0.225,-0.66 -0.465,-1.335 l -4.71,0 -0.945,2.655 -1.515,0 q 0.6,-1.65 1.125,-3.045 0.525,-1.41 1.02,-2.67 0.51,-1.26 1.005,-2.4 0.495,-1.155 1.035,-2.28 l 1.335,0 q 0.54,1.125 1.035,2.28 0.495,1.14 0.99,2.4 0.51,1.26 1.035,2.67 0.525,1.395 1.125,3.045 l -1.59,0 z m -1.365,-3.855 q -0.48,-1.305 -0.96,-2.52 -0.465,-1.23 -0.975,-2.355 -0.525,1.125 -1.005,2.355 -0.465,1.215 -0.93,2.52 l 3.87,0 z"
         id="path4173"
         inkscape:connector-curvature="0"
         style="fill:#2271d5;fill-opacity:1" />
    </g>
  </g>
</svg>
