<svg xmlns="http://www.w3.org/2000/svg" xmlns:xlink="http://www.w3.org/1999/xlink" width="128" height="128" viewBox="0 0 128 128"><defs><linearGradient id="a"><stop offset="0" stop-color="#ffc3c3"/><stop offset=".56" stop-color="#a91010"/><stop offset=".763" stop-color="#e55d5d"/><stop offset="1" stop-color="#8f0000"/></linearGradient><radialGradient xlink:href="#a" id="b" cx="83.036" cy="1013.255" fx="83.036" fy="1013.255" r="45" gradientTransform="matrix(1.144 -.022 .022 1.12 -33.926 -120.168)" gradientUnits="userSpaceOnUse"/></defs><g fill="url(#b)"><path d="M40.583 18.591l-21.992 21.992v46.834l21.992 21.992h46.834l21.992-21.992v-46.834l-21.992-21.992zm1.916 3.991h43.002l19.916 19.916v43.002l-19.916 19.917h-43.002l-19.916-19.917v-43.002z"/><path d="M1 8.983l7.981-7.981 9.899 9.899 5.042-5.042 1.741 19.804-19.804-1.741 5.042-5.042zm126 110.034l-7.981 7.981-9.899-9.899-5.042 5.042-1.741-19.804 19.804 1.741-5.042 5.042zm-7.983-118.017l7.981 7.981-9.899 9.899 5.042 5.042-19.804 1.741 1.741-19.804 5.042 5.042zm-110.034 126l-7.981-7.981 9.899-9.899-5.042-5.042 19.804-1.741-1.741 19.804-5.042-5.042z" color="#000"/></g><path d="M84.329 91.674q-1.588-4.204-2.989-8.221-1.401-4.11-2.896-8.314h-29.334l-5.885 16.535h-9.435q3.737-10.276 7.006-18.964 3.27-8.781 6.353-16.629 3.176-7.847 6.259-14.947 3.083-7.193 6.446-14.2h8.314q3.363 7.006 6.446 14.2 3.083 7.1 6.166 14.947 3.176 7.847 6.446 16.629 3.27 8.688 7.006 18.964h-9.903zm-8.501-24.009q-2.989-8.128-5.979-15.695-2.896-7.66-6.072-14.667-3.27 7.006-6.259 14.667-2.896 7.567-5.792 15.695h24.102z" style="line-height:125%" font-size="15" font-family="Sans" letter-spacing="0" word-spacing="0"/></svg>