<svg xmlns="http://www.w3.org/2000/svg" xmlns:svg="http://www.w3.org/2000/svg" xmlns:xlink="http://www.w3.org/1999/xlink" id="svg2" width="128" height="128" version="1.1" viewBox="0 0 128 128"><defs id="defs4"><linearGradient id="linearGradient4154"><stop style="stop-color:#ffc3c3;stop-opacity:1" id="stop4156" offset="0"/><stop id="stop4162" offset=".56" style="stop-color:#a91010;stop-opacity:1"/><stop style="stop-color:#e55d5d;stop-opacity:1" id="stop4164" offset=".763"/><stop style="stop-color:#8f0000;stop-opacity:1" id="stop4158" offset="1"/></linearGradient><radialGradient id="radialGradient4160" cx="83.036" cy="1013.255" r="45" fx="83.036" fy="1013.255" gradientTransform="matrix(1.1444227,-0.02211081,0.02164682,1.1204077,-33.92599,-120.16776)" gradientUnits="userSpaceOnUse" xlink:href="#linearGradient4154"/></defs><metadata id="metadata7"/><g id="layer1" transform="translate(0,-924.36216)"><g id="g4147" transform="matrix(1.4,0,0,1.4,-52.249997,-430.19484)" style="fill-opacity:1;fill:url(#radialGradient4160)"><path id="path4" d="m 66.309038,980.8202 -15.708541,15.70854 0,33.45296 15.708541,15.7085 33.452934,0 15.708538,-15.7085 0,-33.45296 -15.708538,-15.70854 z m 1.368439,2.85092 30.716056,0 14.226067,14.22606 0,30.71602 -14.226067,14.2261 -30.716056,0 -14.226065,-14.2261 0,-30.71602 z" style="fill-opacity:1;fill:url(#radialGradient4160)"/><path id="path6" d="m 38.035714,973.95734 5.700578,-5.70058 7.070486,7.07049 3.601477,-3.60148 1.243874,14.14565 -14.145643,-1.24388 3.601476,-3.60148 z" style="color:#000;fill-opacity:1;fill:url(#radialGradient4160)"/><path id="path8" d="m 128.03571,1052.5526 -5.70057,5.7006 -7.07049,-7.0705 -3.60148,3.6015 -1.24387,-14.1456 14.14564,1.2439 -3.60147,3.6014 z" style="color:#000;fill-opacity:1;fill:url(#radialGradient4160)"/><path id="path10" d="m 122.33338,968.255 5.70057,5.70058 -7.07048,7.07048 3.60147,3.60148 -14.14564,1.24388 1.24387,-14.14565 3.60148,3.60148 z" style="color:#000;fill-opacity:1;fill:url(#radialGradient4160)"/><path id="path12" d="m 43.738052,1058.255 -5.700577,-5.7006 7.070486,-7.0705 -3.601476,-3.6014 14.145644,-1.2439 -1.243876,14.1456 -3.601476,-3.6015 z" style="color:#000;fill-opacity:1;fill:url(#radialGradient4160)"/></g><g style="font-style:normal;font-weight:400;font-size:15px;line-height:125%;font-family:Sans;letter-spacing:0;word-spacing:0;fill:#2271d5;fill-opacity:1;stroke:none;stroke-width:1px;stroke-linecap:butt;stroke-linejoin:miter;stroke-opacity:1" id="text4168" transform="matrix(6.2282516,0,0,6.2282516,316.6379,-5191.6428)"><path id="path4173" d="m -37.300713,996.73718 q -0.255,-0.675 -0.48,-1.32 -0.225,-0.66 -0.465,-1.335 l -4.71,0 -0.945,2.655 -1.515,0 q 0.6,-1.65 1.125,-3.045 0.525,-1.41 1.02,-2.67 0.51,-1.26 1.005,-2.4 0.495,-1.155 1.035,-2.28 l 1.335,0 q 0.54,1.125 1.035,2.28 0.495,1.14 0.99,2.4 0.51,1.26 1.035,2.67 0.525,1.395 1.125,3.045 l -1.59,0 z m -1.365,-3.855 q -0.48,-1.305 -0.96,-2.52 -0.465,-1.23 -0.975,-2.355 -0.525,1.125 -1.005,2.355 -0.465,1.215 -0.93,2.52 l 3.87,0 z" style="fill:#2271d5;fill-opacity:1"/></g></g></svg>