<svg xmlns="http://www.w3.org/2000/svg" xmlns:svg="http://www.w3.org/2000/svg" id="svg2" width="128" height="128" version="1.1" viewBox="0 0 128 128"><metadata id="metadata7"/><g id="layer1" transform="translate(0,-924.36216)"><rect id="rect4" width="52.563" height="52.563" x="1" y="928.366" style="fill:#2ca2c5;fill-opacity:1"/><rect id="rect6" width="52.563" height="52.563" x="74.437" y="995.796" style="fill:#95c43c;fill-opacity:1"/><path id="path8" d="m 39.295589,1005.8581 10.061979,0 -15.918951,-15.76878 -15.918951,15.76878 10.061978,0 c 1.501788,18.1716 16.820024,32.4386 35.292014,32.4386 l 0,-11.7139 c -12.014303,0.1501 -22.076281,-9.0108 -23.578069,-20.7247 z" style="fill:#2ca2c5;fill-opacity:1"/><path id="path10" d="m 88.40405,972.06782 -9.911799,0 15.918951,15.919 15.918948,-15.919 -10.06198,0 C 98.766386,953.89619 83.448151,939.62921 64.825982,939.62921 l 0,11.71394 c 12.014302,0 22.076281,9.01073 23.578068,20.72467 z" style="fill:#95c43c;fill-opacity:1"/></g></svg>