<?xml version="1.0" encoding="UTF-8" standalone="no"?>
<!-- Created with Inkscape (http://www.inkscape.org/) -->
<svg
   xmlns:dc="http://purl.org/dc/elements/1.1/"
   xmlns:cc="http://web.resource.org/cc/"
   xmlns:rdf="http://www.w3.org/1999/02/22-rdf-syntax-ns#"
   xmlns:svg="http://www.w3.org/2000/svg"
   xmlns="http://www.w3.org/2000/svg"
   xmlns:xlink="http://www.w3.org/1999/xlink"
   xmlns:sodipodi="http://sodipodi.sourceforge.net/DTD/sodipodi-0.dtd"
   xmlns:inkscape="http://www.inkscape.org/namespaces/inkscape"
   width="128"
   height="128"
   id="svg2606"
   sodipodi:version="0.32"
   inkscape:version="0.45.1"
   version="1.0"
   sodipodi:docname="edit-undo.svgz"
   inkscape:output_extension="org.inkscape.output.svgz.inkscape"
   sodipodi:docbase="/home/david/oxygen/trunk/scalable/actions"
   inkscape:export-filename="edit-undo.png"
   inkscape:export-xdpi="11.25"
   inkscape:export-ydpi="11.25">
  <defs
     id="defs2608">
    <linearGradient
       inkscape:collect="always"
       id="linearGradient3342">
      <stop
         style="stop-color:#000000;stop-opacity:1;"
         offset="0"
         id="stop3344" />
      <stop
         style="stop-color:#000000;stop-opacity:0;"
         offset="1"
         id="stop3347" />
    </linearGradient>
    <linearGradient
       inkscape:collect="always"
       id="linearGradient3326">
      <stop
         style="stop-color:#000000;stop-opacity:1;"
         offset="0"
         id="stop3328" />
      <stop
         style="stop-color:#000000;stop-opacity:0;"
         offset="1"
         id="stop3330" />
    </linearGradient>
    <linearGradient
       id="linearGradient3825">
      <stop
         style="stop-color:#ffffff;stop-opacity:0;"
         offset="0"
         id="stop3827" />
      <stop
         id="stop3833"
         offset="0.5"
         style="stop-color:#ffffff;stop-opacity:0.18705036;" />
      <stop
         style="stop-color:#ffffff;stop-opacity:1;"
         offset="1"
         id="stop3829" />
    </linearGradient>
    <linearGradient
       id="linearGradient3751">
      <stop
         style="stop-color:#beba2c;stop-opacity:1;"
         offset="0"
         id="stop3753" />
      <stop
         style="stop-color:#b6be2c;stop-opacity:0;"
         offset="1"
         id="stop3755" />
    </linearGradient>
    <linearGradient
       id="linearGradient3528">
      <stop
         style="stop-color:#eaf209;stop-opacity:1;"
         offset="0"
         id="stop3530" />
      <stop
         style="stop-color:#c7c634;stop-opacity:0;"
         offset="1"
         id="stop3532" />
    </linearGradient>
    <linearGradient
       id="linearGradient3295">
      <stop
         style="stop-color:#fffe63;stop-opacity:1;"
         offset="0"
         id="stop3297" />
      <stop
         style="stop-color:#ffffff;stop-opacity:0;"
         offset="1"
         id="stop3299" />
    </linearGradient>
    <linearGradient
       id="linearGradient3202">
      <stop
         style="stop-color:#fcff9c;stop-opacity:1;"
         offset="0"
         id="stop3204" />
      <stop
         style="stop-color:#c1a965;stop-opacity:0;"
         offset="1"
         id="stop3206" />
    </linearGradient>
    <radialGradient
       id="XMLID_4_"
       cx="48"
       cy="-0.2148"
       r="55.148"
       gradientTransform="matrix(0.9792,0,0,0.9725,133.0002,20.8762)"
       gradientUnits="userSpaceOnUse">
      <stop
         offset="0"
         style="stop-color:#cfd13d;stop-opacity:1;"
         id="stop3082" />
      <stop
         offset="1"
         style="stop-color:#db8900;stop-opacity:1;"
         id="stop3090" />
    </radialGradient>
    <linearGradient
       id="linearGradient3260"
       inkscape:collect="always">
      <stop
         id="stop3262"
         offset="0"
         style="stop-color:#ffffff;stop-opacity:1;" />
      <stop
         id="stop3264"
         offset="1"
         style="stop-color:#ffffff;stop-opacity:0;" />
    </linearGradient>
    <linearGradient
       id="linearGradient3344">
      <stop
         id="stop3346"
         offset="0"
         style="stop-color:#fdff63;stop-opacity:1;" />
      <stop
         id="stop3348"
         offset="1"
         style="stop-color:#ffffff;stop-opacity:0;" />
    </linearGradient>
    <linearGradient
       id="linearGradient3449">
      <stop
         id="stop3451"
         offset="0"
         style="stop-color:#000000;stop-opacity:1;" />
      <stop
         id="stop3453"
         offset="1"
         style="stop-color:#000000;stop-opacity:0;" />
    </linearGradient>
    <linearGradient
       inkscape:collect="always"
       xlink:href="#XMLID_4_"
       id="linearGradient3516"
       x1="147.09375"
       y1="33.40625"
       x2="8.083992"
       y2="123.90625"
       gradientUnits="userSpaceOnUse" />
    <radialGradient
       inkscape:collect="always"
       xlink:href="#XMLID_4_"
       id="radialGradient3524"
       cx="67.09375"
       cy="116.90625"
       fx="67.09375"
       fy="116.90625"
       r="56"
       gradientUnits="userSpaceOnUse" />
    <radialGradient
       inkscape:collect="always"
       xlink:href="#linearGradient3528"
       id="radialGradient3535"
       cx="99.726295"
       cy="27.418272"
       fx="64.689766"
       fy="68.231934"
       r="56"
       gradientUnits="userSpaceOnUse"
       gradientTransform="matrix(0.693735,5.8671246e-2,-3.6242796e-2,0.4285387,33.939389,26.8809)" />
    <linearGradient
       inkscape:collect="always"
       xlink:href="#linearGradient3295"
       id="linearGradient3548"
       x1="75.09375"
       y1="4.5317035"
       x2="75.09375"
       y2="80.172485"
       gradientUnits="userSpaceOnUse" />
    <linearGradient
       inkscape:collect="always"
       xlink:href="#linearGradient3260"
       id="linearGradient3581"
       gradientUnits="userSpaceOnUse"
       gradientTransform="translate(4.2161108e-3,1.9705695e-3)"
       x1="75.09375"
       y1="4.5317035"
       x2="75.09375"
       y2="80.172485" />
    <linearGradient
       inkscape:collect="always"
       xlink:href="#linearGradient3295"
       id="linearGradient3613"
       x1="208.59375"
       y1="130.40625"
       x2="208.59375"
       y2="63.426777"
       gradientUnits="userSpaceOnUse"
       gradientTransform="translate(-137,0)" />
    <filter
       inkscape:collect="always"
       id="filter3639">
      <feGaussianBlur
         inkscape:collect="always"
         stdDeviation="1.0580524"
         id="feGaussianBlur3641" />
    </filter>
    <radialGradient
       inkscape:collect="always"
       xlink:href="#linearGradient3449"
       id="radialGradient3654"
       cx="-10.165252"
       cy="66.906013"
       fx="-10.165252"
       fy="66.906013"
       r="59.995121"
       gradientTransform="matrix(0.4582893,-2.1035589e-8,4.5903973e-8,1.0000813,20.447953,-5.1974351e-3)"
       gradientUnits="userSpaceOnUse" />
    <radialGradient
       inkscape:collect="always"
       xlink:href="#linearGradient3449"
       id="radialGradient3658"
       gradientUnits="userSpaceOnUse"
       gradientTransform="matrix(0.2676699,0.521376,-0.7037472,0.3612977,108.99386,-36.062981)"
       cx="167.67001"
       cy="80.404922"
       fx="167.67001"
       fy="80.404922"
       r="59.995121" />
    <linearGradient
       inkscape:collect="always"
       xlink:href="#linearGradient3260"
       id="linearGradient3676"
       x1="120.0625"
       y1="12.569496"
       x2="125.30366"
       y2="14.444496"
       gradientUnits="userSpaceOnUse"
       spreadMethod="reflect" />
    <filter
       inkscape:collect="always"
       x="-0.15096202"
       width="1.301924"
       y="-0.13732364"
       height="1.2746473"
       id="filter3738">
      <feGaussianBlur
         inkscape:collect="always"
         stdDeviation="0.39257441"
         id="feGaussianBlur3740" />
    </filter>
    <radialGradient
       inkscape:collect="always"
       xlink:href="#linearGradient3449"
       id="radialGradient3744"
       gradientUnits="userSpaceOnUse"
       gradientTransform="matrix(0.982366,1.671718e-2,-3.5801148e-3,0.2103843,-18.56344,30.477792)"
       cx="72.684891"
       cy="48.228905"
       fx="74.871155"
       fy="26.862719"
       r="59.995121" />
    <radialGradient
       inkscape:collect="always"
       xlink:href="#linearGradient3751"
       id="radialGradient3757"
       cx="66.01458"
       cy="126.69183"
       fx="66.01458"
       fy="126.69183"
       r="59.99512"
       gradientTransform="matrix(0.675025,0,0,0.3583625,19.527377,41.004647)"
       gradientUnits="userSpaceOnUse" />
    <radialGradient
       inkscape:collect="always"
       xlink:href="#linearGradient3260"
       id="radialGradient3767"
       cx="64.088867"
       cy="7.4108429"
       fx="64.088867"
       fy="7.4108429"
       r="59.995121"
       gradientTransform="matrix(0.3093869,0,0,0.4779247,44.260611,3.8644223)"
       gradientUnits="userSpaceOnUse" />
    <linearGradient
       inkscape:collect="always"
       xlink:href="#linearGradient3344"
       id="linearGradient3771"
       gradientUnits="userSpaceOnUse"
       spreadMethod="reflect"
       x1="120.0625"
       y1="12.569496"
       x2="125.30366"
       y2="14.444496" />
    <filter
       inkscape:collect="always"
       id="filter3438">
      <feGaussianBlur
         inkscape:collect="always"
         stdDeviation="1.3342697"
         id="feGaussianBlur3440" />
    </filter>
    <filter
       inkscape:collect="always"
       id="filter3630">
      <feGaussianBlur
         inkscape:collect="always"
         stdDeviation="0.89883985"
         id="feGaussianBlur3632" />
    </filter>
    <radialGradient
       inkscape:collect="always"
       xlink:href="#linearGradient3825"
       id="radialGradient2361"
       gradientUnits="userSpaceOnUse"
       gradientTransform="matrix(0.6484284,0.1017206,-3.1257154e-2,0.1992521,-4.56257,53.15916)"
       cx="-112.17241"
       cy="118.60459"
       fx="-113.14772"
       fy="59.708473"
       r="59.99512" />
    <linearGradient
       inkscape:collect="always"
       xlink:href="#linearGradient3326"
       id="linearGradient2363"
       gradientUnits="userSpaceOnUse"
       x1="-151.43935"
       y1="37.68198"
       x2="-152.26776"
       y2="57.25" />
    <linearGradient
       inkscape:collect="always"
       xlink:href="#linearGradient3326"
       id="linearGradient2365"
       gradientUnits="userSpaceOnUse"
       x1="-132.51041"
       y1="39.803303"
       x2="-158.92462"
       y2="72.881729" />
    <linearGradient
       inkscape:collect="always"
       xlink:href="#linearGradient3326"
       id="linearGradient2367"
       gradientUnits="userSpaceOnUse"
       x1="-83.012932"
       y1="44.753052"
       x2="-158.92462"
       y2="72.881729" />
    <linearGradient
       inkscape:collect="always"
       xlink:href="#linearGradient3342"
       id="linearGradient3349"
       x1="-73"
       y1="105.625"
       x2="-163"
       y2="86.125"
       gradientUnits="userSpaceOnUse" />
    <filter
       inkscape:collect="always"
       x="-0.087741371"
       width="1.1754827"
       y="-0.10211017"
       height="1.2042203"
       id="filter3363">
      <feGaussianBlur
         inkscape:collect="always"
         stdDeviation="3.0526685"
         id="feGaussianBlur3365" />
    </filter>
    <linearGradient
       inkscape:collect="always"
       xlink:href="#linearGradient3342"
       id="linearGradient3372"
       gradientUnits="userSpaceOnUse"
       gradientTransform="translate(-40.5,-1.5)"
       x1="-83.593941"
       y1="137.13324"
       x2="-138.0043"
       y2="92.603989" />
    <linearGradient
       inkscape:collect="always"
       xlink:href="#linearGradient3342"
       id="linearGradient3376"
       gradientUnits="userSpaceOnUse"
       gradientTransform="translate(-40.5,-1.5)"
       x1="-61.802711"
       y1="99.979607"
       x2="-136.51074"
       y2="112.70422" />
    <radialGradient
       inkscape:collect="always"
       xlink:href="#linearGradient3825"
       id="radialGradient3388"
       gradientUnits="userSpaceOnUse"
       gradientTransform="matrix(0.6484284,0.1017206,-3.1257154e-2,0.1992521,-4.56257,53.15916)"
       cx="-112.17241"
       cy="118.60459"
       fx="-113.14772"
       fy="59.708473"
       r="59.99512" />
    <linearGradient
       inkscape:collect="always"
       xlink:href="#linearGradient3326"
       id="linearGradient3390"
       gradientUnits="userSpaceOnUse"
       x1="-151.43935"
       y1="37.68198"
       x2="-152.26776"
       y2="57.25" />
    <linearGradient
       inkscape:collect="always"
       xlink:href="#linearGradient3326"
       id="linearGradient3392"
       gradientUnits="userSpaceOnUse"
       x1="-132.51041"
       y1="39.803303"
       x2="-158.92462"
       y2="72.881729" />
    <linearGradient
       inkscape:collect="always"
       xlink:href="#linearGradient3326"
       id="linearGradient3394"
       gradientUnits="userSpaceOnUse"
       x1="-83.012932"
       y1="44.753052"
       x2="-158.92462"
       y2="72.881729" />
    <linearGradient
       inkscape:collect="always"
       xlink:href="#linearGradient3342"
       id="linearGradient3396"
       gradientUnits="userSpaceOnUse"
       x1="-73"
       y1="105.625"
       x2="-163"
       y2="86.125" />
    <linearGradient
       inkscape:collect="always"
       xlink:href="#linearGradient3342"
       id="linearGradient3398"
       gradientUnits="userSpaceOnUse"
       gradientTransform="translate(-40.5,-1.5)"
       x1="-83.593941"
       y1="137.13324"
       x2="-138.0043"
       y2="92.603989" />
    <linearGradient
       inkscape:collect="always"
       xlink:href="#linearGradient3342"
       id="linearGradient3400"
       gradientUnits="userSpaceOnUse"
       gradientTransform="translate(-40.5,-1.5)"
       x1="-61.802711"
       y1="99.979607"
       x2="-136.51074"
       y2="112.70422" />
    <radialGradient
       inkscape:collect="always"
       xlink:href="#linearGradient3825"
       id="radialGradient3422"
       gradientUnits="userSpaceOnUse"
       gradientTransform="matrix(0.6484284,0.1017206,-3.1257154e-2,0.1992521,-4.56257,53.15916)"
       cx="-112.17241"
       cy="118.60459"
       fx="-113.14772"
       fy="59.708473"
       r="59.99512" />
    <linearGradient
       inkscape:collect="always"
       xlink:href="#linearGradient3326"
       id="linearGradient3424"
       gradientUnits="userSpaceOnUse"
       x1="-151.43935"
       y1="37.68198"
       x2="-152.26776"
       y2="57.25" />
    <linearGradient
       inkscape:collect="always"
       xlink:href="#linearGradient3326"
       id="linearGradient3426"
       gradientUnits="userSpaceOnUse"
       x1="-132.51041"
       y1="39.803303"
       x2="-158.92462"
       y2="72.881729" />
    <linearGradient
       inkscape:collect="always"
       xlink:href="#linearGradient3326"
       id="linearGradient3428"
       gradientUnits="userSpaceOnUse"
       x1="-83.012932"
       y1="44.753052"
       x2="-158.92462"
       y2="72.881729" />
    <linearGradient
       inkscape:collect="always"
       xlink:href="#linearGradient3342"
       id="linearGradient3430"
       gradientUnits="userSpaceOnUse"
       x1="-73"
       y1="105.625"
       x2="-163"
       y2="86.125" />
    <linearGradient
       inkscape:collect="always"
       xlink:href="#linearGradient3342"
       id="linearGradient3432"
       gradientUnits="userSpaceOnUse"
       gradientTransform="translate(-40.5,-1.5)"
       x1="-83.593941"
       y1="137.13324"
       x2="-138.0043"
       y2="92.603989" />
    <linearGradient
       inkscape:collect="always"
       xlink:href="#linearGradient3342"
       id="linearGradient3434"
       gradientUnits="userSpaceOnUse"
       gradientTransform="translate(-40.5,-1.5)"
       x1="-61.802711"
       y1="99.979607"
       x2="-136.51074"
       y2="112.70422" />
    <mask
       maskUnits="userSpaceOnUse"
       id="mask3402">
      <g
         id="g3404"
         transform="translate(167.50257,-3.755156e-3)">
        <g
           id="g3406"
           transform="translate(80.51637,30.885255)">
          <path
             style="opacity:1;fill:url(#radialGradient3422);fill-opacity:1;stroke:none;stroke-width:2;stroke-linecap:round;stroke-linejoin:round;stroke-miterlimit:4;stroke-dashoffset:1.08779998;stroke-opacity:1"
             d="M -184.42232,-32.47243 C -217.54751,-32.47243 -248.42232,-0.097625 -248.42232,33.02757 C -248.42232,66.15276 -217.04751,97.02757 -183.92232,97.02757 C -153.6332,97.02757 -128.58571,70.81131 -124.51607,41.68382 L -159.54732,36.65257 C -161.172,48.6137 -171.47739,57.62132 -183.92232,57.62132 C -197.49395,57.62132 -206.01607,46.0992 -206.01607,32.52757 C -206.01607,18.955936 -199.99395,12.43382 -186.42232,12.43382 C -179.6365,12.433819 -176.50103,10.198864 -172.04732,14.65257 L -176.8745,25.979749 C -178.93037,28.035619 -179.11822,29.285529 -178.55411,30.595278 C -178.04554,31.776057 -177.03338,33.12132 -174.34438,33.12132 L -130.39107,33.12132 C -126.54518,33.12132 -123.93208,30.466941 -123.93208,26.871189 L -124.00095,-17.206829 C -124.00095,-19.687584 -124.90346,-21.050058 -126.18242,-21.556444 C -127.49674,-22.076829 -129.21563,-21.679122 -131.28951,-19.605244 L -141.48482,-19.40993 C -152.34417,-30.269281 -167.85972,-32.47243 -184.42232,-32.47243 z "
             id="path3408"
             sodipodi:nodetypes="cssccsssccsccccsccc" />
          <path
             sodipodi:nodetypes="ccccc"
             style="fill:url(#linearGradient3424);fill-opacity:1;fill-rule:evenodd;stroke:none;stroke-width:1px;stroke-linecap:butt;stroke-linejoin:miter;stroke-opacity:1;filter:url(#filter3438)"
             d="M -161.5,34.5 C -162,37 -180,54 -180,54 L -132.5,80 L -112,38.5 L -161.5,34.5 z "
             id="path3410" />
          <path
             sodipodi:nodetypes="ccccc"
             id="path3412"
             d="M -161.5,34.5 C -162,37 -181.27817,54.389087 -181.27817,54.389087 L -151.62742,97.591883 L -112,38.5 L -161.5,34.5 z "
             style="fill:url(#linearGradient3426);fill-opacity:1;fill-rule:evenodd;stroke:none;stroke-width:1px;stroke-linecap:butt;stroke-linejoin:miter;stroke-opacity:1;filter:url(#filter3438)" />
          <path
             style="fill:url(#linearGradient3428);fill-opacity:1;fill-rule:evenodd;stroke:none;stroke-width:1px;stroke-linecap:butt;stroke-linejoin:miter;stroke-opacity:1;filter:url(#filter3438)"
             d="M -161.5,34.5 C -162,37 -181.27817,54.389087 -181.27817,54.389087 L -151.62742,97.591883 L -112,38.5 L -161.5,34.5 z "
             id="path3414"
             sodipodi:nodetypes="ccccc" />
        </g>
        <rect
           y="69.75"
           x="-119"
           height="71.75"
           width="83.5"
           id="rect3416"
           style="opacity:1;fill:url(#linearGradient3430);fill-opacity:1;stroke:none;stroke-width:1;stroke-linecap:round;stroke-linejoin:round;stroke-miterlimit:4;stroke-dasharray:none;stroke-dashoffset:1.08779998;stroke-opacity:1;filter:url(#filter3363)" />
        <path
           sodipodi:nodetypes="ccccc"
           id="path3418"
           d="M -159.5,68.25 L -39.138259,55.983708 L -93.453327,162.55286 L -197.79465,128.96507 L -159.5,68.25 z "
           style="fill:url(#linearGradient3432);fill-opacity:1;stroke:none;stroke-width:1;stroke-linecap:round;stroke-linejoin:round;stroke-miterlimit:4;stroke-dashoffset:1.08779998;stroke-opacity:1;filter:url(#filter3363)"
           transform="matrix(0.6393762,0.7688941,-0.7688941,0.6393762,37.597642,128.08723)" />
        <path
           transform="matrix(0.6393762,0.7688941,-0.7688941,0.6393762,37.597642,128.08723)"
           style="fill:url(#linearGradient3434);fill-opacity:1;stroke:none;stroke-width:1;stroke-linecap:round;stroke-linejoin:round;stroke-miterlimit:4;stroke-dashoffset:1.08779998;stroke-opacity:1;filter:url(#filter3363)"
           d="M -159.5,68.25 L -39.138259,55.983708 L -93.453327,162.55286 L -197.79465,128.96507 L -159.5,68.25 z "
           id="path3420"
           sodipodi:nodetypes="ccccc" />
      </g>
    </mask>
    <linearGradient
       inkscape:collect="always"
       xlink:href="#linearGradient3751"
       id="linearGradient3565"
       x1="-267.47665"
       y1="18.103027"
       x2="-33.476654"
       y2="18.103027"
       gradientUnits="userSpaceOnUse" />
    <linearGradient
       inkscape:collect="always"
       xlink:href="#linearGradient3295"
       id="linearGradient3567"
       gradientUnits="userSpaceOnUse"
       gradientTransform="translate(-137,0)"
       x1="208.59375"
       y1="130.40625"
       x2="208.59375"
       y2="63.426777" />
  </defs>
  <sodipodi:namedview
     id="base"
     pagecolor="#ffffff"
     bordercolor="#666666"
     borderopacity="1.0"
     inkscape:pageopacity="0.0"
     inkscape:pageshadow="2"
     inkscape:zoom="4.6484375"
     inkscape:cx="64"
     inkscape:cy="64"
     inkscape:document-units="px"
     inkscape:current-layer="layer1"
     width="128px"
     height="128px"
     gridspacingx="4px"
     gridspacingy="4px"
     gridempspacing="2"
     showgrid="false"
     inkscape:grid-points="true"
     showguides="true"
     inkscape:guide-bbox="true"
     inkscape:window-width="748"
     inkscape:window-height="681"
     inkscape:window-x="526"
     inkscape:window-y="51" />
  <metadata
     id="metadata2611">
    <rdf:RDF>
      <cc:Work
         rdf:about="">
        <dc:format>image/svg+xml</dc:format>
        <dc:type
           rdf:resource="http://purl.org/dc/dcmitype/StillImage" />
      </cc:Work>
    </rdf:RDF>
  </metadata>
  <g
     inkscape:label="Livello 1"
     inkscape:groupmode="layer"
     id="layer1">
    <g
       id="g3835"
       mask="url(#mask3402)"
       transform="matrix(-1,0,0,1,128.17774,0)">
      <path
         sodipodi:nodetypes="cssccsssccsccccsccc"
         id="rect3204"
         d="M 64.09375,3.90625 C 30.968558,3.9062499 4.0937499,30.781055 4.09375,63.90625 C 4.0937501,97.031442 30.96856,123.90625 64.09375,123.90625 C 94.382866,123.90625 119.43036,101.68999 123.5,72.5625 L 88.46875,67.53125 C 86.844066,79.492379 76.538676,88.5 64.09375,88.5 C 50.522122,88.499999 39.5,77.477881 39.5,63.90625 C 39.500001,50.334616 50.522119,39.3125 64.09375,39.3125 C 70.879568,39.312499 77.015044,42.077544 81.46875,46.53125 L 71.141571,56.858429 C 69.085701,58.914299 68.897846,60.164209 69.461963,61.473958 C 69.970531,62.654737 70.982695,64 73.671688,64 L 117.625,64 C 121.47089,64 124.08399,61.345621 124.08399,57.749869 L 124.01512,13.671851 C 124.01512,11.191096 123.11261,9.8286218 121.83365,9.3222363 C 120.51933,8.8018514 118.80044,9.1995576 116.72656,11.273436 L 106.53125,21.46875 C 95.671902,10.609399 80.656349,3.90625 64.09375,3.90625 z "
         style="opacity:1;fill:url(#linearGradient3516);fill-opacity:1;stroke:none;stroke-width:2;stroke-linecap:round;stroke-linejoin:round;stroke-miterlimit:4;stroke-dashoffset:1.08779998;stroke-opacity:1" />
      <path
         style="opacity:0.79775277;fill:url(#radialGradient3757);fill-opacity:1;stroke:none;stroke-width:2;stroke-linecap:round;stroke-linejoin:round;stroke-miterlimit:4;stroke-dashoffset:1.08779998;stroke-opacity:1"
         d="M 64.09375,3.90625 C 30.968558,3.9062499 4.0937499,30.781055 4.09375,63.90625 C 4.0937501,97.031442 30.96856,123.90625 64.09375,123.90625 C 94.382866,123.90625 119.43036,101.68999 123.5,72.5625 L 88.46875,67.53125 C 86.844066,79.492379 76.538676,88.5 64.09375,88.5 C 50.522122,88.499999 39.5,77.477881 39.5,63.90625 C 39.500001,50.334616 50.522119,39.3125 64.09375,39.3125 C 70.879568,39.312499 77.015044,42.077544 81.46875,46.53125 L 71.141571,56.858429 C 69.085701,58.914299 68.897846,60.164209 69.461963,61.473958 C 69.970531,62.654737 70.982695,64 73.671688,64 L 117.625,64 C 121.47089,64 124.08399,61.345621 124.08399,57.749869 L 124.01512,13.671851 C 124.01512,11.191096 123.11261,9.8286218 121.83365,9.3222363 C 120.51933,8.8018514 118.80044,9.1995576 116.72656,11.273436 L 106.53125,21.46875 C 95.671902,10.609399 80.656349,3.90625 64.09375,3.90625 z "
         id="path3749"
         sodipodi:nodetypes="cssccsssccsccccsccc" />
      <path
         sodipodi:nodetypes="cssccsssccsccccsccc"
         id="path3656"
         d="M 64.09375,3.90625 C 30.968558,3.9062499 4.0937499,30.781055 4.09375,63.90625 C 4.0937501,97.031442 30.96856,123.90625 64.09375,123.90625 C 94.382866,123.90625 119.43036,101.68999 123.5,72.5625 L 88.46875,67.53125 C 86.844066,79.492379 76.538676,88.5 64.09375,88.5 C 50.522122,88.499999 39.5,77.477881 39.5,63.90625 C 39.500001,50.334616 50.522119,39.3125 64.09375,39.3125 C 70.879568,39.312499 77.015044,42.077544 81.46875,46.53125 L 71.141571,56.858429 C 69.085701,58.914299 68.897846,60.164209 69.461963,61.473958 C 69.970531,62.654737 70.982695,64 73.671688,64 L 117.625,64 C 121.47089,64 124.08399,61.345621 124.08399,57.749869 L 124.01512,13.671851 C 124.01512,11.191096 123.11261,9.8286218 121.83365,9.3222363 C 120.51933,8.8018514 118.80044,9.1995576 116.72656,11.273436 L 106.53125,21.46875 C 95.671902,10.609399 80.656349,3.90625 64.09375,3.90625 z "
         style="opacity:0.68913861;fill:url(#radialGradient3658);fill-opacity:1;stroke:none;stroke-width:2;stroke-linecap:round;stroke-linejoin:round;stroke-miterlimit:4;stroke-dashoffset:1.08779998;stroke-opacity:1" />
      <path
         style="opacity:1;fill:url(#radialGradient3654);fill-opacity:1;stroke:none;stroke-width:2;stroke-linecap:round;stroke-linejoin:round;stroke-miterlimit:4;stroke-dashoffset:1.08779998;stroke-opacity:1"
         d="M 64.09375,3.90625 C 30.968558,3.9062499 4.0937499,30.781055 4.09375,63.90625 C 4.0937501,97.031442 30.96856,123.90625 64.09375,123.90625 C 94.382866,123.90625 119.43036,101.68999 123.5,72.5625 L 88.46875,67.53125 C 86.844066,79.492379 76.538676,88.5 64.09375,88.5 C 50.522122,88.499999 39.5,77.477881 39.5,63.90625 C 39.500001,50.334616 50.522119,39.3125 64.09375,39.3125 C 70.879568,39.312499 77.015044,42.077544 81.46875,46.53125 L 71.141571,56.858429 C 69.085701,58.914299 68.897846,60.164209 69.461963,61.473958 C 69.970531,62.654737 70.982695,64 73.671688,64 L 117.625,64 C 121.47089,64 124.08399,61.345621 124.08399,57.749869 L 124.01512,13.671851 C 124.01512,11.191096 123.11261,9.8286218 121.83365,9.3222363 C 120.51933,8.8018514 118.80044,9.1995576 116.72656,11.273436 L 106.53125,21.46875 C 95.671902,10.609399 80.656349,3.90625 64.09375,3.90625 z "
         id="path3643"
         sodipodi:nodetypes="cssccsssccsccccsccc" />
      <path
         sodipodi:nodetypes="cssccsssccsccccsccc"
         id="path3742"
         d="M 64.09375,3.90625 C 30.968558,3.9062499 4.0937499,30.781055 4.09375,63.90625 C 4.0937501,97.031442 30.96856,123.90625 64.09375,123.90625 C 94.382866,123.90625 119.43036,101.68999 123.5,72.5625 L 88.46875,67.53125 C 86.844066,79.492379 76.538676,88.5 64.09375,88.5 C 50.522122,88.499999 39.5,77.477881 39.5,63.90625 C 39.500001,50.334616 50.522119,39.3125 64.09375,39.3125 C 70.879568,39.312499 77.015044,42.077544 81.46875,46.53125 L 71.141571,56.858429 C 69.085701,58.914299 68.897846,60.164209 69.461963,61.473958 C 69.970531,62.654737 70.982695,64 73.671688,64 L 117.625,64 C 121.47089,64 124.08399,61.345621 124.08399,57.749869 L 124.01512,13.671851 C 124.01512,11.191096 123.11261,9.8286218 121.83365,9.3222363 C 120.51933,8.8018514 118.80044,9.1995576 116.72656,11.273436 L 106.53125,21.46875 C 95.671902,10.609399 80.656349,3.90625 64.09375,3.90625 z "
         style="opacity:0.79775277;fill:url(#radialGradient3744);fill-opacity:1;stroke:none;stroke-width:2;stroke-linecap:round;stroke-linejoin:round;stroke-miterlimit:4;stroke-dashoffset:1.08779998;stroke-opacity:1" />
      <path
         style="opacity:0.74531836;fill:url(#radialGradient3767);fill-opacity:1;stroke:none;stroke-width:2;stroke-linecap:round;stroke-linejoin:round;stroke-miterlimit:4;stroke-dashoffset:1.08779998;stroke-opacity:1;filter:url(#filter3630)"
         d="M 64.09375,4.20625 C 30.968558,4.2062499 4.0937499,30.781055 4.09375,63.90625 C 4.0937501,97.031442 30.96856,123.90625 64.09375,123.90625 C 94.382866,123.90625 119.43036,101.68999 123.5,72.5625 L 88.46875,67.53125 C 86.844066,79.492379 76.538676,88.5 64.09375,88.5 C 50.522122,88.499999 39.5,77.477881 39.5,63.90625 C 39.500001,50.334616 50.522119,39.3125 64.09375,39.3125 C 70.879568,39.312499 77.015044,42.077544 81.46875,46.53125 L 71.141571,56.858429 C 69.085701,58.914299 68.897846,60.164209 69.461963,61.473958 C 69.970531,62.654737 70.982695,64 73.671688,64 L 117.625,64 C 121.47089,64 124.08399,61.345621 124.08399,57.749869 L 124.01512,13.671851 C 124.01512,11.191096 123.11261,9.8286218 121.83365,9.3222363 C 120.51933,8.8018514 118.80044,9.1995576 116.72656,11.273436 L 106.53125,21.46875 C 95.671902,10.609399 80.656349,4.20625 64.09375,4.20625 z "
         id="path3759"
         sodipodi:nodetypes="cssccsssccsccccsccc" />
      <path
         sodipodi:nodetypes="cccczc"
         id="path3660"
         d="M 117.6875,10.75 L 118.625,15.125 L 119.875,16 L 123.875,13.375 C 124.12188,11.651249 123.52383,10.027571 121.9375,9.3749999 C 120.35116,8.7224285 118.77622,9.5017032 117.6875,10.75 z "
         style="opacity:0.82022472;fill:url(#linearGradient3676);fill-opacity:1;fill-rule:evenodd;stroke:none;stroke-width:1px;stroke-linecap:butt;stroke-linejoin:miter;stroke-opacity:1;filter:url(#filter3738)" />
      <path
         transform="matrix(0,1,1,0,60.363582,-60.363586)"
         style="opacity:0.82022472;fill:url(#linearGradient3771);fill-opacity:1;fill-rule:evenodd;stroke:none;stroke-width:1px;stroke-linecap:butt;stroke-linejoin:miter;stroke-opacity:1;filter:url(#filter3738)"
         d="M 117.6875,10.75 L 119.875,13.875 L 120.375,13.75 L 123.875,13.375 C 124.12188,11.651249 123.52383,10.027571 121.9375,9.3749999 C 120.35116,8.7224285 118.77622,9.5017032 117.6875,10.75 z "
         id="path3769"
         sodipodi:nodetypes="cccczc" />
      <path
         id="path3494"
         d="M 64.09375,7.90625 C 33.132052,7.9062499 8.0937499,32.944549 8.09375,63.90625 C 8.0937501,94.867948 33.132054,119.90625 64.09375,119.90625 C 91.026646,119.90625 113.21548,101.0995 118.625,75.90625 L 91.5,72.03125 C 88.061436,83.928551 77.059621,92.5 64.09375,92.5 C 48.356404,92.499999 35.5,79.643599 35.5,63.90625 C 35.500001,48.168899 48.356402,35.3125 64.09375,35.3125 C 71.966166,35.312499 79.145304,38.520304 84.3125,43.6875 C 85.071964,44.438909 85.499997,45.462886 85.5,46.53125 C 85.5,47.599614 85.071964,48.623591 84.3125,49.375 L 73.6875,60 L 117.625,60 C 119.63039,60 120.09375,59.407836 120.09375,57.75 L 120,13.65625 L 109.375,24.3125 C 108.62359,25.071964 107.59961,25.5 106.53125,25.5 C 105.46289,25.5 104.43891,25.071964 103.6875,24.3125 C 93.549835,14.174833 79.577106,7.90625 64.09375,7.90625 z "
         style="opacity:1;fill:url(#radialGradient3524);fill-opacity:1;stroke:none;stroke-width:4;stroke-linecap:round;stroke-linejoin:round;stroke-miterlimit:4;stroke-dasharray:none;stroke-dashoffset:1.08779998;stroke-opacity:1" />
      <path
         style="opacity:1;fill:url(#radialGradient3535);fill-opacity:1;stroke:none;stroke-width:4;stroke-linecap:round;stroke-linejoin:round;stroke-miterlimit:4;stroke-dasharray:none;stroke-dashoffset:1.08779998;stroke-opacity:1"
         d="M 64.09375,7.90625 C 33.132052,7.9062499 8.0937499,32.944549 8.09375,63.90625 C 8.0937501,94.867948 33.132054,119.90625 64.09375,119.90625 C 91.026646,119.90625 113.21548,101.0995 118.625,75.90625 L 91.5,72.03125 C 88.061436,83.928551 77.059621,92.5 64.09375,92.5 C 48.356404,92.499999 35.5,79.643599 35.5,63.90625 C 35.500001,48.168899 48.356402,35.3125 64.09375,35.3125 C 71.966166,35.312499 79.145304,38.520304 84.3125,43.6875 C 85.071964,44.438909 85.499997,45.462886 85.5,46.53125 C 85.5,47.599614 85.071964,48.623591 84.3125,49.375 L 73.6875,60 L 117.625,60 C 119.63039,60 120.09375,59.407836 120.09375,57.75 L 120,13.65625 L 109.375,24.3125 C 108.62359,25.071964 107.59961,25.5 106.53125,25.5 C 105.46289,25.5 104.43891,25.071964 103.6875,24.3125 C 93.549835,14.174833 79.577106,7.90625 64.09375,7.90625 z "
         id="path3526" />
      <path
         sodipodi:nodetypes="csccssccccccscc"
         id="path3537"
         d="M 64.09375,7.90625 C 33.132052,7.9062499 8.0937499,32.944549 8.09375,63.90625 C 8.09375,64.474122 8.1082724,65.029981 8.125,65.59375 C 14.11447,66.271402 20.266218,66.74388 26.53125,67 C 26.260548,56.540958 30.202859,46.025084 38.34375,38.21875 C 53.683067,23.509813 78.072313,24.004431 92.78125,39.34375 C 95.545099,42.226046 97.537852,45.032117 99.34375,48.59375 L 78.84375,59 L 98,59 C 105.9282,56.973373 113.18621,55.563033 120.09375,52.8125 L 120,13.65625 L 109.375,24.3125 C 108.62359,25.071964 107.59961,25.5 106.53125,25.5 C 105.46289,25.5 104.43891,25.071964 103.6875,24.3125 C 93.549835,14.174833 79.577106,7.90625 64.09375,7.90625 z "
         style="opacity:1;fill:url(#linearGradient3548);fill-opacity:1;stroke:none;stroke-width:8;stroke-linecap:round;stroke-linejoin:round;stroke-miterlimit:4;stroke-dasharray:none;stroke-dashoffset:1.08779998;stroke-opacity:1" />
      <path
         sodipodi:nodetypes="cscscscccccccccccssssssccscscc"
         id="path3553"
         d="M 64.099866,7.9087646 C 33.138176,7.9087644 8.0998661,32.947063 8.0998661,63.908764 C 8.0998761,64.087476 8.0973761,64.263059 8.0998661,64.440014 C 8.3531061,33.696509 33.295846,8.9087645 64.099866,8.9087646 C 79.583236,8.9087645 93.555946,15.177347 103.69361,25.315014 C 104.44503,26.074479 105.469,26.502514 106.53736,26.502514 C 107.60573,26.502515 108.6297,26.074478 109.38111,25.315014 L 119.50611,15.158764 L 119.99986,52.708764 C 113.09232,55.459294 105.43431,56.569624 97.506116,58.596264 L 78.849866,59.002514 L 98.006116,59.002514 C 105.93431,56.975884 113.19232,55.565544 120.09986,52.815014 L 120.00611,14.658764 L 120.00611,13.658764 L 119.50611,14.158764 L 109.38111,24.315014 C 108.62971,25.074479 107.60572,25.502514 106.53736,25.502514 C 105.46901,25.502515 104.44502,25.074478 103.69361,24.315014 C 103.68314,24.304548 103.67283,24.294222 103.66236,24.283764 C 103.60999,24.231473 103.55869,24.179598 103.50611,24.127514 C 102.93231,23.559643 102.35524,23.012364 101.75611,22.471264 C 101.67459,22.397145 101.58807,22.326157 101.50611,22.252514 C 91.590066,13.342335 78.496526,7.9087646 64.099866,7.9087646 z M 63.443616,27.127514 C 54.205446,27.378034 45.040176,30.920194 37.849866,37.815014 C 30.217786,45.133448 26.722316,55.187931 26.537366,65.033764 C 26.777246,55.231884 30.717786,45.539698 38.349866,38.221264 C 51.665996,25.452364 71.803196,24.123207 86.506116,34.033764 C 79.627056,29.22869 71.518656,26.908534 63.443616,27.127514 z "
         style="opacity:1;fill:url(#linearGradient3581);fill-opacity:1;stroke:none;stroke-width:8;stroke-linecap:round;stroke-linejoin:round;stroke-miterlimit:4;stroke-dasharray:none;stroke-dashoffset:1.08779998;stroke-opacity:1" />
      <path
         id="path3603"
         d="M 63.59375,7.90625 C 32.63205,7.9062499 7.59375,32.944549 7.59375,63.90625 C 7.59375,94.867948 32.63205,119.90625 63.59375,119.90625 C 90.52665,119.90625 112.71548,101.0995 118.125,75.90625 L 91,72.03125 C 87.56144,83.928551 76.55962,92.5 63.59375,92.5 C 47.8564,92.499999 35,79.643599 35,63.90625 C 35,48.168899 47.8564,35.3125 63.59375,35.3125 C 71.46617,35.312499 78.6453,38.520304 83.8125,43.6875 C 84.57196,44.438909 85,45.462886 85,46.53125 C 85,47.599614 84.57196,48.623591 83.8125,49.375 L 73.1875,60 L 117.125,60 C 119.13039,60 119.59375,59.407836 119.59375,57.75 L 119.5,13.65625 L 108.875,24.3125 C 108.12359,25.071964 107.09961,25.5 106.03125,25.5 C 104.96289,25.5 103.93891,25.071964 103.1875,24.3125 C 93.04984,14.174833 79.07711,7.90625 63.59375,7.90625 z "
         style="opacity:1;fill:none;fill-opacity:1;stroke:url(#linearGradient3567);stroke-width:1;stroke-linecap:round;stroke-linejoin:round;stroke-miterlimit:4;stroke-dasharray:none;stroke-dashoffset:1.08779998;stroke-opacity:1;filter:url(#filter3639)" />
    </g>
  </g>
</svg>
