<?xml version="1.0" encoding="UTF-8" standalone="no"?>
<!-- Generator: Adobe Illustrator 15.0.0, SVG Export Plug-In . SVG Version: 6.00 Build 0)  -->

<svg
   xmlns:dc="http://purl.org/dc/elements/1.1/"
   xmlns:cc="http://creativecommons.org/ns#"
   xmlns:rdf="http://www.w3.org/1999/02/22-rdf-syntax-ns#"
   xmlns:svg="http://www.w3.org/2000/svg"
   xmlns="http://www.w3.org/2000/svg"
   xmlns:sodipodi="http://sodipodi.sourceforge.net/DTD/sodipodi-0.dtd"
   xmlns:inkscape="http://www.inkscape.org/namespaces/inkscape"
   version="1.1"
   id="Layer_1"
   x="0px"
   y="0px"
   width="148.90399"
   height="202.65399"
   viewBox="0 0 148.90399 202.65399"
   enable-background="new 0 0 595.279 841.89"
   xml:space="preserve"
   inkscape:version="0.47 r22583"
   sodipodi:docname="sync.svg"><metadata
   id="metadata16"><rdf:RDF><cc:Work
       rdf:about=""><dc:format>image/svg+xml</dc:format><dc:type
         rdf:resource="http://purl.org/dc/dcmitype/StillImage" /></cc:Work></rdf:RDF></metadata><defs
   id="defs14"><inkscape:perspective
     sodipodi:type="inkscape:persp3d"
     inkscape:vp_x="0 : 420.94501 : 1"
     inkscape:vp_y="0 : 1000 : 0"
     inkscape:vp_z="595.27899 : 420.94501 : 1"
     inkscape:persp3d-origin="297.6395 : 280.63 : 1"
     id="perspective18" /></defs><sodipodi:namedview
   pagecolor="#ffffff"
   bordercolor="#666666"
   borderopacity="1"
   objecttolerance="10"
   gridtolerance="10"
   guidetolerance="10"
   inkscape:pageopacity="0"
   inkscape:pageshadow="2"
   inkscape:window-width="640"
   inkscape:window-height="489"
   id="namedview12"
   showgrid="false"
   inkscape:zoom="0.28032165"
   inkscape:cx="74.306499"
   inkscape:cy="96.520999"
   inkscape:window-x="0"
   inkscape:window-y="41"
   inkscape:window-maximized="0"
   inkscape:current-layer="Layer_1" />
<path
   d="M 138.576,4.6879868 H 10.329 C 4.625,4.6879868 0,9.3129868 0,15.016987 V 192.32599 c 0,5.705 4.625,10.328 10.329,10.328 h 128.247 c 5.703,0 10.328,-4.623 10.328,-10.328 V 15.016987 C 148.905,9.3129868 144.28,4.6879868 138.576,4.6879868 z m -0.86,176.1340032 c 0,5.703 -4.625,10.326 -10.328,10.326 H 97.585 v -55.31 h 12.149 l -35.604,-35.606 -35.605,35.606 h 12.15 v 55.311 H 21.518 c -5.704,0 -10.329,-4.623 -10.329,-10.326 V 25.775987 c 0,-5.704 4.625,-10.329 10.329,-10.329 h 105.869 c 5.703,0 10.328,4.625 10.328,10.329 v 148.046003 7 z M 99.286,42.298987 h -74 v -7 h 74 v 7 z m 27,17.111 h -101 v -7 h 101 v 7 z m 0,17.111 h -101 v -7 h 101 v 7 z m 0,17.112 h -101 v -7 h 101 v 7 z"
   id="path3"
   style="fill:#ffffff" />
<linearGradient
   id="SVGID_1_"
   gradientUnits="userSpaceOnUse"
   x1="297.64529"
   y1="525.29828"
   x2="297.64529"
   y2="327.84811"
   gradientTransform="matrix(1,0,0,-1,-223.1929,526.13229)">
	<stop
   offset="0"
   style="stop-color:#4990CD"
   id="stop6" />
	<stop
   offset="1"
   style="stop-color:#2F67B2"
   id="stop8" />
</linearGradient>
<path
   d="M 138.576,-1.3194025e-5 H 10.329 C 4.625,-1.3194025e-5 0,4.6249868 0,10.328987 V 187.63799 c 0,5.705 4.625,10.328 10.329,10.328 h 128.247 c 5.703,0 10.328,-4.623 10.328,-10.328 V 10.329987 C 148.905,4.6259868 144.28,-1.3194025e-5 138.576,-1.3194025e-5 z M 137.716,176.13499 c 0,5.703 -4.625,10.326 -10.328,10.326 H 97.585 v -55.311 h 12.149 L 74.13,95.543987 38.525,131.14999 h 12.15 v 55.311 H 21.518 c -5.704,0 -10.329,-4.623 -10.329,-10.326 V 21.087987 c 0,-5.704 4.625,-10.329 10.329,-10.329 h 105.869 c 5.703,0 10.328,4.625 10.328,10.329 v 148.046003 7.001 z M 99.286,37.610987 h -74 v -7 h 74 v 7 z m 27,17.112 h -101 v -7 h 101 v 7 z m 0,17.111 h -101 v -7 h 101 v 7 z m 0,17.111 h -101 v -7 h 101 v 7 z"
   id="path10"
   style="fill:url(#SVGID_1_)" />
</svg>