<svg xmlns="http://www.w3.org/2000/svg" xmlns:xlink="http://www.w3.org/1999/xlink" width="128" height="128" viewBox="0 0 128 128"><defs><radialGradient xlink:href="#a" id="f" gradientUnits="userSpaceOnUse" gradientTransform="matrix(1.844 .01 -.009 1.598 45.475 -96.572)" spreadMethod="reflect" cx="-52.251" cy="128.001" fx="-52.251" fy="128.001" r="36.937"/><linearGradient id="a"><stop offset="0" stop-color="#d7d7d7"/><stop offset=".426" stop-color="#e3e3e3"/><stop offset=".589" stop-color="#f1f1f1"/><stop offset=".802" stop-color="#d1d1d1"/><stop offset="1" stop-color="#d0d0d0"/></linearGradient><linearGradient xlink:href="#b" id="g" gradientUnits="userSpaceOnUse" gradientTransform="translate(.145 -.233)" x1="96.438" y1="14.713" x2="96.398" y2="23.268"/><linearGradient id="b"><stop offset="0" stop-color="#fff"/><stop offset="1" stop-color="#fff" stop-opacity="0"/></linearGradient><linearGradient xlink:href="#c" id="h" gradientUnits="userSpaceOnUse" gradientTransform="matrix(.966 0 0 .944 3.248 -.449)" x1="111.302" y1="-18.911" x2="108.563" y2="26.541"/><linearGradient y2="3.112" x2="17.046" y1="7.607" x1="17.046" gradientUnits="userSpaceOnUse" id="c"><stop offset="0" stop-color="#eee"/><stop offset=".291" stop-color="#CECECE"/><stop offset=".85" stop-color="#888"/><stop offset="1" stop-color="#555"/></linearGradient><linearGradient xlink:href="#c" id="i" gradientUnits="userSpaceOnUse" gradientTransform="matrix(1 0 0 .989 .145 .129)" x1="112.141" y1=".23" x2="108.563" y2="41.497"/><radialGradient xlink:href="#d" id="j" gradientUnits="userSpaceOnUse" gradientTransform="matrix(.382 .112 -.14 .478 70.022 5.233)" cx="99.499" cy="33.076" fx="92.406" fy="33.504" r="17.846"/><linearGradient id="d"><stop offset="0"/><stop offset="1" stop-opacity="0"/></linearGradient><linearGradient xlink:href="#e" id="k" x1="76.962" y1="15.276" x2="93.23" y2="15.276" gradientUnits="userSpaceOnUse" gradientTransform="matrix(.793 0 0 .983 682.37 657.655)"/><linearGradient id="e"><stop offset="0" stop-color="#f28935"/><stop offset="1" stop-color="#b9590c"/></linearGradient></defs><g transform="translate(0 -924.362)"><g transform="matrix(.997 0 0 .994 .846 927.593)"><path d="M65.957 16.86c-3.05-.276-6.187.749-8.531 3.094l-54.125 54.094c-4.195 4.195-4.195 10.961 0 15.156l30.156 30.156c4.195 4.195 10.961 4.195 15.156 0l54.094-54.125c2.491-2.491 3.133-5.87 3.125-9.094l-.063-28.688c0-5.933-4.786-10.719-10.719-10.719 0 0-28.608.092-29.094.125zm28.844 5.125c3.663-.161 6.156 2.485 6.156 5.563 0 3.077-2.485 5.563-5.563 5.563-3.077 0-5.594-2.485-5.594-5.563 0-2.885 2.182-5.438 5-5.563z"/><rect transform="rotate(-45)" rx="7.898" ry="7.898" y="64.655" x="-51.673" height="44.168" width="73.875" fill="url(#f)"/><path d="M95.974 17.823l-31.227-.084c-1.762 0-4.256.943-5.872 2.558l-5.065 4.845c2.414-2.414 7.213-5.725 11.093-5.725 7.421 0 27.351-.098 31.07-.032 3.712 0 7.055 2.121 8.955 5.411-.689-1.943-4.673-6.973-8.955-6.973z" fill="url(#g)" fill-rule="evenodd"/><path d="M100.828 26.327c-1.89-1.728-3.415-4.671-3.415-7.921 0-3.533 1.968-6.824 4.143-9.474 2.175-2.65 5.288-4.124 7.583-4.649 2.296-.525 5.795-.122 7.97 1.534 2.175 1.657 3.474 4.259 3.474 7.793 0 3.533-2.028 6.985-4.203 9.635-2.175 2.65-5.987 4.45-8.283 4.975-.905.207-1.395.259-2.349.164v3.641c.907-.077 1.377-.178 2.349-.4 5.412-1.237 9.827-4.369 12.706-7.878 2.88-3.509 4.527-7.616 4.527-11.714 0-4.098-1.648-7.456-4.527-9.649-2.227-1.696-5.363-2.775-9.175-2.597-1.117.052-2.305.221-3.531.502-5.412 1.237-9.857 4.399-12.736 7.908-2.88 3.509-4.497 7.587-4.497 11.685 0 4.098 1.617 7.485 4.497 9.678.54.411 2.488 1.272 1.781 1.092-.007-.002 1.963 1.252 1.855.684 1.811-.738 2.209-3.478 1.832-5.009z" fill="url(#h)"/><path d="M97.375 32.752c2.1-.774 3.39-2.539 3.56-4.735-1.957-1.811-3.291-4.723-3.291-8.129 0-3.703 2.037-7.151 4.29-9.929 2.252-2.778 5.475-4.322 7.852-4.872 2.377-.55 6-.128 8.252 1.608 2.252 1.736 3.597 4.463 3.597 8.166 0 3.703-2.1 7.32-4.352 10.097-2.252 2.778-6.199 4.664-8.576 5.213-.937.217-1.961.316-2.949.216v3.816c.939-.081 1.942-.231 2.949-.464 5.604-1.296 10.175-4.579 13.156-8.256 2.982-3.677 4.688-7.982 4.688-12.276s-1.706-7.813-4.688-10.111c-2.306-1.778-5.553-2.908-9.5-2.721-1.156.055-2.387.232-3.656.526-5.604 1.296-10.206 4.61-13.188 8.287-2.982 3.677-4.656 7.951-4.656 12.245s1.675 7.844 4.656 10.142c.559.431 1.186.833 1.856 1.176z" fill="url(#i)"/><path d="M100.935 27.951c-1.957-1.83-3.291-4.773-3.291-8.216 0-3.742 1.498-7.443 3.75-10.25 2.252-2.807 4.935-4.476 7.313-5.031 2.377-.556 5.029-.129 7.281 1.625s3.813 4.727 3.813 8.469c0 3.742-1.56 7.505-3.813 10.313-2.252 2.807-4.904 4.413-7.281 4.969-.937.219-1.919.319-2.906.219v4.156c.939-.082 1.899-.233 2.906-.469 5.604-1.31 10.175-4.627 13.156-8.344 2.982-3.716 4.688-8.066 4.688-12.406s-1.706-7.896-4.688-10.219c-2.306-1.796-5.553-2.939-9.5-2.75-1.156.055-2.387.235-3.656.531-5.604 1.31-10.206 4.659-13.188 8.375-2.982 3.716-4.656 8.035-4.656 12.375s1.675 7.927 4.656 10.25c.559.436 1.174.81 1.844 1.156h.031c2.069-.782 3.371-2.534 3.541-4.753z" fill="none"/><path d="M91.542 25.863c.749 2.312 2.114 4.243 3.994 5.692.559.431 1.155.852 1.824 1.195 2.673-.957 4.036-3.527 3.491-6.447-.154-.14-.323-.285-.472-.44h-8.837zm21.856 0c-1.849 1.219-3.88 2.031-5.315 2.359-.905.207-1.373.252-2.327.157v5.849c.939-.081 1.949-.239 2.956-.472 5.399-1.249 9.847-4.378 12.83-7.893h-8.145z" opacity=".607" fill="url(#j)"/></g><rect width="12.898" height="59.568" x="743.388" y="642.89" rx="6.262" ry=".871" transform="matrix(.71 .704 -.708 .707 0 0)" fill="url(#k)" fill-rule="evenodd"/></g></svg>