<svg xmlns="http://www.w3.org/2000/svg" xmlns:xlink="http://www.w3.org/1999/xlink" width="128" height="128" viewBox="0 0 128 128"><defs><radialGradient xlink:href="#a" id="b" cx="64" cy="999.362" fx="64" fy="999.362" r="29" gradientTransform="matrix(1.253 0 0 1.253 -15.507 -249.61)" gradientUnits="userSpaceOnUse"/><linearGradient id="a"><stop offset="0" stop-color="#34ae3d"/><stop offset="1" stop-color="#26822e"/></linearGradient></defs><path d="M16.022 39.857c1.61-4.829 6.438-8.316 11.803-8.316h74.038c1.073 0 2.146-.805 2.146-1.878v-4.829c0-2.414-1.878-4.292-4.56-4.292h-56.87c-2.414 0-4.56-1.878-4.56-4.292v-1.61c0-2.414-1.878-4.292-4.56-4.292h-27.898c-2.683 0-4.56 1.878-4.56 4.292v70.82c0 .537.805.805 1.073.268l13.949-45.871z" fill="#1c168e"/><path d="M101.595 117.651h-95.498c-2.414 0-4.292-2.414-3.487-4.56l21.729-70.819c.537-1.61 1.878-2.683 3.487-2.683h95.498c2.414 0 4.292 2.414 3.487 4.56l-21.729 70.819c-.537 1.61-1.878 2.683-3.487 2.683z" fill="#3027dd"/><path d="M101.058 73.663v9.913q0 2.065-1.446 3.511-1.446 1.446-3.511 1.446h-21.479v21.479q0 2.065-1.446 3.511-1.446 1.446-3.511 1.446h-9.913q-2.065 0-3.511-1.446-1.446-1.446-1.446-3.511v-21.479h-21.479q-2.065 0-3.511-1.446-1.446-1.445-1.446-3.511v-9.913q0-2.065 1.446-3.511 1.446-1.446 3.511-1.446h21.479v-21.479q0-2.065 1.446-3.511 1.446-1.446 3.511-1.446h9.913q2.065 0 3.511 1.446 1.446 1.446 1.446 3.511v21.479h21.479q2.065 0 3.511 1.446 1.446 1.446 1.446 3.511z" fill="url(#b)"/></svg>