<svg xmlns="http://www.w3.org/2000/svg" xmlns:svg="http://www.w3.org/2000/svg" xmlns:xlink="http://www.w3.org/1999/xlink" id="svg2" width="128" height="128" version="1.1" viewBox="0 0 128 128"><defs id="defs4"><radialGradient id="radialGradient4148" cx="64" cy="999.362" r="29" fx="64" fy="999.362" gradientTransform="matrix(1.2533887,0,0,1.2533914,-15.506646,-249.60979)" gradientUnits="userSpaceOnUse" xlink:href="#linearGradient4142"/><linearGradient id="linearGradient4142"><stop style="stop-color:#34ae3d;stop-opacity:1" id="stop4144" offset="0"/><stop style="stop-color:#26822e;stop-opacity:1" id="stop4146" offset="1"/></linearGradient></defs><metadata id="metadata7"/><g id="layer1" transform="translate(0,-924.36216)"><path id="path6" d="m 16.022202,964.21933 c 1.609522,-4.82856 6.438087,-8.31586 11.803159,-8.31586 l 74.037999,0 c 1.07301,0 2.14603,-0.80476 2.14603,-1.87778 l 0,-4.82856 c 0,-2.41428 -1.87778,-4.29206 -4.560315,-4.29206 l -56.869766,0 c -2.414282,0 -4.560311,-1.87777 -4.560311,-4.29206 l 0,-1.60952 c 0,-2.41428 -1.877775,-4.29206 -4.560311,-4.29206 l -27.8983757,0 c -2.6825361,0 -4.56031139,1.87778 -4.56031139,4.29206 l 0,5.90158 0,3.75555 0,61.16178 c 0,0.5366 0.80476079,0.8048 1.07301449,0.2683 L 16.022202,964.21933 Z" style="fill:#1c168e;fill-opacity:1"/><path id="path8" d="m 101.5951,1042.0129 -95.4982815,0 c -2.4142825,0 -4.2920578,-2.4143 -3.4872969,-4.5603 L 24.338064,966.63361 c 0.536507,-1.60952 1.877775,-2.68253 3.487297,-2.68253 l 95.498289,0 c 2.41428,0 4.29205,2.41428 3.48729,4.56031 l -21.72854,70.81891 c -0.53651,1.6096 -1.87777,2.6826 -3.4873,2.6826 z" style="fill:#3027dd;fill-opacity:1"/><path id="path4-3" d="m 101.0585,998.0254 0,9.9132 q 0,2.0654 -1.44566,3.5107 -1.445668,1.4458 -3.510911,1.4458 l -21.478529,0 0,21.4788 q 0,2.065 -1.445663,3.5106 -1.445675,1.4458 -3.510915,1.4458 l -9.913165,0 q -2.065252,0 -3.510915,-1.4458 -1.445673,-1.4456 -1.445673,-3.5106 l 0,-21.4788 -21.478522,0 q -2.06524,0 -3.510909,-1.4458 -1.44568,-1.4453 -1.44568,-3.5107 l 0,-9.9132 q 0,-2.0652 1.44568,-3.51087 1.445669,-1.44578 3.510909,-1.44578 l 21.478522,0 0,-21.47854 q 0,-2.06522 1.445673,-3.5109 1.445663,-1.44568 3.510915,-1.44568 l 9.913165,0 q 2.06524,0 3.510915,1.44568 1.445663,1.44568 1.445663,3.5109 l 0,21.47854 21.478529,0 q 2.065243,0 3.510911,1.44578 1.44566,1.44567 1.44566,3.51087 z" style="fill:url(#radialGradient4148);fill-opacity:1"/></g></svg>