<svg xmlns="http://www.w3.org/2000/svg" width="128" height="128" viewBox="0 0 128 128"><path d="M127 23.666v-16.367c0-3.472-2.828-6.299-6.3-6.299h-113.4c-3.472 0-6.3 2.827-6.3 6.299v16.367c0 1.389 1.116 2.529 2.53 2.529h120.965c1.389 0 2.505-1.116 2.505-2.529zm-97.03 15.127h-26.44c-1.389 0-2.53 1.116-2.53 2.529v79.354c0 3.472 2.828 6.299 6.3 6.299h22.67c1.389 0 2.53-1.116 2.53-2.53v-83.124c0-1.413-1.116-2.529-2.53-2.529z" fill="#0e00c1"/><path d="M45.1 41.322v83.149c0 1.389 1.116 2.53 2.53 2.53h73.07c3.472 0 6.3-2.827 6.3-6.299v-79.354c0-1.389-1.116-2.529-2.53-2.529h-76.84c-1.414-.025-2.53 1.091-2.53 2.505z" fill="#1458da"/></svg>