<svg xmlns="http://www.w3.org/2000/svg" xmlns:svg="http://www.w3.org/2000/svg" id="svg2" width="128" height="128" version="1.1" viewBox="0 0 128 128"><metadata id="metadata7"/><g id="layer1" transform="translate(0,-924.36216)"><path id="path6" d="m 127,948.02777 0,-16.36685 c 0,-3.47176 -2.82756,-6.29876 -6.3,-6.29876 l -113.4000009,0 c -3.472441,0 -6.3000001,2.827 -6.3000001,6.29876 l 0,16.36685 c 0,1.38871 1.1161418,2.52943 2.5299213,2.52943 l 120.9649597,0 c 1.38898,0 2.50512,-1.11593 2.50512,-2.52943 z" style="fill:#0e00c1;fill-opacity:1"/><path id="path8" d="m 29.970078,963.15472 -26.4401577,0 c -1.3889764,0 -2.5299213,1.11592 -2.5299213,2.52942 l 0,79.35446 c 0,3.4718 2.8275591,6.2988 6.3000001,6.2988 l 22.6700789,0 c 1.388977,0 2.529922,-1.116 2.529922,-2.5295 l 0,-83.12376 c 0,-1.4135 -1.116142,-2.52942 -2.529922,-2.52942 z" style="fill:#0e00c1;fill-opacity:1"/><path id="path10" d="m 45.1,965.68414 0,83.14856 c 0,1.3887 1.116141,2.5295 2.529921,2.5295 l 73.070079,0 c 3.47244,0 6.3,-2.827 6.3,-6.2988 l 0,-79.35446 c 0,-1.38871 -1.11614,-2.52943 -2.52992,-2.52943 l -76.840159,0 C 46.216141,963.15472 45.1,964.27064 45.1,965.68414 Z" style="fill:#1458da;fill-opacity:1"/></g></svg>