<svg xmlns="http://www.w3.org/2000/svg" xmlns:xlink="http://www.w3.org/1999/xlink" width="128" height="128" viewBox="0 0 128 128"><defs><linearGradient id="a"><stop offset="0" stop-color="#020e1e"/><stop offset="1" stop-color="#116def"/></linearGradient><linearGradient xlink:href="#a" id="b" x1="39.101" y1="928.393" x2="39.101" y2="982.054" gradientUnits="userSpaceOnUse"/></defs><path d="M127.002 1024.967v23.395h-65.832l-33.886-28.567a4.784 4.789 0 0 1 2.36-8.403 22.965 22.986 0 0 1 16.496 3.767l12.886 8.939 1.518-65.612a8.739 8.747 0 1 1 17.479 0l2.309 38.463 28.157 5.517a22.965 22.986 0 0 1 18.512 22.501z" fill="#116def" transform="translate(0 -924.362)"/><path d="M6.36 939.089h57.833a5.358 5.363 0 0 0 0-10.727h-57.833a5.358 5.363 0 1 0 0 10.727zm0 21.364h40.495a5.358 5.363 0 0 0 0-10.727h-40.495a5.358 5.363 0 1 0 0 10.727zm0 21.364h37.892a5.358 5.363 0 0 0 0-10.727h-37.892a5.358 5.363 0 1 0 0 10.727z" transform="translate(0 -924.362)" fill="url(#b)"/><path d="M47.914 73.444"/></svg>