<svg xmlns="http://www.w3.org/2000/svg" xmlns:svg="http://www.w3.org/2000/svg" xmlns:xlink="http://www.w3.org/1999/xlink" id="svg2" width="128" height="128" version="1.1" viewBox="0 0 128 128"><defs id="defs4"><linearGradient id="linearGradient4154"><stop style="stop-color:#2271d5;stop-opacity:1" id="stop4156" offset="0"/><stop style="stop-color:#90bbf8;stop-opacity:1" id="stop4158" offset="1"/></linearGradient><linearGradient id="linearGradient4160" x1="39.101" x2="39.101" y1="928.393" y2="982.054" gradientUnits="userSpaceOnUse" xlink:href="#linearGradient4154"/></defs><metadata id="metadata7"/><g id="layer1" transform="translate(0,-924.36216)"><path id="path4147" d="m 127.002,1024.9675 0,23.3947 -65.832321,0 -33.885781,-28.5666 a 4.7843252,4.7887596 0 0 1 2.360267,-8.4027 l 0,0 a 22.964761,22.986046 0 0 1 16.496354,3.7672 l 12.885783,8.939 1.518225,-65.61244 a 8.7393675,8.7474677 0 1 1 17.478735,0 l 2.309235,38.46337 28.157343,5.51667 a 22.964761,22.986046 0 0 1 18.51216,22.5008 z" style="fill:#2271d5;fill-opacity:1"/><g id="g4149" style="fill-opacity:1;fill:url(#linearGradient4160)"><path id="path4145" d="m 6.3604493,939.08898 57.8329237,0 a 5.358445,5.3634115 0 0 0 0,-10.72682 l -57.8329237,0 a 5.358445,5.3634115 0 1 0 0,10.72682 z" style="fill-opacity:1;fill:url(#linearGradient4160)"/><path id="path4143" d="m 6.3604493,960.45324 40.4945287,0 a 5.3584485,5.363415 0 0 0 0,-10.72683 l -40.4945287,0 a 5.3584485,5.363415 0 1 0 0,10.72683 z" style="fill-opacity:1;fill:url(#linearGradient4160)"/><path id="path4141" d="m 6.3604493,981.81749 37.8918557,0 a 5.358445,5.3634115 0 0 0 0,-10.72682 l -37.8918557,0 a 5.358445,5.3634115 0 1 0 0,10.72682 z" style="fill-opacity:1;fill:url(#linearGradient4160)"/></g><path id="path6" d="M 47.913909,997.80562"/></g></svg>