<svg xmlns="http://www.w3.org/2000/svg" xmlns:svg="http://www.w3.org/2000/svg" id="svg2" width="128" height="128" version="1.1" viewBox="0 0 128 128"><metadata id="metadata7"/><g id="layer1" transform="translate(0,-924.36216)"><g id="g4166" transform="matrix(1.2599874,0,0,1.2599874,79.119219,-229.07794)" style="fill:#2caf45;fill-opacity:1"><path id="path4" d="m -32.474,970.74016 4.475,2.738 c 0.755,0 1.136,-0.312 1.136,-0.936 0,-0.399 -0.182,-0.954 -0.534,-1.669 l -9.887,-18.571 -21.912,0.536 c -0.98,0.046 -1.469,0.557 -1.469,1.536 0,0.223 0.311,0.534 0.935,0.935 l 4.543,2.738 -4.81,7.48 c -1.335,2.139 -2.003,3.901 -2.003,5.28 0,1.25 0.442,2.652 1.335,4.209 l 14.897,25.98404 c -0.357,-1.646 -0.534,-3.206 -0.534,-4.677 0,-2.62304 0.821,-5.20904 2.47,-7.74804 l 11.358,-17.835 0,0 z" style="fill:#2caf45;fill-opacity:1"/><path id="path6" d="m -26.729,955.57716 12.291,-19.038 c -4.59,-10.464 -9.466,-15.7 -14.63,-15.7 -3.119,0 -5.208,0.871 -6.277,2.605 l -11.626,18.573 20.242,13.56 0,0 z" style="fill:#2caf45;fill-opacity:1"/><path id="path8" d="m -36.749,1007.1452 23.714,0 0,-24.64804 -22.846,0 c -2.806,4.007 -4.566,6.728 -5.277,8.15 -1.16,2.27 -1.736,4.58904 -1.736,6.94504 0,6.371 2.046,9.553 6.145,9.553 l 0,0 z" style="fill:#2caf45;fill-opacity:1"/><path id="path10" d="m 12.083,951.03416 10.553,-17.77 c 0.355,-0.621 0.534,-1.269 0.534,-1.936 0,-0.802 -0.267,-1.203 -0.8,-1.203 0.084,0 -0.268,0.134 -1.069,0.401 l -4.81,2.204 -4.408,-8.75 c -1.962,-3.918 -5.879,-5.879 -11.758,-5.879 l -27.454,0 c 3.339,1.026 5.609,2.027 6.812,3.006 2.807,2.228 5.678,6.413 8.617,12.558 l 5.479,11.491 -4.077,1.938 c -0.4,0.18 -0.6,0.534 -0.6,1.068 0,0.668 0.421,1.05 1.269,1.136 l 21.712,1.736 0,0 z" style="fill:#2caf45;fill-opacity:1"/><path id="path12" d="M 22.635,1003.4732 38,975.55016 c -2.271,2.585 -4.743,4.322 -7.414,5.211 -2.138,0.714 -5.193,1.069 -9.154,1.069 l -17.1,0 0,-3.542 c 0,-1.379 -0.335,-2.071 -1.003,-2.071 -0.491,0 -0.849,0.182 -1.068,0.535 l -10.82,18.77104 11.222,17.236 c 0.847,1.292 1.579,1.803 2.204,1.534 0.621,-0.177 0.936,-0.509 0.936,-1 l 0,-5.88 9.485,0 c 3.474,0 5.922,-1.312 7.347,-3.94 l 0,0 z" style="fill:#2caf45;fill-opacity:1"/><path id="path14" d="m 15.956,978.28816 10.222,0 c 2.447,0 4.985,-1.068 7.614,-3.205 2.806,-2.226 4.209,-4.587 4.209,-7.083 0,-1.154 -0.382,-2.291 -1.137,-3.406 l -12.156,-18.57 -20.912,12.16 12.16,20.104 0,0 z" style="fill:#2caf45;fill-opacity:1"/></g></g></svg>