<?xml version="1.0" encoding="UTF-8" standalone="no"?>
<!-- Generator: Adobe Illustrator 15.0.0, SVG Export Plug-In . SVG Version: 6.00 Build 0)  -->

<svg
   xmlns:dc="http://purl.org/dc/elements/1.1/"
   xmlns:cc="http://creativecommons.org/ns#"
   xmlns:rdf="http://www.w3.org/1999/02/22-rdf-syntax-ns#"
   xmlns:svg="http://www.w3.org/2000/svg"
   xmlns="http://www.w3.org/2000/svg"
   xmlns:sodipodi="http://sodipodi.sourceforge.net/DTD/sodipodi-0.dtd"
   xmlns:inkscape="http://www.inkscape.org/namespaces/inkscape"
   version="1.1"
   id="Layer_1"
   x="0px"
   y="0px"
   width="192.6368"
   height="199.16716"
   viewBox="0 0 192.63679 199.16716"
   enable-background="new 0 0 595.28 841.89"
   xml:space="preserve"
   inkscape:version="0.47 r22583"
   sodipodi:docname="trash.svg"><metadata
   id="metadata73"><rdf:RDF><cc:Work
       rdf:about=""><dc:format>image/svg+xml</dc:format><dc:type
         rdf:resource="http://purl.org/dc/dcmitype/StillImage" /></cc:Work></rdf:RDF></metadata><defs
   id="defs71"><inkscape:perspective
     sodipodi:type="inkscape:persp3d"
     inkscape:vp_x="0 : 420.94501 : 1"
     inkscape:vp_y="0 : 1000 : 0"
     inkscape:vp_z="595.28003 : 420.94501 : 1"
     inkscape:persp3d-origin="297.64001 : 280.63 : 1"
     id="perspective75" /></defs><sodipodi:namedview
   pagecolor="#ffffff"
   bordercolor="#666666"
   borderopacity="1"
   objecttolerance="10"
   gridtolerance="10"
   guidetolerance="10"
   inkscape:pageopacity="0"
   inkscape:pageshadow="2"
   inkscape:window-width="640"
   inkscape:window-height="489"
   id="namedview69"
   showgrid="false"
   inkscape:zoom="0.28032165"
   inkscape:cx="97.482787"
   inkscape:cy="98.72122"
   inkscape:window-x="0"
   inkscape:window-y="41"
   inkscape:window-maximized="0"
   inkscape:current-layer="Layer_1" />
<g
   id="g3"
   transform="translate(-200.15722,-320.49905)">
	<g
   id="g5">
		<g
   id="g7">
			<path
   d="m 231.769,376.702 19.747,-33.112 c 0,0 8.577,-13.515 24.714,-7.753 0,0 13.58,3.661 21.062,16.128 l -22.971,45.299 -42.552,-20.562 z"
   id="path9"
   style="fill:#ffffff" />
			<path
   d="m 283.663,333.201 c 0,0 22.297,9.334 32.974,41.023 l -17.979,10.298 c 0,0 -2.589,3.25 1.494,5.341 l 48.675,-2.367 27.181,-41.523 c 0,0 -0.592,-4.971 -3.129,-3.908 -2.538,1.063 -16.684,9.329 -16.684,9.329 0,0 -5.05,-22.762 -35.502,-24.583 0,0 -30.235,-1.839 -35.223,-1.462 0,0 -8.726,-0.021 -7.731,4.484 0.001,10e-4 1.114,3.183 5.924,3.368 z"
   id="path11"
   style="fill:#ffffff" />
		</g>
		<g
   id="g13">
			<path
   d="m 371.654,378.465 18.99,33.555 c 0,0 7.493,14.145 -5.504,25.31 0,0 -9.907,9.985 -24.444,10.312 l -27.979,-42.392 38.937,-26.785 z"
   id="path15"
   style="fill:#ffffff" />
			<path
   d="m 383.747,445.095 c 0,0 -19.149,14.745 -51.97,8.327 l -0.042,-20.718 c 0,0 -1.541,-3.858 -5.38,-1.347 l -22.051,43.455 22.613,44.182 c 0,0 4.614,1.946 4.945,-0.784 0.333,-2.73 0.158,-19.114 0.158,-19.114 0,0 22.273,6.886 38.938,-18.668 0,0 16.571,-25.357 18.714,-29.878 0,0 4.339,-7.567 -0.066,-8.937 0.001,0 -3.316,-0.608 -5.859,3.482 z"
   id="path17"
   style="fill:#ffffff" />
		</g>
		<g
   id="g19">
			<path
   d="m 300.049,499.695 -38.542,-1.019 c 0,0 -15.982,-0.868 -18.854,-17.761 0,0 -3.451,-13.634 3.761,-26.264 l 50.746,-2.129 2.889,47.173 z"
   id="path21"
   style="fill:#ffffff" />
			<path
   d="m 236.717,475.723 c 0,0 -2.769,-24.012 19.644,-48.831 l 17.778,10.641 c 0,0 4.101,0.669 3.926,-3.914 l -25.878,-41.294 -49.514,-3.387 c 0,0 -4.046,2.949 -1.876,4.643 2.168,1.692 16.297,9.984 16.297,9.984 0,0 -17.379,15.54 -4.068,42.991 0,0 13.191,27.268 15.96,31.433 0,0 4.251,7.62 7.694,4.549 -0.001,-0.001 2.231,-2.529 0.037,-6.815 z"
   id="path23"
   style="fill:#ffffff" />
		</g>
	</g>
	<g
   id="g25">
		<linearGradient
   id="SVGID_1_"
   gradientUnits="userSpaceOnUse"
   x1="264.95361"
   y1="323.21881"
   x2="262.95361"
   y2="494.5531">
			<stop
   offset="0"
   style="stop-color:#0E9A48"
   id="stop28" />
			<stop
   offset="1"
   style="stop-color:#166734"
   id="stop30" />
		</linearGradient>
		<path
   d="m 297.292,347.166 c -7.483,-12.467 -21.062,-16.128 -21.062,-16.128 -16.138,-5.762 -24.714,7.753 -24.714,7.753 l -19.747,33.112 42.553,20.562 22.97,-45.299 z"
   id="path32"
   style="fill:url(#SVGID_1_)" />
		<linearGradient
   id="SVGID_2_"
   gradientUnits="userSpaceOnUse"
   x1="326.9375"
   y1="323.9429"
   x2="324.9375"
   y2="495.2746">
			<stop
   offset="0"
   style="stop-color:#0E9A48"
   id="stop35" />
			<stop
   offset="1"
   style="stop-color:#166734"
   id="stop37" />
		</linearGradient>
		<path
   d="m 376.008,341.174 c 0,0 -0.592,-4.971 -3.129,-3.908 -2.538,1.063 -16.684,9.329 -16.684,9.329 0,0 -5.05,-22.762 -35.502,-24.583 0,0 -30.235,-1.839 -35.223,-1.462 0,0 -8.726,-0.021 -7.731,4.484 0,0 1.113,3.182 5.923,3.367 0,0 22.297,9.334 32.974,41.023 l -17.979,10.298 c 0,0 -2.589,3.25 1.494,5.341 l 48.675,-2.367 27.182,-41.522 z"
   id="path39"
   style="fill:url(#SVGID_2_)" />
		<linearGradient
   id="SVGID_3_"
   gradientUnits="userSpaceOnUse"
   x1="363.73929"
   y1="324.37259"
   x2="361.73929"
   y2="495.70441">
			<stop
   offset="0"
   style="stop-color:#0E9A48"
   id="stop42" />
			<stop
   offset="1"
   style="stop-color:#166734"
   id="stop44" />
		</linearGradient>
		<path
   d="m 332.718,400.451 27.979,42.392 c 14.537,-0.327 24.444,-10.312 24.444,-10.312 12.997,-11.165 5.504,-25.31 5.504,-25.31 l -18.99,-33.555 -38.937,26.785 z"
   id="path46"
   style="fill:url(#SVGID_3_)" />
		<linearGradient
   id="SVGID_4_"
   gradientUnits="userSpaceOnUse"
   x1="349.46881"
   y1="324.20459"
   x2="347.46881"
   y2="495.53851">
			<stop
   offset="0"
   style="stop-color:#0E9A48"
   id="stop49" />
			<stop
   offset="1"
   style="stop-color:#166734"
   id="stop51" />
		</linearGradient>
		<path
   d="m 389.607,436.814 c 0,0 -3.317,-0.608 -5.86,3.481 0,0 -19.149,14.745 -51.97,8.327 l -0.042,-20.718 c 0,0 -1.541,-3.858 -5.38,-1.347 l -22.051,43.455 22.613,44.182 c 0,0 4.614,1.946 4.945,-0.784 0.333,-2.73 0.158,-19.114 0.158,-19.114 0,0 22.273,6.886 38.938,-18.668 0,0 16.571,-25.357 18.714,-29.878 0.002,10e-4 4.341,-7.566 -0.065,-8.936 z"
   id="path53"
   style="fill:url(#SVGID_4_)" />
		<linearGradient
   id="SVGID_5_"
   gradientUnits="userSpaceOnUse"
   x1="272.7822"
   y1="323.3154"
   x2="270.78229"
   y2="494.6431">
			<stop
   offset="0"
   style="stop-color:#0E9A48"
   id="stop56" />
			<stop
   offset="1"
   style="stop-color:#166734"
   id="stop58" />
		</linearGradient>
		<path
   d="m 246.414,449.854 c -7.212,12.63 -3.761,26.264 -3.761,26.264 2.871,16.893 18.854,17.761 18.854,17.761 l 38.542,1.019 -2.89,-47.172 -50.745,2.128 z"
   id="path60"
   style="fill:url(#SVGID_5_)" />
		<linearGradient
   id="SVGID_6_"
   gradientUnits="userSpaceOnUse"
   x1="240.11079"
   y1="322.92819"
   x2="238.11079"
   y2="494.26208">
			<stop
   offset="0"
   style="stop-color:#0E9A48"
   id="stop63" />
			<stop
   offset="1"
   style="stop-color:#166734"
   id="stop65" />
		</linearGradient>
		<path
   d="m 256.361,422.093 17.778,10.641 c 0,0 4.101,0.669 3.926,-3.914 l -25.878,-41.294 -49.514,-3.387 c 0,0 -4.046,2.949 -1.876,4.643 2.168,1.692 16.297,9.984 16.297,9.984 0,0 -17.379,15.54 -4.068,42.991 0,0 13.191,27.268 15.96,31.433 0,0 4.251,7.62 7.694,4.549 0,0 2.231,-2.528 0.038,-6.814 -10e-4,-0.001 -2.77,-24.013 19.643,-48.832 z"
   id="path67"
   style="fill:url(#SVGID_6_)" />
	</g>
</g>
</svg>