<svg xmlns="http://www.w3.org/2000/svg" width="128" height="128" viewBox="0 0 128 128"><path d="M38.202 69.693l5.638 3.45c.951 0 1.431-.393 1.431-1.179 0-.503-.229-1.202-.673-2.103l-12.458-23.399-27.609.675c-1.235.058-1.851.702-1.851 1.935 0 .281.392.673 1.178 1.178l5.724 3.45-6.061 9.425c-1.682 2.695-2.524 4.915-2.524 6.653 0 1.575.557 3.342 1.682 5.303l18.77 32.74c-.45-2.074-.673-4.04-.673-5.893 0-3.305 1.034-6.563 3.112-9.763l14.311-22.472zm7.238-19.106l15.487-23.988c-5.783-13.185-11.927-19.782-18.434-19.782-3.93 0-6.562 1.097-7.909 3.282l-14.649 23.402 25.505 17.086zm-12.625 64.976h29.88v-31.057h-28.786c-3.536 5.049-5.753 8.477-6.649 10.269-1.462 2.86-2.187 5.782-2.187 8.751 0 8.027 2.578 12.037 7.743 12.037zm61.529-70.7l13.297-22.39c.447-.782.673-1.599.673-2.439 0-1.011-.336-1.516-1.008-1.516.106 0-.338.169-1.347.505l-6.061 2.777-5.554-11.025c-2.472-4.937-7.408-7.408-14.815-7.408h-34.592c4.207 1.293 7.067 2.554 8.583 3.788 3.537 2.807 7.154 8.08 10.857 15.823l6.904 14.479-5.137 2.442c-.504.227-.756.673-.756 1.346 0 .842.53 1.323 1.599 1.431l27.357 2.187zm13.295 66.073l19.36-35.183c-2.861 3.257-5.976 5.446-9.342 6.566-2.694.9-6.543 1.347-11.534 1.347h-21.546v-4.463c0-1.738-.422-2.609-1.264-2.609-.619 0-1.07.229-1.346.674l-13.633 23.652 14.14 21.717c1.067 1.628 1.99 2.272 2.777 1.933.782-.223 1.179-.641 1.179-1.26v-7.409h11.951c4.377 0 7.462-1.653 9.257-4.964zm-8.415-31.733h12.88c3.083 0 6.281-1.346 9.594-4.038 3.536-2.805 5.303-5.78 5.303-8.925 0-1.454-.481-2.887-1.433-4.292l-15.317-23.398-26.349 15.322 15.322 25.331z" fill="#338000"/></svg>