<?xml version="1.0" encoding="UTF-8" standalone="no"?>
<!-- Created with Inkscape (http://www.inkscape.org/) -->

<svg
   xmlns:dc="http://purl.org/dc/elements/1.1/"
   xmlns:cc="http://creativecommons.org/ns#"
   xmlns:rdf="http://www.w3.org/1999/02/22-rdf-syntax-ns#"
   xmlns:svg="http://www.w3.org/2000/svg"
   xmlns="http://www.w3.org/2000/svg"
   xmlns:xlink="http://www.w3.org/1999/xlink"
   xmlns:sodipodi="http://sodipodi.sourceforge.net/DTD/sodipodi-0.dtd"
   xmlns:inkscape="http://www.inkscape.org/namespaces/inkscape"
   width="128"
   height="128"
   viewBox="0 0 128 128"
   id="svg2"
   version="1.1"
   inkscape:version="0.91 r13725"
   sodipodi:docname="trim.svg">
  <defs
     id="defs4">
    <linearGradient
       inkscape:collect="always"
       id="linearGradient4248">
      <stop
         style="stop-color:#000000;stop-opacity:1;"
         offset="0"
         id="stop4250" />
      <stop
         style="stop-color:#8e8e8e;stop-opacity:1"
         offset="1"
         id="stop4252" />
    </linearGradient>
    <linearGradient
       inkscape:collect="always"
       id="linearGradient4240">
      <stop
         style="stop-color:#000000;stop-opacity:1;"
         offset="0"
         id="stop4242" />
      <stop
         style="stop-color:#8e8e8e;stop-opacity:1"
         offset="1"
         id="stop4244" />
    </linearGradient>
    <linearGradient
       inkscape:collect="always"
       xlink:href="#linearGradient4240"
       id="linearGradient4246"
       x1="58.027635"
       y1="935.48027"
       x2="87.93846"
       y2="935.48027"
       gradientUnits="userSpaceOnUse" />
    <linearGradient
       inkscape:collect="always"
       xlink:href="#linearGradient4248"
       id="linearGradient4254"
       x1="52.364674"
       y1="945.59521"
       x2="87.995857"
       y2="944.34521"
       gradientUnits="userSpaceOnUse" />
  </defs>
  <sodipodi:namedview
     id="base"
     pagecolor="#ffffff"
     bordercolor="#666666"
     borderopacity="1.0"
     inkscape:pageopacity="0.0"
     inkscape:pageshadow="2"
     inkscape:zoom="11.2"
     inkscape:cx="19.843024"
     inkscape:cy="59.931811"
     inkscape:document-units="px"
     inkscape:current-layer="layer1"
     showgrid="false"
     units="px"
     inkscape:window-width="3840"
     inkscape:window-height="2128"
     inkscape:window-x="0"
     inkscape:window-y="32"
     inkscape:window-maximized="0" />
  <metadata
     id="metadata7">
    <rdf:RDF>
      <cc:Work
         rdf:about="">
        <dc:format>image/svg+xml</dc:format>
        <dc:type
           rdf:resource="http://purl.org/dc/dcmitype/StillImage" />
        <dc:title />
        <dc:creator>
          <cc:Agent>
            <dc:title>Kovid Goyal</dc:title>
          </cc:Agent>
        </dc:creator>
        <dc:rights>
          <cc:Agent>
            <dc:title />
          </cc:Agent>
        </dc:rights>
        <dc:publisher>
          <cc:Agent>
            <dc:title />
          </cc:Agent>
        </dc:publisher>
        <cc:license
           rdf:resource="http://creativecommons.org/licenses/by-sa/3.0/" />
      </cc:Work>
      <cc:License
         rdf:about="http://creativecommons.org/licenses/by-sa/3.0/">
        <cc:permits
           rdf:resource="http://creativecommons.org/ns#Reproduction" />
        <cc:permits
           rdf:resource="http://creativecommons.org/ns#Distribution" />
        <cc:requires
           rdf:resource="http://creativecommons.org/ns#Notice" />
        <cc:requires
           rdf:resource="http://creativecommons.org/ns#Attribution" />
        <cc:permits
           rdf:resource="http://creativecommons.org/ns#DerivativeWorks" />
        <cc:requires
           rdf:resource="http://creativecommons.org/ns#ShareAlike" />
      </cc:License>
    </rdf:RDF>
  </metadata>
  <g
     inkscape:label="Layer 1"
     inkscape:groupmode="layer"
     id="layer1"
     transform="translate(0,-924.36216)">
    <path
       d="m 46.341903,937.57503 c 2.318387,-0.6174 3.677779,-2.98759 3.058983,-5.30177 -0.618797,-2.31419 -2.991783,-3.68058 -5.304569,-3.06038 -2.312787,0.62159 -3.679179,2.98618 -3.060382,5.30317 0.618796,2.31838 2.993182,3.67637 5.305968,3.05898 l 0,0 z m -3.082782,3.60778 c -2.811183,-0.707 -5.03577,-2.84619 -5.798766,-5.70917 -1.146593,-4.27278 1.408392,-8.69395 5.679767,-9.83914 4.274175,-1.141 8.692549,1.40839 9.836343,5.68116 0.783995,2.92319 -0.1582,6.04517 -2.382786,8.04996 l 37.40218,21.59347 c -2.620784,1.65759 -5.12117,3.00718 -7.432556,2.05099 -6.197764,-2.56199 -25.471451,-18.1061 -37.304182,-21.82727 l 0,0 z"
       id="path4"
       inkscape:connector-curvature="0"
       style="clip-rule:evenodd;fill-rule:evenodd;fill-opacity:1;fill:url(#linearGradient4254)" />
    <path
       d="m 58.027635,941.5244 4.358174,2.51719 25.552651,-14.75591 c -2.620785,-1.65759 -5.11697,-3.00439 -7.429757,-2.04819 -3.947977,1.63239 -13.203322,8.55675 -22.481068,14.28691 l 0,0 z"
       id="path6"
       inkscape:connector-curvature="0"
       style="clip-rule:evenodd;fill-rule:evenodd;fill-opacity:1;fill:url(#linearGradient4246)" />
    <path
       d="m 46.341903,952.51294 c -2.314186,-0.6188 -4.684372,0.742 -5.305968,3.06038 -0.614597,2.30859 0.750395,4.68577 3.064582,5.30317 2.307186,0.6188 4.681572,-0.73779 5.301769,-3.05758 0.617396,-2.30999 -0.741996,-4.68717 -3.060383,-5.30597 l 0,0 z m -2.900783,-3.65118 c 2.090188,-0.65519 4.394575,-1.66319 6.809561,-2.89658 1.446191,0.76859 2.934382,1.62119 4.439374,2.51438 l -4.013777,2.31839 c 2.160187,2.00059 3.075782,5.08197 2.300187,7.97295 -1.143794,4.27698 -5.555168,6.82776 -9.836343,5.68397 -4.307775,-1.15499 -6.82916,-5.54397 -5.679767,-9.83914 0.785396,-2.93019 3.086982,-5.09317 5.980765,-5.75397 z"
       id="path8"
       inkscape:connector-curvature="0"
       style="clip-rule:evenodd;fill-rule:evenodd;fill:#ea8404;fill-opacity:1" />
    <g
       id="g4216"
       style="fill:#0473ea;fill-opacity:1">
      <path
         style="clip-rule:evenodd;fill-rule:evenodd;fill:#0473ea;fill-opacity:1"
         inkscape:connector-curvature="0"
         id="path10"
         d="m 95.054618,947.04317 c -1.175993,0 -2.129387,-0.95479 -2.129387,-2.12939 0,-1.17459 0.954794,-2.12938 2.129387,-2.12938 l 4.258775,0 c 1.175997,0 2.129387,0.95479 2.129387,2.12938 0,1.1746 -0.95479,2.12939 -2.129387,2.12939 l -4.258775,0 z" />
      <path
         style="clip-rule:evenodd;fill-rule:evenodd;fill:#0473ea;fill-opacity:1"
         inkscape:connector-curvature="0"
         id="path12"
         d="m 78.025118,947.04317 c -1.175993,0 -2.129388,-0.95479 -2.129388,-2.12939 0,-1.17459 0.954795,-2.12938 2.129388,-2.12938 l 4.258775,0 c 1.175993,0 2.129387,0.95479 2.129387,2.12938 0,1.1746 -0.954794,2.12939 -2.129387,2.12939 l -4.258775,0 z" />
      <path
         style="clip-rule:evenodd;fill-rule:evenodd;fill:#0473ea;fill-opacity:1"
         inkscape:connector-curvature="0"
         id="path14"
         d="m 29.421603,947.04317 c -1.175994,0 -2.129388,-0.95479 -2.129388,-2.12939 0,-1.17459 0.953394,-2.12938 2.129388,-2.12938 l 4.257375,0 c 1.175993,0 2.129387,0.95479 2.129387,2.12938 0,1.1746 -0.954794,2.12939 -2.129387,2.12939 l -4.257375,0 z" />
      <path
         style="clip-rule:evenodd;fill-rule:evenodd;fill:#0473ea;fill-opacity:1"
         inkscape:connector-curvature="0"
         id="path16"
         d="m 32.654184,1047.102 c 1.175993,0 2.129387,0.9548 2.129387,2.1294 0,1.1746 -0.954794,2.1294 -2.129387,2.1294 l -4.258775,0 c -1.175994,0 -2.129388,-0.9562 -2.129388,-2.1294 0,-1.176 0.954794,-2.1294 2.129388,-2.1294 l 4.258775,0 z" />
      <path
         style="clip-rule:evenodd;fill-rule:evenodd;fill:#0473ea;fill-opacity:1"
         inkscape:connector-curvature="0"
         id="path18"
         d="m 66.129388,1047.102 c 1.175993,0 2.129387,0.9548 2.129387,2.1294 0,1.1746 -0.954794,2.1294 -2.129387,2.1294 l -4.257376,0 c -1.175993,0 -2.129387,-0.9562 -2.129387,-2.1294 0,-1.176 0.953394,-2.1294 2.129387,-2.1294 l 4.257376,0 z" />
      <path
         style="clip-rule:evenodd;fill-rule:evenodd;fill:#0473ea;fill-opacity:1"
         inkscape:connector-curvature="0"
         id="path20"
         d="m 82.866289,1047.102 c 1.175994,0 2.129388,0.9548 2.129388,2.1294 0,1.1746 -0.953394,2.1294 -2.129388,2.1294 l -4.257375,0 c -1.175993,0 -2.129387,-0.9562 -2.129387,-2.1294 0,-1.176 0.954794,-2.1294 2.129387,-2.1294 l 4.257375,0 z" />
      <path
         style="clip-rule:evenodd;fill-rule:evenodd;fill:#0473ea;fill-opacity:1"
         inkscape:connector-curvature="0"
         id="path22"
         d="m 99.605991,1047.102 c 1.175989,0 2.129389,0.9548 2.129389,2.1294 0,1.1746 -0.9534,2.1294 -2.129389,2.1294 l -4.257375,0 c -1.175993,0 -2.129387,-0.9562 -2.129387,-2.1294 0,-1.176 0.954794,-2.1294 2.129387,-2.1294 l 4.257375,0 z" />
      <path
         style="clip-rule:evenodd;fill-rule:evenodd;fill:#0473ea;fill-opacity:1"
         inkscape:connector-curvature="0"
         id="path24"
         d="m 118.47088,1049.1768 0,0.056 c 0,1.1746 -0.95479,2.1294 -2.12799,2.1294 l -0.056,0 -4.20137,0 c -1.17599,0 -2.12939,-0.9562 -2.12939,-2.1294 0,-1.176 0.9548,-2.1294 2.12939,-2.1294 l 2.12799,0 0,-2.128 c 0,-1.176 0.95339,-2.1294 2.12938,-2.1294 1.1732,0 2.12799,0.9534 2.12799,2.1294 l 0,4.2014 z" />
      <path
         style="clip-rule:evenodd;fill-rule:evenodd;fill:#0473ea;fill-opacity:1"
         inkscape:connector-curvature="0"
         id="path26"
         d="m 116.34289,942.7844 c 1.1732,0 2.12799,0.95479 2.12799,2.12938 l 0,0.056 0,4.20138 c 0,1.17599 -0.95479,2.12939 -2.12799,2.12939 -1.17599,0 -2.12938,-0.9534 -2.12938,-2.12939 l 0,-2.12799 -2.12799,0 c -1.17599,0 -2.12939,-0.95479 -2.12939,-2.12939 0,-1.17459 0.9548,-2.12938 2.12939,-2.12938 l 4.20137,0 0.056,0 z" />
      <path
         style="clip-rule:evenodd;fill-rule:evenodd;fill:#0473ea;fill-opacity:1"
         inkscape:connector-curvature="0"
         id="path28"
         d="m 49.392486,1047.102 c 1.175993,0 2.129387,0.9548 2.129387,2.1294 0,1.1746 -0.954794,2.1294 -2.129387,2.1294 l -4.258775,0 c -1.175994,0 -2.129388,-0.9562 -2.129388,-2.1294 0,-1.176 0.954794,-2.1294 2.129388,-2.1294 l 4.258775,0 z" />
      <path
         style="clip-rule:evenodd;fill-rule:evenodd;fill:#0473ea;fill-opacity:1"
         inkscape:connector-curvature="0"
         id="path30"
         d="m 114.21351,1028.2973 c 0,-1.176 0.95339,-2.1294 2.12938,-2.1294 1.1732,0 2.12799,0.9534 2.12799,2.1294 l 0,4.2574 c 0,1.176 -0.95479,2.1294 -2.12799,2.1294 -1.17599,0 -2.12938,-0.9548 -2.12938,-2.1294 l 0,-4.2574 z" />
      <path
         style="clip-rule:evenodd;fill-rule:evenodd;fill:#0473ea;fill-opacity:1"
         inkscape:connector-curvature="0"
         id="path32"
         d="m 114.21351,1011.6206 c 0,-1.176 0.95339,-2.1294 2.12938,-2.1294 1.1732,0 2.12799,0.9548 2.12799,2.1294 l 0,4.2574 c 0,1.176 -0.95479,2.1294 -2.12799,2.1294 -1.17599,0 -2.12938,-0.9534 -2.12938,-2.1294 l 0,-4.2574 z" />
      <path
         style="clip-rule:evenodd;fill-rule:evenodd;fill:#0473ea;fill-opacity:1"
         inkscape:connector-curvature="0"
         id="path34"
         d="m 114.21351,994.94529 c 0,-1.17459 0.95339,-2.12799 2.12938,-2.12799 1.1732,0 2.12799,0.9534 2.12799,2.12799 l 0,4.25738 c 0,1.17603 -0.95479,2.12943 -2.12799,2.12943 -1.17599,0 -2.12938,-0.9548 -2.12938,-2.12943 l 0,-4.25738 z" />
      <path
         style="clip-rule:evenodd;fill-rule:evenodd;fill:#0473ea;fill-opacity:1"
         inkscape:connector-curvature="0"
         id="path36"
         d="m 114.21351,978.26719 c 0,-1.17599 0.95339,-2.12939 2.12938,-2.12939 1.1732,0 2.12799,0.9534 2.12799,2.12939 l 0,4.25737 c 0,1.176 -0.95479,2.12939 -2.12799,2.12939 -1.17599,0 -2.12938,-0.95479 -2.12938,-2.12939 l 0,-4.25737 z" />
      <path
         style="clip-rule:evenodd;fill-rule:evenodd;fill:#0473ea;fill-opacity:1"
         inkscape:connector-curvature="0"
         id="path38"
         d="m 114.21351,961.59189 c 0,-1.176 0.95339,-2.12939 2.12938,-2.12939 1.1732,0 2.12799,0.95479 2.12799,2.12939 l 0,4.25597 c 0,1.17599 -0.95479,2.12939 -2.12799,2.12939 -1.17599,0 -2.12938,-0.9548 -2.12938,-2.12939 l 0,-4.25597 z" />
      <path
         style="clip-rule:evenodd;fill-rule:evenodd;fill:#0473ea;fill-opacity:1"
         inkscape:connector-curvature="0"
         id="path40"
         d="m 9.529119,1049.1768 0,0.056 c 0,1.1746 0.956194,2.1294 2.129388,2.1294 l 0.056,0 4.201376,0 c 1.175993,0 2.129387,-0.9562 2.129387,-2.1294 0,-1.176 -0.953394,-2.1294 -2.129387,-2.1294 l -2.127988,0 0,-2.128 c 0,-1.176 -0.954794,-2.1294 -2.129387,-2.1294 -1.174594,0 -2.129388,0.9534 -2.129388,2.1294 l 0,4.2014 z" />
      <path
         style="clip-rule:evenodd;fill-rule:evenodd;fill:#0473ea;fill-opacity:1"
         inkscape:connector-curvature="0"
         id="path42"
         d="m 11.658507,942.7844 c -1.174594,0 -2.129388,0.95479 -2.129388,2.12938 l 0,0.056 0,4.20138 c 0,1.17599 0.956194,2.12939 2.129388,2.12939 1.175993,0 2.129387,-0.9534 2.129387,-2.12939 l 0,-2.12799 2.127988,0 c 1.175993,0 2.129387,-0.95479 2.129387,-2.12939 0,-1.17459 -0.953394,-2.12938 -2.129387,-2.12938 l -4.201376,0 -0.056,0 z" />
      <path
         style="clip-rule:evenodd;fill-rule:evenodd;fill:#0473ea;fill-opacity:1"
         inkscape:connector-curvature="0"
         id="path44"
         d="m 13.787894,1028.2973 c 0,-1.176 -0.954794,-2.1294 -2.129387,-2.1294 -1.174594,0 -2.129388,0.9534 -2.129388,2.1294 l 0,4.2574 c 0,1.176 0.956194,2.1294 2.129388,2.1294 1.175993,0 2.129387,-0.9548 2.129387,-2.1294 l 0,-4.2574 z" />
      <path
         style="clip-rule:evenodd;fill-rule:evenodd;fill:#0473ea;fill-opacity:1"
         inkscape:connector-curvature="0"
         id="path46"
         d="m 13.787894,1011.6206 c 0,-1.176 -0.954794,-2.1294 -2.129387,-2.1294 -1.174594,0 -2.129388,0.9548 -2.129388,2.1294 l 0,4.2574 c 0,1.176 0.956194,2.1294 2.129388,2.1294 1.175993,0 2.129387,-0.9534 2.129387,-2.1294 l 0,-4.2574 z" />
      <path
         style="clip-rule:evenodd;fill-rule:evenodd;fill:#0473ea;fill-opacity:1"
         inkscape:connector-curvature="0"
         id="path48"
         d="m 13.787894,994.94529 c 0,-1.17459 -0.954794,-2.12799 -2.129387,-2.12799 -1.174594,0 -2.129388,0.9534 -2.129388,2.12799 l 0,4.25738 c 0,1.17603 0.956194,2.12943 2.129388,2.12943 1.175993,0 2.129387,-0.9548 2.129387,-2.12943 l 0,-4.25738 z" />
      <path
         style="clip-rule:evenodd;fill-rule:evenodd;fill:#0473ea;fill-opacity:1"
         inkscape:connector-curvature="0"
         id="path50"
         d="m 13.787894,978.26719 c 0,-1.17599 -0.954794,-2.12939 -2.129387,-2.12939 -1.174594,0 -2.129388,0.9534 -2.129388,2.12939 l 0,4.25737 c 0,1.176 0.956194,2.12939 2.129388,2.12939 1.175993,0 2.129387,-0.95479 2.129387,-2.12939 l 0,-4.25737 z" />
      <path
         style="clip-rule:evenodd;fill-rule:evenodd;fill:#0473ea;fill-opacity:1"
         inkscape:connector-curvature="0"
         id="path52"
         d="m 13.787894,961.59189 c 0,-1.176 -0.954794,-2.12939 -2.129387,-2.12939 -1.174594,0 -2.129388,0.95479 -2.129388,2.12939 l 0,4.25597 c 0,1.17599 0.956194,2.12939 2.129388,2.12939 1.175993,0 2.129387,-0.9548 2.129387,-2.12939 l 0,-4.25597 z" />
    </g>
    <path
       style="clip-rule:evenodd;fill:#ea8404;fill-opacity:1;fill-rule:evenodd"
       inkscape:connector-curvature="0"
       id="path4214"
       d="m 46.341903,937.57503 c 2.318387,-0.6174 3.677779,-2.98759 3.058983,-5.30177 -0.618797,-2.31419 -2.991783,-3.68058 -5.304569,-3.06038 -2.312787,0.62159 -3.679179,2.98618 -3.060382,5.30317 0.618796,2.31838 2.993182,3.67637 5.305968,3.05898 z m -3.082782,3.60778 c -2.811183,-0.707 -5.03577,-2.84619 -5.798766,-5.70917 -1.146593,-4.27278 1.408392,-8.69395 5.679767,-9.83914 4.274175,-1.141 8.692549,1.40839 9.836343,5.68116 0.783995,2.92319 -0.1582,6.04517 -2.382786,8.04996 l 5.170037,3.02204 c -1.817212,1.92545 0.08929,0.17857 -2.789698,3.2117 -6.197764,-2.56199 -6.517858,-2.94642 -9.714897,-4.41655 z"
       sodipodi:nodetypes="csccccccccccc" />
  </g>
</svg>
