<svg xmlns="http://www.w3.org/2000/svg" xmlns:xlink="http://www.w3.org/1999/xlink" width="128" height="128" viewBox="0 0 128 128"><defs><linearGradient id="b"><stop offset="0"/><stop offset="1" stop-color="#8e8e8e"/></linearGradient><linearGradient id="a"><stop offset="0"/><stop offset="1" stop-color="#8e8e8e"/></linearGradient><linearGradient xlink:href="#a" id="d" x1="58.028" y1="935.48" x2="87.938" y2="935.48" gradientUnits="userSpaceOnUse"/><linearGradient xlink:href="#b" id="c" x1="52.365" y1="945.595" x2="87.996" y2="944.345" gradientUnits="userSpaceOnUse"/></defs><g clip-rule="evenodd" fill-rule="evenodd"><path d="M46.342 13.213c2.318-.617 3.678-2.988 3.059-5.302-.619-2.314-2.992-3.681-5.305-3.06-2.313.622-3.679 2.986-3.06 5.303.619 2.318 2.993 3.676 5.306 3.059zm-3.083 3.608c-2.811-.707-5.036-2.846-5.799-5.709-1.147-4.273 1.408-8.694 5.68-9.839 4.274-1.141 8.693 1.408 9.836 5.681.784 2.923-.158 6.045-2.383 8.05l37.402 21.593c-2.621 1.658-5.121 3.007-7.433 2.051-6.198-2.562-25.471-18.106-37.304-21.827z" fill="url(#c)"/><path d="M58.028 17.162l4.358 2.517 25.553-14.756c-2.621-1.658-5.117-3.004-7.43-2.048-3.948 1.632-13.203 8.557-22.481 14.287z" fill="url(#d)"/><path d="M46.342 28.151c-2.314-.619-4.684.742-5.306 3.06-.615 2.309.75 4.686 3.065 5.303 2.307.619 4.682-.738 5.302-3.058.617-2.31-.742-4.687-3.06-5.306zm-2.901-3.651c2.09-.655 4.395-1.663 6.81-2.897 1.446.769 2.934 1.621 4.439 2.514l-4.014 2.318c2.16 2.001 3.076 5.082 2.3 7.973-1.144 4.277-5.555 6.828-9.836 5.684-4.308-1.155-6.829-5.544-5.68-9.839.785-2.93 3.087-5.093 5.981-5.754z" fill="#ea8404"/><path d="M95.055 22.681c-1.176 0-2.129-.955-2.129-2.129 0-1.175.955-2.129 2.129-2.129h4.259c1.176 0 2.129.955 2.129 2.129 0 1.175-.955 2.129-2.129 2.129h-4.259zm-17.03 0c-1.176 0-2.129-.955-2.129-2.129 0-1.175.955-2.129 2.129-2.129h4.259c1.176 0 2.129.955 2.129 2.129 0 1.175-.955 2.129-2.129 2.129h-4.259zm-48.603 0c-1.176 0-2.129-.955-2.129-2.129 0-1.175.953-2.129 2.129-2.129h4.257c1.176 0 2.129.955 2.129 2.129 0 1.175-.955 2.129-2.129 2.129h-4.257zm3.232 100.059c1.176 0 2.129.955 2.129 2.129 0 1.175-.955 2.129-2.129 2.129h-4.259c-1.176 0-2.129-.956-2.129-2.129 0-1.176.955-2.129 2.129-2.129h4.259zm33.475 0c1.176 0 2.129.955 2.129 2.129 0 1.175-.955 2.129-2.129 2.129h-4.257c-1.176 0-2.129-.956-2.129-2.129 0-1.176.953-2.129 2.129-2.129h4.257zm16.737 0c1.176 0 2.129.955 2.129 2.129 0 1.175-.953 2.129-2.129 2.129h-4.257c-1.176 0-2.129-.956-2.129-2.129 0-1.176.955-2.129 2.129-2.129h4.257zm16.74 0c1.176 0 2.129.955 2.129 2.129 0 1.175-.953 2.129-2.129 2.129h-4.257c-1.176 0-2.129-.956-2.129-2.129 0-1.176.955-2.129 2.129-2.129h4.257zm18.865 2.075v.056c0 1.175-.955 2.129-2.128 2.129h-4.257c-1.176 0-2.129-.956-2.129-2.129 0-1.176.955-2.129 2.129-2.129h2.128v-2.128c0-1.176.953-2.129 2.129-2.129 1.173 0 2.128.953 2.128 2.129v4.201zm-2.128-106.393c1.173 0 2.128.955 2.128 2.129v4.257c0 1.176-.955 2.129-2.128 2.129-1.176 0-2.129-.953-2.129-2.129v-2.128h-2.128c-1.176 0-2.129-.955-2.129-2.129 0-1.175.955-2.129 2.129-2.129h4.257zm-66.951 104.318c1.176 0 2.129.955 2.129 2.129 0 1.175-.955 2.129-2.129 2.129h-4.259c-1.176 0-2.129-.956-2.129-2.129 0-1.176.955-2.129 2.129-2.129h4.259zm64.822-18.805c0-1.176.953-2.129 2.129-2.129 1.173 0 2.128.953 2.128 2.129v4.257c0 1.176-.955 2.129-2.128 2.129-1.176 0-2.129-.955-2.129-2.129v-4.257zm0-16.677c0-1.176.953-2.129 2.129-2.129 1.173 0 2.128.955 2.128 2.129v4.257c0 1.176-.955 2.129-2.128 2.129-1.176 0-2.129-.953-2.129-2.129v-4.257zm0-16.675c0-1.175.953-2.128 2.129-2.128 1.173 0 2.128.953 2.128 2.128v4.257c0 1.176-.955 2.129-2.128 2.129-1.176 0-2.129-.955-2.129-2.129v-4.257zm0-16.678c0-1.176.953-2.129 2.129-2.129 1.173 0 2.128.953 2.128 2.129v4.257c0 1.176-.955 2.129-2.128 2.129-1.176 0-2.129-.955-2.129-2.129v-4.257zm0-16.675c0-1.176.953-2.129 2.129-2.129 1.173 0 2.128.955 2.128 2.129v4.256c0 1.176-.955 2.129-2.128 2.129-1.176 0-2.129-.955-2.129-2.129v-4.256zm-104.685 87.585v.056c0 1.175.956 2.129 2.129 2.129h4.257c1.176 0 2.129-.956 2.129-2.129 0-1.176-.953-2.129-2.129-2.129h-2.128v-2.128c0-1.176-.955-2.129-2.129-2.129-1.175 0-2.129.953-2.129 2.129v4.201zm2.13-106.393c-1.175 0-2.129.955-2.129 2.129v4.257c0 1.176.956 2.129 2.129 2.129 1.176 0 2.129-.953 2.129-2.129v-2.128h2.128c1.176 0 2.129-.955 2.129-2.129 0-1.175-.953-2.129-2.129-2.129h-4.257zm2.129 85.513c0-1.176-.955-2.129-2.129-2.129-1.175 0-2.129.953-2.129 2.129v4.257c0 1.176.956 2.129 2.129 2.129 1.176 0 2.129-.955 2.129-2.129v-4.257zm0-16.677c0-1.176-.955-2.129-2.129-2.129-1.175 0-2.129.955-2.129 2.129v4.257c0 1.176.956 2.129 2.129 2.129 1.176 0 2.129-.953 2.129-2.129v-4.257zm0-16.675c0-1.175-.955-2.128-2.129-2.128-1.175 0-2.129.953-2.129 2.128v4.257c0 1.176.956 2.129 2.129 2.129 1.176 0 2.129-.955 2.129-2.129v-4.257zm0-16.678c0-1.176-.955-2.129-2.129-2.129-1.175 0-2.129.953-2.129 2.129v4.257c0 1.176.956 2.129 2.129 2.129 1.176 0 2.129-.955 2.129-2.129v-4.257zm0-16.675c0-1.176-.955-2.129-2.129-2.129-1.175 0-2.129.955-2.129 2.129v4.256c0 1.176.956 2.129 2.129 2.129 1.176 0 2.129-.955 2.129-2.129v-4.256z" fill="#0473ea"/><path d="M46.342 13.213c2.318-.617 3.678-2.988 3.059-5.302-.619-2.314-2.992-3.681-5.305-3.06-2.313.622-3.679 2.986-3.06 5.303.619 2.318 2.993 3.676 5.306 3.059zm-3.083 3.608c-2.811-.707-5.036-2.846-5.799-5.709-1.147-4.273 1.408-8.694 5.68-9.839 4.274-1.141 8.693 1.408 9.836 5.681.784 2.923-.158 6.045-2.383 8.05l5.17 3.022c-1.817 1.925.089.179-2.79 3.212-6.198-2.562-6.518-2.946-9.715-4.417z" fill="#ea8404"/></g></svg>