<svg xmlns="http://www.w3.org/2000/svg" width="128" height="128" viewBox="0 0 128 128"><path d="M21.497 6.64v16.456h-11.586v-16.456c0-3.169 2.588-5.727 5.793-5.727s5.793 2.558 5.793 5.727zm0 60.859v53.681c0 3.169-2.588 5.727-5.793 5.727s-5.793-2.558-5.793-5.727v-53.681h11.586zm48.275-60.859v53.681h-11.586v-53.681c0-3.169 2.588-5.727 5.793-5.727s5.793 2.558 5.793 5.727zm0 98.084v16.456c0 3.169-2.588 5.727-5.793 5.727s-5.793-2.558-5.793-5.727v-16.456h11.586zm48.275-98.084v34.133h-11.586v-34.133c0-3.169 2.588-5.727 5.793-5.727s5.793 2.558 5.793 5.727zm0 78.498v36.042c0 3.169-2.588 5.727-5.793 5.727s-5.793-2.558-5.793-5.727v-36.042h11.586z" fill="#1b219e"/><path d="M30.418 36.458v17.677c0 3.15-2.588 5.727-5.793 5.727h-17.842c-3.205 0-5.793-2.577-5.793-5.727v-17.677c0-3.15 2.588-5.727 5.793-5.727h17.842c3.205 0 5.793 2.577 5.793 5.727zm48.275 37.226v17.677c0 3.169-2.588 5.727-5.793 5.727h-17.842c-3.205 0-5.793-2.558-5.793-5.727v-17.677c0-3.169 2.588-5.727 5.793-5.727h17.842c3.205 0 5.793 2.558 5.793 5.727zm48.275-19.548v17.639c0 3.169-2.588 5.727-5.793 5.727h-17.842c-3.205 0-5.793-2.558-5.793-5.727v-17.639c0-3.169 2.588-5.727 5.793-5.727h17.842c3.205 0 5.793 2.558 5.793 5.727z" fill="#3a9e1b"/></svg>