<svg xmlns="http://www.w3.org/2000/svg" xmlns:svg="http://www.w3.org/2000/svg" id="svg2" width="128" height="128" version="1.1" viewBox="0 0 128 128"><metadata id="metadata7"/><g id="layer1" transform="translate(0,-924.36216)"><g id="g4160" transform="matrix(1.9313305,0,0,1.9090909,-55.673515,-904.44286)" style="fill:#2271d5;fill-opacity:1"><path style="fill:#2271d5;fill-opacity:1" id="path4" d="m 39.964286,961.4693 v 8.62 h -6 v -8.62 c 0,-1.66 1.34,-3 3,-3 1.66,0 3,1.34 3,3 z"/><path style="fill:#2271d5;fill-opacity:1" id="path6" d="m 39.964286,993.3493 v 28.12 c 0,1.66 -1.34,3 -3,3 -1.66,0 -3,-1.34 -3,-3 v -28.12 z"/><path style="fill:#2271d5;fill-opacity:1" id="path8" d="m 64.964286,961.4693 v 28.12 h -6 v -28.12 c 0,-1.66 1.34,-3 3,-3 1.66,0 3,1.34 3,3 z"/><path style="fill:#2271d5;fill-opacity:1" id="path10" d="m 64.964286,1012.8493 v 8.62 c 0,1.66 -1.34,3 -3,3 -1.66,0 -3,-1.34 -3,-3 v -8.62 z"/><path style="fill:#2271d5;fill-opacity:1" id="path12" d="m 89.964286,961.4693 v 17.88 h -6 v -17.88 c 0,-1.66 1.34,-3 3,-3 1.66,0 3,1.34 3,3 z"/><path style="fill:#2271d5;fill-opacity:1" id="path14" d="m 89.964286,1002.5893 v 18.88 c 0,1.66 -1.34,3 -3,3 -1.66,0 -3,-1.34 -3,-3 v -18.88 z"/></g><g id="g4155" transform="matrix(1.9313305,0,0,1.9090909,-55.673515,-904.44286)" style="fill:#2caf45;fill-opacity:1"><path id="path16" d="m 44.584286,977.0893 v 9.26 c 0,1.65 -1.34,3 -3,3 h -9.24 c -1.66,0 -3,-1.35 -3,-3 v -9.26 c 0,-1.65 1.34,-3 3,-3 h 9.24 c 1.66,0 3,1.35 3,3 z" style="fill:#2caf45;fill-opacity:1"/><path id="path18" d="m 69.584286,996.5893 v 9.26 c 0,1.66 -1.34,3 -3,3 h -9.24 c -1.66,0 -3,-1.34 -3,-3 v -9.26 c 0,-1.66 1.34,-3 3,-3 h 9.24 c 1.66,0 3,1.34 3,3 z" style="fill:#2caf45;fill-opacity:1"/><path id="path20" d="m 94.584286,986.3493 v 9.24 c 0,1.66 -1.34,3 -3,3 h -9.24 c -1.66,0 -3,-1.34 -3,-3 v -9.24 c 0,-1.66 1.34,-3 3,-3 h 9.24 c 1.66,0 3,1.34 3,3 z" style="fill:#2caf45;fill-opacity:1"/></g></g></svg>