<?xml version="1.0" encoding="UTF-8" standalone="no"?>
<!-- Created with Inkscape (http://www.inkscape.org/) -->

<svg
   xmlns:dc="http://purl.org/dc/elements/1.1/"
   xmlns:cc="http://creativecommons.org/ns#"
   xmlns:rdf="http://www.w3.org/1999/02/22-rdf-syntax-ns#"
   xmlns:svg="http://www.w3.org/2000/svg"
   xmlns="http://www.w3.org/2000/svg"
   xmlns:sodipodi="http://sodipodi.sourceforge.net/DTD/sodipodi-0.dtd"
   xmlns:inkscape="http://www.inkscape.org/namespaces/inkscape"
   width="128"
   height="128"
   viewBox="0 0 128 128"
   id="svg2"
   version="1.1"
   inkscape:version="0.92.4 5da689c313, 2019-01-14"
   sodipodi:docname="tweaks.svg">
  <defs
     id="defs4" />
  <sodipodi:namedview
     id="base"
     pagecolor="#ffffff"
     bordercolor="#666666"
     borderopacity="1.0"
     inkscape:pageopacity="0.0"
     inkscape:pageshadow="2"
     inkscape:zoom="5.6"
     inkscape:cx="19.843024"
     inkscape:cy="69.707741"
     inkscape:document-units="px"
     inkscape:current-layer="layer1"
     showgrid="false"
     units="px"
     inkscape:window-width="2560"
     inkscape:window-height="1400"
     inkscape:window-x="0"
     inkscape:window-y="40"
     inkscape:window-maximized="0" />
  <metadata
     id="metadata7">
    <rdf:RDF>
      <cc:Work
         rdf:about="">
        <dc:format>image/svg+xml</dc:format>
        <dc:type
           rdf:resource="http://purl.org/dc/dcmitype/StillImage" />
        <dc:title />
        <dc:creator>
          <cc:Agent>
            <dc:title>Kovid Goyal</dc:title>
          </cc:Agent>
        </dc:creator>
        <dc:rights>
          <cc:Agent>
            <dc:title />
          </cc:Agent>
        </dc:rights>
        <dc:publisher>
          <cc:Agent>
            <dc:title />
          </cc:Agent>
        </dc:publisher>
        <cc:license
           rdf:resource="http://creativecommons.org/licenses/by-sa/3.0/" />
      </cc:Work>
      <cc:License
         rdf:about="http://creativecommons.org/licenses/by-sa/3.0/">
        <cc:permits
           rdf:resource="http://creativecommons.org/ns#Reproduction" />
        <cc:permits
           rdf:resource="http://creativecommons.org/ns#Distribution" />
        <cc:requires
           rdf:resource="http://creativecommons.org/ns#Notice" />
        <cc:requires
           rdf:resource="http://creativecommons.org/ns#Attribution" />
        <cc:permits
           rdf:resource="http://creativecommons.org/ns#DerivativeWorks" />
        <cc:requires
           rdf:resource="http://creativecommons.org/ns#ShareAlike" />
      </cc:License>
    </rdf:RDF>
  </metadata>
  <g
     inkscape:label="Layer 1"
     inkscape:groupmode="layer"
     id="layer1"
     transform="translate(0,-924.36216)">
    <g
       id="g4160"
       style="fill:#2271d5;fill-opacity:1"
       transform="matrix(1.9313305,0,0,1.9090909,-55.673515,-904.44286)">
      <path
         style="fill:#2271d5;fill-opacity:1"
         id="path4"
         d="m 39.964286,961.4693 v 8.62 h -6 v -8.62 c 0,-1.66 1.34,-3 3,-3 1.66,0 3,1.34 3,3 z"
         inkscape:connector-curvature="0" />
      <path
         style="fill:#2271d5;fill-opacity:1"
         id="path6"
         d="m 39.964286,993.3493 v 28.12 c 0,1.66 -1.34,3 -3,3 -1.66,0 -3,-1.34 -3,-3 v -28.12 z"
         inkscape:connector-curvature="0" />
      <path
         style="fill:#2271d5;fill-opacity:1"
         id="path8"
         d="m 64.964286,961.4693 v 28.12 h -6 v -28.12 c 0,-1.66 1.34,-3 3,-3 1.66,0 3,1.34 3,3 z"
         inkscape:connector-curvature="0" />
      <path
         style="fill:#2271d5;fill-opacity:1"
         id="path10"
         d="m 64.964286,1012.8493 v 8.62 c 0,1.66 -1.34,3 -3,3 -1.66,0 -3,-1.34 -3,-3 v -8.62 z"
         inkscape:connector-curvature="0" />
      <path
         style="fill:#2271d5;fill-opacity:1"
         id="path12"
         d="m 89.964286,961.4693 v 17.88 h -6 v -17.88 c 0,-1.66 1.34,-3 3,-3 1.66,0 3,1.34 3,3 z"
         inkscape:connector-curvature="0" />
      <path
         style="fill:#2271d5;fill-opacity:1"
         id="path14"
         d="m 89.964286,1002.5893 v 18.88 c 0,1.66 -1.34,3 -3,3 -1.66,0 -3,-1.34 -3,-3 v -18.88 z"
         inkscape:connector-curvature="0" />
    </g>
    <g
       id="g4155"
       style="fill:#2caf45;fill-opacity:1"
       transform="matrix(1.9313305,0,0,1.9090909,-55.673515,-904.44286)">
      <path
         id="path16"
         d="m 44.584286,977.0893 v 9.26 c 0,1.65 -1.34,3 -3,3 h -9.24 c -1.66,0 -3,-1.35 -3,-3 v -9.26 c 0,-1.65 1.34,-3 3,-3 h 9.24 c 1.66,0 3,1.35 3,3 z"
         inkscape:connector-curvature="0"
         style="fill:#2caf45;fill-opacity:1" />
      <path
         id="path18"
         d="m 69.584286,996.5893 v 9.26 c 0,1.66 -1.34,3 -3,3 h -9.24 c -1.66,0 -3,-1.34 -3,-3 v -9.26 c 0,-1.66 1.34,-3 3,-3 h 9.24 c 1.66,0 3,1.34 3,3 z"
         inkscape:connector-curvature="0"
         style="fill:#2caf45;fill-opacity:1" />
      <path
         id="path20"
         d="m 94.584286,986.3493 v 9.24 c 0,1.66 -1.34,3 -3,3 h -9.24 c -1.66,0 -3,-1.34 -3,-3 v -9.24 c 0,-1.66 1.34,-3 3,-3 h 9.24 c 1.66,0 3,1.34 3,3 z"
         inkscape:connector-curvature="0"
         style="fill:#2caf45;fill-opacity:1" />
    </g>
  </g>
</svg>
