<svg xmlns="http://www.w3.org/2000/svg" width="128" height="128" viewBox="0 0 128 128"><path fill="#784421" d="M64.017 76.765l42.533-17.686-2.917 42.316-39.617 20.316zm-39.616 24.631l-2.911-42.316 42.527 17.686v44.947z"/><path d="M98.132 27.233c-23.613 6.043-38.637 25.544-35.586 46.194-14.11-23.691.494-52.387 30.579-60.096-.84-2.332-1.686-4.678-2.522-7.015 10 2.522 19.998 5.054 29.998 7.577-6.644 6.784-13.298 13.575-19.946 20.364l-2.524-7.024z" fill="#338000"/><path d="M106.525 59.065l20.475-21.412c-6.451-1.892-12.898-3.767-19.354-5.647-2.843 2.893-5.684 5.797-8.526 8.698-1.135-3.151-2.274-6.312-3.41-9.472-10.211 3.372-17.175 8.29-22.914 16.17 11.239 3.888 22.483 7.776 33.729 11.663zm-52.519-11.246c.581-3.507 1.616-6.852 3.139-10.155-4.305-4.206-8.612-8.414-12.915-12.625-14.411 4.201-28.819 8.406-43.23 12.614 6.826 7.137 13.651 14.275 20.485 21.412 10.834-3.75 21.674-7.495 32.521-11.246z" fill="#482914"/></svg>