<svg xmlns="http://www.w3.org/2000/svg" xmlns:svg="http://www.w3.org/2000/svg" id="svg2" width="128" height="128" version="1.1" viewBox="0 0 128 128"><metadata id="metadata7"/><g id="layer1" transform="translate(0,-924.36216)"><polygon style="fill:#784421;fill-opacity:1" id="polygon4" points="141.733 167.539 227.833 131.738 221.929 217.398 141.733 258.524" transform="matrix(0.49388911,0,0,0.49388911,-5.9989024,918.3635)"/><polygon style="fill:#784421;fill-opacity:1" id="polygon6" points="61.539 217.398 55.646 131.738 141.733 167.539 141.733 258.524" transform="matrix(0.49388911,0,0,0.49388911,-5.9989024,918.3635)"/><path style="fill:#2caf45;fill-opacity:1" id="path8" d="m 98.132182,951.59533 c -23.613331,6.04273 -38.636943,25.54445 -35.585696,46.19444 -14.109918,-23.69086 0.493889,-52.38683 30.578648,-60.09594 -0.839612,-2.33215 -1.685644,-4.67763 -2.521798,-7.0152 10.000264,2.52229 19.998064,5.05396 29.998334,7.57675 -6.64429,6.78406 -13.29846,13.57504 -19.94571,20.36404 -0.841592,-2.34499 -1.682685,-4.68355 -2.523778,-7.02409 z"/><path style="fill:#482914;fill-opacity:1" id="path10" d="m 106.52533,983.42749 c 6.82555,-7.1367 13.64912,-14.27488 20.47467,-21.41209 -6.45069,-1.8916 -12.89791,-3.76689 -19.35354,-5.64664 -2.84282,2.89321 -5.68367,5.79727 -8.526006,8.69788 -1.134957,-3.1515 -2.27436,-6.3119 -3.409811,-9.4718 -10.211157,3.37178 -17.175487,8.29042 -22.914477,16.16995 11.239433,3.88789 22.482818,7.77579 33.729164,11.6627 z"/><path style="fill:#482914;fill-opacity:1" id="path12" d="m 54.005661,972.18114 c 0.581308,-3.50711 1.616005,-6.85224 3.139159,-10.15488 -4.305231,-4.20645 -8.612438,-8.41439 -12.9152,-12.62479 -14.410696,4.20053 -28.819417,8.40599 -43.2296198,12.61393 6.8260414,7.13672 13.6506008,14.27489 20.4845448,21.41209 10.833951,-3.74961 21.674324,-7.49477 32.521116,-11.24635 z"/></g></svg>