<?xml version="1.0" encoding="UTF-8" standalone="no"?>
<!-- Created with Inkscape (http://www.inkscape.org/) -->

<svg
   xmlns:dc="http://purl.org/dc/elements/1.1/"
   xmlns:cc="http://creativecommons.org/ns#"
   xmlns:rdf="http://www.w3.org/1999/02/22-rdf-syntax-ns#"
   xmlns:svg="http://www.w3.org/2000/svg"
   xmlns="http://www.w3.org/2000/svg"
   xmlns:sodipodi="http://sodipodi.sourceforge.net/DTD/sodipodi-0.dtd"
   xmlns:inkscape="http://www.inkscape.org/namespaces/inkscape"
   width="128"
   height="128"
   viewBox="0 0 128 128"
   id="svg2"
   version="1.1"
   inkscape:version="0.92.4 5da689c313, 2019-01-14"
   sodipodi:docname="unpack-book.svg">
  <defs
     id="defs4" />
  <sodipodi:namedview
     id="base"
     pagecolor="#ffffff"
     bordercolor="#666666"
     borderopacity="1.0"
     inkscape:pageopacity="0.0"
     inkscape:pageshadow="2"
     inkscape:zoom="7.919596"
     inkscape:cx="19.843024"
     inkscape:cy="69.707741"
     inkscape:document-units="px"
     inkscape:current-layer="layer1"
     showgrid="false"
     units="px"
     inkscape:window-width="2560"
     inkscape:window-height="1400"
     inkscape:window-x="0"
     inkscape:window-y="40"
     inkscape:window-maximized="0" />
  <metadata
     id="metadata7">
    <rdf:RDF>
      <cc:Work
         rdf:about="">
        <dc:format>image/svg+xml</dc:format>
        <dc:type
           rdf:resource="http://purl.org/dc/dcmitype/StillImage" />
        <dc:title />
        <dc:creator>
          <cc:Agent>
            <dc:title>Kovid Goyal</dc:title>
          </cc:Agent>
        </dc:creator>
        <dc:rights>
          <cc:Agent>
            <dc:title />
          </cc:Agent>
        </dc:rights>
        <dc:publisher>
          <cc:Agent>
            <dc:title />
          </cc:Agent>
        </dc:publisher>
        <cc:license
           rdf:resource="http://creativecommons.org/licenses/by-sa/3.0/" />
      </cc:Work>
      <cc:License
         rdf:about="http://creativecommons.org/licenses/by-sa/3.0/">
        <cc:permits
           rdf:resource="http://creativecommons.org/ns#Reproduction" />
        <cc:permits
           rdf:resource="http://creativecommons.org/ns#Distribution" />
        <cc:requires
           rdf:resource="http://creativecommons.org/ns#Notice" />
        <cc:requires
           rdf:resource="http://creativecommons.org/ns#Attribution" />
        <cc:permits
           rdf:resource="http://creativecommons.org/ns#DerivativeWorks" />
        <cc:requires
           rdf:resource="http://creativecommons.org/ns#ShareAlike" />
      </cc:License>
    </rdf:RDF>
  </metadata>
  <g
     inkscape:label="Layer 1"
     inkscape:groupmode="layer"
     id="layer1"
     transform="translate(0,-924.36216)">
    <polygon
       transform="matrix(0.49388911,0,0,0.49388911,-5.9989024,918.3635)"
       style="fill:#784421;fill-opacity:1"
       points="141.733,167.539 227.833,131.738 221.929,217.398 141.733,258.524 "
       id="polygon4" />
    <polygon
       transform="matrix(0.49388911,0,0,0.49388911,-5.9989024,918.3635)"
       style="fill:#784421;fill-opacity:1"
       points="61.539,217.398 55.646,131.738 141.733,167.539 141.733,258.524 "
       id="polygon6" />
    <path
       inkscape:connector-curvature="0"
       style="fill:#2caf45;fill-opacity:1"
       d="m 98.132182,951.59533 c -23.613331,6.04273 -38.636943,25.54445 -35.585696,46.19444 -14.109918,-23.69086 0.493889,-52.38683 30.578648,-60.09594 -0.839612,-2.33215 -1.685644,-4.67763 -2.521798,-7.0152 10.000264,2.52229 19.998064,5.05396 29.998334,7.57675 -6.64429,6.78406 -13.29846,13.57504 -19.94571,20.36404 -0.841592,-2.34499 -1.682685,-4.68355 -2.523778,-7.02409 z"
       id="path8" />
    <path
       inkscape:connector-curvature="0"
       style="fill:#482914;fill-opacity:1"
       d="m 106.52533,983.42749 c 6.82555,-7.1367 13.64912,-14.27488 20.47467,-21.41209 -6.45069,-1.8916 -12.89791,-3.76689 -19.35354,-5.64664 -2.84282,2.89321 -5.68367,5.79727 -8.526006,8.69788 -1.134957,-3.1515 -2.27436,-6.3119 -3.409811,-9.4718 -10.211157,3.37178 -17.175487,8.29042 -22.914477,16.16995 11.239433,3.88789 22.482818,7.77579 33.729164,11.6627 z"
       id="path10" />
    <path
       inkscape:connector-curvature="0"
       style="fill:#482914;fill-opacity:1"
       d="m 54.005661,972.18114 c 0.581308,-3.50711 1.616005,-6.85224 3.139159,-10.15488 -4.305231,-4.20645 -8.612438,-8.41439 -12.9152,-12.62479 -14.410696,4.20053 -28.819417,8.40599 -43.2296198,12.61393 6.8260414,7.13672 13.6506008,14.27489 20.4845448,21.41209 10.833951,-3.74961 21.674324,-7.49477 32.521116,-11.24635 z"
       id="path12" />
  </g>
</svg>
