<?xml version="1.0" encoding="UTF-8" standalone="no"?>
<!-- Created with Inkscape (http://www.inkscape.org/) -->

<svg
   xmlns:dc="http://purl.org/dc/elements/1.1/"
   xmlns:cc="http://creativecommons.org/ns#"
   xmlns:rdf="http://www.w3.org/1999/02/22-rdf-syntax-ns#"
   xmlns:svg="http://www.w3.org/2000/svg"
   xmlns="http://www.w3.org/2000/svg"
   xmlns:xlink="http://www.w3.org/1999/xlink"
   xmlns:sodipodi="http://sodipodi.sourceforge.net/DTD/sodipodi-0.dtd"
   xmlns:inkscape="http://www.inkscape.org/namespaces/inkscape"
   width="128"
   height="128"
   viewBox="0 0 128 128"
   id="svg2"
   version="1.1"
   inkscape:version="0.92.4 5da689c313, 2019-01-14"
   sodipodi:docname="user_profile.svg">
  <defs
     id="defs4">
    <radialGradient
       inkscape:collect="always"
       xlink:href="#linearGradient3291"
       id="radialGradient3297"
       cx="63.912209"
       cy="115.70919"
       fx="63.912209"
       fy="115.7093"
       r="63.912209"
       gradientTransform="matrix(1,0,0,0.08241757,0.08779144,1037.1837)"
       gradientUnits="userSpaceOnUse" />
    <linearGradient
       inkscape:collect="always"
       id="linearGradient3291">
      <stop
         style="stop-color:#000000;stop-opacity:1;"
         offset="0"
         id="stop3293" />
      <stop
         style="stop-color:#000000;stop-opacity:0;"
         offset="1"
         id="stop3295" />
    </linearGradient>
    <linearGradient
       inkscape:collect="always"
       xlink:href="#linearGradient2892"
       id="linearGradient2898"
       x1="-36.6875"
       y1="68.546097"
       x2="8.8780031"
       y2="68.546097"
       gradientUnits="userSpaceOnUse"
       gradientTransform="matrix(0.976425,0,0,0.976425,89.075105,893.6452)" />
    <linearGradient
       inkscape:collect="always"
       id="linearGradient2892">
      <stop
         style="stop-color:white;stop-opacity:1;"
         offset="0"
         id="stop2894" />
      <stop
         style="stop-color:white;stop-opacity:0;"
         offset="1"
         id="stop2896" />
    </linearGradient>
    <linearGradient
       inkscape:collect="always"
       xlink:href="#linearGradient2892"
       id="linearGradient2911"
       x1="-140.05789"
       y1="162.54935"
       x2="-68.625"
       y2="150.66425"
       gradientUnits="userSpaceOnUse"
       gradientTransform="matrix(0.976425,0,0,0.976425,188.35256,870.69844)" />
    <linearGradient
       inkscape:collect="always"
       xlink:href="#linearGradient2892"
       id="linearGradient2915"
       gradientUnits="userSpaceOnUse"
       gradientTransform="matrix(-0.976425,0,0,0.976425,-59.152135,870.69844)"
       x1="-185.31273"
       y1="159.3495"
       x2="-68.625"
       y2="150.66425" />
  </defs>
  <sodipodi:namedview
     id="base"
     pagecolor="#ffffff"
     bordercolor="#666666"
     borderopacity="1.0"
     inkscape:pageopacity="0.0"
     inkscape:pageshadow="2"
     inkscape:zoom="11.2"
     inkscape:cx="59.128738"
     inkscape:cy="55.888112"
     inkscape:document-units="px"
     inkscape:current-layer="layer1"
     showgrid="false"
     units="px"
     inkscape:window-width="2560"
     inkscape:window-height="1400"
     inkscape:window-x="0"
     inkscape:window-y="40"
     inkscape:window-maximized="0" />
  <metadata
     id="metadata7">
    <rdf:RDF>
      <cc:Work
         rdf:about="">
        <dc:format>image/svg+xml</dc:format>
        <dc:type
           rdf:resource="http://purl.org/dc/dcmitype/StillImage" />
        <dc:title />
        <dc:creator>
          <cc:Agent>
            <dc:title>Kovid Goyal</dc:title>
          </cc:Agent>
        </dc:creator>
        <dc:rights>
          <cc:Agent>
            <dc:title />
          </cc:Agent>
        </dc:rights>
        <dc:publisher>
          <cc:Agent>
            <dc:title />
          </cc:Agent>
        </dc:publisher>
        <cc:license
           rdf:resource="http://creativecommons.org/licenses/by-sa/3.0/" />
      </cc:Work>
      <cc:License
         rdf:about="http://creativecommons.org/licenses/by-sa/3.0/">
        <cc:permits
           rdf:resource="http://creativecommons.org/ns#Reproduction" />
        <cc:permits
           rdf:resource="http://creativecommons.org/ns#Distribution" />
        <cc:requires
           rdf:resource="http://creativecommons.org/ns#Notice" />
        <cc:requires
           rdf:resource="http://creativecommons.org/ns#Attribution" />
        <cc:permits
           rdf:resource="http://creativecommons.org/ns#DerivativeWorks" />
        <cc:requires
           rdf:resource="http://creativecommons.org/ns#ShareAlike" />
      </cc:License>
    </rdf:RDF>
  </metadata>
  <g
     inkscape:label="Layer 1"
     inkscape:groupmode="layer"
     id="layer1"
     transform="translate(0,-924.36216)">
    <path
       sodipodi:nodetypes="ccc"
       id="path2276"
       d="m 50.714154,927.53133 v -2.79471 z"
       style="fill:#ffffff;fill-opacity:0.75688076;fill-rule:nonzero;stroke:none;stroke-width:0.5;stroke-linecap:round;stroke-linejoin:round;stroke-miterlimit:4;stroke-dasharray:none;stroke-dashoffset:4;stroke-opacity:1"
       inkscape:connector-curvature="0" />
    <ellipse
       style="opacity:0.38139535;fill:url(#radialGradient3297);fill-opacity:1;fill-rule:nonzero;stroke:none;stroke-width:0;stroke-linecap:round;stroke-linejoin:round;stroke-miterlimit:4;stroke-dasharray:none;stroke-dashoffset:4;stroke-opacity:1"
       id="path3289"
       cx="64"
       cy="1046.7202"
       rx="63.912209"
       ry="5.2674942" />
    <path
       style="fill:#000000;fill-opacity:1;stroke:none;stroke-width:2;stroke-miterlimit:4;stroke-dasharray:none;stroke-opacity:1"
       d="m 63.948197,925.63267 c -5.70045,0.0728 -11.221205,2.75775 -15.744847,9.03193 -12.470799,3.34154 -15.686408,21.0623 -16.782298,33.38151 -1.392318,15.65145 6.615934,25.48852 17.514616,29.71993 -0.158808,1.77639 -0.554257,3.28946 -1.098477,4.21086 -2.047835,3.467 -6.697365,6.4745 -14.73791,8.7573 -8.970401,2.5467 -16.085492,5.0215 -21.237235,9.5506 -4.5608791,4.0097 -7.506264,8.6462 -7.506264,14.5854 0,15.4158 119.337398,16.2319 119.337398,0 1e-5,-5.9392 -2.94538,-10.5757 -7.50626,-14.5854 -5.09453,-4.4788 -12.20917,-7.1096 -21.237241,-9.6727 -8.100097,-2.2996 -12.746677,-5.2124 -14.768423,-8.6352 -0.675295,-1.1433 -1.095139,-3.16643 -1.159504,-5.52293 9.916113,-4.63199 17.761727,-13.57517 18.918227,-26.76014 1.835883,-20.9304 -16.890433,-44.27964 -33.991782,-44.06116 z"
       id="path2375"
       inkscape:connector-curvature="0" />
    <path
       id="path2878"
       d="m 63.948197,925.63267 c -5.70045,0.0728 -11.221205,2.75775 -15.744847,9.03193 -12.470799,3.34154 -15.686408,21.0623 -16.782298,33.38151 -1.392318,15.65145 6.615934,25.48852 17.514616,29.71993 -0.158808,1.77639 -0.554257,3.28946 -1.098477,4.21086 -2.047835,3.467 -6.697365,6.4745 -14.73791,8.7573 -8.970401,2.5467 -16.085492,5.0215 -21.237235,9.5506 -4.5608791,4.0097 -7.506264,8.6462 -7.506264,14.5854 0,15.4158 119.337398,16.2319 119.337398,0 1e-5,-5.9392 -2.94538,-10.5757 -7.50626,-14.5854 -5.09453,-4.4788 -12.20917,-7.1096 -21.237241,-9.6727 -8.100097,-2.2996 -12.746677,-5.2124 -14.768423,-8.6352 -0.675295,-1.1433 -1.095139,-3.16643 -1.159504,-5.52293 9.916113,-4.63199 17.761727,-13.57517 18.918227,-26.76014 1.835883,-20.9304 -16.890433,-44.27964 -33.991782,-44.06116 z"
       style="fill:#2271d5;fill-opacity:1;stroke:none;stroke-width:2;stroke-miterlimit:4;stroke-dasharray:none;stroke-opacity:1"
       inkscape:connector-curvature="0" />
    <path
       style="fill:url(#linearGradient2898);fill-opacity:1;stroke:none;stroke-width:2;stroke-miterlimit:4;stroke-dasharray:none;stroke-opacity:0.2073171"
       d="m 63.627037,926.56902 c -3.601029,0.046 -7.122962,1.16246 -10.374512,3.53954 2.947307,-1.86784 7.702373,-2.11056 10.895822,-1.81865 15.050085,1.3757 34.238391,22.17271 32.402508,43.10311 -0.908893,10.36207 -5.946679,18.10149 -12.8766,23.19008 7.479074,-5.0636 12.989377,-13.06306 13.944564,-23.95291 1.835888,-20.9304 -16.890433,-44.27965 -33.991782,-44.06117 z"
       id="path2882"
       sodipodi:nodetypes="ccsscsc"
       inkscape:connector-curvature="0" />
    <path
       style="fill:url(#linearGradient2911);fill-opacity:1;stroke:none;stroke-width:2;stroke-miterlimit:4;stroke-dasharray:none;stroke-opacity:1"
       d="m 78.968737,1000.1513 c -0.04709,0.022 -0.09802,0.036 -0.145224,0.058 0.06127,2.2431 0.460912,4.1689 1.103712,5.2572 1.924464,3.2581 6.347463,6.0307 14.057799,8.2197 8.593656,2.4398 15.365966,4.944 20.215346,9.2073 4.00034,3.5169 6.68827,7.5432 7.08699,12.5765 0.0254,-0.1605 0.0581,-0.3296 0.0581,-0.4938 0,-5.6533 -2.80367,-10.0668 -7.14509,-13.8835 -4.84938,-4.2633 -11.62169,-6.7675 -20.215346,-9.2073 -7.710336,-2.189 -12.133335,-4.9616 -14.057799,-8.2197 -0.469055,-0.7941 -0.785378,-2.0306 -0.958488,-3.5145 z"
       id="path2900"
       sodipodi:nodetypes="ccssscssssc"
       inkscape:connector-curvature="0" />
    <path
       sodipodi:nodetypes="ccssscssssc"
       id="path2913"
       d="m 50.231729,1000.1513 c 0.04709,0.022 0.09802,0.036 0.145224,0.058 -0.06127,2.2431 -0.460911,4.1689 -1.103711,5.2572 -1.924465,3.2581 -6.347463,6.0307 -14.0578,8.2197 -8.593655,2.4398 -15.365961,4.944 -20.215344,9.2073 -4.000334,3.5169 -6.6882644,7.5432 -7.0869874,12.5765 -0.025367,-0.1605 -0.058097,-0.3296 -0.058097,-0.4938 0,-5.6533 2.8036664,-10.0668 7.1450844,-13.8835 4.849383,-4.2633 11.621689,-6.7675 20.215344,-9.2073 7.710337,-2.189 12.133335,-4.9616 14.0578,-8.2197 0.469055,-0.7941 0.785377,-2.0306 0.958487,-3.5145 z"
       style="fill:url(#linearGradient2915);fill-opacity:1;stroke:none;stroke-width:2;stroke-miterlimit:4;stroke-dasharray:none;stroke-opacity:1"
       inkscape:connector-curvature="0" />
  </g>
</svg>
