<svg xmlns="http://www.w3.org/2000/svg" xmlns:xlink="http://www.w3.org/1999/xlink" width="128" height="128" viewBox="0 0 128 128"><defs><radialGradient xlink:href="#a" id="c" cx="63.912" cy="115.709" fx="63.912" fy="115.709" r="63.912" gradientTransform="matrix(1 0 0 .198 0 92.822)" gradientUnits="userSpaceOnUse"/><linearGradient id="a"><stop offset="0"/><stop offset="1" stop-opacity="0"/></linearGradient><linearGradient xlink:href="#b" id="d" x1="-36.688" y1="68.546" x2="8.878" y2="68.546" gradientUnits="userSpaceOnUse" gradientTransform="matrix(.976 0 0 .976 89.254 -30.605)"/><linearGradient id="b"><stop offset="0" stop-color="#fff"/><stop offset="1" stop-color="#fff" stop-opacity="0"/></linearGradient><linearGradient xlink:href="#b" id="e" x1="-140.058" y1="162.549" x2="-68.625" y2="150.664" gradientUnits="userSpaceOnUse" gradientTransform="matrix(.976 0 0 .976 188.531 -53.552)"/><linearGradient xlink:href="#b" id="f" gradientUnits="userSpaceOnUse" gradientTransform="matrix(-.976 0 0 .976 -58.973 -53.552)" x1="-185.313" y1="159.35" x2="-68.625" y2="150.664"/></defs><g transform="translate(0 -924.362) translate(-.179 924.25)"><path d="M50.893 3.281v-2.795 2.795z" fill="#fff" fill-opacity=".757"/><ellipse ry="12.642" rx="63.912" cy="115.709" cx="63.912" transform="matrix(1 0 0 .417 .266 74.258)" opacity=".381" fill="url(#c)"/><path d="M64.127 1.383c-5.7.073-11.221 2.758-15.745 9.032-12.471 3.342-15.686 21.062-16.782 33.382-1.392 15.651 6.616 25.489 17.515 29.72-.159 1.776-.554 3.289-1.098 4.211-2.048 3.467-6.697 6.475-14.738 8.757-8.97 2.547-16.085 5.022-21.237 9.551-4.561 4.01-7.506 8.646-7.506 14.585 0 15.416 119.337 16.232 119.337 0 0-5.939-2.945-10.576-7.506-14.585-5.095-4.479-12.209-7.11-21.237-9.673-8.1-2.3-12.747-5.212-14.768-8.635-.675-1.143-1.095-3.166-1.16-5.523 9.916-4.632 17.762-13.575 18.918-26.76 1.836-20.93-16.89-44.28-33.992-44.061zm0 0c-5.7.073-11.221 2.758-15.745 9.032-12.471 3.342-15.686 21.062-16.782 33.382-1.392 15.651 6.616 25.489 17.515 29.72-.159 1.776-.554 3.289-1.098 4.211-2.048 3.467-6.697 6.475-14.738 8.757-8.97 2.547-16.085 5.022-21.237 9.551-4.561 4.01-7.506 8.646-7.506 14.585 0 15.416 119.337 16.232 119.337 0 0-5.939-2.945-10.576-7.506-14.585-5.095-4.479-12.209-7.11-21.237-9.673-8.1-2.3-12.747-5.212-14.768-8.635-.675-1.143-1.095-3.166-1.16-5.523 9.916-4.632 17.762-13.575 18.918-26.76 1.836-20.93-16.89-44.28-33.992-44.061z"/><path d="M63.806 2.319c-3.601.046-7.123 1.162-10.375 3.54 2.947-1.868 7.702-2.111 10.896-1.819 15.05 1.376 34.238 22.173 32.403 43.103-.909 10.362-5.947 18.101-12.877 23.19 7.479-5.064 12.989-13.063 13.945-23.953 1.836-20.93-16.89-44.28-33.992-44.061z" fill="url(#d)"/><path d="M79.147 75.901l-.145.058c.061 2.243.461 4.169 1.104 5.257 1.924 3.258 6.347 6.031 14.058 8.22 8.594 2.44 15.366 4.944 20.215 9.207 4 3.517 6.688 7.543 7.087 12.577.025-.16.058-.33.058-.494 0-5.653-2.804-10.067-7.145-13.884-4.849-4.263-11.622-6.767-20.215-9.207-7.71-2.189-12.133-4.962-14.058-8.22-.469-.794-.785-2.031-.958-3.514z" fill="url(#e)"/><path d="M50.41 75.901l.145.058c-.061 2.243-.461 4.169-1.104 5.257-1.924 3.258-6.347 6.031-14.058 8.22-8.594 2.44-15.366 4.944-20.215 9.207-4 3.517-6.688 7.543-7.087 12.577-.025-.16-.058-.33-.058-.494 0-5.653 2.804-10.067 7.145-13.884 4.849-4.263 11.622-6.767 20.215-9.207 7.71-2.189 12.133-4.962 14.058-8.22.469-.794.785-2.031.958-3.514z" fill="url(#f)"/></g></svg>