<?xml version="1.0" encoding="UTF-8" standalone="no"?>
<!-- Created with Inkscape (http://www.inkscape.org/) -->
<svg
   xmlns:dc="http://purl.org/dc/elements/1.1/"
   xmlns:cc="http://web.resource.org/cc/"
   xmlns:rdf="http://www.w3.org/1999/02/22-rdf-syntax-ns#"
   xmlns:svg="http://www.w3.org/2000/svg"
   xmlns="http://www.w3.org/2000/svg"
   xmlns:xlink="http://www.w3.org/1999/xlink"
   xmlns:sodipodi="http://sodipodi.sourceforge.net/DTD/sodipodi-0.dtd"
   xmlns:inkscape="http://www.inkscape.org/namespaces/inkscape"
   width="128"
   height="128"
   id="svg1307"
   sodipodi:version="0.32"
   inkscape:version="0.43+0.44pre3"
   version="1.0"
   sodipodi:docbase="/home/pinheiro/artwork/Oxygen/theme/svg/actions"
   sodipodi:docname="user_female.svg">
  <defs
     id="defs1309">
    <linearGradient
       inkscape:collect="always"
       id="linearGradient2818">
      <stop
         style="stop-color:white;stop-opacity:1;"
         offset="0"
         id="stop2820" />
      <stop
         style="stop-color:white;stop-opacity:0;"
         offset="1"
         id="stop2822" />
    </linearGradient>
    <linearGradient
       inkscape:collect="always"
       id="linearGradient2928">
      <stop
         style="stop-color:#f6f6f6;stop-opacity:1;"
         offset="0"
         id="stop2930" />
      <stop
         style="stop-color:#f6f6f6;stop-opacity:0;"
         offset="1"
         id="stop2932" />
    </linearGradient>
    <linearGradient
       inkscape:collect="always"
       id="linearGradient2905">
      <stop
         style="stop-color:white;stop-opacity:1;"
         offset="0"
         id="stop2907" />
      <stop
         style="stop-color:white;stop-opacity:0;"
         offset="1"
         id="stop2909" />
    </linearGradient>
    <linearGradient
       inkscape:collect="always"
       id="linearGradient2892">
      <stop
         style="stop-color:white;stop-opacity:1;"
         offset="0"
         id="stop2894" />
      <stop
         style="stop-color:white;stop-opacity:0;"
         offset="1"
         id="stop2896" />
    </linearGradient>
    <linearGradient
       inkscape:collect="always"
       id="linearGradient3345">
      <stop
         style="stop-color:#000000;stop-opacity:1;"
         offset="0"
         id="stop3347" />
      <stop
         style="stop-color:#000000;stop-opacity:0;"
         offset="1"
         id="stop3349" />
    </linearGradient>
    <linearGradient
       inkscape:collect="always"
       id="linearGradient3313">
      <stop
         style="stop-color:#ffffff;stop-opacity:1;"
         offset="0"
         id="stop3315" />
      <stop
         style="stop-color:#ffffff;stop-opacity:0;"
         offset="1"
         id="stop3317" />
    </linearGradient>
    <linearGradient
       inkscape:collect="always"
       id="linearGradient3283">
      <stop
         style="stop-color:#ffffff;stop-opacity:1;"
         offset="0"
         id="stop3285" />
      <stop
         style="stop-color:#ffffff;stop-opacity:0;"
         offset="1"
         id="stop3287" />
    </linearGradient>
    <linearGradient
       inkscape:collect="always"
       id="linearGradient3263">
      <stop
         style="stop-color:#ffffff;stop-opacity:1;"
         offset="0"
         id="stop3265" />
      <stop
         style="stop-color:#ffffff;stop-opacity:0;"
         offset="1"
         id="stop3267" />
    </linearGradient>
    <linearGradient
       inkscape:collect="always"
       id="linearGradient3291">
      <stop
         style="stop-color:#000000;stop-opacity:1;"
         offset="0"
         id="stop3293" />
      <stop
         style="stop-color:#000000;stop-opacity:0;"
         offset="1"
         id="stop3295" />
    </linearGradient>
    <radialGradient
       inkscape:collect="always"
       xlink:href="#linearGradient3291"
       id="radialGradient3297"
       cx="63.912209"
       cy="115.70919"
       fx="63.912209"
       fy="115.7093"
       r="63.912209"
       gradientTransform="matrix(1,0,0,0.197802,0,92.82166)"
       gradientUnits="userSpaceOnUse" />
    <linearGradient
       id="linearGradient7281">
      <stop
         id="stop7283"
         offset="0.0000000"
         style="stop-color:#ffffff;stop-opacity:1.0000000" />
      <stop
         id="stop7285"
         offset="1.0000000"
         style="stop-color:#ffffff;stop-opacity:0.0000000" />
    </linearGradient>
    <linearGradient
       inkscape:collect="always"
       xlink:href="#linearGradient3313"
       id="linearGradient2262"
       gradientUnits="userSpaceOnUse"
       x1="97.003845"
       y1="81.455772"
       x2="95.084343"
       y2="86.346596" />
    <radialGradient
       inkscape:collect="always"
       xlink:href="#linearGradient3313"
       id="radialGradient2264"
       gradientUnits="userSpaceOnUse"
       gradientTransform="matrix(7.235078e-2,-0.180927,0.727882,0.291067,44.18976,78.77205)"
       cx="71.833099"
       cy="63.797356"
       fx="71.833099"
       fy="63.797356"
       r="19.780952" />
    <linearGradient
       inkscape:collect="always"
       xlink:href="#linearGradient3345"
       id="linearGradient1927"
       gradientUnits="userSpaceOnUse"
       x1="54.480171"
       y1="72.976402"
       x2="8.1947927"
       y2="94.579391"
       gradientTransform="matrix(1.031183,0,0,1.005307,151.5234,56.56278)" />
    <radialGradient
       inkscape:collect="always"
       xlink:href="#linearGradient3313"
       id="radialGradient1933"
       gradientUnits="userSpaceOnUse"
       gradientTransform="matrix(7.460689e-2,-0.181887,0.75058,0.292612,197.0911,135.7529)"
       cx="71.833099"
       cy="63.797356"
       fx="71.833099"
       fy="63.797356"
       r="19.780952" />
    <linearGradient
       inkscape:collect="always"
       xlink:href="#linearGradient3313"
       id="linearGradient1936"
       gradientUnits="userSpaceOnUse"
       x1="97.003845"
       y1="81.455772"
       x2="95.084343"
       y2="86.346596"
       gradientTransform="matrix(1.031183,0,0,1.005307,151.5234,56.56278)" />
    <linearGradient
       inkscape:collect="always"
       xlink:href="#linearGradient3283"
       id="linearGradient1939"
       gradientUnits="userSpaceOnUse"
       gradientTransform="matrix(1.031183,0,0,1.005307,151.1935,56.77717)"
       x1="74.919579"
       y1="-0.91353309"
       x2="69.163208"
       y2="17.977095" />
    <linearGradient
       inkscape:collect="always"
       xlink:href="#linearGradient3263"
       id="linearGradient1943"
       gradientUnits="userSpaceOnUse"
       x1="82.950089"
       y1="-13.696256"
       x2="89.018158"
       y2="108.30589"
       gradientTransform="matrix(1.031183,0,0,1.005307,151.5234,56.56278)" />
    <linearGradient
       inkscape:collect="always"
       xlink:href="#linearGradient3263"
       id="linearGradient1946"
       gradientUnits="userSpaceOnUse"
       x1="73.783409"
       y1="-17.918573"
       x2="59.461929"
       y2="151.13226"
       gradientTransform="matrix(1.031183,0,0,1.005307,151.5234,56.56278)" />
    <linearGradient
       inkscape:collect="always"
       xlink:href="#linearGradient3263"
       id="linearGradient1949"
       gradientUnits="userSpaceOnUse"
       x1="81.624855"
       y1="-4.6484313"
       x2="73.938446"
       y2="133.6398"
       gradientTransform="matrix(1.031183,0,0,1.005307,151.5234,56.56278)" />
    <linearGradient
       inkscape:collect="always"
       xlink:href="#linearGradient2892"
       id="linearGradient2898"
       x1="-36.6875"
       y1="68.546096"
       x2="8.8780034"
       y2="68.546096"
       gradientUnits="userSpaceOnUse"
       gradientTransform="matrix(0.976425,0,0,0.976425,89.25375,-30.60483)" />
    <linearGradient
       inkscape:collect="always"
       xlink:href="#linearGradient2905"
       id="linearGradient2911"
       x1="-140.05789"
       y1="162.54935"
       x2="-68.625"
       y2="150.66424"
       gradientUnits="userSpaceOnUse"
       gradientTransform="matrix(0.976425,0,0,0.976425,188.5312,-53.55159)" />
    <linearGradient
       inkscape:collect="always"
       xlink:href="#linearGradient2905"
       id="linearGradient2915"
       gradientUnits="userSpaceOnUse"
       gradientTransform="matrix(-0.976425,0,0,0.976425,-58.97349,-53.55159)"
       x1="-185.31273"
       y1="159.3495"
       x2="-68.625"
       y2="150.66424" />
    <linearGradient
       inkscape:collect="always"
       xlink:href="#linearGradient2928"
       id="linearGradient2934"
       x1="91.828743"
       y1="-217.56068"
       x2="75.18631"
       y2="169.16245"
       gradientUnits="userSpaceOnUse"
       gradientTransform="matrix(0.976425,0,0,0.976425,1.513613,9.540758e-3)" />
    <linearGradient
       inkscape:collect="always"
       xlink:href="#linearGradient2928"
       id="linearGradient2942"
       gradientUnits="userSpaceOnUse"
       x1="121.8125"
       y1="-92.146545"
       x2="75.18631"
       y2="169.16245"
       gradientTransform="matrix(0.976425,0,0,0.976425,1.513613,9.540758e-3)" />
    <radialGradient
       inkscape:collect="always"
       xlink:href="#linearGradient2818"
       id="radialGradient2824"
       cx="64.203125"
       cy="140.98654"
       fx="64.203125"
       fy="140.98654"
       r="59.668697"
       gradientTransform="matrix(1.387143,0,0,0.911422,-24.85578,13.66183)"
       gradientUnits="userSpaceOnUse" />
  </defs>
  <sodipodi:namedview
     id="base"
     pagecolor="#ffffff"
     bordercolor="#666666"
     borderopacity="1.0"
     inkscape:pageopacity="0.0"
     inkscape:pageshadow="2"
     inkscape:zoom="4.3752232"
     inkscape:cx="95.384475"
     inkscape:cy="58.47551"
     inkscape:current-layer="layer1"
     showgrid="false"
     inkscape:document-units="px"
     inkscape:grid-bbox="true"
     guidetolerance="0.1px"
     showguides="true"
     inkscape:guide-bbox="true"
     inkscape:window-width="1106"
     inkscape:window-height="958"
     inkscape:window-x="128"
     inkscape:window-y="215">
    <sodipodi:guide
       orientation="horizontal"
       position="32.487481"
       id="guide2204" />
  </sodipodi:namedview>
  <metadata
     id="metadata1312">
    <rdf:RDF>
      <cc:Work
         rdf:about="">
        <dc:format>image/svg+xml</dc:format>
        <dc:type
           rdf:resource="http://purl.org/dc/dcmitype/StillImage" />
        <cc:license
           rdf:resource="http://creativecommons.org/licenses/GPL/2.0/" />
        <dc:contributor>
          <cc:Agent>
            <dc:title>Oxygen team</dc:title>
          </cc:Agent>
        </dc:contributor>
      </cc:Work>
      <cc:License
         rdf:about="http://creativecommons.org/licenses/LGPL/2.1/">
        <cc:permits
           rdf:resource="http://web.resource.org/cc/Reproduction" />
        <cc:permits
           rdf:resource="http://web.resource.org/cc/Distribution" />
        <cc:requires
           rdf:resource="http://web.resource.org/cc/Notice" />
        <cc:permits
           rdf:resource="http://web.resource.org/cc/DerivativeWorks" />
        <cc:requires
           rdf:resource="http://web.resource.org/cc/ShareAlike" />
        <cc:requires
           rdf:resource="http://web.resource.org/cc/SourceCode" />
      </cc:License>
    </rdf:RDF>
  </metadata>
  <g
     id="layer1"
     inkscape:label="Layer 1"
     inkscape:groupmode="layer">
    <path
       id="path2876"
       d="M 64.126842,1.3826379 C 58.426392,1.4554645 52.905637,4.1403867 48.381995,10.414566 C 35.911196,13.756106 32.695587,31.476866 31.599697,43.796082 C 30.207379,59.447533 38.215631,69.284604 49.114313,73.516007 C 48.955505,75.292398 48.560056,76.805464 48.015836,77.726838 C 45.968001,81.19384 41.318471,84.201393 33.277926,86.484146 C 24.307525,89.030883 17.192434,91.505674 12.040691,96.0348 C 7.4798115,100.04448 4.5344266,104.68101 4.5344266,110.62014 C 4.5344266,126.036 123.87182,126.85211 123.87182,110.62014 C 123.87183,104.68101 120.92644,100.04447 116.36556,96.0348 C 111.27103,91.555971 104.15639,88.925208 95.128324,86.362093 C 87.028227,84.062439 82.381647,81.149675 80.359901,77.726838 C 79.684606,76.58356 79.264762,74.560445 79.200397,72.203936 C 89.11651,67.571946 96.962124,58.62877 98.118624,45.443799 C 99.954507,24.513404 81.228191,1.1641579 64.126842,1.3826379 z "
       style="fill:black;fill-opacity:1;stroke:black;stroke-width:1.95284927;stroke-miterlimit:4;stroke-dasharray:none;stroke-opacity:0.2073171" />
    <path
       sodipodi:nodetypes="ccc"
       id="path2276"
       d="M 50.892799,3.2812959 L 50.892799,0.48658747 L 50.892799,3.2812959 z "
       style="fill:#ffffff;fill-opacity:0.75688076;fill-rule:nonzero;stroke:none;stroke-width:0.5;stroke-linecap:round;stroke-linejoin:round;stroke-miterlimit:4;stroke-dasharray:none;stroke-dashoffset:4;stroke-opacity:1" />
    <path
       sodipodi:type="arc"
       style="opacity:0.38139535;fill:url(#radialGradient3297);fill-opacity:1;fill-rule:nonzero;stroke:none;stroke-width:0;stroke-linecap:round;stroke-linejoin:round;stroke-miterlimit:4;stroke-dasharray:none;stroke-dashoffset:4;stroke-opacity:1"
       id="path3289"
       sodipodi:cx="63.912209"
       sodipodi:cy="115.70919"
       sodipodi:rx="63.912209"
       sodipodi:ry="12.641975"
       d="M 127.82442 115.70919 A 63.912209 12.641975 0 1 1  0,115.70919 A 63.912209 12.641975 0 1 1  127.82442 115.70919 z"
       transform="matrix(1,0,0,0.416667,0.266436,74.25798)" />
    <path
       style="fill:black;fill-opacity:1;stroke:none;stroke-width:2;stroke-miterlimit:4;stroke-dasharray:none;stroke-opacity:1"
       d="M 64.126842,1.3826379 C 58.426392,1.4554645 52.905637,4.1403867 48.381995,10.414566 C 35.911196,13.756106 32.695587,31.476866 31.599697,43.796082 C 30.207379,59.447533 38.215631,69.284604 49.114313,73.516007 C 48.955505,75.292398 48.560056,76.805464 48.015836,77.726838 C 45.968001,81.19384 41.318471,84.201393 33.277926,86.484146 C 24.307525,89.030883 17.192434,91.505674 12.040691,96.0348 C 7.4798115,100.04448 4.5344266,104.68101 4.5344266,110.62014 C 4.5344266,126.036 123.87182,126.85211 123.87182,110.62014 C 123.87183,104.68101 120.92644,100.04447 116.36556,96.0348 C 111.27103,91.555971 104.15639,88.925208 95.128324,86.362093 C 87.028227,84.062439 82.381647,81.149675 80.359901,77.726838 C 79.684606,76.58356 79.264762,74.560445 79.200397,72.203936 C 89.11651,67.571946 96.962124,58.62877 98.118624,45.443799 C 99.954507,24.513404 81.228191,1.1641579 64.126842,1.3826379 z "
       id="path2375" />
    <path
       id="path2878"
       d="M 64.126842,1.3826379 C 58.426392,1.4554645 52.905637,4.1403867 48.381995,10.414566 C 35.911196,13.756106 32.695587,31.476866 31.599697,43.796082 C 30.207379,59.447533 38.215631,69.284604 49.114313,73.516007 C 48.955505,75.292398 48.560056,76.805464 48.015836,77.726838 C 45.968001,81.19384 41.318471,84.201393 33.277926,86.484146 C 24.307525,89.030883 17.192434,91.505674 12.040691,96.0348 C 7.4798115,100.04448 4.5344266,104.68101 4.5344266,110.62014 C 4.5344266,126.036 123.87182,126.85211 123.87182,110.62014 C 123.87183,104.68101 120.92644,100.04447 116.36556,96.0348 C 111.27103,91.555971 104.15639,88.925208 95.128324,86.362093 C 87.028227,84.062439 82.381647,81.149675 80.359901,77.726838 C 79.684606,76.58356 79.264762,74.560445 79.200397,72.203936 C 89.11651,67.571946 96.962124,58.62877 98.118624,45.443799 C 99.954507,24.513404 81.228191,1.1641579 64.126842,1.3826379 z "
       style="fill:black;fill-opacity:1;stroke:none;stroke-width:2;stroke-miterlimit:4;stroke-dasharray:none;stroke-opacity:1" />
    <path
       style="fill:url(#linearGradient2898);fill-opacity:1;stroke:none;stroke-width:2;stroke-miterlimit:4;stroke-dasharray:none;stroke-opacity:0.2073171"
       d="M 63.805682,2.3189945 C 60.204653,2.3650007 56.68272,3.4814485 53.43117,5.8585338 C 56.378477,3.9906882 61.133543,3.7479685 64.326992,4.0398775 C 79.377077,5.4155836 98.565383,26.21259 96.7295,47.142988 C 95.820607,57.505059 90.782821,65.24448 83.8529,70.333073 C 91.331974,65.269474 96.842277,57.270013 97.797464,46.380156 C 99.633352,25.449758 80.907031,2.1005146 63.805682,2.3189945 z "
       id="path2882"
       sodipodi:nodetypes="ccsscsc" />
    <path
       style="fill:url(#linearGradient2911);fill-opacity:1;stroke:none;stroke-width:2;stroke-miterlimit:4;stroke-dasharray:none;stroke-opacity:1"
       d="M 79.147382,75.901301 C 79.100289,75.923554 79.049359,75.937341 79.002158,75.959388 C 79.063429,78.202509 79.46307,80.128263 80.10587,81.216537 C 82.030334,84.47468 86.453333,87.247287 94.163669,89.436284 C 102.75732,91.876067 109.52963,94.380244 114.37901,98.643562 C 118.37935,102.16043 121.06728,106.18674 121.466,111.22007 C 121.49137,111.05961 121.5241,110.89043 121.5241,110.7263 C 121.5241,105.07295 118.72043,100.65951 114.37901,96.842768 C 109.52963,92.579463 102.75732,90.075276 94.163669,87.635494 C 86.453333,85.446506 82.030334,82.673889 80.10587,79.415746 C 79.636815,78.621639 79.320492,77.385183 79.147382,75.901301 z "
       id="path2900"
       sodipodi:nodetypes="ccssscssssc" />
    <path
       sodipodi:nodetypes="ccssscssssc"
       id="path2913"
       d="M 50.410374,75.901301 C 50.457467,75.923554 50.508398,75.937341 50.555598,75.959388 C 50.494327,78.202509 50.094687,80.128263 49.451887,81.216537 C 47.527422,84.47468 43.104424,87.247287 35.394087,89.436284 C 26.800432,91.876067 20.028126,94.380244 15.178743,98.643562 C 11.178409,102.16043 8.4904782,106.18674 8.0917552,111.22007 C 8.0663877,111.05961 8.033658,110.89043 8.033658,110.7263 C 8.033658,105.07295 10.837325,100.65951 15.178743,96.842768 C 20.028126,92.579463 26.800432,90.075276 35.394087,87.635494 C 43.104424,85.446506 47.527422,82.673889 49.451887,79.415746 C 49.920942,78.621639 50.237264,77.385183 50.410374,75.901301 z "
       style="fill:url(#linearGradient2915);fill-opacity:1;stroke:none;stroke-width:2;stroke-miterlimit:4;stroke-dasharray:none;stroke-opacity:1" />
    <path
       style="opacity:0.19262294;fill:url(#linearGradient2934);fill-opacity:1;stroke:none;stroke-width:2;stroke-miterlimit:4;stroke-dasharray:none;stroke-opacity:1"
       d="M 64.126842,1.3826379 C 58.426392,1.4554645 52.905637,4.1403867 48.381995,10.414566 C 35.911196,13.756106 32.695587,31.476866 31.599697,43.796082 C 30.207379,59.447533 38.215631,69.284604 49.114313,73.516007 C 48.955505,75.292398 48.560056,76.805464 48.015836,77.726838 C 45.968001,81.19384 41.318471,84.201393 33.277926,86.484146 C 24.307525,89.030883 17.192434,91.505674 12.040691,96.0348 C 10.934256,97.007517 9.9476914,98.029977 9.0503905,99.086127 C 43.790302,112.20602 86.237691,93.86764 120.45434,100.45922 C 119.31869,98.895255 117.94232,97.420999 116.36556,96.0348 C 111.27103,91.555971 104.15639,88.925208 95.128324,86.362093 C 87.028227,84.062439 82.381647,81.149675 80.359901,77.726838 C 79.684606,76.58356 79.264762,74.560445 79.200397,72.203936 C 89.11651,67.571946 96.962124,58.62877 98.118624,45.443799 C 99.954507,24.513404 81.228191,1.1641579 64.126842,1.3826379 z "
       id="path2923"
       sodipodi:nodetypes="ccscsssccssscsc" />
    <path
       style="opacity:0.147541;fill:url(#linearGradient2942);fill-opacity:1;stroke:none;stroke-width:2;stroke-miterlimit:4;stroke-dasharray:none;stroke-opacity:1"
       d="M 64.126842,1.3826379 C 58.426392,1.4554645 52.905637,4.1403867 48.381995,10.414566 C 35.911196,13.756106 32.695587,31.476866 31.599697,43.796082 C 30.590647,55.139108 34.51846,63.410713 40.906244,68.725424 C 46.499431,43.086176 60.253253,23.183408 81.916078,8.8889022 C 76.436168,4.2058259 70.185402,1.3052361 64.126842,1.3826379 z M 91.588784,20.392405 C 69.413597,38.642858 59.93157,63.059075 62.204506,99.635366 C 82.545047,99.174142 102.74074,98.667446 120.45434,100.45922 C 119.31869,98.895255 117.94232,97.420999 116.36556,96.0348 C 111.27103,91.555971 104.15639,88.925208 95.128324,86.362093 C 87.028227,84.062439 82.381647,81.149675 80.359901,77.726838 C 79.684606,76.58356 79.264762,74.560445 79.200397,72.203936 C 89.11651,67.571946 96.962124,58.62877 98.118624,45.443799 C 98.867542,36.905593 96.177208,27.971578 91.588784,20.392405 z "
       id="path2936"
       sodipodi:nodetypes="ccsccccccssscsc" />
    <path
       style="fill:url(#radialGradient2824);fill-opacity:1.0;stroke:none;stroke-width:2;stroke-miterlimit:4;stroke-dasharray:none;stroke-opacity:1;opacity:0.41803279"
       d="M 64.126842,1.3826379 C 58.426392,1.4554645 52.905637,4.1403867 48.381995,10.414566 C 35.911196,13.756106 32.695587,31.476866 31.599697,43.796082 C 30.207379,59.447533 38.215631,69.284604 49.114313,73.516007 C 48.955505,75.292398 48.560056,76.805464 48.015836,77.726838 C 45.968001,81.19384 41.318471,84.201393 33.277926,86.484146 C 24.307525,89.030883 17.192434,91.505674 12.040691,96.0348 C 7.4798115,100.04448 4.5344266,104.68101 4.5344266,110.62014 C 4.5344266,126.036 123.87182,126.85211 123.87182,110.62014 C 123.87183,104.68101 120.92644,100.04447 116.36556,96.0348 C 111.27103,91.555971 104.15639,88.925208 95.128324,86.362093 C 87.028227,84.062439 82.381647,81.149675 80.359901,77.726838 C 79.684606,76.58356 79.264762,74.560445 79.200397,72.203936 C 89.11651,67.571946 96.962124,58.62877 98.118624,45.443799 C 99.954507,24.513404 81.228191,1.1641579 64.126842,1.3826379 z "
       id="path1928" />
  </g>
</svg>
