<svg xmlns="http://www.w3.org/2000/svg" xmlns:svg="http://www.w3.org/2000/svg" xmlns:xlink="http://www.w3.org/1999/xlink" id="svg2" width="128" height="128" version="1.1" viewBox="0 0 128 128"><defs id="defs4"><radialGradient id="radialGradient3297" cx="63.912" cy="115.709" r="63.912" fx="63.912" fy="115.709" gradientTransform="matrix(1,0,0,0.08241757,0.08779144,1037.1837)" gradientUnits="userSpaceOnUse" xlink:href="#linearGradient3291"/><linearGradient id="linearGradient3291"><stop style="stop-color:#000;stop-opacity:1" id="stop3293" offset="0"/><stop style="stop-color:#000;stop-opacity:0" id="stop3295" offset="1"/></linearGradient><linearGradient id="linearGradient2898" x1="-36.688" x2="8.878" y1="68.546" y2="68.546" gradientTransform="matrix(0.976425,0,0,0.976425,89.075105,893.6452)" gradientUnits="userSpaceOnUse" xlink:href="#linearGradient2892"/><linearGradient id="linearGradient2892"><stop style="stop-color:white;stop-opacity:1" id="stop2894" offset="0"/><stop style="stop-color:white;stop-opacity:0" id="stop2896" offset="1"/></linearGradient><linearGradient id="linearGradient2911" x1="-140.058" x2="-68.625" y1="162.549" y2="150.664" gradientTransform="matrix(0.976425,0,0,0.976425,188.35256,870.69844)" gradientUnits="userSpaceOnUse" xlink:href="#linearGradient2892"/><linearGradient id="linearGradient2915" x1="-185.313" x2="-68.625" y1="159.35" y2="150.664" gradientTransform="matrix(-0.976425,0,0,0.976425,-59.152135,870.69844)" gradientUnits="userSpaceOnUse" xlink:href="#linearGradient2892"/></defs><metadata id="metadata7"/><g id="layer1" transform="translate(0,-924.36216)"><path id="path2276" d="m 50.714154,927.53133 v -2.79471 z" style="fill:#fff;fill-opacity:.75688076;fill-rule:nonzero;stroke:none;stroke-width:.5;stroke-linecap:round;stroke-linejoin:round;stroke-miterlimit:4;stroke-dasharray:none;stroke-dashoffset:4;stroke-opacity:1"/><ellipse style="opacity:.38139535;fill:url(#radialGradient3297);fill-opacity:1;fill-rule:nonzero;stroke:none;stroke-width:0;stroke-linecap:round;stroke-linejoin:round;stroke-miterlimit:4;stroke-dasharray:none;stroke-dashoffset:4;stroke-opacity:1" id="path3289" cx="64" cy="1046.72" rx="63.912" ry="5.267"/><path style="fill:#000;fill-opacity:1;stroke:none;stroke-width:2;stroke-miterlimit:4;stroke-dasharray:none;stroke-opacity:1" id="path2375" d="m 63.948197,925.63267 c -5.70045,0.0728 -11.221205,2.75775 -15.744847,9.03193 -12.470799,3.34154 -15.686408,21.0623 -16.782298,33.38151 -1.392318,15.65145 6.615934,25.48852 17.514616,29.71993 -0.158808,1.77639 -0.554257,3.28946 -1.098477,4.21086 -2.047835,3.467 -6.697365,6.4745 -14.73791,8.7573 -8.970401,2.5467 -16.085492,5.0215 -21.237235,9.5506 -4.5608791,4.0097 -7.506264,8.6462 -7.506264,14.5854 0,15.4158 119.337398,16.2319 119.337398,0 1e-5,-5.9392 -2.94538,-10.5757 -7.50626,-14.5854 -5.09453,-4.4788 -12.20917,-7.1096 -21.237241,-9.6727 -8.100097,-2.2996 -12.746677,-5.2124 -14.768423,-8.6352 -0.675295,-1.1433 -1.095139,-3.16643 -1.159504,-5.52293 9.916113,-4.63199 17.761727,-13.57517 18.918227,-26.76014 1.835883,-20.9304 -16.890433,-44.27964 -33.991782,-44.06116 z"/><path id="path2878" d="m 63.948197,925.63267 c -5.70045,0.0728 -11.221205,2.75775 -15.744847,9.03193 -12.470799,3.34154 -15.686408,21.0623 -16.782298,33.38151 -1.392318,15.65145 6.615934,25.48852 17.514616,29.71993 -0.158808,1.77639 -0.554257,3.28946 -1.098477,4.21086 -2.047835,3.467 -6.697365,6.4745 -14.73791,8.7573 -8.970401,2.5467 -16.085492,5.0215 -21.237235,9.5506 -4.5608791,4.0097 -7.506264,8.6462 -7.506264,14.5854 0,15.4158 119.337398,16.2319 119.337398,0 1e-5,-5.9392 -2.94538,-10.5757 -7.50626,-14.5854 -5.09453,-4.4788 -12.20917,-7.1096 -21.237241,-9.6727 -8.100097,-2.2996 -12.746677,-5.2124 -14.768423,-8.6352 -0.675295,-1.1433 -1.095139,-3.16643 -1.159504,-5.52293 9.916113,-4.63199 17.761727,-13.57517 18.918227,-26.76014 1.835883,-20.9304 -16.890433,-44.27964 -33.991782,-44.06116 z" style="fill:#2271d5;fill-opacity:1;stroke:none;stroke-width:2;stroke-miterlimit:4;stroke-dasharray:none;stroke-opacity:1"/><path style="fill:url(#linearGradient2898);fill-opacity:1;stroke:none;stroke-width:2;stroke-miterlimit:4;stroke-dasharray:none;stroke-opacity:.2073171" id="path2882" d="m 63.627037,926.56902 c -3.601029,0.046 -7.122962,1.16246 -10.374512,3.53954 2.947307,-1.86784 7.702373,-2.11056 10.895822,-1.81865 15.050085,1.3757 34.238391,22.17271 32.402508,43.10311 -0.908893,10.36207 -5.946679,18.10149 -12.8766,23.19008 7.479074,-5.0636 12.989377,-13.06306 13.944564,-23.95291 1.835888,-20.9304 -16.890433,-44.27965 -33.991782,-44.06117 z"/><path style="fill:url(#linearGradient2911);fill-opacity:1;stroke:none;stroke-width:2;stroke-miterlimit:4;stroke-dasharray:none;stroke-opacity:1" id="path2900" d="m 78.968737,1000.1513 c -0.04709,0.022 -0.09802,0.036 -0.145224,0.058 0.06127,2.2431 0.460912,4.1689 1.103712,5.2572 1.924464,3.2581 6.347463,6.0307 14.057799,8.2197 8.593656,2.4398 15.365966,4.944 20.215346,9.2073 4.00034,3.5169 6.68827,7.5432 7.08699,12.5765 0.0254,-0.1605 0.0581,-0.3296 0.0581,-0.4938 0,-5.6533 -2.80367,-10.0668 -7.14509,-13.8835 -4.84938,-4.2633 -11.62169,-6.7675 -20.215346,-9.2073 -7.710336,-2.189 -12.133335,-4.9616 -14.057799,-8.2197 -0.469055,-0.7941 -0.785378,-2.0306 -0.958488,-3.5145 z"/><path id="path2913" d="m 50.231729,1000.1513 c 0.04709,0.022 0.09802,0.036 0.145224,0.058 -0.06127,2.2431 -0.460911,4.1689 -1.103711,5.2572 -1.924465,3.2581 -6.347463,6.0307 -14.0578,8.2197 -8.593655,2.4398 -15.365961,4.944 -20.215344,9.2073 -4.000334,3.5169 -6.6882644,7.5432 -7.0869874,12.5765 -0.025367,-0.1605 -0.058097,-0.3296 -0.058097,-0.4938 0,-5.6533 2.8036664,-10.0668 7.1450844,-13.8835 4.849383,-4.2633 11.621689,-6.7675 20.215344,-9.2073 7.710337,-2.189 12.133335,-4.9616 14.0578,-8.2197 0.469055,-0.7941 0.785377,-2.0306 0.958487,-3.5145 z" style="fill:url(#linearGradient2915);fill-opacity:1;stroke:none;stroke-width:2;stroke-miterlimit:4;stroke-dasharray:none;stroke-opacity:1"/></g></svg>