<svg xmlns="http://www.w3.org/2000/svg" viewBox="0 0 128 128" enable-background="new 0 0 128 128"><style type="text/css">.st0{fill:#B11AA0;}</style><path class="st0" d="M69.1 1c-2.9.1-5.2 2.4-5.2 5.3v9.4c-30.6.1-55.5 25-55.5 55.6 0 30.7 24.9 55.7 55.6 55.7 30.7 0 55.6-25 55.6-55.6 0-3.5-2.8-6.3-6.3-6.3s-6.3 2.8-6.3 6.3c0 23.9-19.2 43.2-43.1 43.2s-43-19.3-43-43.3c0-23.9 19.2-43.1 43-43.1v9c0 3 2.4 5.4 5.3 5.4 1.1 0 2.1-.3 3-.9l23.4-15.4c2.5-1.6 3.1-5 1.5-7.4-.4-.6-.9-1.1-1.5-1.5l-23.4-15.5c-.9-.6-2-.9-3.1-.9z"/></svg>