<svg xmlns="http://www.w3.org/2000/svg" xmlns:xlink="http://www.w3.org/1999/xlink" width="128" height="128" viewBox="0 0 128 128"><defs><linearGradient gradientTransform="matrix(.608 0 0 .59 49.249 -493.821)" xlink:href="#a" id="b" x1="126.5" y1="1051.166" x2=".929" y2="925.594" gradientUnits="userSpaceOnUse"/><linearGradient id="a"><stop offset="0" stop-color="#191579"/><stop offset="1" stop-color="#5989e3"/></linearGradient></defs><path d="M119.089 1.871h-110.224c-4.348 0-7.873 3.283-7.873 7.332v73.322c0 4.049 3.525 7.332 7.873 7.332h110.224c4.348 0 7.873-3.283 7.873-7.332v-73.322c0-4.049-3.525-7.332-7.873-7.332zm0 80.654h-110.224v-73.322h110.224v73.322z" overflow="visible" fill="#546e7a"/><path d="M32.484 23.867c4.352 0 7.873 3.279 7.873 7.332s-3.521 7.332-7.873 7.332-7.873-3.279-7.873-7.332 3.521-7.332 7.873-7.332m0-7.332c-8.684 0-15.746 6.577-15.746 14.664s7.062 14.664 15.746 14.664c8.684 0 15.746-6.577 15.746-14.664s-7.062-14.664-15.746-14.664z" overflow="visible" fill="#ffa000"/><path d="M28.548 75.193c-1.007 0-2.015-.358-2.783-1.074-1.538-1.432-1.538-3.752 0-5.184l23.619-21.997c1.208-1.117 3.037-1.393 4.544-.687l12.81 5.965 21.647-26.88c.761-.952 2.022-1.508 3.257-1.468 1.28.036 2.46.641 3.168 1.632l15.746 21.997c1.208 1.686.718 3.959-1.091 5.084-1.815 1.114-4.259.666-5.459-1.016l-12.66-17.686-20.283 25.182c-1.138 1.422-3.206 1.876-4.909 1.081l-13.209-6.151-21.613 20.128c-.769.716-1.776 1.074-2.783 1.074z" overflow="visible" fill="#b0bec5"/><path d="M123.628 109.273l-23.123-18.211c-.833-.607-1.25-1.821-.625-2.833 4.583-9.51 2.916-21.044-5.208-28.935-10.833-10.522-29.165-9.915-39.164 2.226-7.499 9.106-7.499 22.258-.208 31.566 7.916 9.713 21.248 12.141 31.873 7.284 1.042-.405 2.083-.202 2.916.607l18.749 22.46c2.916 3.44 8.124 3.642 11.249.607l4.375-4.249c2.916-2.63 2.708-7.689-.833-10.522zm-33.539-18.009c-7.708 7.487-20.415 7.487-28.331 0-7.708-7.487-7.708-19.83 0-27.519s20.415-7.487 28.331 0c7.916 7.689 7.916 20.032 0 27.519z" fill="url(#b)"/></svg>