<?xml version="1.0" encoding="utf-8"?>
<!-- Generator: Adobe Illustrator 15.0.0, SVG Export Plug-In . SVG Version: 6.00 Build 0)  -->
<!DOCTYPE svg PUBLIC "-//W3C//DTD SVG 1.1//EN" "http://www.w3.org/Graphics/SVG/1.1/DTD/svg11.dtd">
<svg version="1.1" id="Layer_1" xmlns="http://www.w3.org/2000/svg" xmlns:xlink="http://www.w3.org/1999/xlink" x="0px" y="0px"
	 width="181px" height="212px" viewBox="0 0 181 212" enable-background="new 0 0 181 212" xml:space="preserve">
<g>
	<path fill="#FFFFFF" d="M105.134,97.504l-3.598,2.688l-4.197-5.618l-5.754,4.299l-1.733-2.32
		c19.007-16.602,22.311-45.299,6.955-65.852C80.691,9.133,50.143,4.711,28.574,20.826s-25.99,46.663-9.875,68.232
		c15.355,20.553,43.812,25.521,65.122,12l1.732,2.319l-5.755,4.3l4.198,5.619l-3.598,2.688l68.083,91.125l24.734-18.48
		L105.134,97.504z M29.113,81.277C17.296,65.46,20.538,43.058,36.355,31.24c15.816-11.817,38.219-8.575,50.036,7.242
		c11.817,15.817,8.575,38.22-7.241,50.037C63.333,100.337,40.931,97.094,29.113,81.277z"/>
	<g>
		<g>
			<path fill="#010101" d="M28.574,15.642C7.006,31.756,2.584,62.305,18.699,83.874c16.114,21.568,46.663,25.989,68.231,9.875
				c21.569-16.115,25.99-46.664,9.876-68.232C80.691,3.948,50.143-0.473,28.574,15.642z M79.15,83.335
				c-15.817,11.817-38.22,8.574-50.037-7.242c-11.817-15.817-8.575-38.219,7.242-50.037c15.816-11.817,38.219-8.575,50.036,7.242
				C98.209,49.115,94.967,71.517,79.15,83.335z"/>
		</g>
		
			<rect x="83.577" y="89.507" transform="matrix(0.8011 -0.5986 0.5986 0.8011 -39.0685 71.0375)" fill="#010101" width="7.528" height="9.579"/>
		
			<rect x="81.819" y="94.546" transform="matrix(0.8011 -0.5985 0.5985 0.8011 -42.3354 75.7256)" fill="#991A37" width="21.894" height="14.026"/>
		
			<linearGradient id="SVGID_1_" gradientUnits="userSpaceOnUse" x1="98.5879" y1="122.3535" x2="129.4668" y2="122.3535" gradientTransform="matrix(0.8011 -0.5985 0.5985 0.8011 -37.7672 117.3501)">
			<stop  offset="0" style="stop-color:#000000"/>
			<stop  offset="0.3983" style="stop-color:#FFFFFF"/>
			<stop  offset="1" style="stop-color:#000000"/>
		</linearGradient>
		<polygon fill="url(#SVGID_1_)" points="173.217,183.444 148.482,201.925 80.399,110.8 105.134,92.319 		"/>
	</g>
</g>
</svg>
