<svg xmlns="http://www.w3.org/2000/svg" xmlns:svg="http://www.w3.org/2000/svg" id="svg2" width="128" height="128" version="1.1" viewBox="0 0 128 128"><metadata id="metadata7"/><g id="layer1" transform="translate(0,-924.36216)"><path style="fill:#8a0;fill-opacity:1;fill-rule:evenodd;stroke:#000;stroke-width:0;stroke-linecap:butt;stroke-linejoin:round;stroke-miterlimit:4;stroke-dasharray:none;stroke-opacity:1" id="path4221" d="m 16.582008,1046.8836 0,-107.68789 c 0.268678,-7.88583 2.821127,-11.47031 7.254326,-11.67513 l 83.521626,-0.15807 c 2.76636,-0.0342 3.22403,2.60341 3.22403,5.26085 L 110.405,1042.9681 c 0.20067,4.0092 -3.08981,3.9942 -3.08981,3.9942 l -6.90542,0.1083 c -0.18732,4.2167 -0.26937,4.387 -3.224141,4.2676 l -76.439105,0 c -3.907185,0 -4.164519,0.1998 -4.164519,-4.455 z"/><path style="fill:#fff;fill-opacity:1;fill-rule:evenodd;stroke:#000;stroke-width:0;stroke-linecap:round;stroke-linejoin:round;stroke-miterlimit:4;stroke-dasharray:none;stroke-opacity:1" id="path4258" d="m 22.29891,937.54569 73.639178,0 c 5.750212,0.0985 5.128952,2.68325 5.171952,9.6779 l 0.18187,94.28241 c 1.82365,0.1448 4.62079,-1.8836 4.58597,-5.1073 l -0.18187,-96.83984 c 0.15109,-6.45263 -1.3372,-6.45263 -4.30125,-6.71744 l -75.30503,0 c -2.867481,-0.1804 -3.639719,0.84201 -3.790797,4.70427 z"/><rect style="fill:#074712;fill-opacity:1;fill-rule:evenodd;stroke:none;stroke-width:0;stroke-linecap:round;stroke-linejoin:round;stroke-miterlimit:4;stroke-dasharray:none;stroke-opacity:1" id="rect4139" width="51.482" height="6" x="33.259" y="951.362" ry=".9"/><path style="fill:#074814;fill-opacity:1" id="path4" d="m 68.593071,1005.1106 c -2.90326,0.7295 -6.270707,1.4749 -9.264669,1.3827 -1.798056,-0.055 -3.500833,-0.4734 -5.112909,-0.8491 -10.869885,-2.5329 -20.683346,-3.4902 -32.804779,-0.7081 l 0.778979,5.0976 c 0.753064,0.017 2.009949,0.2904 2.067115,1.7318 0.462662,11.6115 3.485589,17.1795 14.486573,16.8921 13.613843,-0.3552 17.153549,-11.251 17.898229,-15.3966 0.399398,-2.225 1.545,-2.4513 2.825514,-2.4856 2.268339,-0.061 2.525964,1.5968 2.923077,2.6006 4.667015,11.7968 7.47195,14.4805 17.26407,15.3335 14.885972,1.298 13.170998,-9.7404 15.184758,-16.1551 0.385679,-1.2257 0.808706,-1.8537 2.155532,-1.8835 l 0.637208,-5.0984 c -8.626699,-1.843 -17.578864,-3.34 -29.038698,-0.4619 z m -43.429995,3.0824 c -1.075479,0 -1.947448,-0.2218 -1.947448,-0.4954 0,-0.2737 0.871969,-0.4955 1.947448,-0.4955 1.07548,0 1.947448,0.2226 1.947448,0.4955 0,0.2736 -0.871968,0.4954 -1.947448,0.4954 z m 27.543241,7.8592 c -2.083121,6.1472 -5.348432,10.6084 -13.735798,10.8333 -8.307331,0 -10.721251,-1.5138 -11.824171,-11.1877 0,-6.4903 -0.425313,-10.2899 11.895058,-10.2671 8.307333,0.7973 17.020924,0.718 13.664911,10.6215 z m 39.296527,-0.3537 c -1.102919,9.6732 -3.516077,11.1877 -11.824935,11.1877 -8.387366,-0.2248 -11.652675,-4.686 -13.735798,-10.8332 -3.35525,-9.9043 5.357578,-9.825 13.665674,-10.6215 12.31961,-0.023 11.895059,3.7768 11.895059,10.267 z m 2.088457,-7.0093 c -1.074717,0 -1.947448,-0.2226 -1.947448,-0.4954 0,-0.2737 0.872731,-0.4955 1.947448,-0.4955 1.074717,0 1.947448,0.2218 1.947448,0.4955 0,0.2728 -0.871969,0.4954 -1.947448,0.4954 z"/></g></svg>