<svg xmlns="http://www.w3.org/2000/svg" viewBox="0 0 128 128" height="128" width="128"><g transform="translate(0 -924.362)"><path d="M16.582 1046.884v-107.688c.269-7.886 2.821-11.47 7.254-11.675l83.522-.158c2.766-.034 3.224 2.603 3.224 5.261l-.177 110.345c.201 4.009-3.09 3.994-3.09 3.994l-6.905.108c-.187 4.217-.269 4.387-3.224 4.268h-76.439c-3.907 0-4.165.2-4.165-4.455z" fill="#8a0" fill-rule="evenodd"/><path d="M22.299 937.546h73.639c5.75.099 5.129 2.683 5.172 9.678l.182 94.282c1.824.145 4.621-1.884 4.586-5.107l-.182-96.84c.151-6.453-1.337-6.453-4.301-6.717h-75.305c-2.867-.18-3.64.842-3.791 4.704z" fill="#fff" fill-rule="evenodd"/><rect width="51.482" height="6" x="33.259" y="951.362" ry=".9" fill="#074712" fill-rule="evenodd"/><path d="M68.593 1005.111c-2.903.73-6.271 1.475-9.265 1.383-1.798-.055-3.501-.473-5.113-.849-10.87-2.533-20.683-3.49-32.805-.708l.779 5.098c.753.017 2.01.29 2.067 1.732.463 11.611 3.486 17.18 14.487 16.892 13.614-.355 17.154-11.251 17.898-15.397.399-2.225 1.545-2.451 2.826-2.486 2.268-.061 2.526 1.597 2.923 2.601 4.667 11.797 7.472 14.48 17.264 15.334 14.886 1.298 13.171-9.74 15.185-16.155.386-1.226.809-1.854 2.156-1.883l.637-5.098c-8.627-1.843-17.579-3.34-29.039-.462zm-43.43 3.082c-1.075 0-1.947-.222-1.947-.495 0-.274.872-.495 1.947-.495 1.075 0 1.947.223 1.947.495 0 .274-.872.495-1.947.495zm27.543 7.859c-2.083 6.147-5.348 10.608-13.736 10.833-8.307 0-10.721-1.514-11.824-11.188 0-6.49-.425-10.29 11.895-10.267 8.307.797 17.021.718 13.665 10.621zm39.297-.354c-1.103 9.673-3.516 11.188-11.825 11.188-8.387-.225-11.653-4.686-13.736-10.833-3.355-9.904 5.358-9.825 13.666-10.621 12.32-.023 11.895 3.777 11.895 10.267zm2.088-7.009c-1.075 0-1.947-.223-1.947-.495 0-.274.873-.495 1.947-.495 1.075 0 1.947.222 1.947.495s-.872.495-1.947.495z" fill="#074814"/></g></svg>