<svg width="300" height="300" enable-background="new 0 0 97.8 97.8" version="1.1" viewBox="0 0 97.8 97.8" xml:space="preserve" xmlns="http://www.w3.org/2000/svg"><path d="m32.38 34.13c-0.1625-4.4e-4 -0.3151 0.04564-0.4489 0.1484l-18.37 14.03c-0.1386 0.1055-0.2601 0.2585-0.2993 0.4241-0.01305 0.05519 0 0.1121 0 0.17 0 0.2314 0.1144 0.4534 0.2993 0.5941l18.39 14.05c0.1345 0.1027 0.2658 0.1484 0.4272 0.1484 0.1593 0 0.3361-0.04777 0.4699-0.1484 0.2691-0.2012 0.3792-0.5798 0.256-0.8914l-3.695-9.273h38.98l-3.695 9.273c-0.1232 0.3116-0.01311 0.6902 0.256 0.8914 0.1338 0.1006 0.3106 0.1484 0.4699 0.1484 0.1614 0 0.2927-0.04568 0.4272-0.1484l18.39-14.05c0.1848-0.1407 0.2993-0.3626 0.2993-0.5941 0-0.05786 0.01305-0.1148 0-0.17-0.03916-0.1656-0.1607-0.3185-0.2993-0.4241l-18.37-14.03c-0.1338-0.1027-0.2864-0.1488-0.4489-0.1484-0.1625 4.41e-4 -0.3354 0.04739-0.4699 0.1484-0.2691 0.2012-0.3799 0.5384-0.256 0.8494l3.695 9.294s-38.84 0.1753-38.98 0l3.695-9.294c0.1239-0.3109 0.0131-0.6482-0.256-0.8494-0.1345-0.101-0.3074-0.1479-0.4699-0.1484z" fill="#2caf45" stroke-width="1.221"/><path d="m86.71 11.75c-0.7817 0-1.41 1.118-1.41 2.51v69.28c0 1.392 0.6272 2.511 1.41 2.51h9.547c0.7817 0 1.431-1.118 1.431-2.51v-69.28c0-1.392-0.6493-2.51-1.431-2.51z" fill="#2271d5" stroke-width="1.635"/><path d="m1.522 11.75c-0.7817 0-1.41 1.118-1.41 2.51v69.28c0 1.392 0.6272 2.511 1.41 2.51h9.547c0.7817 0 1.431-1.118 1.431-2.51v-69.28c0-1.392-0.6493-2.51-1.431-2.51z" fill="#2271d5" stroke-width="1.635"/></svg>
