<svg xmlns="http://www.w3.org/2000/svg" xmlns:xlink="http://www.w3.org/1999/xlink" width="128" height="128" viewBox="0 0 128 128"><defs><linearGradient id="b"><stop offset="0" stop-color="#fff"/><stop offset="1" stop-color="#fff" stop-opacity="0"/></linearGradient><linearGradient id="a"><stop offset="0" stop-color="#fff"/><stop offset="1" stop-color="#aeaeae"/></linearGradient><linearGradient id="c"><stop offset="0" stop-color="#fff"/><stop offset="1" stop-color="#252525" stop-opacity="0"/></linearGradient><linearGradient id="d"><stop offset="0" stop-color="#fff" stop-opacity=".55"/><stop offset="1" stop-opacity="0"/></linearGradient><linearGradient><stop offset="0" stop-opacity="0"/><stop offset=".879" stop-opacity="0"/><stop offset="1"/></linearGradient><linearGradient><stop offset="0" stop-color="#ff5900"/><stop offset="1" stop-color="#ff0"/></linearGradient><radialGradient xlink:href="#a" id="e" gradientUnits="userSpaceOnUse" gradientTransform="matrix(-1.01 -1.034 5.235 -7.297 92.351 1063.277)" cx="49.01" cy="8.495" fx="47.371" fy="6.77" r="3.975"/><radialGradient xlink:href="#b" id="g" gradientUnits="userSpaceOnUse" gradientTransform="matrix(.944 0 0 .171 -666.824 -823.625)" cx="49.012" cy="2.674" fx="49.012" fy="2.674" r="1.725"/><radialGradient xlink:href="#c" id="h" gradientUnits="userSpaceOnUse" gradientTransform="matrix(3.258 0 0 .171 -765.071 -823.872)" cx="49.012" cy="2.674" fx="49.012" fy="2.674" r="1.725"/><radialGradient xlink:href="#d" id="i" gradientUnits="userSpaceOnUse" gradientTransform="matrix(.936 0 0 .171 566.55 -823.625)" cx="49.012" cy="2.674" fx="49.012" fy="2.674" r="1.725"/><radialGradient xlink:href="#b" id="j" gradientUnits="userSpaceOnUse" gradientTransform="matrix(1.369 .009 0 .073 702.726 631.22)" cx="34.678" cy="7.462" fx="11.255" fy="18.452" r="47.595"/><radialGradient xlink:href="#b" id="l" gradientUnits="userSpaceOnUse" gradientTransform="matrix(.914 0 0 .168 85.527 -90.694)" cx="49.012" cy="2.674" fx="49.012" fy="2.674" r="1.725"/><radialGradient xlink:href="#c" id="m" gradientUnits="userSpaceOnUse" gradientTransform="matrix(3.155 0 0 .168 -19.144 -90.707)" cx="49.012" cy="2.674" fx="49.012" fy="2.674" r="1.725"/><radialGradient xlink:href="#d" id="n" gradientUnits="userSpaceOnUse" gradientTransform="matrix(.907 0 0 .168 -182.632 -90.694)" cx="49.012" cy="2.674" fx="49.012" fy="2.674" r="1.725"/><linearGradient xlink:href="#b" id="f" gradientUnits="userSpaceOnUse" gradientTransform="matrix(-1.154 -.832 .809 -1.153 81.761 1078.122)" x1="48.499" y1=".812" x2="48.733" y2="2.366"/><linearGradient xlink:href="#b" id="k" gradientUnits="userSpaceOnUse" gradientTransform="matrix(1.378 0 .014 1.379 65.762 -93.884)" x1="48.499" y1=".812" x2="48.733" y2="2.366"/></defs><g transform="translate(0 -924.362)"><path d="M68.958 953.434c.153.564-1.445 1.016-1.714 1.564-.269.548.507 1.774-.081 2.097-.588.323-1.515-.819-2.197-.845-.682-.026-1.84 1.037-2.355.672-.516-.365.509-1.522.356-2.086-.153-.564-1.643-1.133-1.375-1.681.269-.548 1.829-.121 2.417-.444.588-.323.824-1.737 1.506-1.711.682.026.622 1.447 1.137 1.812.516.365 2.153.059 2.305.624z" fill="#eba831"/><path d="M127 943.096v-2.561 2.561z" fill="#fff" fill-opacity=".757"/><path d="M99.372 981.04c-1.5-.08-1.5-3.739-2.667-4.689-1.167-.95-4.735-.196-5.122-1.652-.387-1.457 3.08-2.587 3.62-3.993.54-1.407-1.277-4.578-.016-5.398 1.261-.82 3.404 2.14 4.904 2.22 1.5.08 3.945-2.634 5.112-1.684 1.167.95-.977 3.909-.589 5.366.387 1.457 3.716 2.951 3.176 4.358-.54 1.407-4.007.276-5.268 1.096-1.261.82-1.649 4.457-3.149 4.377z" fill="#eba831"/><path d="M32.035 1037.528c-.362.515-2.981.697-5.945-1.439-2.992-2.157-3.743-4.572-3.29-5.216.295-.42 65.661-91.548 65.956-91.967l9.234 6.656c-.295.42-65.661 91.548-65.956 91.967" fill-rule="evenodd"/><path d="M84.214 964.799c1.061-.873 8.541-11.415 8.985-12.58l-7.402-5.314-8.985 12.58 7.402 5.314zm-6.623-4.75l8.985-12.58-2.596-1.881c-.928.734-8.475 11.223-8.985 12.58l2.596 1.881z" fill="url(#e)"/><path d="M26.986 1036.538c-1.887-1.155-3.341-2.874-3.43-3.045-.089-.171 1.836 1.72 3.376 2.515 1.528.789 3.509.599 3.669.698.16.099 1.274 1.045.372 1.103-.943.06-2.53-.379-3.987-1.271z" fill="url(#f)" fill-rule="evenodd"/><path fill="url(#g)" d="M31.714 1037.981l-2.641-1.903.611-.871 2.641 1.903z"/><path fill="url(#h)" d="M31.631 1037.921l-9.116-6.57.599-.879 9.116 6.57z"/><path fill="url(#i)" d="M22.48 1031.325l2.62 1.888.611-.871-2.62-1.888z"/><ellipse transform="matrix(-.588 .809 .795 .606 0 0)" cx="750.192" cy="632.079" rx="57.25" ry="3.187" fill="url(#j)"/><path d="M98.22 945.266c.341-.464-.405-2.896-3.368-5.031-2.993-2.156-5.441-2.205-5.867-1.623l-.237.306 9.236 6.654.237-.306" fill-rule="evenodd"/><path d="M95.562 940.943c-1.694-1.424-3.782-2.259-3.972-2.289-.19-.03 2.212 1.197 3.454 2.407 1.233 1.2 1.684 3.143 1.828 3.263.144.12 1.394.878 1.161.003-.243-.915-1.165-2.283-2.472-3.383z" fill="url(#k)" fill-rule="evenodd"/><path fill="url(#l)" d="M98.392 944.928l-2.641-1.904-.629.858 2.641 1.904z"/><path fill="url(#m)" d="M98.302 944.853l-9.119-6.573-.64.849 9.119 6.573z"/><path fill="url(#n)" d="M89.155 938.27l2.62 1.889-.629.858-2.62-1.889z"/><path d="M65.813 937.398c-.868.947-3.424-.731-4.719-.402-1.295.329-2.698 3.014-3.926 2.6-1.227-.414-.141-3.205-.832-4.204-.691-.999-3.89-1.262-3.781-2.464.109-1.202 3.337-1.25 4.205-2.196.868-.947.294-3.793 1.589-4.123 1.295-.329 2.203 2.433 3.431 2.846 1.227.414 4.072-1.083 4.763-.084.691.999-1.975 2.753-2.085 3.956-.109 1.202 2.223 3.124 1.355 4.071zm47.878 14.208c-.48.436-1.658-.513-2.318-.404-.659.109-1.496 1.39-2.082 1.131-.587-.26.099-1.608-.191-2.137-.29-.529-1.862-.798-1.744-1.394.117-.596 1.719-.481 2.199-.917.48-.436.345-1.884 1.004-1.993.659-.109.964 1.311 1.551 1.57.587.26 2.075-.366 2.365.163.29.529-1.124 1.291-1.241 1.888-.117.596.937 1.657.457 2.093zm-68.286 22.755c-.925-.95 1.606-3.207 1.501-4.493-.105-1.286-2.96-2.963-2.205-4.094.755-1.131 3.804.254 5.13-.29s2.333-3.591 3.725-3.34c1.392.251.744 3.364 1.67 4.314.925.95 4.402.744 4.507 2.03.105 1.286-3.344 1.825-4.098 2.956-.755 1.131.387 4.051-.939 4.595-1.326.544-2.811-2.236-4.202-2.487-1.392-.251-4.162 1.76-5.087.809z" fill="#eba831"/></g></svg>