<svg xmlns="http://www.w3.org/2000/svg" xmlns:svg="http://www.w3.org/2000/svg" xmlns:xlink="http://www.w3.org/1999/xlink" id="svg2" width="128" height="128" version="1.1" viewBox="0 0 128 128"><defs id="defs4"><linearGradient id="linearGradient2940"><stop style="stop-color:white;stop-opacity:1" id="stop2942" offset="0"/><stop style="stop-color:white;stop-opacity:0" id="stop2944" offset="1"/></linearGradient><linearGradient id="linearGradient3225"><stop style="stop-color:#fff;stop-opacity:1" id="stop3227" offset="0"/><stop style="stop-color:#aeaeae;stop-opacity:1" id="stop3229" offset="1"/></linearGradient><linearGradient id="linearGradient3207"><stop style="stop-color:#fff;stop-opacity:1" id="stop3209" offset="0"/><stop style="stop-color:#252525;stop-opacity:0" id="stop3211" offset="1"/></linearGradient><linearGradient id="linearGradient3259"><stop id="stop3261" offset="0" style="stop-color:#fff;stop-opacity:.55035973"/><stop id="stop3263" offset="1" style="stop-color:#000;stop-opacity:0"/></linearGradient><linearGradient id="linearGradient5841"><stop style="stop-color:black;stop-opacity:0" id="stop5843" offset="0"/><stop id="stop5849" offset=".879" style="stop-color:black;stop-opacity:0"/><stop style="stop-color:black;stop-opacity:1" id="stop5845" offset="1"/></linearGradient><linearGradient id="linearGradient7417"><stop id="stop7419" offset="0" style="stop-color:#ff5900;stop-opacity:1"/><stop id="stop7421" offset="1" style="stop-color:#ff0;stop-opacity:1"/></linearGradient><radialGradient id="radialGradient2357" cx="49.01" cy="8.495" r="3.975" fx="47.371" fy="6.77" gradientTransform="matrix(-1.0095934,-1.033537,5.2348981,-7.2974384,92.351118,1063.2774)" gradientUnits="userSpaceOnUse" xlink:href="#linearGradient3225"/><radialGradient id="radialGradient2361" cx="49.012" cy="2.674" r="1.725" fx="49.012" fy="2.674" gradientTransform="matrix(0.94358789,0,0,0.17138215,-666.82407,-823.6254)" gradientUnits="userSpaceOnUse" xlink:href="#linearGradient2940"/><radialGradient id="radialGradient2363" cx="49.012" cy="2.674" r="1.725" fx="49.012" fy="2.674" gradientTransform="matrix(3.257891,0,0,0.17142626,-765.07149,-823.87151)" gradientUnits="userSpaceOnUse" xlink:href="#linearGradient3207"/><radialGradient id="radialGradient2365" cx="49.012" cy="2.674" r="1.725" fx="49.012" fy="2.674" gradientTransform="matrix(0.93621896,0,0,0.17138215,566.54952,-823.6254)" gradientUnits="userSpaceOnUse" xlink:href="#linearGradient3259"/><radialGradient id="radialGradient2367" cx="34.678" cy="7.462" r="47.595" fx="11.255" fy="18.452" gradientTransform="matrix(1.3687878,0.00909487,-1.3936767e-5,0.07284987,702.72556,631.22003)" gradientUnits="userSpaceOnUse" xlink:href="#linearGradient2940"/><radialGradient id="radialGradient2371" cx="49.012" cy="2.674" r="1.725" fx="49.012" fy="2.674" gradientTransform="matrix(0.913761,0,0,0.167717,85.52731,-90.69359)" gradientUnits="userSpaceOnUse" xlink:href="#linearGradient2940"/><radialGradient id="radialGradient2373" cx="49.012" cy="2.674" r="1.725" fx="49.012" fy="2.674" gradientTransform="matrix(3.15491,0,0,0.167755,-19.14379,-90.70726)" gradientUnits="userSpaceOnUse" xlink:href="#linearGradient3207"/><radialGradient id="radialGradient2375" cx="49.012" cy="2.674" r="1.725" fx="49.012" fy="2.674" gradientTransform="matrix(0.906625,0,0,0.167717,-182.6324,-90.69359)" gradientUnits="userSpaceOnUse" xlink:href="#linearGradient3259"/><linearGradient id="linearGradient4591" x1="48.499" x2="48.733" y1=".812" y2="2.366" gradientTransform="matrix(-1.1543131,-0.83193276,0.80913345,-1.153157,81.761408,1078.1221)" gradientUnits="userSpaceOnUse" xlink:href="#linearGradient2940"/><linearGradient id="linearGradient4593" x1="48.499" x2="48.733" y1=".812" y2="2.366" gradientTransform="matrix(1.37789,1.262983e-4,0.01423919,1.378513,65.76164,-93.88427)" gradientUnits="userSpaceOnUse" xlink:href="#linearGradient2940"/></defs><metadata id="metadata7"/><g id="layer1" transform="translate(0,-924.36216)"><path style="fill:#eba831;fill-opacity:1;fill-rule:nonzero;stroke:none;stroke-width:.1;stroke-linecap:round;stroke-linejoin:round;stroke-miterlimit:4;stroke-dasharray:none;stroke-dashoffset:4;stroke-opacity:1" id="path2462" d="m 40.123774,40.507884 c 0.147209,0.736045 -1.617347,1.187712 -1.930889,1.869713 -0.313542,0.682 0.492414,2.315431 -0.162117,2.682885 -0.65453,0.367455 -1.629369,-1.171165 -2.37488,-1.258611 -0.745511,-0.08745 -2.049941,1.183821 -2.601672,0.674875 -0.551732,-0.508946 0.610341,-1.911532 0.463132,-2.647577 -0.147209,-0.736046 -1.759348,-1.583789 -1.445806,-2.26579 0.313542,-0.682001 2.006581,-0.01023 2.661112,-0.377681 0.654531,-0.367455 0.962604,-2.162657 1.708115,-2.075211 0.745511,0.08745 0.629794,1.905212 1.181525,2.414158 0.551732,0.508946 2.354271,0.247193 2.50148,0.983239 z" transform="matrix(0.91173595,-0.05652615,0.02486062,0.77812071,31.36875,924.18189)"/><path id="path2977" d="m 126.99999,943.09609 0,-2.56101 0,2.56101 z" style="fill:#fff;fill-opacity:.75688076;fill-rule:nonzero;stroke:none;stroke-width:.5;stroke-linecap:round;stroke-linejoin:round;stroke-miterlimit:4;stroke-dasharray:none;stroke-dashoffset:4;stroke-opacity:1"/><path style="fill:#eba831;fill-opacity:1;fill-rule:nonzero;stroke:none;stroke-width:.1;stroke-linecap:round;stroke-linejoin:round;stroke-miterlimit:4;stroke-dasharray:none;stroke-dashoffset:4;stroke-opacity:1" id="path1583" d="m -43.86199,91.807774 c -5.746548,-2.915528 0.576848,-17.216398 -2.358502,-22.952846 -2.935351,-5.736449 -18.233065,-8.973759 -17.236014,-15.34 0.997051,-6.36624 16.552023,-4.771544 21.100637,-9.335889 4.548613,-4.564344 2.900225,-20.113718 9.262985,-21.132743 6.36276,-1.019024 9.652865,14.267421 15.399413,17.18295 5.746549,2.915528 20.0255027,-3.457203 22.9608536,2.279245 2.9353508,5.736449 -10.5862245,13.589296 -11.5832757,19.955536 -0.9970512,6.36624 9.4762156,17.97705 4.9276022,22.541395 -4.5486132,4.564344 -16.1955121,-5.868775 -22.5582711,-4.84975 -6.36276,1.019024 -14.168879,14.56763 -19.915428,11.652102 z" transform="matrix(0.21328153,-0.0945785,0.09426621,0.2139881,100.07299,957.24567)"/><path style="fill:#000;fill-opacity:1;fill-rule:evenodd;stroke:none;stroke-width:1px;stroke-linecap:butt;stroke-linejoin:miter;stroke-opacity:1" id="path3180" d="m 32.034982,1037.5282 c -0.361825,0.5147 -2.981405,0.6966 -5.944776,-1.4393 -2.992487,-2.1568 -3.74292,-4.5715 -3.289602,-5.2163 0.294976,-0.4196 65.660671,-91.5477 65.955689,-91.96736 3.078166,2.21851 6.156299,4.437 9.234444,6.65552 -0.295022,0.41967 -65.660696,91.54774 -65.955755,91.96744 0,0 0,0 0,0"/><path id="path2274" d="m 84.214069,964.79867 c 1.060834,-0.87282 8.540631,-11.41508 8.98484,-12.58034 l -7.40179,-5.31445 -8.984821,12.58033 7.401771,5.31446 z m -6.623061,-4.75003 8.984828,-12.58032 -2.595667,-1.88146 c -0.927597,0.73357 -8.475279,11.22281 -8.984812,12.58033 l 2.595651,1.88145 z" style="fill:url(#radialGradient2357);fill-opacity:1;fill-rule:nonzero;stroke:none;stroke-width:.5;stroke-linecap:round;stroke-linejoin:round;stroke-miterlimit:4;stroke-dasharray:none;stroke-dashoffset:4;stroke-opacity:1"/><path style="fill:url(#linearGradient4591);fill-opacity:1;fill-rule:evenodd;stroke:none;stroke-width:1px;stroke-linecap:butt;stroke-linejoin:miter;stroke-opacity:1" id="path3233" d="m 26.985879,1036.538 c -1.886605,-1.1553 -3.340928,-2.8741 -3.430064,-3.0446 -0.08906,-0.1705 1.836327,1.7202 3.376078,2.515 1.527945,0.7887 3.508846,0.599 3.668754,0.6978 0.1599,0.099 1.273854,1.0447 0.372384,1.1026 -0.942847,0.06 -2.529985,-0.3794 -3.987061,-1.2708 z"/><rect id="rect3245" width="3.255" height="1.064" x="-622.204" y="-823.594" transform="matrix(-0.81125866,-0.58468742,0.57437772,-0.81859039,0,0)" style="fill:url(#radialGradient2361);fill-opacity:1;fill-rule:nonzero;stroke:none;stroke-width:0;stroke-linecap:round;stroke-linejoin:round;stroke-miterlimit:4;stroke-dasharray:none;stroke-dashoffset:4;stroke-opacity:1"/><rect style="fill:url(#radialGradient2363);fill-opacity:1;fill-rule:nonzero;stroke:none;stroke-width:0;stroke-linecap:round;stroke-linejoin:round;stroke-miterlimit:4;stroke-dasharray:none;stroke-dashoffset:4;stroke-opacity:1" id="rect3205" width="11.237" height="1.064" x="-611.014" y="-823.84" transform="matrix(-0.81128868,-0.58464578,0.56331047,-0.82624531,0,0)"/><rect style="fill:url(#radialGradient2365);fill-opacity:1;fill-rule:nonzero;stroke:none;stroke-width:0;stroke-linecap:round;stroke-linejoin:round;stroke-miterlimit:4;stroke-dasharray:none;stroke-dashoffset:4;stroke-opacity:1" id="rect3267" width="3.229" height="1.064" x="610.821" y="-823.594" transform="matrix(0.81125866,0.58468742,0.57437772,-0.81859039,0,0)"/><ellipse style="fill:url(#radialGradient2367);fill-opacity:1;fill-rule:nonzero;stroke:none;stroke-width:.2;stroke-linecap:round;stroke-linejoin:round;stroke-miterlimit:4;stroke-dasharray:none;stroke-dashoffset:4;stroke-opacity:1" id="path3301" cx="750.192" cy="632.079" rx="57.25" ry="3.187" transform="matrix(-0.5882757,0.80866044,0.7953107,0.60620202,0,0)"/><g id="g1463" transform="matrix(-0.83779352,-0.60369661,-0.59561511,0.83028661,151.51277,1097.3908)"><path style="fill:#000;fill-opacity:1;fill-rule:evenodd;stroke:none;stroke-width:1px;stroke-linecap:butt;stroke-linejoin:miter;stroke-opacity:1" id="path1453" d="m 127.80368,-90.294455 c -0.006,-0.563594 1.95277,-2.067585 5.4902,-2.067265 3.5721,3.32e-4 5.52563,1.362339 5.5329,2.068292 0.005,0.459498 0.01,-0.08101 0.0143,0.378492 -3.67438,-3.28e-4 -7.34874,-6.64e-4 -11.02311,-9.99e-4 -0.005,-0.459504 -0.01,0.081 -0.0143,-0.37852 0,0 0,0 0,0"/><path style="fill:url(#linearGradient4593);fill-opacity:1;fill-rule:evenodd;stroke:none;stroke-width:1px;stroke-linecap:butt;stroke-linejoin:miter;stroke-opacity:1" id="path1455" d="m 132.33556,-92.205799 c 2.13664,-0.162122 4.25123,0.370455 4.41759,0.454862 0.16635,0.08442 -2.41591,-0.315135 -4.07612,-0.06529 -1.6475,0.247939 -3.09913,1.531941 -3.28071,1.544898 -0.18157,0.01297 -1.59205,-0.100623 -0.91537,-0.662315 0.70777,-0.587493 2.20492,-1.146223 3.85461,-1.272157 z"/><rect id="rect1457" width="3.152" height="1.041" x="128.737" y="-90.663" transform="matrix(1,9.166562e-5,0.01032906,0.999947,0,0)" style="fill:url(#radialGradient2371);fill-opacity:1;fill-rule:nonzero;stroke:none;stroke-width:0;stroke-linecap:round;stroke-linejoin:round;stroke-miterlimit:4;stroke-dasharray:none;stroke-dashoffset:4;stroke-opacity:1"/><rect style="fill:url(#radialGradient2373);fill-opacity:1;fill-rule:nonzero;stroke:none;stroke-width:0;stroke-linecap:round;stroke-linejoin:round;stroke-miterlimit:4;stroke-dasharray:none;stroke-dashoffset:4;stroke-opacity:1" id="rect1459" width="10.882" height="1.041" x="130.044" y="-90.676" transform="matrix(1,4.00345e-5,0.02364474,0.99972,0,0)"/><rect style="fill:url(#radialGradient2375);fill-opacity:1;fill-rule:nonzero;stroke:none;stroke-width:0;stroke-linecap:round;stroke-linejoin:round;stroke-miterlimit:4;stroke-dasharray:none;stroke-dashoffset:4;stroke-opacity:1" id="rect1461" width="3.127" height="1.041" x="-139.76" y="-90.663" transform="matrix(-1,-9.166562e-5,0.01032906,0.999947,0,0)"/></g><path style="fill:#eba831;fill-opacity:1;fill-rule:nonzero;stroke:none;stroke-width:.1;stroke-linecap:round;stroke-linejoin:round;stroke-miterlimit:4;stroke-dasharray:none;stroke-dashoffset:4;stroke-opacity:1" id="path2460" d="m 28.699643,66.421154 c -0.981394,1.079533 -3.723873,-1.159259 -5.152371,-0.862747 -1.428499,0.296512 -3.053401,3.441837 -4.383366,2.84207 -1.329965,-0.599767 -0.04822,-3.899844 -0.771649,-5.166799 -0.72343,-1.266956 -4.216935,-1.840371 -4.057504,-3.290581 0.15943,-1.45021 3.694072,-1.250977 4.675466,-2.33051 0.981394,-1.079534 0.447192,-4.57925 1.87569,-4.875762 1.428498,-0.296512 2.331281,3.126699 3.661246,3.726466 1.329964,0.599767 4.493315,-0.989762 5.216744,0.277194 0.72343,1.266955 -2.253261,3.183382 -2.412691,4.633592 -0.159431,1.45021 2.329829,3.967544 1.348435,5.047077 z" transform="matrix(0.91173595,-0.05975341,0.02486062,0.82254582,37.995717,884.47888)"/><path style="fill:#eba831;fill-opacity:1;fill-rule:nonzero;stroke:none;stroke-width:.1;stroke-linecap:round;stroke-linejoin:round;stroke-miterlimit:4;stroke-dasharray:none;stroke-dashoffset:4;stroke-opacity:1" id="path2464" d="M 7.8018446,39.950608 C 7.2620779,40.441305 6.0034111,39.196675 5.2783062,39.27639 4.5532013,39.356105 3.5949876,40.844451 2.9615099,40.482736 2.3280323,40.121021 3.1227963,38.539346 2.8229128,37.874364 2.5230293,37.209381 0.8114243,36.75799 0.95968028,36.043741 1.1079363,35.329492 2.8577942,35.596593 3.3975609,35.105896 c 0.5397668,-0.490697 0.4401504,-2.258018 1.1652553,-2.337733 0.7251049,-0.07972 1.0118125,1.667037 1.6452902,2.028752 0.6334777,0.361715 2.2835164,-0.279158 2.5833999,0.385824 0.2998835,0.664983 -1.2727794,1.477434 -1.4210354,2.191683 -0.148256,0.714249 0.9711404,2.085489 0.4313737,2.576186 z" transform="matrix(0.91173595,-0.05975341,0.02486062,0.82254582,105.585,919.21103)"/><path style="fill:#eba831;fill-opacity:1;fill-rule:nonzero;stroke:none;stroke-width:.1;stroke-linecap:round;stroke-linejoin:round;stroke-miterlimit:4;stroke-dasharray:none;stroke-dashoffset:4;stroke-opacity:1" id="path2458" d="m 10.588219,92.891701 c -0.9813944,-1.226743 1.864575,-3.763067 1.791672,-5.332372 -0.0729,-1.569305 -3.1417619,-3.830851 -2.278328,-5.143297 0.863434,-1.312446 4.155075,0.610465 5.625044,0.05619 1.469969,-0.554277 2.672499,-4.171791 4.187524,-3.756185 1.515026,0.415607 0.703403,4.140356 1.684797,5.367098 0.981394,1.226743 4.793456,1.252543 4.86636,2.821848 0.0729,1.569304 -3.720349,1.948415 -4.583783,3.26086 -0.863434,1.312446 0.290021,4.945906 -1.179948,5.500183 -1.469969,0.554277 -3.002705,-2.936169 -4.51773,-3.351775 -1.515026,-0.415607 -4.614214,1.804194 -5.595608,0.577452 z" transform="matrix(0.91173595,-0.05975341,0.02486062,0.82254582,33.442145,898.58603)"/></g></svg>