<?xml version="1.0" encoding="utf-8"?>
<!-- Generator: Adobe Illustrator 21.1.0, SVG Export Plug-In . SVG Version: 6.00 Build 0)  -->
<svg version="1.1" id="Layer_1" xmlns="http://www.w3.org/2000/svg" xmlns:xlink="http://www.w3.org/1999/xlink" x="0px" y="0px"
	 viewBox="0 0 1792 1792" style="enable-background:new 0 0 1792 1792;" xml:space="preserve">
<path d="M1600,960c0,36-12.3,66.3-37,91l-651,651c-26,24.7-56.3,37-91,37c-34,0-64-12.3-90-37l-75-75c-25.3-25.3-38-55.7-38-91
	s12.7-65.7,38-91l293-293H245c-34.7,0-62.8-12.5-84.5-37.5S128,1059.3,128,1024V896c0-35.3,10.8-65.5,32.5-90.5S210.3,768,245,768
	h704L656,474c-25.3-24-38-54-38-90s12.7-66,38-90l75-75c25.3-25.3,55.3-38,90-38c35.3,0,65.7,12.7,91,38l651,651
	C1587.7,893.3,1600,923.3,1600,960z"/>
</svg>
