<svg width="1792" height="1792" viewBox="0 0 1792 1792" xmlns="http://www.w3.org/2000/svg"><path d="M747 1521q74 32 140 32 376 0 376-335 0-114-41-180-27-44-61.5-74t-67.5-46.5-80.5-25-84-10.5-94.5-2q-73 0-101 10 0 53-.5 159t-.5 158q0 8-1 67.5t-.5 96.5 4.5 83.5 12 66.5zm-14-746q42 7 109 7 82 0 143-13t110-44.5 74.5-89.5 25.5-142q0-70-29-122.5t-79-82-108-43.5-124-14q-50 0-130 13 0 50 4 151t4 152q0 27-.5 80t-.5 79q0 46 1 69zm-541 889l2-94q15-4 85-16t106-27q7-12 12.5-27t8.5-33.5 5.5-32.5 3-37.5.5-34v-65.5q0-982-22-1025-4-8-22-14.5t-44.5-11-49.5-7-48.5-4.5-30.5-3l-4-83q98-2 340-11.5t373-9.5q23 0 68.5.5t67.5.5q70 0 136.5 13t128.5 42 108 71 74 104.5 28 137.5q0 52-16.5 95.5t-39 72-64.5 57.5-73 45-84 40q154 35 256.5 134t102.5 248q0 100-35 179.5t-93.5 130.5-138 85.5-163.5 48.5-176 14q-44 0-132-3t-132-3q-106 0-307 11t-231 12z"/></svg>