<svg xmlns="http://www.w3.org/2000/svg" xmlns:svg="http://www.w3.org/2000/svg" id="svg2" width="1792" height="1792" version="1.1" viewBox="0 0 1792 1792"><path d="m 1200.8136,983.39599 q 0,-13.7735 -8.4661,-22.62789 -8.4661,-8.85439 -21.6356,-8.85439 l -210.7119,0 0,-346.30508 q 0,-12.78968 -8.93644,-22.13598 -8.93644,-9.3463 -21.16526,-9.3463 l -180.61017,0 q -12.22881,0 -21.16525,9.3463 -8.93644,9.3463 -8.93644,22.13598 l 0,346.30508 -210.71187,0 q -12.22881,0 -21.16525,9.3463 -8.93644,9.3463 -8.93644,22.13598 0,13.7735 8.4661,22.62791 l 331.11864,346.3051 q 8.46611,8.8544 21.6356,8.8544 13.16949,0 21.63559,-8.8544 l 330.17799,-345.3213 q 9.4068,-11.80585 9.4068,-23.61171 z m 602.0339,220.37601 q 0,156.4276 -105.8263,267.1074 -105.8262,110.6799 -255.394,110.6799 l -1023.45771,0 q -174.02542,0 -297.72457,-129.3725 -123.6991573,-129.3725 -123.6991573,-311.3794 0,-127.8968 65.8474573,-236.11711 65.84746,-108.22034 176.84746,-162.33051 -1.88136,-29.51464 -1.88136,-42.30431 0,-208.57011 141.10169,-356.1433 141.1017,-147.57319 340.52543,-147.57319 146.74576,0 268.56356,85.59245 121.8178,85.59245 177.3178,227.26271 66.7882,-60.99692 156.1526,-60.99692 99.7118,0 170.2627,73.7866 70.5508,73.78659 70.5508,178.07165 0,74.77041 -38.5678,135.76733 122.2882,30.49846 200.8348,133.30778 78.5466,102.80932 78.5466,234.64142 z"/></svg>