<svg xmlns="http://www.w3.org/2000/svg" viewBox="0 0 1792 1792" height="1792" width="1792"><path d="M1200.814 983.396q0-13.774-8.466-22.628-8.466-8.854-21.636-8.854h-210.712v-346.305q0-12.79-8.936-22.136t-21.165-9.346h-180.61q-12.229 0-21.165 9.346t-8.936 22.136v346.305h-210.712q-12.229 0-21.165 9.346t-8.936 22.136q0 13.774 8.466 22.628l331.119 346.305q8.466 8.854 21.636 8.854 13.169 0 21.636-8.854l330.178-345.321q9.407-11.806 9.407-23.612zm602.034 220.376q0 156.428-105.826 267.107-105.826 110.68-255.394 110.68h-1023.458q-174.025 0-297.725-129.373-123.699-129.373-123.699-311.379 0-127.897 65.847-236.117 65.847-108.22 176.847-162.331-1.881-29.515-1.881-42.304 0-208.57 141.102-356.143 141.102-147.573 340.525-147.573 146.746 0 268.564 85.592 121.818 85.592 177.318 227.263 66.788-60.997 156.153-60.997 99.712 0 170.263 73.787t70.551 178.072q0 74.77-38.568 135.767 122.288 30.498 200.835 133.308 78.547 102.809 78.547 234.641z"/></svg>