<svg xmlns="http://www.w3.org/2000/svg" width="1792" height="1792" version="1.1" viewBox="0 0 1792 1792"><path d="m 837.31525,895.50863 q 0,-104.17176 -68.77119,-177.8782 -68.77119,-73.70644 -165.9678,-73.70644 -97.19661,0 -165.9678,73.70644 -68.77118,73.70644 -68.77118,177.8782 0,104.17173 68.77118,177.87817 68.77119,73.7065 165.9678,73.7065 97.19661,0 165.9678,-73.7065 68.77119,-73.70644 68.77119,-177.87817 z M 1541.5322,1398.678 q 0,-51.1032 -34.8441,-88.4477 -34.8441,-37.3447 -82.5254,-37.3447 -47.6814,0 -82.5254,37.3447 -34.8441,37.3445 -34.8441,88.4477 0,52.0859 34.3856,88.9391 34.3856,36.8532 82.9839,36.8532 48.5983,0 82.9839,-36.8532 34.3856,-36.8532 34.3856,-88.9391 z m 0,-1006.33864 q 0,-51.10313 -34.8441,-88.44773 -34.8441,-37.34459 -82.5254,-37.34459 -47.6814,0 -82.5254,37.34459 -34.8441,37.3446 -34.8441,88.44773 0,52.08588 34.3856,88.93909 34.3856,36.85322 82.9839,36.85322 48.5983,0 82.9839,-36.85322 34.3856,-36.85321 34.3856,-88.93909 z m -352.1085,413.73879 0,181.80921 q 0,9.8275 -6.4186,19.16374 -6.4187,9.3361 -14.6713,10.3189 l -142.127,23.586 q -10.0865,34.3964 -29.3424,74.6892 31.1763,47.1721 82.5254,113.0165 6.4187,9.8276 6.4187,19.6551 0,11.7931 -6.4187,18.6723 -21.0898,29.4826 -75.6483,87.9564 -54.55846,58.4737 -71.98049,58.4737 -10.08644,0 -19.25593,-6.8792 l -105.44916,-88.4477 q -33.92711,18.6722 -70.60508,30.4653 -10.08644,106.1372 -21.08984,152.3265 -6.41864,23.5862 -27.50847,23.5862 l -170.55254,0 q -10.08644,0 -18.33898,-7.3707 -8.25254,-7.3707 -9.16949,-17.1981 l -21.08984,-150.3612 q -31.17627,-9.8275 -68.77118,-30.4654 l -108.2,87.4651 q -6.41865,6.8792 -18.33898,6.8792 -10.08644,0 -19.25593,-7.862 -132.04069,-130.7061 -132.04069,-157.2404 0,-8.8448 6.41865,-18.6723 9.16949,-13.7585 37.59491,-52.0858 28.42543,-38.3274 43.09661,-59.948 -21.08982,-43.2411 -32.09322,-80.5856 L 37.735581,1013.4389 q -9.169492,-0.9826 -15.588136,-9.3361 -6.418644,-8.35334 -6.418644,-19.16374 l 0,-181.80917 q 0,-9.82753 6.418644,-19.16368 6.418644,-9.33614 14.671187,-10.31889 L 178.94576,750.06125 q 10.08644,-34.39633 29.34237,-74.68918 -31.17628,-47.17212 -82.52543,-113.01654 -6.41864,-10.81028 -6.41864,-19.65505 0,-11.79303 6.41864,-19.65504 20.17288,-29.48259 75.18983,-87.46497 55.01695,-57.9824 72.43899,-57.9824 10.08644,0 19.25593,6.87926 l 105.44915,88.44772 q 31.17628,-17.68954 70.60508,-31.44808 10.08644,-106.13726 21.08984,-151.34388 6.41864,-23.58605 27.50847,-23.58605 l 170.55254,0 q 10.08644,0 18.33898,7.37064 8.25255,7.37064 9.16949,17.19817 l 21.08984,150.36112 q 31.17627,9.82754 68.77119,30.46534 l 108.19999,-87.46498 q 7.3356,-6.87926 18.33899,-6.87926 10.08644,0 19.25593,7.86202 132.04066,130.70608 132.04066,157.24039 0,8.84477 -6.4187,18.67231 -11.0033,15.72404 -38.5117,53.06862 -27.5086,37.3446 -41.2628,58.96515 21.0898,47.17212 31.1763,80.58571 l 139.3763,22.6033 q 9.1694,1.96551 15.5881,10.31891 6.4186,8.35339 6.4186,19.16367 z m 586.8475,523.80705 0,137.5855 q 0,15.724 -136.6254,30.4653 -11.0035,26.5343 -27.5085,51.1031 46.7643,111.051 46.7643,135.6198 0,3.931 -3.6678,6.8792 -111.8677,69.7755 -113.7016,69.7755 -7.3356,0 -42.1797,-46.1893 -34.8441,-46.1894 -47.6813,-66.8272 -18.339,1.9654 -27.5085,1.9654 -9.1695,0 -27.5085,-1.9654 -12.8372,20.6378 -47.6813,66.8272 -34.8441,46.1893 -42.1797,46.1893 -1.8339,0 -113.7017,-69.7755 -3.6678,-2.9482 -3.6678,-6.8792 0,-24.5688 46.7644,-135.6198 -16.505,-24.5688 -27.5085,-51.1031 -136.6254,-14.7413 -136.6254,-30.4653 l 0,-137.5855 q 0,-15.724 136.6254,-30.4652 11.9204,-28.4999 27.5085,-51.1032 -46.7644,-111.0511 -46.7644,-135.6199 0,-3.9309 3.6678,-6.8792 3.6678,-1.9656 32.0933,-19.655 28.4254,-17.6896 54.0999,-33.4136 25.6746,-15.724 27.5085,-15.724 7.3356,0 42.1797,45.698 34.8441,45.698 47.6813,66.3357 18.339,-1.9655 27.5085,-1.9655 9.1695,0 27.5085,1.9655 46.7644,-69.7755 84.3593,-110.0683 l 5.5017,-1.9654 q 3.6678,0 113.7016,68.7926 3.6678,2.9483 3.6678,6.8792 0,24.5688 -46.7643,135.6199 15.5881,22.6033 27.5085,51.1032 136.6254,14.7412 136.6254,30.4652 z m 0,-1006.33852 0,137.58535 q 0,15.72404 -136.6254,30.46533 -11.0035,26.53431 -27.5085,51.10312 46.7643,111.05104 46.7643,135.61984 0,3.93101 -3.6678,6.87928 -111.8677,69.77541 -113.7016,69.77541 -7.3356,0 -42.1797,-46.18936 -34.8441,-46.18937 -47.6813,-66.82717 -18.339,1.96551 -27.5085,1.96551 -9.1695,0 -27.5085,-1.96551 -12.8372,20.6378 -47.6813,66.82717 -34.8441,46.18936 -42.1797,46.18936 -1.8339,0 -113.7017,-69.77541 -3.6678,-2.94827 -3.6678,-6.87928 0,-24.5688 46.7644,-135.61984 -16.505,-24.56881 -27.5085,-51.10312 -136.6254,-14.74129 -136.6254,-30.46533 l 0,-137.58535 q 0,-15.72404 136.6254,-30.46532 11.9204,-28.49983 27.5085,-51.10313 -46.7644,-111.05103 -46.7644,-135.61984 0,-3.93102 3.6678,-6.879271 3.6678,-1.96551 32.0933,-19.655055 28.4254,-17.689544 54.0999,-33.413584 25.6746,-15.72404 27.5085,-15.72404 7.3356,0 42.1797,45.697991 34.8441,45.697999 47.6813,66.335799 18.339,-1.96551 27.5085,-1.96551 9.1695,0 27.5085,1.96551 46.7644,-69.775432 84.3593,-110.068284 l 5.5017,-1.965506 q 3.6678,0 113.7016,68.792679 3.6678,2.948251 3.6678,6.879271 0,24.56881 -46.7643,135.61984 15.5881,22.6033 27.5085,51.10313 136.6254,14.74128 136.6254,30.46532 z"/></svg>