<svg xmlns="http://www.w3.org/2000/svg" width="1792" height="1792" viewBox="0 0 1792 1792"><path d="M837.315 895.509q0-104.172-68.771-177.878-68.771-73.706-165.968-73.706-97.197 0-165.968 73.706-68.771 73.706-68.771 177.878 0 104.172 68.771 177.878 68.771 73.707 165.968 73.707 97.197 0 165.968-73.707 68.771-73.706 68.771-177.878zm704.217 503.169q0-51.103-34.844-88.448-34.844-37.345-82.525-37.345-47.681 0-82.525 37.345-34.844 37.344-34.844 88.448 0 52.086 34.386 88.939 34.386 36.853 82.984 36.853 48.598 0 82.984-36.853 34.386-36.853 34.386-88.939zm0-1006.339q0-51.103-34.844-88.448-34.844-37.345-82.525-37.345-47.681 0-82.525 37.345-34.844 37.345-34.844 88.448 0 52.086 34.386 88.939 34.386 36.853 82.984 36.853 48.598 0 82.984-36.853 34.386-36.853 34.386-88.939zm-352.108 413.739v181.809q0 9.828-6.419 19.164-6.419 9.336-14.671 10.319l-142.127 23.586q-10.086 34.396-29.342 74.689 31.176 47.172 82.525 113.016 6.419 9.828 6.419 19.655 0 11.793-6.419 18.672-21.09 29.483-75.648 87.956-54.558 58.474-71.98 58.474-10.086 0-19.256-6.879l-105.449-88.448q-33.927 18.672-70.605 30.465-10.086 106.137-21.09 152.327-6.419 23.586-27.508 23.586h-170.553q-10.086 0-18.339-7.371-8.253-7.371-9.169-17.198l-21.09-150.361q-31.176-9.828-68.771-30.465l-108.2 87.465q-6.419 6.879-18.339 6.879-10.086 0-19.256-7.862-132.041-130.706-132.041-157.24 0-8.845 6.419-18.672 9.169-13.758 37.595-52.086 28.425-38.327 43.097-59.948-21.09-43.241-32.093-80.586l-139.376-23.586q-9.169-.983-15.588-9.336-6.419-8.353-6.419-19.164v-181.809q0-9.828 6.419-19.164 6.419-9.336 14.671-10.319l142.127-23.586q10.086-34.396 29.342-74.689-31.176-47.172-82.525-113.017-6.419-10.81-6.419-19.655 0-11.793 6.419-19.655 20.173-29.483 75.19-87.465 55.017-57.982 72.439-57.982 10.086 0 19.256 6.879l105.449 88.448q31.176-17.69 70.605-31.448 10.086-106.137 21.09-151.344 6.419-23.586 27.508-23.586h170.553q10.086 0 18.339 7.371 8.253 7.371 9.169 17.198l21.09 150.361q31.176 9.828 68.771 30.465l108.2-87.465q7.336-6.879 18.339-6.879 10.086 0 19.256 7.862 132.041 130.706 132.041 157.24 0 8.845-6.419 18.672-11.003 15.724-38.512 53.069t-41.263 58.965q21.09 47.172 31.176 80.586l139.376 22.603q9.169 1.966 15.588 10.319 6.419 8.353 6.419 19.164zm586.847 523.807v137.585q0 15.724-136.625 30.465-11.004 26.534-27.509 51.103 46.764 111.051 46.764 135.62 0 3.931-3.668 6.879-111.868 69.775-113.702 69.775-7.336 0-42.18-46.189t-47.681-66.827q-18.339 1.965-27.509 1.965-9.169 0-27.509-1.965-12.837 20.638-47.681 66.827-34.844 46.189-42.18 46.189-1.834 0-113.702-69.775-3.668-2.948-3.668-6.879 0-24.569 46.764-135.62-16.505-24.569-27.509-51.103-136.625-14.741-136.625-30.465v-137.585q0-15.724 136.625-30.465 11.92-28.5 27.509-51.103-46.764-111.051-46.764-135.62 0-3.931 3.668-6.879 3.668-1.966 32.093-19.655 28.425-17.69 54.1-33.414t27.509-15.724q7.336 0 42.18 45.698t47.681 66.336q18.339-1.966 27.509-1.966 9.169 0 27.509 1.966 46.764-69.775 84.359-110.068l5.502-1.965q3.668 0 113.702 68.793 3.668 2.948 3.668 6.879 0 24.569-46.764 135.62 15.588 22.603 27.509 51.103 136.625 14.741 136.625 30.465zm0-1006.339v137.585q0 15.724-136.625 30.465-11.004 26.534-27.509 51.103 46.764 111.051 46.764 135.62 0 3.931-3.668 6.879-111.868 69.775-113.702 69.775-7.336 0-42.18-46.189t-47.681-66.827q-18.339 1.966-27.509 1.966-9.169 0-27.509-1.966-12.837 20.638-47.681 66.827-34.844 46.189-42.18 46.189-1.834 0-113.702-69.775-3.668-2.948-3.668-6.879 0-24.569 46.764-135.62-16.505-24.569-27.509-51.103-136.625-14.741-136.625-30.465v-137.585q0-15.724 136.625-30.465 11.92-28.5 27.509-51.103-46.764-111.051-46.764-135.62 0-3.931 3.668-6.879 3.668-1.966 32.093-19.655 28.425-17.69 54.1-33.414t27.509-15.724q7.336 0 42.18 45.698t47.681 66.336q18.339-1.966 27.509-1.966 9.169 0 27.509 1.966 46.764-69.775 84.359-110.068l5.502-1.966q3.668 0 113.702 68.793 3.668 2.948 3.668 6.879 0 24.569-46.764 135.62 15.588 22.603 27.509 51.103 136.625 14.741 136.625 30.465z"/></svg>