<svg enable-background="new -60.562 -37.846 1024 1024" viewBox="-60.562 -37.846 1024 1024" xmlns="http://www.w3.org/2000/svg"><path d="m806.438 431.154v127.581 156.435c0 8.63-.271 17.213-1.394 25.791.583-4.343 1.166-8.685 1.75-13.026-1.87 13.351-5.415 26.329-10.607 38.771 1.646-3.901 3.293-7.804 4.939-11.705-5.179 12.113-11.816 23.464-19.821 33.926 2.554-3.306 5.107-6.611 7.661-9.917-8.04 10.323-17.271 19.566-27.585 27.62 3.306-2.555 6.611-5.108 9.917-7.662-10.448 8.017-21.789 14.665-33.895 19.854 3.901-1.646 7.804-3.293 11.705-4.939-12.434 5.2-25.405 8.753-38.752 10.626 4.342-.583 8.684-1.167 13.026-1.75-12.931 1.696-25.906 1.396-38.907 1.396-19.803 0-39.604 0-59.407 0-61.676 0-123.352 0-185.027 0-58.113 0-116.226 0-174.338 0-13.604 0-27.208 0-40.811 0-10.794 0-21.479.014-32.232-1.396 4.342.583 8.684 1.167 13.026 1.75-13.354-1.874-26.333-5.427-38.775-10.626 3.901 1.646 7.803 3.293 11.705 4.939-12.117-5.188-23.47-11.837-33.933-19.854 3.306 2.554 6.611 5.107 9.917 7.662-10.327-8.053-19.572-17.296-27.626-27.62 2.554 3.306 5.108 6.611 7.662 9.917-8.019-10.46-14.669-21.811-19.859-33.926 1.646 3.901 3.293 7.804 4.939 11.705-5.202-12.44-8.756-25.419-10.63-38.771.583 4.342 1.167 8.684 1.75 13.026-1.697-12.932-1.397-25.907-1.397-38.91 0-19.803 0-39.604 0-59.407 0-61.676 0-123.352 0-185.028 0-58.113 0-116.226 0-174.338 0-13.604 0-27.208 0-40.811 0-10.793-.014-21.478 1.397-32.229-.583 4.342-1.167 8.684-1.75 13.026 1.874-13.348 5.428-26.321 10.63-38.756-1.646 3.901-3.293 7.803-4.939 11.705 5.19-12.108 11.841-23.451 19.859-33.901-2.554 3.306-5.108 6.611-7.662 9.917 8.055-10.316 17.301-19.549 27.626-27.592-3.306 2.554-6.611 5.108-9.917 7.662 10.464-8.008 21.817-14.647 33.933-19.829-3.902 1.646-7.804 3.293-11.705 4.94 12.443-5.193 25.423-8.741 38.775-10.611-4.342.583-8.684 1.167-13.026 1.75 16.377-2.145 33.179-1.395 49.665-1.395h83.863 166.029 10.221c26.711 0 49-22.289 49-49s-22.289-49-49-49c-42.522 0-85.045 0-127.568 0-52.14 0-104.279 0-156.419 0-39.237 0-77.96 9.312-111.443 30.275-46.488 29.107-81.955 77.982-91.591 132.386-3.306 18.664-3.979 36.638-3.979 55.334v57.667 183.773 176.053c0 42.896-3.145 87.646 13.778 128.115 5.766 13.789 11.669 26.971 20.159 39.304 8.252 11.987 17.511 23.577 28.04 33.667 21.655 20.752 46.856 35.272 74.857 45.563 23.74 8.725 49.284 10.863 74.408 10.863h131.396 194.938 139.71c20.572 0 40.767-1.041 61.053-5.574 53.641-11.986 101.442-49.214 128.427-96.735 18.595-32.746 26.234-69.183 26.234-106.545 0-21.306 0-42.611 0-63.917 0-61.141 0-122.281 0-183.422 0-11.603 0-23.205 0-34.807 0-26.711-22.289-49-49-49s-49 22.289-49 49z"/><path d="m845.887 197.439-356.304 356.304-114.833 7.019 5.129-116.722 356.305-356.304c12.619-12.62 32.813-12.882 45.105-.588l65.185 65.185c12.289 12.3 12.033 32.486-.587 45.106z"/></svg>