<svg viewBox="0 0 576 512"><path d="M135.52 412.67a15.99 15.99 0 0 0-7.52 13.57v37.74c0 12.57 13.82 20.23 24.48 13.57l66.69-39.87-47.85-47.85-35.8 22.84zm416.76-195.42l-56.42-34.62c-.06-13.95-2.28-30.77-7.07-48.67-11.32-42.24-31.91-73.43-45.99-69.66-14.08 3.77-16.32 41.08-5 83.32.65 2.44 1.44 4.7 2.15 7.06-4.89-6.08-10.23-12.23-16.31-18.32-30.93-30.92-64.35-47.64-74.66-37.33s6.4 43.73 37.33 74.66c12.67 12.67 25.67 22.77 37.42 29.78-3.14 5.76-5.71 12.06-6.89 19.32-.49 3.03-.71 6.15-.75 9.31C364.55 195.11 261.59 128 192 128c-52.08 0-85.21 28.24-104.72 54.09-1.77-2.7-2.96-5.66-5.33-8.03-18.75-18.75-49.14-18.75-67.88 0-18.74 18.74-18.74 49.14 0 67.88 16.4 16.39 41.29 17.57 59.92 5.29l191.4 191.4c6 6 14.14 9.37 22.63 9.37h144c8.84 0 16-7.16 16-16v-16c0-17.67-14.33-32-32-32h-96v-55.59c0-35.53-23.86-67.16-58.02-76.91l-42.38-12.11c-8.5-2.44-13.42-11.3-11-19.78 2.44-8.52 11.41-13.33 19.78-11l42.38 12.11C318.59 234.38 352 278.66 352 328.41V352l64-32h103.35c31.29 0 56.65-25.36 56.65-56.65a56.66 56.66 0 0 0-23.72-46.1zM496 256c-8.84 0-16-7.16-16-16s7.16-16 16-16 16 7.16 16 16-7.16 16-16 16z"/></svg>