<svg viewBox="0 0 128 128" height="128" width="128">
  <g transform="translate(0,-924.36216)">
    <g>
      <rect height="33.711269" width="48.158955" transform="matrix(0.70710678,-0.70710678,0.70710678,0.70710678,0,0)" y="732.13635" x="-634.40143"/>
      <polygon points="19.092,13.435 18.385,12.728 13.435,7.778 12.727,7.071 10.605,9.192 16.971,15.557 " transform="matrix(4.8159417,0,0,4.8159417,0.99999969,932.22665)"/>
      <path d="m 72.511918,1030.9824 c 7.098698,-7.0987 8.23526,-14.183 6.713423,-20.54 l -31.73224,-31.71783 c -5.663548,-0.83798 -12.155437,0.89095 -19.254135,7.98964 -17.024354,17.02439 3.404871,44.26819 -27.23896631,47.67299 30.64383731,17.0292 57.88761931,10.2194 71.51191831,-3.4048 z"/>
    </g>
  </g>
</svg>
