<svg xmlns="http://www.w3.org/2000/svg" xmlns:xlink="http://www.w3.org/1999/xlink" width="300" height="300" version="1.1" viewBox="0 0 128 128"><g><path d="M64,1C29.3,1,1,29.3,1,64s28.3,63,63,63s63-28.3,63-63S98.7,1,64,1z M64,7c11.8,0,22.8,3.6,32,9.8L78.8,34 c-4.5-2.2-9.5-3.5-14.8-3.5S53.7,31.8,49.2,34L32,16.8C41.2,10.6,52.2,7,64,7z M91.5,64c0,15.2-12.3,27.5-27.5,27.5 S36.5,79.2,36.5,64S48.8,36.5,64,36.5S91.5,48.8,91.5,64z M16.8,96C10.6,86.8,7,75.8,7,64c0-12.4,4-23.9,10.7-33.2l17,17 C32,52.6,30.5,58.1,30.5,64c0,5.3,1.3,10.3,3.5,14.8L16.8,96z M64,121c-12.4,0-23.9-4-33.2-10.7l17-17c4.8,2.7,10.3,4.2,16.2,4.2 c5.9,0,11.4-1.5,16.2-4.2l17,17C87.9,117,76.4,121,64,121z M121,64c0,11.8-3.6,22.8-9.8,32L94,78.8c2.2-4.5,3.5-9.5,3.5-14.8 c0-5.9-1.5-11.4-4.2-16.2l17-17C117,40.1,121,51.6,121,64z"/></g></svg>