<svg width="1792" height="1792" viewBox="0 0 1792 1792" xmlns="http://www.w3.org/2000/svg"><path d="M1536 128q0 261-106.5 461.5t-266.5 306.5q160 106 266.5 306.5t106.5 461.5h96q14 0 23 9t9 23v64q0 14-9 23t-23 9h-1472q-14 0-23-9t-9-23v-64q0-14 9-23t23-9h96q0-261 106.5-461.5t266.5-306.5q-160-106-266.5-306.5t-106.5-461.5h-96q-14 0-23-9t-9-23v-64q0-14 9-23t23-9h1472q14 0 23 9t9 23v64q0 14-9 23t-23 9h-96zm-128 0h-1024q0 206 85 384h854q85-178 85-384zm-57 1216q-54-141-145.5-241.5t-194.5-142.5h-230q-103 42-194.5 142.5t-145.5 241.5h910z"/></svg>