<svg viewBox="0 0 128 128" height="128" width="128">
  <g transform="translate(0,-924.36216)">
    <g transform="translate(0,-5.2934728)">
      <g transform="matrix(1.26,0,0,1.3012362,-13.737501,-318.60664)">
        <path d="m 56.142431,984.49997 0,0 c -0.009,-8.475 -7.645,-15.365 -17.024003,-15.365 l -10.402,0 c -9.281,0 -16.851,6.75 -17.02,15.093 l 0.005,0.281 c 0.004,8.474 7.64,15.365 17.02,15.365 l 10.401,0 c 2.086003,0 4.083003,-0.347 5.934003,-0.966 -2.541,-1.425 -4.678,-3.394 -6.210003,-5.728 l -10.125,0 c -5.386,0 -9.82,-3.487 -10.289,-7.912 l -0.042,0 0,-0.769 c 0.005,-4.781 4.641,-8.671 10.326,-8.671 l 10.401,0 c 5.386003,0 9.825003,3.478 10.289003,7.912 l 0.042,0 0.005,0.759 0,0.01 c -0.005,1.64 -0.558,3.168 -1.505,4.471 1.5,1.51 3.736,2.503 6.258,2.635 1.19,-2.053 1.889,-4.369 1.936,-6.834 l 0,-0.281 z" />
        <path d="m 106.73343,973.67297 c -3.225,-2.925 -7.504999,-4.537 -12.060999,-4.537 l -10.401,0 c -9.379,0 -17.015,6.89 -17.02,15.365 l 0,0 0,0.057 c 0.014,2.549 0.717,4.94 1.94,7.049 2.508,-0.169 4.716,-1.2 6.183,-2.719 -0.9,-1.293 -1.43,-2.784 -1.43,-4.377 0,-0.01 0,-0.01 0,-0.01 0.005,-4.781 4.641,-8.671 10.326,-8.671 l 10.401,0 c 5.689999,0 10.325999,3.891 10.330999,8.671 0,4.791 -4.636,8.681 -10.330999,8.681 l -10.283,0 c -1.523,2.315 -3.638,4.266 -6.149,5.69 1.875,0.646 3.909,1.003 6.032,1.003 l 10.401,0 c 9.378999,0 17.014999,-6.891 17.023999,-15.365 10e-4,-4.087 -1.762,-7.931 -4.963,-10.837 z" />
        <g>
          <path d="m 54.769431,969.13597 c -2.086,0 -4.087,0.347 -5.935,0.965 2.541,1.435 4.673,3.394 6.211,5.728 l 13.303,0 c 1.523,-2.315 3.638,-4.266 6.146,-5.69 -1.875,-0.647 -3.909,-1.003 -6.038,-1.003 l -13.687,0 z"/>
          <path d="m 85.480431,984.49997 c 0,-2.559 -0.703,-4.968 -1.936,-7.097 -2.508,0.169 -4.72,1.2 -6.188,2.719 0.9,1.294 1.425,2.785 1.43,4.378 l 0,0 c 0,4.791 -4.631,8.681 -10.326,8.681 l -13.691,0 c -5.69,0 -10.326,-3.891 -10.326,-8.681 l 0,0 c 0,-1.64 0.558,-3.168 1.5,-4.472 -1.5,-1.5 -3.736,-2.494 -6.253003,-2.625 -1.237,2.119 -1.94,4.538 -1.94,7.097 l 0,0 c 0,8.475 7.636003,15.375 17.024003,15.375 l 13.687,0 c 9.383,0 17.019,-6.899 17.019,-15.375 l 0,0 z"/>
        </g>
      </g>
      <path d="m 93,1011.8898 0,7.9091 q 0,1.6479 -1.15341,2.801 -1.1534,1.1535 -2.80113,1.1535 l -17.13637,0 0,17.1366 q 0,1.6475 -1.153401,2.8009 -1.153414,1.1535 -2.801139,1.1535 l -7.90909,0 q -1.647735,0 -2.801139,-1.1535 -1.153411,-1.1534 -1.153411,-2.8009 l 0,-17.1366 -17.13636,0 q -1.647725,0 -2.801135,-1.1535 Q 35,1021.4468 35,1019.7989 l 0,-7.9091 q 0,-1.6477 1.153415,-2.8011 1.15341,-1.1535 2.801135,-1.1535 l 17.13636,0 0,-17.13641 q 0,-1.64771 1.153411,-2.80112 1.153404,-1.15342 2.801139,-1.15342 l 7.90909,0 q 1.647725,0 2.801139,1.15342 1.153401,1.15341 1.153401,2.80112 l 0,17.13641 17.13637,0 q 1.64773,0 2.80113,1.1535 Q 93,1010.2421 93,1011.8898 Z"/>
    </g>
  </g>
</svg>
