<svg width="128" height="128" viewBox="0 0 128 128"><g><path d="m 127,1024.3622 0,9 q 0,1.8281 -1.33594,3.1641 -1.33593,1.3359 -3.16406,1.3359 l -117,0 q -1.82812,0 -3.16406,-1.3359 Q 1,1035.1903 1,1033.3622 l 0,-9 q 0,-1.8281 1.33594,-3.1641 1.33594,-1.3359 3.16406,-1.3359 l 117,0 q 1.82813,0 3.16406,1.3359 1.33594,1.336 1.33594,3.1641 z m -27,-27.00004 0,9.00004 q 0,1.8281 -1.33594,3.1641 -1.33593,1.3359 -3.16406,1.3359 l -63,0 q -1.82812,0 -3.16406,-1.3359 Q 28,1008.1903 28,1006.3622 l 0,-9.00004 q 0,-1.8281 1.33594,-3.1641 1.33594,-1.3359 3.16406,-1.3359 l 63,0 q 1.82813,0 3.16406,1.3359 1.33594,1.336 1.33594,3.1641 z m 18,-27 0,9 q 0,1.8281 -1.33594,3.1641 -1.33593,1.3359 -3.16406,1.3359 l -99,0 q -1.82812,0 -3.16406,-1.3359 Q 10,981.19026 10,979.36216 l 0,-9 q 0,-1.8281 1.33594,-3.1641 1.33594,-1.3359 3.16406,-1.3359 l 99,0 q 1.82813,0 3.16406,1.3359 1.33594,1.336 1.33594,3.1641 z m -27,-27 0,9 q 0,1.8281 -1.33594,3.1641 -1.33593,1.3359 -3.16406,1.3359 l -45,0 q -1.82812,0 -3.16406,-1.3359 Q 37,954.19026 37,952.36216 l 0,-9 q 0,-1.8281 1.33594,-3.1641 1.33594,-1.3359 3.16406,-1.3359 l 45,0 q 1.82813,0 3.16406,1.3359 Q 91,941.53406 91,943.36216 Z" transform="translate(0,-924.36216)"/></g></svg>