<svg xmlns="http://www.w3.org/2000/svg" xmlns:xlink="http://www.w3.org/1999/xlink" x="0" y="0" fill="#000" version="1.1" viewBox="0 0 17 17"><path d="M1.7866,6.5 L15.9196,6.5 C16.8236,6.5 17.1906,5.336 16.4496,4.818 L11.5146,1.363 C9.9166,0.244 7.7896,0.244 6.1916,1.363 L1.2566,4.818 C0.5156,5.336 0.8826,6.5 1.7866,6.5"/><polygon points="1.853 12.5 3.853 12.5 3.853 7.5 1.853 7.5"/><polygon points="4.853 12.5 6.853 12.5 6.853 7.5 4.853 7.5"/><polygon points="7.853 12.5 9.853 12.5 9.853 7.5 7.853 7.5"/><polygon points="10.853 12.5 12.853 12.5 12.853 7.5 10.853 7.5"/><polygon points="13.853 12.5 15.853 12.5 15.853 7.5 13.853 7.5"/><polygon points=".853 16.5 16.853 16.5 16.853 15.5 .853 15.5"/><polygon points="1.853 14.5 15.853 14.5 15.853 13.5 1.853 13.5"/></svg>