<svg viewBox="0 0 128 128" height="128" width="128">
  <g transform="translate(0,-924.36216)">
    <path d="m 117,1018.6479 v 7.5714 q 0,1.5379 -1.12388,2.6618 -1.12389,1.1239 -2.66183,1.1239 H 14.785714 q -1.537946,0 -2.66183,-1.1239 Q 11,1027.7572 11,1026.2193 v -7.5714 q 0,-1.538 1.123884,-2.6619 1.123884,-1.1239 2.66183,-1.1239 h 98.428576 q 1.53794,0 2.66183,1.1239 Q 117,1017.1099 117,1018.6479 Z M 94.285714,995.93357 v 7.57143 q 0,1.5379 -1.123884,2.6618 -1.123884,1.1239 -2.66183,1.1239 h -53 q -1.537946,0 -2.66183,-1.1239 -1.123884,-1.1239 -1.123884,-2.6618 v -7.57143 q 0,-1.53795 1.123884,-2.66183 1.123884,-1.12388 2.66183,-1.12388 h 53 q 1.537946,0 2.66183,1.12388 1.123884,1.12388 1.123884,2.66183 z m 15.142856,-22.71428 v 7.57142 q 0,1.53795 -1.12388,2.66183 -1.12389,1.12388 -2.66183,1.12388 H 22.357143 q -1.537947,0 -2.661831,-1.12388 -1.123883,-1.12388 -1.123883,-2.66183 v -7.57142 q 0,-1.53796 1.123883,-2.66184 1.123884,-1.12388 2.661831,-1.12388 h 83.285717 q 1.53794,0 2.66183,1.12388 1.12388,1.12388 1.12388,2.66184 z m -22.714284,-22.7143 v 7.57143 q 0,1.53795 -1.123884,2.66183 -1.123884,1.12389 -2.661831,1.12389 H 45.071429 q -1.537947,0 -2.661831,-1.12389 -1.123884,-1.12388 -1.123884,-2.66183 v -7.57143 q 0,-1.53794 1.123884,-2.66183 1.123884,-1.12387 2.661831,-1.12387 h 37.857142 q 1.537947,0 2.661831,1.12387 1.123884,1.12389 1.123884,2.66183 z" />
    <path d="M 2.970371,927.33253 H 125.02963 V 1049.3918 H 2.970371 Z"
       style="fill:none;fill-opacity:1;fill-rule:evenodd;stroke:#30a82d;stroke-width:3.94074321;stroke-linecap:round;stroke-linejoin:round;stroke-miterlimit:4;stroke-dasharray:3.94074312, 11.82222935;stroke-dashoffset:0;stroke-opacity:1" />
  </g>
</svg>
