<svg viewBox="0 0 576 512"><path d="M68.25 256h279.51c23.54 0 40.97-19.8 35.1-40.04C362.84 146.97 292.33 64 208.41 64h-.82c-83.91 0-154.43 82.97-174.44 151.96C27.27 236.2 44.71 256 68.25 256zm484.03-118.75l-48.65-34.75c-35.17-17.42-80.49 1.57-86.81 40.31-.54 3.32-.82 6.72-.82 10.19v71.22c-.03 13.88-4.6 27.18-13.27 38.44-12.42 16.11-31.25 25.34-51.68 25.34H18.6C8.33 288 0 296.33 0 306.6c0 8 5.12 15.11 12.71 17.64l98.29 22.1L66.17 424c-6.16 10.67 1.54 24 13.86 24h36.95c5.71 0 11-3.05 13.86-8l40.3-69.8c25.99 8.52 45.55 13.8 84.87 13.8s58.89-5.28 84.87-13.8l40.3 69.8c2.86 4.95 8.14 8 13.86 8h36.95c12.32 0 20.01-13.33 13.86-24l-47.21-81.76c21.25-8.42 40.36-21.78 54.81-40.53 14.08-18.28 22.47-39.4 25.29-61.7h40.62c31.29 0 56.65-25.36 56.65-56.65a56.7 56.7 0 0 0-23.73-46.11zM480 176c-8.84 0-16-7.16-16-16s7.16-16 16-16 16 7.16 16 16-7.16 16-16 16z"/></svg>