<svg xmlns="http://www.w3.org/2000/svg" viewBox="0 -200 1000 1000"><path d="M538.168 490.052l-145.58 126.528c-45.752 39.736-70.796 61.084-75.128 64.048-4.334 2.962-8.58 4.444-12.738 4.444-4.853 0-9.273-2.004-13.259-6.013-3.987-4.008-5.98-8.453-5.98-13.332 0-3.137 9.88-29.627 29.638-79.472l79.028-201.816-169.497-109.275c-47.835-30.673-73.396-47.578-76.688-50.715-3.294-3.137-4.94-7.668-4.94-13.594 0-15.336 8.84-23.005 26.517-23.005 1.387 0 25.649 2.092 72.79 6.274l209.529 17.776 47.315-202.339c12.131-52.633 19.671-81.563 22.617-86.791 2.945-5.229 8.405-7.842 16.377-7.842 8.32 0 0 575.124 0 575.124z"/></svg>