<svg xmlns="http://www.w3.org/2000/svg" version="1.1" viewBox="0 -200 1000 1000"><g><path d="M 466.134,74.71 320.554,-51.818 c -45.752,-39.7363 -70.796,-61.0836 -75.128,-64.0476 -4.334,-2.962 -8.58,-4.444 -12.738,-4.444 -4.853,0 -9.273,2.004 -13.259,6.013 -3.987,4.008 -5.98,8.453 -5.98,13.332 0,3.1369 9.88,29.6271 29.638,79.4718 l 79.028,201.816 -169.497,109.275 c -47.835,30.673 -73.3963,47.578 -76.6883,50.715 -3.294,3.137 -4.9404,7.668 -4.9404,13.594 0,15.336 8.8398,23.005 26.5166,23.005 1.3867,0 25.6491,-2.092 72.7901,-6.274 l 209.529,-17.776 47.315,202.339 c 12.131,52.633 19.671,81.563 22.617,86.791 2.945,5.229 8.405,7.842 16.377,7.842 8.32,0 0,-575.124 0,-575.124 z" transform="matrix(1,0,0,-1,72.033898,564.7623)"/></g></svg>