<svg width="1792" height="1792" viewBox="0 0 1792 1792" xmlns="http://www.w3.org/2000/svg"><path d="M1760 896q14 0 23 9t9 23v64q0 14-9 23t-23 9h-1728q-14 0-23-9t-9-23v-64q0-14 9-23t23-9h1728zm-1277-64q-28-35-51-80-48-97-48-188 0-181 134-309 133-127 393-127 50 0 167 19 66 12 177 48 10 38 21 118 14 123 14 183 0 18-5 45l-12 3-84-6-14-2q-50-149-103-205-88-91-210-91-114 0-182 59-67 58-67 146 0 73 66 140t279 129q69 20 173 66 58 28 95 52h-743zm507 256h411q7 39 7 92 0 111-41 212-23 55-71 104-37 35-109 81-80 48-153 66-80 21-203 21-114 0-195-23l-140-40q-57-16-72-28-8-8-8-22v-13q0-108-2-156-1-30 0-68l2-37v-44l102-2q15 34 30 71t22.5 56 12.5 27q35 57 80 94 43 36 105 57 59 22 132 22 64 0 139-27 77-26 122-86 47-61 47-129 0-84-81-157-34-29-137-71z"/></svg>