<svg xmlns="http://www.w3.org/2000/svg" viewBox="0 0 128 128">
  <path fill-rule="evenodd" d="M 65.957,16.860 C 62.908,16.584 59.770,17.610 57.426,19.954 L 3.301,74.048 C -0.894,78.243 -0.894,85.009 3.301,89.204 L 33.457,119.360 C 37.652,123.555 44.418,123.555 48.613,119.360 L 102.707,65.235 C 105.198,62.744 105.840,59.365 105.832,56.141 L 105.770,27.453 C 105.770,21.521 100.984,16.734 95.051,16.734 C 95.051,16.734 66.443,16.826 65.957,16.860 Z M 90.395,21.984 A 5.563,5.563 0 0 1 95.957,27.547 A 5.563,5.563 0 0 1 90.395,33.110 A 5.563,5.563 0 0 1 84.832,27.547 A 5.563,5.563 0 0 1 90.395,21.984 Z"/>
</svg>
