<svg width="128" height="128" viewBox="0 0 128 128"><g><g transform="translate(0,-924.36216)"><path d="m 124.77795,1016.5109 0,13.1337 q 0,0.8893 -0.64984,1.5392 -0.64984,0.6499 -1.53908,0.6499 l -83.180612,0 q -0.889337,0 -1.539177,-0.6499 -0.64984,-0.6499 -0.64984,-1.5392 l 0,-13.1337 q 0,-0.9577 0.615652,-1.5734 0.615653,-0.6156 1.573365,-0.6156 l 83.180612,0 q 0.88924,0 1.53908,0.6498 0.64984,0.6499 0.64984,1.5392 z"/><path d="m 124.77795,981.48749 0,13.13382 q 0,0.88924 -0.64984,1.53908 -0.64984,0.64984 -1.53908,0.64984 l -83.180612,0 q -0.889337,0 -1.539177,-0.64984 -0.64984,-0.64984 -0.64984,-1.53908 l 0,-13.13382 q 0,-0.95772 0.615652,-1.57337 0.615653,-0.61556 1.573365,-0.61556 l 83.180612,0 q 0.88924,0 1.53908,0.64984 0.64984,0.64984 0.64984,1.53909 z"/><path d="m 124.77795,946.46405 0,13.13382 q 0,0.88925 -0.64984,1.53909 -0.64984,0.64984 -1.53908,0.64984 l -83.180612,0 q -0.889337,0 -1.539177,-0.64984 -0.64984,-0.64984 -0.64984,-1.53909 l 0,-13.13382 q 0,-0.88925 0.64984,-1.53909 0.64984,-0.64984 1.539177,-0.64984 l 83.180612,0 q 0.88924,0 1.53908,0.64984 0.64984,0.64984 0.64984,1.53909 z"/><path d="m 124.77795,946.46405 0,13.13382 q 0,0.88925 -0.64984,1.53909 -0.64984,0.64984 -1.53908,0.64984 l -83.180612,0 q -0.889337,0 -1.539177,-0.64984 -0.64984,-0.64984 -0.64984,-1.53909 l 0,-13.13382 q 0,-0.88925 0.64984,-1.53909 0.64984,-0.64984 1.539177,-0.64984 l 83.180612,0 q 0.88924,0 1.53908,0.64984 0.64984,0.64984 0.64984,1.53909 z"/><path d="m 124.77795,946.46405 0,13.13382 q 0,0.88925 -0.64984,1.53909 -0.64984,0.64984 -1.53908,0.64984 l -83.180612,0 q -0.889337,0 -1.539177,-0.64984 -0.64984,-0.64984 -0.64984,-1.53909 l 0,-13.13382 q 0,-0.88925 0.64984,-1.53909 0.64984,-0.64984 1.539177,-0.64984 l 83.180612,0 q 0.88924,0 1.53908,0.64984 0.64984,0.64984 0.64984,1.53909 z"/><circle cx="16.484" cy="953.031" r="11.093"/><circle cx="16.484" cy="988.054" r="11.093"/><circle cx="16.484" cy="1023.078" r="11.093"/></g></g></svg>