<svg width="1792" height="1792" viewBox="0 0 1792 1792" xmlns="http://www.w3.org/2000/svg"><path d="M176 223q-37-2-45-4l-3-88q13-1 40-1 60 0 112 4 132 7 166 7 86 0 168-3 116-4 146-5 56 0 86-2l-1 14 2 64v9q-60 9-124 9-60 0-79 25-13 14-13 132 0 13 .5 32.5t.5 25.5l1 229 14 280q6 124 51 202 35 59 96 92 88 47 177 47 104 0 191-28 56-18 99-51 48-36 65-64 36-56 53-114 21-73 21-229 0-79-3.5-128t-11-122.5-13.5-159.5l-4-59q-5-67-24-88-34-35-77-34l-100 2-14-3 2-86h84l205 10q76 3 196-10l18 2q6 38 6 51 0 7-4 31-45 12-84 13-73 11-79 17-15 15-15 41 0 7 1.5 27t1.5 31q8 19 22 396 6 195-15 304-15 76-41 122-38 65-112 123-75 57-182 89-109 33-255 33-167 0-284-46-119-47-179-122-61-76-83-195-16-80-16-237v-333q0-188-17-213-25-36-147-39zm1488 1409v-64q0-14-9-23t-23-9h-1472q-14 0-23 9t-9 23v64q0 14 9 23t23 9h1472q14 0 23-9t9-23z"/></svg>