<svg xmlns="http://www.w3.org/2000/svg" xmlns:xlink="http://www.w3.org/1999/xlink" width="128" height="128" version="1"><defs><linearGradient gradientTransform="matrix(1.003 0 0 1 -8.238 8)" y2="20.044" x2="122.392" y1="96.722" x1="122.744" gradientUnits="userSpaceOnUse" id="c"><stop offset="0" stop-color="#88c4ff"/><stop offset=".131" stop-color="#b3d9ff"/><stop offset=".72" stop-color="#71A8F5"/><stop offset="1" stop-color="#508ed9"/></linearGradient><linearGradient id="a"><stop offset="0" stop-color="#fff"/><stop offset="1" stop-color="#fff" stop-opacity="0"/></linearGradient><linearGradient id="k" gradientUnits="userSpaceOnUse" x1="71.999" y1="14.258" x2="71.999" y2="19.958" gradientTransform="matrix(1.003 0 0 1 -8.237 8)"><stop offset=".25" stop-color="#71a8f5" stop-opacity="0"/><stop offset="1" stop-color="#0057ae"/></linearGradient><linearGradient id="b" gradientUnits="userSpaceOnUse" x1="72.001" y1="96" x2="72.001" y2="20" gradientTransform="matrix(1.003 0 0 1 1.756 8)"><stop offset="0" stop-color="#cfe7ff"/><stop offset=".592" stop-color="#71A8F5"/><stop offset="1" stop-color="#2C72C7"/></linearGradient><filter x="-.026" width="1.051" y="-.384" height="1.768" id="n"><feGaussianBlur stdDeviation="1.28"/></filter><linearGradient id="m" gradientUnits="userSpaceOnUse" x1="72.001" y1="96" x2="72.001" gradientTransform="translate(-8 8)"><stop offset="0" stop-color="#00479E"/><stop offset=".077" stop-color="#2C72C7"/><stop offset=".586" stop-color="#6ea1df"/><stop offset=".965" stop-color="#adcbee"/></linearGradient><linearGradient xlink:href="#a" id="q" x1="22.414" y1="28.5" x2="22.414" y2="34.473" gradientUnits="userSpaceOnUse" gradientTransform="translate(10)"/><linearGradient xlink:href="#b" id="s" gradientUnits="userSpaceOnUse" gradientTransform="matrix(1.003 0 0 1 -8.244 8)" x1="72.001" y1="96" x2="72.001" y2="20"/><clipPath id="p"><path d="M133.866 100.978c-.073 1.391-1.27 2.522-2.667 2.522h-114.386c-1.398 0-2.594-1.132-2.667-2.521 0 0-3.637-70.012-3.637-70.022-.047-.656.165-1.272.597-1.737.433-.464 1.034-.719 1.694-.719h122.413c.659 0 1.26.255 1.691.718.43.463.639 1.079.588 1.747l-3.625 70.012z" fill="#ff00bf"/></clipPath><filter x="-.012" width="1.025" y="-.415" height="1.83" id="r"><feGaussianBlur stdDeviation=".654"/></filter><linearGradient xlink:href="#c" id="o" gradientUnits="userSpaceOnUse" gradientTransform="matrix(1.003 0 0 1 -8.238 8)" x1="122.744" y1="96.722" x2="122.744" y2="20"/><linearGradient y2="677.06" x2="538.773" y1="675.485" x1="538.773" gradientTransform="matrix(.602 0 0 .689 -188.171 -522.437)" gradientUnits="userSpaceOnUse" id="B" xlink:href="#d"/><radialGradient r="126.023" fy="651.104" fx="538.773" cy="651.104" cx="538.773" gradientTransform="matrix(.602 0 0 .797 -187.681 -594.066)" gradientUnits="userSpaceOnUse" id="A" xlink:href="#e"/><linearGradient y2="789.122" x2="538.773" y1="677.877" x1="538.773" gradientTransform="matrix(.602 0 0 .689 -188.171 -522.437)" gradientUnits="userSpaceOnUse" id="z" xlink:href="#f"/><radialGradient r="121.547" cy="792.996" cx="538.773" gradientTransform="matrix(.602 0 0 .689 -188.171 -522.437)" gradientUnits="userSpaceOnUse" id="y" xlink:href="#g"/><linearGradient y2="736.623" x2="497.815" y1="732.408" x1="497.815" gradientTransform="translate(-484 -674)" gradientUnits="userSpaceOnUse" id="x" xlink:href="#h"/><linearGradient y2="736.557" x2="579.729" y1="732.41" x1="579.729" gradientTransform="translate(-484 -674)" gradientUnits="userSpaceOnUse" id="w" xlink:href="#i"/><linearGradient y2="678.368" x2="538.773" y1="674" x1="538.773" gradientTransform="translate(-484 -674)" gradientUnits="userSpaceOnUse" id="v" xlink:href="#j"/><linearGradient y2="674" x2="538.773" y1="793" x1="538.773" gradientTransform="matrix(.602 0 0 .689 -188.171 -522.437)" gradientUnits="userSpaceOnUse" id="u" xlink:href="#k"/><linearGradient y2="96" x2="88" y1="104" x1="96" gradientUnits="userSpaceOnUse" id="h"><stop offset="0" stop-color="#888A85"/><stop offset=".007" stop-color="#8C8E89"/><stop offset=".067" stop-color="#ABACA9"/><stop offset=".135" stop-color="#C5C6C4"/><stop offset=".265" stop-color="#DBDBDA"/><stop offset=".376" stop-color="#EBEBEB"/><stop offset=".487" stop-color="#F7F7F6"/><stop offset=".632" stop-color="#FDFDFD"/><stop offset="1" stop-color="#fff"/></linearGradient><linearGradient gradientTransform="translate(-484 -674)" y2="677.06" x2="538.773" y1="675.485" x1="538.773" gradientUnits="userSpaceOnUse" id="d"><stop offset="0" stop-color="#fff"/><stop offset="1" stop-color="#00BF00"/></linearGradient><radialGradient gradientUnits="userSpaceOnUse" gradientTransform="translate(-484 -674)" r="126.023" cy="651.104" cx="538.773" id="e"><stop offset="0" stop-color="#CCEAAC"/><stop offset=".539" stop-color="#3BA42A"/><stop offset="1" stop-color="#91E851"/></radialGradient><linearGradient gradientTransform="translate(-484 -674)" y2="789.122" x2="538.773" y1="677.877" x1="538.773" gradientUnits="userSpaceOnUse" id="f"><stop offset=".006" stop-color="#1E7D27"/><stop offset=".135" stop-color="#3BA42A"/><stop offset=".483" stop-color="#B8E57F"/><stop offset=".63" stop-color="#A9E66E"/><stop offset=".853" stop-color="#97E859"/><stop offset="1" stop-color="#91E851"/></linearGradient><radialGradient gradientUnits="userSpaceOnUse" gradientTransform="translate(-484 -674)" r="121.547" cy="792.996" cx="538.773" id="g"><stop offset="0" stop-color="#FFFAB3"/><stop offset=".049" stop-color="#DFEE9F"/><stop offset=".105" stop-color="#C3E48D"/><stop offset=".161" stop-color="#AEDC80"/><stop offset=".216" stop-color="#A2D879"/><stop offset=".27" stop-color="#9ED676"/><stop offset=".399" stop-color="#3BA42A"/><stop offset=".4" stop-color="#3BA42A"/><stop offset=".448" stop-color="#258426"/><stop offset=".496" stop-color="#166D24"/><stop offset=".54" stop-color="#0C5F23"/><stop offset=".579" stop-color="#095A22"/><stop offset=".595" stop-color="#166727"/><stop offset=".646" stop-color="#388B33"/><stop offset=".693" stop-color="#51A53C"/><stop offset=".736" stop-color="#61B542"/><stop offset=".77" stop-color="#66BA44"/><stop offset="1" stop-color="#095A22"/></radialGradient><linearGradient gradientTransform="translate(-484 -674)" y2="678.368" x2="538.773" y1="674" x1="538.773" gradientUnits="userSpaceOnUse" id="j"><stop offset="0" stop-color="#094422"/><stop offset="1" stop-color="#9ED676"/></linearGradient><linearGradient gradientTransform="translate(-484 -674)" y2="736.557" x2="579.729" y1="732.41" x1="579.729" gradientUnits="userSpaceOnUse" id="i"><stop offset="0" stop-color="#094422"/><stop offset="1" stop-color="#9ED676"/></linearGradient><radialGradient r="61.056" fy="76.883" fx="61.056" cy="76.883" cx="61.056" gradientTransform="matrix(.393 0 0 .066 40 98.963)" gradientUnits="userSpaceOnUse" id="t" xlink:href="#l"/><linearGradient id="l"><stop offset="0"/><stop offset="1" stop-opacity="0"/></linearGradient></defs><path d="M117.983 19c.009-1.65-1.333-3-2.983-3h-70.039l-6.586-6.586c-.778-.778-2.314-1.414-3.414-1.414h-20.961c-2.2 0-4 1.8-4 4v7s1 85-3 85h114c-4 0-3.017-85-3.017-85z" fill="url(#m)"/><path d="M124.203 104c0 2.2-3.612 4-8.027 4h-104.347c-4.415 0-8.027-1.8-8.027-4s3.612-4 8.027-4h104.347c4.415 0 8.027 1.8 8.027 4z" opacity=".6" filter="url(#n)"/><path d="M124.366 101.004c-.086 1.648-1.512 2.996-3.168 2.996h-114.385c-1.656 0-3.081-1.348-3.169-2.996l-3.636-70.012c-.12-1.645 1.136-2.992 2.791-2.992h122.412c1.656 0 2.906 1.346 2.779 2.991l-3.625 70.013z" opacity=".9" fill="url(#o)"/><path d="M10.58 28c-.029-4.391-.064-7.608-.08-9v-7c0-1.93 1.57-3.5 3.501-3.5h20.964c.972 0 2.374.581 3.061 1.268l6.733 6.732h70.257c.664 0 1.288.26 1.759.733.471.473.729 1.1.725 1.764l.109-.109c-.122.607-.135 2.174-.163 6.273l-.01 2.839h.492c.031-5.532.071-9 .071-9 .009-1.65-1.333-3-2.983-3h-70.05l-6.587-6.586c-.778-.778-2.314-1.414-3.415-1.414h-20.964c-2.2 0-4.001 1.8-4.001 4v7s.041 3.468.073 9h.507z" fill="#5293ee"/><path d="M9.885 22c.009 1.75.018 3.755.026 6h108.184l.026-6h-108.236z" fill="url(#k)" opacity=".5"/><path d="M2.813 28.5c-.659 0-1.285.255-1.719.719-.432.465-.641 1.094-.594 1.75l.063 1.313c.085-.395.253-.763.531-1.063.433-.464 1.06-.719 1.719-.719h122.406c.659 0 1.257.256 1.688.719.277.298.448.664.531 1.063l.063-1.313c.051-.668-.163-1.287-.594-1.75-.43-.463-1.028-.719-1.688-.719h-122.406z" clip-path="url(#p)" fill="url(#q)" filter="url(#r)"/><path d="M125.213 28h-122.413c-1.656 0-2.912 1.347-2.791 2.992l3.637 70.012c.086 1.648 1.512 2.996 3.168 2.996h114.386c1.656 0 3.081-1.348 3.168-2.996l3.624-70.013c.127-1.645-1.123-2.991-2.778-2.991zm-1.347 72.978c-.073 1.391-1.27 2.522-2.667 2.522h-114.386c-1.398 0-2.594-1.132-2.667-2.521 0 0-3.637-70.012-3.637-70.022-.047-.656.165-1.272.597-1.737.433-.464 1.034-.719 1.694-.719h122.413c.659 0 1.26.255 1.691.718.43.463.639 1.079.588 1.747l-3.625 70.012z" fill="url(#s)"/><path d="M88 120c0 2.209-10.745 4-24 4s-24-1.791-24-4 10.745-4 24-4 24 1.791 24 4z" opacity=".3" fill="url(#t)"/><path d="M49.981 39.977c-1.288 0-2.336 1.17-2.336 2.608v36.673h-14.309c-.939 0-1.783.623-2.15 1.588l-.187 1.02c0 .679.232 1.322.654 1.809l30.663 35.534c.437.507 1.051.799 1.683.799.632 0 1.245-.292 1.683-.799l30.663-35.534c.651-.755.835-1.864.468-2.829-.369-.966-1.212-1.587-2.15-1.587h-14.309v-36.673c-.001-1.439-1.048-2.609-2.336-2.609h-28.036z" fill="url(#u)"/><g transform="matrix(.602 0 0 .672 31 39.977)"><linearGradient gradientUnits="userSpaceOnUse" x1="538.773" y1="674" x2="538.773" y2="678.368" gradientTransform="translate(-484 -674)"><stop offset="0" stop-color="#094422"/><stop offset="1" stop-color="#9ED676"/></linearGradient><path d="M31.506.486h46.534c2.14 0 3.878 1.739 3.878 3.877v-.485c-.001-2.138-1.74-3.878-3.878-3.878h-46.534c-2.138 0-3.877 1.74-3.877 3.878v.485c0-2.138 1.739-3.877 3.877-3.877z" fill="url(#v)"/><linearGradient gradientUnits="userSpaceOnUse" x1="579.729" y1="732.41" x2="579.729" y2="736.557" gradientTransform="translate(-484 -674)"><stop offset="0" stop-color="#094422"/><stop offset="1" stop-color="#9ED676"/></linearGradient><path d="M81.917 58.894h23.751c1.559 0 2.957.926 3.568 2.361.179.42.27.856.295 1.296.041-.597-.051-1.207-.295-1.781-.611-1.435-2.012-2.359-3.568-2.359h-23.751v.483z" fill="url(#w)"/><linearGradient gradientUnits="userSpaceOnUse" x1="497.815" y1="732.408" x2="497.815" y2="736.623" gradientTransform="translate(-484 -674)"><stop offset="0" stop-color="#094422"/><stop offset="1" stop-color="#9ED676"/></linearGradient><path d="M.309 61.256c.609-1.435 2.01-2.362 3.568-2.362h23.751v-.486h-23.751c-1.559 0-2.959.927-3.568 2.361l-.309 1.517.032.33.277-1.36z" fill="url(#x)"/></g><path enable-background="new" d="M80.352 81.622h14.309c.939 0 1.782.623 2.15 1.588l.054.173c.189-.603.18-1.272-.054-1.884-.368-.965-1.212-1.588-2.15-1.588h-14.309v1.711zm-49.166 1.588c.367-.966 1.211-1.589 2.15-1.589h14.309v-1.711h-14.309c-.939 0-1.783.623-2.15 1.589l-.186 1.02c0 .313.054.613.148.899l.038-.208z" opacity=".5" fill="#fff"/><path d="M94.662 79.911h-14.894c-.323 0-.585-.292-.585-.652v1.711h15.477c.515 0 .995-.48 1.425-.21-.321-.518-.842-.849-1.423-.849zm-46.433 0h-14.894c-.581 0-1.102.33-1.425.849.429-.269.91.21 1.425.21h15.478v-1.711c.001.36-.261.652-.584.652z" fill="#fff"/><path d="M49.981 41.281c-.645 0-1.168.584-1.168 1.304v37.978h-15.478c-.468 0-.892.313-1.075.794-.063.164-.093.338-.093.511 0 .33.113.658.327.905l30.663 35.534c.221.256.524.401.841.401.317 0 .621-.145.841-.401l30.664-35.534c.325-.378.415-.935.234-1.415-.184-.481-.607-.794-1.075-.794h-15.477v-37.979c0-.72-.524-1.304-1.168-1.304l-28.036-.001z" fill="url(#y)"/><path d="M77.235 81.867v-39.282h-26.473v39.282h-17.427l30.664 35.534 30.663-35.534h-17.426z" fill="url(#z)"/><path d="M53.904 45.729v37.964c0 1.898-1.189 3.436-2.657 3.436h-8.895c5.682 7.629 18.881 25.349 21.647 29.062 2.766-3.713 15.966-21.434 21.647-29.062h-8.895c-1.468 0-2.657-1.538-2.657-3.436v-37.964h-20.191z" fill="url(#A)"/><path d="M49.981 40.976c-.602 0-1.109.362-1.424.881.428-.274.896.178 1.424.178h28.036c.528 0 .996-.453 1.424-.178-.316-.519-.822-.881-1.424-.881h-28.036z" fill="url(#B)"/><path d="M64.84 117.69c-.22.233-.525.363-.842.363-.317 0-.621-.13-.842-.363l-5.753-6.051 5.753 6.667c.221.256.524.4.841.4.317 0 .621-.145.841-.4l5.752-6.666-5.751 6.049z" fill="#fff"/></svg>