<?xml version="1.0" encoding="UTF-8" standalone="no"?>
<!-- Created with Inkscape (http://www.inkscape.org/) -->
<svg
   xmlns:dc="http://purl.org/dc/elements/1.1/"
   xmlns:cc="http://web.resource.org/cc/"
   xmlns:rdf="http://www.w3.org/1999/02/22-rdf-syntax-ns#"
   xmlns:svg="http://www.w3.org/2000/svg"
   xmlns="http://www.w3.org/2000/svg"
   xmlns:xlink="http://www.w3.org/1999/xlink"
   xmlns:sodipodi="http://sodipodi.sourceforge.net/DTD/sodipodi-0.dtd"
   xmlns:inkscape="http://www.inkscape.org/namespaces/inkscape"
   width="128"
   height="128"
   id="svg2606"
   sodipodi:version="0.32"
   inkscape:version="0.45+devel"
   version="1.0"
   sodipodi:docname="enc.svg"
   inkscape:output_extension="org.inkscape.output.svg.inkscape"
   sodipodi:docbase="/home/david/Progetti/sandbox/svg/mimetypes">
  <defs
     id="defs2608">
    <radialGradient
       id="XMLID_136_"
       cx="85"
       cy="103.3047"
       r="139.5586"
       gradientUnits="userSpaceOnUse"
       gradientTransform="translate(-72,-12)">
      <stop
         offset="0"
         style="stop-color:#535557"
         id="stop8845" />
      <stop
         offset="0.0305"
         style="stop-color:#6E7072"
         id="stop8847" />
      <stop
         offset="0.0842"
         style="stop-color:#98999B"
         id="stop10" />
      <stop
         offset="0.1364"
         style="stop-color:#B9BABC"
         id="stop12" />
      <stop
         offset="0.1863"
         style="stop-color:#D1D1D3"
         id="stop14" />
      <stop
         offset="0.2326"
         style="stop-color:#DFDFE1"
         id="stop16" />
      <stop
         offset="0.2722"
         style="stop-color:#E4E4E6"
         id="stop18" />
      <stop
         offset="0.4766"
         style="stop-color:#DFDFE1"
         id="stop20" />
      <stop
         offset="0.7245"
         style="stop-color:#D0D0D3"
         id="stop22" />
      <stop
         offset="0.9939"
         style="stop-color:#B8B8BC"
         id="stop24" />
      <stop
         offset="1"
         style="stop-color:#B7B7BB"
         id="stop26" />
    </radialGradient>
    <linearGradient
       id="XMLID_138_"
       gradientUnits="userSpaceOnUse"
       x1="7.8394"
       y1="8.5845"
       x2="7.8394"
       y2="7.5845"
       gradientTransform="matrix(0.9135 0.4067 -0.4067 0.9135 3.6272 -3.0738)">
      <stop
         offset="0"
         style="stop-color:#888A85"
         id="stop38" />
      <stop
         offset="0.2226"
         style="stop-color:#7A7C78"
         id="stop8774" />
      <stop
         offset="0.6436"
         style="stop-color:#565654"
         id="stop8776" />
      <stop
         offset="1"
         style="stop-color:#323232"
         id="stop44" />
    </linearGradient>
    <linearGradient
       id="XMLID_137_"
       gradientUnits="userSpaceOnUse"
       x1="7.4639"
       y1="3.5024"
       x2="7.4639"
       y2="11.5005"
       gradientTransform="matrix(0.9695 0.2451 -0.2451 0.9695 2.1015 -1.6022)">
      <stop
         offset="0"
         style="stop-color:#ffffff;stop-opacity:1;"
         id="stop8767" />
      <stop
         offset="1"
         style="stop-color:#888888"
         id="stop8769" />
    </linearGradient>
    <filter
       inkscape:collect="always"
       id="filter5206">
      <feGaussianBlur
         inkscape:collect="always"
         stdDeviation="0.1785"
         id="feGaussianBlur5208" />
    </filter>
    <linearGradient
       id="linearGradient3308">
      <stop
         id="stop3310"
         offset="0"
         style="stop-color:#ffffff;stop-opacity:1;" />
      <stop
         id="stop3312"
         offset="1"
         style="stop-color:#ffffff;stop-opacity:0;" />
    </linearGradient>
    <radialGradient
       id="XMLID_28_"
       cx="34"
       cy="42"
       r="31.9999981"
       gradientTransform="matrix(0.375,0,0,1,-22.749756,-40)"
       gradientUnits="userSpaceOnUse">
	<stop
   offset="0"
   style="stop-color:#5f5f5f;stop-opacity:1;"
   id="stop120" />
<stop
   id="stop8913"
   style="stop-color:#252525;stop-opacity:1;"
   offset="0.65440118" />

	
	
	
	
	<stop
   offset="1"
   style="stop-color:#3b3b3b;stop-opacity:1;"
   id="stop130" />

</radialGradient>
    <radialGradient
       id="XMLID_27_"
       cx="33.5"
       cy="77.8330078"
       r="75.6664734"
       gradientUnits="userSpaceOnUse"
       gradientTransform="translate(-44,-40)">
	<stop
   offset="0.0769231"
   style="stop-color:#BABDB6"
   id="stop69" />

	<stop
   offset="0.0885483"
   style="stop-color:#B2B5AF"
   id="stop71" />

	<stop
   offset="0.1063536"
   style="stop-color:#9DA19B"
   id="stop73" />

	<stop
   offset="0.1281113"
   style="stop-color:#7A7E7C"
   id="stop75" />

	<stop
   offset="0.1527692"
   style="stop-color:#4A4F50"
   id="stop77" />

	<stop
   offset="0.16568"
   style="stop-color:#2E3436"
   id="stop79" />

	<stop
   offset="0.1751907"
   style="stop-color:#363B3D"
   id="stop81" />

	<stop
   offset="0.1897503"
   style="stop-color:#4B5050"
   id="stop3163" />

	<stop
   offset="0.2074451"
   style="stop-color:#6E716E"
   id="stop3165" />

	<stop
   offset="0.218935"
   style="stop-color:#888A85"
   id="stop3167" />

	<stop
   offset="0.2873079"
   style="stop-color:#90928C"
   id="stop3169" />

	<stop
   offset="0.3919704"
   style="stop-color:#A4A7A1"
   id="stop3171" />

	<stop
   offset="0.5192466"
   style="stop-color:#C6CAC2"
   id="stop3173" />

	<stop
   offset="0.56213"
   style="stop-color:#D3D7CF"
   id="stop3175" />

	<stop
   offset="0.5753183"
   style="stop-color:#EAECE8"
   id="stop3177" />

	<stop
   offset="0.5881113"
   style="stop-color:#F9FAF9"
   id="stop3179" />

	<stop
   offset="0.597633"
   style="stop-color:#FFFFFF"
   id="stop101" />

	<stop
   offset="0.6108213"
   style="stop-color:#E8EAE6"
   id="stop103" />

	<stop
   offset="0.6236143"
   style="stop-color:#D9DCD5"
   id="stop105" />

	<stop
   offset="0.633136"
   style="stop-color:#D3D7CF"
   id="stop107" />

	<stop
   offset="0.7174556"
   style="stop-color:#BABDB6"
   id="stop109" />

	<stop
   offset="0.829141"
   style="stop-color:#9EA19B"
   id="stop111" />

	<stop
   offset="0.9270965"
   style="stop-color:#8E908B"
   id="stop113" />

	<stop
   offset="1"
   style="stop-color:#888A85"
   id="stop115" />

</radialGradient>
    <linearGradient
       id="XMLID_26_"
       gradientUnits="userSpaceOnUse"
       x1="34.0004883"
       y1="78"
       x2="34.0004845"
       y2="6.0004883"
       gradientTransform="translate(-44,-40)">
	
	
	<stop
   offset="0"
   style="stop-color:#f0f1f2;stop-opacity:1;"
   id="stop60" />

	
	<stop
   offset="1"
   style="stop-color:#FFFFFF"
   id="stop64" />

</linearGradient>
    <linearGradient
       id="XMLID_25_"
       gradientUnits="userSpaceOnUse"
       x1="34.0004883"
       y1="82"
       x2="34.0004845"
       y2="2.0004883"
       gradientTransform="translate(-44,-40)">
	<stop
   offset="0"
   style="stop-color:#888A85"
   id="stop3143" />

	<stop
   offset="0.798817"
   style="stop-color:#C9CCC4"
   id="stop3145" />

	<stop
   offset="1"
   style="stop-color:#BABDB6"
   id="stop3147" />

</linearGradient>
    <linearGradient
       id="linearGradient2854">
      <stop
         style="stop-color:#ffffff;stop-opacity:1;"
         offset="0"
         id="stop2856" />
      <stop
         style="stop-color:#ffffff;stop-opacity:0;"
         offset="1"
         id="stop2858" />
    </linearGradient>
    <linearGradient
       inkscape:collect="always"
       xlink:href="#linearGradient2854"
       id="linearGradient2860"
       x1="43.176472"
       y1="2"
       x2="43.176472"
       y2="52.048233"
       gradientUnits="userSpaceOnUse" />
    <linearGradient
       id="XMLID_23_"
       gradientUnits="userSpaceOnUse"
       x1="2"
       y1="42"
       x2="66"
       y2="42"
       gradientTransform="translate(-44,-40)">
	<stop
   offset="0"
   style="stop-color:#BABDB6"
   id="stop13" />

	<stop
   offset="0.0085438"
   style="stop-color:#BCBFB8"
   id="stop15" />

	<stop
   offset="0.113617"
   style="stop-color:#D2D4D0"
   id="stop17" />

	<stop
   offset="0.2254619"
   style="stop-color:#E2E2E1"
   id="stop19" />

	<stop
   offset="0.347729"
   style="stop-color:#EBEBEB"
   id="stop21" />

	<stop
   offset="0.5"
   style="stop-color:#EEEEEE"
   id="stop23" />

	<stop
   offset="0.652271"
   style="stop-color:#EBEBEB"
   id="stop25" />

	<stop
   offset="0.774538"
   style="stop-color:#E2E2E1"
   id="stop27" />

	<stop
   offset="0.8863831"
   style="stop-color:#D2D4D0"
   id="stop29" />

	<stop
   offset="0.9914562"
   style="stop-color:#BCBFB8"
   id="stop31" />

	<stop
   offset="1"
   style="stop-color:#BABDB6"
   id="stop33" />

</linearGradient>
    <linearGradient
       id="XMLID_22_"
       gradientUnits="userSpaceOnUse"
       x1="34.0004883"
       y1="81.5292969"
       x2="34.0004845"
       y2="2.4709702"
       gradientTransform="translate(-44,-40)">
	<stop
   offset="0"
   style="stop-color:#888A85"
   id="stop4" />

	<stop
   offset="0.508876"
   style="stop-color:#888A85"
   id="stop6" />

	<stop
   offset="1"
   style="stop-color:#2E3436"
   id="stop8" />

</linearGradient>
    <linearGradient
       id="linearGradient10207">
      <stop
         style="stop-color:#a2a2a2;stop-opacity:1;"
         offset="0"
         id="stop10209" />
      <stop
         style="stop-color:#ffffff;stop-opacity:1;"
         offset="1"
         id="stop10211" />
    </linearGradient>
    <linearGradient
       id="XMLID_12_"
       gradientUnits="userSpaceOnUse"
       x1="96"
       y1="104"
       x2="88.000198"
       y2="96.000198">
      <stop
         offset="0"
         style="stop-color:#888A85"
         id="stop83" />
      <stop
         offset="0.0072"
         style="stop-color:#8C8E89"
         id="stop85" />
      <stop
         offset="0.0673"
         style="stop-color:#ABACA9"
         id="stop87" />
      <stop
         offset="0.1347"
         style="stop-color:#C5C6C4"
         id="stop89" />
      <stop
         offset="0.2652576"
         style="stop-color:#DBDBDA"
         id="stop91" />
      <stop
         offset="0.37646064"
         style="stop-color:#EBEBEB"
         id="stop93" />
      <stop
         offset="0.48740286"
         style="stop-color:#F7F7F6"
         id="stop95" />
      <stop
         offset="0.6324091"
         style="stop-color:#FDFDFD"
         id="stop97" />
      <stop
         offset="1"
         style="stop-color:#FFFFFF"
         id="stop99" />
    </linearGradient>
    <radialGradient
       id="XMLID_8_"
       cx="102"
       cy="112.3047"
       r="139.55859"
       gradientUnits="userSpaceOnUse">
      <stop
         offset="0"
         style="stop-color:#b7b8b9;stop-opacity:1;"
         id="stop41" />
      <stop
         offset="0.18851049"
         style="stop-color:#ECECEC"
         id="stop47" />
      <stop
         offset="0.25718147"
         style="stop-color:#FAFAFA"
         id="stop49" />
      <stop
         offset="0.30111277"
         style="stop-color:#FFFFFF"
         id="stop51" />
      <stop
         offset="0.5313"
         style="stop-color:#FAFAFA"
         id="stop53" />
      <stop
         offset="0.8449"
         style="stop-color:#EBECEC"
         id="stop55" />
      <stop
         offset="1"
         style="stop-color:#E1E2E3"
         id="stop57" />
    </radialGradient>
    <filter
       inkscape:collect="always"
       x="-0.19200002"
       width="1.3839999"
       y="-0.19199999"
       height="1.3839999"
       id="filter6697">
      <feGaussianBlur
         inkscape:collect="always"
         stdDeviation="1.9447689"
         id="feGaussianBlur6699" />
    </filter>
    <clipPath
       clipPathUnits="userSpaceOnUse"
       id="clipPath7084">
      <path
         style="fill:#000000;fill-opacity:1;fill-rule:evenodd;stroke:none;stroke-width:1px;stroke-linecap:butt;stroke-linejoin:miter;stroke-opacity:1"
         d="M 72,88 L 40,120 L 32,120 L 32,80 L 72,80 L 72,88 z"
         id="path7086" />
    </clipPath>
    <radialGradient
       inkscape:collect="always"
       xlink:href="#XMLID_136_"
       id="radialGradient9437"
       gradientUnits="userSpaceOnUse"
       gradientTransform="matrix(1,0,0,0.9996653,2e-6,3.0160848e-3)"
       cx="102"
       cy="112.3047"
       r="139.55859" />
    <filter
       inkscape:collect="always"
       id="filter2770">
      <feGaussianBlur
         inkscape:collect="always"
         stdDeviation="2.0786429"
         id="feGaussianBlur2772" />
    </filter>
    <linearGradient
       inkscape:collect="always"
       xlink:href="#linearGradient2854"
       id="linearGradient3234"
       gradientUnits="userSpaceOnUse"
       x1="43.176472"
       y1="2"
       x2="43.176472"
       y2="52.048233" />
    <linearGradient
       inkscape:collect="always"
       xlink:href="#linearGradient2854"
       id="linearGradient3292"
       gradientUnits="userSpaceOnUse"
       x1="43.176472"
       y1="2"
       x2="43.176472"
       y2="52.048233" />
    <linearGradient
       inkscape:collect="always"
       xlink:href="#linearGradient10207"
       id="linearGradient3306"
       gradientUnits="userSpaceOnUse"
       gradientTransform="translate(10,0)"
       x1="98.617439"
       y1="106.41443"
       x2="91.228737"
       y2="99.254974" />
    <filter
       inkscape:collect="always"
       id="filter3328">
      <feGaussianBlur
         inkscape:collect="always"
         stdDeviation="0.52119256"
         id="feGaussianBlur3330" />
    </filter>
    <linearGradient
       inkscape:collect="always"
       xlink:href="#linearGradient2854"
       id="linearGradient8859"
       gradientUnits="userSpaceOnUse"
       x1="43.176472"
       y1="2"
       x2="43.176472"
       y2="52.048233" />
    <linearGradient
       inkscape:collect="always"
       xlink:href="#XMLID_137_"
       id="linearGradient8867"
       gradientUnits="userSpaceOnUse"
       gradientTransform="matrix(0.9695,0.2451,-0.2451,0.9695,2.1015,-1.6022)"
       x1="7.4639"
       y1="3.5024"
       x2="7.4639"
       y2="11.5005" />
    <linearGradient
       inkscape:collect="always"
       xlink:href="#XMLID_138_"
       id="linearGradient8869"
       gradientUnits="userSpaceOnUse"
       gradientTransform="matrix(0.9135,0.4067,-0.4067,0.9135,3.6272,-3.0738)"
       x1="7.8394"
       y1="8.5845"
       x2="7.8394"
       y2="7.5845" />
    <linearGradient
       inkscape:collect="always"
       xlink:href="#XMLID_137_"
       id="linearGradient8871"
       gradientUnits="userSpaceOnUse"
       gradientTransform="matrix(0.9695,0.2451,-0.2451,0.9695,2.1015,-1.6022)"
       x1="7.4639"
       y1="3.5024"
       x2="7.4639"
       y2="11.5005" />
    <linearGradient
       inkscape:collect="always"
       xlink:href="#XMLID_138_"
       id="linearGradient8873"
       gradientUnits="userSpaceOnUse"
       gradientTransform="matrix(0.8653713,-0.5010186,0.5010186,0.8653713,-3.3342251,4.4313796)"
       x1="7.8394"
       y1="8.5845"
       x2="7.8394"
       y2="7.5845" />
    <linearGradient
       inkscape:collect="always"
       xlink:href="#XMLID_137_"
       id="linearGradient8875"
       gradientUnits="userSpaceOnUse"
       gradientTransform="matrix(0.9695,0.2451,-0.2451,0.9695,2.1015,-1.6022)"
       x1="7.4639"
       y1="3.5024"
       x2="7.4639"
       y2="11.5005" />
    <linearGradient
       inkscape:collect="always"
       xlink:href="#XMLID_138_"
       id="linearGradient8877"
       gradientUnits="userSpaceOnUse"
       gradientTransform="matrix(0.1088575,0.9940006,-0.9940006,0.1088575,14.683415,-1.1725681)"
       x1="7.8394"
       y1="8.5845"
       x2="7.8394"
       y2="7.5845" />
    <radialGradient
       inkscape:collect="always"
       xlink:href="#XMLID_28_"
       id="radialGradient8900"
       gradientUnits="userSpaceOnUse"
       gradientTransform="matrix(1.8374823,0,0,4.373016,82.374823,43.42419)"
       cx="-10"
       cy="8.8350029"
       fx="-10"
       fy="16.808435"
       r="12" />
    <radialGradient
       inkscape:collect="always"
       xlink:href="#XMLID_27_"
       id="radialGradient8903"
       gradientUnits="userSpaceOnUse"
       gradientTransform="matrix(1.0126051,0,0,0.9817928,29.571428,22.764705)"
       cx="33.5"
       cy="77.8330078"
       r="75.6664734" />
    <linearGradient
       inkscape:collect="always"
       xlink:href="#XMLID_26_"
       id="linearGradient8911"
       gradientUnits="userSpaceOnUse"
       gradientTransform="translate(-44,-40)"
       x1="50"
       y1="64.736839"
       x2="16.564587"
       y2="6" />
    <clipPath
       clipPathUnits="userSpaceOnUse"
       id="clipPath8917">
      <path
         style="fill:#0057ae;fill-opacity:1"
         id="path8919"
         d="M 22,22 C 22,26.597656 24.692871,30.84961 28.86084,32.831543 L 22.775879,69.342772 C 22.739746,69.561523 22.72168,69.78125 22.72168,70 C 22.72168,70.939453 23.053223,71.857422 23.669434,72.585938 C 24.429687,73.482422 25.545898,74 26.72168,74 L 41.27832,74 C 42.454102,74 43.570312,73.482422 44.330078,72.584961 C 44.947265,71.857422 45.27832,70.939453 45.27832,70 C 45.27832,69.78125 45.260742,69.561523 45.223632,69.341797 L 39.138672,32.831055 C 43.30664,30.850098 46,26.598633 46,22 C 46,15.383301 40.617187,10 34,10 C 27.383301,10 22,15.383301 22,22 z" />
    </clipPath>
    <filter
       inkscape:collect="always"
       id="filter9302">
      <feGaussianBlur
         inkscape:collect="always"
         stdDeviation="0.86570823"
         id="feGaussianBlur9304" />
    </filter>
  </defs>
  <sodipodi:namedview
     id="base"
     pagecolor="#ffffff"
     bordercolor="#666666"
     borderopacity="1.0"
     inkscape:pageopacity="0.0"
     inkscape:pageshadow="2"
     inkscape:zoom="4"
     inkscape:cx="64"
     inkscape:cy="70.798844"
     inkscape:document-units="px"
     inkscape:current-layer="layer1"
     width="128px"
     height="128px"
     gridspacingx="4px"
     gridspacingy="4px"
     gridempspacing="2"
     showgrid="true"
     inkscape:grid-points="true"
     showguides="true"
     inkscape:guide-bbox="true"
     inkscape:window-width="1016"
     inkscape:window-height="692"
     inkscape:window-x="511"
     inkscape:window-y="161" />
  <metadata
     id="metadata2611">
    <rdf:RDF>
      <cc:Work
         rdf:about="">
        <dc:format>image/svg+xml</dc:format>
        <dc:type
           rdf:resource="http://purl.org/dc/dcmitype/StillImage" />
      </cc:Work>
    </rdf:RDF>
  </metadata>
  <g
     inkscape:label="Livello 1"
     inkscape:groupmode="layer"
     id="layer1">
    <path
       style="opacity:0.5;fill:#000000;fill-opacity:1;filter:url(#filter2770)"
       d="M 16,8 L 16,120 C 16,120 79.15625,120 79.15625,120 L 79.1875,120 C 79.187503,120 91.09375,110.09375 96.59375,104.59375 C 102.09375,99.09375 112,87.1875 112,87.1875 L 112,87.15625 L 112,8 L 16,8 z"
       id="path7865"
       sodipodi:nodetypes="csccscccc"
       transform="matrix(1.0416667,0,0,1.0267857,-2.6666667,-1.2142891)" />
    <path
       style="fill:#ffffff;fill-opacity:1"
       d="M 16.000001,8 L 16,120 C 16,120 79.146418,120 79.146418,120 L 112,87.14642 L 112,8 L 16.000001,8 z"
       id="path34"
       sodipodi:nodetypes="cccccc" />
    <path
       style="fill:url(#radialGradient9437);fill-opacity:1"
       d="M 18.000002,9.0000034 C 17.449002,9.0000034 17.000002,9.4488534 17.000002,9.9996684 L 17.000002,117.96352 C 17.000002,118.51533 17.449002,118.96318 18.000002,118.96318 L 77.171999,118.96318 C 77.434999,118.96318 79.934679,119.08131 80.12068,118.89438 L 110.707,88.094202 C 110.894,87.907264 111,85.40942 111,85.146508 L 111,9.9996684 C 111,9.4488534 110.552,9.0000034 110,9.0000034 L 18.000002,9.0000034 z"
       id="path59"
       sodipodi:nodetypes="ccccccccccc" />
    <g
       id="g37"
       style="opacity:0.5;fill:url(#linearGradient8859);fill-opacity:1"
       transform="matrix(0.9411765,0,0,0.952381,31.999999,23.999999)">
	<linearGradient
   id="XMLID_24_"
   gradientUnits="userSpaceOnUse"
   x1="33.999512"
   y1="6.75"
   x2="33.999512"
   y2="50.250046">
		<stop
   offset="0"
   style="stop-color:#FFFFFF;fill-opacity:1;fill:url(#linearGradient2860)"
   id="stop40" />

		<stop
   offset="1"
   style="stop-color:#000000;fill-opacity:1;fill:url(#linearGradient2860)"
   id="stop42" />

	</linearGradient>

	<path
   d="M 2,2 L 2,40.86084 C 12.473633,36.993652 24.851562,34.75 38.125,34.75 C 48.060547,34.75 57.488281,36.013184 66,38.264648 L 66,2 L 2,2 z"
   id="path44"
   style="fill:#ffffff;fill-opacity:0" />

</g>
    <path
       d="M -26,-18 C -26,-12.924316 -23.51709,-8.1943359 -19.520996,-5.2075195 C -20.273437,-0.6943359 -25.169922,28.685547 -25.169922,28.685547 C -25.170898,28.69043 -25.27832,30 -25.27832,30 C -25.27832,31.889648 -24.605957,33.725586 -23.384766,35.168945 C -21.85791,36.969727 -19.633301,38 -17.27832,38 L -2.7216797,38 C -0.3652344,38 1.8603515,36.96875 3.3828125,35.169922 C 4.6044922,33.729492 5.2783203,31.892578 5.2783203,30 L 5.1679687,28.675781 C 5.1679687,28.675781 0.9023437,3.0810546 -0.4794922,-5.2075196 C 3.5166016,-8.1938477 6,-12.923828 6,-18 C 6,-26.822266 -1.1777344,-34 -10,-34 C -18.822266,-34 -26,-26.822266 -26,-18 z"
       id="path66"
       style="fill:url(#linearGradient8911);filter:url(#filter3328);opacity:0.80000000000000004"
       transform="matrix(1.0036765,0,0,0.9801588,74.036765,62.039683)" />
    <path
       d="M 49.823529,44.364146 C 49.823529,48.635519 51.972348,52.742462 55.571348,55.350829 C 56.088034,55.725233 56.384201,56.310569 56.384201,56.923711 C 56.384201,57.030615 56.375301,57.138957 56.356513,57.24682 C 56.356513,57.24682 50.677421,90.28501 50.650225,90.443209 C 50.641326,90.549633 50.576061,91.312824 50.558755,91.516085 C 50.565184,92.898649 51.070992,94.240944 51.99262,95.296563 C 53.150589,96.620641 54.841066,97.380955 56.629937,97.380955 L 71.370064,97.380955 C 73.159923,97.380955 74.849905,96.621599 76.005897,95.297522 C 76.928514,94.241903 77.434817,92.900566 77.44075,91.516085 C 77.42295,91.311864 77.358674,90.559221 77.347796,90.43362 C 77.321097,90.275421 71.642993,57.24682 71.642993,57.24682 C 71.624204,57.138957 71.615304,57.030615 71.615304,56.92371 C 71.615304,56.310569 71.911966,55.725233 72.428157,55.350829 C 76.027652,52.742942 78.176471,48.635519 78.176471,44.364146 C 78.176471,36.784974 71.817034,30.619047 64,30.619047 C 56.182965,30.619047 49.823529,36.784974 49.823529,44.364146 z"
       id="path117"
       style="opacity:0.5;fill:url(#radialGradient8903)" />
    <path
       d="M 52.705882,44.952381 C 52.705882,49.331101 55.240349,53.380581 59.163143,55.268137 L 53.436121,90.040738 C 53.402114,90.249072 53.38511,90.458336 53.38511,90.666669 C 53.38511,91.561386 53.697151,92.435642 54.277114,93.129467 C 54.992646,93.983262 56.043198,94.476193 57.149816,94.476193 L 70.850184,94.476193 C 71.956802,94.476193 73.007353,93.983262 73.722427,93.128537 C 74.303309,92.435642 74.61489,91.561386 74.61489,90.666669 C 74.61489,90.458336 74.598346,90.249072 74.563419,90.039809 L 68.836397,55.267672 C 72.759191,53.381046 75.294118,49.332032 75.294118,44.952381 C 75.294118,38.650763 70.227941,33.523809 64,33.523809 C 57.772518,33.523809 52.705882,38.650763 52.705882,44.952381 z"
       id="path132"
       style="fill:url(#radialGradient8900);fill-opacity:1" />
    <g
       id="g134"
       transform="matrix(0.9411765,0,0,0.952381,31.999999,23.999999)"
       style="opacity:1;filter:url(#filter9302)"
       clip-path="url(#clipPath8917)">
	<path
   d="M 24.72168,73 C 24.72168,72.78125 24.739746,72.561523 24.775879,72.342773 L 30.86084,35.831543 C 30.045898,35.443848 29.289062,34.967285 28.596191,34.42041 L 22.775879,69.342773 C 22.739746,69.561523 22.72168,69.78125 22.72168,70 C 22.72168,70.939453 23.053223,71.857422 23.669434,72.585938 C 23.978027,72.950195 24.355957,73.232422 24.762207,73.461914 C 24.744629,73.308594 24.72168,73.155273 24.72168,73 z"
   id="path136" />

	<path
   d="M 24,25 C 24,18.383301 29.383301,13 36,13 C 39.514648,13 42.670898,14.527832 44.867188,16.942871 C 42.954102,12.849609 38.808594,10 34,10 C 27.383301,10 22,15.383301 22,22 C 22,25.013184 23.162109,27.873535 25.132812,30.047852 C 24.40332,28.489258 24,26.771484 24,25 z"
   id="path138" />

</g>
    <g
       transform="translate(16.749,8.2500001)"
       id="g5214">
      <circle
         cx="86"
         cy="7.5"
         r="4"
         id="circle5210"
         style="opacity:0.7;fill:none;stroke:#000000;stroke-width:0.5;stroke-miterlimit:4;stroke-dasharray:none;stroke-opacity:1;filter:url(#filter5206)"
         sodipodi:cx="86"
         sodipodi:cy="7.5"
         sodipodi:rx="4"
         sodipodi:ry="4"
         transform="translate(-78.499,0)" />
      <circle
         sodipodi:ry="3.9990001"
         sodipodi:rx="3.9990001"
         sodipodi:cy="7.5"
         sodipodi:cx="7.5"
         style="fill:url(#linearGradient8867)"
         cx="7.5"
         cy="7.5"
         r="3.9990001"
         id="circle35" />
      <path
         style="fill:url(#linearGradient8869)"
         d="M 4.61,5.666 C 4.479,5.783 4.372,5.918 4.303,6.077 C 4.232,6.235 4.203,6.404 4.205,6.58 L 10.39,9.334 C 10.521,9.217 10.628,9.082 10.698,8.923 C 10.769,8.765 10.798,8.596 10.796,8.42 L 4.61,5.666 z"
         id="path46" />
    </g>
    <g
       transform="translate(95.248002,8.2500001)"
       id="g5219">
      <circle
         transform="translate(-78.499,0)"
         sodipodi:ry="4"
         sodipodi:rx="4"
         sodipodi:cy="7.5"
         sodipodi:cx="86"
         style="opacity:0.7;fill:none;stroke:#000000;stroke-width:0.5;stroke-miterlimit:4;stroke-dasharray:none;stroke-opacity:1;filter:url(#filter5206)"
         id="circle5221"
         r="4"
         cy="7.5"
         cx="86" />
      <circle
         sodipodi:ry="3.9990001"
         sodipodi:rx="3.9990001"
         sodipodi:cy="7.5"
         sodipodi:cx="7.5"
         style="fill:url(#linearGradient8871)"
         id="circle5223"
         r="3.9990001"
         cy="7.5"
         cx="7.5" />
      <path
         style="fill:url(#linearGradient8873)"
         id="path5225"
         d="M 4.3192772,8.7642657 C 4.337141,8.9389966 4.3836634,9.104857 4.4719182,9.2540317 C 4.5581895,9.4042391 4.6780142,9.5268933 4.8216983,9.6285539 L 10.681136,6.236544 C 10.663272,6.0618131 10.61675,5.8959527 10.529082,5.7459683 C 10.44281,5.5957609 10.322986,5.4731067 10.179302,5.3714461 L 4.3192772,8.7642657 z" />
    </g>
    <g
       transform="translate(16.749,104.25)"
       id="g5231">
      <circle
         transform="translate(-78.499,0)"
         sodipodi:ry="4"
         sodipodi:rx="4"
         sodipodi:cy="7.5"
         sodipodi:cx="86"
         style="opacity:0.7;fill:none;stroke:#000000;stroke-width:0.5;stroke-miterlimit:4;stroke-dasharray:none;stroke-opacity:1;filter:url(#filter5206)"
         id="circle5233"
         r="4"
         cy="7.5"
         cx="86" />
      <circle
         sodipodi:ry="3.9990001"
         sodipodi:rx="3.9990001"
         sodipodi:cy="7.5"
         sodipodi:cx="7.5"
         style="fill:url(#linearGradient8875)"
         id="circle5235"
         r="3.9990001"
         cy="7.5"
         cx="7.5" />
      <path
         style="fill:url(#linearGradient8877)"
         id="path5237"
         d="M 7.6286781,4.0791643 C 7.461616,4.0249404 7.2910948,4.0005164 7.1189842,4.0210086 C 6.9467299,4.0392695 6.7861312,4.0993531 6.635102,4.1897422 L 7.3718181,10.919972 C 7.5388802,10.974196 7.7094014,10.99862 7.8820158,10.978991 C 8.0542701,10.960731 8.2148688,10.900647 8.365898,10.810258 L 7.6286781,4.0791643 z" />
    </g>
    <g
       id="g3302"
       transform="translate(-10,0)">
      <path
         transform="translate(50,0)"
         clip-path="url(#clipPath7084)"
         sodipodi:nodetypes="cccc"
         style="opacity:0.4;fill:#000000;fill-opacity:1;filter:url(#filter6697)"
         id="path5540"
         d="M 41.879531,115.98249 C 41.879531,115.98249 66.18914,91.672876 66.18914,91.672876 C 66.18914,91.672876 56.836,94.586 46.586,94.586 C 46.586,104.836 41.879531,115.98249 41.879531,115.98249 z" />
      <path
         sodipodi:nodetypes="csccc"
         d="M 89.172,120 C 89.172,120 101.086,110.086 106.586,104.586 C 112.086,99.086 122,87.172 122,87.172 C 122,87.172 108.25,96 98,96 C 98,106.25 89.172,120 89.172,120 z"
         id="path14523"
         style="fill:url(#linearGradient3306);fill-opacity:1" />
    </g>
  </g>
</svg>
