<?xml version="1.0" encoding="UTF-8" standalone="no"?>
<!-- Created with Inkscape (http://www.inkscape.org/) -->

<svg
   xmlns:dc="http://purl.org/dc/elements/1.1/"
   xmlns:cc="http://creativecommons.org/ns#"
   xmlns:rdf="http://www.w3.org/1999/02/22-rdf-syntax-ns#"
   xmlns:svg="http://www.w3.org/2000/svg"
   xmlns="http://www.w3.org/2000/svg"
   xmlns:xlink="http://www.w3.org/1999/xlink"
   xmlns:sodipodi="http://sodipodi.sourceforge.net/DTD/sodipodi-0.dtd"
   xmlns:inkscape="http://www.inkscape.org/namespaces/inkscape"
   width="128"
   height="128"
   viewBox="0 0 128 128"
   id="svg2"
   version="1.1"
   inkscape:version="0.91 r13725"
   sodipodi:docname="auto-reload.svg">
  <defs
     id="defs4">
    <linearGradient
       inkscape:collect="always"
       id="linearGradient4139">
      <stop
         style="stop-color:#2ca2c5;stop-opacity:1"
         offset="0"
         id="stop4141" />
      <stop
         id="stop4149"
         offset="0.47367358"
         style="stop-color:#2ca2c5;stop-opacity:1" />
      <stop
         style="stop-color:#95c43c;stop-opacity:1;"
         offset="0.54837781"
         id="stop4153" />
      <stop
         style="stop-color:#95c43c;stop-opacity:1"
         offset="1"
         id="stop4143" />
    </linearGradient>
    <linearGradient
       inkscape:collect="always"
       xlink:href="#linearGradient4139"
       id="linearGradient4145"
       x1="64.548607"
       y1="1049.7036"
       x2="63.539776"
       y2="926.75543"
       gradientUnits="userSpaceOnUse" />
  </defs>
  <sodipodi:namedview
     id="base"
     pagecolor="#ffffff"
     bordercolor="#666666"
     borderopacity="1.0"
     inkscape:pageopacity="0.0"
     inkscape:pageshadow="2"
     inkscape:zoom="11.313708"
     inkscape:cx="50.287658"
     inkscape:cy="62.887936"
     inkscape:document-units="px"
     inkscape:current-layer="layer1"
     showgrid="false"
     units="px"
     inkscape:window-width="3840"
     inkscape:window-height="2128"
     inkscape:window-x="0"
     inkscape:window-y="32"
     inkscape:window-maximized="0" />
  <metadata
     id="metadata7">
    <rdf:RDF>
      <cc:Work
         rdf:about="">
        <dc:format>image/svg+xml</dc:format>
        <dc:type
           rdf:resource="http://purl.org/dc/dcmitype/StillImage" />
        <dc:title></dc:title>
        <dc:creator>
          <cc:Agent>
            <dc:title>Kovid Goyal</dc:title>
          </cc:Agent>
        </dc:creator>
        <dc:rights>
          <cc:Agent>
            <dc:title></dc:title>
          </cc:Agent>
        </dc:rights>
        <dc:publisher>
          <cc:Agent>
            <dc:title></dc:title>
          </cc:Agent>
        </dc:publisher>
        <cc:license
           rdf:resource="http://creativecommons.org/licenses/by-sa/3.0/" />
      </cc:Work>
      <cc:License
         rdf:about="http://creativecommons.org/licenses/by-sa/3.0/">
        <cc:permits
           rdf:resource="http://creativecommons.org/ns#Reproduction" />
        <cc:permits
           rdf:resource="http://creativecommons.org/ns#Distribution" />
        <cc:requires
           rdf:resource="http://creativecommons.org/ns#Notice" />
        <cc:requires
           rdf:resource="http://creativecommons.org/ns#Attribution" />
        <cc:permits
           rdf:resource="http://creativecommons.org/ns#DerivativeWorks" />
        <cc:requires
           rdf:resource="http://creativecommons.org/ns#ShareAlike" />
      </cc:License>
    </rdf:RDF>
  </metadata>
  <g
     inkscape:label="Layer 1"
     inkscape:groupmode="layer"
     id="layer1"
     transform="translate(0,-924.36216)">
    <path
       inkscape:connector-curvature="0"
       d="m 123.49806,1001.1746 q 0,0.4004 -0.0801,0.5606 -5.125,21.4609 -21.46094,34.7939 -16.33594,13.333 -38.27734,13.333 -11.69141,0 -22.62207,-4.4043 -10.93067,-4.4043 -19.49903,-12.5722 l -10.33007,10.3301 q -1.52149,1.5214 -3.60352,1.5214 -2.08203,0 -3.60352,-1.5214 -1.52148,-1.5215 -1.52148,-3.6036 l 0,-35.875 q 0,-2.082 1.52148,-3.6034 1.52149,-1.52151 3.60352,-1.52151 l 35.875,0 q 2.08203,0 3.60352,1.52151 1.52148,1.5214 1.52148,3.6034 0,2.0821 -1.52148,3.6036 l -10.97071,10.9707 q 5.68555,5.2851 12.89258,8.1679 7.20703,2.8828 14.97461,2.8828 10.73047,0 20.01953,-5.205 9.28906,-5.2051 14.89453,-14.334 0.88086,-1.3614 4.24414,-9.3691 0.64063,-1.84181 2.40235,-1.84181 l 15.375,0 q 1.04101,0 1.80175,0.76074 0.76075,0.76077 0.76075,1.80167 z m 2.00195,-64.06243 0,35.875 q 0,2.08203 -1.52148,3.60352 -1.52149,1.52148 -3.60352,1.52148 l -35.875,0 q -2.08203,0 -3.60352,-1.52148 -1.52148,-1.52149 -1.52148,-3.60352 0,-2.08203 1.52148,-3.60351 l 11.05079,-11.05078 q -11.85157,-10.97071 -27.94727,-10.97071 -10.73047,0 -20.01953,5.20508 -9.28906,5.20508 -14.89453,14.33399 -0.88086,1.36132 -4.24414,9.36914 -0.64063,1.84179 -2.40235,1.84179 l -15.93554,0 q -1.04102,0 -1.80176,-0.76074 -0.76074,-0.76074 -0.76074,-1.80176 l 0,-0.56054 q 5.20507,-21.46094 21.62109,-34.79395 16.41602,-13.33301 38.4375,-13.33301 11.69141,0 22.74219,4.44434 11.05078,4.44434 19.61914,12.53223 l 10.41015,-10.33008 q 1.52149,-1.52149 3.60352,-1.52149 2.08203,0 3.60352,1.52149 1.52148,1.52148 1.52148,3.60351 z"
       id="path4"
       style="fill-opacity:1;fill:url(#linearGradient4145)" />
  </g>
</svg>
