<?xml version="1.0" encoding="UTF-8" standalone="no"?>
<svg
   xmlns:dc="http://purl.org/dc/elements/1.1/"
   xmlns:cc="http://creativecommons.org/ns#"
   xmlns:rdf="http://www.w3.org/1999/02/22-rdf-syntax-ns#"
   xmlns:svg="http://www.w3.org/2000/svg"
   xmlns="http://www.w3.org/2000/svg"
   xmlns:xlink="http://www.w3.org/1999/xlink"
   xmlns:sodipodi="http://sodipodi.sourceforge.net/DTD/sodipodi-0.dtd"
   xmlns:inkscape="http://www.inkscape.org/namespaces/inkscape"
   version="1.1"
   width="128px"
   height="128px"
   viewBox="0 0 128 128"
   xml:space="preserve"
   id="svg2"
   inkscape:version="0.91 r13725"
   sodipodi:docname="beautify.svg"><metadata
     id="metadata72"><rdf:RDF><cc:Work
         rdf:about=""><dc:format>image/svg+xml</dc:format><dc:type
           rdf:resource="http://purl.org/dc/dcmitype/StillImage" /><dc:title></dc:title><dc:creator><cc:Agent><dc:title>Kovid Goyal</dc:title></cc:Agent></dc:creator><cc:license
           rdf:resource="http://creativecommons.org/licenses/by-sa/3.0/" /></cc:Work><cc:License
         rdf:about="http://creativecommons.org/licenses/by-sa/3.0/"><cc:permits
           rdf:resource="http://creativecommons.org/ns#Reproduction" /><cc:permits
           rdf:resource="http://creativecommons.org/ns#Distribution" /><cc:requires
           rdf:resource="http://creativecommons.org/ns#Notice" /><cc:requires
           rdf:resource="http://creativecommons.org/ns#Attribution" /><cc:permits
           rdf:resource="http://creativecommons.org/ns#DerivativeWorks" /><cc:requires
           rdf:resource="http://creativecommons.org/ns#ShareAlike" /></cc:License></rdf:RDF></metadata><defs
     id="defs70" /><sodipodi:namedview
     pagecolor="#ffffff"
     bordercolor="#666666"
     borderopacity="1"
     objecttolerance="10"
     gridtolerance="10"
     guidetolerance="10"
     inkscape:pageopacity="0"
     inkscape:pageshadow="2"
     inkscape:window-width="3840"
     inkscape:window-height="2128"
     id="namedview68"
     showgrid="false"
     inkscape:zoom="1.84375"
     inkscape:cx="-107.9322"
     inkscape:cy="64"
     inkscape:window-x="0"
     inkscape:window-y="32"
     inkscape:window-maximized="0"
     inkscape:current-layer="svg2" /><g
     id="g4"><g
       id="g6"><g
         id="g8"><defs
           id="defs10"><path
             id="SVGID_1_"
             d="M41.16,18.55C41.71,15,47.23,1.92,55.67,1.38c5.79-0.37,12.59,4.92,14.3,13.11      c1.65,7.9,3.83,16.12,0.06,23.55c-3.12,6.18-10.24,13.47-17.81,8.95C43.73,41.92,39.51,29.12,41.16,18.55z" /></defs><clipPath
           id="SVGID_2_"><use
             xlink:href="#SVGID_1_"
             overflow="visible"
             id="use14" /></clipPath><g
           clip-path="url(#SVGID_2_)"
           id="g16"><path
             fill="#F79329"
             d="M37.54,21.33c0.68-4.46,7.63-20.91,18.25-21.59c7.29-0.47,15.83,6.19,17.98,16.49      c2.07,9.93,4.82,20.27,0.09,29.61c-3.94,7.77-12.88,16.94-22.4,11.26C40.78,50.72,35.47,34.63,37.54,21.33z"
             id="path18" /><path
             fill="#ED6C30"
             d="M45.26,21.65c0.41-2.64,4.52-12.37,10.8-12.78c4.32-0.28,9.37,3.66,10.64,9.76      c1.23,5.88,2.85,12,0.05,17.53c-2.33,4.6-7.62,10.03-13.26,6.67C47.17,39.04,44.04,29.52,45.26,21.65z"
             id="path20" /></g></g><g
         id="g22"><path
           fill="#757F3F"
           d="M64.13,114.2c-0.13,0.47-0.3,0.93-0.48,1.38c-0.33,0.83-0.66,1.66-1.01,2.49     c-0.3,0.68-0.6,1.52-1.37,1.81c-0.97,0.37-2.19,0.2-3.16-0.08c-4.03-1.18-2.61-4.96-1.96-7.89c1.3-5.91,2.54-11.89,2.96-17.92     c0.44-6.23,0.02-12.47,0.02-18.71c0-0.12,0.01-2.65-0.09-2.65h7.95c0,0.97,0,1.95,0,2.92c0,4.52,0.01,9.03-0.09,13.54     C66.71,97.44,66.54,106.09,64.13,114.2z"
           id="path24" /></g><g
         id="g26"><defs
           id="defs28"><path
             id="SVGID_3_"
             d="M25.8,49.14c-3.37-25.59,1.44-37.79,5.28-42.21c1.76-2.03,4.02-2.82,6.58-1.84      C49.33,9.57,61.56,34.42,64.83,43.2c1.09,2.93,8.77,29.14-2.63,36.2c-2.45,1.51-5.31,1.39-8.11,1.39      c-2.53,0-16.62-1.32-23.41-15.09C29.73,63.79,27,58.31,25.8,49.14z" /></defs><clipPath
           id="SVGID_4_"><use
             xlink:href="#SVGID_3_"
             overflow="visible"
             id="use32" /></clipPath><g
           clip-path="url(#SVGID_4_)"
           id="g34"><path
             fill="#F79329"
             d="M20.47,46.36c-3.69-32.3,4.02-48.03,9.9-53.83c2.71-2.67,6.08-3.78,9.81-2.66      c17.01,5.1,33.83,36.02,38.2,47c1.47,3.66,11.51,36.55-5.67,46.07c-3.69,2.04-7.92,2.02-12.06,2.16      c-3.72,0.13-24.46-0.85-33.81-17.99C25.56,64.76,21.79,57.93,20.47,46.36z"
             id="path36" /><path
             fill="#ED6C30"
             d="M25.24,52.89c-3.48-20.13-0.13-31.01,2.83-35.49C31,12.95,34,13.5,36.5,14.05      c11.45,2.52,25.64,26.08,28.9,32.8c1.08,2.24,8.82,26.02-2.25,32.7c-2.39,1.42-5.19,1.59-7.93,1.84      c-2.46,0.24-16.23,0.46-22.97-9.92C31.31,70.04,26.48,60.1,25.24,52.89z"
             id="path38" /></g></g><g
         id="g40"><defs
           id="defs42"><path
             id="SVGID_5_"
             d="M94.65,41.39C92.24,15.7,84.83,4.87,80.11,1.41c-2.17-1.59-4.55-1.85-6.82-0.33      C62.9,8.05,55.76,27.07,54,44.04c-0.32,3.1-0.8,30.61,11.88,34.95c2.72,0.93,5.49,0.17,8.23-0.46      c2.46-0.56,15.91-4.98,19.47-19.92C94.06,56.55,95.51,50.59,94.65,41.39z" /></defs><clipPath
           id="SVGID_6_"><use
             xlink:href="#SVGID_5_"
             overflow="visible"
             id="use46" /></clipPath><g
           clip-path="url(#SVGID_6_)"
           id="g48"><path
             fill="#F79329"
             d="M99.22,37.5C95.63,5.19,84.62-8.43,77.6-12.79c-3.23-2-6.77-2.33-10.15-0.41      c-15.45,8.77-24.98,42.65-26.8,54.33c-0.61,3.89-3.09,38.19,15.78,43.65c4.06,1.17,8.17,0.21,12.24-0.57      c3.65-0.7,23.66-6.26,28.96-25.05C98.34,56.57,100.5,49.08,99.22,37.5z"
             id="path50" /><path
             fill="#ED6C30"
             d="M99.06,46.59c-1.23-20.4-8.04-29.09-9.9-33.17C82.58-1.07,75.38,5.28,72.01,8.74      c-5.29,5.43-11.85,15.14-15.29,25.27c-0.63,1.87-2.89,10.23-3.34,18.91c-0.64,12.36,1.99,25.72,10.23,28.1      c3.01,0.86,6.17,0.39,9.29,0.03c2.8-0.32,18.19-3.16,23.06-14.78C96.65,64.67,99.51,53.89,99.06,46.59z"
             id="path52" /></g></g><g
         id="g54"><defs
           id="defs56"><path
             id="SVGID_7_"
             d="M48.9,121.96c1.85-5.69,17.57-21.96,42.58-38.9c0.97-0.66,6.47-4.1,9.61-4.95      c1.88-0.51,2.94-0.05,1.72,2.59c-6,13.01-14.59,34.23-29.23,43.27c-6.15,3.8-11.94,3.55-15.8,3.91      C55.4,128.1,46.95,127.95,48.9,121.96z" /></defs><use
           xlink:href="#SVGID_7_"
           overflow="visible"
           fill="#757F3F"
           id="use59" /><clipPath
           id="SVGID_8_"><use
             xlink:href="#SVGID_7_"
             overflow="visible"
             id="use62" /></clipPath><path
           clip-path="url(#SVGID_8_)"
           fill="#BDCF46"
           d="M54.11,127.79c0,0,0.64-3.29,4-7.99c8.64-12.11,40.26-40.64,46.35-40.86     l-0.27-5.8c0,0-27.95,8.7-51.7,37.72c0,0-7.38,3.96-7.38,18.46L54.11,127.79z"
           id="path64" /></g></g><path
       fill="#ED6C30"
       d="M74.1,78.53c0,0-8,3.71-20.01,2.26c0,0-14.64-28.46-0.2-33l22,2.49L74.1,78.53z"
       id="path66" /></g></svg>