<?xml version="1.0" encoding="UTF-8" standalone="no"?>
<!-- Created with Inkscape (http://www.inkscape.org/) -->

<svg
   xmlns:osb="http://www.openswatchbook.org/uri/2009/osb"
   xmlns:dc="http://purl.org/dc/elements/1.1/"
   xmlns:cc="http://creativecommons.org/ns#"
   xmlns:rdf="http://www.w3.org/1999/02/22-rdf-syntax-ns#"
   xmlns:svg="http://www.w3.org/2000/svg"
   xmlns="http://www.w3.org/2000/svg"
   xmlns:xlink="http://www.w3.org/1999/xlink"
   xmlns:sodipodi="http://sodipodi.sourceforge.net/DTD/sodipodi-0.dtd"
   xmlns:inkscape="http://www.inkscape.org/namespaces/inkscape"
   sodipodi:docname="calibre.svg"
   inkscape:version="0.91 r13725"
   version="1.1"
   id="svg2"
   viewBox="0 0 1024 1024"
   height="1024"
   width="1024">
  <defs
     id="defs4">
    <linearGradient
       inkscape:collect="always"
       id="endcap-3">
      <stop
         style="stop-color:#601a22;stop-opacity:1"
         offset="0"
         id="stop4283" />
      <stop
         id="stop4299"
         offset="0.86720961"
         style="stop-color:#45181d;stop-opacity:1" />
      <stop
         style="stop-color:#a13642;stop-opacity:0"
         offset="1"
         id="stop4301" />
    </linearGradient>
    <linearGradient
       inkscape:collect="always"
       id="linearGradient6757">
      <stop
         style="stop-color:#ffffff;stop-opacity:1"
         offset="0"
         id="stop6759" />
      <stop
         style="stop-color:#ffffff;stop-opacity:0.39215687"
         offset="1"
         id="stop6761" />
    </linearGradient>
    <linearGradient
       inkscape:collect="always"
       id="linearGradient6741">
      <stop
         style="stop-color:#ffffff;stop-opacity:1"
         offset="0"
         id="stop6743" />
      <stop
         style="stop-color:#5b757b;stop-opacity:0;"
         offset="1"
         id="stop6745" />
    </linearGradient>
    <linearGradient
       inkscape:collect="always"
       id="linearGradient5969">
      <stop
         style="stop-color:#000001;stop-opacity:0"
         offset="0"
         id="stop5971" />
      <stop
         id="stop5977"
         offset="0.49999997"
         style="stop-color:#000000;stop-opacity:1" />
      <stop
         style="stop-color:#000000;stop-opacity:0"
         offset="1"
         id="stop5973" />
    </linearGradient>
    <linearGradient
       inkscape:collect="always"
       id="linearGradient5935">
      <stop
         style="stop-color:#ffa900;stop-opacity:1;"
         offset="0"
         id="stop5937" />
      <stop
         style="stop-color:#ffeda0;stop-opacity:1"
         offset="1"
         id="stop5939" />
    </linearGradient>
    <linearGradient
       id="linearGradient5929"
       osb:paint="solid">
      <stop
         style="stop-color:#ffa900;stop-opacity:1;"
         offset="0"
         id="stop5931" />
    </linearGradient>
    <filter
       inkscape:menu-tooltip="Darkens the edge with an inner blur and adds a flexible glow"
       inkscape:menu="Shadows and Glows"
       inkscape:label="Out of Focus"
       height="1.5"
       width="1.4"
       x="-0.2"
       y="-0.25"
       style="color-interpolation-filters:sRGB;"
       id="filter4262">
      <feGaussianBlur
         result="result14"
         stdDeviation="1.5"
         id="feGaussianBlur4264" />
      <feFlood
         result="result12"
         flood-color="rgb(146,94,26)"
         id="feFlood4266" />
      <feTurbulence
         type="turbulence"
         seed="0"
         baseFrequency="0.29999999999999999"
         numOctaves="5"
         result="result5"
         id="feTurbulence4268" />
      <feDisplacementMap
         scale="100"
         xChannelSelector="R"
         in="result5"
         result="result8"
         in2="result14"
         yChannelSelector="G"
         id="feDisplacementMap4270" />
      <feComposite
         in="result8"
         result="result10"
         operator="arithmetic"
         in2="result5"
         k1="0.5"
         k2="0.5"
         id="feComposite4272" />
      <feSpecularLighting
         specularExponent="15"
         specularConstant="1"
         surfaceScale="-15"
         result="result2"
         id="feSpecularLighting4274">
        <feDistantLight
           elevation="90"
           azimuth="225"
           id="feDistantLight4276" />
      </feSpecularLighting>
      <feGaussianBlur
         result="result13"
         stdDeviation="0.4"
         id="feGaussianBlur4278" />
      <feDiffuseLighting
         surfaceScale="-20"
         result="result1"
         diffuseConstant="0.6"
         in="result13"
         id="feDiffuseLighting4280">
        <feDistantLight
           elevation="10"
           azimuth="225"
           id="feDistantLight4282" />
      </feDiffuseLighting>
      <feComposite
         result="result4"
         in="SourceGraphic"
         in2="result1"
         operator="arithmetic"
         k2="1"
         k3="0.6"
         id="feComposite4284" />
      <feComposite
         result="result11"
         in2="SourceGraphic"
         operator="in"
         id="feComposite4286" />
      <feBlend
         in2="result11"
         in="result11"
         result="fbSourceGraphic"
         mode="normal"
         id="feBlend4288" />
      <feColorMatrix
         result="fbSourceGraphicAlpha"
         in="fbSourceGraphic"
         values="0 0 0 -1 0 0 0 0 -1 0 0 0 0 -1 0 0 0 0 1 0"
         id="feColorMatrix4439" />
      <feGaussianBlur
         id="feGaussianBlur4441"
         stdDeviation="5"
         result="result6"
         in="fbSourceGraphic" />
      <feComposite
         id="feComposite4443"
         in2="result6"
         result="result8"
         in="fbSourceGraphic"
         operator="atop" />
      <feComposite
         id="feComposite4445"
         in2="fbSourceGraphicAlpha"
         result="result9"
         operator="over"
         in="result8" />
      <feColorMatrix
         id="feColorMatrix4447"
         values="1 0 0 0 0 0 1 0 0 0 0 0 1 0 0 0 0 0 1 0 "
         result="result10" />
      <feBlend
         id="feBlend4449"
         in2="result6"
         in="result10"
         mode="normal"
         result="fbSourceGraphic" />
      <feColorMatrix
         result="fbSourceGraphicAlpha"
         in="fbSourceGraphic"
         values="0 0 0 -1 0 0 0 0 -1 0 0 0 0 -1 0 0 0 0 1 0"
         id="feColorMatrix6777" />
      <feFlood
         id="feFlood6779"
         flood-opacity="1"
         flood-color="rgb(255,255,255)"
         result="flood"
         in="fbSourceGraphic" />
      <feColorMatrix
         id="feColorMatrix6781"
         in="fbSourceGraphic"
         values="1 0 0 0 0 0 1 0 0 0 0 0 1 0 0 -0.2125 -0.7154 -0.0721 1 0 "
         result="colormatrix1" />
      <feGaussianBlur
         id="feGaussianBlur6783"
         in="colormatrix1"
         stdDeviation="1.9 1"
         result="blur" />
      <feColorMatrix
         id="feColorMatrix6785"
         in="blur"
         values="1 0 0 0 0 0 1 0 0 0 0 0 1 0 0 0 0 0 5.1 -2 "
         result="colormatrix2" />
      <feBlend
         id="feBlend6787"
         in2="flood"
         in="colormatrix2"
         mode="normal"
         result="blend" />
      <feComposite
         id="feComposite6789"
         in2="blend"
         in="blend"
         operator="arithmetic"
         k2="1"
         result="composite1" />
      <feComposite
         id="feComposite6791"
         in2="fbSourceGraphic"
         operator="in" />
    </filter>
    <linearGradient
       inkscape:collect="always"
       xlink:href="#linearGradient5935"
       id="linearGradient5941"
       x1="-788.9517"
       y1="152.39156"
       x2="-147.65315"
       y2="150.93695"
       gradientUnits="userSpaceOnUse" />
    <filter
       style="color-interpolation-filters:sRGB;"
       inkscape:label="Drop Shadow"
       id="filter5943">
      <feFlood
         flood-opacity="0.498039"
         flood-color="rgb(0,0,0)"
         result="flood"
         id="feFlood5945" />
      <feComposite
         in="flood"
         in2="SourceGraphic"
         operator="in"
         result="composite1"
         id="feComposite5947" />
      <feGaussianBlur
         in="composite1"
         stdDeviation="3"
         result="blur"
         id="feGaussianBlur5949" />
      <feOffset
         dx="6"
         dy="6"
         result="offset"
         id="feOffset5951" />
      <feComposite
         in="SourceGraphic"
         in2="offset"
         operator="over"
         result="composite2"
         id="feComposite5953" />
    </filter>
    <linearGradient
       inkscape:collect="always"
       xlink:href="#linearGradient5969"
       id="linearGradient5975"
       x1="162.85715"
       y1="168.79073"
       x2="162.85715"
       y2="134.50502"
       gradientUnits="userSpaceOnUse" />
    <linearGradient
       inkscape:collect="always"
       xlink:href="#linearGradient5969"
       id="linearGradient5981"
       gradientUnits="userSpaceOnUse"
       x1="162.85715"
       y1="168.79073"
       x2="162.85715"
       y2="134.50502"
       gradientTransform="translate(-0.71428572,737.85714)" />
    <filter
       style="color-interpolation-filters:sRGB;"
       inkscape:menu-tooltip="Darkens the edge with an inner blur and adds a flexible glow"
       inkscape:menu="Shadows and Glows"
       inkscape:label="Dark And Glow"
       id="filter6683"
       y="-0.25"
       height="1.5">
      <feTurbulence
         result="result0"
         seed="0"
         baseFrequency="1"
         numOctaves="5"
         type="fractalNoise"
         id="feTurbulence6685" />
      <feConvolveMatrix
         result="result5"
         order="5 5"
         kernelMatrix="-2 0 0 0 -2 0 -2 0 -2 0 0 0 -10 0 0 0 -2 0 -2 0 -2 0 0 0 -2 "
         targetX="2"
         targetY="2"
         id="feConvolveMatrix6687" />
      <feComposite
         result="result2"
         k3="0.5"
         k2="0.5"
         k1="1.5"
         operator="arithmetic"
         in="result5"
         in2="SourceGraphic"
         id="feComposite6689" />
      <feColorMatrix
         in="result2"
         type="luminanceToAlpha"
         result="result2"
         id="feColorMatrix6691" />
      <feDiffuseLighting
         surfaceScale="5"
         result="result1"
         diffuseConstant="0.6"
         id="feDiffuseLighting6693">
        <feDistantLight
           elevation="35"
           azimuth="225"
           id="feDistantLight6695" />
      </feDiffuseLighting>
      <feComposite
         operator="arithmetic"
         in="result1"
         k1="1.5"
         k3="0.5"
         result="result3"
         in2="SourceGraphic"
         id="feComposite6697" />
      <feBlend
         in="result3"
         mode="normal"
         result="result6"
         in2="result1"
         id="feBlend6699" />
      <feComposite
         operator="in"
         in2="SourceGraphic"
         id="feComposite6701"
         result="fbSourceGraphic" />
      <feColorMatrix
         result="fbSourceGraphicAlpha"
         in="fbSourceGraphic"
         values="0 0 0 -1 0 0 0 0 -1 0 0 0 0 -1 0 0 0 0 1 0"
         id="feColorMatrix6703" />
      <feGaussianBlur
         id="feGaussianBlur6705"
         stdDeviation="5"
         result="result6"
         in="fbSourceGraphic" />
      <feComposite
         id="feComposite6707"
         in2="result6"
         result="result8"
         in="fbSourceGraphic"
         operator="atop" />
      <feComposite
         id="feComposite6709"
         in2="fbSourceGraphicAlpha"
         result="result9"
         operator="over"
         in="result8" />
      <feColorMatrix
         id="feColorMatrix6711"
         values="1 0 0 0 0 0 1 0 0 0 0 0 1 0 0 0 0 0 1 0 "
         result="result10" />
      <feBlend
         id="feBlend6713"
         in2="result6"
         in="result10"
         mode="normal"
         result="fbSourceGraphic" />
      <feColorMatrix
         result="fbSourceGraphicAlpha"
         in="fbSourceGraphic"
         values="0 0 0 -1 0 0 0 0 -1 0 0 0 0 -1 0 0 0 0 1 0"
         id="feColorMatrix6715" />
      <feFlood
         id="feFlood6717"
         flood-opacity="1"
         flood-color="rgb(255,255,255)"
         result="flood"
         in="fbSourceGraphic" />
      <feColorMatrix
         id="feColorMatrix6719"
         in="fbSourceGraphic"
         values="1 0 0 0 0 0 1 0 0 0 0 0 1 0 0 -0.2125 -0.7154 -0.0721 1 0 "
         result="colormatrix1" />
      <feGaussianBlur
         id="feGaussianBlur6721"
         in="colormatrix1"
         stdDeviation="1.9 1"
         result="blur" />
      <feColorMatrix
         id="feColorMatrix6723"
         in="blur"
         values="1 0 0 0 0 0 1 0 0 0 0 0 1 0 0 0 0 0 5.1 -2 "
         result="colormatrix2" />
      <feBlend
         id="feBlend6725"
         in2="flood"
         in="colormatrix2"
         mode="normal"
         result="blend" />
      <feComposite
         id="feComposite6727"
         in2="blend"
         in="blend"
         operator="arithmetic"
         k2="1"
         result="composite1" />
      <feComposite
         id="feComposite6729"
         in2="fbSourceGraphic"
         operator="in"
         result="fbSourceGraphic" />
      <feColorMatrix
         result="fbSourceGraphicAlpha"
         in="fbSourceGraphic"
         values="0 0 0 -1 0 0 0 0 -1 0 0 0 0 -1 0 0 0 0 1 0"
         id="feColorMatrix6765" />
      <feGaussianBlur
         id="feGaussianBlur6767"
         stdDeviation="5"
         result="result6"
         in="fbSourceGraphic" />
      <feComposite
         id="feComposite6769"
         in2="result6"
         result="result8"
         in="fbSourceGraphic"
         operator="atop" />
      <feComposite
         id="feComposite6771"
         in2="fbSourceGraphicAlpha"
         result="result9"
         operator="over"
         in="result8" />
      <feColorMatrix
         id="feColorMatrix6773"
         values="1 0 0 0 0 0 1 0 0 0 0 0 1 0 0 0 0 0 1 0 "
         result="result10" />
      <feBlend
         id="feBlend6775"
         in2="result6"
         in="result10"
         mode="normal" />
    </filter>
    <radialGradient
       inkscape:collect="always"
       xlink:href="#linearGradient6741"
       id="radialGradient6747"
       cx="393.92856"
       cy="257.00507"
       fx="393.92856"
       fy="257.00507"
       r="111.78571"
       gradientTransform="matrix(1.7457256,-0.00436375,3.8094882e-4,0.0894564,-302.43191,231.09043)"
       gradientUnits="userSpaceOnUse" />
    <radialGradient
       inkscape:collect="always"
       xlink:href="#linearGradient6741"
       id="radialGradient6751"
       gradientUnits="userSpaceOnUse"
       gradientTransform="matrix(1.7332115,-0.00436375,3.78218e-4,0.0894564,-297.50152,863.23329)"
       cx="393.92856"
       cy="257.00507"
       fx="393.92856"
       fy="257.00507"
       r="111.78571" />
    <radialGradient
       inkscape:collect="always"
       xlink:href="#linearGradient6757"
       id="radialGradient6763"
       cx="-570.48199"
       cy="382.41348"
       fx="-570.48199"
       fy="382.41348"
       r="204.88641"
       gradientTransform="matrix(1.1942885,0.04114054,-0.02212466,0.64226641,27.905882,157.70157)"
       gradientUnits="userSpaceOnUse" />
    <filter
       y="-0.25"
       height="1.5"
       inkscape:menu-tooltip="Darkens the edge with an inner blur and adds a flexible glow"
       inkscape:menu="Shadows and Glows"
       inkscape:label="Dark And Glow"
       style="color-interpolation-filters:sRGB;"
       id="filter6809">
      <feGaussianBlur
         stdDeviation="5"
         result="result6"
         id="feGaussianBlur6811" />
      <feComposite
         result="result8"
         in="SourceGraphic"
         operator="atop"
         in2="result6"
         id="feComposite6813" />
      <feComposite
         result="result9"
         operator="over"
         in2="SourceAlpha"
         in="result8"
         id="feComposite6815" />
      <feColorMatrix
         values="1 0 0 0 0 0 1 0 0 0 0 0 1 0 0 0 0 0 1 0 "
         result="result10"
         id="feColorMatrix6817" />
      <feBlend
         in="result10"
         mode="normal"
         in2="result6"
         id="feBlend6819" />
    </filter>
    <filter
       style="color-interpolation-filters:sRGB;"
       inkscape:label="Drop Shadow"
       id="filter6821">
      <feFlood
         flood-opacity="0.498039"
         flood-color="rgb(0,0,0)"
         result="flood"
         id="feFlood6823" />
      <feComposite
         in="flood"
         in2="SourceGraphic"
         operator="in"
         result="composite1"
         id="feComposite6825" />
      <feGaussianBlur
         in="composite1"
         stdDeviation="3"
         result="blur"
         id="feGaussianBlur6827" />
      <feOffset
         dx="6"
         dy="6"
         result="offset"
         id="feOffset6829" />
      <feComposite
         in="SourceGraphic"
         in2="offset"
         operator="over"
         result="composite2"
         id="feComposite6831" />
    </filter>
    <filter
       style="color-interpolation-filters:sRGB;"
       inkscape:label="Drop Shadow"
       id="filter7470">
      <feFlood
         flood-opacity="0.498039"
         flood-color="rgb(0,0,0)"
         result="flood"
         id="feFlood7472" />
      <feComposite
         in="flood"
         in2="SourceGraphic"
         operator="in"
         result="composite1"
         id="feComposite7474" />
      <feGaussianBlur
         in="composite1"
         stdDeviation="3"
         result="blur"
         id="feGaussianBlur7476" />
      <feOffset
         dx="6"
         dy="6"
         result="offset"
         id="feOffset7478" />
      <feComposite
         in="SourceGraphic"
         in2="offset"
         operator="over"
         result="composite2"
         id="feComposite7480" />
    </filter>
    <radialGradient
       inkscape:collect="always"
       xlink:href="#endcap-3"
       id="radialGradient4287"
       cx="620.27869"
       cy="-27.452856"
       fx="620.27869"
       fy="-27.452856"
       r="41.080517"
       gradientTransform="matrix(10.935912,-1.2967219,0.08820477,0.74387601,-6207.307,928.16347)"
       gradientUnits="userSpaceOnUse" />
    <radialGradient
       inkscape:collect="always"
       xlink:href="#endcap-3"
       id="radialGradient4309"
       gradientUnits="userSpaceOnUse"
       gradientTransform="matrix(11.938212,-1.443998,0.08995089,0.74366689,-6850.4532,1021.976)"
       cx="620.70544"
       cy="1109.0797"
       fx="620.70544"
       fy="1109.0797"
       r="41.080517" />
    <filter
       style="color-interpolation-filters:sRGB;"
       inkscape:label="Drop Shadow"
       id="filter4345">
      <feFlood
         flood-opacity="0.498039"
         flood-color="rgb(0,0,0)"
         result="flood"
         id="feFlood4347" />
      <feComposite
         in="flood"
         in2="SourceGraphic"
         operator="in"
         result="composite1"
         id="feComposite4349" />
      <feGaussianBlur
         in="composite1"
         stdDeviation="3"
         result="blur"
         id="feGaussianBlur4351" />
      <feOffset
         dx="6"
         dy="6"
         result="offset"
         id="feOffset4353" />
      <feComposite
         in="SourceGraphic"
         in2="offset"
         operator="over"
         result="composite2"
         id="feComposite4355" />
    </filter>
  </defs>
  <sodipodi:namedview
     inkscape:window-maximized="0"
     inkscape:window-y="32"
     inkscape:window-x="0"
     inkscape:window-height="2128"
     inkscape:window-width="3840"
     units="px"
     showgrid="false"
     inkscape:current-layer="layer1"
     inkscape:document-units="px"
     inkscape:cy="627.42279"
     inkscape:cx="547.38563"
     inkscape:zoom="1.4142136"
     inkscape:pageshadow="2"
     inkscape:pageopacity="0.0"
     borderopacity="1.0"
     bordercolor="#666666"
     pagecolor="#ffffff"
     id="base"
     showguides="false">
    <inkscape:grid
       type="xygrid"
       id="grid7555" />
  </sodipodi:namedview>
  <metadata
     id="metadata7">
    <rdf:RDF>
      <cc:Work
         rdf:about="">
        <dc:format>image/svg+xml</dc:format>
        <dc:type
           rdf:resource="http://purl.org/dc/dcmitype/StillImage" />
        <dc:title />
        <dc:creator>
          <cc:Agent>
            <dc:title>Kovid Goyal</dc:title>
          </cc:Agent>
        </dc:creator>
        <dc:rights>
          <cc:Agent>
            <dc:title>CC BY-SA</dc:title>
          </cc:Agent>
        </dc:rights>
        <dc:publisher>
          <cc:Agent>
            <dc:title>Kovid Goyal</dc:title>
          </cc:Agent>
        </dc:publisher>
      </cc:Work>
    </rdf:RDF>
  </metadata>
  <g
     inkscape:label="Layer 1"
     inkscape:groupmode="layer"
     id="layer1"
     transform="translate(0,-28.362161)">
    <rect
       style="fill:#5b757b;fill-opacity:1;fill-rule:evenodd;stroke:none;stroke-width:2;stroke-miterlimit:4;stroke-dasharray:none;stroke-opacity:1"
       id="rect6055"
       width="197.66254"
       height="806.42017"
       x="286.52591"
       y="163.22679"
       ry="13.699058" />
    <rect
       style="fill:#4d1e00;fill-opacity:1;fill-rule:evenodd;stroke:none;stroke-width:2;stroke-miterlimit:4;stroke-dasharray:none;stroke-opacity:1"
       id="rect4136"
       width="222.68274"
       height="890.28375"
       x="59.015781"
       y="79.363213"
       ry="18.711" />
    <g
       transform="matrix(-0.00109603,-1.0176807,0.98262526,-0.00113513,15.930032,48.452047)"
       style="font-style:normal;font-variant:normal;font-weight:normal;font-stretch:normal;font-size:150.29335022px;line-height:125%;font-family:Constantia;-inkscape-font-specification:Constantia;letter-spacing:5px;word-spacing:0px;fill:url(#linearGradient5941);fill-opacity:1;stroke:none;stroke-width:1px;stroke-linecap:butt;stroke-linejoin:miter;stroke-opacity:1;filter:url(#filter7470)"
       id="text4451">
      <path
         d="m -709.87308,130.38905 -2.93541,0.44032 -5.35714,-19.30037 q -9.09979,-2.27495 -16.51172,-2.27495 -17.97943,0 -28.25339,12.54891 -10.27396,12.54891 -10.27396,32.58313 0,21.42854 11.74167,34.19761 11.74167,12.76906 32.50974,12.76906 11.66829,0 24.58412,-4.47651 l 0.80724,3.30234 q -14.45693,9.98042 -32.7299,9.98042 -23.70349,0 -38.2338,-14.45693 -14.53032,-14.45693 -14.53032,-38.08703 0,-25.1712 15.99802,-39.84829 15.99803,-14.67708 41.8297,-14.67708 12.40213,0 25.39135,3.0088 l 0.5137,0.58708 -4.5499,23.70349 z"
         style="font-style:normal;font-variant:normal;font-weight:normal;font-stretch:normal;font-size:150.29335022px;font-family:Constantia;-inkscape-font-specification:Constantia;letter-spacing:5px;fill:url(#linearGradient5941);fill-opacity:1;stroke:none;stroke-opacity:1"
         id="path4271" />
      <path
         d="m -637.94556,103.23645 32.58312,89.75037 q 1.83464,5.0636 3.30235,6.89823 1.54109,1.76125 4.32974,2.64188 l 6.89823,2.05479 0.14677,3.15557 q -9.61349,-0.22015 -17.83266,-0.22015 -8.36594,0 -19.74068,0.22015 l -0.29354,-3.15557 6.97161,-2.05479 q 1.46771,-0.5137 2.0548,-1.10078 0.66047,-0.66047 0.66047,-1.98141 0,-1.46771 -0.80724,-3.81604 -0.73386,-2.42172 -2.12818,-6.38454 l -6.89823,-19.66729 -35.37178,0 -7.70547,19.59391 q -1.54109,4.10958 -2.42171,6.5313 -0.88063,2.42172 -0.88063,3.81604 0,1.24756 0.66047,1.90803 0.73385,0.58708 2.12818,1.02739 l 6.82484,1.98141 0.14677,3.30234 q -10.42073,-0.22015 -17.02542,-0.22015 -6.60469,0 -14.75047,0.22015 l -0.36692,-3.15557 7.41192,-2.27495 q 2.78865,-0.88062 4.10959,-2.71526 1.32093,-1.83464 2.93541,-5.72406 l 37.49996,-89.53022 7.5587,-1.10078 z m -23.40996,59.66235 30.2348,0 -14.31016,-40.43537 -15.92464,40.43537 z"
         style="font-style:normal;font-variant:normal;font-weight:normal;font-stretch:normal;font-size:150.29335022px;font-family:Constantia;-inkscape-font-specification:Constantia;letter-spacing:5px;fill:url(#linearGradient5941);fill-opacity:1;stroke:none;stroke-opacity:1"
         id="path4273" />
      <path
         d="m -554.27639,125.17869 0,59.66235 q 0,8.14578 0.14677,16.07141 l 35.73871,0 9.39333,-19.44714 3.30234,-0.5137 -1.61448,26.27198 -0.44031,0.5137 q -19.00682,-0.22015 -35.15162,-0.22015 l -18.41974,0 q -8.87963,0 -18.19958,0.22015 l -0.29354,-3.15557 9.0264,-2.71526 q 1.83464,-0.5137 1.98141,-2.27495 0.0734,-2.93542 0.0734,-6.5313 0.0734,-3.66927 0.0734,-8.0724 l 0,-59.51558 q 0,-3.74266 -0.0734,-6.75146 0,-3.0088 -0.0734,-5.43052 -0.0734,-1.90802 -1.76125,-2.4951 l -9.09979,-2.86204 -0.14677,-3.15557 q 9.46671,0.29354 18.19958,0.29354 8.80625,0 18.19959,-0.29354 l 0.29354,3.15557 -9.0998,2.71526 q -1.76125,0.44032 -1.90802,2.27495 -0.0734,2.56849 -0.14677,7.48532 0,4.91682 0,4.77005 z"
         style="font-style:normal;font-variant:normal;font-weight:normal;font-stretch:normal;font-size:150.29335022px;font-family:Constantia;-inkscape-font-specification:Constantia;letter-spacing:5px;fill:url(#linearGradient5941);fill-opacity:1;stroke:none;stroke-opacity:1"
         id="path4275" />
      <path
         d="m -465.61699,184.98781 q 0,4.40313 0,7.99901 0.0734,3.59589 0.14677,6.5313 0.0734,1.83464 2.56849,2.49511 l 8.29255,2.56849 0.14677,3.15557 q -9.46672,-0.22015 -18.19958,-0.22015 -8.87964,0 -18.19959,0.22015 l -0.29354,-3.15557 9.02641,-2.71526 q 1.83463,-0.5137 1.9814,-2.27495 0.0734,-2.93542 0.0734,-6.5313 0.0734,-3.66927 0.0734,-8.0724 l 0,-59.51558 q 0,-3.74266 -0.0734,-6.75146 0,-3.0088 -0.0734,-5.43052 -0.0734,-1.90802 -1.76125,-2.4951 l -9.09979,-2.86204 -0.14677,-3.15557 q 9.46672,0.29354 18.19958,0.29354 8.80625,0 18.19959,-0.29354 l 0.29354,3.15557 -9.09979,2.71526 q -1.76125,0.44032 -1.90802,2.27495 -0.0734,2.56849 -0.14677,5.65068 0,3.0088 0,6.60469 l 0,59.80912 z"
         style="font-style:normal;font-variant:normal;font-weight:normal;font-stretch:normal;font-size:150.29335022px;font-family:Constantia;-inkscape-font-specification:Constantia;letter-spacing:5px;fill:url(#linearGradient5941);fill-opacity:1;stroke:none;stroke-opacity:1"
         id="path4277" />
      <path
         d="m -435.07886,104.77754 q 9.46672,0.29354 18.41974,0.29354 3.37573,-0.14677 10.93443,-0.44031 7.5587,-0.29354 10.20058,-0.29354 15.85125,0 23.92364,6.0176 8.14579,5.94422 8.14579,17.17219 0,18.05282 -19.44714,24.58412 11.37474,1.90802 17.83266,8.43932 6.5313,6.53131 6.5313,16.6585 0,14.67708 -10.64089,22.74948 -10.64088,7.99901 -29.50094,7.99901 -3.74265,0 -8.14578,-0.22016 -4.32974,-0.22015 -9.76026,-0.22015 -8.87964,0 -18.19959,0.22015 l -0.29354,-3.15557 9.02641,-2.71526 q 1.83463,-0.5137 1.98141,-2.27495 0.0734,-2.93542 0.0734,-6.5313 0.0734,-3.66927 0.0734,-8.0724 l 0,-59.51558 q 0,-3.74266 -0.0734,-6.75146 0,-3.0088 -0.0734,-5.43052 -0.0734,-1.90802 -1.76125,-2.4951 l -9.0998,-2.86204 -0.14677,-3.15557 z m 25.39136,51.66334 0,44.54495 q 2.20156,0.80724 5.06359,1.0274 2.93542,0.22016 5.35714,0.22016 12.18198,0 18.49313,-6.01761 6.38453,-6.0176 6.38453,-17.46573 0,-11.44813 -6.45792,-16.95203 -6.38453,-5.5773 -20.69469,-5.5773 -4.18297,0 -8.14578,0.22016 z m 0,-5.87083 q 4.5499,0.0734 9.24656,0.0734 10.86105,0 16.36495,-5.21036 5.57729,-5.28375 5.57729,-15.26417 0,-10.49412 -5.72406,-15.04401 -5.65068,-4.62329 -16.36495,-4.62329 -1.90802,0 -4.18297,0.14677 -2.27495,0.0734 -4.91682,0.36693 l 0,39.55475 z"
         style="font-style:normal;font-variant:normal;font-weight:normal;font-stretch:normal;font-size:150.29335022px;font-family:Constantia;-inkscape-font-specification:Constantia;letter-spacing:5px;fill:url(#linearGradient5941);fill-opacity:1;stroke:none;stroke-opacity:1"
         id="path4279" />
      <path
         d="m -314.717,184.98781 q 0,4.40313 0,7.92563 0.0734,3.5225 0.14677,6.38453 0.0734,2.27495 1.90802,2.86203 l 8.14578,2.42172 0.22016,3.15557 q -8.73287,-0.22015 -17.46573,-0.22015 -8.87964,0 -18.19959,0.22015 l -0.29354,-3.15557 9.02641,-2.71526 q 1.83464,-0.5137 1.98141,-2.27495 0.0734,-2.93542 0.0734,-6.5313 0.0734,-3.66927 0.0734,-8.0724 l 0,-59.51558 q 0,-3.74266 -0.0734,-6.75146 0,-3.0088 -0.0734,-5.43052 -0.0734,-1.90802 -1.76125,-2.4951 l -9.0998,-2.86204 -0.14677,-3.15557 q 9.46672,0.29354 18.41974,0.29354 1.76125,0 4.47651,-0.0734 2.71527,-0.14677 6.60469,-0.29354 3.96282,-0.14678 6.60469,-0.22016 2.64188,-0.0734 4.18297,-0.0734 16.73188,0 25.09782,6.31115 8.36593,6.31115 8.36593,18.41974 0,10.93443 -5.72406,17.75927 -5.72406,6.75146 -17.46573,10.42073 4.62328,7.04501 8.51271,13.64969 3.88943,6.53131 7.19177,12.03521 3.37573,5.43053 6.16438,9.61349 2.78864,4.18297 5.21036,6.60469 1.24755,1.24755 2.49511,2.20157 1.24755,0.88062 2.56849,1.4677 1.39432,0.58709 2.86203,1.0274 1.54109,0.44031 3.37573,0.88062 l 0.22015,3.22896 q -5.28375,0.66047 -8.87963,0.66047 -3.00881,0 -5.28375,-0.14677 -2.27495,-0.14677 -4.0362,-0.58708 -1.76125,-0.44031 -3.22896,-1.10078 -1.39432,-0.73386 -2.78865,-1.83464 -3.0088,-2.27495 -5.94422,-6.5313 -2.86203,-4.32974 -6.0176,-9.76026 -3.08219,-5.43052 -6.45792,-11.52151 -3.37573,-6.16438 -7.11838,-12.03521 -1.10079,-1.76125 -1.90803,-2.78865 -0.73385,-1.0274 -1.68786,-1.61448 -0.88063,-0.58708 -2.12818,-0.80724 -1.17416,-0.22016 -3.08219,-0.29354 l -5.06359,-0.14677 0,25.46474 z m 0,-30.96865 q 4.47651,0.22016 8.29255,0.22016 12.69568,0 18.56652,-5.35714 5.94422,-5.43052 5.94422,-16.95203 0,-11.15459 -5.65068,-16.29157 -5.65068,-5.13698 -17.68589,-5.13698 -2.05479,0 -4.40313,0.14677 -2.34833,0.14678 -5.06359,0.44032 l 0,42.93047 z"
         style="font-style:normal;font-variant:normal;font-weight:normal;font-stretch:normal;font-size:150.29335022px;font-family:Constantia;-inkscape-font-specification:Constantia;letter-spacing:5px;fill:url(#linearGradient5941);fill-opacity:1;stroke:none;stroke-opacity:1"
         id="path4281" />
      <path
         d="m -222.24158,105.07108 17.83266,0 q 16.43834,0 34.71131,-0.29354 l 0.44031,0.58708 -4.25636,22.6761 -2.93541,0.5137 -4.5499,-16.95203 -33.90407,0 0,40.36198 6.67808,0 q 7.63208,0 17.02542,-0.14677 1.90802,-0.0734 2.4951,-1.90802 l 2.56849,-9.90704 3.96281,-0.14677 q -0.22015,10.27396 -0.22015,15.19079 0,4.77005 0.22015,14.97062 l -3.96281,0.29355 -2.64187,-10.05381 q -0.58709,-1.90802 -2.27495,-1.9814 -9.54011,-0.14678 -17.24558,-0.14678 l -6.60469,0 0,26.7123 q 0,8.14578 0.14678,16.07141 l 35.225,0 8.95302,-18.6399 3.30235,-0.58708 -1.61448,25.53812 -0.5137,0.5137 q -19.00683,-0.22015 -35.07823,-0.22015 l -17.46574,0 q -8.87963,0 -18.19958,0.22015 l -0.29354,-3.15557 9.0264,-2.71526 q 1.83464,-0.5137 1.98141,-2.27495 0.0734,-2.93542 0.0734,-6.5313 0.0734,-3.66927 0.0734,-8.0724 l 0,-59.51558 q 0,-3.74266 -0.0734,-6.75146 0,-3.0088 -0.0734,-5.43052 -0.0734,-1.90802 -1.76125,-2.4951 l -9.09979,-2.86204 -0.14677,-3.15557 q 9.46672,0.29354 18.19958,0.29354 z"
         style="font-style:normal;font-variant:normal;font-weight:normal;font-stretch:normal;font-size:150.29335022px;font-family:Constantia;-inkscape-font-specification:Constantia;letter-spacing:5px;fill:url(#linearGradient5941);fill-opacity:1;stroke:none;stroke-opacity:1"
         id="path4283" />
    </g>
    <rect
       style="fill:url(#linearGradient5975);fill-opacity:1;fill-rule:evenodd;stroke:none;stroke-width:2;stroke-miterlimit:4;stroke-dasharray:none;stroke-opacity:1;"
       id="rect5967"
       width="222.14285"
       height="35.714287"
       x="58.57143"
       y="133.79074"
       transform="matrix(1.0109069,0,0,0.99720262,-1.1682991,0.42422237)" />
    <rect
       y="871.64789"
       x="57.857143"
       height="35.714287"
       width="222.14285"
       id="rect5979"
       style="fill:url(#linearGradient5981);fill-opacity:1;fill-rule:evenodd;stroke:none;stroke-width:2;stroke-miterlimit:4;stroke-dasharray:none;stroke-opacity:1;" />
    <rect
       style="fill:url(#radialGradient6747);fill-opacity:1;fill-rule:evenodd;stroke:none;stroke-width:2;stroke-miterlimit:4;stroke-dasharray:none;stroke-opacity:1"
       id="rect6739"
       width="199.28571"
       height="20"
       x="285.71432"
       y="242.36217" />
    <rect
       y="874.505"
       x="286.42859"
       height="20"
       width="197.85715"
       id="rect6749"
       style="fill:url(#radialGradient6751);fill-opacity:1;fill-rule:evenodd;stroke:none;stroke-width:2;stroke-miterlimit:4;stroke-dasharray:none;stroke-opacity:1" />
    <g
       transform="matrix(-0.02468236,-0.99969534,0.99969534,-0.02468236,-10.706687,0)"
       style="font-style:italic;font-variant:normal;font-weight:500;font-stretch:normal;font-size:90px;line-height:125%;font-family:Z003;-inkscape-font-specification:'Z003 Medium Italic';letter-spacing:0px;word-spacing:0px;fill:url(#radialGradient6763);fill-opacity:1;stroke:none;stroke-width:1px;stroke-linecap:butt;stroke-linejoin:miter;stroke-opacity:1"
       id="text6753">
      <path
         d="m -799.08134,403.51296 c -3.6,5.04 -5.49,6.48 -8.55,6.48 -3.15,0 -6.3,-2.61 -8.91,-7.38 -2.61,-4.86 -3.87,-8.1 -8.46,-20.79 -1.89,-5.13 -2.88,-8.01 -5.04,-13.77 13.77,-11.7 17.73,-14.31 21.69,-14.31 1.62,0 2.79,0.27 5.31,1.35 l 3.33,-6.66 c -2.25,-0.9 -3.42,-1.17 -5.04,-1.17 -2.25,0 -3.78,0.54 -5.94,2.07 -1.35,0.9 -1.35,0.9 -12.87,10.17 l -9,7.56 c -0.27,0.27 -1.35,1.08 -2.88,2.25 l 4.68,-18.81 c 2.61,-0.72 3.33,-1.17 4.68,-2.79 -4.05,-0.27 -6.03,-0.36 -8.28,-0.36 -7.11,0 -12.78,0.99 -16.74,2.88 -6.75,3.33 -10.44,8.64 -10.44,15.12 0,2.34 0.36,3.78 1.53,6.75 l 7.38,-3.15 c -1.44,-3.51 -1.98,-5.67 -1.98,-8.55 0,-6.3 4.5,-9.72 12.87,-9.72 0.9,0 2.43,0.09 4.32,0.27 l -0.9,3.51 c -5.4,22.5 -6.75,27 -9.54,33.12 -2.97,5.67 -6.39,8.01 -11.52,7.74 l -3.42,0 -3.96,3.87 12.33,0 c 6.3,0 6.66,0 8.37,-0.72 1.8,-0.81 3.78,-1.89 5.85,-3.15 l -10.89,0 c 10.98,-10.98 12.42,-13.32 15.3,-24.57 l 0.63,1.98 c 0.54,1.53 0.54,1.62 1.62,4.95 l 1.62,5.4 c 3.87,12.6 6.57,18.81 9.81,22.5 3.96,4.5 9.45,6.84 16.11,6.84 2.97,0 4.59,-0.27 7.92,-1.53 l -0.99,-7.38 z"
         style="fill:url(#radialGradient6763);fill-opacity:1"
         id="path4286" />
      <path
         d="m -786.82446,362.20296 c -3.6,0 -9.36,2.61 -14.67,6.57 -5.76,4.32 -9.81,13.68 -9.81,22.68 0,5.4 3.06,8.91 7.83,8.91 2.52,0 5.13,-0.9 9.18,-3.06 4.5,-2.52 7.47,-4.77 9.09,-6.84 3.6,-4.95 6.48,-13.77 6.48,-19.98 0,-4.86 -3.33,-8.28 -8.1,-8.28 z m -4.68,4.23 c 3.6,0 5.85,3.42 5.85,8.91 0,3.87 -1.26,8.46 -3.42,12.87 -2.61,5.13 -5.85,7.92 -9.27,7.92 -3.69,0 -6.03,-3.33 -6.03,-8.46 0,-10.44 6.57,-21.24 12.87,-21.24 z"
         style="fill:url(#radialGradient6763);fill-opacity:1"
         id="path4288" />
      <path
         d="m -773.21196,379.84296 c 2.61,-8.1 3.24,-8.91 6.57,-9.09 5.04,-0.09 6.39,-0.18 8.64,-0.72 -5.31,5.94 -6.75,7.74 -8.01,9.81 -2.61,4.32 -4.14,9.45 -4.14,13.86 0,4.14 1.89,6.66 4.86,6.66 7.11,0 16.47,-7.47 22.68,-18.09 3.6,-6.03 5.94,-13.05 5.94,-17.55 0,-2.16 -0.63,-3.33 -2.34,-4.86 -2.16,0.63 -3.15,0.99 -6.03,2.43 1.08,2.43 1.44,3.78 1.44,6.3 0,5.49 -1.62,11.16 -4.68,16.38 -3.51,5.94 -8.46,10.26 -11.79,10.26 -2.07,0 -3.6,-2.34 -3.6,-5.4 0,-4.14 1.44,-9.09 3.96,-13.59 1.8,-3.24 3.6,-5.67 7.74,-10.44 l 0,-0.63 c 0,-0.18 0,-0.54 -0.09,-0.99 l -0.9,0 c -0.99,1.26 -1.98,1.53 -4.77,1.53 -1.17,0 -2.25,0 -5.04,-0.18 -2.25,-0.09 -3.78,-0.18 -4.41,-0.18 -1.8,0 -2.61,0.27 -3.15,0.99 -1.17,1.44 -2.61,5.13 -4.41,11.61 l 1.53,1.89 z"
         style="fill:url(#radialGradient6763);fill-opacity:1"
         id="path4290" />
      <path
         d="m -717.74805,343.75296 c -2.52,1.98 -4.59,3.6 -6.21,4.68 0.63,1.89 1.44,3.42 3.42,6.3 2.52,-2.25 2.79,-2.52 5.85,-4.86 -0.27,-0.54 -0.45,-0.9 -1.17,-2.07 -0.54,-1.08 -0.63,-1.08 -1.35,-2.88 l -0.54,-1.17 z m 3.42,45 -1.53,0.81 c -6.21,3.42 -7.29,3.87 -8.37,3.87 -0.99,0 -1.62,-0.99 -1.62,-2.52 0,-1.53 0,-1.53 2.97,-13.41 3.33,-13.68 3.33,-13.68 3.33,-14.4 0,-0.54 -0.45,-0.9 -1.08,-0.9 -1.53,0 -6.84,2.97 -14.22,7.92 l -0.18,2.52 c 5.49,-2.97 5.76,-3.06 6.57,-3.06 0.72,0 1.08,0.54 1.08,1.53 0,1.26 -0.27,2.52 -1.62,7.65 -4.23,15.66 -4.23,15.66 -4.23,18 0,2.16 0.81,3.6 2.16,3.6 1.53,0 3.96,-1.17 8.73,-4.23 1.71,-1.08 3.42,-2.16 5.13,-3.33 0.81,-0.45 1.44,-0.9 2.52,-1.53 l 0.36,-2.52 z"
         style="fill:url(#radialGradient6763);fill-opacity:1"
         id="path4292" />
      <path
         d="m -675.96696,387.40296 -2.52,1.62 c -2.25,1.53 -3.78,2.61 -4.23,2.88 -1.89,1.17 -3.6,1.98 -4.05,1.98 -0.72,0 -1.26,-0.99 -1.26,-2.34 0,-2.97 7.47,-35.55 9.45,-41.13 1.98,-5.4 3.96,-7.47 7.2,-7.47 1.26,0 2.07,0.18 4.14,0.72 l 3.15,-5.04 c -1.35,-0.27 -1.98,-0.36 -2.88,-0.36 -2.16,0 -3.42,0.36 -5.4,1.53 -2.25,1.26 -5.31,3.6 -7.83,5.94 -4.41,4.23 -4.68,4.86 -7.02,14.13 -0.09,0.36 -0.36,1.62 -0.72,2.88 -1.62,-0.36 -2.88,-0.54 -3.69,-0.54 -2.79,0 -10.53,4.86 -14.13,8.82 -3.06,3.51 -7.11,16.2 -7.11,22.41 0,3.42 1.8,6.93 3.42,6.93 1.71,0 5.85,-2.52 15.12,-9.27 -0.45,2.43 -0.72,4.77 -0.72,6.48 0,1.8 0.63,2.79 1.98,2.79 1.44,0 9.27,-4.77 16.74,-10.17 l 0.36,-2.79 z m -17.64,0.36 c -7.65,5.4 -9.63,6.57 -10.89,6.57 -1.26,0 -1.89,-1.26 -1.89,-3.96 0,-2.97 0.54,-6.3 1.62,-10.35 2.52,-9.09 6.12,-13.59 10.71,-13.59 1.71,0 2.88,0.63 4.68,2.43 l -4.23,18.9 z"
         style="fill:url(#radialGradient6763);fill-opacity:1"
         id="path4294" />
      <path
         d="m -608.9029,377.59296 1.89,0 4.14,-2.52 c -3.51,-0.27 -11.07,-0.45 -20.25,-0.45 l -5.49,2.79 0,0.72 c 4.59,-0.27 9,-0.45 13.14,-0.54 l -3.24,12.96 c -3.87,3.6 -9.18,6.03 -13.32,6.03 -6.66,0 -10.8,-5.22 -10.8,-13.41 0,-17.55 11.79,-33.93 24.48,-33.93 3.69,0 6.84,1.53 8.55,4.23 1.17,1.8 1.62,3.33 2.16,7.11 l 6.66,-7.47 c -1.71,-5.13 -4.95,-7.11 -11.88,-7.11 -9.9,0 -18.72,4.05 -25.92,11.79 -7.29,7.83 -11.88,18.81 -11.88,28.35 0,8.73 4.77,14.13 12.51,14.13 5.58,0 10.26,-1.35 18.36,-5.49 -1.35,5.4 -2.97,11.25 -3.78,13.23 -1.8,4.86 -4.41,6.84 -9.18,6.84 -2.61,0 -6.93,-0.36 -9.72,-0.81 l -3.78,5.94 c 3.24,0.36 4.59,0.45 6.48,0.45 7.2,0 13.32,-3.24 19.26,-10.08 3.87,-4.5 5.49,-8.28 8.1,-18.72 l 3.51,-14.04 z"
         style="fill:url(#radialGradient6763);fill-opacity:1"
         id="path4296" />
      <path
         d="m -575.00805,362.20296 c -3.6,0 -9.36,2.61 -14.67,6.57 -5.76,4.32 -9.81,13.68 -9.81,22.68 0,5.4 3.06,8.91 7.83,8.91 2.52,0 5.13,-0.9 9.18,-3.06 4.5,-2.52 7.47,-4.77 9.09,-6.84 3.6,-4.95 6.48,-13.77 6.48,-19.98 0,-4.86 -3.33,-8.28 -8.1,-8.28 z m -4.68,4.23 c 3.6,0 5.85,3.42 5.85,8.91 0,3.87 -1.26,8.46 -3.42,12.87 -2.61,5.13 -5.85,7.92 -9.27,7.92 -3.69,0 -6.03,-3.33 -6.03,-8.46 0,-10.44 6.57,-21.24 12.87,-21.24 z"
         style="fill:url(#radialGradient6763);fill-opacity:1"
         id="path4298" />
      <path
         d="m -569.58977,420.88296 c 2.88,0.36 6.66,0.63 9.9,0.63 6.3,0 9.81,-1.71 15.03,-7.2 5.22,-5.67 5.58,-6.57 8.73,-21.24 3.15,-14.4 4.86,-21.06 7.92,-31.23 -1.17,0.63 -2.16,1.17 -2.52,1.35 l -3.15,1.53 c -0.81,0.36 -1.35,0.63 -1.98,0.99 l -0.81,3.24 -1.89,7.38 -1.8,7.38 -0.99,3.87 c -9,5.58 -9.45,5.85 -11.07,5.85 -1.08,0 -1.89,-1.17 -1.89,-2.88 0,-2.52 0.72,-5.76 3.87,-17.64 2.16,-9 2.16,-9 2.16,-9.63 0,-0.63 -0.45,-1.08 -0.99,-1.08 -0.99,0 -6.66,2.97 -14.31,7.47 l -0.27,2.43 c 4.5,-2.25 5.22,-2.52 6.21,-2.52 0.9,0 1.35,0.45 1.35,1.35 0,1.62 -0.63,4.23 -2.79,12.24 -2.25,8.19 -2.61,9.72 -2.61,12.15 0,2.97 1.35,5.04 3.15,5.04 1.08,0 2.34,-0.63 5.4,-2.52 7.74,-4.86 7.74,-4.86 11.52,-7.56 l -0.99,4.77 c -2.7,12.87 -3.15,14.49 -4.23,16.83 -1.53,3.15 -4.32,4.5 -9.36,4.5 -2.7,0 -4.68,-0.36 -9.99,-1.62 l -3.6,6.12 z"
         style="fill:url(#radialGradient6763);fill-opacity:1"
         id="path4300" />
      <path
         d="m -489.56149,387.40296 c -6.57,4.5 -8.1,5.4 -9,5.4 -0.63,0 -1.08,-0.72 -1.08,-1.8 0,-2.43 2.07,-11.88 5.4,-24.21 0.99,-1.44 1.17,-1.62 2.61,-3.24 -4.32,-0.99 -7.38,-1.35 -11.34,-1.35 -3.69,0 -5.49,0.36 -7.74,1.8 -3.24,1.89 -7.02,4.68 -8.19,5.94 -3.42,3.78 -7.11,15.93 -7.11,23.22 0,4.32 1.44,7.2 3.69,7.2 1.98,0 4.95,-1.8 16.2,-9.9 -0.99,4.59 -1.35,6.84 -1.35,8.01 0,1.26 0.54,1.89 1.44,1.89 1.17,0 1.89,-0.36 8.28,-4.59 3.06,-2.07 4.77,-3.24 8.1,-5.67 l 0.09,-2.7 z m -15.84,-0.63 c -3.15,2.34 -4.77,3.51 -4.86,3.6 -2.97,1.89 -5.31,3.06 -6.48,3.06 -1.53,0 -2.34,-1.62 -2.34,-4.5 0,-4.59 1.35,-10.53 3.69,-15.75 2.16,-4.95 4.14,-6.84 7.2,-6.84 1.62,0 4.68,0.45 7.65,1.17 -1.8,6.48 -2.43,8.91 -2.52,9.36 -0.54,2.25 -0.99,4.5 -1.53,6.84 -0.09,0.45 -0.36,1.53 -0.81,3.06 z"
         style="fill:url(#radialGradient6763);fill-opacity:1"
         id="path4302" />
      <path
         d="m -468.41852,387.58296 c -1.89,1.08 -1.89,1.08 -5.76,3.51 -2.61,1.62 -4.14,2.34 -5.13,2.34 -0.9,0 -1.62,-1.08 -1.62,-2.34 l 0,-0.81 0,-0.81 c 0,-1.62 4.05,-19.08 7.38,-31.77 3.51,-13.32 4.32,-14.85 8.28,-14.85 1.35,0 2.25,0.09 4.41,0.63 l 3.87,-4.77 c -1.89,-0.45 -2.79,-0.54 -4.05,-0.54 -3.6,0 -6.39,1.35 -10.8,5.31 -3.96,3.51 -4.95,4.95 -6.12,8.19 -0.72,2.16 -2.7,9.45 -3.6,13.41 l -6.48,28.17 c -0.09,0.54 -0.18,1.08 -0.18,1.62 0,2.79 1.53,5.49 2.97,5.49 l 0.54,0 0.27,0 c 0.54,0.27 3.42,-1.71 16.02,-10.8 l 0,-1.98 z"
         style="fill:url(#radialGradient6763);fill-opacity:1"
         id="path4304" />
    </g>
    <rect
       style="fill:#79abff;fill-opacity:1;fill-rule:evenodd;stroke:none;stroke-width:2;stroke-miterlimit:4;stroke-dasharray:none;stroke-opacity:1"
       id="rect6835"
       width="220.95114"
       height="593.90881"
       x="560.07922"
       y="497.91531"
       ry="13.472634"
       transform="matrix(0.98420937,-0.17700821,0.19459355,0.98088396,0,0)" />
    <text
       xml:space="preserve"
       style="font-style:normal;font-weight:normal;font-size:90px;line-height:125%;font-family:Sans;letter-spacing:0px;word-spacing:0px;fill:#000000;fill-opacity:1;stroke:none;stroke-width:1px;stroke-linecap:butt;stroke-linejoin:miter;stroke-opacity:1"
       x="680.23669"
       y="864.97888"
       id="text7490"
       sodipodi:linespacing="125%"><tspan
         sodipodi:role="line"
         id="tspan7492"
         x="680.23669"
         y="864.97888" /></text>
    <path
       style="fill:#0c13ba;fill-opacity:1;fill-rule:evenodd;stroke:#000000;stroke-width:1.12602389px;stroke-linecap:butt;stroke-linejoin:miter;stroke-opacity:1;filter:url(#filter4345)"
       d="m 785.34706,662.30978 18.44112,-40.18977 30.67103,31.77403 -49.4241,-288.42662 -49.11215,8.41574 z"
       id="path7563"
       inkscape:connector-curvature="0"
       sodipodi:nodetypes="cccccc" />
    <g
       id="g4327"
       transform="matrix(0.99206577,-0.12571997,0.12571997,0.99206577,-60.057552,79.026839)">
      <g
         id="g4320">
        <g
           id="g4311">
          <path
             transform="matrix(0.99488242,0.10103949,-0.10103949,0.99488242,37.111704,-71.156068)"
             d="m 624.9082,72.820312 c -0.83386,-0.08218 -1.68937,-0.0815 -2.55664,0.0078 L 515.95117,83.785156 c -6.93817,0.714477 -11.94885,6.874331 -11.23437,13.8125 l 89.83203,872.349614 c 0.71448,6.93817 6.87628,11.94885 13.81445,11.23437 l 106.40039,-10.95703 c 6.93817,-0.71448 11.94885,-6.87433 11.23438,-13.8125 L 636.16406,84.0625 C 635.5389,77.991602 630.74522,73.39555 624.9082,72.820312 Z"
             id="yellow_book"
             style="fill:#d6b865;fill-opacity:1;fill-rule:evenodd;stroke:none;stroke-width:2;stroke-miterlimit:4;stroke-dasharray:none;stroke-opacity:1"
             xlink:href="#rect6833"
             inkscape:original="M 624.9082 72.820312 C 624.07434 72.738136 623.21883 72.738815 622.35156 72.828125 L 515.95117 83.785156 C 509.013 84.499633 504.00232 90.659487 504.7168 97.597656 L 594.54883 969.94727 C 595.26331 976.88544 601.42511 981.89612 608.36328 981.18164 L 714.76367 970.22461 C 721.70184 969.51013 726.71252 963.35028 725.99805 956.41211 L 636.16406 84.0625 C 635.5389 77.991602 630.74522 73.39555 624.9082 72.820312 z "
             inkscape:radius="0"
             sodipodi:type="inkscape:offset"
             inkscape:label="#path7428"
             inkscape:href="#rect6833" />
        </g>
        <g
           id="g4316">
          <path
             inkscape:label="#path4307"
             sodipodi:type="inkscape:offset"
             inkscape:radius="0"
             inkscape:original="M 624.9082 72.820312 C 624.07434 72.738136 623.21883 72.738815 622.35156 72.828125 L 515.95117 83.785156 C 509.013 84.499633 504.00232 90.659487 504.7168 97.597656 L 594.54883 969.94727 C 595.26331 976.88544 601.42511 981.89612 608.36328 981.18164 L 714.76367 970.22461 C 721.70184 969.51013 726.71252 963.35028 725.99805 956.41211 L 636.16406 84.0625 C 635.5389 77.991602 630.74522 73.39555 624.9082 72.820312 z "
             xlink:href="#rect6833"
             style="fill:url(#radialGradient4309);fill-opacity:1;fill-rule:evenodd;stroke:none;stroke-width:2;stroke-miterlimit:4;stroke-dasharray:none;stroke-opacity:1"
             id="yellow_book_bottom_cap"
             d="m 624.9082,72.820312 c -0.83386,-0.08218 -1.68937,-0.0815 -2.55664,0.0078 L 515.95117,83.785156 c -6.93817,0.714477 -11.94885,6.874331 -11.23437,13.8125 l 89.83203,872.349614 c 0.71448,6.93817 6.87628,11.94885 13.81445,11.23437 l 106.40039,-10.95703 c 6.93817,-0.71448 11.94885,-6.87433 11.23438,-13.8125 L 636.16406,84.0625 C 635.5389,77.991602 630.74522,73.39555 624.9082,72.820312 Z"
             transform="matrix(0.99488242,0.10103949,-0.10103949,0.99488242,37.111704,-71.156068)"
             inkscape:href="#rect6833" />
          <path
             inkscape:label="#path4279"
             sodipodi:type="inkscape:offset"
             inkscape:radius="0"
             inkscape:original="M 624.9082 72.820312 C 624.07434 72.738136 623.21883 72.738815 622.35156 72.828125 L 515.95117 83.785156 C 509.013 84.499633 504.00232 90.659487 504.7168 97.597656 L 594.54883 969.94727 C 595.26331 976.88544 601.42511 981.89612 608.36328 981.18164 L 714.76367 970.22461 C 721.70184 969.51013 726.71252 963.35028 725.99805 956.41211 L 636.16406 84.0625 C 635.5389 77.991602 630.74522 73.39555 624.9082 72.820312 z "
             xlink:href="#rect6833"
             style="fill:url(#radialGradient4287);fill-opacity:1;fill-rule:evenodd;stroke:none;stroke-width:2;stroke-miterlimit:4;stroke-dasharray:none;stroke-opacity:1"
             id="yellow_book_top_cap"
             d="m 624.9082,72.820312 c -0.83386,-0.08218 -1.68937,-0.0815 -2.55664,0.0078 L 515.95117,83.785156 c -6.93817,0.714477 -11.94885,6.874331 -11.23437,13.8125 l 89.83203,872.349614 c 0.71448,6.93817 6.87628,11.94885 13.81445,11.23437 l 106.40039,-10.95703 c 6.93817,-0.71448 11.94885,-6.87433 11.23438,-13.8125 L 636.16406,84.0625 C 635.5389,77.991602 630.74522,73.39555 624.9082,72.820312 Z"
             transform="matrix(0.99488242,0.10103949,-0.10103949,0.99488242,37.111704,-71.156068)"
             inkscape:href="#rect6833" />
        </g>
      </g>
    </g>
  </g>
</svg>
