<?xml version="1.0" encoding="UTF-8" standalone="no"?>
<!-- Created with Inkscape (http://www.inkscape.org/) -->

<svg
   xmlns:dc="http://purl.org/dc/elements/1.1/"
   xmlns:cc="http://creativecommons.org/ns#"
   xmlns:rdf="http://www.w3.org/1999/02/22-rdf-syntax-ns#"
   xmlns:svg="http://www.w3.org/2000/svg"
   xmlns="http://www.w3.org/2000/svg"
   xmlns:xlink="http://www.w3.org/1999/xlink"
   xmlns:sodipodi="http://sodipodi.sourceforge.net/DTD/sodipodi-0.dtd"
   xmlns:inkscape="http://www.inkscape.org/namespaces/inkscape"
   width="128"
   height="128"
   viewBox="0 0 128 128"
   id="svg2"
   version="1.1"
   inkscape:version="0.91 r13725"
   sodipodi:docname="dialog_error.svg">
  <defs
     id="defs4">
    <linearGradient
       inkscape:collect="always"
       id="linearGradient4145">
      <stop
         style="stop-color:#7c0000;stop-opacity:1"
         offset="0"
         id="stop4147" />
      <stop
         style="stop-color:#e20000;stop-opacity:1"
         offset="1"
         id="stop4149" />
    </linearGradient>
    <radialGradient
       inkscape:collect="always"
       xlink:href="#linearGradient4145"
       id="radialGradient4151"
       cx="64"
       cy="988.36216"
       fx="64"
       fy="988.36216"
       r="52"
       gradientTransform="matrix(1,0,0,1.2115383,0,-209.07642)"
       gradientUnits="userSpaceOnUse" />
  </defs>
  <sodipodi:namedview
     id="base"
     pagecolor="#ffffff"
     bordercolor="#666666"
     borderopacity="1.0"
     inkscape:pageopacity="0.0"
     inkscape:pageshadow="2"
     inkscape:zoom="11.2"
     inkscape:cx="-10.424833"
     inkscape:cy="65.966103"
     inkscape:document-units="px"
     inkscape:current-layer="layer1"
     showgrid="false"
     units="px"
     inkscape:window-width="3840"
     inkscape:window-height="2128"
     inkscape:window-x="0"
     inkscape:window-y="32"
     inkscape:window-maximized="0" />
  <metadata
     id="metadata7">
    <rdf:RDF>
      <cc:Work
         rdf:about="">
        <dc:format>image/svg+xml</dc:format>
        <dc:type
           rdf:resource="http://purl.org/dc/dcmitype/StillImage" />
        <dc:title />
        <dc:creator>
          <cc:Agent>
            <dc:title>Kovid Goyal</dc:title>
          </cc:Agent>
        </dc:creator>
        <dc:rights>
          <cc:Agent>
            <dc:title />
          </cc:Agent>
        </dc:rights>
        <dc:publisher>
          <cc:Agent>
            <dc:title />
          </cc:Agent>
        </dc:publisher>
        <cc:license
           rdf:resource="http://creativecommons.org/licenses/by-sa/3.0/" />
      </cc:Work>
      <cc:License
         rdf:about="http://creativecommons.org/licenses/by-sa/3.0/">
        <cc:permits
           rdf:resource="http://creativecommons.org/ns#Reproduction" />
        <cc:permits
           rdf:resource="http://creativecommons.org/ns#Distribution" />
        <cc:requires
           rdf:resource="http://creativecommons.org/ns#Notice" />
        <cc:requires
           rdf:resource="http://creativecommons.org/ns#Attribution" />
        <cc:permits
           rdf:resource="http://creativecommons.org/ns#DerivativeWorks" />
        <cc:requires
           rdf:resource="http://creativecommons.org/ns#ShareAlike" />
      </cc:License>
    </rdf:RDF>
  </metadata>
  <g
     inkscape:label="Layer 1"
     inkscape:groupmode="layer"
     id="layer1"
     transform="translate(0,-924.36216)">
    <path
       style="fill:url(#radialGradient4151);fill-opacity:1"
       d="M 107.20569,936.15116 63.932147,925.36217 20.6586,936.15116 c -5.164906,1.26104 -8.7943,5.8849 -8.654708,11.20933 l 0,56.74731 c 0,3.3628 1.39592,6.4453 3.908578,8.6871 l 40.481704,35.73 c 4.327355,3.783 10.888183,3.783 15.215537,0 l 40.481709,-35.73 c 2.51266,-2.2418 3.90858,-5.3243 3.90858,-8.6871 l 0,-56.74731 c -0.13961,-5.32443 -3.6294,-9.94828 -8.79431,-11.20933 z"
       id="path4157" />
    <g
       id="g4163"
       style="fill:#ffffff;fill-opacity:1"
       transform="matrix(1.202086,0,0,1.2024725,-12.777027,-196.71891)">
      <path
         id="path6"
         d="m 72.586855,969.35881 c -0.279183,1.40116 -0.977144,3.64304 -1.954288,6.44537 -1.395921,4.2035 -2.373065,7.42616 -2.791842,9.94824 -0.558368,2.38203 -0.837553,4.76396 -0.977146,7.28618 0,0.8406 -0.139591,1.8215 -0.69796,2.522 -0.418776,0.5605 -1.256328,0.8408 -1.954288,0.7006 -0.558369,0 -1.256329,-0.1401 -1.675105,-0.5605 -0.418777,-0.5604 -0.69796,-1.4011 -0.69796,-2.1017 -0.139593,-1.9617 -0.279184,-3.36283 -0.418777,-4.20347 -0.139592,-0.84072 -0.418776,-2.10181 -0.837552,-3.92332 -0.69796,-2.8023 -1.675106,-5.74474 -2.791843,-8.96745 -1.39592,-3.78315 -2.233472,-6.30525 -2.512657,-7.70641 -0.418776,-1.54129 -0.558368,-3.08258 -0.558368,-4.62386 0,-2.5221 0.837553,-5.0442 2.512657,-7.00583 1.675105,-2.10175 4.187763,-3.3628 6.840012,-3.22269 2.512658,0 4.885724,1.12094 6.421236,3.08258 1.814698,2.24186 2.652249,5.04419 2.512658,7.98664 0,1.54128 -0.139593,2.94245 -0.418777,4.34362 z"
         style="fill:#ffffff;fill-opacity:1"
         inkscape:connector-curvature="0" />
      <path
         inkscape:connector-curvature="0"
         id="path4155"
         d="m 63.932147,1017.1385 c -4.746131,0 -8.65471,-3.9232 -8.65471,-8.6871 0,-4.764 3.908579,-8.6873 8.65471,-8.6873 4.746131,0 8.654708,3.9233 8.654708,8.6873 0,4.7639 -3.908577,8.6871 -8.654708,8.6871 z"
         style="fill:#ffffff;fill-opacity:1" />
    </g>
  </g>
</svg>
