<?xml version="1.0" encoding="UTF-8" standalone="no"?>
<!-- Created with Inkscape (http://www.inkscape.org/) -->

<svg
   xmlns:dc="http://purl.org/dc/elements/1.1/"
   xmlns:cc="http://creativecommons.org/ns#"
   xmlns:rdf="http://www.w3.org/1999/02/22-rdf-syntax-ns#"
   xmlns:svg="http://www.w3.org/2000/svg"
   xmlns="http://www.w3.org/2000/svg"
   xmlns:xlink="http://www.w3.org/1999/xlink"
   xmlns:sodipodi="http://sodipodi.sourceforge.net/DTD/sodipodi-0.dtd"
   xmlns:inkscape="http://www.inkscape.org/namespaces/inkscape"
   width="128"
   height="128"
   viewBox="0 0 128 128"
   id="svg2"
   version="1.1"
   inkscape:version="0.91 r13725"
   sodipodi:docname="edit-copy.svg">
  <defs
     id="defs4">
    <linearGradient
       inkscape:collect="always"
       id="linearGradient4139">
      <stop
         style="stop-color:#0c7e1b;stop-opacity:1"
         offset="0"
         id="stop4141" />
      <stop
         style="stop-color:#30b241;stop-opacity:1"
         offset="1"
         id="stop4143" />
    </linearGradient>
    <radialGradient
       inkscape:collect="always"
       xlink:href="#linearGradient4139"
       id="radialGradient4145"
       cx="64"
       cy="988.36218"
       fx="64"
       fy="988.36218"
       r="63"
       gradientTransform="translate(0,-3.1376577e-4)"
       gradientUnits="userSpaceOnUse" />
  </defs>
  <sodipodi:namedview
     id="base"
     pagecolor="#ffffff"
     bordercolor="#666666"
     borderopacity="1.0"
     inkscape:pageopacity="0.0"
     inkscape:pageshadow="2"
     inkscape:zoom="22.627416"
     inkscape:cx="46.641459"
     inkscape:cy="59.461906"
     inkscape:document-units="px"
     inkscape:current-layer="layer1"
     showgrid="false"
     units="px"
     inkscape:window-width="3840"
     inkscape:window-height="2128"
     inkscape:window-x="0"
     inkscape:window-y="32"
     inkscape:window-maximized="0" />
  <metadata
     id="metadata7">
    <rdf:RDF>
      <cc:Work
         rdf:about="">
        <dc:format>image/svg+xml</dc:format>
        <dc:type
           rdf:resource="http://purl.org/dc/dcmitype/StillImage" />
        <dc:title />
        <dc:creator>
          <cc:Agent>
            <dc:title>Kovid Goyal</dc:title>
          </cc:Agent>
        </dc:creator>
        <dc:rights>
          <cc:Agent>
            <dc:title />
          </cc:Agent>
        </dc:rights>
        <dc:publisher>
          <cc:Agent>
            <dc:title />
          </cc:Agent>
        </dc:publisher>
        <cc:license
           rdf:resource="http://creativecommons.org/licenses/by-sa/3.0/" />
      </cc:Work>
      <cc:License
         rdf:about="http://creativecommons.org/licenses/by-sa/3.0/">
        <cc:permits
           rdf:resource="http://creativecommons.org/ns#Reproduction" />
        <cc:permits
           rdf:resource="http://creativecommons.org/ns#Distribution" />
        <cc:requires
           rdf:resource="http://creativecommons.org/ns#Notice" />
        <cc:requires
           rdf:resource="http://creativecommons.org/ns#Attribution" />
        <cc:permits
           rdf:resource="http://creativecommons.org/ns#DerivativeWorks" />
        <cc:requires
           rdf:resource="http://creativecommons.org/ns#ShareAlike" />
      </cc:License>
    </rdf:RDF>
  </metadata>
  <g
     inkscape:label="Layer 1"
     inkscape:groupmode="layer"
     id="layer1"
     transform="translate(0,-924.36216)">
    <path
       id="path4"
       style="fill:url(#radialGradient4145);fill-opacity:1"
       d="m 118,1042.3622 0,-81.00004 -27,0 0,29.25 q 0,2.8125 -1.96875,4.78125 -1.96875,1.96875 -4.78125,1.96875 l -29.25,0 0,45.00004 63,0 z M 50.78125,985.83091 73,963.61217 l 0,-29.25001 -27,0 0,29.25001 q 0,2.81249 -1.96875,4.78124 -1.96875,1.96875 -4.78125,1.96875 l -29.25,0 0,45.00004 36,0 0,-18.00004 q 0,-2.8125 1.40625,-6.1875 1.40625,-3.375 3.375,-5.34375 z M 37,940.33872 l -21.02344,21.02344 21.02344,0 0,-21.02344 z m 45,27 -21.02343,21.02344 21.02343,0 0,-21.02344 z m 38.25,-14.97656 q 2.8125,0 4.78125,1.96875 Q 127,956.29966 127,959.11216 l 0,85.50004 q 0,2.8125 -1.96875,4.7812 -1.96875,1.9688 -4.78125,1.9688 l -67.5,0 q -2.8125,0 -4.78125,-1.9688 Q 46,1047.4247 46,1044.6122 l 0,-20.25 -38.25,0 q -2.8125,0 -4.78125,-1.9688 Q 1,1020.4247 1,1017.6122 l 0,-47.25004 q 0,-2.81249 1.40625,-6.1875 1.40625,-3.375 3.375,-5.34375 l 28.6875,-28.6875 q 1.96875,-1.96875 5.34375,-3.375 3.375,-1.40625 6.1875,-1.40625 l 29.25,0 q 2.8125,0 4.78125,1.96875 Q 82,929.29966 82,932.11217 l 0,23.06249 q 4.78125,-2.8125 9,-2.8125 l 29.25,0 z" />
    <path
       style="fill:#2149c1;fill-opacity:1"
       d="m 37,940.33872 -21.02344,21.02344 21.02344,0 z m 36,23.27345 0,-29.25001 -27,0 c -0.02042,9.97976 0.04091,19.96133 -0.03076,29.93995 -0.250252,4.07148 -4.435187,6.63772 -8.254207,6.06005 l -27.715031,0 0,45.00004 36,0 0,9 c -12.979754,-0.02 -25.96133,0.041 -38.9399414,-0.031 -4.0714417,-0.2501 -6.63773528,-4.4349 -6.0600586,-8.254 0.014586,-15.4755 -0.0292134,-30.95197 0.021973,-46.42695 0.3402367,-5.4141 3.5223417,-10.04233 7.4727445,-13.53281 9.0340545,-8.95433 17.9139465,-18.07489 27.0462985,-26.92325 4.100446,-3.32858 9.440696,-4.12321 14.552234,-3.83203 8.834578,0.0786 17.687411,-0.15949 26.510266,0.12305 3.91375,0.64488 5.909632,4.76166 5.396484,8.41776 l 0,21.27169 c 0,0 -16.708261,15.5236 -9.000002,8.43751 z"
       id="path4195"
       inkscape:connector-curvature="0"
       sodipodi:nodetypes="ccccccccccccccccccccccc" />
  </g>
</svg>
