<?xml version="1.0" encoding="UTF-8" standalone="no"?>
<!-- Created with Inkscape (http://www.inkscape.org/) -->

<svg
   xmlns:dc="http://purl.org/dc/elements/1.1/"
   xmlns:cc="http://creativecommons.org/ns#"
   xmlns:rdf="http://www.w3.org/1999/02/22-rdf-syntax-ns#"
   xmlns:svg="http://www.w3.org/2000/svg"
   xmlns="http://www.w3.org/2000/svg"
   xmlns:sodipodi="http://sodipodi.sourceforge.net/DTD/sodipodi-0.dtd"
   xmlns:inkscape="http://www.inkscape.org/namespaces/inkscape"
   width="128"
   height="128"
   viewBox="0 0 128 128"
   id="svg2"
   version="1.1"
   inkscape:version="0.91 r13725"
   sodipodi:docname="format-text-underline.svg">
  <defs
     id="defs4" />
  <sodipodi:namedview
     id="base"
     pagecolor="#ffffff"
     bordercolor="#666666"
     borderopacity="1.0"
     inkscape:pageopacity="0.0"
     inkscape:pageshadow="2"
     inkscape:zoom="11.2"
     inkscape:cx="19.843024"
     inkscape:cy="69.707741"
     inkscape:document-units="px"
     inkscape:current-layer="layer1"
     showgrid="false"
     units="px"
     inkscape:window-width="3840"
     inkscape:window-height="2128"
     inkscape:window-x="0"
     inkscape:window-y="32"
     inkscape:window-maximized="0" />
  <metadata
     id="metadata7">
    <rdf:RDF>
      <cc:Work
         rdf:about="">
        <dc:format>image/svg+xml</dc:format>
        <dc:type
           rdf:resource="http://purl.org/dc/dcmitype/StillImage" />
        <dc:title />
        <dc:creator>
          <cc:Agent>
            <dc:title>Kovid Goyal</dc:title>
          </cc:Agent>
        </dc:creator>
        <dc:rights>
          <cc:Agent>
            <dc:title />
          </cc:Agent>
        </dc:rights>
        <dc:publisher>
          <cc:Agent>
            <dc:title />
          </cc:Agent>
        </dc:publisher>
        <cc:license
           rdf:resource="http://creativecommons.org/licenses/by-sa/3.0/" />
      </cc:Work>
      <cc:License
         rdf:about="http://creativecommons.org/licenses/by-sa/3.0/">
        <cc:permits
           rdf:resource="http://creativecommons.org/ns#Reproduction" />
        <cc:permits
           rdf:resource="http://creativecommons.org/ns#Distribution" />
        <cc:requires
           rdf:resource="http://creativecommons.org/ns#Notice" />
        <cc:requires
           rdf:resource="http://creativecommons.org/ns#Attribution" />
        <cc:permits
           rdf:resource="http://creativecommons.org/ns#DerivativeWorks" />
        <cc:requires
           rdf:resource="http://creativecommons.org/ns#ShareAlike" />
      </cc:License>
    </rdf:RDF>
  </metadata>
  <g
     inkscape:label="Layer 1"
     inkscape:groupmode="layer"
     id="layer1"
     transform="translate(0,-924.36216)">
    <path
       d="m 4.9375,933.15516 q -3.03516,-0.1641 -3.69141,-0.3282 L 1,925.60826 q 1.06641,-0.082 3.28125,-0.082 4.92188,0 9.1875,0.3281 10.82813,0.5742 13.61719,0.5742 7.05469,0 13.78125,-0.2461 9.51562,-0.3281 11.97656,-0.4102 4.59375,0 7.05469,-0.164 l -0.082,1.1484 0.16406,5.25 0,0.7383 q -4.92188,0.7383 -10.17188,0.7383 -4.92187,0 -6.48046,2.0508 -1.06641,1.1484 -1.06641,10.8281 0,1.0664 0.041,2.666 0.041,1.5996 0.041,2.0918 l 0.082,18.7852 1.14844,22.9687 q 0.49219,10.17194 4.18359,16.57034 2.8711,4.8399 7.875,7.5469 7.21875,3.8555 14.51953,3.8555 8.53125,0 15.66797,-2.2969 4.59375,-1.4766 8.1211,-4.1836 3.9375,-2.9531 5.33203,-5.25 2.95312,-4.5937 4.34765,-9.35164 1.72266,-5.9882 1.72266,-18.7851 0,-6.4805 -0.28711,-10.5 -0.28711,-4.0195 -0.90234,-10.0488 -0.61524,-6.0293 -1.10742,-13.084 l -0.32813,-4.8399 q -0.41016,-5.4961 -1.96875,-7.2187 -2.78906,-2.8711 -6.31641,-2.7891 l -8.20312,0.1641 -1.14844,-0.2461 0.16406,-7.0547 6.89063,0 16.81641,0.8203 q 6.23437,0.2461 16.07812,-0.8203 l 1.47656,0.1641 q 0.49219,3.1171 0.49219,4.1835 0,0.5743 -0.32812,2.543 -3.69141,0.9844 -6.89063,1.0664 -5.98828,0.9024 -6.48047,1.3946 -1.23047,1.2304 -1.23047,3.3632 0,0.5743 0.12305,2.2149 0.12305,1.6406 0.12305,2.543 0.65625,1.5585 1.80468,32.4843 0.49219,15.9961 -1.23046,24.93754 -1.23047,6.2344 -3.36329,10.0078 -3.11718,5.3321 -9.1875,10.0899 -6.15234,4.6758 -14.92968,7.3008 -8.94141,2.707 -20.91797,2.707 -13.69922,0 -23.29688,-3.7734 -9.76172,-3.8555 -14.68359,-10.0078 -5.00391,-6.2344 -6.80859,-15.9961 -1.3125,-6.56254 -1.3125,-19.44154 l 0,-27.3164 q 0,-15.4218 -1.39454,-17.4726 -2.05078,-2.9531 -12.05859,-3.1992 z"
       id="path4141"
       style="fill:#052147;fill-opacity:1" />
    <path
       d="m 127,1048.7372 0,-5.25 q 0,-1.1484 -0.73828,-1.8867 -0.73828,-0.7383 -1.88672,-0.7383 l -120.75,0 q -1.14844,0 -1.88672,0.7383 Q 1,1042.3388 1,1043.4872 l 0,5.25 q 0,1.1484 0.73828,1.8867 0.73828,0.7383 1.88672,0.7383 l 120.75,0 q 1.14844,0 1.88672,-0.7383 Q 127,1049.8856 127,1048.7372 Z"
       id="path4"
       style="fill:#0d5cc6;fill-opacity:1" />
  </g>
</svg>
