<?xml version="1.0" encoding="UTF-8" standalone="no"?>
<!-- Created with Inkscape (http://www.inkscape.org/) -->

<svg
   xmlns:dc="http://purl.org/dc/elements/1.1/"
   xmlns:cc="http://creativecommons.org/ns#"
   xmlns:rdf="http://www.w3.org/1999/02/22-rdf-syntax-ns#"
   xmlns:svg="http://www.w3.org/2000/svg"
   xmlns="http://www.w3.org/2000/svg"
   xmlns:xlink="http://www.w3.org/1999/xlink"
   xmlns:sodipodi="http://sodipodi.sourceforge.net/DTD/sodipodi-0.dtd"
   xmlns:inkscape="http://www.inkscape.org/namespaces/inkscape"
   width="128"
   height="128"
   viewBox="0 0 128 128"
   id="svg2"
   version="1.1"
   inkscape:version="0.91 r13725"
   sodipodi:docname="plusplus.svg">
  <defs
     id="defs4">
    <radialGradient
       inkscape:collect="always"
       xlink:href="#linearGradient4142"
       id="radialGradient4148"
       cx="64"
       cy="999.36212"
       fx="64"
       fy="999.36212"
       r="29"
       gradientTransform="matrix(0.94827586,0,0,0.94827786,-23.618226,61.903596)"
       gradientUnits="userSpaceOnUse" />
    <linearGradient
       inkscape:collect="always"
       id="linearGradient4142">
      <stop
         style="stop-color:#34ae3d;stop-opacity:1;"
         offset="0"
         id="stop4144" />
      <stop
         style="stop-color:#26822e;stop-opacity:1"
         offset="1"
         id="stop4146" />
    </linearGradient>
    <radialGradient
       inkscape:collect="always"
       xlink:href="#linearGradient4142"
       id="radialGradient4176"
       gradientUnits="userSpaceOnUse"
       gradientTransform="matrix(0.94827586,0,0,0.94827786,32.363917,14.760739)"
       cx="64"
       cy="999.36212"
       fx="64"
       fy="999.36212"
       r="29" />
  </defs>
  <sodipodi:namedview
     id="base"
     pagecolor="#ffffff"
     bordercolor="#666666"
     borderopacity="1.0"
     inkscape:pageopacity="0.0"
     inkscape:pageshadow="2"
     inkscape:zoom="11.2"
     inkscape:cx="67.597152"
     inkscape:cy="69.707741"
     inkscape:document-units="px"
     inkscape:current-layer="layer1"
     showgrid="false"
     units="px"
     inkscape:window-width="3840"
     inkscape:window-height="2128"
     inkscape:window-x="0"
     inkscape:window-y="32"
     inkscape:window-maximized="0" />
  <metadata
     id="metadata7">
    <rdf:RDF>
      <cc:Work
         rdf:about="">
        <dc:format>image/svg+xml</dc:format>
        <dc:type
           rdf:resource="http://purl.org/dc/dcmitype/StillImage" />
        <dc:title></dc:title>
        <dc:creator>
          <cc:Agent>
            <dc:title>Kovid Goyal</dc:title>
          </cc:Agent>
        </dc:creator>
        <dc:rights>
          <cc:Agent>
            <dc:title />
          </cc:Agent>
        </dc:rights>
        <dc:publisher>
          <cc:Agent>
            <dc:title />
          </cc:Agent>
        </dc:publisher>
        <cc:license
           rdf:resource="http://creativecommons.org/licenses/by-sa/3.0/" />
      </cc:Work>
      <cc:License
         rdf:about="http://creativecommons.org/licenses/by-sa/3.0/">
        <cc:permits
           rdf:resource="http://creativecommons.org/ns#Reproduction" />
        <cc:permits
           rdf:resource="http://creativecommons.org/ns#Distribution" />
        <cc:requires
           rdf:resource="http://creativecommons.org/ns#Notice" />
        <cc:requires
           rdf:resource="http://creativecommons.org/ns#Attribution" />
        <cc:permits
           rdf:resource="http://creativecommons.org/ns#DerivativeWorks" />
        <cc:requires
           rdf:resource="http://creativecommons.org/ns#ShareAlike" />
      </cc:License>
    </rdf:RDF>
  </metadata>
  <g
     inkscape:label="Layer 1"
     inkscape:groupmode="layer"
     id="layer1"
     transform="translate(0,-924.36216)">
    <g
       id="g4181"
       transform="matrix(1.1353178,0,0,1.135663,-9.8666136,-131.40736)">
      <g
         id="g4178">
        <path
           inkscape:connector-curvature="0"
           d="m 64.571429,1005.8266 0,7.4999 q 0,1.5627 -1.093749,2.6562 -1.093745,1.0938 -2.656247,1.0938 l -16.250003,0 0,16.2502 q 0,1.5623 -1.093745,2.6561 -1.093753,1.0938 -2.656252,1.0938 l -7.499999,0 q -1.562507,0 -2.656252,-1.0938 -1.093752,-1.0938 -1.093752,-2.6561 l 0,-16.2502 -16.249998,0 q -1.562497,0 -2.656248,-1.0938 -1.0937554,-1.0935 -1.0937554,-2.6562 l 0,-7.4999 q 0,-1.5626 1.0937554,-2.6563 1.093751,-1.0938 2.656248,-1.0938 l 16.249998,0 0,-16.25001 q 0,-1.56255 1.093752,-2.65628 1.093745,-1.09373 2.656252,-1.09373 l 7.499999,0 q 1.562499,0 2.656252,1.09373 1.093745,1.09373 1.093745,2.65628 l 0,16.25001 16.250003,0 q 1.562502,0 2.656247,1.0938 1.093749,1.0937 1.093749,2.6563 z"
           id="path4-3"
           style="fill:url(#radialGradient4148);fill-opacity:1" />
      </g>
      <path
         inkscape:connector-curvature="0"
         d="m 120.55357,958.68374 0,7.4999 q 0,1.5627 -1.09375,2.6562 -1.09374,1.0938 -2.65624,1.0938 l -16.25001,0 0,16.2502 q 0,1.5623 -1.093742,2.6561 -1.093753,1.0938 -2.656252,1.0938 l -7.499999,0 q -1.562507,0 -2.656252,-1.0938 -1.093752,-1.0938 -1.093752,-2.6561 l 0,-16.2502 -16.249998,0 q -1.562497,0 -2.656248,-1.0938 -1.093756,-1.0935 -1.093756,-2.6562 l 0,-7.4999 q 0,-1.5626 1.093756,-2.6563 1.093751,-1.0938 2.656248,-1.0938 l 16.249998,0 0,-16.25001 q 0,-1.56255 1.093752,-2.65628 1.093745,-1.09373 2.656252,-1.09373 l 7.499999,0 q 1.562499,0 2.656252,1.09373 1.093742,1.09373 1.093742,2.65628 l 0,16.25001 16.25001,0 q 1.5625,0 2.65624,1.0938 1.09375,1.0937 1.09375,2.6563 z"
         id="path4174"
         style="fill:url(#radialGradient4176);fill-opacity:1" />
    </g>
  </g>
</svg>
