<?xml version="1.0" encoding="UTF-8" standalone="no"?>
<!-- Created with Inkscape (http://www.inkscape.org/) -->

<svg
   xmlns:dc="http://purl.org/dc/elements/1.1/"
   xmlns:cc="http://creativecommons.org/ns#"
   xmlns:rdf="http://www.w3.org/1999/02/22-rdf-syntax-ns#"
   xmlns:svg="http://www.w3.org/2000/svg"
   xmlns="http://www.w3.org/2000/svg"
   xmlns:xlink="http://www.w3.org/1999/xlink"
   xmlns:sodipodi="http://sodipodi.sourceforge.net/DTD/sodipodi-0.dtd"
   xmlns:inkscape="http://www.inkscape.org/namespaces/inkscape"
   width="128"
   height="128"
   viewBox="0 0 128 128"
   id="svg2"
   version="1.1"
   inkscape:version="0.91 r13725"
   sodipodi:docname="random.svg">
  <defs
     id="defs4">
    <linearGradient
       inkscape:collect="always"
       id="linearGradient4156">
      <stop
         style="stop-color:#176517;stop-opacity:1"
         offset="0"
         id="stop4158" />
      <stop
         style="stop-color:#76b943;stop-opacity:1"
         offset="1"
         id="stop4160" />
    </linearGradient>
    <linearGradient
       inkscape:collect="always"
       id="linearGradient4148">
      <stop
         style="stop-color:#3420ee;stop-opacity:1"
         offset="0"
         id="stop4150" />
      <stop
         style="stop-color:#1d1755;stop-opacity:0.98559672"
         offset="1"
         id="stop4152" />
    </linearGradient>
    <radialGradient
       inkscape:collect="always"
       xlink:href="#linearGradient4148"
       id="radialGradient4154"
       cx="338"
       cy="282"
       fx="338"
       fy="282"
       r="7"
       gradientUnits="userSpaceOnUse" />
    <radialGradient
       inkscape:collect="always"
       xlink:href="#linearGradient4156"
       id="radialGradient4162"
       cx="350"
       cy="269"
       fx="350"
       fy="269"
       r="8.65625"
       gradientUnits="userSpaceOnUse" />
  </defs>
  <sodipodi:namedview
     id="base"
     pagecolor="#ffffff"
     bordercolor="#666666"
     borderopacity="1.0"
     inkscape:pageopacity="0.0"
     inkscape:pageshadow="2"
     inkscape:zoom="11.2"
     inkscape:cx="19.843024"
     inkscape:cy="69.707741"
     inkscape:document-units="px"
     inkscape:current-layer="layer1"
     showgrid="false"
     units="px"
     inkscape:window-width="3840"
     inkscape:window-height="2128"
     inkscape:window-x="0"
     inkscape:window-y="32"
     inkscape:window-maximized="0" />
  <metadata
     id="metadata7">
    <rdf:RDF>
      <cc:Work
         rdf:about="">
        <dc:format>image/svg+xml</dc:format>
        <dc:type
           rdf:resource="http://purl.org/dc/dcmitype/StillImage" />
        <dc:title />
        <dc:creator>
          <cc:Agent>
            <dc:title>Kovid Goyal</dc:title>
          </cc:Agent>
        </dc:creator>
        <dc:rights>
          <cc:Agent>
            <dc:title />
          </cc:Agent>
        </dc:rights>
        <dc:publisher>
          <cc:Agent>
            <dc:title />
          </cc:Agent>
        </dc:publisher>
        <cc:license
           rdf:resource="http://creativecommons.org/licenses/by-sa/3.0/" />
      </cc:Work>
      <cc:License
         rdf:about="http://creativecommons.org/licenses/by-sa/3.0/">
        <cc:permits
           rdf:resource="http://creativecommons.org/ns#Reproduction" />
        <cc:permits
           rdf:resource="http://creativecommons.org/ns#Distribution" />
        <cc:requires
           rdf:resource="http://creativecommons.org/ns#Notice" />
        <cc:requires
           rdf:resource="http://creativecommons.org/ns#Attribution" />
        <cc:permits
           rdf:resource="http://creativecommons.org/ns#DerivativeWorks" />
        <cc:requires
           rdf:resource="http://creativecommons.org/ns#ShareAlike" />
      </cc:License>
    </rdf:RDF>
  </metadata>
  <g
     inkscape:label="Layer 1"
     inkscape:groupmode="layer"
     id="layer1"
     transform="translate(0,-924.36216)">
    <g
       id="g6"
       transform="matrix(4.3969466,0,0,4.3969466,-1452.1909,-219.35541)">
      <path
         id="path8"
         d="m 342,275 -8,0 c -1.656,0 -3,1.344 -3,3 l 0,8 c 0,1.656 1.344,3 3,3 l 8,0 c 1.657,0 3,-1.344 3,-3 l 0,-8 c 0,-1.656 -1.343,-3 -3,-3 z m -7.5,12 c -0.828,0 -1.5,-0.672 -1.5,-1.5 0,-0.828 0.672,-1.5 1.5,-1.5 0.828,0 1.5,0.672 1.5,1.5 0,0.828 -0.672,1.5 -1.5,1.5 z m 0,-7 c -0.828,0 -1.5,-0.672 -1.5,-1.5 0,-0.828 0.672,-1.5 1.5,-1.5 0.828,0 1.5,0.672 1.5,1.5 0,0.828 -0.672,1.5 -1.5,1.5 z m 3.5,3.5 c -0.828,0 -1.5,-0.672 -1.5,-1.5 0,-0.828 0.672,-1.5 1.5,-1.5 0.828,0 1.5,0.672 1.5,1.5 0,0.828 -0.672,1.5 -1.5,1.5 z m 3.5,3.5 c -0.828,0 -1.5,-0.672 -1.5,-1.5 0,-0.828 0.672,-1.5 1.5,-1.5 0.828,0 1.5,0.672 1.5,1.5 0,0.828 -0.672,1.5 -1.5,1.5 z m 0,-7 c -0.828,0 -1.5,-0.672 -1.5,-1.5 0,-0.828 0.672,-1.5 1.5,-1.5 0.828,0 1.5,0.672 1.5,1.5 0,0.828 -0.672,1.5 -1.5,1.5 z"
         inkscape:connector-curvature="0"
         style="fill:url(#radialGradient4154);fill-opacity:1" />
      <path
         id="path10"
         d="m 357.778,266.879 -5.657,-5.657 c -1.171,-1.171 -3.071,-1.171 -4.242,0 l -5.657,5.657 c -1.171,1.171 -1.171,3.071 0,4.242 l 5.657,5.657 c 1.171,1.171 3.071,1.171 4.242,0 l 5.657,-5.657 c 1.171,-1.171 1.171,-3.071 0,-4.242 z m -6.718,8.132 c -0.586,0.585 -1.535,0.585 -2.121,0 -0.586,-0.586 -0.586,-1.536 0,-2.122 0.586,-0.585 1.535,-0.585 2.121,0 0.586,0.586 0.586,1.536 0,2.122 z m 0,-4.951 c -0.586,0.586 -1.535,0.586 -2.121,0 -0.586,-0.586 -0.586,-1.535 0,-2.121 0.586,-0.586 1.535,-0.586 2.121,0 0.586,0.586 0.586,1.536 0,2.121 z m 0,-4.949 c -0.586,0.585 -1.535,0.585 -2.121,0 -0.586,-0.586 -0.586,-1.536 0,-2.122 0.586,-0.585 1.535,-0.585 2.121,0 0.586,0.586 0.586,1.536 0,2.122 z"
         inkscape:connector-curvature="0"
         style="fill-opacity:1;fill:url(#radialGradient4162)" />
    </g>
  </g>
</svg>
