<?xml version="1.0" encoding="UTF-8" standalone="no"?>
<!-- Created with Inkscape (http://www.inkscape.org/) -->

<svg
   xmlns:ns3="http://ns.adobe.com/AdobeIllustrator/10.0/"
   xmlns:dc="http://purl.org/dc/elements/1.1/"
   xmlns:cc="http://creativecommons.org/ns#"
   xmlns:rdf="http://www.w3.org/1999/02/22-rdf-syntax-ns#"
   xmlns:svg="http://www.w3.org/2000/svg"
   xmlns="http://www.w3.org/2000/svg"
   xmlns:sodipodi="http://sodipodi.sourceforge.net/DTD/sodipodi-0.dtd"
   xmlns:inkscape="http://www.inkscape.org/namespaces/inkscape"
   width="128"
   height="128"
   viewBox="0 0 128 128"
   id="svg2"
   version="1.1"
   inkscape:version="0.91 r13725"
   sodipodi:docname="sd.svg">
  <defs
     id="defs4">
    <linearGradient
       id="XMLID_12_"
       gradientUnits="userSpaceOnUse"
       x1="14.5835"
       y1="20.999001"
       x2="94.487701"
       y2="100.9032">
      <stop
         offset="0"
         style="stop-color:#A4C0E4"
         id="stop21" />
      <stop
         offset="1"
         style="stop-color:#001C56"
         id="stop23" />
    </linearGradient>
    <linearGradient
       id="XMLID_13_"
       gradientUnits="userSpaceOnUse"
       x1="21.132799"
       y1="42.0396"
       x2="28.8344"
       y2="38.188702">
      <stop
         offset="0"
         style="stop-color:#EEEEEE"
         id="stop28" />
      <stop
         offset="1"
         style="stop-color:#BBBBBB"
         id="stop30" />
    </linearGradient>
    <linearGradient
       id="XMLID_14_"
       gradientUnits="userSpaceOnUse"
       x1="14.5835"
       y1="20.999001"
       x2="94.487701"
       y2="100.9032">
      <stop
         offset="0"
         style="stop-color:#A4C0E4"
         id="stop37" />
      <stop
         offset="1"
         style="stop-color:#0057AE"
         id="stop39" />
    </linearGradient>
    <linearGradient
       id="XMLID_15_"
       gradientUnits="userSpaceOnUse"
       x1="14.5835"
       y1="20.999001"
       x2="94.487701"
       y2="100.9032">
      <stop
         offset="0"
         style="stop-color:#A4C0E4"
         id="stop44" />
      <stop
         offset="1"
         style="stop-color:#6193CF"
         id="stop46" />
    </linearGradient>
    <linearGradient
       id="XMLID_16_"
       gradientUnits="userSpaceOnUse"
       x1="14.582"
       y1="21.002001"
       x2="94.486198"
       y2="100.9061">
      <stop
         offset="0"
         style="stop-color:#2C72C7"
         id="stop51" />
      <stop
         offset="1"
         style="stop-color:#0057AE"
         id="stop53" />
    </linearGradient>
    <linearGradient
       id="XMLID_17_"
       gradientUnits="userSpaceOnUse"
       x1="70.951202"
       y1="111.9561"
       x2="58.436401"
       y2="23.389999">
      <stop
         offset="0"
         style="stop-color:#0057AE"
         id="stop58" />
      <stop
         offset="1"
         style="stop-color:#001C56"
         id="stop60" />
    </linearGradient>
    <linearGradient
       id="XMLID_18_"
       gradientUnits="userSpaceOnUse"
       x1="103.7051"
       y1="26.941401"
       x2="25.257099"
       y2="105.3894">
      <stop
         offset="0"
         style="stop-color:#DDDDDD"
         id="stop67" />
      <stop
         offset="1"
         style="stop-color:#BBBBBB"
         id="stop69" />
    </linearGradient>
    <linearGradient
       id="XMLID_19_"
       gradientUnits="userSpaceOnUse"
       x1="81.297897"
       y1="79.790001"
       x2="40.4776"
       y2="120.6103">
      <stop
         offset="0"
         style="stop-color:#779BC7"
         id="stop74" />
      <stop
         offset="1"
         style="stop-color:#91ADCF"
         id="stop76" />
    </linearGradient>
    <linearGradient
       id="XMLID_20_"
       gradientUnits="userSpaceOnUse"
       x1="64.234901"
       y1="121.3604"
       x2="64.234901"
       y2="116.0661">
      <stop
         offset="0"
         style="stop-color:#6193CF"
         id="stop81" />
      <stop
         offset="1"
         style="stop-color:#00316E"
         id="stop83" />
    </linearGradient>
    <linearGradient
       id="XMLID_21_"
       gradientUnits="userSpaceOnUse"
       x1="29.1035"
       y1="30.306601"
       x2="99.859398"
       y2="30.306601">
      <stop
         offset="0"
         style="stop-color:#EEEEEE"
         id="stop94" />
      <stop
         offset="1"
         style="stop-color:#FFFFFF"
         id="stop96" />
    </linearGradient>
    <linearGradient
       id="XMLID_22_"
       gradientUnits="userSpaceOnUse"
       x1="95.443398"
       y1="35.625999"
       x2="89.812103"
       y2="29.994699">
      <stop
         offset="0"
         style="stop-color:#E20800"
         id="stop127" />
      <stop
         offset="1"
         style="stop-color:#E85752"
         id="stop129" />
    </linearGradient>
  </defs>
  <sodipodi:namedview
     id="base"
     pagecolor="#ffffff"
     bordercolor="#666666"
     borderopacity="1.0"
     inkscape:pageopacity="0.0"
     inkscape:pageshadow="2"
     inkscape:zoom="11.2"
     inkscape:cx="19.843024"
     inkscape:cy="69.707741"
     inkscape:document-units="px"
     inkscape:current-layer="layer1"
     showgrid="false"
     units="px"
     inkscape:window-width="3840"
     inkscape:window-height="2128"
     inkscape:window-x="0"
     inkscape:window-y="32"
     inkscape:window-maximized="0" />
  <metadata
     id="metadata7">
    <rdf:RDF>
      <cc:Work
         rdf:about="">
        <dc:format>image/svg+xml</dc:format>
        <dc:type
           rdf:resource="http://purl.org/dc/dcmitype/StillImage" />
        <dc:title />
        <dc:creator>
          <cc:Agent>
            <dc:title>Kovid Goyal</dc:title>
          </cc:Agent>
        </dc:creator>
        <dc:rights>
          <cc:Agent>
            <dc:title />
          </cc:Agent>
        </dc:rights>
        <dc:publisher>
          <cc:Agent>
            <dc:title />
          </cc:Agent>
        </dc:publisher>
        <cc:license
           rdf:resource="http://creativecommons.org/licenses/by-sa/3.0/" />
      </cc:Work>
      <cc:License
         rdf:about="http://creativecommons.org/licenses/by-sa/3.0/">
        <cc:permits
           rdf:resource="http://creativecommons.org/ns#Reproduction" />
        <cc:permits
           rdf:resource="http://creativecommons.org/ns#Distribution" />
        <cc:requires
           rdf:resource="http://creativecommons.org/ns#Notice" />
        <cc:requires
           rdf:resource="http://creativecommons.org/ns#Attribution" />
        <cc:permits
           rdf:resource="http://creativecommons.org/ns#DerivativeWorks" />
        <cc:requires
           rdf:resource="http://creativecommons.org/ns#ShareAlike" />
      </cc:License>
    </rdf:RDF>
  </metadata>
  <g
     inkscape:label="Layer 1"
     inkscape:groupmode="layer"
     id="layer1"
     transform="translate(0,-924.36216)">
    <g
       id="g7"
       ns3:extraneous="self"
       transform="translate(0,924.36216)">
      <rect
         height="128"
         width="128"
         id="_x3C_Sezione_x3E_"
         x="0"
         y="0"
         style="fill:none" />
      <linearGradient
         y2="100.9032"
         x2="94.487701"
         y1="20.999001"
         x1="14.5835"
         gradientUnits="userSpaceOnUse"
         id="linearGradient4312">
        <stop
           id="stop4314"
           style="stop-color:#A4C0E4"
           offset="0" />
        <stop
           id="stop4316"
           style="stop-color:#001C56"
           offset="1" />
      </linearGradient>
      <path
         id="path25"
         d="M 94.083,6 21.884,6 c -1.063,0 -1.925,0.862 -1.925,1.925 l 0,24.544 c 0,0.966 -0.001,1.927 1.929,1.925 l 1.921,-0.004 0,24.067 -1.927,0.003 c -1.924,0.003 -1.923,0.485 -1.923,1.925 l 0,59.688 c 0,1.063 0.862,1.926 1.925,1.926 l 34.47,0 c 0.584,0 1.29,-0.486 1.655,-0.943 l 0.027,-0.034 12.943,0.015 c 0.366,0.456 1.046,0.963 1.63,0.963 l 33.507,0 c 1.062,0 1.926,-0.862 1.926,-1.926 l 0,-70.754 c 0,-1.444 -0.481,-1.925 -1.926,-1.925 l -0.963,0 0,-5.725 0.999,-0.018 c 1.408,-0.033 1.89,-0.514 1.89,-1.925 l 0,-19.287 L 94.083,6 Z"
         inkscape:connector-curvature="0"
         style="fill:url(#XMLID_12_)" />
      <linearGradient
         y2="38.188702"
         x2="28.8344"
         y1="42.0396"
         x1="21.132799"
         gradientUnits="userSpaceOnUse"
         id="linearGradient4319">
        <stop
           id="stop4321"
           style="stop-color:#EEEEEE"
           offset="0" />
        <stop
           id="stop4323"
           style="stop-color:#BBBBBB"
           offset="1" />
      </linearGradient>
      <path
         id="path32"
         d="m 29.104,44.025 c 0,1.063 -0.862,1.925 -1.925,1.925 l -5.294,0 c -1.063,0 -1.925,-0.862 -1.925,-1.925 l 0,-7.371 c 0,-1.063 0.862,-1.925 1.925,-1.925 l 5.294,0 c 1.063,0 1.925,0.862 1.925,1.925 l 0,7.371 z"
         inkscape:connector-curvature="0"
         style="fill:url(#XMLID_13_)" />
      <path
         id="path34"
         d="m 21.884,35.691 c -0.531,0 -0.963,0.432 -0.963,0.962 l 0,7.371 c 0,0.531 0.432,0.963 0.963,0.963 l 5.294,0 c 0.531,0 0.963,-0.432 0.963,-0.963 l 0,-7.371 c 0,-0.53 -0.432,-0.962 -0.963,-0.962 l -5.294,0 z"
         inkscape:connector-curvature="0"
         style="fill:#dddddd" />
      <linearGradient
         y2="100.9032"
         x2="94.487701"
         y1="20.999001"
         x1="14.5835"
         gradientUnits="userSpaceOnUse"
         id="linearGradient4327">
        <stop
           id="stop4329"
           style="stop-color:#A4C0E4"
           offset="0" />
        <stop
           id="stop4331"
           style="stop-color:#0057AE"
           offset="1" />
      </linearGradient>
      <path
         id="path41"
         d="M 94.083,6 21.884,6 c -1.063,0 -1.925,0.862 -1.925,1.925 l 0,24.544 c 0,0.512 0.203,1.001 0.565,1.363 0.362,0.361 0.853,0.563 1.364,0.562 l 1.921,-0.004 0,24.067 -1.927,0.003 c -1.062,0.002 -1.923,0.863 -1.923,1.925 l 0,59.688 c 0,1.063 0.862,1.926 1.925,1.926 l 34.47,0 c 0.584,0 1.29,-0.486 1.655,-0.943 l 0.027,-0.034 12.943,0.015 c 0.366,0.456 1.046,0.963 1.63,0.963 l 33.507,0 c 1.062,0 1.926,-0.862 1.926,-1.926 l 0,-70.754 c 0,-1.063 -0.863,-1.925 -1.926,-1.925 l -0.963,0 0,-5.725 0.999,-0.018 c 1.05,-0.019 1.89,-0.875 1.89,-1.925 l 0,-19.287 L 94.083,6 Z"
         inkscape:connector-curvature="0"
         style="fill:url(#XMLID_14_)" />
      <linearGradient
         y2="100.9032"
         x2="94.487701"
         y1="20.999001"
         x1="14.5835"
         gradientUnits="userSpaceOnUse"
         id="linearGradient4334">
        <stop
           id="stop4336"
           style="stop-color:#A4C0E4"
           offset="0" />
        <stop
           id="stop4338"
           style="stop-color:#6193CF"
           offset="1" />
      </linearGradient>
      <path
         id="path48"
         d="M 94.083,6 21.884,6 c -1.063,0 -1.925,0.862 -1.925,1.925 l 0,24.544 c 0,0.512 0.203,1.001 0.565,1.363 0.362,0.361 0.853,0.563 1.364,0.562 l 1.921,-0.004 0,24.067 -1.927,0.003 c -1.062,0.002 -1.923,0.863 -1.923,1.925 l 0,59.688 c 0,1.063 0.862,1.926 1.925,1.926 l 34.47,0 c 0.584,0 1.29,-0.486 1.655,-0.943 l 0.027,-0.034 12.943,0.015 c 0.366,0.456 1.046,0.963 1.63,0.963 l 33.507,0 c 1.062,0 1.926,-0.862 1.926,-1.926 l 0,-70.754 c 0,-1.063 -0.863,-1.925 -1.926,-1.925 l -0.963,0 0,-5.725 0.999,-0.018 c 1.05,-0.019 1.89,-0.875 1.89,-1.925 l 0,-19.287 L 94.083,6 Z"
         inkscape:connector-curvature="0"
         style="fill:url(#XMLID_15_)" />
      <linearGradient
         y2="100.9061"
         x2="94.486198"
         y1="21.002001"
         x1="14.582"
         gradientUnits="userSpaceOnUse"
         id="linearGradient4341">
        <stop
           id="stop4343"
           style="stop-color:#2C72C7"
           offset="0" />
        <stop
           id="stop4345"
           style="stop-color:#0057AE"
           offset="1" />
      </linearGradient>
      <path
         id="path55"
         d="m 21.884,7 c -0.51,0 -0.925,0.415 -0.925,0.925 l 0,24.544 c 0,0.248 0.096,0.48 0.271,0.655 0.175,0.174 0.408,0.271 0.656,0.27 l 2.923,-0.006 0,26.068 -2.926,0.004 c -0.51,10e-4 -0.925,0.416 -0.925,0.925 l 0,59.688 c 0,0.511 0.415,0.926 0.925,0.926 l 34.47,0 c 0.165,0 0.615,-0.244 0.875,-0.568 l 0.301,-0.376 0.508,-0.033 13.422,0.016 0.3,0.373 c 0.274,0.342 0.698,0.589 0.851,0.589 l 33.507,0 c 0.511,0 0.926,-0.415 0.926,-0.926 l 0,-70.754 c 0,-0.51 -0.415,-0.925 -0.926,-0.925 l -1.963,0 0,-7.707 1.98,-0.036 c 0.501,-0.009 0.908,-0.424 0.908,-0.925 0,0 0,-18.107 0,-18.882 C 106.514,20.298 94.212,7.572 93.659,7 92.82,7 21.884,7 21.884,7 Z"
         inkscape:connector-curvature="0"
         style="fill:url(#XMLID_16_)" />
      <linearGradient
         y2="23.389999"
         x2="58.436401"
         y1="111.9561"
         x1="70.951202"
         gradientUnits="userSpaceOnUse"
         id="linearGradient4348">
        <stop
           id="stop4350"
           style="stop-color:#0057AE"
           offset="0" />
        <stop
           id="stop4352"
           style="stop-color:#001C56"
           offset="1" />
      </linearGradient>
      <path
         id="path62"
         d="m 102.747,108.042 c 0,3.189 -2.587,5.775 -5.776,5.775 l -64.979,0 c -3.189,0 -5.776,-2.586 -5.776,-5.775 l 0,-83.752 c 0,-3.189 2.586,-5.776 5.776,-5.776 l 64.979,0 c 3.189,0 5.776,2.586 5.776,5.776 l 0,83.752 z"
         inkscape:connector-curvature="0"
         style="fill:url(#XMLID_17_)" />
      <path
         id="path64"
         d="m 31.992,19.514 c -2.633,0 -4.776,2.143 -4.776,4.776 l 0,83.752 c 0,2.633 2.143,4.775 4.776,4.775 l 64.979,0 c 2.634,0 4.776,-2.143 4.776,-4.775 l 0,-83.752 c 0,-2.633 -2.143,-4.776 -4.776,-4.776 l -64.979,0 z"
         inkscape:connector-curvature="0"
         style="fill:#0057ae" />
      <linearGradient
         y2="105.3894"
         x2="25.257099"
         y1="26.941401"
         x1="103.7051"
         gradientUnits="userSpaceOnUse"
         id="linearGradient4356">
        <stop
           id="stop4358"
           style="stop-color:#DDDDDD"
           offset="0" />
        <stop
           id="stop4360"
           style="stop-color:#BBBBBB"
           offset="1" />
      </linearGradient>
      <path
         id="path71"
         d="m 31.992,21.402 c -1.592,0 -2.888,1.296 -2.888,2.888 l 0,83.752 c 0,1.593 1.296,2.888 2.888,2.888 l 64.979,0 c 1.593,0 2.889,-1.295 2.889,-2.888 l 0,-83.752 c 0,-1.592 -1.296,-2.888 -2.889,-2.888 l -64.979,0 z"
         inkscape:connector-curvature="0"
         style="fill:url(#XMLID_18_)" />
      <linearGradient
         y2="120.6103"
         x2="40.4776"
         y1="79.790001"
         x1="81.297897"
         gradientUnits="userSpaceOnUse"
         id="linearGradient4363">
        <stop
           id="stop4365"
           style="stop-color:#779BC7"
           offset="0" />
        <stop
           id="stop4367"
           style="stop-color:#91ADCF"
           offset="1" />
      </linearGradient>
      <path
         id="path78"
         d="m 99.859,108.042 0,-9.69 C 80.606,104.193 65.204,82.254 57.983,78.885 49.414,74.887 38.998,75.213 29.104,83.977 l 0,24.065 c 0,1.593 1.296,2.888 2.888,2.888 l 64.979,0 c 1.592,0 2.888,-1.295 2.888,-2.888 z"
         inkscape:connector-curvature="0"
         style="fill:url(#XMLID_19_)" />
      <linearGradient
         y2="116.0661"
         x2="64.234901"
         y1="121.3604"
         x1="64.234901"
         gradientUnits="userSpaceOnUse"
         id="linearGradient4370">
        <stop
           id="stop4372"
           style="stop-color:#6193CF"
           offset="0" />
        <stop
           id="stop4374"
           style="stop-color:#00316E"
           offset="1" />
      </linearGradient>
      <path
         id="path85"
         d="m 92.71,117.511 c 0,0.931 -0.753,1.684 -1.684,1.684 l -53.582,0 c -0.93,0 -1.685,-0.753 -1.685,-1.684 l 0,0 c 0,-0.932 0.755,-1.686 1.685,-1.686 l 53.582,0 c 0.931,0 1.684,0.754 1.684,1.686 l 0,0 z"
         inkscape:connector-curvature="0"
         style="fill:url(#XMLID_20_)" />
      <g
         id="g87">
        <path
           id="path89"
           d="m 43.835,97.712 c -0.453,1.075 -1.316,1.944 -2.589,2.603 -1.273,0.659 -2.719,0.988 -4.336,0.988 -1.658,0 -2.977,-0.375 -3.956,-1.126 l 2.126,-2.012 c 0.54,0.589 1.262,0.881 2.168,0.881 0.494,0 0.96,-0.108 1.399,-0.328 0.439,-0.22 0.731,-0.504 0.877,-0.85 0.137,-0.323 0.113,-0.666 -0.068,-1.025 -0.13,-0.231 -0.462,-0.657 -0.998,-1.282 -0.338,-0.37 -0.763,-0.862 -1.278,-1.476 -0.415,-0.658 -0.459,-1.377 -0.133,-2.15 0.403,-0.96 1.182,-1.73 2.333,-2.308 1.151,-0.579 2.468,-0.868 3.95,-0.868 1.294,0 2.416,0.271 3.362,0.813 l -1.919,1.903 c -0.605,-0.307 -1.173,-0.461 -1.706,-0.461 -0.879,0 -1.426,0.256 -1.641,0.763 -0.082,0.198 -0.076,0.396 0.022,0.591 0.096,0.197 0.358,0.521 0.782,0.972 0.497,0.532 0.954,1.111 1.372,1.735 0.55,0.821 0.627,1.7 0.233,2.637 z"
           inkscape:connector-curvature="0"
           style="fill:#ffffff" />
        <path
           id="path91"
           d="m 60.945,94.719 c -0.977,2.321 -2.727,4.064 -5.246,5.23 -1.656,0.764 -3.652,1.143 -5.988,1.143 l -4.667,0 5.102,-12.123 4.427,0 c 1.508,0 2.569,0.053 3.178,0.156 1.633,0.278 2.729,0.91 3.289,1.897 0.557,0.987 0.527,2.219 -0.095,3.697 z m -4.448,0.071 c 0.605,-1.438 0.52,-2.446 -0.257,-3.022 -0.428,-0.32 -1.152,-0.481 -2.17,-0.481 l -0.724,0 -3.153,7.49 0.644,0 c 1.274,0 2.325,-0.265 3.15,-0.794 1.068,-0.691 1.905,-1.754 2.51,-3.193 z"
           inkscape:connector-curvature="0"
           style="fill:#ffffff" />
      </g>
      <linearGradient
         y2="30.306601"
         x2="99.859398"
         y1="30.306601"
         x1="29.1035"
         gradientUnits="userSpaceOnUse"
         id="linearGradient4380">
        <stop
           id="stop4382"
           style="stop-color:#EEEEEE"
           offset="0" />
        <stop
           id="stop4384"
           style="stop-color:#FFFFFF"
           offset="1" />
      </linearGradient>
      <path
         id="path98"
         d="m 99.859,39.212 0,-14.922 c 0,-1.592 -1.296,-2.888 -2.889,-2.888 l -64.978,0 c -1.592,0 -2.888,1.296 -2.888,2.888 l 0,14.922 70.755,0 z"
         inkscape:connector-curvature="0"
         style="fill:url(#XMLID_21_)" />
      <g
         id="g100" />
      <g
         id="g114" />
      <linearGradient
         y2="29.994699"
         x2="89.812103"
         y1="35.625999"
         x1="95.443398"
         gradientUnits="userSpaceOnUse"
         id="linearGradient4400">
        <stop
           id="stop4402"
           style="stop-color:#E20800"
           offset="0" />
        <stop
           id="stop4404"
           style="stop-color:#E85752"
           offset="1" />
      </linearGradient>
    </g>
  </g>
</svg>
