<?xml version="1.0" encoding="UTF-8" standalone="no"?>
<!-- Created with Inkscape (http://www.inkscape.org/) -->

<svg
   xmlns:dc="http://purl.org/dc/elements/1.1/"
   xmlns:cc="http://creativecommons.org/ns#"
   xmlns:rdf="http://www.w3.org/1999/02/22-rdf-syntax-ns#"
   xmlns:svg="http://www.w3.org/2000/svg"
   xmlns="http://www.w3.org/2000/svg"
   xmlns:xlink="http://www.w3.org/1999/xlink"
   xmlns:sodipodi="http://sodipodi.sourceforge.net/DTD/sodipodi-0.dtd"
   xmlns:inkscape="http://www.inkscape.org/namespaces/inkscape"
   width="128"
   height="128"
   viewBox="0 0 128 128"
   id="svg2"
   version="1.1"
   inkscape:version="0.91 r13725"
   sodipodi:docname="tags.svg">
  <defs
     id="defs4">
    <radialGradient
       inkscape:collect="always"
       xlink:href="#linearGradient3075"
       id="radialGradient11644"
       gradientUnits="userSpaceOnUse"
       gradientTransform="matrix(1.844203,0.0098651,-0.00857302,1.598094,45.474919,-96.572267)"
       spreadMethod="reflect"
       cx="-52.250774"
       cy="128.00081"
       fx="-52.250774"
       fy="128.00081"
       r="36.937431" />
    <linearGradient
       id="linearGradient3075">
      <stop
         id="stop3077"
         offset="0"
         style="stop-color:#d7d7d7;stop-opacity:1" />
      <stop
         style="stop-color:#e3e3e3;stop-opacity:1"
         offset="0.42597079"
         id="stop3093" />
      <stop
         style="stop-color:#f1f1f1;stop-opacity:1;"
         offset="0.5892781"
         id="stop3085" />
      <stop
         id="stop3087"
         offset="0.80219787"
         style="stop-color:#d1d1d1;stop-opacity:1" />
      <stop
         id="stop3079"
         offset="1"
         style="stop-color:#d0d0d0;stop-opacity:1" />
    </linearGradient>
    <linearGradient
       inkscape:collect="always"
       xlink:href="#linearGradient7033"
       id="linearGradient11656"
       gradientUnits="userSpaceOnUse"
       gradientTransform="translate(0.144757,-0.233352)"
       x1="96.437851"
       y1="14.713447"
       x2="96.397697"
       y2="23.267729" />
    <linearGradient
       inkscape:collect="always"
       id="linearGradient7033">
      <stop
         style="stop-color:#ffffff;stop-opacity:1;"
         offset="0"
         id="stop7035" />
      <stop
         style="stop-color:#ffffff;stop-opacity:0;"
         offset="1"
         id="stop7037" />
    </linearGradient>
    <linearGradient
       inkscape:collect="always"
       xlink:href="#linearGradient2959"
       id="linearGradient11658"
       gradientUnits="userSpaceOnUse"
       gradientTransform="matrix(0.965789,0,0,0.944211,3.248297,-0.448682)"
       x1="111.30237"
       y1="-18.911451"
       x2="108.5625"
       y2="26.541067" />
    <linearGradient
       y2="3.1118"
       x2="17.0464"
       y1="7.6073999"
       x1="17.0464"
       gradientUnits="userSpaceOnUse"
       id="linearGradient2959">
      <stop
         id="stop2961"
         style="stop-color:#EEEEEE"
         offset="0" />
      <stop
         id="stop2963"
         style="stop-color:#CECECE"
         offset="0.2909" />
      <stop
         id="stop2965"
         style="stop-color:#888888"
         offset="0.85" />
      <stop
         id="stop2967"
         style="stop-color:#555555"
         offset="1" />
    </linearGradient>
    <linearGradient
       inkscape:collect="always"
       xlink:href="#linearGradient2959"
       id="linearGradient11662"
       gradientUnits="userSpaceOnUse"
       gradientTransform="matrix(1,0,0,0.989491,0.144757,0.128566)"
       x1="112.14121"
       y1="0.22972308"
       x2="108.5625"
       y2="41.496986" />
    <radialGradient
       inkscape:collect="always"
       xlink:href="#linearGradient11615"
       id="radialGradient11668"
       gradientUnits="userSpaceOnUse"
       gradientTransform="matrix(0.381766,0.111574,-0.139672,0.47791,70.02209,5.232857)"
       cx="99.498825"
       cy="33.076019"
       fx="92.406448"
       fy="33.504173"
       r="17.845808" />
    <linearGradient
       inkscape:collect="always"
       id="linearGradient11615">
      <stop
         style="stop-color:#000000;stop-opacity:1;"
         offset="0"
         id="stop11617" />
      <stop
         style="stop-color:#000000;stop-opacity:0;"
         offset="1"
         id="stop11619" />
    </linearGradient>
    <linearGradient
       inkscape:collect="always"
       xlink:href="#linearGradient4220"
       id="linearGradient4226"
       x1="76.962219"
       y1="15.275704"
       x2="93.230148"
       y2="15.275704"
       gradientUnits="userSpaceOnUse"
       gradientTransform="matrix(0.79283484,0,0,0.98323246,682.36956,657.65473)" />
    <linearGradient
       inkscape:collect="always"
       id="linearGradient4220">
      <stop
         style="stop-color:#f28935;stop-opacity:1;"
         offset="0"
         id="stop4222" />
      <stop
         style="stop-color:#b9590c;stop-opacity:1"
         offset="1"
         id="stop4224" />
    </linearGradient>
  </defs>
  <sodipodi:namedview
     id="base"
     pagecolor="#ffffff"
     bordercolor="#666666"
     borderopacity="1.0"
     inkscape:pageopacity="0.0"
     inkscape:pageshadow="2"
     inkscape:zoom="11.2"
     inkscape:cx="19.843024"
     inkscape:cy="69.707741"
     inkscape:document-units="px"
     inkscape:current-layer="layer1"
     showgrid="false"
     units="px"
     inkscape:window-width="3840"
     inkscape:window-height="2128"
     inkscape:window-x="0"
     inkscape:window-y="32"
     inkscape:window-maximized="0">
    <inkscape:grid
       type="xygrid"
       id="grid4214" />
  </sodipodi:namedview>
  <metadata
     id="metadata7">
    <rdf:RDF>
      <cc:Work
         rdf:about="">
        <dc:format>image/svg+xml</dc:format>
        <dc:type
           rdf:resource="http://purl.org/dc/dcmitype/StillImage" />
        <dc:title />
        <dc:creator>
          <cc:Agent>
            <dc:title>Kovid Goyal</dc:title>
          </cc:Agent>
        </dc:creator>
        <dc:rights>
          <cc:Agent>
            <dc:title />
          </cc:Agent>
        </dc:rights>
        <dc:publisher>
          <cc:Agent>
            <dc:title />
          </cc:Agent>
        </dc:publisher>
        <cc:license
           rdf:resource="http://creativecommons.org/licenses/by-sa/3.0/" />
      </cc:Work>
      <cc:License
         rdf:about="http://creativecommons.org/licenses/by-sa/3.0/">
        <cc:permits
           rdf:resource="http://creativecommons.org/ns#Reproduction" />
        <cc:permits
           rdf:resource="http://creativecommons.org/ns#Distribution" />
        <cc:requires
           rdf:resource="http://creativecommons.org/ns#Notice" />
        <cc:requires
           rdf:resource="http://creativecommons.org/ns#Attribution" />
        <cc:permits
           rdf:resource="http://creativecommons.org/ns#DerivativeWorks" />
        <cc:requires
           rdf:resource="http://creativecommons.org/ns#ShareAlike" />
      </cc:License>
    </rdf:RDF>
  </metadata>
  <g
     inkscape:label="Layer 1"
     inkscape:groupmode="layer"
     id="layer1"
     transform="translate(0,-924.36216)">
    <g
       id="g11627"
       transform="matrix(0.99686442,0,0,0.9939832,0.84579862,927.59255)">
      <path
         inkscape:connector-curvature="0"
         sodipodi:nodetypes="ccccccccccccssss"
         id="rect1410"
         d="m 65.957252,16.860398 c -3.049556,-0.275801 -6.186939,0.749438 -8.53125,3.09375 l -54.125,54.09375 c -4.19508499,4.195085 -4.19508509,10.961163 0,15.15625 l 30.15625,30.156252 c 4.195085,4.19509 10.961166,4.19508 15.15625,0 L 102.70726,65.235398 c 2.49083,-2.490832 3.13273,-5.870037 3.125,-9.09375 l -0.0625,-28.6875 c 0,-5.932749 -4.786,-10.71875 -10.718753,-10.71875 0,0 -28.607642,0.09192 -29.093755,0.125 z m 28.843755,5.125 c 3.66262,-0.16143 6.156253,2.485447 6.156253,5.5625 0,3.077053 -2.485453,5.5625 -5.562503,5.5625 -3.07706,10e-7 -5.59375,-2.485447 -5.59375,-5.5625 0,-2.884737 2.18203,-5.438298 5,-5.5625 z"
         style="opacity:1;fill:#000000;fill-opacity:1;fill-rule:nonzero;stroke:none;stroke-width:5.5999999;stroke-linecap:round;stroke-linejoin:round;stroke-miterlimit:4;stroke-dasharray:none;stroke-dashoffset:4;stroke-opacity:0.04313725" />
      <rect
         transform="matrix(0.707107,-0.707107,0.707107,0.707107,0,0)"
         rx="7.8982348"
         ry="7.8982348"
         y="64.655273"
         x="-51.673248"
         height="44.167801"
         width="73.874908"
         id="rect3166"
         style="opacity:1;fill:url(#radialGradient11644);fill-opacity:1;fill-rule:nonzero;stroke:none;stroke-width:5.5999999;stroke-linecap:round;stroke-linejoin:round;stroke-miterlimit:4;stroke-dasharray:none;stroke-dashoffset:4;stroke-opacity:0.04313725" />
      <path
         inkscape:connector-curvature="0"
         sodipodi:nodetypes="cccccccc"
         id="path7023"
         d="m 95.974287,17.823297 c -10.492771,0 -20.733943,-0.08387 -31.226713,-0.08387 -1.762073,0 -4.255833,0.942555 -5.871767,2.558489 -1.660248,1.726659 -3.404362,3.117855 -5.064611,4.844513 2.414223,-2.414222 7.212846,-5.724904 11.093084,-5.724904 7.421011,0 27.351047,-0.0983 31.070007,-0.03189 3.71177,0 7.055473,2.121104 8.954723,5.410703 -0.68877,-1.943344 -4.67334,-6.973043 -8.954723,-6.973043 z"
         style="fill:url(#linearGradient11656);fill-opacity:1;fill-rule:evenodd;stroke:none;stroke-width:1px;stroke-linecap:butt;stroke-linejoin:miter;stroke-opacity:1" />
      <path
         inkscape:connector-curvature="0"
         style="opacity:1;fill:url(#linearGradient11658);fill-opacity:1;fill-rule:nonzero;stroke:none;stroke-width:4.28100014;stroke-linecap:round;stroke-linejoin:round;stroke-miterlimit:4;stroke-dasharray:none;stroke-dashoffset:4;stroke-opacity:1"
         d="m 100.82818,26.326961 c -1.890153,-1.727837 -3.415423,-4.670514 -3.415423,-7.920927 0,-3.533359 1.96775,-6.823917 4.142823,-9.4743797 2.17506,-2.6504632 5.28768,-4.1241296 7.58345,-4.64867 2.29577,-0.5245403 5.79507,-0.1221965 7.97013,1.534343 2.17508,1.6565394 3.47363,4.2591447 3.47363,7.7925027 0,3.533359 -2.02809,6.984823 -4.20316,9.635286 -2.17507,2.650461 -5.98704,4.450271 -8.28282,4.974812 -0.90522,0.206827 -1.39525,0.258815 -2.34919,0.16418 l 0,3.641114 c 0.90698,-0.07736 1.37675,-0.178048 2.34919,-0.400232 5.41187,-1.236508 9.82659,-4.36931 12.70617,-7.878262 2.87957,-3.508952 4.52714,-7.616269 4.52714,-11.71412 0,-4.0978497 -1.64757,-7.4555617 -4.52714,-9.6486567 -2.22718,-1.69622208 -5.36254,-2.77457075 -9.175,-2.59658065 -1.11678,0.0521386 -2.30504,0.22146591 -3.53117,0.50161219 -5.41185,1.23650756 -9.856773,4.39881646 -12.736353,7.90776816 -2.87957,3.508952 -4.49695,7.586762 -4.49695,11.684613 -1e-5,4.09785 1.61738,7.485066 4.49695,9.678163 0.53992,0.411206 2.4878,1.271962 1.78068,1.091745 -0.0068,-0.0017 1.96319,1.251665 1.85535,0.684439 1.810883,-0.738325 2.208813,-3.477697 1.831693,-5.00875 z"
         id="path9411"
         sodipodi:nodetypes="csssssssccsssscssssscc" />
      <path
         inkscape:connector-curvature="0"
         sodipodi:nodetypes="ccsssssssccsssscsssss"
         id="path7046"
         d="m 97.375359,32.751517 c 2.10015,-0.773731 3.390351,-2.538598 3.560031,-4.734753 -1.957113,-1.810695 -3.290633,-4.723021 -3.290633,-8.129308 -1e-5,-3.702801 2.03744,-7.151156 4.289563,-9.9287217 2.25211,-2.7775654 5.47498,-4.3219011 7.85207,-4.8715958 2.3771,-0.5496945 6.00035,-0.1280564 8.25246,1.6079222 2.25212,1.7359783 3.59667,4.4633913 3.59667,8.1661903 0,3.702801 -2.09993,7.319779 -4.35205,10.097344 -2.25211,2.777565 -6.19911,4.663684 -8.57621,5.213379 -0.93729,0.216746 -1.96089,0.315625 -2.94862,0.216451 l 0,3.815723 c 0.93911,-0.08107 1.94173,-0.230984 2.94862,-0.463824 5.60357,-1.295804 10.17467,-4.578839 13.15625,-8.256062 2.98157,-3.677222 4.6875,-7.981505 4.6875,-12.275868 0,-4.2943614 -1.70593,-7.8130918 -4.6875,-10.1113563 -2.30607,-1.7775641 -5.5525,-2.90762479 -9.5,-2.72109918 -1.15634,0.0546388 -2.38669,0.23208625 -3.65625,0.52566685 C 103.1037,2.1974095 98.501327,5.5113663 95.519757,9.1885892 c -2.98158,3.6772228 -4.65625,7.9505838 -4.65625,12.2449458 -1e-5,4.294362 1.67467,7.844014 4.65625,10.142279 0.55904,0.430925 1.186172,0.832604 1.855602,1.175703 z"
         style="opacity:1;fill:url(#linearGradient11662);fill-opacity:1;fill-rule:nonzero;stroke:none;stroke-width:4.28100014;stroke-linecap:round;stroke-linejoin:round;stroke-miterlimit:4;stroke-dasharray:none;stroke-dashoffset:4;stroke-opacity:1" />
      <path
         inkscape:connector-curvature="0"
         style="opacity:1;fill:none;fill-opacity:1;fill-rule:nonzero;stroke:none;stroke-width:4.28100014;stroke-linecap:round;stroke-linejoin:round;stroke-miterlimit:4;stroke-dasharray:none;stroke-dashoffset:4;stroke-opacity:1"
         d="m 100.93539,27.951048 c -1.957113,-1.829927 -3.290633,-4.773185 -3.290633,-8.21565 -1e-5,-3.742128 1.49788,-7.442934 3.750003,-10.2499997 2.25211,-2.8070662 4.93541,-4.475717 7.3125,-5.03125 2.3771,-0.5555328 5.02914,-0.1294165 7.28125,1.625 2.25212,1.7544162 3.8125,4.7266227 3.8125,8.4687497 0,3.742128 -1.56038,7.505434 -3.8125,10.3125 -2.25211,2.807065 -4.90415,4.413217 -7.28125,4.96875 -0.93729,0.219048 -1.91852,0.318977 -2.90625,0.21875 l 0,4.15625 c 0.93911,-0.08193 1.89936,-0.233437 2.90625,-0.46875 5.60357,-1.309567 10.17467,-4.627471 13.15625,-8.34375 2.98157,-3.716278 4.6875,-8.066277 4.6875,-12.40625 0,-4.3399723 -1.70593,-7.8960753 -4.6875,-10.2187497 -2.30607,-1.79644362 -5.5525,-2.93850675 -9.5,-2.75000004 -1.15634,0.05521916 -2.38669,0.23455125 -3.65625,0.53125001 C 103.1037,1.8574651 98.501327,5.2066196 95.519757,8.9228983 c -2.98158,3.7162787 -4.65625,8.0350267 -4.65625,12.3749997 -1e-5,4.339973 1.67467,7.927325 4.65625,10.25 0.55904,0.435502 1.17432,0.809507 1.84375,1.15625 0.0064,0.0033 0.0248,-0.0033 0.03125,0 2.0689,-0.781949 3.370953,-2.53362 3.540633,-4.7531 z"
         id="path8516"
         sodipodi:nodetypes="csssssssccsssscssssscc" />
      <path
         inkscape:connector-curvature="0"
         style="opacity:0.60655739;fill:url(#radialGradient11668);fill-opacity:1;fill-rule:nonzero;stroke:none;stroke-width:4.28100014;stroke-linecap:round;stroke-linejoin:round;stroke-miterlimit:4;stroke-dasharray:none;stroke-dashoffset:4;stroke-opacity:1"
         d="m 90.96875,26.46875 c 0.743967,2.297267 2.100743,4.216351 3.96875,5.65625 0.555536,0.428222 1.147267,0.846552 1.8125,1.1875 2.656083,-0.950513 4.01114,-3.505137 3.46875,-6.40625 -0.15257,-0.139467 -0.321073,-0.282994 -0.46875,-0.4375 l -8.78125,0 z m 21.71875,0 c -1.83753,1.211058 -3.85538,2.017967 -5.28125,2.34375 -0.89954,0.205529 -1.36454,0.250292 -2.3125,0.15625 l 0,1.96875 0,1.65625 0,2.1875 c 0.93322,-0.08056 1.93692,-0.23737 2.9375,-0.46875 5.36542,-1.24073 9.78487,-4.350662 12.75,-7.84375 l -8.09375,0 z"
         transform="matrix(1.00631,0,0,1.00631,-9.76019e-4,-0.772966)"
         id="path11610" />
    </g>
    <rect
       style="fill:url(#linearGradient4226);fill-opacity:1;fill-rule:evenodd;stroke:none;stroke-width:4;stroke-linecap:round;stroke-linejoin:round;stroke-miterlimit:4;stroke-dasharray:none;stroke-opacity:1"
       id="rect4218"
       width="12.897779"
       height="59.568161"
       x="743.38788"
       y="642.89026"
       rx="6.2618093"
       ry="0.87134218"
       transform="matrix(0.70995957,0.70424244,-0.70753124,0.70668207,0,0)" />
  </g>
</svg>
