<?xml version="1.0" encoding="UTF-8" standalone="no"?>
<!-- Created with Inkscape (http://www.inkscape.org/) -->

<svg
   xmlns:dc="http://purl.org/dc/elements/1.1/"
   xmlns:cc="http://creativecommons.org/ns#"
   xmlns:rdf="http://www.w3.org/1999/02/22-rdf-syntax-ns#"
   xmlns:svg="http://www.w3.org/2000/svg"
   xmlns="http://www.w3.org/2000/svg"
   xmlns:sodipodi="http://sodipodi.sourceforge.net/DTD/sodipodi-0.dtd"
   xmlns:inkscape="http://www.inkscape.org/namespaces/inkscape"
   width="128"
   height="128"
   viewBox="0 0 128 128"
   id="svg2"
   version="1.1"
   inkscape:version="0.91 r13725"
   sodipodi:docname="template_funcs.svg">
  <defs
     id="defs4" />
  <sodipodi:namedview
     id="base"
     pagecolor="#ffffff"
     bordercolor="#666666"
     borderopacity="1.0"
     inkscape:pageopacity="0.0"
     inkscape:pageshadow="2"
     inkscape:zoom="11.2"
     inkscape:cx="19.843024"
     inkscape:cy="69.707741"
     inkscape:document-units="px"
     inkscape:current-layer="layer1"
     showgrid="false"
     units="px"
     inkscape:window-width="3840"
     inkscape:window-height="2128"
     inkscape:window-x="0"
     inkscape:window-y="32"
     inkscape:window-maximized="0" />
  <metadata
     id="metadata7">
    <rdf:RDF>
      <cc:Work
         rdf:about="">
        <dc:format>image/svg+xml</dc:format>
        <dc:type
           rdf:resource="http://purl.org/dc/dcmitype/StillImage" />
        <dc:title />
        <dc:creator>
          <cc:Agent>
            <dc:title>Kovid Goyal</dc:title>
          </cc:Agent>
        </dc:creator>
        <dc:rights>
          <cc:Agent>
            <dc:title />
          </cc:Agent>
        </dc:rights>
        <dc:publisher>
          <cc:Agent>
            <dc:title />
          </cc:Agent>
        </dc:publisher>
        <cc:license
           rdf:resource="http://creativecommons.org/licenses/by-sa/3.0/" />
      </cc:Work>
      <cc:License
         rdf:about="http://creativecommons.org/licenses/by-sa/3.0/">
        <cc:permits
           rdf:resource="http://creativecommons.org/ns#Reproduction" />
        <cc:permits
           rdf:resource="http://creativecommons.org/ns#Distribution" />
        <cc:requires
           rdf:resource="http://creativecommons.org/ns#Notice" />
        <cc:requires
           rdf:resource="http://creativecommons.org/ns#Attribution" />
        <cc:permits
           rdf:resource="http://creativecommons.org/ns#DerivativeWorks" />
        <cc:requires
           rdf:resource="http://creativecommons.org/ns#ShareAlike" />
      </cc:License>
    </rdf:RDF>
  </metadata>
  <g
     inkscape:label="Layer 1"
     inkscape:groupmode="layer"
     id="layer1"
     transform="translate(0,-924.36216)">
    <path
       d="m 127,948.02777 0,-16.36685 c 0,-3.47176 -2.82756,-6.29876 -6.3,-6.29876 l -113.4000009,0 c -3.472441,0 -6.3000001,2.827 -6.3000001,6.29876 l 0,16.36685 c 0,1.38871 1.1161418,2.52943 2.5299213,2.52943 l 120.9649597,0 c 1.38898,0 2.50512,-1.11593 2.50512,-2.52943 z"
       id="path6"
       style="fill:#0e00c1;fill-opacity:1" />
    <path
       d="m 29.970078,963.15472 -26.4401577,0 c -1.3889764,0 -2.5299213,1.11592 -2.5299213,2.52942 l 0,79.35446 c 0,3.4718 2.8275591,6.2988 6.3000001,6.2988 l 22.6700789,0 c 1.388977,0 2.529922,-1.116 2.529922,-2.5295 l 0,-83.12376 c 0,-1.4135 -1.116142,-2.52942 -2.529922,-2.52942 z"
       id="path8"
       style="fill:#0e00c1;fill-opacity:1" />
    <path
       d="m 45.1,965.68414 0,83.14856 c 0,1.3887 1.116141,2.5295 2.529921,2.5295 l 73.070079,0 c 3.47244,0 6.3,-2.827 6.3,-6.2988 l 0,-79.35446 c 0,-1.38871 -1.11614,-2.52943 -2.52992,-2.52943 l -76.840159,0 C 46.216141,963.15472 45.1,964.27064 45.1,965.68414 Z"
       id="path10"
       style="fill:#1458da;fill-opacity:1" />
  </g>
</svg>
