<?xml version="1.0" encoding="UTF-8" standalone="no"?>
<!-- Created with Inkscape (http://www.inkscape.org/) -->

<svg
   xmlns:dc="http://purl.org/dc/elements/1.1/"
   xmlns:cc="http://creativecommons.org/ns#"
   xmlns:rdf="http://www.w3.org/1999/02/22-rdf-syntax-ns#"
   xmlns:svg="http://www.w3.org/2000/svg"
   xmlns="http://www.w3.org/2000/svg"
   xmlns:xlink="http://www.w3.org/1999/xlink"
   xmlns:sodipodi="http://sodipodi.sourceforge.net/DTD/sodipodi-0.dtd"
   xmlns:inkscape="http://www.inkscape.org/namespaces/inkscape"
   width="128"
   height="128"
   viewBox="0 0 128 128"
   id="svg2"
   version="1.1"
   inkscape:version="0.91 r13725"
   sodipodi:docname="trash.svg">
  <defs
     id="defs4">
    <linearGradient
       inkscape:collect="always"
       id="linearGradient4151">
      <stop
         style="stop-color:#3a98df;stop-opacity:1"
         offset="0"
         id="stop4153" />
      <stop
         style="stop-color:#224c93;stop-opacity:1"
         offset="1"
         id="stop4155" />
    </linearGradient>
    <linearGradient
       inkscape:collect="always"
       xlink:href="#linearGradient4151"
       id="linearGradient4157"
       x1="582.77771"
       y1="261.28363"
       x2="582.77771"
       y2="910.85199"
       gradientUnits="userSpaceOnUse" />
  </defs>
  <sodipodi:namedview
     id="base"
     pagecolor="#ffffff"
     bordercolor="#666666"
     borderopacity="1.0"
     inkscape:pageopacity="0.0"
     inkscape:pageshadow="2"
     inkscape:zoom="11.2"
     inkscape:cx="47.132813"
     inkscape:cy="69.707741"
     inkscape:document-units="px"
     inkscape:current-layer="layer1"
     showgrid="true"
     units="px"
     inkscape:window-width="3840"
     inkscape:window-height="2128"
     inkscape:window-x="0"
     inkscape:window-y="32"
     inkscape:window-maximized="0">
    <inkscape:grid
       type="xygrid"
       id="grid4149" />
  </sodipodi:namedview>
  <metadata
     id="metadata7">
    <rdf:RDF>
      <cc:Work
         rdf:about="">
        <dc:format>image/svg+xml</dc:format>
        <dc:type
           rdf:resource="http://purl.org/dc/dcmitype/StillImage" />
        <dc:title />
        <dc:creator>
          <cc:Agent>
            <dc:title>Kovid Goyal</dc:title>
          </cc:Agent>
        </dc:creator>
        <dc:rights>
          <cc:Agent>
            <dc:title />
          </cc:Agent>
        </dc:rights>
        <dc:publisher>
          <cc:Agent>
            <dc:title />
          </cc:Agent>
        </dc:publisher>
        <cc:license
           rdf:resource="http://creativecommons.org/licenses/by-sa/3.0/" />
      </cc:Work>
      <cc:License
         rdf:about="http://creativecommons.org/licenses/by-sa/3.0/">
        <cc:permits
           rdf:resource="http://creativecommons.org/ns#Reproduction" />
        <cc:permits
           rdf:resource="http://creativecommons.org/ns#Distribution" />
        <cc:requires
           rdf:resource="http://creativecommons.org/ns#Notice" />
        <cc:requires
           rdf:resource="http://creativecommons.org/ns#Attribution" />
        <cc:permits
           rdf:resource="http://creativecommons.org/ns#DerivativeWorks" />
        <cc:requires
           rdf:resource="http://creativecommons.org/ns#ShareAlike" />
      </cc:License>
    </rdf:RDF>
  </metadata>
  <g
     inkscape:label="Layer 1"
     inkscape:groupmode="layer"
     id="layer1"
     transform="translate(0,-924.36216)">
    <g
       transform="matrix(0.12776625,0,0,0.14471148,5.5406801,919.55142)"
       id="g1078"
       style="fill:#dd8a1d;fill-opacity:1">
      <path
         style="fill:url(#linearGradient4157);fill-opacity:1"
         d="M 8.1147496,259.50461 165.56644,844.04977 c 14.80534,54.96536 7.31936,66.00432 53.73371,66.18524 l 474.85496,1.85097 c 46.41425,0.18093 41.94505,-25.05845 54.11662,-69.88719 L 906.98325,257.65363 Z"
         id="path4173"
         inkscape:connector-curvature="0"
         sodipodi:nodetypes="csssscc" />
      <g
         id="g4175"
         style="fill:#dd3c1d;fill-opacity:1">
        <g
           id="g4180"
           style="fill:#aa0000;fill-opacity:1">
          <path
             style="fill:#ffffff;fill-opacity:1"
             d="m 320.869,704.17 c 0,15.737 -12.758,28.495 -28.495,28.495 -7.868,0 -14.997,-3.189 -20.146,-8.347 -5.158,-5.15 -8.348,-12.278 -8.348,-20.148 l 0,-263.328 c 0,-15.737 12.757,-28.493 28.494,-28.493 7.869,0 14.997,3.189 20.146,8.348 5.159,5.149 8.348,12.278 8.348,20.146 l 0,263.327 z"
             id="path4171"
             inkscape:connector-curvature="0" />
          <path
             style="fill:#ffffff;fill-opacity:1"
             d="m 487.04,763.732 c 0,15.737 -12.756,28.495 -28.493,28.495 -7.87,0 -14.998,-3.191 -20.146,-8.348 -5.16,-5.15 -8.349,-12.279 -8.349,-20.147 l 0,-382.451 c 0,-15.737 12.757,-28.495 28.495,-28.495 7.868,0 14.997,3.189 20.146,8.35 5.157,5.148 8.347,12.277 8.347,20.145 l 0,382.451 z"
             id="path4169"
             inkscape:connector-curvature="0" />
          <path
             style="fill:#ffffff;fill-opacity:1"
             d="m 652.21,704.17 c 0,15.737 -12.756,28.495 -28.494,28.495 -7.868,0 -14.997,-3.189 -20.147,-8.347 -5.157,-5.15 -8.346,-12.278 -8.346,-20.148 l 0,-263.328 c 0,-15.737 12.756,-28.493 28.493,-28.493 7.869,0 14.998,3.189 20.148,8.348 5.157,5.149 8.346,12.278 8.346,20.146 l 0,263.327 z"
             id="path1080"
             inkscape:connector-curvature="0" />
        </g>
      </g>
    </g>
    <g
       transform="matrix(0.14457309,0,0,0.14471148,-2.1332251,919.55142)"
       id="g1082"
       style="fill:#aa0000;fill-opacity:1">
      <path
         inkscape:connector-curvature="0"
         d="m 630.438,123.67 0,35.484 -346,0 0,-35.484 c 0,-46.084 37.816,-83.516 83.901,-83.516 l 178.41,0 c 46.084,0 83.689,37.431 83.689,83.516 z"
         id="path1084"
         style="fill:#aa0000;fill-opacity:1" />
    </g>
    <g
       transform="matrix(0.15145753,0,0,0.14471148,-5.282884,919.55142)"
       id="g1086"
       style="fill:#aa0000">
      <g
         id="g1088"
         style="fill:#aa0000">
        <path
           inkscape:connector-curvature="0"
           d="m 844.455,204.733 c -20.299,0 -40.598,0 -60.896,0 -50.373,0 -100.745,0 -151.118,0 -64.659,0 -129.318,0 -193.978,0 -63.16,0 -126.319,0 -189.479,0 -45.873,0 -91.747,0 -137.62,0 -13.646,0 -27.292,0 -40.938,0 -15.263,0 -28,12.737 -28,28 0,15.263 12.737,28 28,28 20.299,0 40.598,0 60.897,0 50.373,0 100.745,0 151.117,0 64.66,0 129.319,0 193.979,0 63.159,0 126.319,0 189.479,0 45.874,0 91.747,0 137.62,0 13.646,0 27.292,0 40.938,0 15.264,0 28,-12.737 28,-28 0,-15.263 -12.738,-28 -28.001,-28 l 0,0 z"
           id="path1090"
           style="fill:#aa0000" />
      </g>
    </g>
  </g>
</svg>
