<?xml version="1.0" encoding="UTF-8" standalone="no"?>
<!-- Created with Inkscape (http://www.inkscape.org/) -->

<svg
   xmlns:dc="http://purl.org/dc/elements/1.1/"
   xmlns:cc="http://creativecommons.org/ns#"
   xmlns:rdf="http://www.w3.org/1999/02/22-rdf-syntax-ns#"
   xmlns:svg="http://www.w3.org/2000/svg"
   xmlns="http://www.w3.org/2000/svg"
   xmlns:xlink="http://www.w3.org/1999/xlink"
   xmlns:sodipodi="http://sodipodi.sourceforge.net/DTD/sodipodi-0.dtd"
   xmlns:inkscape="http://www.inkscape.org/namespaces/inkscape"
   width="128"
   height="128"
   viewBox="0 0 128 128"
   id="svg2"
   version="1.1"
   inkscape:version="0.91 r13725"
   sodipodi:docname="user_profile.svg">
  <defs
     id="defs4">
    <radialGradient
       inkscape:collect="always"
       xlink:href="#linearGradient3291"
       id="radialGradient3297"
       cx="63.912209"
       cy="115.70919"
       fx="63.912209"
       fy="115.7093"
       r="63.912209"
       gradientTransform="matrix(1,0,0,0.197802,0,92.82166)"
       gradientUnits="userSpaceOnUse" />
    <linearGradient
       inkscape:collect="always"
       id="linearGradient3291">
      <stop
         style="stop-color:#000000;stop-opacity:1;"
         offset="0"
         id="stop3293" />
      <stop
         style="stop-color:#000000;stop-opacity:0;"
         offset="1"
         id="stop3295" />
    </linearGradient>
    <linearGradient
       inkscape:collect="always"
       xlink:href="#linearGradient2892"
       id="linearGradient2898"
       x1="-36.6875"
       y1="68.546097"
       x2="8.8780031"
       y2="68.546097"
       gradientUnits="userSpaceOnUse"
       gradientTransform="matrix(0.976425,0,0,0.976425,89.25375,-30.60483)" />
    <linearGradient
       inkscape:collect="always"
       id="linearGradient2892">
      <stop
         style="stop-color:white;stop-opacity:1;"
         offset="0"
         id="stop2894" />
      <stop
         style="stop-color:white;stop-opacity:0;"
         offset="1"
         id="stop2896" />
    </linearGradient>
    <linearGradient
       inkscape:collect="always"
       xlink:href="#linearGradient2892"
       id="linearGradient2911"
       x1="-140.05789"
       y1="162.54935"
       x2="-68.625"
       y2="150.66425"
       gradientUnits="userSpaceOnUse"
       gradientTransform="matrix(0.976425,0,0,0.976425,188.5312,-53.55159)" />
    <linearGradient
       inkscape:collect="always"
       xlink:href="#linearGradient2892"
       id="linearGradient2915"
       gradientUnits="userSpaceOnUse"
       gradientTransform="matrix(-0.976425,0,0,0.976425,-58.97349,-53.55159)"
       x1="-185.31273"
       y1="159.3495"
       x2="-68.625"
       y2="150.66425" />
  </defs>
  <sodipodi:namedview
     id="base"
     pagecolor="#ffffff"
     bordercolor="#666666"
     borderopacity="1.0"
     inkscape:pageopacity="0.0"
     inkscape:pageshadow="2"
     inkscape:zoom="11.2"
     inkscape:cx="19.843024"
     inkscape:cy="69.707741"
     inkscape:document-units="px"
     inkscape:current-layer="layer1"
     showgrid="false"
     units="px"
     inkscape:window-width="3840"
     inkscape:window-height="2128"
     inkscape:window-x="0"
     inkscape:window-y="32"
     inkscape:window-maximized="0" />
  <metadata
     id="metadata7">
    <rdf:RDF>
      <cc:Work
         rdf:about="">
        <dc:format>image/svg+xml</dc:format>
        <dc:type
           rdf:resource="http://purl.org/dc/dcmitype/StillImage" />
        <dc:title />
        <dc:creator>
          <cc:Agent>
            <dc:title>Kovid Goyal</dc:title>
          </cc:Agent>
        </dc:creator>
        <dc:rights>
          <cc:Agent>
            <dc:title />
          </cc:Agent>
        </dc:rights>
        <dc:publisher>
          <cc:Agent>
            <dc:title />
          </cc:Agent>
        </dc:publisher>
        <cc:license
           rdf:resource="http://creativecommons.org/licenses/by-sa/3.0/" />
      </cc:Work>
      <cc:License
         rdf:about="http://creativecommons.org/licenses/by-sa/3.0/">
        <cc:permits
           rdf:resource="http://creativecommons.org/ns#Reproduction" />
        <cc:permits
           rdf:resource="http://creativecommons.org/ns#Distribution" />
        <cc:requires
           rdf:resource="http://creativecommons.org/ns#Notice" />
        <cc:requires
           rdf:resource="http://creativecommons.org/ns#Attribution" />
        <cc:permits
           rdf:resource="http://creativecommons.org/ns#DerivativeWorks" />
        <cc:requires
           rdf:resource="http://creativecommons.org/ns#ShareAlike" />
      </cc:License>
    </rdf:RDF>
  </metadata>
  <g
     inkscape:label="Layer 1"
     inkscape:groupmode="layer"
     id="layer1"
     transform="translate(0,-924.36216)">
    <g
       transform="translate(-0.17864456,924.25003)"
       id="g4191">
      <path
         inkscape:connector-curvature="0"
         style="fill:#ffffff;fill-opacity:0.75688076;fill-rule:nonzero;stroke:none;stroke-width:0.5;stroke-linecap:round;stroke-linejoin:round;stroke-miterlimit:4;stroke-dasharray:none;stroke-dashoffset:4;stroke-opacity:1"
         d="m 50.892799,3.2812959 0,-2.79470843 0,2.79470843 z"
         id="path2276"
         sodipodi:nodetypes="ccc" />
      <ellipse
         ry="12.641975"
         rx="63.912209"
         cy="115.70919"
         cx="63.912209"
         transform="matrix(1,0,0,0.416667,0.266436,74.25798)"
         id="path3289"
         style="opacity:0.38139535;fill:url(#radialGradient3297);fill-opacity:1;fill-rule:nonzero;stroke:none;stroke-width:0;stroke-linecap:round;stroke-linejoin:round;stroke-miterlimit:4;stroke-dasharray:none;stroke-dashoffset:4;stroke-opacity:1" />
      <path
         inkscape:connector-curvature="0"
         id="path2375"
         d="m 64.126842,1.3826379 c -5.70045,0.072827 -11.221205,2.7577488 -15.744847,9.0319281 -12.470799,3.34154 -15.686408,21.0623 -16.782298,33.381516 -1.392318,15.651451 6.615934,25.488522 17.514616,29.719925 -0.158808,1.776391 -0.554257,3.289457 -1.098477,4.210831 -2.047835,3.467002 -6.697365,6.474555 -14.73791,8.757308 -8.970401,2.546737 -16.085492,5.021528 -21.237235,9.550654 -4.5608795,4.00968 -7.5062644,8.64621 -7.5062644,14.58534 0,15.41586 119.3373934,16.23197 119.3373934,0 1e-5,-5.93913 -2.94538,-10.57567 -7.50626,-14.58534 C 111.27103,91.555971 104.15639,88.925208 95.128324,86.362093 87.028227,84.062439 82.381647,81.149675 80.359901,77.726838 79.684606,76.58356 79.264762,74.560445 79.200397,72.203936 89.11651,67.571946 96.962124,58.62877 98.118624,45.443799 99.954507,24.513404 81.228191,1.1641579 64.126842,1.3826379 Z"
         style="fill:#000000;fill-opacity:1;stroke:none;stroke-width:2;stroke-miterlimit:4;stroke-dasharray:none;stroke-opacity:1" />
      <path
         inkscape:connector-curvature="0"
         style="fill:#000000;fill-opacity:1;stroke:none;stroke-width:2;stroke-miterlimit:4;stroke-dasharray:none;stroke-opacity:1"
         d="m 64.126842,1.3826379 c -5.70045,0.072827 -11.221205,2.7577488 -15.744847,9.0319281 -12.470799,3.34154 -15.686408,21.0623 -16.782298,33.381516 -1.392318,15.651451 6.615934,25.488522 17.514616,29.719925 -0.158808,1.776391 -0.554257,3.289457 -1.098477,4.210831 -2.047835,3.467002 -6.697365,6.474555 -14.73791,8.757308 -8.970401,2.546737 -16.085492,5.021528 -21.237235,9.550654 -4.5608795,4.00968 -7.5062644,8.64621 -7.5062644,14.58534 0,15.41586 119.3373934,16.23197 119.3373934,0 1e-5,-5.93913 -2.94538,-10.57567 -7.50626,-14.58534 C 111.27103,91.555971 104.15639,88.925208 95.128324,86.362093 87.028227,84.062439 82.381647,81.149675 80.359901,77.726838 79.684606,76.58356 79.264762,74.560445 79.200397,72.203936 89.11651,67.571946 96.962124,58.62877 98.118624,45.443799 99.954507,24.513404 81.228191,1.1641579 64.126842,1.3826379 Z"
         id="path2878" />
      <path
         inkscape:connector-curvature="0"
         sodipodi:nodetypes="ccsscsc"
         id="path2882"
         d="M 63.805682,2.3189945 C 60.204653,2.3650007 56.68272,3.4814485 53.43117,5.8585338 56.378477,3.9906882 61.133543,3.7479685 64.326992,4.0398775 79.377077,5.4155836 98.565383,26.21259 96.7295,47.142988 95.820607,57.505059 90.782821,65.24448 83.8529,70.333073 91.331974,65.269474 96.842277,57.270013 97.797464,46.380156 99.633352,25.449758 80.907031,2.1005146 63.805682,2.3189945 Z"
         style="fill:url(#linearGradient2898);fill-opacity:1;stroke:none;stroke-width:2;stroke-miterlimit:4;stroke-dasharray:none;stroke-opacity:0.2073171" />
      <path
         inkscape:connector-curvature="0"
         sodipodi:nodetypes="ccssscssssc"
         id="path2900"
         d="m 79.147382,75.901301 c -0.04709,0.02225 -0.09802,0.03604 -0.145224,0.05809 0.06127,2.243121 0.460912,4.168875 1.103712,5.257149 1.924464,3.258143 6.347463,6.03075 14.057799,8.219747 8.593651,2.439783 15.365961,4.94396 20.215341,9.207278 4.00034,3.516865 6.68827,7.543175 7.08699,12.576505 0.0254,-0.16046 0.0581,-0.32964 0.0581,-0.49377 0,-5.65335 -2.80367,-10.06679 -7.14509,-13.883529 C 109.52963,92.579463 102.75732,90.075276 94.163669,87.635494 86.453333,85.446506 82.030334,82.673889 80.10587,79.415746 79.636815,78.621639 79.320492,77.385183 79.147382,75.901301 Z"
         style="fill:url(#linearGradient2911);fill-opacity:1;stroke:none;stroke-width:2;stroke-miterlimit:4;stroke-dasharray:none;stroke-opacity:1" />
      <path
         inkscape:connector-curvature="0"
         style="fill:url(#linearGradient2915);fill-opacity:1;stroke:none;stroke-width:2;stroke-miterlimit:4;stroke-dasharray:none;stroke-opacity:1"
         d="m 50.410374,75.901301 c 0.04709,0.02225 0.09802,0.03604 0.145224,0.05809 -0.06127,2.243121 -0.460911,4.168875 -1.103711,5.257149 -1.924465,3.258143 -6.347463,6.03075 -14.0578,8.219747 -8.593655,2.439783 -15.365961,4.94396 -20.215344,9.207278 -4.000334,3.516865 -6.6882648,7.543175 -7.0869878,12.576505 -0.025367,-0.16046 -0.058097,-0.32964 -0.058097,-0.49377 0,-5.65335 2.8036668,-10.06679 7.1450848,-13.883529 4.849383,-4.263305 11.621689,-6.767492 20.215344,-9.207274 7.710337,-2.188988 12.133335,-4.961605 14.0578,-8.219748 0.469055,-0.794107 0.785377,-2.030563 0.958487,-3.514445 z"
         id="path2913"
         sodipodi:nodetypes="ccssscssssc" />
    </g>
  </g>
</svg>
